<svg width="1024" height="1575" viewBox="0 0 1024 1575" fill="none" xmlns="http://www.w3.org/2000/svg">
<path opacity="0.01" fill-rule="evenodd" clip-rule="evenodd" d="M360.849 684.294C398.92 583.591 384.625 432.315 485.422 394.835C583.189 358.48 657.923 497.009 753.135 538.424C841.605 576.907 954.637 557.906 1021.06 627.826C1091.98 702.479 1121.44 812.86 1111.69 915.848C1102.12 1016.82 1045.51 1109.86 969.068 1176.82C899.986 1237.34 804.19 1241.99 715.077 1263.28C629.301 1283.78 536.627 1340.75 459.574 1298.59C382.381 1256.36 382.224 1147.12 351.675 1064.45C328.667 1002.19 301.856 942.668 303.461 876.144C305.109 807.847 336.644 748.317 360.849 684.294Z" stroke="url(#paint0_linear_148_176)" stroke-opacity="0.3" stroke-width="3"/>
<path opacity="0.02" fill-rule="evenodd" clip-rule="evenodd" d="M355.34 684.559C391.525 583.545 374.646 433.044 474.44 393.943C571.235 356.017 648.122 492.765 743.725 532.383C832.559 569.194 944.869 548.296 1012.28 616.819C1084.25 689.98 1115.53 799.466 1107.61 902.265C1099.84 1003.06 1045.04 1096.75 970.029 1164.81C902.24 1226.31 806.858 1232.61 718.425 1255.38C633.303 1277.3 541.942 1335.68 464.423 1295.01C386.761 1254.26 384.703 1145.4 352.82 1063.55C328.807 1001.91 301.052 943.059 301.493 876.739C301.946 808.651 332.335 748.78 355.34 684.559Z" stroke="url(#paint1_linear_148_176)" stroke-opacity="0.3" stroke-width="3"/>
<path opacity="0.03" fill-rule="evenodd" clip-rule="evenodd" d="M349.886 684.93C384.186 583.64 364.744 433.957 463.509 393.259C559.308 353.783 638.309 488.719 734.27 526.537C823.435 561.678 934.99 538.901 1003.36 606.014C1076.36 677.669 1109.44 786.23 1103.33 888.808C1097.34 989.382 1044.36 1083.7 970.801 1152.82C904.32 1215.29 809.378 1223.22 721.65 1247.45C637.206 1270.77 547.18 1330.54 469.221 1291.35C391.12 1252.09 387.173 1143.65 353.975 1062.65C328.972 1001.63 300.289 943.471 299.573 877.374C298.838 809.516 328.079 749.327 349.886 684.93Z" stroke="url(#paint2_linear_148_176)" stroke-opacity="0.3" stroke-width="3"/>
<path opacity="0.04" fill-rule="evenodd" clip-rule="evenodd" d="M344.493 685.406C376.909 583.876 354.928 435.055 452.641 392.783C547.417 351.782 628.493 484.873 724.777 520.892C814.244 554.36 925.013 529.725 994.314 595.415C1068.31 665.551 1103.16 773.157 1098.86 875.482C1094.64 975.808 1043.49 1070.72 971.392 1140.87C906.23 1204.28 811.758 1213.83 724.757 1239.5C641.014 1264.21 552.343 1325.32 473.974 1287.63C395.462 1249.87 389.639 1141.88 355.147 1061.73C329.169 1001.36 299.572 943.904 297.707 878.051C295.794 810.443 323.884 749.957 344.493 685.406Z" stroke="url(#paint3_linear_148_176)" stroke-opacity="0.3" stroke-width="3"/>
<path opacity="0.05" fill-rule="evenodd" clip-rule="evenodd" d="M339.155 685.985C369.689 584.248 345.193 436.331 441.827 392.511C535.558 350.007 618.669 481.222 715.244 515.442C804.98 547.238 914.933 520.766 985.135 585.021C1060.09 653.626 1096.69 760.248 1094.19 862.288C1091.74 962.335 1042.42 1057.8 971.793 1128.96C907.963 1193.28 813.988 1204.44 727.739 1231.53C644.719 1257.6 557.422 1320.04 478.671 1283.84C399.776 1247.58 392.093 1140.07 356.325 1060.8C329.387 1001.1 298.893 944.354 295.888 878.765C292.803 811.428 319.742 750.666 339.155 685.985Z" stroke="url(#paint4_linear_148_176)" stroke-opacity="0.3" stroke-width="3"/>
<path opacity="0.06" fill-rule="evenodd" clip-rule="evenodd" d="M333.883 686.666C362.538 584.757 335.552 437.788 431.084 392.444C523.745 348.462 608.849 477.77 705.681 510.191C795.657 540.317 904.763 512.028 975.838 574.837C1051.72 641.898 1090.06 747.508 1089.34 849.232C1088.64 948.968 1041.16 1044.95 972.015 1117.09C909.53 1182.29 816.079 1195.04 730.604 1223.53C648.33 1250.96 562.427 1314.7 483.322 1279.99C404.072 1245.23 394.544 1138.23 357.521 1059.86C329.637 1000.84 298.262 944.824 294.125 879.518C289.878 812.472 315.664 751.456 333.883 686.666Z" stroke="url(#paint5_linear_148_176)" stroke-opacity="0.3" stroke-width="3"/>
<path opacity="0.07" fill-rule="evenodd" clip-rule="evenodd" d="M328.679 687.448C355.459 585.402 326.008 439.422 420.414 392.578C511.984 347.142 599.04 474.515 696.096 505.139C786.28 533.595 894.509 503.511 966.427 564.863C1043.21 630.369 1083.25 734.939 1084.31 836.315C1085.35 935.711 1039.7 1032.18 972.062 1105.27C910.933 1171.32 818.033 1185.65 733.355 1215.53C651.848 1244.28 567.357 1309.29 487.926 1276.08C408.349 1242.81 396.991 1136.36 358.734 1058.91C329.92 1000.58 297.68 945.311 292.421 880.309C287.021 813.574 311.654 752.326 328.679 687.448Z" stroke="url(#paint6_linear_148_176)" stroke-opacity="0.3" stroke-width="3"/>
<path opacity="0.08" fill-rule="evenodd" clip-rule="evenodd" d="M323.542 688.329C348.45 586.18 316.561 441.23 409.818 392.912C500.273 346.047 589.241 471.455 686.487 500.285C776.848 527.073 884.171 495.216 956.904 555.101C1034.56 619.039 1076.28 722.543 1079.1 823.541C1081.86 922.566 1038.06 1019.48 971.93 1093.49C912.167 1160.37 819.845 1176.26 735.986 1207.5C655.267 1237.57 572.207 1303.81 492.478 1272.1C412.603 1240.34 399.431 1134.46 359.96 1057.95C330.232 1000.33 297.143 945.815 290.77 881.134C284.228 814.73 307.707 753.272 323.542 688.329Z" stroke="url(#paint7_linear_148_176)" stroke-opacity="0.3" stroke-width="3"/>
<path opacity="0.09" fill-rule="evenodd" clip-rule="evenodd" d="M318.465 689.307C341.506 587.089 307.205 443.209 399.291 393.444C488.609 345.175 579.445 468.59 676.85 495.628C767.357 520.751 873.745 487.143 947.264 545.551C1025.76 607.913 1069.13 710.323 1073.7 810.912C1078.18 909.536 1036.22 1006.87 971.613 1081.76C913.226 1149.44 821.507 1166.88 738.489 1199.46C658.58 1230.83 576.968 1298.28 496.969 1268.07C416.823 1237.8 401.854 1132.53 361.19 1056.98C330.564 1000.08 296.643 946.334 289.167 881.994C281.491 815.941 303.816 754.293 318.465 689.307Z" stroke="url(#paint8_linear_148_176)" stroke-opacity="0.3" stroke-width="3"/>
<path opacity="0.1" fill-rule="evenodd" clip-rule="evenodd" d="M313.469 690.381C334.648 588.129 297.963 445.359 388.855 394.172C477.016 344.524 569.679 465.92 667.208 491.169C757.831 514.63 863.256 479.294 937.531 536.217C1016.83 596.992 1061.83 698.282 1068.14 798.433C1074.32 896.626 1034.2 994.341 971.131 1070.08C914.13 1138.53 823.041 1157.51 740.885 1191.42C661.806 1224.06 581.658 1292.69 501.417 1263.97C421.029 1235.21 404.28 1130.57 362.445 1056C330.937 999.833 296.2 946.868 287.63 882.889C278.831 817.204 300.004 755.39 313.469 690.381Z" stroke="url(#paint9_linear_148_176)" stroke-opacity="0.3" stroke-width="3"/>
<path opacity="0.11" fill-rule="evenodd" clip-rule="evenodd" d="M308.542 691.55C327.864 589.297 288.825 447.677 378.501 395.095C465.483 344.093 559.93 463.444 657.551 486.908C748.26 508.711 852.695 471.67 927.696 527.098C1007.77 586.277 1054.38 686.423 1062.4 786.104C1070.27 883.838 1032 981.899 970.473 1058.46C914.867 1127.66 824.433 1148.15 743.16 1183.36C664.932 1217.26 586.264 1287.03 505.809 1259.82C425.206 1232.55 406.695 1128.58 363.71 1055C331.336 999.588 295.801 947.417 286.147 883.816C276.236 818.52 296.257 756.56 308.542 691.55Z" stroke="url(#paint10_linear_148_176)" stroke-opacity="0.3" stroke-width="3"/>
<path opacity="0.12" fill-rule="evenodd" clip-rule="evenodd" d="M303.686 692.811C321.159 590.59 279.793 450.158 368.233 396.207C454.017 343.878 550.204 461.159 647.885 482.843C738.65 502.991 842.066 464.27 917.764 518.195C998.586 575.77 1046.77 674.746 1056.5 773.928C1066.04 871.174 1029.62 969.547 969.641 1046.91C915.439 1116.82 825.684 1138.8 745.316 1175.3C667.957 1210.44 590.785 1281.33 510.144 1255.61C429.354 1229.84 409.098 1126.56 364.986 1054C331.763 999.343 295.447 947.977 284.72 884.773C273.707 819.885 292.577 757.8 303.686 692.811Z" stroke="url(#paint11_linear_148_176)" stroke-opacity="0.3" stroke-width="3"/>
<path opacity="0.13" fill-rule="evenodd" clip-rule="evenodd" d="M298.909 694.163C314.54 592.008 270.877 452.802 358.061 397.51C442.625 343.879 540.51 459.066 638.219 478.974C729.009 497.473 831.38 457.095 907.746 509.51C989.281 565.474 1039.01 663.254 1050.44 761.91C1061.64 858.638 1027.06 957.288 968.643 1035.41C915.852 1106.01 826.803 1129.47 747.358 1167.24C670.888 1203.59 595.227 1275.56 514.427 1251.34C433.479 1227.07 411.497 1124.52 366.279 1052.98C332.224 999.1 295.143 948.551 283.354 885.761C271.25 821.298 288.972 759.11 298.909 694.163Z" stroke="url(#paint12_linear_148_176)" stroke-opacity="0.3" stroke-width="3"/>
<path opacity="0.14" fill-rule="evenodd" clip-rule="evenodd" d="M294.21 695.605C308.006 593.549 262.075 455.607 347.983 399.001C431.31 344.096 530.848 457.164 628.552 475.303C719.338 492.157 820.638 450.147 897.642 501.046C979.858 555.39 1031.12 651.952 1044.22 750.051C1057.06 846.234 1024.32 945.127 967.478 1023.98C916.106 1095.24 827.785 1120.17 749.283 1159.18C673.721 1196.73 599.586 1269.75 518.654 1247.02C437.574 1224.24 413.886 1122.44 367.585 1051.95C332.714 998.858 294.886 949.136 282.046 886.779C268.864 822.761 285.439 760.489 294.21 695.605Z" stroke="url(#paint13_linear_148_176)" stroke-opacity="0.3" stroke-width="3"/>
<path opacity="0.15" fill-rule="evenodd" clip-rule="evenodd" d="M289.594 697.135C301.563 595.211 253.397 458.568 338.009 400.675C420.079 344.523 521.227 455.45 618.895 471.826C709.646 487.042 809.85 443.425 887.462 492.801C970.328 545.519 1023.08 640.839 1037.84 738.354C1052.32 833.963 1021.42 933.066 966.151 1012.62C916.205 1084.51 828.637 1110.88 751.098 1151.12C676.462 1189.84 603.866 1263.89 522.83 1242.64C441.646 1221.35 416.271 1120.34 368.91 1050.91C333.24 998.616 294.682 949.732 280.803 887.825C266.554 824.268 281.985 761.936 289.594 697.135Z" stroke="url(#paint14_linear_148_176)" stroke-opacity="0.3" stroke-width="3"/>
<path opacity="0.16" fill-rule="evenodd" clip-rule="evenodd" d="M285.06 698.752C295.211 596.992 244.84 461.685 328.138 402.534C408.933 345.161 511.647 453.926 609.246 468.545C699.934 482.129 799.016 436.93 877.207 484.778C960.691 535.864 1014.91 629.919 1031.32 726.822C1047.41 821.831 1018.34 921.108 964.662 1001.33C916.149 1073.83 829.356 1101.63 752.798 1143.06C679.107 1182.94 608.062 1257.97 526.95 1238.21C445.689 1218.42 418.646 1118.21 370.248 1049.86C333.796 998.373 294.528 950.338 279.621 888.898C264.316 825.821 278.606 763.448 285.06 698.752Z" stroke="url(#paint15_linear_148_176)" stroke-opacity="0.3" stroke-width="3"/>
<path opacity="0.17" fill-rule="evenodd" clip-rule="evenodd" d="M280.61 700.452C288.953 598.889 236.408 464.953 318.375 404.572C397.878 346.005 502.112 452.587 599.612 465.457C690.207 477.416 788.142 430.661 866.883 476.975C950.953 526.423 1006.62 619.193 1024.65 715.455C1042.33 809.836 1015.1 909.254 963.013 990.115C915.938 1063.19 829.945 1092.39 754.386 1135C681.656 1176.02 612.176 1252.01 531.014 1233.73C449.703 1215.42 421.015 1116.05 371.602 1048.79C334.386 998.129 294.424 950.952 278.501 889.996C262.154 827.416 275.306 765.023 280.61 700.452Z" stroke="url(#paint16_linear_148_176)" stroke-opacity="0.3" stroke-width="3"/>
<path opacity="0.18" fill-rule="evenodd" clip-rule="evenodd" d="M276.242 702.235C282.787 600.9 228.102 468.369 308.718 406.786C386.912 347.053 492.623 451.433 589.991 462.561C680.465 472.902 777.23 424.619 856.49 469.394C941.115 517.2 998.191 608.661 1017.83 704.256C1037.09 797.983 1011.7 897.508 961.204 978.977C915.573 1052.6 830.401 1083.19 755.859 1126.96C684.108 1169.08 616.204 1246.01 535.019 1229.2C453.685 1212.37 423.371 1113.87 372.967 1047.71C335.005 997.882 294.367 951.573 277.441 891.118C260.064 829.052 272.082 766.66 276.242 702.235Z" stroke="url(#paint17_linear_148_176)" stroke-opacity="0.3" stroke-width="3"/>
<path opacity="0.19" fill-rule="evenodd" clip-rule="evenodd" d="M271.964 704.098C276.72 603.024 219.928 471.932 299.178 409.176C376.046 348.305 483.188 450.463 580.395 459.859C670.718 468.59 766.288 418.803 846.039 462.036C931.187 508.196 989.646 598.327 1010.88 693.228C1031.7 786.275 1008.13 885.874 959.242 967.92C915.059 1042.07 830.73 1074.02 757.222 1118.92C686.467 1162.14 620.15 1239.96 538.969 1224.63C457.639 1209.27 425.721 1111.66 374.35 1046.62C335.659 997.634 294.363 952.201 276.446 892.264C258.052 830.729 268.94 768.359 271.964 704.098Z" stroke="url(#paint18_linear_148_176)" stroke-opacity="0.3" stroke-width="3"/>
<path opacity="0.2" fill-rule="evenodd" clip-rule="evenodd" d="M267.772 706.041C270.751 605.258 211.885 475.638 289.752 411.738C365.28 349.757 473.807 449.675 570.821 457.347C660.965 464.477 755.319 413.214 835.529 454.901C921.169 499.41 980.983 588.193 1003.79 682.373C1026.16 774.713 1004.41 874.353 957.124 956.944C914.394 1031.58 830.93 1064.89 758.474 1110.9C688.73 1155.18 624.01 1233.87 542.86 1220C461.561 1206.11 428.061 1109.42 375.745 1045.51C336.344 997.382 294.408 952.835 275.514 893.431C256.116 832.443 265.878 770.115 267.772 706.041Z" stroke="url(#paint19_linear_148_176)" stroke-opacity="0.3" stroke-width="3"/>
<path opacity="0.21" fill-rule="evenodd" clip-rule="evenodd" d="M263.67 708.059C264.884 607.599 203.978 479.484 280.446 414.468C354.617 351.406 464.485 449.067 561.276 455.025C651.213 460.562 744.327 407.851 824.969 447.989C911.069 490.845 972.208 578.258 996.574 671.692C1020.46 763.3 1000.53 862.948 954.856 946.053C913.582 1021.16 831.005 1055.79 759.615 1102.88C690.899 1148.22 627.787 1227.73 546.694 1215.33C465.452 1202.91 430.391 1107.15 377.156 1044.39C337.061 997.126 294.504 953.474 274.645 894.619C254.257 834.195 262.898 771.929 263.67 708.059Z" stroke="url(#paint20_linear_148_176)" stroke-opacity="0.3" stroke-width="3"/>
<path opacity="0.22" fill-rule="evenodd" clip-rule="evenodd" d="M259.664 710.152C259.125 610.046 196.214 483.467 271.268 417.365C344.068 353.249 455.231 448.637 551.768 452.892C641.47 456.845 733.323 402.713 814.366 441.301C900.895 482.501 963.33 568.525 989.233 661.187C1014.63 752.039 996.499 851.661 952.444 935.25C912.629 1010.79 830.96 1046.72 760.653 1094.89C692.979 1141.25 631.484 1221.56 550.474 1210.62C469.316 1199.65 432.718 1104.86 378.586 1043.26C337.816 996.866 294.656 954.116 273.846 895.825C252.481 835.981 260.007 773.797 259.664 710.152Z" stroke="url(#paint21_linear_148_176)" stroke-opacity="0.3" stroke-width="3"/>
<path opacity="0.23" fill-rule="evenodd" clip-rule="evenodd" d="M255.749 712.319C253.469 612.597 188.587 487.585 262.214 420.427C333.628 355.286 446.039 448.385 542.294 450.946C631.733 453.326 722.304 397.801 803.718 434.836C890.644 474.379 954.346 558.996 981.765 650.861C1008.65 740.932 992.319 840.496 949.882 924.537C911.53 1000.49 830.788 1037.71 761.58 1086.91C694.964 1134.27 635.094 1215.35 554.193 1205.86C473.144 1196.34 435.032 1102.54 380.028 1042.11C338.602 996.602 294.857 954.761 273.11 897.05C250.782 837.801 257.198 775.719 255.749 712.319Z" stroke="url(#paint22_linear_148_176)" stroke-opacity="0.3" stroke-width="3"/>
<path opacity="0.24" fill-rule="evenodd" clip-rule="evenodd" d="M251.93 714.556C247.923 615.249 181.106 491.834 253.291 423.648C323.306 357.512 436.921 448.308 532.863 449.187C622.011 450.004 711.279 393.114 793.036 428.595C880.327 466.478 945.266 549.672 974.182 640.715C1002.53 729.98 987.998 829.453 947.181 913.916C910.293 990.249 830.498 1028.73 762.404 1078.95C696.859 1127.29 638.623 1209.11 557.857 1201.05C476.943 1192.98 437.339 1100.2 381.488 1040.95C339.424 996.331 295.113 955.408 272.442 898.292C249.166 839.653 254.478 777.693 251.93 714.556Z" stroke="url(#paint23_linear_148_176)" stroke-opacity="0.3" stroke-width="3"/>
<path opacity="0.25" fill-rule="evenodd" clip-rule="evenodd" d="M248.211 716.862C242.49 617.998 173.775 496.21 244.504 427.027C313.107 359.923 427.879 448.403 523.479 447.612C612.309 446.877 700.255 388.649 782.325 422.577C869.95 458.8 936.095 540.551 966.488 630.749C996.288 719.184 983.537 818.536 944.342 903.389C908.92 980.075 830.092 1019.8 763.125 1071.01C698.666 1120.31 642.07 1202.83 561.465 1196.21C480.712 1189.57 439.641 1097.83 382.967 1039.78C340.282 996.054 295.425 956.055 271.844 899.548C247.634 841.535 251.848 779.716 248.211 716.862Z" stroke="url(#paint24_linear_148_176)" stroke-opacity="0.3" stroke-width="3"/>
<path opacity="0.26" fill-rule="evenodd" clip-rule="evenodd" d="M244.583 719.234C237.164 620.843 166.585 500.71 235.846 430.56C303.026 362.518 418.908 448.669 514.137 446.219C602.623 443.944 689.227 384.409 771.581 416.782C859.509 451.346 926.829 531.638 958.678 620.966C989.905 708.549 978.931 807.746 941.36 892.959C907.404 969.97 829.563 1010.91 763.737 1063.1C700.376 1113.33 645.428 1196.52 565.009 1191.32C484.442 1186.12 441.928 1095.43 384.456 1038.58C341.17 995.769 295.784 956.701 271.307 900.818C246.179 843.445 249.301 781.787 244.583 719.234Z" stroke="url(#paint25_linear_148_176)" stroke-opacity="0.3" stroke-width="3"/>
<path opacity="0.27" fill-rule="evenodd" clip-rule="evenodd" d="M241.056 721.671C231.952 623.783 159.548 505.333 227.328 434.246C293.072 365.295 410.019 449.104 504.848 445.01C592.962 441.205 678.206 380.391 760.814 411.21C849.014 444.115 917.479 522.933 950.763 611.368C983.398 698.076 974.191 797.086 938.243 882.629C905.755 959.937 828.918 1002.07 764.247 1055.21C701.998 1106.35 648.704 1190.18 568.495 1186.4C488.14 1182.61 444.208 1093.01 385.961 1037.38C342.092 995.477 296.197 957.346 270.84 902.101C244.807 845.383 246.844 783.905 241.056 721.671Z" stroke="url(#paint26_linear_148_176)" stroke-opacity="0.3" stroke-width="3"/>
<path opacity="0.28" fill-rule="evenodd" clip-rule="evenodd" d="M237.635 724.17C226.863 626.814 152.669 510.073 218.958 438.08C283.254 368.249 401.22 449.707 495.621 443.98C583.338 438.659 667.202 376.596 750.036 405.862C838.477 437.108 908.056 514.436 942.754 601.955C976.774 687.765 969.325 786.559 935.001 872.4C903.981 949.978 828.165 993.29 764.662 1047.34C703.537 1099.37 651.902 1183.81 571.93 1181.44C491.811 1179.06 446.484 1090.56 387.489 1036.16C343.056 995.178 296.67 957.989 270.447 903.395C243.525 847.346 244.484 786.066 237.635 724.17Z" stroke="url(#paint27_linear_148_176)" stroke-opacity="0.3" stroke-width="3"/>
<path opacity="0.29" fill-rule="evenodd" clip-rule="evenodd" d="M234.358 726.736C221.932 629.94 145.987 514.935 210.773 442.065C273.612 371.384 392.55 450.48 486.495 443.135C573.788 436.309 656.256 373.026 739.287 400.741C827.937 430.331 898.599 506.154 934.689 592.735C970.074 677.626 964.372 776.171 931.671 862.28C902.117 940.101 827.342 984.564 765.019 1039.51C705.03 1092.4 655.059 1177.42 575.347 1176.44C495.489 1175.47 448.794 1088.1 389.074 1034.92C344.096 994.875 297.238 958.635 270.164 904.705C242.369 849.338 242.258 788.276 234.358 726.736Z" stroke="url(#paint28_linear_148_176)" stroke-opacity="0.3" stroke-width="3"/>
<path opacity="0.3" fill-rule="evenodd" clip-rule="evenodd" d="M231.139 729.354C217.076 633.145 139.418 519.902 202.69 446.185C264.061 374.684 383.925 451.41 477.387 442.46C564.23 434.144 645.285 369.67 728.484 395.835C817.313 423.771 889.026 498.075 926.486 583.697C963.214 667.647 959.248 765.912 928.169 852.259C900.082 930.294 826.363 975.887 765.232 1031.71C706.39 1085.44 658.088 1170.99 578.661 1171.41C499.089 1171.83 451.05 1085.6 390.631 1033.67C345.127 994.555 297.815 959.269 269.906 906.017C241.252 851.345 240.08 790.52 231.139 729.354Z" stroke="url(#paint29_linear_148_176)" stroke-opacity="0.3" stroke-width="3"/>
<path opacity="0.31" fill-rule="evenodd" clip-rule="evenodd" d="M228.025 732.028C212.341 636.434 133.008 524.977 194.758 450.445C254.652 378.152 375.395 452.499 468.345 441.96C554.714 432.166 634.34 366.533 717.677 391.151C806.655 417.436 879.389 490.206 918.196 574.848C956.245 657.835 954.003 755.791 924.544 842.345C897.921 920.568 825.276 967.266 765.348 1023.93C707.665 1078.48 661.035 1164.54 581.917 1166.34C502.654 1168.14 453.298 1083.08 392.205 1032.4C346.193 994.226 298.448 959.898 269.718 907.336C240.222 853.373 237.996 792.803 228.025 732.028Z" stroke="url(#paint30_linear_148_176)" stroke-opacity="0.3" stroke-width="3"/>
<path opacity="0.32" fill-rule="evenodd" clip-rule="evenodd" d="M225.012 734.755C207.725 639.804 126.756 530.156 186.973 454.84C245.381 381.786 366.957 453.747 459.371 441.632C545.24 430.376 623.42 363.613 706.868 386.687C795.964 411.324 869.686 482.549 909.817 566.188C949.165 648.194 948.636 745.81 920.795 832.541C895.634 910.924 824.078 958.704 765.365 1016.19C708.851 1071.53 663.896 1158.07 585.111 1161.24C506.181 1164.41 455.534 1080.54 393.792 1031.11C347.292 993.886 299.131 960.52 269.596 908.661C239.274 855.42 236.003 795.122 225.012 734.755Z" stroke="url(#paint31_linear_148_176)" stroke-opacity="0.3" stroke-width="3"/>
<path opacity="0.33" fill-rule="evenodd" clip-rule="evenodd" d="M222.109 737.534C203.237 643.252 120.67 535.437 179.347 459.366C236.26 385.581 358.623 455.149 450.472 441.476C535.817 428.771 612.536 360.908 696.066 382.442C785.25 405.435 859.929 475.102 901.362 557.719C941.985 638.723 943.156 735.969 916.931 822.847C893.23 901.363 822.779 950.201 765.29 1008.49C709.955 1064.59 666.677 1151.58 588.248 1156.1C509.676 1160.63 457.763 1077.97 395.398 1029.81C348.428 993.533 299.871 961.134 269.547 909.99C238.415 857.482 234.107 797.476 222.109 737.534Z" stroke="url(#paint32_linear_148_176)" stroke-opacity="0.3" stroke-width="3"/>
<path opacity="0.34" fill-rule="evenodd" clip-rule="evenodd" d="M219.308 740.361C198.868 646.774 114.743 540.814 171.871 464.02C227.283 389.533 350.386 456.704 441.644 441.487C526.44 427.348 601.685 358.416 685.268 378.415C774.51 399.768 850.114 467.866 892.825 549.441C934.701 629.422 937.56 726.269 912.946 813.265C890.702 891.887 821.37 941.759 765.117 1000.82C710.969 1057.67 669.371 1145.07 591.322 1150.93C513.13 1156.81 459.979 1075.37 397.016 1028.48C349.595 993.167 300.661 961.739 269.564 911.32C237.638 859.558 232.303 799.86 219.308 740.361Z" stroke="url(#paint33_linear_148_176)" stroke-opacity="0.3" stroke-width="3"/>
<path opacity="0.35" fill-rule="evenodd" clip-rule="evenodd" d="M216.621 743.235C194.632 650.369 108.988 546.286 164.56 468.799C218.463 393.641 342.26 458.409 432.902 441.665C517.126 426.108 590.881 356.137 674.491 374.605C763.76 394.323 840.257 460.841 884.222 541.355C927.328 620.295 931.86 716.714 908.855 803.797C888.063 882.498 819.867 933.381 764.857 993.188C711.907 1050.75 671.989 1138.54 594.343 1145.74C516.554 1152.95 462.191 1072.75 398.655 1027.14C350.803 992.788 301.511 962.333 269.656 912.652C236.953 861.647 230.601 802.276 216.621 743.235Z" stroke="url(#paint34_linear_148_176)" stroke-opacity="0.3" stroke-width="3"/>
<path opacity="0.36" fill-rule="evenodd" clip-rule="evenodd" d="M214.04 746.154C190.521 654.036 103.398 551.85 157.408 473.701C209.795 397.9 334.24 460.262 424.24 442.009C507.868 425.048 580.121 354.071 663.729 371.013C752.995 389.102 830.354 454.028 875.549 533.462C919.862 611.344 926.053 707.305 904.651 794.447C885.308 873.2 818.26 925.068 764.504 985.596C712.76 1043.86 674.522 1131.99 597.302 1140.51C519.94 1149.05 464.392 1070.11 400.308 1025.78C352.044 992.396 302.412 962.917 269.817 913.985C236.353 863.749 228.993 804.721 214.04 746.154Z" stroke="url(#paint35_linear_148_176)" stroke-opacity="0.3" stroke-width="3"/>
<path opacity="0.37" fill-rule="evenodd" clip-rule="evenodd" d="M211.573 749.115C186.544 657.768 97.9816 557.499 150.423 478.719C201.289 402.307 326.335 462.26 415.669 442.514C498.677 424.166 569.415 352.212 652.993 367.634C742.228 384.1 820.415 447.426 866.817 525.761C912.312 602.566 920.148 698.042 900.344 785.212C882.447 863.992 816.561 916.821 764.065 978.045C713.535 1036.98 676.979 1125.43 600.206 1135.25C523.292 1145.1 466.588 1067.44 401.982 1024.4C353.324 991.987 303.372 963.487 270.053 915.315C235.845 865.858 227.486 807.191 211.573 749.115Z" stroke="url(#paint36_linear_148_176)" stroke-opacity="0.3" stroke-width="3"/>
<path opacity="0.38" fill-rule="evenodd" clip-rule="evenodd" d="M209.213 752.116C182.693 661.565 92.7319 563.232 143.599 483.852C192.938 406.858 318.54 464.4 407.182 443.179C489.548 423.461 558.76 350.562 642.281 364.47C731.455 379.319 810.438 441.036 858.021 518.255C904.675 593.965 914.14 688.926 895.93 776.097C879.472 854.876 814.761 908.641 763.534 970.536C714.226 1030.11 679.35 1118.85 603.047 1129.97C526.604 1141.12 468.77 1064.75 403.667 1023C354.635 991.564 304.383 964.045 270.355 916.642C235.421 867.976 226.074 809.685 209.213 752.116Z" stroke="url(#paint37_linear_148_176)" stroke-opacity="0.3" stroke-width="3"/>
<path opacity="0.39" fill-rule="evenodd" clip-rule="evenodd" d="M206.967 755.154C178.976 665.424 87.6564 569.045 136.945 489.096C184.752 411.549 310.864 466.679 398.791 444.002C480.492 422.93 548.166 349.117 631.602 361.518C720.685 374.758 800.433 434.857 849.173 510.942C896.961 585.54 908.041 679.961 891.417 767.101C876.393 845.854 812.87 900.532 762.92 963.071C714.84 1023.27 681.643 1112.26 605.832 1124.66C529.882 1137.09 470.945 1062.04 405.371 1021.59C355.984 991.124 305.449 964.588 270.73 917.964C235.086 870.099 224.763 812.202 206.967 755.154Z" stroke="url(#paint38_linear_148_176)" stroke-opacity="0.3" stroke-width="3"/>
<path opacity="0.4" fill-rule="evenodd" clip-rule="evenodd" d="M204.836 758.228C175.395 669.341 82.758 574.935 130.463 494.447C176.734 416.377 303.31 469.096 390.498 444.98C471.512 422.572 537.637 347.876 620.962 358.777C709.926 370.416 790.406 428.888 840.278 503.823C889.175 577.294 901.853 671.145 886.809 758.228C873.214 836.928 810.891 892.492 762.224 955.651C715.379 1016.44 683.86 1105.66 608.561 1119.33C533.125 1133.03 473.115 1059.3 407.095 1020.15C357.371 990.667 306.574 965.115 271.181 919.281C234.844 872.225 223.555 814.739 204.836 758.228Z" stroke="url(#paint39_linear_148_176)" stroke-opacity="0.3" stroke-width="3"/>
<path opacity="0.41" fill-rule="evenodd" clip-rule="evenodd" d="M202.814 761.334C171.943 673.315 78.0297 580.896 124.148 499.901C168.88 421.339 295.873 471.646 382.299 446.111C462.605 422.383 527.171 346.837 610.357 356.245C699.173 366.291 780.354 423.13 831.331 496.898C881.313 569.225 895.573 662.481 882.103 749.477C869.929 828.099 808.817 884.525 761.44 948.277C715.836 1009.64 685.992 1099.04 611.228 1113.98C536.327 1128.93 475.271 1056.54 408.83 1018.69C358.79 990.192 307.748 965.625 271.697 920.59C234.686 874.354 222.441 817.294 202.814 761.334Z" stroke="url(#paint40_linear_148_176)" stroke-opacity="0.3" stroke-width="3"/>
<path opacity="0.42" fill-rule="evenodd" clip-rule="evenodd" d="M200.908 764.47C168.628 677.341 73.4793 586.926 118.007 505.454C161.197 426.43 288.563 474.326 374.203 447.391C453.779 422.363 516.777 345.996 599.798 353.921C688.438 362.382 770.286 417.582 822.345 490.168C873.386 561.335 889.211 653.969 877.306 740.85C866.547 819.368 806.658 876.63 760.576 940.95C716.219 1002.86 688.047 1092.42 613.838 1108.6C539.493 1124.8 477.42 1053.75 410.583 1017.21C360.245 989.698 308.978 966.117 272.287 921.889C234.618 876.483 221.43 819.864 200.908 764.47Z" stroke="url(#paint41_linear_148_176)" stroke-opacity="0.3" stroke-width="3"/>
<path opacity="0.43" fill-rule="evenodd" clip-rule="evenodd" d="M199.119 767.636C165.453 681.419 69.1097 593.022 112.045 511.104C153.689 431.647 281.383 477.136 366.216 448.82C445.041 422.509 506.462 345.355 589.291 351.804C677.727 358.69 760.209 412.244 813.324 483.632C865.4 553.626 882.772 645.611 872.425 732.349C863.073 810.738 804.417 868.811 759.635 933.673C716.531 996.107 690.027 1085.8 616.394 1103.19C542.625 1120.62 479.563 1050.94 412.357 1015.72C361.74 989.185 310.266 966.591 272.951 923.18C234.642 878.611 220.523 822.45 199.119 767.636Z" stroke="url(#paint42_linear_148_176)" stroke-opacity="0.3" stroke-width="3"/>
<path opacity="0.44" fill-rule="evenodd" clip-rule="evenodd" d="M197.44 770.825C162.41 685.542 64.9137 599.178 106.254 516.845C146.352 436.985 274.328 480.07 358.331 450.393C436.385 422.817 496.22 344.907 578.832 349.89C667.036 355.21 750.121 407.114 804.264 477.289C857.35 546.094 876.252 637.406 867.453 723.973C859.501 802.208 802.088 861.066 758.612 926.445C716.765 989.376 691.925 1079.17 618.887 1097.77C545.715 1116.41 481.693 1048.11 414.141 1014.19C363.265 988.651 311.603 967.044 273.683 924.456C234.751 880.734 219.712 825.046 197.44 770.825Z" stroke="url(#paint43_linear_148_176)" stroke-opacity="0.3" stroke-width="3"/>
<path opacity="0.45" fill-rule="evenodd" clip-rule="evenodd" d="M195.874 774.037C159.502 689.71 60.8938 605.392 100.638 522.673C139.188 442.44 267.402 483.124 350.553 452.107C427.816 423.286 486.058 344.652 568.427 348.177C656.37 351.942 740.025 402.19 795.172 471.14C849.242 538.742 869.655 629.355 862.396 715.724C855.836 793.78 799.674 853.397 757.509 919.267C716.922 982.67 693.743 1072.53 621.319 1092.33C548.763 1112.16 483.81 1045.25 415.939 1012.65C364.822 988.096 312.991 967.474 274.482 925.719C234.946 882.851 218.999 827.65 195.874 774.037Z" stroke="url(#paint44_linear_148_176)" stroke-opacity="0.3" stroke-width="3"/>
<path opacity="0.46" fill-rule="evenodd" clip-rule="evenodd" d="M194.432 777.271C156.74 693.919 57.0625 611.659 95.2097 528.586C132.211 448.01 260.618 486.299 342.896 453.962C419.349 423.915 475.991 344.587 558.09 346.667C645.747 348.886 729.94 397.475 786.064 465.185C841.091 531.572 862.997 621.46 857.268 707.604C852.091 785.456 797.19 845.807 756.339 912.142C717.017 975.993 695.492 1065.89 623.703 1086.87C551.783 1107.88 485.927 1042.38 417.762 1011.09C366.423 987.52 314.442 967.883 275.361 926.968C235.239 884.962 218.396 830.263 194.432 777.271Z" stroke="url(#paint45_linear_148_176)" stroke-opacity="0.3" stroke-width="3"/>
<path opacity="0.47" fill-rule="evenodd" clip-rule="evenodd" d="M193.103 780.522C154.113 698.166 53.4077 617.976 89.9577 534.579C125.41 453.689 253.965 489.588 335.351 455.952C410.973 424.698 466.009 344.71 547.814 345.353C635.156 346.039 719.855 392.965 776.929 459.422C832.889 524.581 856.269 613.721 852.06 699.612C848.256 777.235 794.625 838.295 755.091 905.069C717.037 969.343 697.16 1059.24 626.025 1081.39C554.76 1103.57 488.031 1039.47 419.596 1009.5C368.054 986.92 315.941 968.268 276.307 928.199C235.616 887.063 217.891 832.881 193.103 780.522Z" stroke="url(#paint46_linear_148_176)" stroke-opacity="0.3" stroke-width="3"/>
<path opacity="0.48" fill-rule="evenodd" clip-rule="evenodd" d="M191.891 783.788C151.629 702.449 49.9364 624.339 84.8897 540.649C118.793 459.473 247.453 492.99 327.925 458.077C402.699 425.636 456.122 345.018 537.608 344.236C624.609 343.4 709.781 388.661 767.78 453.852C824.645 517.77 849.48 606.138 846.78 691.75C844.34 769.121 791.987 830.862 753.773 898.05C716.989 962.722 698.755 1052.6 628.292 1075.89C557.7 1099.22 490.127 1036.55 421.448 1007.88C369.722 986.297 317.495 968.628 277.325 929.413C236.084 889.153 217.489 835.502 191.891 783.788Z" stroke="url(#paint47_linear_148_176)" stroke-opacity="0.3" stroke-width="3"/>
<path opacity="0.49" fill-rule="evenodd" clip-rule="evenodd" d="M190.796 787.068C149.284 706.764 46.6468 630.745 80.0043 546.791C112.359 465.361 241.08 496.501 320.619 460.332C394.526 426.724 446.332 345.51 527.474 343.313C614.108 340.968 699.72 384.56 758.616 448.474C816.362 511.14 842.631 598.712 841.43 684.018C840.344 761.113 789.276 823.511 752.384 891.086C716.873 956.132 700.275 1045.96 630.502 1070.38C560.602 1094.84 492.214 1033.6 423.315 1006.25C371.424 985.65 319.102 968.962 278.414 930.607C236.641 891.231 217.188 838.123 190.796 787.068Z" stroke="url(#paint48_linear_148_176)" stroke-opacity="0.3" stroke-width="3"/>
<path opacity="0.5" fill-rule="evenodd" clip-rule="evenodd" d="M189.814 790.359C147.076 711.109 43.5359 637.189 75.2991 553.003C106.108 471.345 234.845 500.118 313.432 462.715C386.455 427.961 436.639 346.181 517.412 342.582C603.652 338.739 689.673 380.662 749.44 443.288C808.039 504.69 835.723 591.443 836.008 676.417C836.266 753.212 786.491 816.24 750.922 884.179C716.686 949.573 701.716 1039.32 632.652 1064.85C563.461 1090.42 494.287 1030.63 425.194 1004.59C373.157 984.977 320.758 969.269 279.568 931.78C237.281 893.293 216.986 840.744 189.814 790.359Z" stroke="url(#paint49_linear_148_176)" stroke-opacity="0.3" stroke-width="3"/>
<path opacity="0.51" fill-rule="evenodd" clip-rule="evenodd" d="M188.957 793.658C145.016 715.48 40.616 643.669 70.7869 559.279C100.051 477.425 228.762 503.838 306.378 465.224C378.498 429.343 427.057 347.03 507.437 342.041C593.258 336.714 679.656 376.967 740.266 438.293C799.693 498.421 828.77 584.332 830.531 668.949C832.122 745.421 783.644 809.053 749.402 877.328C716.441 943.046 703.091 1032.68 634.753 1059.3C566.289 1085.98 496.359 1027.63 427.097 1002.9C374.931 984.28 322.473 969.548 280.801 932.931C238.018 895.34 216.893 843.361 188.957 793.658Z" stroke="url(#paint50_linear_148_176)" stroke-opacity="0.3" stroke-width="3"/>
<path opacity="0.52" fill-rule="evenodd" clip-rule="evenodd" d="M188.212 796.962C143.094 719.875 37.8746 650.178 66.4559 565.615C94.1784 483.593 222.82 507.657 299.447 467.853C370.648 430.868 417.577 348.052 497.541 341.686C582.918 334.888 669.66 373.47 731.087 433.486C791.314 492.33 821.764 577.378 824.987 661.612C827.9 737.737 780.727 801.948 747.811 870.534C716.127 936.552 704.389 1026.04 636.793 1053.75C569.073 1081.5 498.417 1024.62 429.009 1001.19C376.734 983.555 324.236 969.797 282.099 934.058C238.839 897.367 216.897 845.973 188.212 796.962Z" stroke="url(#paint51_linear_148_176)" stroke-opacity="0.3" stroke-width="3"/>
<path opacity="0.53" fill-rule="evenodd" clip-rule="evenodd" d="M187.591 800.271C141.32 724.29 35.3238 656.715 62.3186 572.008C88.5023 489.847 217.032 511.573 292.652 470.602C362.917 432.532 408.215 349.247 487.739 341.516C572.645 333.261 659.701 370.173 721.917 428.87C782.918 486.42 814.719 570.582 819.392 654.408C823.616 730.165 777.752 794.927 746.162 863.8C715.756 930.093 705.62 1019.41 638.784 1048.18C571.826 1076.99 500.473 1021.58 430.944 999.46C378.578 982.803 326.057 970.016 283.472 935.16C239.753 899.374 217.009 848.577 187.591 800.271Z" stroke="url(#paint52_linear_148_176)" stroke-opacity="0.3" stroke-width="3"/>
<path opacity="0.54" fill-rule="evenodd" clip-rule="evenodd" d="M187.082 803.579C139.683 728.722 32.951 663.275 58.3631 578.454C83.0116 496.181 211.387 515.58 285.983 473.466C355.296 434.333 398.96 350.609 478.021 341.527C562.433 331.83 649.769 367.073 712.747 424.44C774.495 480.688 807.627 563.943 813.737 647.336C819.258 722.701 774.709 787.99 744.446 857.123C715.317 923.667 706.774 1012.79 640.714 1042.59C574.533 1072.46 502.513 1018.51 432.887 997.698C380.448 982.023 327.923 970.203 284.909 936.233C240.749 901.359 217.217 851.17 187.082 803.579Z" stroke="url(#paint53_linear_148_176)" stroke-opacity="0.3" stroke-width="3"/>
<path opacity="0.55" fill-rule="evenodd" clip-rule="evenodd" d="M186.691 806.884C138.188 733.167 30.7632 669.853 54.5968 584.947C77.7142 502.592 205.893 519.676 279.448 476.441C347.794 436.267 389.823 352.136 468.398 341.717C552.291 330.592 639.876 364.167 703.589 420.197C766.058 475.133 800.498 557.462 808.03 640.397C814.837 715.348 771.606 781.138 742.67 850.506C714.817 917.276 707.858 1006.17 642.589 1037C577.202 1067.89 504.544 1015.42 434.846 995.909C382.353 981.212 329.84 970.356 286.415 937.278C241.833 903.319 217.527 853.751 186.691 806.884Z" stroke="url(#paint54_linear_148_176)" stroke-opacity="0.3" stroke-width="3"/>
<path opacity="0.56" fill-rule="evenodd" clip-rule="evenodd" d="M186.419 810.186C136.839 737.625 28.7626 676.448 51.0226 591.486C72.6137 509.077 200.555 523.859 273.052 479.526C340.416 438.334 380.809 353.827 458.875 342.084C542.225 329.547 630.029 361.455 694.449 416.14C757.611 469.757 793.337 551.138 802.278 633.592C810.358 708.108 768.45 774.371 740.838 843.949C714.261 910.922 708.874 999.562 644.413 1031.4C579.835 1063.29 506.569 1012.31 436.822 994.094C384.293 980.372 331.81 970.476 287.992 938.294C243.006 905.254 217.941 856.318 186.419 810.186Z" stroke="url(#paint55_linear_148_176)" stroke-opacity="0.3" stroke-width="3"/>
<path opacity="0.57" fill-rule="evenodd" clip-rule="evenodd" d="M186.265 813.482C135.632 742.091 26.946 683.054 47.6377 598.066C67.7075 515.631 195.37 528.123 266.794 482.718C333.161 440.528 371.917 355.677 449.452 342.626C532.236 328.691 620.226 358.936 685.326 412.268C749.154 464.558 786.144 544.973 796.479 626.921C805.819 700.98 765.237 767.691 738.949 837.455C713.646 904.606 709.821 992.963 646.182 1025.78C582.428 1058.67 508.583 1009.18 438.813 992.252C386.265 979.503 333.83 970.561 289.637 939.278C244.265 907.161 218.456 858.87 186.265 813.482Z" stroke="url(#paint56_linear_148_176)" stroke-opacity="0.3" stroke-width="3"/>
<path opacity="0.58" fill-rule="evenodd" clip-rule="evenodd" d="M186.229 816.768C134.57 746.563 25.3155 689.669 44.4447 604.682C62.999 522.25 190.342 532.467 260.677 486.012C326.033 442.847 363.153 357.683 440.136 343.338C522.33 328.023 610.475 356.608 676.227 408.58C740.695 459.536 778.925 538.964 790.64 620.383C801.226 693.965 761.973 761.098 737.007 831.021C712.976 898.327 710.701 986.374 647.9 1020.16C584.984 1054.01 510.591 1006.02 440.819 990.382C388.271 978.601 335.901 970.61 291.35 940.23C245.612 909.039 219.072 861.402 186.229 816.768Z" stroke="url(#paint57_linear_148_176)" stroke-opacity="0.3" stroke-width="3"/>
<path opacity="0.59" fill-rule="evenodd" clip-rule="evenodd" d="M186.309 820.042C133.649 751.036 23.8683 696.287 41.4414 611.331C58.4865 528.928 185.469 536.886 254.701 489.405C319.031 445.287 354.517 359.842 430.926 344.219C512.507 327.538 600.776 354.467 667.154 405.073C732.234 454.689 771.682 533.112 784.76 613.979C796.579 687.062 758.657 754.591 735.01 824.65C712.249 892.085 711.511 979.796 649.562 1014.53C587.499 1049.33 512.587 1002.84 442.839 988.483C390.308 977.667 338.02 970.622 293.13 941.146C247.044 910.885 219.789 863.914 186.309 820.042Z" stroke="url(#paint58_linear_148_176)" stroke-opacity="0.3" stroke-width="3"/>
<path opacity="0.6" fill-rule="evenodd" clip-rule="evenodd" d="M186.507 823.302C132.872 755.509 22.6059 702.905 38.6299 618.008C54.1724 535.662 180.755 541.376 248.87 492.895C312.161 447.847 346.013 362.151 421.827 345.265C502.773 327.236 591.136 352.513 658.11 401.746C723.776 450.017 764.418 527.417 778.844 607.709C791.882 680.272 755.293 748.171 732.962 818.341C711.468 885.883 712.256 973.23 651.173 1008.9C589.977 1044.63 514.575 999.641 444.873 986.556C392.377 976.701 340.189 970.596 294.977 942.028C248.56 912.699 220.606 866.403 186.507 823.302Z" stroke="url(#paint59_linear_148_176)" stroke-opacity="0.3" stroke-width="3"/>
<path opacity="0.61" fill-rule="evenodd" clip-rule="evenodd" d="M186.823 826.546C132.24 759.978 21.5303 709.52 36.0125 624.71C50.0596 542.449 176.203 545.935 243.186 496.477C305.427 450.522 337.647 364.606 412.846 346.473C493.134 327.113 581.56 350.744 649.103 398.599C715.328 445.519 757.14 521.878 772.899 601.573C787.14 673.596 751.885 741.84 730.868 812.096C710.637 879.721 712.938 966.677 652.733 1003.25C592.418 1039.9 516.556 996.415 446.924 984.599C394.48 975.7 342.408 970.53 296.893 942.872C250.165 914.477 221.526 868.868 186.823 826.546Z" stroke="url(#paint60_linear_148_176)" stroke-opacity="0.3" stroke-width="3"/>
<path opacity="0.62" fill-rule="evenodd" clip-rule="evenodd" d="M187.251 829.77C131.746 764.44 20.6331 716.127 33.5816 631.432C46.141 549.282 171.806 550.557 237.645 500.148C298.822 453.308 329.413 367.203 403.976 347.84C483.585 327.166 572.043 349.155 640.129 395.628C706.884 441.193 749.843 516.493 766.918 595.569C782.349 667.033 748.428 735.595 728.72 805.913C709.749 873.598 713.55 960.138 654.237 997.604C594.816 1035.14 518.523 993.165 448.983 982.612C396.609 974.665 344.67 970.423 298.869 943.677C251.848 916.218 222.539 871.305 187.251 829.77Z" stroke="url(#paint61_linear_148_176)" stroke-opacity="0.3" stroke-width="3"/>
<path opacity="0.63" fill-rule="evenodd" clip-rule="evenodd" d="M187.796 832.972C131.396 768.892 19.9213 722.723 31.3445 638.17C42.4244 556.158 167.572 555.241 232.254 503.904C292.355 456.202 321.321 369.939 395.228 349.362C474.137 327.393 562.597 347.747 631.197 392.832C698.457 437.037 742.538 511.263 760.912 589.699C777.517 660.584 744.932 729.438 726.528 799.794C708.814 867.515 714.099 953.613 655.691 991.949C597.176 1030.35 520.483 989.891 451.058 980.595C398.77 973.593 346.981 970.274 300.912 944.441C253.616 917.92 223.654 873.712 187.796 832.972Z" stroke="url(#paint62_linear_148_176)" stroke-opacity="0.3" stroke-width="3"/>
<path opacity="0.64" fill-rule="evenodd" clip-rule="evenodd" d="M188.461 836.15C131.191 773.331 19.3961 729.303 29.3028 644.921C38.9119 563.073 163.504 559.982 227.017 507.743C286.031 459.203 313.376 372.811 386.607 351.038C464.795 327.791 553.227 346.516 622.313 390.211C690.051 433.053 735.23 506.188 754.885 583.961C772.649 654.249 741.399 723.37 724.295 793.739C707.832 861.473 714.589 947.104 657.098 986.289C599.502 1025.55 522.437 986.595 453.15 978.547C400.966 972.486 349.342 970.083 303.024 945.164C255.471 919.582 224.871 876.088 188.461 836.15Z" stroke="url(#paint63_linear_148_176)" stroke-opacity="0.3" stroke-width="3"/>
<path opacity="0.65" fill-rule="evenodd" clip-rule="evenodd" d="M189.236 839.302C131.124 777.755 19.0489 735.866 27.4487 651.68C35.596 570.024 159.596 564.777 221.927 511.661C279.844 462.306 305.571 375.817 378.107 352.864C455.554 328.357 543.928 345.462 613.474 387.763C681.661 429.238 727.914 501.266 748.834 578.358C767.74 648.028 737.825 717.391 722.016 787.75C706.8 855.474 715.013 940.613 658.451 980.627C601.784 1020.71 524.377 983.275 455.25 976.469C403.187 971.343 351.744 969.848 305.194 945.846C257.404 921.203 226.182 878.432 189.236 839.302Z" stroke="url(#paint64_linear_148_176)" stroke-opacity="0.3" stroke-width="3"/>
<path opacity="0.66" fill-rule="evenodd" clip-rule="evenodd" d="M190.124 842.424C131.197 782.159 18.8819 742.405 25.7845 658.443C32.4798 577.003 155.85 569.621 216.988 515.653C273.797 465.507 297.912 378.95 369.735 354.835C446.42 329.088 534.706 344.579 604.684 385.483C673.295 425.589 720.596 496.496 742.763 572.884C762.795 641.92 734.213 711.498 719.694 781.824C705.719 849.515 715.374 934.137 659.751 974.96C604.027 1015.86 526.306 979.93 457.362 974.358C405.436 970.16 354.191 969.568 307.427 946.481C259.417 922.778 227.588 880.739 190.124 842.424Z" stroke="url(#paint65_linear_148_176)" stroke-opacity="0.3" stroke-width="3"/>
<path opacity="0.67" fill-rule="evenodd" clip-rule="evenodd" d="M191.131 845.516C131.416 786.543 18.9012 748.92 24.3172 665.207C29.5704 584.01 152.274 574.513 212.209 519.719C267.901 468.805 290.408 382.209 361.5 356.951C437.403 329.982 525.573 343.868 595.955 383.374C664.962 422.108 713.287 491.879 736.682 567.544C757.825 635.926 730.575 705.696 717.339 775.964C704.599 843.6 715.68 927.681 661.008 969.292C606.236 1010.98 528.232 976.564 459.492 972.215C407.72 968.941 356.688 969.243 309.727 947.072C261.515 924.31 229.096 883.01 191.131 845.516Z" stroke="url(#paint66_linear_148_176)" stroke-opacity="0.3" stroke-width="3"/>
<path opacity="0.68" fill-rule="evenodd" clip-rule="evenodd" d="M192.248 848.573C131.772 790.9 19.098 755.403 23.038 671.967C26.8597 591.038 148.86 579.446 207.583 523.851C262.147 472.193 283.054 385.589 353.395 359.204C428.498 331.034 516.522 343.323 587.281 381.429C656.657 418.79 705.981 487.411 730.586 562.334C752.822 630.045 726.902 699.98 714.943 770.167C703.432 837.726 715.923 921.242 662.213 963.621C608.404 1006.08 530.145 973.172 461.63 970.039C410.029 967.68 359.226 968.87 312.087 947.614C263.691 925.793 230.698 885.24 192.248 848.573Z" stroke="url(#paint67_linear_148_176)" stroke-opacity="0.3" stroke-width="3"/>
<path opacity="0.69" fill-rule="evenodd" clip-rule="evenodd" d="M193.478 851.595C132.268 795.232 19.474 761.853 21.9494 678.72C24.3505 598.084 145.613 584.419 203.112 528.049C256.54 475.671 275.853 389.088 345.427 361.596C419.71 332.243 507.561 342.945 578.669 379.649C648.388 415.637 698.685 483.094 724.481 557.256C747.794 624.279 723.201 694.354 712.512 764.438C702.223 831.897 716.108 914.823 663.369 957.949C610.534 1001.15 532.048 969.757 463.781 967.832C412.366 966.381 361.807 968.45 314.507 948.11C265.946 927.228 232.394 887.429 193.478 851.595Z" stroke="url(#paint68_linear_148_176)" stroke-opacity="0.3" stroke-width="3"/>
<path opacity="0.7" fill-rule="evenodd" clip-rule="evenodd" d="M194.816 854.579C132.899 799.532 20.025 768.267 21.0476 685.461C22.0395 605.143 142.529 589.428 198.796 532.309C251.079 479.234 268.805 392.701 337.595 364.12C411.04 333.605 498.688 342.729 570.118 378.032C640.153 412.645 691.397 478.926 718.366 552.307C742.738 618.625 719.469 688.817 710.043 758.773C700.97 826.11 716.232 908.425 664.474 952.277C612.622 996.209 533.939 966.318 465.94 965.59C414.727 965.042 364.428 967.982 316.984 948.556C268.275 928.612 234.182 889.576 194.816 854.579Z" stroke="url(#paint69_linear_148_176)" stroke-opacity="0.3" stroke-width="3"/>
<path opacity="0.71" fill-rule="evenodd" clip-rule="evenodd" d="M196.27 857.521C133.673 803.799 20.7577 774.639 20.3397 692.186C19.9343 612.211 139.616 594.469 194.643 536.625C245.773 482.878 261.92 396.424 329.908 366.773C402.498 335.116 489.915 342.673 561.64 376.574C631.964 409.813 684.131 474.904 712.252 547.488C737.666 613.084 715.718 683.366 707.547 753.174C699.682 820.367 716.303 902.048 665.536 946.604C614.676 991.242 535.824 962.856 468.115 963.315C417.119 963.66 367.095 967.463 319.524 948.95C270.686 929.944 236.067 891.676 196.27 857.521Z" stroke="url(#paint70_linear_148_176)" stroke-opacity="0.3" stroke-width="3"/>
<path opacity="0.72" fill-rule="evenodd" clip-rule="evenodd" d="M197.829 860.419C134.58 808.028 21.6628 780.965 19.8168 698.891C18.0262 619.282 136.866 599.536 190.645 540.994C240.615 486.598 255.19 400.252 322.361 369.551C394.078 336.772 481.236 342.773 553.229 375.273C623.816 407.138 676.878 471.028 706.133 542.795C732.571 607.654 711.94 678.002 705.016 747.638C698.352 814.666 716.315 895.69 666.547 940.93C616.688 986.253 537.695 959.367 470.296 961.003C419.534 962.235 369.799 966.891 322.119 949.29C273.17 931.22 238.041 893.727 197.829 860.419Z" stroke="url(#paint71_linear_148_176)" stroke-opacity="0.3" stroke-width="3"/>
<path opacity="0.73" fill-rule="evenodd" clip-rule="evenodd" d="M199.501 863.273C135.627 812.22 22.7466 787.246 19.4856 705.574C16.3227 626.356 134.288 604.629 186.81 545.415C235.613 490.395 248.626 404.184 314.963 372.452C385.791 338.573 472.662 343.029 544.896 374.129C615.719 404.62 669.652 467.298 700.02 538.232C727.464 602.338 708.145 672.728 702.46 742.17C696.988 809.012 716.276 889.357 667.515 935.259C618.666 981.245 539.56 955.856 472.492 958.659C421.978 960.769 372.546 966.27 324.776 949.579C275.732 932.442 240.111 895.73 199.501 863.273Z" stroke="url(#paint72_linear_148_176)" stroke-opacity="0.3" stroke-width="3"/>
<path opacity="0.74" fill-rule="evenodd" clip-rule="evenodd" d="M201.282 866.077C136.81 816.369 24.005 793.473 19.3426 712.228C14.8203 633.424 131.878 609.741 183.137 549.882C230.767 494.261 242.226 408.214 307.714 375.471C377.636 340.512 464.193 343.435 536.642 373.136C607.675 402.256 662.451 463.711 693.912 533.794C722.345 597.132 704.333 667.539 699.877 736.765C695.589 803.399 716.183 883.044 668.438 929.588C620.606 976.216 541.416 952.32 474.698 956.277C424.449 959.258 375.335 965.595 327.489 949.811C278.369 933.606 242.272 897.681 201.282 866.077Z" stroke="url(#paint73_linear_148_176)" stroke-opacity="0.3" stroke-width="3"/>
<path opacity="0.75" fill-rule="evenodd" clip-rule="evenodd" d="M203.164 868.832C138.121 820.473 25.4293 799.645 19.3793 718.851C13.5112 640.484 129.629 614.871 179.618 554.391C226.068 498.194 235.984 412.34 300.608 378.605C369.608 342.587 455.825 343.99 528.46 372.294C599.677 400.045 655.271 460.266 687.805 529.483C717.208 592.037 700.498 662.437 697.263 731.426C694.149 797.832 716.031 876.756 669.309 923.919C622.501 971.168 543.255 948.759 476.907 953.861C426.937 957.703 378.155 964.866 330.252 949.987C281.073 934.711 244.516 899.578 203.164 868.832Z" stroke="url(#paint74_linear_148_176)" stroke-opacity="0.3" stroke-width="3"/>
<path opacity="0.76" fill-rule="evenodd" clip-rule="evenodd" d="M205.157 871.536C139.571 824.53 27.0296 805.76 19.6064 725.44C12.4063 647.534 127.553 620.016 176.267 558.942C221.531 502.192 229.913 416.557 293.66 381.851C361.721 344.796 447.571 344.692 520.367 371.601C591.742 397.985 648.127 456.963 681.714 525.297C712.067 587.054 696.654 657.423 694.629 726.153C692.681 792.31 715.832 870.492 670.139 918.253C624.363 966.102 545.089 945.176 479.131 951.409C429.454 956.103 381.017 964.084 333.075 950.107C283.854 935.757 246.854 901.421 205.157 871.536Z" stroke="url(#paint75_linear_148_176)" stroke-opacity="0.3" stroke-width="3"/>
<path opacity="0.77" fill-rule="evenodd" clip-rule="evenodd" d="M207.252 874.184C141.151 828.536 28.7977 811.812 20.0159 731.99C11.4981 654.566 125.642 625.169 173.075 563.527C217.149 506.249 224.008 420.861 286.862 385.204C353.971 347.134 439.427 345.535 512.358 371.053C583.864 396.073 641.015 453.798 675.633 521.234C706.918 582.179 692.795 652.494 691.971 720.944C691.178 786.831 715.579 864.252 670.923 912.59C626.186 961.016 546.91 941.566 481.361 948.919C431.992 954.458 383.915 963.245 335.949 950.167C286.704 936.74 249.278 903.206 207.252 874.184Z" stroke="url(#paint76_linear_148_176)" stroke-opacity="0.3" stroke-width="3"/>
<path opacity="0.78" fill-rule="evenodd" clip-rule="evenodd" d="M209.451 876.776C142.862 832.489 30.7336 817.799 20.6085 738.497C10.7876 661.578 123.899 630.329 170.046 568.144C212.925 510.363 218.273 425.249 280.22 388.661C346.361 349.598 431.398 346.518 504.437 370.648C576.049 394.308 633.939 450.772 669.567 517.294C701.765 577.413 688.926 647.651 689.292 715.8C689.645 781.397 715.276 858.037 671.663 906.929C627.97 955.912 548.721 937.932 483.599 946.393C434.553 952.766 386.848 962.35 338.875 950.167C289.623 937.66 251.787 904.932 209.451 876.776Z" stroke="url(#paint77_linear_148_176)" stroke-opacity="0.3" stroke-width="3"/>
<path opacity="0.79" fill-rule="evenodd" clip-rule="evenodd" d="M211.756 879.307C144.705 836.385 32.8383 823.716 21.3852 744.957C10.2763 668.565 122.325 635.49 167.182 572.789C208.862 514.528 212.709 429.714 273.738 392.217C338.897 352.182 423.489 347.635 496.61 370.383C568.302 392.685 626.904 447.88 663.521 513.475C696.613 572.755 685.051 642.892 686.597 710.719C688.085 776.007 714.926 851.846 672.361 901.272C629.718 950.789 550.523 934.273 485.848 943.829C437.137 951.026 389.819 961.396 341.855 950.106C292.614 938.514 254.384 906.596 211.756 879.307Z" stroke="url(#paint78_linear_148_176)" stroke-opacity="0.3" stroke-width="3"/>
<path opacity="0.8" fill-rule="evenodd" clip-rule="evenodd" d="M214.155 881.779C146.671 840.223 35.1023 829.561 22.3371 751.367C9.95551 675.523 120.913 640.651 164.475 577.46C204.953 518.743 207.312 434.256 267.409 395.87C331.573 354.886 415.694 348.887 488.871 370.256C560.619 391.206 619.906 445.124 657.49 509.777C691.457 568.205 681.163 638.218 683.878 705.704C686.491 770.662 714.523 845.681 673.011 895.62C631.424 945.649 552.308 930.589 488.098 941.227C439.738 949.239 392.818 960.385 344.881 949.983C295.666 939.303 257.06 908.199 214.155 881.779Z" stroke="url(#paint79_linear_148_176)" stroke-opacity="0.3" stroke-width="3"/>
<path opacity="0.81" fill-rule="evenodd" clip-rule="evenodd" d="M216.662 884.187C148.771 844.001 37.5363 835.331 23.4752 757.724C9.83666 682.449 119.674 645.807 161.938 582.152C201.21 523.004 202.095 438.869 261.246 399.616C324.402 357.705 408.029 350.269 481.236 370.263C553.013 389.867 612.959 442.501 651.49 506.198C686.311 563.763 677.278 633.628 681.15 700.752C684.877 765.362 714.078 839.543 673.625 889.972C633.098 940.493 554.089 926.88 490.362 938.587C442.365 947.404 395.857 959.316 347.962 949.796C298.791 940.023 259.825 909.736 216.662 884.187Z" stroke="url(#paint80_linear_148_176)" stroke-opacity="0.3" stroke-width="3"/>
<path opacity="0.82" fill-rule="evenodd" clip-rule="evenodd" d="M219.263 886.529C150.992 847.713 40.1264 841.021 24.786 764.022C9.90654 689.337 118.596 650.953 159.56 586.86C197.623 527.305 197.046 443.549 255.241 403.449C317.375 360.635 400.482 351.777 473.694 370.402C545.476 388.664 606.054 440.008 645.509 502.735C681.165 559.424 673.386 629.12 678.403 695.862C683.232 760.105 713.582 833.431 674.192 884.328C634.73 935.318 555.854 923.145 492.627 935.907C445.008 945.519 398.922 958.185 351.086 949.544C301.975 940.673 262.667 911.207 219.263 886.529Z" stroke="url(#paint81_linear_148_176)" stroke-opacity="0.3" stroke-width="3"/>
<path opacity="0.83" fill-rule="evenodd" clip-rule="evenodd" d="M221.962 888.802C153.339 851.358 42.8771 846.628 26.2743 770.259C10.1704 696.184 117.684 656.087 157.346 591.581C194.199 531.643 192.172 448.291 249.399 407.366C310.5 363.671 393.064 353.407 466.255 370.67C538.017 387.595 599.201 437.643 639.557 499.388C676.029 555.19 669.493 624.693 675.643 691.035C681.563 754.892 713.042 827.345 674.719 878.688C636.325 930.126 557.608 919.385 494.899 933.188C447.67 943.584 402.02 956.993 354.259 949.226C305.224 941.252 265.59 912.608 221.962 888.802Z" stroke="url(#paint82_linear_148_176)" stroke-opacity="0.3" stroke-width="3"/>
<path opacity="0.84" fill-rule="evenodd" clip-rule="evenodd" d="M224.755 891.007C155.807 854.934 45.7843 852.151 27.9364 776.431C10.6247 702.986 116.937 661.206 155.294 596.314C190.934 536.017 187.473 453.093 243.721 411.364C303.777 366.811 385.774 355.158 458.919 371.064C530.635 386.66 592.398 435.406 633.634 496.157C670.901 551.06 665.601 620.35 672.872 686.271C679.87 749.724 712.456 821.286 675.203 873.055C637.882 924.919 559.35 915.599 497.176 930.429C450.349 941.599 405.147 955.74 357.476 948.841C308.535 941.759 268.591 913.941 224.755 891.007Z" stroke="url(#paint83_linear_148_176)" stroke-opacity="0.3" stroke-width="3"/>
<path opacity="0.85" fill-rule="evenodd" clip-rule="evenodd" d="M227.645 893.14C158.398 858.44 48.8479 857.586 29.7724 782.535C11.2701 709.74 116.355 666.306 153.405 601.053C187.832 540.421 182.95 457.95 238.209 415.44C297.209 370.051 378.615 357.025 451.69 371.583C523.337 385.856 585.652 433.295 627.745 493.04C665.787 547.034 661.713 616.087 670.091 681.57C678.156 744.6 711.828 815.256 675.648 867.428C639.403 919.697 561.081 911.789 499.458 927.631C453.047 939.563 408.304 954.425 360.739 948.389C311.907 942.193 271.67 915.202 227.645 893.14Z" stroke="url(#paint84_linear_148_176)" stroke-opacity="0.3" stroke-width="3"/>
<path opacity="0.86" fill-rule="evenodd" clip-rule="evenodd" d="M230.631 895.2C161.112 861.87 52.0687 862.928 31.7836 788.567C12.108 716.44 115.94 671.382 151.684 605.795C184.896 544.852 178.609 462.858 232.868 419.587C290.8 373.387 371.593 359.006 444.572 372.221C516.126 385.178 578.967 431.306 621.895 490.034C660.691 543.109 657.832 611.904 667.306 676.93C676.424 739.52 711.16 809.253 676.057 861.807C640.889 914.458 562.803 907.952 501.748 924.792C455.764 937.476 411.492 953.046 364.049 947.867C315.342 942.551 274.829 916.39 230.631 895.2Z" stroke="url(#paint85_linear_148_176)" stroke-opacity="0.3" stroke-width="3"/>
<path opacity="0.87" fill-rule="evenodd" clip-rule="evenodd" d="M233.704 897.183C163.94 865.223 55.4367 868.176 33.9602 794.523C13.129 723.083 115.684 676.433 150.12 610.536C182.118 549.305 174.44 467.813 227.69 423.804C284.544 376.816 364.702 361.095 437.561 372.977C508.997 384.626 572.337 429.439 616.077 487.138C655.607 539.284 653.955 607.801 664.509 672.35C674.669 734.482 710.447 803.277 676.422 856.192C642.335 909.204 564.509 904.089 504.038 921.913C458.494 935.336 414.703 951.603 367.397 947.276C318.83 942.833 278.058 917.502 233.704 897.183Z" stroke="url(#paint86_linear_148_176)" stroke-opacity="0.3" stroke-width="3"/>
<path opacity="0.88" fill-rule="evenodd" clip-rule="evenodd" d="M236.866 899.088C166.883 868.497 58.9521 873.325 36.3026 800.399C14.3337 729.665 115.588 681.452 148.717 615.272C179.5 553.777 170.447 472.81 222.679 428.084C278.446 380.331 357.946 363.29 430.661 373.845C501.955 384.195 565.767 427.69 610.297 484.351C650.541 535.557 650.083 603.774 661.705 667.83C672.892 729.488 709.691 797.33 676.746 850.583C643.741 903.935 566.201 900.199 506.329 918.991C461.236 933.143 417.937 950.095 370.784 946.612C322.374 943.036 281.358 918.537 236.866 899.088Z" stroke="url(#paint87_linear_148_176)" stroke-opacity="0.3" stroke-width="3"/>
<path opacity="0.89" fill-rule="evenodd" clip-rule="evenodd" d="M240.116 900.915C169.942 871.689 62.615 878.374 38.8115 806.194C15.7232 736.183 115.653 686.439 147.476 620C177.045 558.266 166.632 477.846 217.837 432.426C272.508 383.932 351.329 365.589 423.876 374.826C495.005 383.884 559.262 426.058 604.559 481.671C645.496 531.93 646.222 599.826 658.898 663.371C671.099 724.537 708.895 791.411 677.032 844.982C645.111 898.651 567.881 896.284 508.623 916.028C463.993 930.898 421.197 948.522 374.211 945.877C325.973 943.162 284.731 919.495 240.116 900.915Z" stroke="url(#paint88_linear_148_176)" stroke-opacity="0.3" stroke-width="3"/>
<path opacity="0.9" fill-rule="evenodd" clip-rule="evenodd" d="M243.455 902.659C173.115 874.797 66.425 883.319 41.4865 811.903C17.2973 742.633 115.881 691.388 146.398 624.717C174.754 562.766 162.999 482.917 213.168 436.825C266.733 387.613 344.855 367.985 417.209 375.915C488.151 383.69 552.827 424.541 598.867 479.096C640.476 528.399 642.375 595.954 656.09 658.971C669.292 719.628 708.063 785.521 677.283 839.387C646.446 893.353 569.549 892.343 510.921 913.023C466.766 928.598 424.483 946.882 377.679 945.068C329.627 943.206 288.175 920.373 243.455 902.659Z" stroke="url(#paint89_linear_148_176)" stroke-opacity="0.3" stroke-width="3"/>
<path opacity="0.91" fill-rule="evenodd" clip-rule="evenodd" d="M246.88 904.321C176.4 877.82 70.3774 888.158 44.3233 817.523C19.052 749.011 116.267 696.299 145.48 629.42C172.625 567.276 159.544 488.019 208.67 441.277C261.122 391.372 338.522 370.479 410.661 377.11C481.391 383.611 546.46 423.138 593.221 476.625C635.481 524.964 638.541 592.158 653.281 654.63C667.469 714.763 707.193 779.66 677.496 833.801C647.744 888.041 571.205 888.375 513.221 909.976C469.551 926.245 427.791 945.176 381.183 944.187C333.334 943.171 291.689 921.17 246.88 904.321Z" stroke="url(#paint90_linear_148_176)" stroke-opacity="0.3" stroke-width="3"/>
<path opacity="0.92" fill-rule="evenodd" clip-rule="evenodd" d="M250.385 905.897C179.791 880.753 74.4673 892.887 47.3172 823.05C20.9828 755.312 116.808 701.164 144.72 634.103C170.655 571.79 156.265 493.147 204.341 445.778C255.671 395.202 332.33 373.063 404.231 378.405C474.727 383.643 540.161 421.843 587.62 474.256C630.51 521.623 634.719 588.436 650.469 650.346C665.63 709.939 706.283 773.827 677.669 828.222C649.003 882.715 572.845 884.381 515.519 906.886C472.345 923.836 431.117 943.402 384.721 943.229C337.088 943.051 295.266 921.883 250.385 905.897Z" stroke="url(#paint91_linear_148_176)" stroke-opacity="0.3" stroke-width="3"/>
<path opacity="0.93" fill-rule="evenodd" clip-rule="evenodd" d="M253.971 907.387C183.289 883.595 78.6946 897.505 50.4684 828.483C23.0903 761.535 117.506 705.984 144.118 638.764C168.846 576.305 153.165 498.298 200.183 450.324C250.385 399.102 326.283 375.736 397.922 379.8C468.162 383.785 533.936 420.658 582.068 471.987C625.568 518.376 630.914 584.788 647.659 646.121C663.777 705.157 705.337 768.025 677.806 822.651C650.226 877.377 574.471 880.361 517.818 903.754C475.149 921.373 434.463 941.561 388.293 942.197C340.892 942.85 298.908 922.513 253.971 907.387Z" stroke="url(#paint92_linear_148_176)" stroke-opacity="0.3" stroke-width="3"/>
<path opacity="0.94" fill-rule="evenodd" clip-rule="evenodd" d="M257.639 908.787C186.895 886.343 83.0585 902.005 53.7763 833.815C25.3739 767.673 118.36 710.751 143.676 643.399C167.2 580.816 150.245 503.466 196.2 454.909C245.265 403.065 320.383 378.492 391.738 381.289C461.699 384.03 527.787 419.577 576.57 469.815C620.658 515.218 627.128 581.21 644.853 641.95C661.914 700.415 704.357 762.249 677.909 817.086C651.413 872.023 576.085 876.312 520.117 900.576C477.965 918.852 437.83 939.649 391.899 941.086C344.744 942.561 302.616 923.056 257.639 908.787Z" stroke="url(#paint93_linear_148_176)" stroke-opacity="0.3" stroke-width="3"/>
<path opacity="0.95" fill-rule="evenodd" clip-rule="evenodd" d="M261.384 910.098C190.603 888.997 87.5541 906.39 57.2363 839.047C27.8295 773.727 119.367 715.466 143.391 648.006C165.713 585.323 147.503 508.65 192.388 459.533C240.311 407.09 314.63 381.331 385.679 382.871C455.34 384.381 521.714 418.601 571.125 467.741C615.78 512.152 623.361 577.705 642.05 637.836C660.039 695.715 703.342 756.505 677.976 811.531C652.563 866.659 577.683 872.237 522.414 897.357C480.788 916.276 441.213 937.67 395.536 939.899C348.64 942.188 306.384 923.513 261.384 910.098Z" stroke="url(#paint94_linear_148_176)" stroke-opacity="0.3" stroke-width="3"/>
<path opacity="0.96" fill-rule="evenodd" clip-rule="evenodd" d="M265.206 911.315C194.413 891.552 92.1809 910.653 60.848 844.172C30.4567 779.688 120.528 720.122 143.263 652.579C164.388 589.818 144.94 513.843 188.75 464.187C235.526 411.171 309.027 384.245 379.747 384.54C449.086 384.829 515.721 417.724 565.737 465.76C610.938 509.172 619.617 574.269 639.253 633.776C658.155 691.054 702.295 750.788 678.008 805.983C653.677 861.28 579.269 868.135 524.711 894.092C483.621 913.642 444.614 935.619 399.204 938.633C352.582 941.727 310.214 923.88 265.206 911.315Z" stroke="url(#paint95_linear_148_176)" stroke-opacity="0.3" stroke-width="3"/>
<path opacity="0.97" fill-rule="evenodd" clip-rule="evenodd" d="M269.097 912.44C198.317 894.008 96.9292 914.794 64.6022 849.19C33.2465 785.557 121.833 724.72 143.284 657.117C163.216 594.301 142.55 519.044 185.28 468.873C230.902 415.306 303.567 387.234 373.938 386.296C442.933 385.377 509.803 416.947 560.4 463.873C606.126 506.282 615.889 570.902 636.458 629.771C656.256 686.435 701.209 745.102 678.001 800.445C654.75 855.889 580.834 864.006 527 890.784C486.455 910.952 448.025 933.499 402.894 937.288C356.561 941.179 314.096 924.159 269.097 912.44Z" stroke="url(#paint96_linear_148_176)" stroke-opacity="0.3" stroke-width="3"/>
<path opacity="0.98" fill-rule="evenodd" clip-rule="evenodd" d="M273.065 913.471C202.324 896.363 101.808 918.811 68.5075 854.098C36.2079 791.329 123.294 729.254 143.465 661.616C162.208 598.767 140.343 524.247 181.988 473.583C226.452 419.49 298.264 390.294 368.263 388.135C436.894 386.019 503.974 416.266 555.128 462.076C601.358 503.476 612.19 567.604 633.675 625.819C654.355 681.855 700.097 739.446 677.965 794.916C655.792 850.487 582.39 859.85 529.291 887.432C489.3 908.205 451.455 931.308 406.618 935.864C360.586 940.542 318.04 924.347 273.065 913.471Z" stroke="url(#paint97_linear_148_176)" stroke-opacity="0.3" stroke-width="3"/>
<path opacity="0.99" fill-rule="evenodd" clip-rule="evenodd" d="M277.102 914.403C206.423 898.613 106.806 922.699 72.5539 858.891C39.331 797 124.899 733.721 143.797 666.072C161.357 603.213 138.311 529.448 178.868 478.313C222.169 423.718 293.111 393.418 362.717 390.052C430.963 386.751 498.227 415.679 549.914 460.367C596.627 500.754 608.515 564.371 630.9 621.919C652.446 677.313 698.953 733.818 677.894 789.395C656.796 845.073 583.928 855.667 531.577 884.034C492.148 905.399 454.895 929.045 410.365 934.359C364.647 939.815 322.038 924.442 277.102 914.403Z" stroke="url(#paint98_linear_148_176)" stroke-opacity="0.3" stroke-width="3"/>
<path fill-rule="evenodd" clip-rule="evenodd" d="M281.208 915.237C210.616 900.758 111.924 926.455 76.7412 863.566C42.6157 802.567 126.652 738.117 144.281 670.481C160.662 607.634 136.457 534.642 175.92 483.06C218.055 427.986 288.111 396.605 357.304 392.043C425.145 387.571 492.566 415.181 544.764 458.744C591.938 498.114 604.868 561.202 628.134 618.07C650.53 672.809 697.779 728.219 677.79 783.881C657.764 839.646 585.451 851.455 533.859 880.591C495.001 902.534 458.348 926.709 414.136 932.772C368.747 938.996 326.088 924.443 281.208 915.237Z" stroke="url(#paint99_linear_148_176)" stroke-opacity="0.3" stroke-width="3"/>
<defs>
<linearGradient id="paint0_linear_148_176" x1="296.219" y1="604.025" x2="988.047" y2="1164.26" gradientUnits="userSpaceOnUse">
<stop stop-color="#B620E0"/>
<stop offset="1" stop-color="#0047FF"/>
</linearGradient>
<linearGradient id="paint1_linear_148_176" x1="289.537" y1="605.692" x2="988.723" y2="1151.96" gradientUnits="userSpaceOnUse">
<stop stop-color="#B620E0"/>
<stop offset="1" stop-color="#0047FF"/>
</linearGradient>
<linearGradient id="paint2_linear_148_176" x1="282.938" y1="607.481" x2="989.207" y2="1139.69" gradientUnits="userSpaceOnUse">
<stop stop-color="#B620E0"/>
<stop offset="1" stop-color="#0047FF"/>
</linearGradient>
<linearGradient id="paint3_linear_148_176" x1="276.429" y1="609.392" x2="989.504" y2="1127.47" gradientUnits="userSpaceOnUse">
<stop stop-color="#B620E0"/>
<stop offset="1" stop-color="#0047FF"/>
</linearGradient>
<linearGradient id="paint4_linear_148_176" x1="270.005" y1="611.42" x2="989.609" y2="1115.29" gradientUnits="userSpaceOnUse">
<stop stop-color="#B620E0"/>
<stop offset="1" stop-color="#0047FF"/>
</linearGradient>
<linearGradient id="paint5_linear_148_176" x1="263.677" y1="613.565" x2="989.531" y2="1103.16" gradientUnits="userSpaceOnUse">
<stop stop-color="#B620E0"/>
<stop offset="1" stop-color="#0047FF"/>
</linearGradient>
<linearGradient id="paint6_linear_148_176" x1="257.448" y1="615.826" x2="989.273" y2="1091.08" gradientUnits="userSpaceOnUse">
<stop stop-color="#B620E0"/>
<stop offset="1" stop-color="#0047FF"/>
</linearGradient>
<linearGradient id="paint7_linear_148_176" x1="251.315" y1="618.198" x2="988.834" y2="1079.05" gradientUnits="userSpaceOnUse">
<stop stop-color="#B620E0"/>
<stop offset="1" stop-color="#0047FF"/>
</linearGradient>
<linearGradient id="paint8_linear_148_176" x1="245.272" y1="620.681" x2="988.205" y2="1067.08" gradientUnits="userSpaceOnUse">
<stop stop-color="#B620E0"/>
<stop offset="1" stop-color="#0047FF"/>
</linearGradient>
<linearGradient id="paint9_linear_148_176" x1="239.341" y1="623.272" x2="987.408" y2="1055.17" gradientUnits="userSpaceOnUse">
<stop stop-color="#B620E0"/>
<stop offset="1" stop-color="#0047FF"/>
</linearGradient>
<linearGradient id="paint10_linear_148_176" x1="233.509" y1="625.969" x2="986.433" y2="1043.32" gradientUnits="userSpaceOnUse">
<stop stop-color="#B620E0"/>
<stop offset="1" stop-color="#0047FF"/>
</linearGradient>
<linearGradient id="paint11_linear_148_176" x1="227.78" y1="628.769" x2="985.28" y2="1031.54" gradientUnits="userSpaceOnUse">
<stop stop-color="#B620E0"/>
<stop offset="1" stop-color="#0047FF"/>
</linearGradient>
<linearGradient id="paint12_linear_148_176" x1="222.16" y1="631.672" x2="983.959" y2="1019.83" gradientUnits="userSpaceOnUse">
<stop stop-color="#B620E0"/>
<stop offset="1" stop-color="#0047FF"/>
</linearGradient>
<linearGradient id="paint13_linear_148_176" x1="216.648" y1="634.674" x2="982.467" y2="1008.19" gradientUnits="userSpaceOnUse">
<stop stop-color="#B620E0"/>
<stop offset="1" stop-color="#0047FF"/>
</linearGradient>
<linearGradient id="paint14_linear_148_176" x1="211.251" y1="637.773" x2="980.811" y2="996.625" gradientUnits="userSpaceOnUse">
<stop stop-color="#B620E0"/>
<stop offset="1" stop-color="#0047FF"/>
</linearGradient>
<linearGradient id="paint15_linear_148_176" x1="205.967" y1="640.968" x2="978.991" y2="985.14" gradientUnits="userSpaceOnUse">
<stop stop-color="#B620E0"/>
<stop offset="1" stop-color="#0047FF"/>
</linearGradient>
<linearGradient id="paint16_linear_148_176" x1="200.798" y1="644.254" x2="977.008" y2="973.735" gradientUnits="userSpaceOnUse">
<stop stop-color="#B620E0"/>
<stop offset="1" stop-color="#0047FF"/>
</linearGradient>
<linearGradient id="paint17_linear_148_176" x1="195.743" y1="647.629" x2="974.863" y2="962.414" gradientUnits="userSpaceOnUse">
<stop stop-color="#B620E0"/>
<stop offset="1" stop-color="#0047FF"/>
</linearGradient>
<linearGradient id="paint18_linear_148_176" x1="190.808" y1="651.093" x2="972.562" y2="951.18" gradientUnits="userSpaceOnUse">
<stop stop-color="#B620E0"/>
<stop offset="1" stop-color="#0047FF"/>
</linearGradient>
<linearGradient id="paint19_linear_148_176" x1="185.991" y1="654.642" x2="970.104" y2="940.035" gradientUnits="userSpaceOnUse">
<stop stop-color="#B620E0"/>
<stop offset="1" stop-color="#0047FF"/>
</linearGradient>
<linearGradient id="paint20_linear_148_176" x1="181.294" y1="658.272" x2="967.494" y2="928.982" gradientUnits="userSpaceOnUse">
<stop stop-color="#B620E0"/>
<stop offset="1" stop-color="#0047FF"/>
</linearGradient>
<linearGradient id="paint21_linear_148_176" x1="176.726" y1="661.982" x2="964.738" y2="918.023" gradientUnits="userSpaceOnUse">
<stop stop-color="#B620E0"/>
<stop offset="1" stop-color="#0047FF"/>
</linearGradient>
<linearGradient id="paint22_linear_148_176" x1="172.279" y1="665.77" x2="961.831" y2="907.161" gradientUnits="userSpaceOnUse">
<stop stop-color="#B620E0"/>
<stop offset="1" stop-color="#0047FF"/>
</linearGradient>
<linearGradient id="paint23_linear_148_176" x1="167.96" y1="669.633" x2="958.783" y2="896.398" gradientUnits="userSpaceOnUse">
<stop stop-color="#B620E0"/>
<stop offset="1" stop-color="#0047FF"/>
</linearGradient>
<linearGradient id="paint24_linear_148_176" x1="163.771" y1="673.567" x2="955.596" y2="885.735" gradientUnits="userSpaceOnUse">
<stop stop-color="#B620E0"/>
<stop offset="1" stop-color="#0047FF"/>
</linearGradient>
<linearGradient id="paint25_linear_148_176" x1="159.706" y1="677.569" x2="952.264" y2="875.176" gradientUnits="userSpaceOnUse">
<stop stop-color="#B620E0"/>
<stop offset="1" stop-color="#0047FF"/>
</linearGradient>
<linearGradient id="paint26_linear_148_176" x1="155.772" y1="681.64" x2="948.797" y2="864.724" gradientUnits="userSpaceOnUse">
<stop stop-color="#B620E0"/>
<stop offset="1" stop-color="#0047FF"/>
</linearGradient>
<linearGradient id="paint27_linear_148_176" x1="151.975" y1="685.774" x2="945.204" y2="854.38" gradientUnits="userSpaceOnUse">
<stop stop-color="#B620E0"/>
<stop offset="1" stop-color="#0047FF"/>
</linearGradient>
<linearGradient id="paint28_linear_148_176" x1="148.353" y1="689.975" x2="941.522" y2="844.152" gradientUnits="userSpaceOnUse">
<stop stop-color="#B620E0"/>
<stop offset="1" stop-color="#0047FF"/>
</linearGradient>
<linearGradient id="paint29_linear_148_176" x1="144.82" y1="694.229" x2="937.667" y2="834.029" gradientUnits="userSpaceOnUse">
<stop stop-color="#B620E0"/>
<stop offset="1" stop-color="#0047FF"/>
</linearGradient>
<linearGradient id="paint30_linear_148_176" x1="141.423" y1="698.538" x2="933.69" y2="824.021" gradientUnits="userSpaceOnUse">
<stop stop-color="#B620E0"/>
<stop offset="1" stop-color="#0047FF"/>
</linearGradient>
<linearGradient id="paint31_linear_148_176" x1="138.158" y1="702.9" x2="929.587" y2="814.128" gradientUnits="userSpaceOnUse">
<stop stop-color="#B620E0"/>
<stop offset="1" stop-color="#0047FF"/>
</linearGradient>
<linearGradient id="paint32_linear_148_176" x1="135.033" y1="707.312" x2="925.368" y2="804.353" gradientUnits="userSpaceOnUse">
<stop stop-color="#B620E0"/>
<stop offset="1" stop-color="#0047FF"/>
</linearGradient>
<linearGradient id="paint33_linear_148_176" x1="132.04" y1="711.77" x2="921.029" y2="794.696" gradientUnits="userSpaceOnUse">
<stop stop-color="#B620E0"/>
<stop offset="1" stop-color="#0047FF"/>
</linearGradient>
<linearGradient id="paint34_linear_148_176" x1="129.192" y1="716.273" x2="916.584" y2="785.161" gradientUnits="userSpaceOnUse">
<stop stop-color="#B620E0"/>
<stop offset="1" stop-color="#0047FF"/>
</linearGradient>
<linearGradient id="paint35_linear_148_176" x1="126.481" y1="720.818" x2="912.026" y2="775.749" gradientUnits="userSpaceOnUse">
<stop stop-color="#B620E0"/>
<stop offset="1" stop-color="#0047FF"/>
</linearGradient>
<linearGradient id="paint36_linear_148_176" x1="123.913" y1="725.401" x2="907.366" y2="766.46" gradientUnits="userSpaceOnUse">
<stop stop-color="#B620E0"/>
<stop offset="1" stop-color="#0047FF"/>
</linearGradient>
<linearGradient id="paint37_linear_148_176" x1="121.482" y1="730.019" x2="902.598" y2="757.296" gradientUnits="userSpaceOnUse">
<stop stop-color="#B620E0"/>
<stop offset="1" stop-color="#0047FF"/>
</linearGradient>
<linearGradient id="paint38_linear_148_176" x1="119.194" y1="734.67" x2="897.732" y2="748.26" gradientUnits="userSpaceOnUse">
<stop stop-color="#B620E0"/>
<stop offset="1" stop-color="#0047FF"/>
</linearGradient>
<linearGradient id="paint39_linear_148_176" x1="117.052" y1="739.352" x2="892.772" y2="739.352" gradientUnits="userSpaceOnUse">
<stop stop-color="#B620E0"/>
<stop offset="1" stop-color="#0047FF"/>
</linearGradient>
<linearGradient id="paint40_linear_148_176" x1="115.047" y1="744.06" x2="887.714" y2="730.573" gradientUnits="userSpaceOnUse">
<stop stop-color="#B620E0"/>
<stop offset="1" stop-color="#0047FF"/>
</linearGradient>
<linearGradient id="paint41_linear_148_176" x1="113.187" y1="748.791" x2="882.566" y2="721.924" gradientUnits="userSpaceOnUse">
<stop stop-color="#B620E0"/>
<stop offset="1" stop-color="#0047FF"/>
</linearGradient>
<linearGradient id="paint42_linear_148_176" x1="111.473" y1="753.545" x2="877.335" y2="713.408" gradientUnits="userSpaceOnUse">
<stop stop-color="#B620E0"/>
<stop offset="1" stop-color="#0047FF"/>
</linearGradient>
<linearGradient id="paint43_linear_148_176" x1="109.899" y1="758.315" x2="872.015" y2="705.023" gradientUnits="userSpaceOnUse">
<stop stop-color="#B620E0"/>
<stop offset="1" stop-color="#0047FF"/>
</linearGradient>
<linearGradient id="paint44_linear_148_176" x1="108.465" y1="763.101" x2="866.61" y2="696.772" gradientUnits="userSpaceOnUse">
<stop stop-color="#B620E0"/>
<stop offset="1" stop-color="#0047FF"/>
</linearGradient>
<linearGradient id="paint45_linear_148_176" x1="107.184" y1="767.899" x2="861.136" y2="688.655" gradientUnits="userSpaceOnUse">
<stop stop-color="#B620E0"/>
<stop offset="1" stop-color="#0047FF"/>
</linearGradient>
<linearGradient id="paint46_linear_148_176" x1="106.042" y1="772.705" x2="855.583" y2="680.673" gradientUnits="userSpaceOnUse">
<stop stop-color="#B620E0"/>
<stop offset="1" stop-color="#0047FF"/>
</linearGradient>
<linearGradient id="paint47_linear_148_176" x1="105.047" y1="777.518" x2="849.96" y2="672.827" gradientUnits="userSpaceOnUse">
<stop stop-color="#B620E0"/>
<stop offset="1" stop-color="#0047FF"/>
</linearGradient>
<linearGradient id="paint48_linear_148_176" x1="104.195" y1="782.334" x2="844.268" y2="665.118" gradientUnits="userSpaceOnUse">
<stop stop-color="#B620E0"/>
<stop offset="1" stop-color="#0047FF"/>
</linearGradient>
<linearGradient id="paint49_linear_148_176" x1="103.483" y1="787.151" x2="838.506" y2="657.547" gradientUnits="userSpaceOnUse">
<stop stop-color="#B620E0"/>
<stop offset="1" stop-color="#0047FF"/>
</linearGradient>
<linearGradient id="paint50_linear_148_176" x1="102.923" y1="791.965" x2="832.691" y2="650.113" gradientUnits="userSpaceOnUse">
<stop stop-color="#B620E0"/>
<stop offset="1" stop-color="#0047FF"/>
</linearGradient>
<linearGradient id="paint51_linear_148_176" x1="102.502" y1="796.773" x2="826.811" y2="642.817" gradientUnits="userSpaceOnUse">
<stop stop-color="#B620E0"/>
<stop offset="1" stop-color="#0047FF"/>
</linearGradient>
<linearGradient id="paint52_linear_148_176" x1="102.231" y1="801.573" x2="820.883" y2="635.66" gradientUnits="userSpaceOnUse">
<stop stop-color="#B620E0"/>
<stop offset="1" stop-color="#0047FF"/>
</linearGradient>
<linearGradient id="paint53_linear_148_176" x1="102.098" y1="806.361" x2="814.895" y2="628.641" gradientUnits="userSpaceOnUse">
<stop stop-color="#B620E0"/>
<stop offset="1" stop-color="#0047FF"/>
</linearGradient>
<linearGradient id="paint54_linear_148_176" x1="102.107" y1="811.133" x2="808.859" y2="621.76" gradientUnits="userSpaceOnUse">
<stop stop-color="#B620E0"/>
<stop offset="1" stop-color="#0047FF"/>
</linearGradient>
<linearGradient id="paint55_linear_148_176" x1="102.263" y1="815.889" x2="802.779" y2="615.019" gradientUnits="userSpaceOnUse">
<stop stop-color="#B620E0"/>
<stop offset="1" stop-color="#0047FF"/>
</linearGradient>
<linearGradient id="paint56_linear_148_176" x1="102.559" y1="820.625" x2="796.656" y2="608.418" gradientUnits="userSpaceOnUse">
<stop stop-color="#B620E0"/>
<stop offset="1" stop-color="#0047FF"/>
</linearGradient>
<linearGradient id="paint57_linear_148_176" x1="102.999" y1="825.337" x2="790.495" y2="601.957" gradientUnits="userSpaceOnUse">
<stop stop-color="#B620E0"/>
<stop offset="1" stop-color="#0047FF"/>
</linearGradient>
<linearGradient id="paint58_linear_148_176" x1="103.579" y1="830.023" x2="784.296" y2="595.634" gradientUnits="userSpaceOnUse">
<stop stop-color="#B620E0"/>
<stop offset="1" stop-color="#0047FF"/>
</linearGradient>
<linearGradient id="paint59_linear_148_176" x1="104.301" y1="834.68" x2="778.064" y2="589.451" gradientUnits="userSpaceOnUse">
<stop stop-color="#B620E0"/>
<stop offset="1" stop-color="#0047FF"/>
</linearGradient>
<linearGradient id="paint60_linear_148_176" x1="105.165" y1="839.306" x2="771.805" y2="583.407" gradientUnits="userSpaceOnUse">
<stop stop-color="#B620E0"/>
<stop offset="1" stop-color="#0047FF"/>
</linearGradient>
<linearGradient id="paint61_linear_148_176" x1="106.163" y1="843.896" x2="765.513" y2="577.501" gradientUnits="userSpaceOnUse">
<stop stop-color="#B620E0"/>
<stop offset="1" stop-color="#0047FF"/>
</linearGradient>
<linearGradient id="paint62_linear_148_176" x1="107.301" y1="848.447" x2="759.2" y2="571.733" gradientUnits="userSpaceOnUse">
<stop stop-color="#B620E0"/>
<stop offset="1" stop-color="#0047FF"/>
</linearGradient>
<linearGradient id="paint63_linear_148_176" x1="108.581" y1="852.959" x2="752.869" y2="566.104" gradientUnits="userSpaceOnUse">
<stop stop-color="#B620E0"/>
<stop offset="1" stop-color="#0047FF"/>
</linearGradient>
<linearGradient id="paint64_linear_148_176" x1="109.993" y1="857.429" x2="746.516" y2="560.613" gradientUnits="userSpaceOnUse">
<stop stop-color="#B620E0"/>
<stop offset="1" stop-color="#0047FF"/>
</linearGradient>
<linearGradient id="paint65_linear_148_176" x1="111.54" y1="861.85" x2="740.147" y2="555.258" gradientUnits="userSpaceOnUse">
<stop stop-color="#B620E0"/>
<stop offset="1" stop-color="#0047FF"/>
</linearGradient>
<linearGradient id="paint66_linear_148_176" x1="113.227" y1="866.225" x2="733.772" y2="550.042" gradientUnits="userSpaceOnUse">
<stop stop-color="#B620E0"/>
<stop offset="1" stop-color="#0047FF"/>
</linearGradient>
<linearGradient id="paint67_linear_148_176" x1="115.045" y1="870.546" x2="727.385" y2="544.96" gradientUnits="userSpaceOnUse">
<stop stop-color="#B620E0"/>
<stop offset="1" stop-color="#0047FF"/>
</linearGradient>
<linearGradient id="paint68_linear_148_176" x1="116.996" y1="874.815" x2="720.993" y2="540.014" gradientUnits="userSpaceOnUse">
<stop stop-color="#B620E0"/>
<stop offset="1" stop-color="#0047FF"/>
</linearGradient>
<linearGradient id="paint69_linear_148_176" x1="119.075" y1="879.026" x2="714.594" y2="535.203" gradientUnits="userSpaceOnUse">
<stop stop-color="#B620E0"/>
<stop offset="1" stop-color="#0047FF"/>
</linearGradient>
<linearGradient id="paint70_linear_148_176" x1="121.289" y1="883.178" x2="708.2" y2="530.526" gradientUnits="userSpaceOnUse">
<stop stop-color="#B620E0"/>
<stop offset="1" stop-color="#0047FF"/>
</linearGradient>
<linearGradient id="paint71_linear_148_176" x1="123.628" y1="887.266" x2="701.805" y2="525.98" gradientUnits="userSpaceOnUse">
<stop stop-color="#B620E0"/>
<stop offset="1" stop-color="#0047FF"/>
</linearGradient>
<linearGradient id="paint72_linear_148_176" x1="126.098" y1="891.291" x2="695.42" y2="521.569" gradientUnits="userSpaceOnUse">
<stop stop-color="#B620E0"/>
<stop offset="1" stop-color="#0047FF"/>
</linearGradient>
<linearGradient id="paint73_linear_148_176" x1="128.695" y1="895.246" x2="689.044" y2="517.286" gradientUnits="userSpaceOnUse">
<stop stop-color="#B620E0"/>
<stop offset="1" stop-color="#0047FF"/>
</linearGradient>
<linearGradient id="paint74_linear_148_176" x1="131.411" y1="899.133" x2="682.673" y2="513.135" gradientUnits="userSpaceOnUse">
<stop stop-color="#B620E0"/>
<stop offset="1" stop-color="#0047FF"/>
</linearGradient>
<linearGradient id="paint75_linear_148_176" x1="134.255" y1="902.948" x2="676.321" y2="509.113" gradientUnits="userSpaceOnUse">
<stop stop-color="#B620E0"/>
<stop offset="1" stop-color="#0047FF"/>
</linearGradient>
<linearGradient id="paint76_linear_148_176" x1="137.218" y1="906.686" x2="669.984" y2="505.218" gradientUnits="userSpaceOnUse">
<stop stop-color="#B620E0"/>
<stop offset="1" stop-color="#0047FF"/>
</linearGradient>
<linearGradient id="paint77_linear_148_176" x1="140.302" y1="910.348" x2="663.667" y2="501.451" gradientUnits="userSpaceOnUse">
<stop stop-color="#B620E0"/>
<stop offset="1" stop-color="#0047FF"/>
</linearGradient>
<linearGradient id="paint78_linear_148_176" x1="143.506" y1="913.929" x2="657.374" y2="497.807" gradientUnits="userSpaceOnUse">
<stop stop-color="#B620E0"/>
<stop offset="1" stop-color="#0047FF"/>
</linearGradient>
<linearGradient id="paint79_linear_148_176" x1="146.822" y1="917.428" x2="651.1" y2="494.289" gradientUnits="userSpaceOnUse">
<stop stop-color="#B620E0"/>
<stop offset="1" stop-color="#0047FF"/>
</linearGradient>
<linearGradient id="paint80_linear_148_176" x1="150.26" y1="920.843" x2="644.86" y2="490.893" gradientUnits="userSpaceOnUse">
<stop stop-color="#B620E0"/>
<stop offset="1" stop-color="#0047FF"/>
</linearGradient>
<linearGradient id="paint81_linear_148_176" x1="153.805" y1="924.169" x2="638.645" y2="487.618" gradientUnits="userSpaceOnUse">
<stop stop-color="#B620E0"/>
<stop offset="1" stop-color="#0047FF"/>
</linearGradient>
<linearGradient id="paint82_linear_148_176" x1="157.464" y1="927.406" x2="632.464" y2="484.461" gradientUnits="userSpaceOnUse">
<stop stop-color="#B620E0"/>
<stop offset="1" stop-color="#0047FF"/>
</linearGradient>
<linearGradient id="paint83_linear_148_176" x1="161.231" y1="930.552" x2="626.316" y2="481.424" gradientUnits="userSpaceOnUse">
<stop stop-color="#B620E0"/>
<stop offset="1" stop-color="#0047FF"/>
</linearGradient>
<linearGradient id="paint84_linear_148_176" x1="165.106" y1="933.604" x2="620.206" y2="478.504" gradientUnits="userSpaceOnUse">
<stop stop-color="#B620E0"/>
<stop offset="1" stop-color="#0047FF"/>
</linearGradient>
<linearGradient id="paint85_linear_148_176" x1="169.091" y1="936.56" x2="614.14" y2="475.699" gradientUnits="userSpaceOnUse">
<stop stop-color="#B620E0"/>
<stop offset="1" stop-color="#0047FF"/>
</linearGradient>
<linearGradient id="paint86_linear_148_176" x1="173.175" y1="939.418" x2="608.111" y2="473.007" gradientUnits="userSpaceOnUse">
<stop stop-color="#B620E0"/>
<stop offset="1" stop-color="#0047FF"/>
</linearGradient>
<linearGradient id="paint87_linear_148_176" x1="177.359" y1="942.175" x2="602.124" y2="470.426" gradientUnits="userSpaceOnUse">
<stop stop-color="#B620E0"/>
<stop offset="1" stop-color="#0047FF"/>
</linearGradient>
<linearGradient id="paint88_linear_148_176" x1="181.643" y1="944.83" x2="596.184" y2="467.955" gradientUnits="userSpaceOnUse">
<stop stop-color="#B620E0"/>
<stop offset="1" stop-color="#0047FF"/>
</linearGradient>
<linearGradient id="paint89_linear_148_176" x1="186.027" y1="947.38" x2="590.295" y2="465.592" gradientUnits="userSpaceOnUse">
<stop stop-color="#B620E0"/>
<stop offset="1" stop-color="#0047FF"/>
</linearGradient>
<linearGradient id="paint90_linear_148_176" x1="190.506" y1="949.825" x2="584.457" y2="463.337" gradientUnits="userSpaceOnUse">
<stop stop-color="#B620E0"/>
<stop offset="1" stop-color="#0047FF"/>
</linearGradient>
<linearGradient id="paint91_linear_148_176" x1="195.076" y1="952.161" x2="578.669" y2="461.185" gradientUnits="userSpaceOnUse">
<stop stop-color="#B620E0"/>
<stop offset="1" stop-color="#0047FF"/>
</linearGradient>
<linearGradient id="paint92_linear_148_176" x1="199.736" y1="954.388" x2="572.935" y2="459.136" gradientUnits="userSpaceOnUse">
<stop stop-color="#B620E0"/>
<stop offset="1" stop-color="#0047FF"/>
</linearGradient>
<linearGradient id="paint93_linear_148_176" x1="204.486" y1="956.501" x2="567.259" y2="457.186" gradientUnits="userSpaceOnUse">
<stop stop-color="#B620E0"/>
<stop offset="1" stop-color="#0047FF"/>
</linearGradient>
<linearGradient id="paint94_linear_148_176" x1="209.322" y1="958.502" x2="561.642" y2="455.337" gradientUnits="userSpaceOnUse">
<stop stop-color="#B620E0"/>
<stop offset="1" stop-color="#0047FF"/>
</linearGradient>
<linearGradient id="paint95_linear_148_176" x1="214.243" y1="960.386" x2="556.086" y2="453.582" gradientUnits="userSpaceOnUse">
<stop stop-color="#B620E0"/>
<stop offset="1" stop-color="#0047FF"/>
</linearGradient>
<linearGradient id="paint96_linear_148_176" x1="219.239" y1="962.154" x2="550.586" y2="451.924" gradientUnits="userSpaceOnUse">
<stop stop-color="#B620E0"/>
<stop offset="1" stop-color="#0047FF"/>
</linearGradient>
<linearGradient id="paint97_linear_148_176" x1="224.321" y1="963.803" x2="545.157" y2="450.358" gradientUnits="userSpaceOnUse">
<stop stop-color="#B620E0"/>
<stop offset="1" stop-color="#0047FF"/>
</linearGradient>
<linearGradient id="paint98_linear_148_176" x1="229.477" y1="965.332" x2="539.791" y2="448.882" gradientUnits="userSpaceOnUse">
<stop stop-color="#B620E0"/>
<stop offset="1" stop-color="#0047FF"/>
</linearGradient>
<linearGradient id="paint99_linear_148_176" x1="234.708" y1="966.737" x2="534.493" y2="447.493" gradientUnits="userSpaceOnUse">
<stop stop-color="#B620E0"/>
<stop offset="1" stop-color="#0047FF"/>
</linearGradient>
</defs>
</svg>
