<svg width="1024" height="1560" viewBox="0 0 1024 1560" fill="none" xmlns="http://www.w3.org/2000/svg">
<path opacity="0.261307" d="M800.641 1046.52L760.787 1034.36C720.934 1022.21 641.227 997.9 569.779 1008.16C498.33 1018.42 435.141 1063.25 357.27 1046.62C279.398 1029.99 186.843 951.909 110.807 942.964C34.7705 934.019 -24.7478 994.212 -54.507 1024.31L-84.2662 1054.4" stroke="url(#paint0_linear_148_8)" stroke-opacity="0.45"/>
<path opacity="0.266332" d="M800.404 1034.01L760.608 1022.4C720.813 1010.78 641.221 987.56 570.622 999.058C500.023 1010.56 438.415 1056.77 360.822 1041.27C283.229 1025.76 189.651 948.524 114.056 940.733C38.461 932.941 -19.1505 994.59 -47.9562 1025.41L-76.762 1056.24" stroke="url(#paint1_linear_148_8)" stroke-opacity="0.45"/>
<path opacity="0.271357" d="M800.033 1021.5L760.308 1010.43C720.582 999.368 641.131 977.238 571.402 989.969C501.672 1002.7 441.665 1050.29 364.374 1035.91C287.084 1021.53 192.51 945.168 117.38 938.532C42.2498 931.896 -13.4373 994.982 -41.2808 1026.53L-69.1244 1058.07" stroke="url(#paint2_linear_148_8)" stroke-opacity="0.45"/>
<path opacity="0.276382" d="M799.529 1008.99L759.886 998.477C720.243 987.962 640.956 966.932 572.118 980.893C503.28 994.855 444.891 1043.81 367.926 1030.55C290.962 1017.3 195.422 941.838 120.779 936.36C46.1366 930.881 -7.60913 995.386 -34.482 1027.64L-61.3549 1059.89" stroke="url(#paint3_linear_148_8)" stroke-opacity="0.45"/>
<path opacity="0.281407" d="M798.894 996.494L759.345 986.532C719.796 976.57 640.699 956.646 572.773 971.834C504.847 987.021 448.094 1037.32 371.479 1025.2C294.863 1013.08 198.386 938.536 124.254 934.217C50.1215 929.899 -1.6665 995.802 -27.5605 1028.75L-53.4545 1061.71" stroke="url(#paint4_linear_148_8)" stroke-opacity="0.45"/>
<path opacity="0.286432" d="M798.129 984.004L758.687 974.598C719.244 965.192 640.359 946.381 573.366 962.79C506.373 979.198 451.273 1030.83 375.031 1019.84C298.788 1008.86 201.404 935.26 127.804 932.102C54.2043 928.944 4.38979 996.226 -20.5175 1029.87L-45.4247 1063.51" stroke="url(#paint5_linear_148_8)" stroke-opacity="0.45"/>
<path opacity="0.291457" d="M797.234 971.524L757.91 962.678C718.586 953.831 639.937 936.138 573.898 953.763C507.859 971.388 454.429 1024.33 378.582 1014.49C302.736 1004.64 204.473 932.009 131.429 930.013C58.3841 928.017 10.5583 996.657 -13.3546 1030.98L-37.2675 1065.3" stroke="url(#paint6_linear_148_8)" stroke-opacity="0.45"/>
<path opacity="0.296482" d="M796.213 959.058L757.019 950.774C717.825 942.489 639.437 925.919 574.371 944.755C509.306 963.591 457.562 1017.83 382.135 1009.13C306.707 1000.43 207.596 928.784 135.129 927.95C62.6623 927.116 16.8397 997.094 -6.07154 1032.08L-28.9828 1067.07" stroke="url(#paint7_linear_148_8)" stroke-opacity="0.45"/>
<path opacity="0.301508" d="M795.065 946.608L756.013 938.887C716.962 931.167 638.858 915.726 574.786 935.767C510.714 955.808 460.672 1011.33 385.687 1003.78C310.702 996.22 210.772 925.584 138.905 925.912C67.0377 926.241 23.2324 997.535 1.32969 1033.18L-20.573 1068.83" stroke="url(#paint8_linear_148_8)" stroke-opacity="0.45"/>
<path opacity="0.306533" d="M793.793 934.174L754.895 927.02C715.998 919.866 638.203 905.559 575.143 926.799C512.084 948.039 463.76 1004.83 389.239 998.42C314.719 992.011 214.002 922.406 142.756 923.898C71.51 925.389 29.7352 997.977 8.84784 1034.27L-12.0396 1070.56" stroke="url(#paint9_linear_148_8)" stroke-opacity="0.45"/>
<path opacity="0.311558" d="M792.397 921.761L753.665 915.176C714.934 908.591 637.471 895.42 575.443 917.853C513.416 940.286 466.824 998.322 392.791 993.064C318.758 987.806 217.284 919.253 146.682 921.906C76.079 924.56 36.3474 998.419 16.4817 1035.35L-3.38407 1072.28" stroke="url(#paint10_linear_148_8)" stroke-opacity="0.45"/>
<path opacity="0.316583" d="M790.879 909.369L752.325 903.354C713.771 897.34 636.664 885.312 575.688 908.93C514.711 932.549 469.866 991.815 396.343 987.708C322.82 983.601 220.62 916.122 150.682 919.936C80.7443 923.751 43.0682 998.86 24.2301 1036.41L5.39203 1073.97" stroke="url(#paint11_linear_148_8)" stroke-opacity="0.45"/>
<path opacity="0.321608" d="M789.241 897L750.877 891.558C712.513 886.117 635.785 875.233 575.878 900.031C515.971 924.828 472.886 985.306 399.895 982.352C326.905 979.398 224.01 913.011 154.758 917.986C85.5061 922.961 49.8968 999.297 32.0921 1037.46L14.2875 1075.63" stroke="url(#paint12_linear_148_8)" stroke-opacity="0.45"/>
<path opacity="0.326633" d="M787.485 884.658L749.322 879.791C711.159 874.923 634.833 865.189 576.014 891.157C517.195 917.126 475.883 978.797 403.447 976.996C331.012 975.196 227.454 909.923 158.909 916.057C90.3635 922.19 56.8319 999.73 40.0661 1038.5L23.3003 1077.27" stroke="url(#paint13_linear_148_8)" stroke-opacity="0.45"/>
<path opacity="0.331658" d="M785.611 872.343L747.661 868.052C709.711 863.76 633.811 855.177 576.098 882.309C518.385 909.44 478.858 972.286 406.999 971.64C335.141 970.994 230.95 906.855 163.133 914.145C95.3163 921.435 63.8726 1000.15 48.1508 1039.51L32.429 1078.87" stroke="url(#paint14_linear_148_8)" stroke-opacity="0.45"/>
<path opacity="0.336683" d="M783.623 860.059L745.897 856.345C708.172 852.631 632.72 845.202 576.13 873.488C519.54 901.775 481.811 965.776 410.552 966.284C339.292 966.792 234.501 903.807 167.433 912.251C100.364 920.696 71.0179 1000.57 56.3448 1040.51L41.6717 1080.45" stroke="url(#paint15_linear_148_8)" stroke-opacity="0.45"/>
<path opacity="0.341709" d="M781.52 847.807L744.03 844.671C706.541 841.535 631.561 835.263 576.112 864.696C520.662 894.128 484.743 959.266 414.103 960.928C343.464 962.59 238.105 900.777 171.805 910.374C105.506 919.97 78.2661 1000.98 64.6462 1041.48L51.0263 1081.98" stroke="url(#paint16_linear_148_8)" stroke-opacity="0.45"/>
<path opacity="0.346734" d="M779.306 835.591L742.064 833.034C704.822 830.477 630.337 825.363 576.045 855.933C521.753 886.503 487.653 952.757 417.656 955.572C347.658 958.388 241.763 897.766 176.253 908.512C110.742 919.258 85.6174 1001.37 73.0549 1042.43L60.4924 1083.48" stroke="url(#paint17_linear_148_8)" stroke-opacity="0.45"/>
<path opacity="0.351759" d="M776.982 823.409L739.998 821.432C703.014 819.455 629.047 815.501 575.929 847.199C522.811 878.897 490.542 946.247 421.208 950.216C351.873 954.185 245.474 894.772 180.773 906.664C116.072 918.555 93.0693 1001.75 81.568 1043.35L70.0667 1084.95" stroke="url(#paint18_linear_148_8)" stroke-opacity="0.45"/>
<path opacity="0.356784" d="M774.549 811.267L737.835 809.871C701.121 808.474 627.694 805.682 575.766 838.498C523.838 871.314 493.409 939.74 424.76 944.86C356.11 949.98 249.239 891.796 185.367 904.829C121.494 917.863 100.621 1002.11 90.1846 1044.24L79.748 1086.37" stroke="url(#paint19_linear_148_8)" stroke-opacity="0.45"/>
<path opacity="0.361809" d="M772.009 799.166L735.576 798.35C699.144 797.535 626.279 795.904 575.557 829.829C524.835 863.753 496.256 933.233 428.311 939.504C360.367 945.774 253.057 888.835 190.033 903.007C127.009 917.178 108.271 1002.46 98.9028 1045.1L89.534 1087.74" stroke="url(#paint20_linear_148_8)" stroke-opacity="0.45"/>
<path opacity="0.366834" d="M769.365 787.107L733.225 786.873C697.084 786.639 624.803 786.17 575.303 821.193C525.802 856.216 499.082 926.729 431.863 934.148C364.645 941.566 256.928 885.89 194.772 901.196C132.616 916.501 116.02 1002.79 107.722 1045.93L99.4238 1089.08" stroke="url(#paint21_linear_148_8)" stroke-opacity="0.45"/>
<path opacity="0.371859" d="M766.618 775.093L730.781 775.44C694.944 775.787 623.27 776.482 575.005 812.591C526.741 848.701 501.887 920.227 435.415 928.791C368.943 937.356 260.853 882.96 199.583 899.394C138.314 915.829 123.864 1003.09 116.64 1046.73L109.415 1090.36" stroke="url(#paint22_linear_148_8)" stroke-opacity="0.45"/>
<path opacity="0.376884" d="M763.77 763.126L728.247 764.054C692.724 764.983 621.678 766.839 574.665 804.026C527.653 841.212 504.673 913.728 438.967 923.435C373.262 933.143 264.831 880.043 204.467 897.602C144.102 915.161 131.803 1003.38 125.654 1047.49L119.505 1091.6" stroke="url(#paint23_linear_148_8)" stroke-opacity="0.45"/>
<path opacity="0.38191" d="M760.823 751.207L725.625 752.716C690.427 754.225 620.031 757.244 574.284 795.495C528.536 833.747 507.438 907.23 442.519 918.079C377.6 928.927 268.862 877.139 209.421 895.817C149.98 914.495 139.836 1003.64 134.764 1048.21L129.692 1092.78" stroke="url(#paint24_linear_148_8)" stroke-opacity="0.45"/>
<path opacity="0.386935" d="M757.779 739.34L722.917 741.429C688.055 743.519 618.33 747.699 573.862 787.004C529.394 826.308 510.183 900.738 446.071 912.723C381.959 924.708 272.946 874.249 214.447 894.04C155.947 913.831 147.961 1003.87 143.968 1048.89L139.975 1093.91" stroke="url(#paint25_linear_148_8)" stroke-opacity="0.45"/>
<path opacity="0.39196" d="M754.641 727.525L720.125 730.194C685.609 732.864 616.577 738.203 573.402 778.549C530.227 818.895 512.909 894.248 449.623 907.366C386.337 920.485 277.083 871.37 219.543 892.267C162.003 913.165 156.177 1004.08 153.264 1049.53L150.351 1094.99" stroke="url(#paint26_linear_148_8)" stroke-opacity="0.45"/>
<path opacity="0.396985" d="M751.409 715.765L717.25 719.013C683.091 722.262 614.773 728.76 572.904 770.135C531.035 811.51 515.616 887.762 453.175 902.01C390.734 916.258 281.272 868.502 224.709 890.5C168.146 912.499 164.482 1004.25 162.65 1050.13L160.818 1096.01" stroke="url(#paint27_linear_148_8)" stroke-opacity="0.45"/>
<path opacity="0.40201" d="M748.087 704.061L714.295 707.887C680.503 711.714 612.919 719.367 572.369 761.759C531.819 804.151 518.303 881.28 456.727 896.653C395.15 912.026 285.514 865.643 229.945 888.735C174.376 911.828 172.875 1004.4 172.125 1050.68L171.374 1096.97" stroke="url(#paint28_linear_148_8)" stroke-opacity="0.45"/>
<path opacity="0.407035" d="M744.675 692.416L711.261 696.82C677.846 701.224 611.017 710.031 571.799 753.426C532.58 796.821 520.971 874.804 460.278 891.297C399.585 907.791 289.807 862.795 235.249 886.974C180.692 911.154 181.354 1004.51 181.686 1051.19L182.017 1097.86" stroke="url(#paint29_linear_148_8)" stroke-opacity="0.45"/>
<path opacity="0.41206" d="M741.177 680.832L708.15 685.811C675.124 690.79 609.07 700.749 571.195 745.134C533.319 789.52 523.622 868.332 463.83 885.941C404.038 903.55 294.153 859.955 240.623 885.214C187.093 910.473 189.919 1004.59 191.332 1051.64L192.745 1098.7" stroke="url(#paint30_linear_148_8)" stroke-opacity="0.45"/>
<path opacity="0.417085" d="M737.594 669.31L704.965 674.863C672.337 680.416 607.079 691.523 570.558 736.885C534.037 782.247 526.253 861.865 467.382 880.584C408.51 899.303 298.55 857.122 246.064 883.453C193.578 909.784 198.566 1004.63 201.061 1052.05L203.555 1099.47" stroke="url(#paint31_linear_148_8)" stroke-opacity="0.45"/>
<path opacity="0.422111" d="M733.93 657.852L701.708 663.978C669.487 670.103 605.045 682.354 569.89 728.68C534.735 775.005 528.867 855.405 470.933 875.228C412.999 895.051 302.998 854.297 251.572 881.692C200.147 909.087 207.296 1004.63 210.871 1052.4L214.445 1100.17" stroke="url(#paint32_linear_148_8)" stroke-opacity="0.45"/>
<path opacity="0.427136" d="M730.185 646.461L698.381 653.157C666.577 659.853 602.97 673.245 569.192 720.519C535.413 767.793 531.464 848.95 474.485 869.871C417.506 890.792 307.498 851.478 257.148 879.929C206.798 908.38 216.106 1004.6 220.76 1052.7L225.414 1100.81" stroke="url(#paint33_linear_148_8)" stroke-opacity="0.45"/>
<path opacity="0.432161" d="M726.362 635.139L694.985 642.403C663.609 649.667 600.856 664.196 568.464 712.405C536.073 760.613 534.043 842.502 478.037 864.515C422.031 886.528 312.049 848.666 262.79 878.163C213.531 907.661 224.995 1004.52 230.727 1052.95L236.459 1101.38" stroke="url(#paint34_linear_148_8)" stroke-opacity="0.45"/>
<path opacity="0.437186" d="M722.463 623.884L691.523 631.715C660.584 639.545 598.704 655.206 567.709 704.335C536.714 753.463 536.604 836.059 481.588 859.158C426.572 882.256 316.65 845.856 268.497 876.392C220.344 906.927 233.96 1004.4 240.768 1053.13L247.577 1101.87" stroke="url(#paint35_linear_148_8)" stroke-opacity="0.45"/>
<path opacity="0.442211" d="M718.491 612.703L687.998 621.097C657.504 629.491 596.517 646.28 566.929 696.313C537.34 746.347 539.15 829.625 485.14 853.801C431.13 877.978 321.301 843.052 274.269 874.617C227.237 906.181 243.002 1004.23 250.884 1053.26L258.766 1102.29" stroke="url(#paint36_linear_148_8)" stroke-opacity="0.45"/>
<path opacity="0.447236" d="M714.448 601.594L684.41 610.55C654.372 619.506 594.296 637.417 566.122 688.34C537.949 739.263 541.678 823.197 488.691 848.445C435.705 873.692 326.002 840.251 280.105 872.834C234.208 905.418 252.116 1004.02 261.07 1053.33L270.024 1102.63" stroke="url(#paint37_linear_148_8)" stroke-opacity="0.45"/>
<path opacity="0.452261" d="M710.337 590.561L680.763 600.075C651.19 609.59 592.043 628.618 565.293 680.415C538.543 732.212 544.191 816.778 492.243 843.088C440.296 869.398 330.753 837.453 286.005 871.045C241.257 904.637 261.303 1003.77 271.326 1053.33L281.349 1102.9" stroke="url(#paint38_linear_148_8)" stroke-opacity="0.45"/>
<path opacity="0.457286" d="M706.158 579.606L677.058 589.675C647.959 599.745 589.759 619.885 564.441 672.54C539.123 725.195 546.687 810.367 495.795 837.732C444.902 865.097 335.553 834.657 291.967 869.248C248.382 903.839 270.56 1003.46 281.649 1053.27L292.738 1103.08" stroke="url(#paint39_linear_148_8)" stroke-opacity="0.45"/>
<path opacity="0.462312" d="M701.916 568.727L673.298 579.35C644.681 589.972 587.446 611.217 563.568 664.714C539.69 718.212 549.168 803.963 499.346 832.375C449.524 860.787 340.402 831.86 297.992 867.439C255.583 903.019 279.886 1003.1 292.038 1053.15L304.189 1103.19" stroke="url(#paint40_linear_148_8)" stroke-opacity="0.45"/>
<path opacity="0.467337" d="M697.611 557.93L669.485 569.102C641.359 580.274 585.107 602.617 562.676 656.941C540.244 711.264 551.634 797.568 502.898 827.018C454.161 856.468 345.299 829.065 304.078 865.621C262.857 902.178 289.278 1002.7 302.489 1052.95L315.7 1103.21" stroke="url(#paint41_linear_148_8)" stroke-opacity="0.45"/>
<path opacity="0.472362" d="M693.247 547.214L665.621 558.932C637.995 570.649 582.742 594.085 561.764 649.218C540.787 704.351 554.084 791.182 506.449 821.661C458.813 852.14 350.243 826.267 310.224 863.791C270.205 901.314 298.735 1002.23 313.001 1052.69L327.266 1103.15" stroke="url(#paint42_linear_148_8)" stroke-opacity="0.45"/>
<path opacity="0.477387" d="M688.827 536.582L661.709 548.842C634.591 561.102 580.355 585.622 560.837 641.548C541.32 697.474 556.521 784.805 510 816.304C463.48 847.803 355.236 823.47 316.431 861.948C277.625 900.426 308.257 1001.72 323.573 1052.36L338.889 1103.01" stroke="url(#paint43_linear_148_8)" stroke-opacity="0.45"/>
<path opacity="0.482412" d="M684.352 526.036L657.751 538.835C631.149 551.633 577.946 577.23 559.894 633.932C541.843 690.633 558.944 778.439 513.552 810.948C468.16 843.457 360.276 820.67 322.696 860.091C285.115 899.512 317.839 1001.14 334.201 1051.96L350.563 1102.77" stroke="url(#paint44_linear_148_8)" stroke-opacity="0.45"/>
<path opacity="0.487437" d="M679.826 515.576L653.748 528.909C627.671 542.243 575.517 568.909 558.937 626.369C542.358 683.829 561.352 772.081 517.103 805.591C472.854 839.1 365.362 817.867 329.019 858.219C292.676 898.571 327.481 1000.51 344.884 1051.48L362.286 1102.45" stroke="url(#paint45_linear_148_8)" stroke-opacity="0.45"/>
<path opacity="0.492462" d="M675.249 505.204L649.704 519.068C624.16 532.932 573.07 560.66 557.967 618.86C542.864 677.061 563.747 765.734 520.655 800.234C477.562 834.733 370.495 815.059 335.399 856.331C300.304 897.602 337.18 999.818 355.619 1050.93L374.057 1102.03" stroke="url(#paint46_linear_148_8)" stroke-opacity="0.45"/>
<path opacity="0.497487" d="M670.625 494.922L645.621 509.313C620.616 523.703 570.608 552.484 556.986 611.408C543.364 670.331 566.128 759.398 524.206 794.877C482.283 830.356 375.673 812.248 341.836 854.426C307.999 896.603 346.936 999.067 366.404 1050.3L385.872 1101.53" stroke="url(#paint47_linear_148_8)" stroke-opacity="0.45"/>
<path opacity="0.502513" d="M665.957 484.732L641.501 499.644C617.044 514.557 568.131 544.382 555.995 604.01C543.858 663.639 568.498 753.072 527.757 789.52C487.017 825.968 380.897 809.431 348.329 852.502C315.761 895.573 356.745 998.252 377.238 1049.59L397.73 1100.93" stroke="url(#paint48_linear_148_8)" stroke-opacity="0.45"/>
<path opacity="0.507538" d="M661.246 474.634L637.345 490.064C613.444 505.494 565.642 536.354 554.995 596.67C544.347 656.986 570.854 746.757 531.308 784.163C491.763 821.569 386.165 806.609 354.876 850.56C323.587 894.511 366.607 997.375 388.117 1048.81L409.627 1100.24" stroke="url(#paint49_linear_148_8)" stroke-opacity="0.45"/>
<path opacity="0.512563" d="M656.497 464.631L633.158 480.574C609.82 496.517 563.143 528.402 553.988 589.387C544.832 650.371 573.199 740.454 534.86 778.806C496.521 817.158 391.477 803.779 361.477 848.597C331.476 893.416 376.519 996.432 399.04 1047.94L421.561 1099.45" stroke="url(#paint50_linear_148_8)" stroke-opacity="0.45"/>
<path opacity="0.517588" d="M651.709 454.723L628.94 471.174C606.171 487.625 560.634 520.526 552.974 582.161C545.314 643.795 575.531 734.162 538.41 773.449C501.29 812.736 396.833 800.941 368.13 846.613C339.427 892.285 386.478 995.422 410.003 1046.99L433.529 1098.56" stroke="url(#paint51_linear_148_8)" stroke-opacity="0.45"/>
<path opacity="0.522613" d="M646.888 444.913L624.696 461.866C602.504 478.82 558.12 512.727 551.957 574.993C545.794 637.259 577.852 727.883 541.962 768.092C506.072 808.301 402.232 798.096 374.836 844.607C347.439 891.118 396.484 994.346 421.007 1045.96L445.53 1097.57" stroke="url(#paint52_linear_148_8)" stroke-opacity="0.45"/>
<path opacity="0.527638" d="M642.034 435.201L620.425 452.652C598.817 470.104 555.6 505.007 550.936 567.885C546.273 630.763 580.163 721.616 545.513 762.736C510.864 803.855 407.674 795.241 381.592 842.578C355.51 889.914 406.535 993.201 432.047 1044.84L457.56 1096.49" stroke="url(#paint53_linear_148_8)" stroke-opacity="0.45"/>
<path opacity="0.532663" d="M637.15 425.588L616.132 443.532C595.113 461.476 553.076 497.364 549.913 560.835C546.751 624.306 582.462 715.36 549.064 757.378C515.665 799.395 413.157 792.376 388.398 840.523C363.638 888.67 416.627 991.984 443.122 1043.64L469.616 1095.3" stroke="url(#paint54_linear_148_8)" stroke-opacity="0.45"/>
<path opacity="0.537688" d="M632.24 416.077L611.818 434.508C591.396 452.938 550.552 489.8 548.891 553.845C547.23 617.89 584.752 709.118 552.615 752.021C520.478 794.924 418.682 789.501 395.253 838.444C371.823 887.387 426.76 990.697 454.228 1042.35L481.697 1094.01" stroke="url(#paint55_linear_148_8)" stroke-opacity="0.45"/>
<path opacity="0.542714" d="M627.306 406.668L607.487 425.58C587.667 444.492 548.028 482.317 547.869 546.916C547.71 611.515 587.031 702.889 556.166 746.664C525.3 790.438 424.248 786.614 402.156 836.338C380.063 886.063 436.931 989.336 465.365 1040.97L493.799 1092.61" stroke="url(#paint56_linear_148_8)" stroke-opacity="0.45"/>
<path opacity="0.547739" d="M622.35 397.362L603.139 416.75C583.929 436.138 545.507 474.913 546.85 540.047C548.194 605.181 589.302 696.673 559.717 741.306C530.132 785.94 429.854 783.714 409.106 834.205C388.357 884.695 447.139 987.902 476.53 1039.51L505.92 1091.11" stroke="url(#paint57_linear_148_8)" stroke-opacity="0.45"/>
<path opacity="0.552764" d="M617.375 388.161L598.779 408.019C580.182 427.876 542.99 467.592 545.835 533.24C548.68 598.889 591.563 690.471 563.268 735.949C534.973 781.428 435.499 780.802 416.101 832.044C396.703 883.285 457.381 986.393 487.719 1037.95L518.058 1089.5" stroke="url(#paint58_linear_148_8)" stroke-opacity="0.45"/>
<path opacity="0.557789" d="M612.384 379.066L594.408 399.387C576.432 419.709 540.48 460.351 544.826 526.495C549.172 592.638 593.816 684.283 566.819 730.592C539.822 776.902 441.184 777.877 423.142 829.853C405.1 881.829 467.655 984.807 498.933 1036.3L530.21 1087.79" stroke="url(#paint59_linear_148_8)" stroke-opacity="0.45"/>
<path opacity="0.562814" d="M607.378 370.078L590.027 390.857C572.677 411.636 537.976 453.193 543.822 519.811C549.667 586.429 596.06 678.108 570.369 725.235C544.679 772.361 446.906 774.936 430.226 827.632C413.546 880.327 477.959 983.144 510.165 1034.55L542.372 1085.96" stroke="url(#paint60_linear_148_8)" stroke-opacity="0.45"/>
<path opacity="0.567839" d="M602.361 361.198L585.642 382.428C568.922 403.658 535.484 446.118 542.827 513.191C550.171 580.263 598.297 671.948 573.921 719.878C549.545 767.807 452.666 771.981 437.353 825.38C422.04 878.779 488.291 981.403 521.417 1032.71L554.543 1084.03" stroke="url(#paint61_linear_148_8)" stroke-opacity="0.45"/>
<path opacity="0.572864" d="M597.336 352.428L581.252 374.103C565.169 395.778 533.002 439.127 541.841 506.633C550.681 574.14 600.526 665.803 577.471 714.521C554.417 763.238 458.463 769.01 444.521 823.096C430.58 877.182 498.65 979.582 532.685 1030.78L566.72 1081.98" stroke="url(#paint62_linear_148_8)" stroke-opacity="0.45"/>
<path opacity="0.577889" d="M592.304 343.768L576.861 365.881C561.419 387.994 530.534 432.219 540.866 500.139C551.198 568.059 602.748 659.673 581.022 709.164C559.297 758.655 464.296 766.022 451.73 820.779C439.164 875.535 509.032 977.68 543.966 1028.75L578.9 1079.82" stroke="url(#paint63_linear_148_8)" stroke-opacity="0.45"/>
<path opacity="0.582915" d="M587.269 335.219L572.472 357.763C557.675 380.308 528.082 425.396 539.904 493.708C551.726 562.021 604.963 653.557 584.573 703.806C564.183 754.055 470.165 763.017 458.979 818.427C447.792 873.837 519.436 975.696 555.259 1026.63L591.081 1077.55" stroke="url(#paint64_linear_148_8)" stroke-opacity="0.45"/>
<path opacity="0.58794" d="M582.233 326.782L568.087 349.751C553.94 372.719 525.647 418.656 538.955 487.341C552.263 556.025 607.172 647.456 588.124 698.448C569.076 749.441 476.069 759.993 466.265 816.04C456.462 872.087 529.861 973.628 566.56 1024.4L603.26 1075.17" stroke="url(#paint65_linear_148_8)" stroke-opacity="0.45"/>
<path opacity="0.592965" d="M577.199 318.459L563.707 341.845C550.214 365.231 523.23 412.003 538.02 481.039C552.811 550.074 609.375 641.372 591.674 693.092C573.973 744.811 482.006 756.952 473.589 813.619C465.171 870.286 540.302 971.479 577.868 1022.08L615.433 1072.67" stroke="url(#paint66_linear_148_8)" stroke-opacity="0.45"/>
<path opacity="0.59799" d="M572.169 310.25L559.335 334.046C546.502 357.843 520.835 405.435 537.103 474.801C553.37 544.166 611.573 635.303 595.225 687.734C578.877 740.165 487.977 753.89 480.948 811.16C473.919 868.429 550.759 969.243 589.18 1019.65L627.6 1070.06" stroke="url(#paint67_linear_148_8)" stroke-opacity="0.45"/>
<path opacity="0.603015" d="M567.147 302.155L554.976 326.355C542.804 350.554 518.462 398.954 536.203 468.627C553.943 538.301 613.766 629.25 598.776 682.377C583.786 735.504 493.982 750.809 488.343 808.663C482.704 866.518 561.231 966.922 600.494 1017.12L639.757 1067.33" stroke="url(#paint68_linear_148_8)" stroke-opacity="0.45"/>
<path opacity="0.60804" d="M562.133 294.176L550.628 318.772C539.123 343.367 516.113 392.558 535.321 462.519C554.529 532.48 615.954 623.213 602.326 677.019C588.698 730.826 500.016 747.706 495.77 806.128C491.523 864.55 571.712 964.514 611.806 1014.5L651.901 1064.48" stroke="url(#paint69_linear_148_8)" stroke-opacity="0.45"/>
<path opacity="0.613065" d="M557.132 286.315L546.297 311.298C535.461 336.282 513.791 386.249 534.46 456.476C555.129 526.704 618.138 617.192 605.877 671.662C593.615 726.131 506.083 744.582 503.23 803.554C500.378 862.525 582.204 962.018 623.117 1011.76L664.03 1061.51" stroke="url(#paint70_linear_148_8)" stroke-opacity="0.45"/>
<path opacity="0.61809" d="M552.145 278.57L541.983 303.934C531.821 329.298 511.497 380.026 533.621 450.499C555.745 520.972 620.318 611.188 609.427 666.304C598.536 721.42 512.18 741.435 510.722 800.939C509.263 860.442 592.702 959.434 634.422 1008.93L676.141 1058.43" stroke="url(#paint71_linear_148_8)" stroke-opacity="0.45"/>
<path opacity="0.623116" d="M547.177 270.944L537.691 296.681C528.205 322.418 509.233 373.892 532.805 444.588C556.378 515.284 622.496 605.201 612.978 660.947C603.46 716.693 518.307 738.266 518.244 798.284C518.18 858.301 603.207 956.761 645.72 1005.99L688.233 1055.22" stroke="url(#paint72_linear_148_8)" stroke-opacity="0.45"/>
<path opacity="0.628141" d="M542.228 263.436L533.421 289.538C524.614 315.64 507 367.845 532.014 438.742C557.028 509.64 624.67 599.232 616.528 655.59C608.387 711.948 524.463 735.074 525.794 795.586C527.126 856.099 613.714 953.998 657.007 1002.95L700.301 1051.9" stroke="url(#paint73_linear_148_8)" stroke-opacity="0.45"/>
<path opacity="0.633166" d="M537.302 256.048L529.176 282.507C521.051 308.966 504.8 361.885 531.248 432.963C557.695 504.041 626.841 593.278 620.078 650.232C613.316 707.186 530.646 731.857 533.372 792.846C536.098 853.836 624.221 951.144 668.282 999.798L712.344 1048.45" stroke="url(#paint74_linear_148_8)" stroke-opacity="0.45"/>
<path opacity="0.638191" d="M532.401 248.779L524.959 275.587C517.518 302.396 502.635 356.012 530.508 427.249C558.381 498.486 629.01 587.342 623.629 644.875C618.247 702.407 536.856 728.615 540.976 790.062C545.096 851.51 634.727 948.198 679.542 996.542L724.358 1044.89" stroke="url(#paint75_linear_148_8)" stroke-opacity="0.45"/>
<path opacity="0.643216" d="M527.527 241.631L520.773 268.78C514.018 295.93 500.508 350.228 529.798 421.602C559.088 492.975 631.178 581.424 627.179 639.517C623.18 697.61 543.093 725.347 548.606 787.234C554.118 849.122 645.23 945.159 690.786 993.178L736.342 1041.2" stroke="url(#paint76_linear_148_8)" stroke-opacity="0.45"/>
<path opacity="0.648241" d="M522.685 234.605L516.618 262.087C510.552 289.569 498.419 344.532 529.117 416.021C559.815 487.51 633.344 575.524 630.729 634.16C628.115 692.795 549.356 722.054 556.259 784.362C563.162 846.67 655.727 942.028 702.01 989.707L748.292 1037.39" stroke="url(#paint77_linear_148_8)" stroke-opacity="0.45"/>
<path opacity="0.653266" d="M517.875 227.7L512.499 255.507C507.123 283.313 496.371 338.925 528.467 410.507C560.564 482.089 635.51 569.641 634.28 628.802C633.05 687.963 555.644 718.733 563.935 781.443C572.227 844.153 666.217 938.803 713.212 986.128L760.207 1033.45" stroke="url(#paint78_linear_148_8)" stroke-opacity="0.45"/>
<path opacity="0.658291" d="M513.1 220.918L508.416 249.04C503.732 277.162 494.364 333.406 527.85 405.059C561.335 476.713 637.675 563.777 637.83 623.445C637.985 683.113 561.955 715.386 571.633 778.479C581.311 841.571 676.697 935.484 724.39 982.44L772.083 1029.4" stroke="url(#paint79_linear_148_8)" stroke-opacity="0.45"/>
<path opacity="0.663317" d="M508.363 214.258L504.373 242.687C500.382 271.116 492.4 327.974 527.265 399.678C562.13 471.381 639.84 557.93 641.38 618.087C642.92 678.244 568.289 712.01 579.35 775.466C590.411 838.922 687.165 932.069 735.541 978.642L783.918 1025.22" stroke="url(#paint80_linear_148_8)" stroke-opacity="0.45"/>
<path opacity="0.668342" d="M503.667 207.721L500.371 236.449C497.075 265.177 490.483 322.632 526.715 394.363C562.948 466.095 642.006 552.102 644.93 612.73C647.855 673.358 574.646 708.606 587.087 772.406C599.528 836.206 697.619 928.559 746.665 974.735L795.71 1020.91" stroke="url(#paint81_linear_148_8)" stroke-opacity="0.45"/>
<path opacity="0.673367" d="M499.014 201.308L496.414 230.325C493.813 259.343 488.612 317.378 526.202 389.115C563.792 460.853 644.172 546.292 648.48 607.372C652.789 668.452 581.024 705.172 594.841 769.297C608.658 833.422 708.057 924.952 757.757 970.717L807.456 1016.48" stroke="url(#paint82_linear_148_8)" stroke-opacity="0.45"/>
<path opacity="0.678392" d="M494.406 195.018L492.502 224.316C490.598 253.614 486.79 312.211 525.725 383.933C564.661 455.655 646.34 540.501 652.03 602.015C657.721 663.528 587.422 701.709 602.611 766.139C617.8 830.569 718.477 921.248 768.815 966.588L819.153 1011.93" stroke="url(#paint83_linear_148_8)" stroke-opacity="0.45"/>
<path opacity="0.683417" d="M489.847 188.851L488.639 218.422C487.432 247.992 485.018 307.133 525.287 378.817C565.557 450.501 648.51 534.728 655.581 596.657C662.651 658.585 593.84 698.214 610.396 762.93C626.953 827.646 728.876 917.448 779.838 962.348L830.8 1007.25" stroke="url(#paint84_linear_148_8)" stroke-opacity="0.45"/>
<path opacity="0.688442" d="M485.337 182.81L484.827 212.643C484.317 242.477 483.298 302.144 524.888 373.769C566.479 445.393 650.681 528.975 659.13 591.299C667.58 653.624 600.277 694.69 618.195 759.672C636.113 824.653 739.253 913.55 790.823 957.998L842.392 1002.45" stroke="url(#paint85_linear_148_8)" stroke-opacity="0.45"/>
<path opacity="0.693467" d="M480.881 176.893L481.068 206.98C481.256 237.068 481.631 297.242 524.531 368.786C567.431 440.329 652.855 523.241 662.68 585.942C672.506 648.643 606.732 691.134 626.007 756.361C645.282 821.589 749.606 909.553 801.768 953.535L853.93 997.517" stroke="url(#paint86_linear_148_8)" stroke-opacity="0.45"/>
<path opacity="0.698492" d="M476.48 171.1L477.365 201.432C478.25 231.764 480.02 292.429 524.216 363.869C568.411 435.309 655.032 517.525 666.23 580.584C677.428 643.643 613.204 687.545 633.83 752.999C654.456 818.453 759.932 905.458 812.671 948.96L865.409 992.463" stroke="url(#paint87_linear_148_8)" stroke-opacity="0.45"/>
<path opacity="0.703518" d="M472.136 165.432L473.719 195.999C475.301 226.567 478.465 287.703 523.943 359.018C569.421 430.333 657.213 511.829 669.78 575.226C682.348 638.624 619.691 683.924 641.662 749.584C663.632 815.244 770.23 901.264 823.528 944.273L876.827 987.283" stroke="url(#paint88_linear_148_8)" stroke-opacity="0.45"/>
<path opacity="0.708543" d="M467.853 159.889L470.132 190.683C472.411 221.477 476.969 283.065 523.716 354.233C570.462 425.402 659.397 506.152 673.33 569.869C687.263 633.586 626.195 680.271 649.503 746.117C672.811 811.963 780.497 896.97 834.339 939.474L888.182 981.978" stroke="url(#paint89_linear_148_8)" stroke-opacity="0.45"/>
<path opacity="0.713568" d="M463.633 154.47L466.608 185.481C469.583 216.492 475.533 278.513 523.533 349.514C571.534 420.515 661.585 500.494 676.88 564.511C692.174 628.528 632.712 676.583 657.351 742.595C681.99 808.607 790.731 892.577 845.101 934.562L899.472 976.547" stroke="url(#paint90_linear_148_8)" stroke-opacity="0.45"/>
<path opacity="0.718593" d="M459.477 149.177L463.147 180.395C466.817 211.613 474.157 274.05 523.397 344.86C572.638 415.671 663.778 494.856 680.429 559.153C697.081 623.451 639.243 672.861 665.205 739.019C691.167 805.178 800.93 888.084 855.812 929.538L910.693 970.991" stroke="url(#paint91_linear_148_8)" stroke-opacity="0.45"/>
<path opacity="0.723618" d="M455.389 144.009L459.753 175.425C464.117 206.841 472.845 269.673 523.31 340.272C573.775 410.872 665.976 489.238 683.979 553.796C701.982 618.354 645.786 669.105 673.064 735.389C700.342 801.674 811.093 883.492 866.469 924.401L921.845 965.31" stroke="url(#paint92_linear_148_8)" stroke-opacity="0.45"/>
<path opacity="0.728643" d="M451.37 138.964L456.427 170.569C461.483 202.173 471.596 265.382 523.271 335.749C574.945 406.115 668.18 483.638 687.529 548.438C706.878 613.237 652.341 665.313 680.926 731.703C709.511 798.093 821.217 878.797 877.07 919.15L932.924 959.502" stroke="url(#paint93_linear_148_8)" stroke-opacity="0.45"/>
<path opacity="0.733668" d="M447.423 134.046L453.171 165.829C458.919 197.612 470.414 261.178 523.282 331.29C576.15 401.402 670.39 478.06 691.079 543.08C711.768 608.101 658.907 661.486 688.79 727.961C718.673 794.437 831.301 874.003 887.615 913.787L943.928 953.57" stroke="url(#paint94_linear_148_8)" stroke-opacity="0.45"/>
<path opacity="0.738693" d="M443.55 129.251L449.987 161.204C456.424 193.156 469.299 257.06 523.344 326.896C577.389 396.733 672.605 472.5 694.628 537.723C716.651 602.946 665.482 657.623 696.654 724.164C727.827 790.704 841.341 869.109 898.098 908.311L954.855 947.513" stroke="url(#paint95_linear_148_8)" stroke-opacity="0.45"/>
<path opacity="0.743719" d="M439.754 124.581L446.879 156.692C454.003 188.804 468.252 253.027 523.458 322.566C578.664 392.105 674.827 466.96 698.178 532.365C721.528 597.769 672.066 653.722 704.518 720.308C736.971 786.894 851.337 864.112 908.52 902.721L965.703 941.33" stroke="url(#paint96_linear_148_8)" stroke-opacity="0.45"/>
<path opacity="0.748744" d="M436.036 120.035L443.846 152.296C451.656 184.557 467.275 249.079 523.625 318.3C579.976 387.521 677.057 461.441 701.727 527.007C726.398 592.574 678.658 649.786 712.38 716.397C746.102 783.007 861.286 859.015 918.878 897.019L976.47 935.024" stroke="url(#paint97_linear_148_8)" stroke-opacity="0.45"/>
<path opacity="0.753769" d="M432.4 115.614L440.892 148.014C449.385 180.415 466.37 245.216 523.847 314.098C581.324 382.98 679.294 455.942 705.277 521.65C731.26 587.358 685.258 645.812 720.239 712.427C755.221 779.042 871.187 853.817 929.169 891.205L987.152 928.593" stroke="url(#paint98_linear_148_8)" stroke-opacity="0.45"/>
<path opacity="0.758794" d="M428.846 111.316L438.019 143.846C447.192 176.377 465.537 241.438 524.124 309.959C582.711 378.481 681.538 450.462 708.826 516.292C736.114 582.122 691.863 641.8 728.093 708.399C764.324 774.998 881.036 848.518 939.393 885.278L997.749 922.038" stroke="url(#paint99_linear_148_8)" stroke-opacity="0.45"/>
<path opacity="0.763819" d="M425.378 107.141L435.228 139.791C445.079 172.442 464.779 237.742 524.457 305.883C584.136 374.023 683.792 445.003 712.376 510.935C740.961 576.866 698.474 637.75 735.942 704.313C773.41 770.876 890.834 843.117 949.546 879.238L1008.26 915.359" stroke="url(#paint100_linear_148_8)" stroke-opacity="0.45"/>
<path opacity="0.768844" d="M421.997 103.088L432.522 135.849C443.046 168.609 464.096 234.13 524.847 301.868C585.599 369.607 686.053 439.563 715.925 505.576C745.797 571.59 705.088 633.661 743.783 700.167C782.477 766.673 900.577 837.615 959.627 873.086L1018.68 908.557" stroke="url(#paint101_linear_148_8)" stroke-opacity="0.45"/>
<path opacity="0.773869" d="M418.705 99.1594L429.901 132.02C441.097 164.88 463.489 230.601 525.296 297.917C587.103 365.233 688.324 434.144 719.475 500.219C750.625 566.294 711.706 629.533 751.615 695.963C791.525 762.392 910.264 832.013 969.633 866.823L1029 901.633" stroke="url(#paint102_linear_148_8)" stroke-opacity="0.45"/>
<path opacity="0.778894" d="M415.506 95.3525L427.369 128.303C439.233 161.253 462.961 227.154 525.804 294.026C588.646 360.899 690.604 428.744 723.024 494.861C755.444 560.978 718.326 625.366 759.438 691.698C800.55 758.031 919.892 826.308 979.563 860.447L1039.23 894.586" stroke="url(#paint103_linear_148_8)" stroke-opacity="0.45"/>
<path opacity="0.78392" d="M412.399 91.6674L424.928 124.698C437.456 157.728 462.512 223.788 526.371 290.198C590.231 356.607 692.894 423.366 726.573 489.504C760.252 555.642 724.947 621.159 767.25 687.375C809.552 753.59 929.461 820.504 989.416 853.961L1049.37 887.417" stroke="url(#paint104_linear_148_8)" stroke-opacity="0.45"/>
<path opacity="0.788945" d="M409.389 88.1026L422.577 121.203C435.766 154.303 462.142 220.503 527 286.429C591.857 352.355 695.194 418.006 730.122 484.145C765.05 550.285 731.569 616.911 775.048 682.99C818.528 749.068 938.968 814.597 999.187 847.362L1059.41 880.127" stroke="url(#paint105_linear_148_8)" stroke-opacity="0.45"/>
<path opacity="0.79397" d="M406.476 84.6596L420.321 117.819C434.166 150.979 461.856 217.299 527.691 282.721C593.526 348.143 697.506 412.668 733.672 478.788C769.839 544.908 738.191 612.624 782.834 678.545C827.478 744.466 948.411 808.592 1008.88 840.654L1069.34 872.717" stroke="url(#paint106_linear_148_8)" stroke-opacity="0.45"/>
<path opacity="0.798995" d="M403.663 81.3361L418.16 114.546C432.657 147.755 461.651 214.174 528.443 279.073C595.236 343.971 699.827 407.349 737.221 473.43C774.615 539.512 744.811 608.296 790.604 674.039C836.398 739.782 957.788 802.485 1018.48 833.836L1079.18 865.187" stroke="url(#paint107_linear_148_8)" stroke-opacity="0.45"/>
<path opacity="0.80402" d="M400.951 78.1316L416.096 111.381C431.241 144.63 461.53 211.128 529.26 275.483C596.99 339.838 702.161 402.05 740.77 468.072C779.38 534.094 751.429 603.926 798.359 669.472C845.288 735.017 967.099 796.277 1028 826.907L1088.91 857.536" stroke="url(#paint108_linear_148_8)" stroke-opacity="0.45"/>
<path opacity="0.809045" d="M398.343 75.0468L414.131 108.325C429.919 141.604 461.495 208.161 530.142 271.953C598.788 335.745 704.506 396.772 744.32 462.715C784.134 528.658 758.044 599.516 806.095 664.844C854.147 730.172 976.341 789.97 1037.44 819.869L1098.53 849.769" stroke="url(#paint109_linear_148_8)" stroke-opacity="0.45"/>
<path opacity="0.81407" d="M395.84 72.0794L412.267 105.377C428.693 138.675 461.545 205.271 531.088 268.48C600.63 331.69 706.863 391.514 747.869 457.357C788.875 523.2 764.654 595.063 813.813 660.154C862.972 725.245 985.511 783.563 1046.78 812.723L1108.05 841.882" stroke="url(#paint110_linear_148_8)" stroke-opacity="0.45"/>
<path opacity="0.819095" d="M393.445 69.2299L410.504 102.537C427.564 135.844 461.683 202.458 532.1 265.066C602.517 327.674 709.233 386.276 751.418 451.999C793.603 517.723 771.259 590.569 821.511 655.402C871.762 720.236 994.61 777.057 1056.03 805.468L1117.46 833.879" stroke="url(#paint111_linear_148_8)" stroke-opacity="0.45"/>
<path opacity="0.824121" d="M391.158 66.4969L408.846 99.8029C426.533 133.109 461.909 199.721 533.179 261.708C604.45 323.695 711.615 381.058 754.967 446.642C798.319 512.226 777.858 586.033 829.187 650.589C880.516 715.146 1003.63 770.453 1065.19 798.106L1126.75 825.759" stroke="url(#paint112_linear_148_8)" stroke-opacity="0.45"/>
<path opacity="0.829146" d="M388.982 63.8796L407.293 97.1745C425.603 130.469 462.224 197.059 534.326 258.407C606.428 319.754 714.011 375.86 758.516 441.284C803.022 506.709 784.45 581.454 836.841 645.714C889.231 709.973 1012.58 763.749 1074.26 790.637L1135.93 817.524" stroke="url(#paint113_linear_148_8)" stroke-opacity="0.45"/>
<path opacity="0.834171" d="M386.919 61.3771L405.846 94.6507C424.774 127.924 462.629 194.471 535.541 255.161C608.452 315.85 716.419 370.681 762.065 435.927C807.711 501.172 791.034 576.832 844.47 640.775C897.906 704.719 1021.45 756.947 1083.23 783.06L1145 809.174" stroke="url(#paint114_linear_148_8)" stroke-opacity="0.45"/>
<path opacity="0.839196" d="M384.97 58.9886L404.509 92.2308C424.048 125.473 463.126 191.957 536.825 251.97C610.524 311.982 718.843 365.522 765.614 430.569C812.386 495.615 797.61 572.167 852.075 635.775C906.54 699.383 1030.25 750.047 1092.1 775.379L1153.95 800.711" stroke="url(#paint115_linear_148_8)" stroke-opacity="0.45"/>
<path opacity="0.844221" d="M383.137 56.7132L403.281 89.9139C423.426 123.115 463.715 189.516 538.179 248.833C612.642 308.15 721.28 360.384 769.163 425.211C817.047 490.038 804.175 567.459 859.653 630.712C915.131 693.965 1038.96 743.049 1100.87 767.592L1162.78 792.134" stroke="url(#paint116_linear_148_8)" stroke-opacity="0.45"/>
<path opacity="0.849246" d="M381.421 54.5509L402.165 87.6999C422.909 120.849 464.397 187.147 539.602 245.751C614.808 304.355 723.731 355.265 772.712 419.854C821.693 484.442 810.73 562.708 867.203 625.587C923.677 688.465 1047.59 735.956 1109.54 759.701L1171.5 783.447" stroke="url(#paint117_linear_148_8)" stroke-opacity="0.45"/>
<path opacity="0.854271" d="M379.825 52.4993L401.162 85.5866C422.498 118.674 465.172 184.848 541.097 242.721C617.022 300.595 726.198 350.166 776.261 414.496C826.324 478.826 817.273 557.914 874.725 620.399C932.177 682.884 1056.13 728.766 1118.11 751.707L1180.09 774.648" stroke="url(#paint118_linear_148_8)" stroke-opacity="0.45"/>
<path opacity="0.859297" d="M378.349 50.5575L400.272 83.573C422.195 116.588 466.042 182.619 542.663 239.744C619.284 296.868 728.68 345.086 779.809 409.138C830.939 473.19 823.804 553.075 882.217 615.147C940.63 677.22 1064.59 721.48 1126.57 743.609L1188.55 765.739" stroke="url(#paint119_linear_148_8)" stroke-opacity="0.45"/>
<path opacity="0.864322" d="M376.995 48.7254L399.499 81.659C422.002 114.593 467.008 180.46 544.302 236.818C621.596 293.176 731.177 340.026 783.358 403.78C835.54 467.534 830.321 548.193 889.677 609.834C949.034 671.475 1072.96 714.098 1134.93 735.41L1196.9 756.722" stroke="url(#paint120_linear_148_8)" stroke-opacity="0.45"/>
<path opacity="0.869347" d="M375.766 47.0015L398.842 79.8431C421.918 112.685 468.071 178.368 546.014 233.943C623.957 289.518 733.691 334.985 786.908 398.423C840.124 461.86 836.824 543.267 897.106 604.457C957.387 665.648 1081.25 706.623 1143.18 727.11L1205.11 747.597" stroke="url(#paint121_linear_148_8)" stroke-opacity="0.45"/>
<path opacity="0.874372" d="M374.662 45.3847L398.304 78.1245C421.946 110.864 469.23 176.344 547.798 231.119C626.367 285.894 736.22 329.964 790.456 393.065C844.693 456.166 843.312 538.297 904.5 599.019C965.689 659.74 1089.45 699.054 1151.32 718.71L1213.2 738.367" stroke="url(#paint122_linear_148_8)" stroke-opacity="0.45"/>
<path opacity="0.879397" d="M373.684 43.8742L397.885 76.502C422.085 109.13 470.487 174.386 549.657 228.344C628.827 282.302 738.766 324.963 794.005 387.708C849.244 450.453 849.784 533.282 911.86 593.517C973.937 653.752 1097.55 691.391 1159.36 710.211L1221.16 729.031" stroke="url(#paint123_linear_148_8)" stroke-opacity="0.45"/>
<path opacity="0.884422" d="M372.834 42.4677L397.586 74.9737C422.338 107.48 471.842 172.492 551.59 225.617C631.338 278.742 741.328 319.98 797.553 382.35C853.779 444.72 856.238 528.223 919.184 587.952C982.129 647.681 1105.56 683.636 1167.28 701.613L1228.99 719.591" stroke="url(#paint124_linear_148_8)" stroke-opacity="0.45"/>
<path opacity="0.889447" d="M372.113 41.1648L397.409 73.5391C422.705 105.913 473.297 170.662 553.598 222.937C633.899 275.213 743.908 315.015 801.102 376.992C858.296 438.969 862.675 523.12 926.471 582.325C990.266 641.53 1113.48 675.789 1175.09 692.918L1236.69 710.048" stroke="url(#paint125_linear_148_8)" stroke-opacity="0.45"/>
<path opacity="0.894472" d="M371.524 39.9646L397.356 72.1973C423.188 104.43 474.852 168.895 555.682 220.305C636.511 271.716 746.506 310.07 804.651 371.635C862.797 433.199 869.093 517.972 933.719 576.636C998.346 635.299 1121.3 667.851 1182.78 684.127L1244.26 700.404" stroke="url(#paint126_linear_148_8)" stroke-opacity="0.45"/>
<path opacity="0.899498" d="M371.066 38.8652L397.426 70.9465C423.787 103.028 476.508 167.19 557.841 217.719C639.175 268.249 749.121 305.144 808.2 366.277C867.279 427.41 875.491 512.78 940.929 570.883C1006.37 628.987 1129.03 659.823 1190.36 675.241L1251.69 690.659" stroke="url(#paint127_linear_148_8)" stroke-opacity="0.45"/>
<path opacity="0.904523" d="M370.741 37.8655L397.622 69.7856C424.502 101.706 478.263 165.546 560.076 215.179C641.889 264.811 751.754 300.236 811.748 360.919C871.743 421.602 881.869 507.543 948.097 565.069C1014.33 622.594 1136.66 651.705 1197.82 666.26L1258.99 680.816" stroke="url(#paint128_linear_148_8)" stroke-opacity="0.45"/>
<path opacity="0.909548" d="M370.55 36.9648L397.943 68.714C425.335 100.463 480.121 163.962 562.388 212.683C644.655 261.404 754.404 295.348 815.297 355.562C876.189 415.777 888.225 502.262 955.224 559.193C1022.22 616.123 1144.19 643.5 1205.17 657.188L1266.15 670.876" stroke="url(#paint129_linear_148_8)" stroke-opacity="0.45"/>
<path opacity="0.914573" d="M370.496 36.1609L398.392 67.7295C426.288 99.2981 482.081 162.435 564.777 210.23C647.474 258.025 757.075 290.477 818.846 350.205C880.617 409.933 894.559 496.936 962.309 553.254C1030.06 609.573 1151.62 635.206 1212.4 648.023L1273.17 660.839" stroke="url(#paint130_linear_148_8)" stroke-opacity="0.45"/>
<path opacity="0.919598" d="M370.577 35.4519L398.969 66.8303C427.36 98.2087 484.143 160.966 567.244 207.819C650.345 254.673 759.763 285.624 822.394 344.847C885.026 404.07 900.87 491.565 969.35 547.253C1037.83 602.942 1158.94 626.825 1219.5 638.766L1280.06 650.708" stroke="url(#paint131_linear_148_8)" stroke-opacity="0.45"/>
<path opacity="0.924623" d="M370.796 34.8377L399.674 66.0164C428.552 97.1951 486.308 159.552 569.788 205.451C653.267 251.35 762.47 280.789 825.943 339.489C889.415 398.189 907.157 486.149 976.346 541.191C1045.53 596.234 1166.17 618.358 1226.49 629.421L1286.81 640.483" stroke="url(#paint132_linear_148_8)" stroke-opacity="0.45"/>
<path opacity="0.929648" d="M371.154 34.316L400.51 65.2854C429.866 96.2548 488.577 158.194 572.41 203.123C656.243 248.052 765.197 275.972 829.491 334.131C893.785 392.29 913.419 480.688 983.296 535.067C1053.17 589.446 1173.29 609.807 1233.35 619.987L1293.41 630.167" stroke="url(#paint133_linear_148_8)" stroke-opacity="0.45"/>
<path opacity="0.934673" d="M371.651 33.8862L401.476 64.6369C431.301 95.3877 490.95 156.889 575.11 200.836C659.271 244.782 767.944 271.174 833.04 328.774C898.136 386.374 919.656 475.184 990.199 528.883C1060.74 582.582 1180.31 601.171 1240.09 610.466L1299.88 619.761" stroke="url(#paint134_linear_148_8)" stroke-opacity="0.45"/>
<path opacity="0.939699" d="M372.289 33.5464L402.574 64.0691C432.858 94.5918 493.426 155.637 577.89 198.587C662.353 241.538 770.71 266.393 836.588 323.417C902.467 380.441 925.867 469.635 997.055 522.638C1068.24 575.641 1187.22 592.454 1246.71 600.86L1306.2 609.266" stroke="url(#paint135_linear_148_8)" stroke-opacity="0.45"/>
<path opacity="0.944724" d="M373.069 33.2941L403.803 63.5795C434.538 93.8648 496.008 154.435 580.747 196.376C665.487 238.317 773.496 261.628 840.137 318.059C906.778 374.49 932.05 464.04 1003.86 516.331C1075.67 568.622 1194.02 583.653 1253.2 591.168L1312.38 598.684" stroke="url(#paint136_linear_148_8)" stroke-opacity="0.45"/>
<path opacity="0.949749" d="M373.99 33.1296L405.166 63.1684C436.342 93.2072 498.694 153.285 583.684 194.203C668.674 235.122 776.303 256.882 843.686 312.702C911.068 368.522 938.205 458.402 1010.62 509.965C1083.03 561.527 1200.72 574.772 1259.57 581.395L1318.41 588.017" stroke="url(#paint137_linear_148_8)" stroke-opacity="0.45"/>
<path opacity="0.954774" d="M375.055 33.0493L406.662 62.8323C438.27 92.6154 501.485 152.181 586.7 192.066C671.915 231.95 779.13 252.152 847.234 307.344C915.338 362.537 944.331 452.719 1017.32 503.538C1090.32 554.356 1207.31 565.811 1265.81 571.538L1324.3 577.266" stroke="url(#paint138_linear_148_8)" stroke-opacity="0.45"/>
<path opacity="0.959799" d="M376.263 33.0533L408.293 62.5716C440.322 92.0898 504.381 151.126 589.795 189.964C675.209 228.801 781.977 247.44 850.782 301.987C919.587 356.535 950.428 446.992 1023.98 497.052C1097.53 547.111 1213.79 556.772 1271.92 561.602L1330.05 566.433" stroke="url(#paint139_linear_148_8)" stroke-opacity="0.45"/>
<path opacity="0.964824" d="M377.616 33.1388L410.058 62.3833C442.499 91.6277 507.383 150.117 592.97 187.895C678.556 225.674 784.846 242.743 854.33 296.63C923.815 350.516 956.494 441.221 1030.58 490.506C1104.66 539.79 1220.15 547.654 1277.9 551.586L1335.65 555.519" stroke="url(#paint140_linear_148_8)" stroke-opacity="0.45"/>
<path opacity="0.969849" d="M379.114 33.3044L411.958 62.2662C444.803 91.228 510.491 149.152 596.224 185.86C681.958 222.569 787.736 238.063 857.879 291.272C928.022 344.481 962.529 435.406 1037.13 483.9C1111.72 532.395 1226.41 538.46 1283.75 541.493L1341.1 544.526" stroke="url(#paint141_linear_148_8)" stroke-opacity="0.45"/>
<path opacity="0.974874" d="M380.758 33.5492L413.994 62.2194C447.231 90.8897 513.704 148.23 599.558 183.858C685.412 219.485 790.647 233.4 861.427 285.915C932.207 338.431 968.532 429.547 1043.62 477.237C1118.71 524.927 1232.55 529.192 1289.48 531.324L1346.4 533.456" stroke="url(#paint142_linear_148_8)" stroke-opacity="0.45"/>
<path opacity="0.9799" d="M382.548 33.8707L416.167 62.2407C449.786 90.6107 517.023 147.351 602.972 181.886C688.92 216.421 793.58 228.752 864.975 280.558C936.371 332.364 974.503 423.644 1050.06 470.515C1125.61 517.387 1238.59 519.849 1295.07 521.08L1351.56 522.311" stroke="url(#paint143_linear_148_8)" stroke-opacity="0.45"/>
<path opacity="0.984925" d="M384.486 34.2668L418.476 62.3279C452.467 90.3891 520.449 146.511 606.466 179.944C692.483 213.377 796.534 224.12 868.524 275.2C940.513 326.28 980.44 417.697 1056.44 463.735C1132.43 509.773 1244.5 510.433 1300.54 510.762L1356.57 511.092" stroke="url(#paint144_linear_148_8)" stroke-opacity="0.45"/>
<path opacity="0.98995" d="M386.57 34.7368L420.923 62.4805C455.275 90.2241 523.98 145.711 610.039 178.031C696.098 210.351 799.511 219.504 872.072 269.843C944.634 320.182 986.344 411.707 1062.76 456.898C1139.18 502.089 1250.3 500.945 1305.87 500.373L1361.43 499.801" stroke="url(#paint145_linear_148_8)" stroke-opacity="0.45"/>
<path opacity="0.994975" d="M388.803 35.2784L423.506 62.6961C458.21 90.1139 527.617 144.949 613.692 176.147C699.767 207.344 802.509 214.903 875.62 264.486C948.732 314.068 992.212 405.675 1069.03 450.004C1145.84 494.334 1255.99 491.387 1311.07 489.914L1366.14 488.44" stroke="url(#paint146_linear_148_8)" stroke-opacity="0.45"/>
<path d="M391.184 35.8895L426.228 62.9731C461.272 90.0566 531.361 144.224 617.425 174.289C703.49 204.354 805.53 210.317 879.169 259.128C952.807 307.939 998.045 399.598 1075.23 443.053C1152.42 486.509 1261.56 481.76 1316.13 479.385L1370.7 477.011" stroke="url(#paint147_linear_148_8)" stroke-opacity="0.45"/>
<defs>
<linearGradient id="paint0_linear_148_8" x1="382.964" y1="1154.17" x2="424.686" y2="958.772" gradientUnits="userSpaceOnUse">
<stop stop-color="#0038FF"/>
<stop offset="1" stop-color="#B620E0"/>
</linearGradient>
<linearGradient id="paint1_linear_148_8" x1="388.796" y1="1149.29" x2="428.201" y2="952.121" gradientUnits="userSpaceOnUse">
<stop stop-color="#0038FF"/>
<stop offset="1" stop-color="#B620E0"/>
</linearGradient>
<linearGradient id="paint2_linear_148_8" x1="394.619" y1="1144.37" x2="431.642" y2="945.416" gradientUnits="userSpaceOnUse">
<stop stop-color="#0038FF"/>
<stop offset="1" stop-color="#B620E0"/>
</linearGradient>
<linearGradient id="paint3_linear_148_8" x1="400.433" y1="1139.42" x2="435.006" y2="938.658" gradientUnits="userSpaceOnUse">
<stop stop-color="#0038FF"/>
<stop offset="1" stop-color="#B620E0"/>
</linearGradient>
<linearGradient id="paint4_linear_148_8" x1="406.237" y1="1134.43" x2="438.288" y2="931.849" gradientUnits="userSpaceOnUse">
<stop stop-color="#0038FF"/>
<stop offset="1" stop-color="#B620E0"/>
</linearGradient>
<linearGradient id="paint5_linear_148_8" x1="412.03" y1="1129.42" x2="441.483" y2="924.989" gradientUnits="userSpaceOnUse">
<stop stop-color="#0038FF"/>
<stop offset="1" stop-color="#B620E0"/>
</linearGradient>
<linearGradient id="paint6_linear_148_8" x1="417.811" y1="1124.37" x2="444.587" y2="918.081" gradientUnits="userSpaceOnUse">
<stop stop-color="#0038FF"/>
<stop offset="1" stop-color="#B620E0"/>
</linearGradient>
<linearGradient id="paint7_linear_148_8" x1="423.581" y1="1119.28" x2="447.596" y2="911.126" gradientUnits="userSpaceOnUse">
<stop stop-color="#0038FF"/>
<stop offset="1" stop-color="#B620E0"/>
</linearGradient>
<linearGradient id="paint8_linear_148_8" x1="429.339" y1="1114.17" x2="450.504" y2="904.128" gradientUnits="userSpaceOnUse">
<stop stop-color="#0038FF"/>
<stop offset="1" stop-color="#B620E0"/>
</linearGradient>
<linearGradient id="paint9_linear_148_8" x1="435.083" y1="1109.01" x2="453.307" y2="897.088" gradientUnits="userSpaceOnUse">
<stop stop-color="#0038FF"/>
<stop offset="1" stop-color="#B620E0"/>
</linearGradient>
<linearGradient id="paint10_linear_148_8" x1="440.813" y1="1103.83" x2="456" y2="890.009" gradientUnits="userSpaceOnUse">
<stop stop-color="#0038FF"/>
<stop offset="1" stop-color="#B620E0"/>
</linearGradient>
<linearGradient id="paint11_linear_148_8" x1="446.528" y1="1098.61" x2="458.578" y2="882.894" gradientUnits="userSpaceOnUse">
<stop stop-color="#0038FF"/>
<stop offset="1" stop-color="#B620E0"/>
</linearGradient>
<linearGradient id="paint12_linear_148_8" x1="452.229" y1="1093.36" x2="461.036" y2="875.745" gradientUnits="userSpaceOnUse">
<stop stop-color="#0038FF"/>
<stop offset="1" stop-color="#B620E0"/>
</linearGradient>
<linearGradient id="paint13_linear_148_8" x1="457.913" y1="1088.07" x2="463.369" y2="868.569" gradientUnits="userSpaceOnUse">
<stop stop-color="#0038FF"/>
<stop offset="1" stop-color="#B620E0"/>
</linearGradient>
<linearGradient id="paint14_linear_148_8" x1="463.58" y1="1082.75" x2="465.572" y2="861.368" gradientUnits="userSpaceOnUse">
<stop stop-color="#0038FF"/>
<stop offset="1" stop-color="#B620E0"/>
</linearGradient>
<linearGradient id="paint15_linear_148_8" x1="469.231" y1="1077.4" x2="467.639" y2="854.147" gradientUnits="userSpaceOnUse">
<stop stop-color="#0038FF"/>
<stop offset="1" stop-color="#B620E0"/>
</linearGradient>
<linearGradient id="paint16_linear_148_8" x1="474.863" y1="1072.01" x2="469.566" y2="846.912" gradientUnits="userSpaceOnUse">
<stop stop-color="#0038FF"/>
<stop offset="1" stop-color="#B620E0"/>
</linearGradient>
<linearGradient id="paint17_linear_148_8" x1="480.477" y1="1066.59" x2="471.348" y2="839.668" gradientUnits="userSpaceOnUse">
<stop stop-color="#0038FF"/>
<stop offset="1" stop-color="#B620E0"/>
</linearGradient>
<linearGradient id="paint18_linear_148_8" x1="486.072" y1="1061.13" x2="472.98" y2="832.419" gradientUnits="userSpaceOnUse">
<stop stop-color="#0038FF"/>
<stop offset="1" stop-color="#B620E0"/>
</linearGradient>
<linearGradient id="paint19_linear_148_8" x1="491.647" y1="1055.64" x2="474.457" y2="825.175" gradientUnits="userSpaceOnUse">
<stop stop-color="#0038FF"/>
<stop offset="1" stop-color="#B620E0"/>
</linearGradient>
<linearGradient id="paint20_linear_148_8" x1="497.201" y1="1050.12" x2="475.774" y2="817.942" gradientUnits="userSpaceOnUse">
<stop stop-color="#0038FF"/>
<stop offset="1" stop-color="#B620E0"/>
</linearGradient>
<linearGradient id="paint21_linear_148_8" x1="502.735" y1="1044.56" x2="476.927" y2="810.727" gradientUnits="userSpaceOnUse">
<stop stop-color="#0038FF"/>
<stop offset="1" stop-color="#B620E0"/>
</linearGradient>
<linearGradient id="paint22_linear_148_8" x1="508.247" y1="1038.97" x2="477.912" y2="803.538" gradientUnits="userSpaceOnUse">
<stop stop-color="#0038FF"/>
<stop offset="1" stop-color="#B620E0"/>
</linearGradient>
<linearGradient id="paint23_linear_148_8" x1="513.737" y1="1033.35" x2="478.726" y2="796.386" gradientUnits="userSpaceOnUse">
<stop stop-color="#0038FF"/>
<stop offset="1" stop-color="#B620E0"/>
</linearGradient>
<linearGradient id="paint24_linear_148_8" x1="519.203" y1="1027.69" x2="479.364" y2="789.278" gradientUnits="userSpaceOnUse">
<stop stop-color="#0038FF"/>
<stop offset="1" stop-color="#B620E0"/>
</linearGradient>
<linearGradient id="paint25_linear_148_8" x1="524.647" y1="1022" x2="479.823" y2="782.227" gradientUnits="userSpaceOnUse">
<stop stop-color="#0038FF"/>
<stop offset="1" stop-color="#B620E0"/>
</linearGradient>
<linearGradient id="paint26_linear_148_8" x1="530.067" y1="1016.28" x2="480.102" y2="775.241" gradientUnits="userSpaceOnUse">
<stop stop-color="#0038FF"/>
<stop offset="1" stop-color="#B620E0"/>
</linearGradient>
<linearGradient id="paint27_linear_148_8" x1="535.462" y1="1010.52" x2="480.199" y2="768.333" gradientUnits="userSpaceOnUse">
<stop stop-color="#0038FF"/>
<stop offset="1" stop-color="#B620E0"/>
</linearGradient>
<linearGradient id="paint28_linear_148_8" x1="540.832" y1="1004.73" x2="480.112" y2="761.514" gradientUnits="userSpaceOnUse">
<stop stop-color="#0038FF"/>
<stop offset="1" stop-color="#B620E0"/>
</linearGradient>
<linearGradient id="paint29_linear_148_8" x1="546.176" y1="998.904" x2="479.841" y2="754.799" gradientUnits="userSpaceOnUse">
<stop stop-color="#0038FF"/>
<stop offset="1" stop-color="#B620E0"/>
</linearGradient>
<linearGradient id="paint30_linear_148_8" x1="551.495" y1="993.048" x2="479.386" y2="748.2" gradientUnits="userSpaceOnUse">
<stop stop-color="#0038FF"/>
<stop offset="1" stop-color="#B620E0"/>
</linearGradient>
<linearGradient id="paint31_linear_148_8" x1="556.786" y1="987.158" x2="478.75" y2="741.729" gradientUnits="userSpaceOnUse">
<stop stop-color="#0038FF"/>
<stop offset="1" stop-color="#B620E0"/>
</linearGradient>
<linearGradient id="paint32_linear_148_8" x1="562.05" y1="981.237" x2="477.934" y2="735.403" gradientUnits="userSpaceOnUse">
<stop stop-color="#0038FF"/>
<stop offset="1" stop-color="#B620E0"/>
</linearGradient>
<linearGradient id="paint33_linear_148_8" x1="567.287" y1="975.283" x2="476.944" y2="729.235" gradientUnits="userSpaceOnUse">
<stop stop-color="#0038FF"/>
<stop offset="1" stop-color="#B620E0"/>
</linearGradient>
<linearGradient id="paint34_linear_148_8" x1="572.495" y1="969.298" x2="475.782" y2="723.241" gradientUnits="userSpaceOnUse">
<stop stop-color="#0038FF"/>
<stop offset="1" stop-color="#B620E0"/>
</linearGradient>
<linearGradient id="paint35_linear_148_8" x1="577.674" y1="963.279" x2="474.457" y2="717.433" gradientUnits="userSpaceOnUse">
<stop stop-color="#0038FF"/>
<stop offset="1" stop-color="#B620E0"/>
</linearGradient>
<linearGradient id="paint36_linear_148_8" x1="582.824" y1="957.229" x2="472.977" y2="711.831" gradientUnits="userSpaceOnUse">
<stop stop-color="#0038FF"/>
<stop offset="1" stop-color="#B620E0"/>
</linearGradient>
<linearGradient id="paint37_linear_148_8" x1="587.944" y1="951.148" x2="471.349" y2="706.447" gradientUnits="userSpaceOnUse">
<stop stop-color="#0038FF"/>
<stop offset="1" stop-color="#B620E0"/>
</linearGradient>
<linearGradient id="paint38_linear_148_8" x1="593.035" y1="945.035" x2="469.586" y2="701.296" gradientUnits="userSpaceOnUse">
<stop stop-color="#0038FF"/>
<stop offset="1" stop-color="#B620E0"/>
</linearGradient>
<linearGradient id="paint39_linear_148_8" x1="598.094" y1="938.892" x2="467.701" y2="696.394" gradientUnits="userSpaceOnUse">
<stop stop-color="#0038FF"/>
<stop offset="1" stop-color="#B620E0"/>
</linearGradient>
<linearGradient id="paint40_linear_148_8" x1="603.122" y1="932.717" x2="465.707" y2="691.752" gradientUnits="userSpaceOnUse">
<stop stop-color="#0038FF"/>
<stop offset="1" stop-color="#B620E0"/>
</linearGradient>
<linearGradient id="paint41_linear_148_8" x1="608.118" y1="926.513" x2="463.621" y2="687.386" gradientUnits="userSpaceOnUse">
<stop stop-color="#0038FF"/>
<stop offset="1" stop-color="#B620E0"/>
</linearGradient>
<linearGradient id="paint42_linear_148_8" x1="613.082" y1="920.277" x2="461.46" y2="683.306" gradientUnits="userSpaceOnUse">
<stop stop-color="#0038FF"/>
<stop offset="1" stop-color="#B620E0"/>
</linearGradient>
<linearGradient id="paint43_linear_148_8" x1="618.015" y1="914.011" x2="459.245" y2="679.524" gradientUnits="userSpaceOnUse">
<stop stop-color="#0038FF"/>
<stop offset="1" stop-color="#B620E0"/>
</linearGradient>
<linearGradient id="paint44_linear_148_8" x1="622.913" y1="907.716" x2="456.996" y2="676.05" gradientUnits="userSpaceOnUse">
<stop stop-color="#0038FF"/>
<stop offset="1" stop-color="#B620E0"/>
</linearGradient>
<linearGradient id="paint45_linear_148_8" x1="627.779" y1="901.392" x2="454.735" y2="672.889" gradientUnits="userSpaceOnUse">
<stop stop-color="#0038FF"/>
<stop offset="1" stop-color="#B620E0"/>
</linearGradient>
<linearGradient id="paint46_linear_148_8" x1="632.611" y1="895.037" x2="452.485" y2="670.048" gradientUnits="userSpaceOnUse">
<stop stop-color="#0038FF"/>
<stop offset="1" stop-color="#B620E0"/>
</linearGradient>
<linearGradient id="paint47_linear_148_8" x1="637.409" y1="888.655" x2="450.271" y2="667.53" gradientUnits="userSpaceOnUse">
<stop stop-color="#0038FF"/>
<stop offset="1" stop-color="#B620E0"/>
</linearGradient>
<linearGradient id="paint48_linear_148_8" x1="642.172" y1="882.243" x2="448.12" y2="665.338" gradientUnits="userSpaceOnUse">
<stop stop-color="#0038FF"/>
<stop offset="1" stop-color="#B620E0"/>
</linearGradient>
<linearGradient id="paint49_linear_148_8" x1="646.9" y1="875.804" x2="446.056" y2="663.469" gradientUnits="userSpaceOnUse">
<stop stop-color="#0038FF"/>
<stop offset="1" stop-color="#B620E0"/>
</linearGradient>
<linearGradient id="paint50_linear_148_8" x1="651.594" y1="869.336" x2="444.106" y2="661.92" gradientUnits="userSpaceOnUse">
<stop stop-color="#0038FF"/>
<stop offset="1" stop-color="#B620E0"/>
</linearGradient>
<linearGradient id="paint51_linear_148_8" x1="656.25" y1="862.84" x2="442.296" y2="660.684" gradientUnits="userSpaceOnUse">
<stop stop-color="#0038FF"/>
<stop offset="1" stop-color="#B620E0"/>
</linearGradient>
<linearGradient id="paint52_linear_148_8" x1="660.872" y1="856.318" x2="440.654" y2="659.753" gradientUnits="userSpaceOnUse">
<stop stop-color="#0038FF"/>
<stop offset="1" stop-color="#B620E0"/>
</linearGradient>
<linearGradient id="paint53_linear_148_8" x1="665.458" y1="849.769" x2="439.203" y2="659.115" gradientUnits="userSpaceOnUse">
<stop stop-color="#0038FF"/>
<stop offset="1" stop-color="#B620E0"/>
</linearGradient>
<linearGradient id="paint54_linear_148_8" x1="670.006" y1="843.192" x2="437.968" y2="658.753" gradientUnits="userSpaceOnUse">
<stop stop-color="#0038FF"/>
<stop offset="1" stop-color="#B620E0"/>
</linearGradient>
<linearGradient id="paint55_linear_148_8" x1="674.518" y1="836.591" x2="436.973" y2="658.654" gradientUnits="userSpaceOnUse">
<stop stop-color="#0038FF"/>
<stop offset="1" stop-color="#B620E0"/>
</linearGradient>
<linearGradient id="paint56_linear_148_8" x1="678.993" y1="829.963" x2="436.239" y2="658.796" gradientUnits="userSpaceOnUse">
<stop stop-color="#0038FF"/>
<stop offset="1" stop-color="#B620E0"/>
</linearGradient>
<linearGradient id="paint57_linear_148_8" x1="683.43" y1="823.309" x2="435.784" y2="659.158" gradientUnits="userSpaceOnUse">
<stop stop-color="#0038FF"/>
<stop offset="1" stop-color="#B620E0"/>
</linearGradient>
<linearGradient id="paint58_linear_148_8" x1="687.83" y1="816.631" x2="435.627" y2="659.718" gradientUnits="userSpaceOnUse">
<stop stop-color="#0038FF"/>
<stop offset="1" stop-color="#B620E0"/>
</linearGradient>
<linearGradient id="paint59_linear_148_8" x1="692.192" y1="809.928" x2="435.783" y2="660.45" gradientUnits="userSpaceOnUse">
<stop stop-color="#0038FF"/>
<stop offset="1" stop-color="#B620E0"/>
</linearGradient>
<linearGradient id="paint60_linear_148_8" x1="696.514" y1="803.201" x2="436.262" y2="661.328" gradientUnits="userSpaceOnUse">
<stop stop-color="#0038FF"/>
<stop offset="1" stop-color="#B620E0"/>
</linearGradient>
<linearGradient id="paint61_linear_148_8" x1="700.8" y1="796.45" x2="437.075" y2="662.324" gradientUnits="userSpaceOnUse">
<stop stop-color="#0038FF"/>
<stop offset="1" stop-color="#B620E0"/>
</linearGradient>
<linearGradient id="paint62_linear_148_8" x1="705.046" y1="789.676" x2="438.229" y2="663.412" gradientUnits="userSpaceOnUse">
<stop stop-color="#0038FF"/>
<stop offset="1" stop-color="#B620E0"/>
</linearGradient>
<linearGradient id="paint63_linear_148_8" x1="709.253" y1="782.879" x2="439.726" y2="664.562" gradientUnits="userSpaceOnUse">
<stop stop-color="#0038FF"/>
<stop offset="1" stop-color="#B620E0"/>
</linearGradient>
<linearGradient id="paint64_linear_148_8" x1="713.421" y1="776.06" x2="441.569" y2="665.747" gradientUnits="userSpaceOnUse">
<stop stop-color="#0038FF"/>
<stop offset="1" stop-color="#B620E0"/>
</linearGradient>
<linearGradient id="paint65_linear_148_8" x1="717.55" y1="769.217" x2="443.755" y2="666.939" gradientUnits="userSpaceOnUse">
<stop stop-color="#0038FF"/>
<stop offset="1" stop-color="#B620E0"/>
</linearGradient>
<linearGradient id="paint66_linear_148_8" x1="721.64" y1="762.355" x2="446.28" y2="668.113" gradientUnits="userSpaceOnUse">
<stop stop-color="#0038FF"/>
<stop offset="1" stop-color="#B620E0"/>
</linearGradient>
<linearGradient id="paint67_linear_148_8" x1="725.689" y1="755.47" x2="449.138" y2="669.24" gradientUnits="userSpaceOnUse">
<stop stop-color="#0038FF"/>
<stop offset="1" stop-color="#B620E0"/>
</linearGradient>
<linearGradient id="paint68_linear_148_8" x1="729.7" y1="748.565" x2="452.319" y2="670.299" gradientUnits="userSpaceOnUse">
<stop stop-color="#0038FF"/>
<stop offset="1" stop-color="#B620E0"/>
</linearGradient>
<linearGradient id="paint69_linear_148_8" x1="733.669" y1="741.64" x2="455.811" y2="671.264" gradientUnits="userSpaceOnUse">
<stop stop-color="#0038FF"/>
<stop offset="1" stop-color="#B620E0"/>
</linearGradient>
<linearGradient id="paint70_linear_148_8" x1="737.6" y1="734.695" x2="459.603" y2="672.116" gradientUnits="userSpaceOnUse">
<stop stop-color="#0038FF"/>
<stop offset="1" stop-color="#B620E0"/>
</linearGradient>
<linearGradient id="paint71_linear_148_8" x1="741.489" y1="727.731" x2="463.68" y2="672.834" gradientUnits="userSpaceOnUse">
<stop stop-color="#0038FF"/>
<stop offset="1" stop-color="#B620E0"/>
</linearGradient>
<linearGradient id="paint72_linear_148_8" x1="745.34" y1="720.748" x2="468.027" y2="673.401" gradientUnits="userSpaceOnUse">
<stop stop-color="#0038FF"/>
<stop offset="1" stop-color="#B620E0"/>
</linearGradient>
<linearGradient id="paint73_linear_148_8" x1="749.149" y1="713.748" x2="472.626" y2="673.802" gradientUnits="userSpaceOnUse">
<stop stop-color="#0038FF"/>
<stop offset="1" stop-color="#B620E0"/>
</linearGradient>
<linearGradient id="paint74_linear_148_8" x1="752.917" y1="706.729" x2="477.459" y2="674.023" gradientUnits="userSpaceOnUse">
<stop stop-color="#0038FF"/>
<stop offset="1" stop-color="#B620E0"/>
</linearGradient>
<linearGradient id="paint75_linear_148_8" x1="756.646" y1="699.692" x2="482.51" y2="674.051" gradientUnits="userSpaceOnUse">
<stop stop-color="#0038FF"/>
<stop offset="1" stop-color="#B620E0"/>
</linearGradient>
<linearGradient id="paint76_linear_148_8" x1="760.334" y1="692.639" x2="487.76" y2="673.878" gradientUnits="userSpaceOnUse">
<stop stop-color="#0038FF"/>
<stop offset="1" stop-color="#B620E0"/>
</linearGradient>
<linearGradient id="paint77_linear_148_8" x1="763.981" y1="685.571" x2="493.191" y2="673.495" gradientUnits="userSpaceOnUse">
<stop stop-color="#0038FF"/>
<stop offset="1" stop-color="#B620E0"/>
</linearGradient>
<linearGradient id="paint78_linear_148_8" x1="767.588" y1="678.486" x2="498.784" y2="672.897" gradientUnits="userSpaceOnUse">
<stop stop-color="#0038FF"/>
<stop offset="1" stop-color="#B620E0"/>
</linearGradient>
<linearGradient id="paint79_linear_148_8" x1="771.154" y1="671.387" x2="504.521" y2="672.079" gradientUnits="userSpaceOnUse">
<stop stop-color="#0038FF"/>
<stop offset="1" stop-color="#B620E0"/>
</linearGradient>
<linearGradient id="paint80_linear_148_8" x1="774.679" y1="664.272" x2="510.384" y2="671.038" gradientUnits="userSpaceOnUse">
<stop stop-color="#0038FF"/>
<stop offset="1" stop-color="#B620E0"/>
</linearGradient>
<linearGradient id="paint81_linear_148_8" x1="778.164" y1="657.145" x2="516.358" y2="669.773" gradientUnits="userSpaceOnUse">
<stop stop-color="#0038FF"/>
<stop offset="1" stop-color="#B620E0"/>
</linearGradient>
<linearGradient id="paint82_linear_148_8" x1="781.608" y1="650.002" x2="522.425" y2="668.283" gradientUnits="userSpaceOnUse">
<stop stop-color="#0038FF"/>
<stop offset="1" stop-color="#B620E0"/>
</linearGradient>
<linearGradient id="paint83_linear_148_8" x1="785.011" y1="642.847" x2="528.569" y2="666.57" gradientUnits="userSpaceOnUse">
<stop stop-color="#0038FF"/>
<stop offset="1" stop-color="#B620E0"/>
</linearGradient>
<linearGradient id="paint84_linear_148_8" x1="788.374" y1="635.68" x2="534.777" y2="664.635" gradientUnits="userSpaceOnUse">
<stop stop-color="#0038FF"/>
<stop offset="1" stop-color="#B620E0"/>
</linearGradient>
<linearGradient id="paint85_linear_148_8" x1="791.696" y1="628.501" x2="541.032" y2="662.483" gradientUnits="userSpaceOnUse">
<stop stop-color="#0038FF"/>
<stop offset="1" stop-color="#B620E0"/>
</linearGradient>
<linearGradient id="paint86_linear_148_8" x1="794.979" y1="621.31" x2="547.323" y2="660.117" gradientUnits="userSpaceOnUse">
<stop stop-color="#0038FF"/>
<stop offset="1" stop-color="#B620E0"/>
</linearGradient>
<linearGradient id="paint87_linear_148_8" x1="798.22" y1="614.109" x2="553.636" y2="657.542" gradientUnits="userSpaceOnUse">
<stop stop-color="#0038FF"/>
<stop offset="1" stop-color="#B620E0"/>
</linearGradient>
<linearGradient id="paint88_linear_148_8" x1="801.422" y1="606.897" x2="559.961" y2="654.762" gradientUnits="userSpaceOnUse">
<stop stop-color="#0038FF"/>
<stop offset="1" stop-color="#B620E0"/>
</linearGradient>
<linearGradient id="paint89_linear_148_8" x1="804.583" y1="599.676" x2="566.286" y2="651.784" gradientUnits="userSpaceOnUse">
<stop stop-color="#0038FF"/>
<stop offset="1" stop-color="#B620E0"/>
</linearGradient>
<linearGradient id="paint90_linear_148_8" x1="807.704" y1="592.445" x2="572.602" y2="648.614" gradientUnits="userSpaceOnUse">
<stop stop-color="#0038FF"/>
<stop offset="1" stop-color="#B620E0"/>
</linearGradient>
<linearGradient id="paint91_linear_148_8" x1="810.786" y1="585.206" x2="578.9" y2="645.258" gradientUnits="userSpaceOnUse">
<stop stop-color="#0038FF"/>
<stop offset="1" stop-color="#B620E0"/>
</linearGradient>
<linearGradient id="paint92_linear_148_8" x1="813.827" y1="577.96" x2="585.171" y2="641.723" gradientUnits="userSpaceOnUse">
<stop stop-color="#0038FF"/>
<stop offset="1" stop-color="#B620E0"/>
</linearGradient>
<linearGradient id="paint93_linear_148_8" x1="816.829" y1="570.705" x2="591.408" y2="638.016" gradientUnits="userSpaceOnUse">
<stop stop-color="#0038FF"/>
<stop offset="1" stop-color="#B620E0"/>
</linearGradient>
<linearGradient id="paint94_linear_148_8" x1="819.792" y1="563.444" x2="597.604" y2="634.143" gradientUnits="userSpaceOnUse">
<stop stop-color="#0038FF"/>
<stop offset="1" stop-color="#B620E0"/>
</linearGradient>
<linearGradient id="paint95_linear_148_8" x1="822.715" y1="556.177" x2="603.753" y2="630.113" gradientUnits="userSpaceOnUse">
<stop stop-color="#0038FF"/>
<stop offset="1" stop-color="#B620E0"/>
</linearGradient>
<linearGradient id="paint96_linear_148_8" x1="825.6" y1="548.904" x2="609.85" y2="625.93" gradientUnits="userSpaceOnUse">
<stop stop-color="#0038FF"/>
<stop offset="1" stop-color="#B620E0"/>
</linearGradient>
<linearGradient id="paint97_linear_148_8" x1="828.445" y1="541.626" x2="615.889" y2="621.605" gradientUnits="userSpaceOnUse">
<stop stop-color="#0038FF"/>
<stop offset="1" stop-color="#B620E0"/>
</linearGradient>
<linearGradient id="paint98_linear_148_8" x1="831.252" y1="534.344" x2="621.868" y2="617.142" gradientUnits="userSpaceOnUse">
<stop stop-color="#0038FF"/>
<stop offset="1" stop-color="#B620E0"/>
</linearGradient>
<linearGradient id="paint99_linear_148_8" x1="834.021" y1="527.058" x2="627.781" y2="612.549" gradientUnits="userSpaceOnUse">
<stop stop-color="#0038FF"/>
<stop offset="1" stop-color="#B620E0"/>
</linearGradient>
<linearGradient id="paint100_linear_148_8" x1="836.751" y1="519.769" x2="633.627" y2="607.832" gradientUnits="userSpaceOnUse">
<stop stop-color="#0038FF"/>
<stop offset="1" stop-color="#B620E0"/>
</linearGradient>
<linearGradient id="paint101_linear_148_8" x1="839.443" y1="512.476" x2="639.401" y2="602.998" gradientUnits="userSpaceOnUse">
<stop stop-color="#0038FF"/>
<stop offset="1" stop-color="#B620E0"/>
</linearGradient>
<linearGradient id="paint102_linear_148_8" x1="842.098" y1="505.182" x2="645.102" y2="598.055" gradientUnits="userSpaceOnUse">
<stop stop-color="#0038FF"/>
<stop offset="1" stop-color="#B620E0"/>
</linearGradient>
<linearGradient id="paint103_linear_148_8" x1="844.715" y1="497.886" x2="650.728" y2="593.007" gradientUnits="userSpaceOnUse">
<stop stop-color="#0038FF"/>
<stop offset="1" stop-color="#B620E0"/>
</linearGradient>
<linearGradient id="paint104_linear_148_8" x1="847.296" y1="490.59" x2="656.277" y2="587.861" gradientUnits="userSpaceOnUse">
<stop stop-color="#0038FF"/>
<stop offset="1" stop-color="#B620E0"/>
</linearGradient>
<linearGradient id="paint105_linear_148_8" x1="849.839" y1="483.292" x2="661.748" y2="582.623" gradientUnits="userSpaceOnUse">
<stop stop-color="#0038FF"/>
<stop offset="1" stop-color="#B620E0"/>
</linearGradient>
<linearGradient id="paint106_linear_148_8" x1="852.347" y1="475.996" x2="667.141" y2="577.299" gradientUnits="userSpaceOnUse">
<stop stop-color="#0038FF"/>
<stop offset="1" stop-color="#B620E0"/>
</linearGradient>
<linearGradient id="paint107_linear_148_8" x1="854.817" y1="468.7" x2="672.453" y2="571.895" gradientUnits="userSpaceOnUse">
<stop stop-color="#0038FF"/>
<stop offset="1" stop-color="#B620E0"/>
</linearGradient>
<linearGradient id="paint108_linear_148_8" x1="857.252" y1="461.405" x2="677.687" y2="566.414" gradientUnits="userSpaceOnUse">
<stop stop-color="#0038FF"/>
<stop offset="1" stop-color="#B620E0"/>
</linearGradient>
<linearGradient id="paint109_linear_148_8" x1="859.651" y1="454.113" x2="682.84" y2="560.865" gradientUnits="userSpaceOnUse">
<stop stop-color="#0038FF"/>
<stop offset="1" stop-color="#B620E0"/>
</linearGradient>
<linearGradient id="paint110_linear_148_8" x1="862.016" y1="446.823" x2="687.913" y2="555.25" gradientUnits="userSpaceOnUse">
<stop stop-color="#0038FF"/>
<stop offset="1" stop-color="#B620E0"/>
</linearGradient>
<linearGradient id="paint111_linear_148_8" x1="864.345" y1="439.536" x2="692.907" y2="549.575" gradientUnits="userSpaceOnUse">
<stop stop-color="#0038FF"/>
<stop offset="1" stop-color="#B620E0"/>
</linearGradient>
<linearGradient id="paint112_linear_148_8" x1="866.64" y1="432.254" x2="697.821" y2="543.845" gradientUnits="userSpaceOnUse">
<stop stop-color="#0038FF"/>
<stop offset="1" stop-color="#B620E0"/>
</linearGradient>
<linearGradient id="paint113_linear_148_8" x1="868.901" y1="424.975" x2="702.656" y2="538.064" gradientUnits="userSpaceOnUse">
<stop stop-color="#0038FF"/>
<stop offset="1" stop-color="#B620E0"/>
</linearGradient>
<linearGradient id="paint114_linear_148_8" x1="871.128" y1="417.702" x2="707.414" y2="532.236" gradientUnits="userSpaceOnUse">
<stop stop-color="#0038FF"/>
<stop offset="1" stop-color="#B620E0"/>
</linearGradient>
<linearGradient id="paint115_linear_148_8" x1="873.323" y1="410.434" x2="712.094" y2="526.365" gradientUnits="userSpaceOnUse">
<stop stop-color="#0038FF"/>
<stop offset="1" stop-color="#B620E0"/>
</linearGradient>
<linearGradient id="paint116_linear_148_8" x1="875.484" y1="403.172" x2="716.698" y2="520.456" gradientUnits="userSpaceOnUse">
<stop stop-color="#0038FF"/>
<stop offset="1" stop-color="#B620E0"/>
</linearGradient>
<linearGradient id="paint117_linear_148_8" x1="877.612" y1="395.917" x2="721.226" y2="514.513" gradientUnits="userSpaceOnUse">
<stop stop-color="#0038FF"/>
<stop offset="1" stop-color="#B620E0"/>
</linearGradient>
<linearGradient id="paint118_linear_148_8" x1="879.709" y1="388.669" x2="725.68" y2="508.538" gradientUnits="userSpaceOnUse">
<stop stop-color="#0038FF"/>
<stop offset="1" stop-color="#B620E0"/>
</linearGradient>
<linearGradient id="paint119_linear_148_8" x1="881.774" y1="381.429" x2="730.061" y2="502.535" gradientUnits="userSpaceOnUse">
<stop stop-color="#0038FF"/>
<stop offset="1" stop-color="#B620E0"/>
</linearGradient>
<linearGradient id="paint120_linear_148_8" x1="883.808" y1="374.198" x2="734.371" y2="496.509" gradientUnits="userSpaceOnUse">
<stop stop-color="#0038FF"/>
<stop offset="1" stop-color="#B620E0"/>
</linearGradient>
<linearGradient id="paint121_linear_148_8" x1="885.812" y1="366.975" x2="738.61" y2="490.462" gradientUnits="userSpaceOnUse">
<stop stop-color="#0038FF"/>
<stop offset="1" stop-color="#B620E0"/>
</linearGradient>
<linearGradient id="paint122_linear_148_8" x1="887.786" y1="359.762" x2="742.781" y2="484.397" gradientUnits="userSpaceOnUse">
<stop stop-color="#0038FF"/>
<stop offset="1" stop-color="#B620E0"/>
</linearGradient>
<linearGradient id="paint123_linear_148_8" x1="889.729" y1="352.56" x2="746.883" y2="478.318" gradientUnits="userSpaceOnUse">
<stop stop-color="#0038FF"/>
<stop offset="1" stop-color="#B620E0"/>
</linearGradient>
<linearGradient id="paint124_linear_148_8" x1="891.644" y1="345.368" x2="750.92" y2="472.226" gradientUnits="userSpaceOnUse">
<stop stop-color="#0038FF"/>
<stop offset="1" stop-color="#B620E0"/>
</linearGradient>
<linearGradient id="paint125_linear_148_8" x1="893.53" y1="338.187" x2="754.892" y2="466.126" gradientUnits="userSpaceOnUse">
<stop stop-color="#0038FF"/>
<stop offset="1" stop-color="#B620E0"/>
</linearGradient>
<linearGradient id="paint126_linear_148_8" x1="895.388" y1="331.018" x2="758.802" y2="460.019" gradientUnits="userSpaceOnUse">
<stop stop-color="#0038FF"/>
<stop offset="1" stop-color="#B620E0"/>
</linearGradient>
<linearGradient id="paint127_linear_148_8" x1="897.218" y1="323.862" x2="762.65" y2="453.909" gradientUnits="userSpaceOnUse">
<stop stop-color="#0038FF"/>
<stop offset="1" stop-color="#B620E0"/>
</linearGradient>
<linearGradient id="paint128_linear_148_8" x1="899.02" y1="316.718" x2="766.438" y2="447.798" gradientUnits="userSpaceOnUse">
<stop stop-color="#0038FF"/>
<stop offset="1" stop-color="#B620E0"/>
</linearGradient>
<linearGradient id="paint129_linear_148_8" x1="900.796" y1="309.589" x2="770.167" y2="441.688" gradientUnits="userSpaceOnUse">
<stop stop-color="#0038FF"/>
<stop offset="1" stop-color="#B620E0"/>
</linearGradient>
<linearGradient id="paint130_linear_148_8" x1="902.547" y1="302.473" x2="773.841" y2="435.582" gradientUnits="userSpaceOnUse">
<stop stop-color="#0038FF"/>
<stop offset="1" stop-color="#B620E0"/>
</linearGradient>
<linearGradient id="paint131_linear_148_8" x1="904.272" y1="295.371" x2="777.46" y2="429.481" gradientUnits="userSpaceOnUse">
<stop stop-color="#0038FF"/>
<stop offset="1" stop-color="#B620E0"/>
</linearGradient>
<linearGradient id="paint132_linear_148_8" x1="905.971" y1="288.284" x2="781.026" y2="423.388" gradientUnits="userSpaceOnUse">
<stop stop-color="#0038FF"/>
<stop offset="1" stop-color="#B620E0"/>
</linearGradient>
<linearGradient id="paint133_linear_148_8" x1="907.647" y1="281.213" x2="784.541" y2="417.305" gradientUnits="userSpaceOnUse">
<stop stop-color="#0038FF"/>
<stop offset="1" stop-color="#B620E0"/>
</linearGradient>
<linearGradient id="paint134_linear_148_8" x1="909.298" y1="274.159" x2="788.006" y2="411.235" gradientUnits="userSpaceOnUse">
<stop stop-color="#0038FF"/>
<stop offset="1" stop-color="#B620E0"/>
</linearGradient>
<linearGradient id="paint135_linear_148_8" x1="910.926" y1="267.121" x2="791.424" y2="405.179" gradientUnits="userSpaceOnUse">
<stop stop-color="#0038FF"/>
<stop offset="1" stop-color="#B620E0"/>
</linearGradient>
<linearGradient id="paint136_linear_148_8" x1="912.532" y1="260.1" x2="794.795" y2="399.139" gradientUnits="userSpaceOnUse">
<stop stop-color="#0038FF"/>
<stop offset="1" stop-color="#B620E0"/>
</linearGradient>
<linearGradient id="paint137_linear_148_8" x1="914.116" y1="253.097" x2="798.123" y2="393.117" gradientUnits="userSpaceOnUse">
<stop stop-color="#0038FF"/>
<stop offset="1" stop-color="#B620E0"/>
</linearGradient>
<linearGradient id="paint138_linear_148_8" x1="915.678" y1="246.112" x2="801.408" y2="387.114" gradientUnits="userSpaceOnUse">
<stop stop-color="#0038FF"/>
<stop offset="1" stop-color="#B620E0"/>
</linearGradient>
<linearGradient id="paint139_linear_148_8" x1="917.219" y1="239.146" x2="804.652" y2="381.133" gradientUnits="userSpaceOnUse">
<stop stop-color="#0038FF"/>
<stop offset="1" stop-color="#B620E0"/>
</linearGradient>
<linearGradient id="paint140_linear_148_8" x1="918.739" y1="232.198" x2="807.858" y2="375.175" gradientUnits="userSpaceOnUse">
<stop stop-color="#0038FF"/>
<stop offset="1" stop-color="#B620E0"/>
</linearGradient>
<linearGradient id="paint141_linear_148_8" x1="920.241" y1="225.271" x2="811.028" y2="369.241" gradientUnits="userSpaceOnUse">
<stop stop-color="#0038FF"/>
<stop offset="1" stop-color="#B620E0"/>
</linearGradient>
<linearGradient id="paint142_linear_148_8" x1="921.723" y1="218.364" x2="814.162" y2="363.334" gradientUnits="userSpaceOnUse">
<stop stop-color="#0038FF"/>
<stop offset="1" stop-color="#B620E0"/>
</linearGradient>
<linearGradient id="paint143_linear_148_8" x1="923.187" y1="211.477" x2="817.263" y2="357.455" gradientUnits="userSpaceOnUse">
<stop stop-color="#0038FF"/>
<stop offset="1" stop-color="#B620E0"/>
</linearGradient>
<linearGradient id="paint144_linear_148_8" x1="924.633" y1="204.611" x2="820.334" y2="351.604" gradientUnits="userSpaceOnUse">
<stop stop-color="#0038FF"/>
<stop offset="1" stop-color="#B620E0"/>
</linearGradient>
<linearGradient id="paint145_linear_148_8" x1="926.062" y1="197.767" x2="823.375" y2="345.785" gradientUnits="userSpaceOnUse">
<stop stop-color="#0038FF"/>
<stop offset="1" stop-color="#B620E0"/>
</linearGradient>
<linearGradient id="paint146_linear_148_8" x1="927.475" y1="190.944" x2="826.389" y2="339.999" gradientUnits="userSpaceOnUse">
<stop stop-color="#0038FF"/>
<stop offset="1" stop-color="#B620E0"/>
</linearGradient>
<linearGradient id="paint147_linear_148_8" x1="928.871" y1="184.144" x2="829.378" y2="334.245" gradientUnits="userSpaceOnUse">
<stop stop-color="#0038FF"/>
<stop offset="1" stop-color="#B620E0"/>
</linearGradient>
</defs>
</svg>
