<svg width="1024" height="1058" viewBox="0 0 1024 1058" fill="none" xmlns="http://www.w3.org/2000/svg">
<path opacity="0.01" fill-rule="evenodd" clip-rule="evenodd" d="M710.627 522.241C727.576 625.845 813.404 746.627 746.557 827.423C681.719 905.792 551.065 825.244 450.467 836.691C356.992 847.328 270.802 918.485 180.617 891.824C84.3281 863.359 5.63204 784.506 -36.3445 692.779C-77.5011 602.843 -75.05 496.674 -43.1459 402.855C-14.3129 318.067 64.3192 267.435 129.19 206C191.631 146.866 242.119 53.5738 327.744 51.6082C413.526 49.639 466.919 141.813 533.022 196.73C582.809 238.09 634.472 275.284 665.551 332.245C697.459 390.725 699.852 456.373 710.627 522.241Z" stroke="url(#paint0_linear_148_344)" stroke-opacity="0.3" stroke-width="3"/>
<path opacity="0.02" fill-rule="evenodd" clip-rule="evenodd" d="M715.15 519.331C733.843 622.279 821.477 741.146 756.266 822.822C693.015 902.044 561.411 824.049 461.359 837.206C368.392 849.431 283.737 921.838 193.4 896.838C96.9478 870.147 17.1512 792.938 -26.2767 702.261C-68.8562 613.355 -68.2611 507.514 -38.0997 413.469C-10.8416 328.476 66.6381 276.654 130.216 214.305C191.413 154.292 240.103 60.4483 325.398 57.0007C410.85 53.5468 465.662 144.471 532.494 198.046C582.828 238.396 634.96 274.561 666.923 330.783C699.738 388.504 703.266 453.88 715.15 519.331Z" stroke="url(#paint1_linear_148_344)" stroke-opacity="0.3" stroke-width="3"/>
<path opacity="0.03" fill-rule="evenodd" clip-rule="evenodd" d="M719.576 516.359C739.995 618.62 829.394 735.546 765.83 818.07C704.177 898.115 571.671 822.681 472.194 837.531C379.762 851.33 296.66 924.955 206.2 901.614C109.618 876.693 28.7536 801.143 -16.1018 711.539C-60.0809 623.685 -61.3294 518.205 -32.9088 423.965C-7.224 338.796 69.0857 285.809 131.358 222.574C191.299 161.707 238.188 67.3452 323.128 62.4266C408.224 57.4989 464.429 147.151 531.961 199.376C582.823 238.709 635.404 273.842 668.235 329.311C701.941 386.258 706.593 451.344 719.576 516.359Z" stroke="url(#paint2_linear_148_344)" stroke-opacity="0.3" stroke-width="3"/>
<path opacity="0.04" fill-rule="evenodd" clip-rule="evenodd" d="M723.898 513.327C746.026 614.873 837.148 729.834 775.241 813.173C715.195 894.007 581.836 821.143 482.964 837.671C391.092 853.029 309.56 927.839 219.008 906.154C122.327 883 40.4293 809.121 -5.82942 720.612C-51.1844 633.833 -54.2639 528.746 -27.5817 434.343C-3.46796 349.027 71.6549 294.899 132.611 230.803C191.285 169.108 236.369 74.2636 320.928 67.8853C405.643 61.4953 463.213 149.854 531.419 200.722C582.789 239.032 635.799 273.126 669.481 327.829C704.06 383.99 709.829 448.766 723.898 513.327Z" stroke="url(#paint3_linear_148_344)" stroke-opacity="0.3" stroke-width="3"/>
<path opacity="0.05" fill-rule="evenodd" clip-rule="evenodd" d="M728.121 510.237C751.939 611.04 844.745 724.01 784.503 808.132C726.072 889.725 591.91 819.438 493.67 837.626C402.385 854.527 322.438 930.492 231.825 910.457C135.078 889.066 52.1799 816.873 4.54235 729.481C-42.1645 643.796 -47.0616 539.133 -22.1148 444.6C0.430597 359.166 74.35 303.922 133.979 238.993C191.375 176.495 234.652 81.2015 318.806 73.3752C403.114 65.5347 462.021 152.581 530.874 202.082C582.732 239.365 636.15 272.417 670.667 326.341C706.103 381.702 712.979 446.149 728.121 510.237Z" stroke="url(#paint4_linear_148_344)" stroke-opacity="0.3" stroke-width="3"/>
<path opacity="0.06" fill-rule="evenodd" clip-rule="evenodd" d="M732.241 507.091C757.729 607.124 852.176 718.08 793.608 802.951C736.801 885.272 601.885 817.566 504.304 837.399C413.633 855.827 335.287 932.913 244.641 914.525C147.86 894.892 63.9957 824.396 15.0042 738.142C-33.0301 653.573 -39.731 549.366 -16.516 454.733C4.46433 369.21 77.1644 312.876 135.455 247.14C191.563 183.866 233.031 88.1567 316.755 78.8947C400.632 69.6158 460.848 155.329 530.322 203.458C582.647 239.707 636.453 271.713 671.787 324.846C708.063 379.395 716.036 443.494 732.241 507.091Z" stroke="url(#paint5_linear_148_344)" stroke-opacity="0.3" stroke-width="3"/>
<path opacity="0.07" fill-rule="evenodd" clip-rule="evenodd" d="M736.255 503.893C763.394 603.126 859.44 712.046 802.555 797.634C747.378 880.65 611.758 815.531 514.864 836.99C424.831 856.93 348.1 935.104 257.453 918.358C160.669 900.478 75.8726 831.691 25.5524 746.595C-23.7848 663.162 -32.275 559.442 -10.7877 464.742C8.63133 379.158 80.0966 321.76 137.04 255.244C191.85 191.218 231.508 95.1281 314.777 84.443C398.199 73.7384 459.694 158.1 529.762 204.85C582.534 240.059 636.709 271.016 672.844 323.346C709.941 377.07 719.001 440.803 736.255 503.893Z" stroke="url(#paint6_linear_148_344)" stroke-opacity="0.3" stroke-width="3"/>
<path opacity="0.08" fill-rule="evenodd" clip-rule="evenodd" d="M740.167 500.643C768.937 599.051 866.54 705.912 811.343 792.184C757.805 875.864 621.528 813.336 525.348 836.403C435.979 857.838 360.878 937.068 270.258 921.958C173.504 905.825 87.8086 838.757 36.185 754.84C-14.4301 672.563 -24.6947 569.36 -4.93023 474.624C12.9317 389.007 83.1472 330.571 138.733 263.301C192.237 198.551 230.083 102.114 312.874 90.0185C395.816 77.9012 458.563 160.893 529.198 206.257C582.397 240.424 636.92 270.328 673.838 321.842C711.739 374.73 721.876 438.078 740.167 500.643Z" stroke="url(#paint7_linear_148_344)" stroke-opacity="0.3" stroke-width="3"/>
<path opacity="0.09" fill-rule="evenodd" clip-rule="evenodd" d="M743.973 497.344C774.353 594.9 873.471 699.681 819.969 786.605C768.075 870.916 631.192 810.982 535.752 835.64C447.071 858.552 373.613 938.805 283.05 925.325C186.356 910.933 99.7972 845.595 46.896 762.876C-4.97165 681.773 -16.9952 579.118 1.05167 484.377C17.3614 398.755 86.3127 339.307 140.532 271.311C192.721 205.862 228.757 109.111 311.045 95.6197C393.484 82.1033 457.453 163.707 528.628 207.68C582.233 240.799 637.084 269.648 674.767 320.337C713.455 372.376 724.658 435.322 743.973 497.344Z" stroke="url(#paint8_linear_148_344)" stroke-opacity="0.3" stroke-width="3"/>
<path opacity="0.1" fill-rule="evenodd" clip-rule="evenodd" d="M747.672 493.999C779.641 590.676 880.23 693.358 828.43 780.9C778.186 865.812 640.745 808.473 546.072 834.702C458.103 859.075 386.301 940.317 295.824 928.461C199.222 915.802 111.833 852.204 57.68 770.702C4.58527 690.792 -9.18122 588.714 7.15391 493.999C21.9166 408.401 89.59 347.967 142.435 279.273C193.301 213.15 227.526 116.12 309.288 101.246C391.201 86.3439 456.362 166.542 528.05 209.12C582.042 241.188 637.201 268.979 675.632 318.83C715.088 370.01 727.347 432.535 747.672 493.999Z" stroke="url(#paint9_linear_148_344)" stroke-opacity="0.3" stroke-width="3"/>
<path opacity="0.11" fill-rule="evenodd" clip-rule="evenodd" d="M751.263 490.61C784.8 586.383 886.818 686.945 836.724 775.073C788.135 860.553 650.185 805.811 556.304 833.593C469.072 859.407 398.938 941.606 308.575 931.366C212.096 920.433 123.911 858.584 68.5333 778.317C14.2372 699.618 -1.25572 598.148 13.3741 503.49C26.5957 417.943 92.9776 356.55 144.44 287.183C193.976 220.414 226.392 123.138 307.605 106.895C388.967 90.6221 455.292 169.398 527.466 210.576C581.824 241.589 637.27 268.321 676.432 317.325C716.638 367.634 729.941 429.72 751.263 490.61Z" stroke="url(#paint10_linear_148_344)" stroke-opacity="0.3" stroke-width="3"/>
<path opacity="0.12" fill-rule="evenodd" clip-rule="evenodd" d="M754.748 487.178C789.831 582.022 893.234 680.446 844.852 769.127C797.923 855.144 659.511 802.999 566.449 832.313C479.976 859.552 411.521 942.674 321.302 934.043C224.977 924.827 136.03 864.736 79.4539 785.722C23.9826 708.252 6.7801 607.417 19.7116 512.846C31.3983 427.379 96.4761 365.052 146.549 295.041C194.747 227.652 225.356 130.163 305.997 112.566C386.786 94.9371 454.245 172.275 526.878 212.049C581.582 242.004 637.295 267.675 677.17 315.821C718.108 365.249 732.443 426.88 754.748 487.178Z" stroke="url(#paint11_linear_148_344)" stroke-opacity="0.3" stroke-width="3"/>
<path opacity="0.13" fill-rule="evenodd" clip-rule="evenodd" d="M758.122 483.707C794.729 577.597 899.475 673.866 852.807 763.068C807.542 849.588 668.718 800.04 576.498 830.867C490.808 859.511 424.043 943.523 333.997 936.492C237.856 928.985 148.182 870.659 90.4334 792.916C33.8132 716.691 14.9187 616.521 26.1593 522.068C36.318 436.707 100.079 373.474 148.756 302.846C195.609 234.863 224.413 137.195 304.461 118.259C384.655 99.2883 453.218 175.173 526.283 213.539C581.312 242.434 637.272 267.043 677.842 314.32C719.493 362.857 734.848 424.015 758.122 483.707Z" stroke="url(#paint12_linear_148_344)" stroke-opacity="0.3" stroke-width="3"/>
<path opacity="0.14" fill-rule="evenodd" clip-rule="evenodd" d="M761.387 480.199C799.495 573.11 905.539 667.207 860.59 756.896C816.991 843.89 677.804 796.937 586.45 829.256C501.565 859.286 436.501 944.154 346.656 938.715C250.729 932.908 160.362 876.353 101.469 799.897C43.7261 724.934 23.1575 625.457 32.7154 531.152C41.3533 445.925 103.787 381.813 151.06 310.595C196.564 242.044 223.566 144.23 302.997 123.97C382.574 103.674 452.21 178.089 525.68 215.045C581.015 242.878 637.203 266.424 678.449 312.824C720.795 360.46 737.158 421.128 761.387 480.199Z" stroke="url(#paint13_linear_148_344)" stroke-opacity="0.3" stroke-width="3"/>
<path opacity="0.15" fill-rule="evenodd" clip-rule="evenodd" d="M764.54 476.655C804.127 568.565 911.426 660.474 868.198 750.618C826.269 838.052 686.766 793.692 596.302 827.482C512.245 858.88 448.891 944.569 359.274 940.713C263.591 936.596 172.566 881.82 112.555 806.667C53.7167 732.983 31.4924 634.226 39.3762 540.099C46.5011 455.032 107.595 390.068 153.46 318.287C197.608 249.195 222.813 151.268 301.606 129.701C380.543 108.094 451.223 181.026 525.071 216.569C580.69 243.338 637.086 265.821 678.99 311.334C722.012 358.059 739.372 418.222 764.54 476.655Z" stroke="url(#paint14_linear_148_344)" stroke-opacity="0.3" stroke-width="3"/>
<path opacity="0.16" fill-rule="evenodd" clip-rule="evenodd" d="M767.581 473.079C808.623 563.964 917.132 653.67 875.628 744.235C835.37 832.08 695.6 790.308 606.051 825.549C522.842 858.294 461.207 944.772 371.846 942.489C276.437 940.051 184.788 887.059 123.688 813.225C63.7804 740.834 39.9193 642.826 46.1381 548.906C51.7582 464.026 111.502 398.237 155.954 325.921C198.741 256.313 222.152 158.307 300.285 135.448C378.562 112.547 450.255 183.983 524.455 218.111C580.339 243.815 636.921 265.234 679.466 309.851C723.145 355.657 741.488 415.297 767.581 473.079Z" stroke="url(#paint15_linear_148_344)" stroke-opacity="0.3" stroke-width="3"/>
<path opacity="0.17" fill-rule="evenodd" clip-rule="evenodd" d="M770.511 469.473C812.985 559.31 922.66 646.798 882.881 737.754C844.296 825.976 704.305 786.789 615.693 823.458C533.356 857.53 473.447 944.763 384.37 944.043C289.264 943.275 197.027 892.072 134.863 819.572C73.9146 748.489 48.436 651.256 52.9994 557.572C57.1235 472.907 115.507 406.32 158.54 333.496C199.962 263.4 221.585 165.345 299.038 141.211C376.633 117.032 449.308 186.959 523.832 219.671C579.961 244.308 636.711 264.664 679.877 308.377C724.194 353.255 743.507 412.357 770.511 469.473Z" stroke="url(#paint16_linear_148_344)" stroke-opacity="0.3" stroke-width="3"/>
<path opacity="0.18" fill-rule="evenodd" clip-rule="evenodd" d="M773.33 465.838C817.211 554.605 928.009 639.864 889.955 731.176C853.045 819.744 712.882 783.138 625.229 821.213C543.783 856.592 485.608 944.546 396.843 945.379C302.069 946.267 209.276 896.858 146.079 825.707C84.1158 755.946 57.0395 659.514 59.9576 566.096C62.5949 481.671 119.609 414.314 161.22 341.01C201.273 270.451 221.112 172.382 297.864 146.989C374.757 121.549 448.383 189.954 523.205 221.248C579.558 244.818 636.456 264.112 680.225 306.913C725.161 350.855 745.432 409.403 773.33 465.838Z" stroke="url(#paint17_linear_148_344)" stroke-opacity="0.3" stroke-width="3"/>
<path opacity="0.19" fill-rule="evenodd" clip-rule="evenodd" d="M776.035 462.179C821.299 549.854 933.175 632.869 896.847 724.506C861.611 813.389 721.322 779.357 634.651 818.816C554.117 855.482 497.683 944.123 409.256 946.496C314.844 949.031 221.53 901.418 157.326 831.63C94.3766 763.205 65.7227 667.601 67.0063 574.478C68.1664 490.319 123.801 422.218 163.986 348.461C202.667 277.466 220.729 179.415 296.76 152.78C372.93 126.096 447.477 192.967 522.57 222.844C579.127 245.347 636.153 263.579 680.506 305.46C726.042 348.458 747.257 406.437 776.035 462.179Z" stroke="url(#paint18_linear_148_344)" stroke-opacity="0.3" stroke-width="3"/>
<path opacity="0.2" fill-rule="evenodd" clip-rule="evenodd" d="M778.626 458.496C825.248 545.058 938.158 625.819 903.556 717.748C869.994 806.914 729.627 775.449 643.959 816.271C564.357 854.201 509.67 943.495 421.608 947.399C327.585 951.567 233.786 905.754 168.603 837.342C104.695 770.266 74.4837 675.515 74.144 582.715C73.8369 498.848 128.085 430.032 166.841 355.849C204.145 284.445 220.437 186.442 295.726 158.584C371.154 130.674 446.591 196 521.929 224.459C578.67 245.894 635.803 263.067 680.723 304.021C726.84 346.067 748.985 403.462 778.626 458.496Z" stroke="url(#paint19_linear_148_344)" stroke-opacity="0.3" stroke-width="3"/>
<path opacity="0.21" fill-rule="evenodd" clip-rule="evenodd" d="M781.104 454.792C829.06 540.221 942.959 618.717 910.082 710.905C878.192 800.324 737.794 771.418 653.15 813.578C574.5 852.753 521.566 942.666 433.895 948.088C340.29 953.876 246.038 909.866 179.907 842.842C115.067 777.128 83.3198 683.255 81.3683 590.807C79.6047 507.257 132.457 437.754 169.781 363.173C205.708 291.384 220.236 193.463 294.765 164.398C369.431 135.28 445.726 199.05 521.282 226.093C578.187 246.461 635.41 262.575 680.876 302.595C727.554 343.682 750.616 400.479 781.104 454.792Z" stroke="url(#paint20_linear_148_344)" stroke-opacity="0.3" stroke-width="3"/>
<path opacity="0.22" fill-rule="evenodd" clip-rule="evenodd" d="M783.468 451.07C832.732 535.346 947.576 611.566 916.422 703.983C886.204 793.623 745.821 767.268 662.221 810.744C584.542 851.14 533.366 941.639 446.112 948.566C352.952 955.961 258.283 913.756 191.23 848.133C125.487 783.792 92.2254 690.823 88.6744 598.753C85.4652 515.546 136.915 445.383 172.805 370.431C207.352 298.285 220.125 200.477 293.874 170.224C367.759 139.915 444.881 202.119 520.629 227.746C577.678 247.048 634.97 262.107 680.964 301.186C728.184 341.307 752.148 397.49 783.468 451.07Z" stroke="url(#paint21_linear_148_344)" stroke-opacity="0.3" stroke-width="3"/>
<path opacity="0.23" fill-rule="evenodd" clip-rule="evenodd" d="M785.717 447.332C836.263 530.435 952.007 604.372 922.574 696.984C894.026 786.814 753.704 763.001 671.169 807.768C594.479 849.365 545.065 940.416 458.254 948.835C365.567 957.823 270.515 917.424 202.569 853.213C135.951 790.258 101.197 698.215 96.0588 606.552C91.4154 523.713 141.456 452.917 175.911 377.621C209.076 305.145 220.102 207.481 293.053 176.058C366.137 144.577 444.055 205.206 519.968 229.419C577.142 247.655 634.484 261.661 680.987 299.794C728.73 338.943 753.581 394.498 785.717 447.332Z" stroke="url(#paint22_linear_148_344)" stroke-opacity="0.3" stroke-width="3"/>
<path opacity="0.24" fill-rule="evenodd" clip-rule="evenodd" d="M787.851 443.581C839.654 525.492 956.253 597.136 928.539 689.913C901.658 779.902 761.442 758.62 679.992 804.655C604.309 847.431 556.66 938.999 470.318 948.897C378.131 959.465 282.73 920.871 213.92 858.085C146.455 796.525 110.231 705.433 103.519 614.204C97.4532 531.757 146.077 460.356 179.096 384.744C210.879 311.963 220.167 214.474 292.301 181.899C364.567 149.265 443.25 208.31 519.302 231.111C576.58 248.284 633.952 261.239 680.946 298.419C729.192 336.59 754.916 391.505 787.851 443.581Z" stroke="url(#paint23_linear_148_344)" stroke-opacity="0.3" stroke-width="3"/>
<path opacity="0.25" fill-rule="evenodd" clip-rule="evenodd" d="M789.871 439.819C842.904 520.519 960.313 589.864 934.315 682.773C909.097 772.891 769.034 754.129 688.687 801.409C614.029 845.34 568.149 937.392 482.3 948.755C390.641 960.887 294.923 924.099 225.279 862.747C156.996 802.594 119.323 712.476 111.051 621.708C103.576 539.677 150.778 467.7 182.36 391.798C212.76 318.738 220.319 221.456 291.618 187.748C363.048 153.979 442.464 211.433 518.629 232.824C575.993 248.935 633.377 260.843 680.841 297.065C729.571 334.253 756.154 388.512 789.871 439.819Z" stroke="url(#paint24_linear_148_344)" stroke-opacity="0.3" stroke-width="3"/>
<path opacity="0.26" fill-rule="evenodd" clip-rule="evenodd" d="M791.776 436.048C846.013 515.52 964.189 582.559 939.902 675.569C916.344 765.784 776.479 749.532 697.253 798.03C623.638 843.095 579.529 935.597 494.198 948.411C403.091 962.093 307.093 927.11 236.643 867.202C167.569 808.465 128.472 719.343 118.654 629.063C109.781 547.473 155.556 474.946 185.701 398.782C214.718 325.47 220.558 228.423 291.006 193.603C361.582 158.718 441.699 214.572 517.951 234.557C575.381 249.609 632.757 260.473 680.674 295.732C729.867 331.931 757.294 385.522 791.776 436.048Z" stroke="url(#paint25_linear_148_344)" stroke-opacity="0.3" stroke-width="3"/>
<path opacity="0.27" fill-rule="evenodd" clip-rule="evenodd" d="M793.566 432.271C848.98 510.497 967.877 575.225 945.297 668.305C923.395 758.587 783.772 744.831 705.686 794.524C633.13 840.699 590.793 933.617 506.005 947.868C415.478 963.083 319.232 929.904 248.005 871.449C178.17 814.137 137.671 726.035 126.321 636.268C116.064 555.142 160.408 482.094 189.116 405.694C216.75 332.156 220.883 235.376 290.461 199.462C360.167 163.482 440.954 217.729 517.267 236.311C574.743 250.306 632.092 260.13 680.442 294.422C730.08 329.627 758.335 382.537 793.566 432.271Z" stroke="url(#paint26_linear_148_344)" stroke-opacity="0.3" stroke-width="3"/>
<path opacity="0.28" fill-rule="evenodd" clip-rule="evenodd" d="M795.238 428.49C851.803 505.454 971.378 567.866 950.5 660.984C930.249 751.304 790.912 740.03 713.984 790.893C642.502 838.154 601.939 931.455 517.718 947.128C427.796 963.861 331.335 932.483 259.362 875.491C188.794 819.613 146.916 732.551 134.05 643.324C122.421 562.685 165.329 489.144 192.603 412.535C218.855 338.796 221.291 242.313 289.983 205.325C358.801 168.268 440.227 220.903 516.576 238.086C574.078 251.027 631.383 259.816 680.146 293.135C730.209 327.342 759.276 379.559 795.238 428.49Z" stroke="url(#paint27_linear_148_344)" stroke-opacity="0.3" stroke-width="3"/>
<path opacity="0.29" fill-rule="evenodd" clip-rule="evenodd" d="M796.796 424.709C854.484 500.394 974.691 560.486 955.509 653.611C936.904 743.938 797.898 735.132 722.144 787.14C651.753 835.465 612.965 929.116 529.334 946.194C440.042 964.428 343.401 934.849 270.709 879.328C199.437 824.892 156.205 738.891 141.837 650.229C128.852 570.101 170.32 496.094 196.16 419.304C221.032 345.389 221.782 249.233 289.573 211.19C357.487 173.078 439.519 224.094 515.878 239.882C573.388 251.774 630.629 259.531 679.787 291.874C730.255 325.079 760.119 376.591 796.796 424.709Z" stroke="url(#paint28_linear_148_344)" stroke-opacity="0.3" stroke-width="3"/>
<path opacity="0.3" fill-rule="evenodd" clip-rule="evenodd" d="M798.24 420.928C857.024 495.318 977.819 553.088 960.328 646.19C943.362 736.494 804.73 730.142 730.166 783.268C660.883 832.633 623.867 926.6 540.85 945.068C452.214 964.787 355.425 937.004 282.044 882.961C210.097 829.974 165.535 745.056 149.682 656.984C135.354 577.389 175.379 502.944 199.787 425.999C223.281 351.935 222.358 256.134 289.231 217.057C356.226 177.909 438.833 227.301 515.177 241.7C572.675 252.545 629.834 259.276 679.367 290.639C730.221 322.838 760.867 373.633 798.24 420.928Z" stroke="url(#paint29_linear_148_344)" stroke-opacity="0.3" stroke-width="3"/>
<path opacity="0.31" fill-rule="evenodd" clip-rule="evenodd" d="M799.567 417.151C859.42 490.232 980.758 545.676 964.951 638.724C949.618 728.977 811.403 725.062 738.046 779.282C669.883 829.663 634.641 923.912 552.261 943.755C464.304 964.94 367.401 938.949 293.361 886.391C220.767 834.86 174.9 751.045 157.577 663.588C141.921 584.549 180.501 509.694 203.48 432.619C225.598 358.431 223.014 263.016 288.954 222.925C355.014 182.761 438.165 230.526 514.468 243.54C571.936 253.342 628.994 259.053 678.883 289.433C730.103 320.623 761.514 370.688 799.567 417.151Z" stroke="url(#paint30_linear_148_344)" stroke-opacity="0.3" stroke-width="3"/>
<path opacity="0.32" fill-rule="evenodd" clip-rule="evenodd" d="M800.78 413.379C861.673 485.136 983.511 538.254 969.38 631.218C955.674 721.389 817.919 719.895 745.784 775.183C678.756 826.556 645.286 921.055 563.565 942.255C476.312 964.89 379.328 940.685 304.657 889.62C231.446 839.551 184.298 756.858 165.522 670.04C148.553 591.579 185.686 516.341 207.238 439.165C227.983 364.878 223.752 269.876 288.743 228.792C353.853 187.633 437.516 233.766 513.754 245.402C571.173 254.166 628.112 258.861 678.339 288.255C729.904 318.433 762.066 367.759 800.78 413.379Z" stroke="url(#paint31_linear_148_344)" stroke-opacity="0.3" stroke-width="3"/>
<path opacity="0.33" fill-rule="evenodd" clip-rule="evenodd" d="M801.878 409.617C863.784 480.035 986.078 530.827 973.616 623.677C961.528 713.737 824.275 714.647 753.376 770.976C687.498 823.317 655.797 918.032 574.757 940.573C488.232 964.639 391.2 942.216 315.929 892.648C242.128 844.049 193.725 762.497 173.513 676.342C155.247 598.48 190.93 522.888 211.059 445.635C230.435 371.275 224.571 276.714 288.599 234.659C352.744 192.526 436.888 237.023 513.036 247.287C570.387 255.017 627.189 258.703 677.734 287.109C729.625 316.272 762.52 364.847 801.878 409.617Z" stroke="url(#paint32_linear_148_344)" stroke-opacity="0.3" stroke-width="3"/>
<path opacity="0.34" fill-rule="evenodd" clip-rule="evenodd" d="M802.863 405.865C865.754 474.932 988.459 523.397 977.657 616.103C967.179 706.023 830.47 709.319 760.823 766.664C696.107 819.948 666.173 914.847 585.837 938.71C500.062 964.189 403.014 943.543 327.171 895.478C252.811 848.352 203.178 767.96 181.548 682.492C161.999 605.251 196.233 529.331 214.943 452.028C232.952 377.62 225.469 283.53 288.52 240.523C351.687 197.437 436.28 240.296 512.313 249.195C569.577 255.896 626.225 258.579 677.068 285.995C729.267 314.141 762.879 361.954 802.863 405.865Z" stroke="url(#paint33_linear_148_344)" stroke-opacity="0.3" stroke-width="3"/>
<path opacity="0.35" fill-rule="evenodd" clip-rule="evenodd" d="M803.732 402.127C867.58 469.83 990.652 515.969 981.502 608.502C972.626 698.253 836.503 703.917 768.12 762.25C704.58 816.453 676.409 911.503 596.797 936.672C511.797 963.545 414.764 944.669 338.38 898.112C263.489 852.464 212.651 773.25 189.62 688.492C168.807 611.893 201.589 535.673 218.885 458.346C235.532 383.914 226.444 290.321 288.505 246.384C350.68 202.367 435.69 243.586 511.584 251.126C568.743 256.805 625.219 258.491 676.342 284.914C728.828 312.042 763.14 359.083 803.732 402.127Z" stroke="url(#paint34_linear_148_344)" stroke-opacity="0.3" stroke-width="3"/>
<path opacity="0.36" fill-rule="evenodd" clip-rule="evenodd" d="M804.486 398.404C869.262 464.73 992.659 508.547 985.15 600.876C977.868 690.431 842.37 698.442 775.266 757.738C712.913 812.835 686.502 908.003 607.636 934.46C523.431 962.707 426.447 945.595 349.551 900.55C274.157 856.385 222.141 778.365 197.728 694.34C175.665 618.403 206.997 541.911 222.883 464.585C238.173 390.155 227.495 297.087 288.552 252.241C349.722 207.313 435.118 246.892 510.849 253.081C567.885 257.742 624.171 258.438 675.555 283.868C728.308 309.976 763.304 356.236 804.486 398.404Z" stroke="url(#paint35_linear_148_344)" stroke-opacity="0.3" stroke-width="3"/>
<path opacity="0.37" fill-rule="evenodd" clip-rule="evenodd" d="M805.129 394.699C870.804 459.638 994.481 501.133 988.605 593.231C982.906 682.561 848.075 692.899 782.261 753.131C721.107 809.097 696.451 904.351 618.352 932.077C534.965 961.679 438.062 946.323 360.683 902.793C284.815 860.114 231.647 783.307 205.87 700.037C182.574 624.782 212.456 548.045 226.937 470.747C240.876 396.343 228.623 303.826 288.665 258.093C348.816 212.277 434.567 250.213 510.11 255.059C567.006 258.709 623.085 258.423 674.71 282.858C727.711 307.945 763.374 353.414 805.129 394.699Z" stroke="url(#paint36_linear_148_344)" stroke-opacity="0.3" stroke-width="3"/>
<path opacity="0.38" fill-rule="evenodd" clip-rule="evenodd" d="M805.658 391.015C872.203 454.554 996.118 493.733 991.864 585.57C987.738 674.647 853.613 687.292 789.102 748.432C729.159 805.242 706.253 900.55 628.94 929.527C546.394 960.465 449.602 946.856 371.769 904.845C295.458 863.655 241.164 788.076 214.041 705.583C189.53 631.031 217.963 554.076 231.046 476.83C243.638 402.477 229.827 310.537 288.84 263.94C347.961 217.257 434.035 253.55 509.367 257.062C566.104 259.707 621.959 258.445 673.807 281.886C727.037 305.951 763.35 350.619 805.658 391.015Z" stroke="url(#paint37_linear_148_344)" stroke-opacity="0.3" stroke-width="3"/>
<path opacity="0.39" fill-rule="evenodd" clip-rule="evenodd" d="M806.073 387.354C873.461 449.483 997.57 486.349 994.927 577.897C992.364 666.693 858.984 681.624 795.788 743.645C737.066 801.275 715.905 896.605 639.398 926.813C557.712 959.065 461.064 947.195 382.807 906.706C306.079 867.008 250.686 792.673 222.238 710.979C196.529 637.148 223.514 560.002 235.204 482.834C246.457 408.556 231.103 317.22 289.076 269.78C347.155 222.252 433.522 256.903 508.619 259.089C565.18 260.736 620.793 258.507 672.845 280.952C726.284 303.995 763.23 347.854 806.073 387.354Z" stroke="url(#paint38_linear_148_344)" stroke-opacity="0.3" stroke-width="3"/>
<path opacity="0.4" fill-rule="evenodd" clip-rule="evenodd" d="M806.377 383.718C874.578 444.427 998.838 478.986 997.795 570.216C996.783 658.705 864.188 675.899 802.317 738.775C744.827 797.198 725.404 892.518 649.722 923.938C568.918 957.485 472.444 947.345 393.793 908.38C316.678 870.175 260.213 797.1 230.458 716.225C203.568 643.135 229.108 565.825 239.413 488.76C249.331 414.58 232.453 323.874 289.374 275.613C346.398 227.262 433.027 260.272 507.867 261.142C564.233 261.797 619.59 258.608 671.826 280.058C725.454 302.079 763.016 345.121 806.377 383.718Z" stroke="url(#paint39_linear_148_344)" stroke-opacity="0.3" stroke-width="3"/>
<path opacity="0.41" fill-rule="evenodd" clip-rule="evenodd" d="M806.568 380.11C875.554 439.389 999.923 471.647 1000.47 562.532C1001 650.687 869.223 670.121 808.688 733.823C752.439 793.015 734.748 888.294 659.911 920.907C580.008 955.727 483.74 947.307 404.723 909.866C327.249 873.157 269.739 801.356 238.698 721.321C210.645 648.99 234.742 571.543 243.669 494.605C252.26 420.548 233.874 330.498 289.732 281.437C345.692 232.286 432.552 263.656 507.111 263.22C563.266 262.891 618.348 258.751 670.75 279.205C724.549 300.205 762.709 342.422 806.568 380.11Z" stroke="url(#paint40_linear_148_344)" stroke-opacity="0.3" stroke-width="3"/>
<path opacity="0.42" fill-rule="evenodd" clip-rule="evenodd" d="M806.649 376.532C876.39 434.373 1000.83 464.336 1002.95 554.849C1005 642.642 874.089 664.293 814.9 728.795C759.902 788.73 743.934 883.936 669.96 917.722C590.979 953.794 494.946 947.084 415.593 911.169C337.79 875.955 279.261 805.442 246.954 726.268C217.758 654.714 240.415 577.158 247.97 500.372C255.242 426.461 235.366 337.091 290.15 287.253C345.035 237.324 432.095 267.056 506.351 265.323C562.277 264.018 617.068 258.935 669.618 278.395C723.568 298.375 762.31 339.758 806.649 376.532Z" stroke="url(#paint41_linear_148_344)" stroke-opacity="0.3" stroke-width="3"/>
<path opacity="0.43" fill-rule="evenodd" clip-rule="evenodd" d="M806.618 372.986C877.085 429.381 1001.54 457.057 1005.23 547.17C1008.8 634.575 878.784 658.419 820.95 723.693C767.211 784.345 752.96 879.447 679.867 914.386C601.827 951.689 506.06 946.679 426.399 912.289C348.295 878.571 288.775 809.36 255.223 731.066C224.901 660.308 246.121 582.667 252.314 506.058C258.274 432.317 236.925 343.651 290.627 293.059C344.427 242.375 431.655 270.472 505.585 267.452C561.266 265.178 615.751 259.162 668.429 277.629C722.511 296.589 761.817 337.132 806.618 372.986Z" stroke="url(#paint42_linear_148_344)" stroke-opacity="0.3" stroke-width="3"/>
<path opacity="0.44" fill-rule="evenodd" clip-rule="evenodd" d="M806.479 369.474C877.643 424.415 1002.09 449.813 1007.32 539.499C1012.39 626.49 883.311 652.502 826.841 718.521C774.37 779.865 761.826 874.833 689.632 910.903C612.551 949.416 517.08 946.093 437.141 913.229C358.764 881.007 298.281 813.111 263.504 735.716C232.075 665.77 251.864 588.073 256.701 511.664C261.358 438.116 238.556 350.178 291.165 298.855C343.87 247.438 431.237 273.902 504.819 269.608C560.238 266.373 614.401 259.432 667.188 276.908C721.383 294.849 761.235 334.545 806.479 369.474Z" stroke="url(#paint43_linear_148_344)" stroke-opacity="0.3" stroke-width="3"/>
<path opacity="0.45" fill-rule="evenodd" clip-rule="evenodd" d="M806.233 366C878.064 419.48 1002.45 442.608 1009.22 531.841C1015.78 618.392 887.668 646.547 832.57 713.283C781.375 775.292 770.529 870.095 699.251 907.278C623.148 946.977 528.003 945.33 447.815 913.991C369.193 883.264 307.775 816.695 271.794 740.218C239.277 671.103 257.637 593.374 261.13 517.189C264.491 443.857 240.255 356.672 291.761 304.64C343.362 252.512 430.838 277.349 504.05 271.79C559.19 267.603 613.015 259.747 665.894 276.233C720.183 293.158 760.564 331.999 806.233 366Z" stroke="url(#paint44_linear_148_344)" stroke-opacity="0.3" stroke-width="3"/>
<path opacity="0.46" fill-rule="evenodd" clip-rule="evenodd" d="M805.876 362.565C878.346 414.577 1002.63 435.445 1010.92 524.199C1018.96 610.285 891.851 640.557 838.134 707.982C788.221 770.632 779.065 865.24 708.719 903.513C633.612 944.376 538.822 944.393 458.413 914.577C379.574 885.344 317.248 820.115 280.086 744.574C246.5 676.305 263.438 598.571 265.594 522.634C267.67 449.541 242.017 363.131 292.414 310.413C342.902 257.598 430.456 280.81 503.277 273.999C558.122 268.869 611.593 260.107 664.545 275.606C718.909 291.517 759.801 329.497 805.876 362.565Z" stroke="url(#paint45_linear_148_344)" stroke-opacity="0.3" stroke-width="3"/>
<path opacity="0.47" fill-rule="evenodd" clip-rule="evenodd" d="M805.413 359.172C878.493 409.71 1002.64 428.329 1012.43 516.577C1021.93 602.174 895.865 634.536 843.536 702.622C794.911 765.887 787.434 860.269 718.037 899.612C643.943 941.617 549.537 943.285 468.936 914.99C389.909 887.249 326.704 823.37 288.38 748.784C253.746 681.377 269.266 603.665 270.096 527.999C270.895 455.167 243.847 369.555 293.124 316.173C342.492 262.694 430.095 284.287 502.502 276.235C557.036 270.171 610.139 260.514 663.146 275.027C717.565 289.927 758.952 327.041 805.413 359.172Z" stroke="url(#paint46_linear_148_344)" stroke-opacity="0.3" stroke-width="3"/>
<path opacity="0.48" fill-rule="evenodd" clip-rule="evenodd" d="M804.845 355.822C878.505 404.882 1002.47 421.262 1013.75 508.98C1024.7 594.062 899.708 628.488 848.772 697.207C801.443 761.06 795.634 855.188 727.202 895.578C654.138 938.703 560.144 942.008 479.38 915.233C400.193 888.98 336.136 826.463 296.674 752.849C261.011 686.32 275.119 608.655 274.633 533.283C274.164 460.734 245.741 375.943 293.891 321.921C342.13 267.8 429.752 287.779 501.725 278.499C555.933 271.51 608.653 260.967 661.696 274.498C716.152 288.389 758.015 324.631 804.845 355.822Z" stroke="url(#paint47_linear_148_344)" stroke-opacity="0.3" stroke-width="3"/>
<path opacity="0.49" fill-rule="evenodd" clip-rule="evenodd" d="M804.17 352.518C878.381 400.094 1002.12 414.249 1014.88 501.411C1027.26 585.953 903.377 622.415 853.842 691.74C807.814 756.156 803.662 850 736.21 891.417C664.192 935.637 570.639 940.565 489.739 915.306C410.42 890.541 345.539 829.395 304.961 756.769C268.289 691.134 280.993 613.541 279.2 538.487C277.475 466.243 247.696 382.294 294.713 327.654C341.816 272.915 429.427 291.286 500.946 280.791C554.81 272.887 607.132 261.469 660.194 274.02C714.669 286.906 756.99 322.271 804.17 352.518Z" stroke="url(#paint48_linear_148_344)" stroke-opacity="0.3" stroke-width="3"/>
<path opacity="0.5" fill-rule="evenodd" clip-rule="evenodd" d="M803.392 349.262C878.124 395.35 1001.6 407.292 1015.83 493.873C1029.62 577.853 906.875 616.323 858.746 686.226C814.024 751.179 811.517 844.709 745.06 887.13C674.105 932.423 581.02 938.961 500.014 915.214C420.59 891.932 354.914 832.168 313.242 760.547C275.581 695.82 286.886 618.325 283.799 543.61C280.827 471.693 249.714 388.607 295.59 333.373C341.55 278.038 429.121 294.809 500.165 283.111C553.672 274.301 605.581 262.019 658.643 273.595C713.119 285.479 755.88 319.961 803.392 349.262Z" stroke="url(#paint49_linear_148_344)" stroke-opacity="0.3" stroke-width="3"/>
<path opacity="0.51" fill-rule="evenodd" clip-rule="evenodd" d="M802.509 346.057C877.733 390.654 1000.91 400.395 1016.58 486.372C1031.77 569.765 910.2 610.214 863.482 680.667C820.071 746.131 819.197 839.319 753.75 882.723C683.872 929.065 591.284 937.196 510.199 914.959C430.697 893.156 364.255 834.782 321.512 764.182C282.883 700.378 292.797 623.005 288.425 548.652C284.218 477.084 251.791 394.882 296.52 339.077C341.331 283.17 428.833 298.346 499.382 285.46C552.516 275.754 603.998 262.618 657.043 273.222C711.501 284.109 754.684 317.704 802.509 346.057Z" stroke="url(#paint50_linear_148_344)" stroke-opacity="0.3" stroke-width="3"/>
<path opacity="0.52" fill-rule="evenodd" clip-rule="evenodd" d="M801.525 342.904C877.213 386.006 1000.05 393.563 1017.14 478.911C1033.72 561.694 913.355 604.093 868.051 675.068C825.956 741.017 826.702 833.834 762.278 878.199C693.493 925.566 601.429 935.276 520.292 914.543C440.741 894.214 373.56 837.239 329.769 767.676C290.192 704.809 298.723 627.584 293.08 553.615C287.648 482.415 253.929 401.119 297.505 344.766C341.161 288.31 428.565 301.899 498.598 287.837C551.345 277.246 602.387 263.268 655.396 272.905C709.818 282.798 753.406 315.502 801.525 342.904Z" stroke="url(#paint51_linear_148_344)" stroke-opacity="0.3" stroke-width="3"/>
<path opacity="0.53" fill-rule="evenodd" clip-rule="evenodd" d="M800.44 339.806C876.561 381.411 999.021 386.796 1017.52 471.492C1035.47 553.643 916.337 597.962 872.452 669.431C831.676 735.84 834.029 828.259 770.642 873.561C702.964 921.929 611.45 933.203 530.29 913.969C450.716 895.11 382.826 839.542 338.009 771.03C297.506 709.113 304.661 632.06 297.758 558.497C291.114 487.688 256.124 407.316 298.542 350.438C341.038 293.456 428.314 305.467 497.814 290.243C550.157 278.778 600.745 263.969 653.702 272.642C708.07 281.546 752.044 313.355 800.44 339.806Z" stroke="url(#paint52_linear_148_344)" stroke-opacity="0.3" stroke-width="3"/>
<path opacity="0.54" fill-rule="evenodd" clip-rule="evenodd" d="M799.255 336.765C875.781 376.871 997.824 380.101 1017.72 464.122C1037.02 545.617 919.148 591.827 876.687 663.762C837.232 730.604 841.179 822.597 778.841 868.814C712.284 918.16 621.347 930.98 540.192 913.24C460.622 895.846 392.05 841.691 346.231 774.246C304.823 713.292 310.612 636.436 302.461 563.299C294.616 492.901 258.378 413.474 299.632 356.094C340.962 298.609 428.084 309.05 497.03 292.68C548.957 280.35 599.077 264.722 651.964 272.437C706.26 280.357 750.603 311.267 799.255 336.765Z" stroke="url(#paint53_linear_148_344)" stroke-opacity="0.3" stroke-width="3"/>
<path opacity="0.55" fill-rule="evenodd" clip-rule="evenodd" d="M797.974 333.783C874.875 372.388 996.464 373.48 1017.73 456.802C1038.37 537.621 921.79 585.69 880.754 658.064C842.624 725.313 848.15 816.853 786.875 863.962C721.452 914.261 631.117 928.611 549.994 912.358C470.455 896.423 401.23 843.689 354.433 777.324C312.141 717.347 316.572 640.711 307.187 568.022C298.153 498.055 260.689 419.591 300.775 361.733C340.935 303.769 427.874 312.649 496.247 295.146C547.743 281.964 597.383 265.528 650.182 272.289C704.388 279.231 749.082 309.24 797.974 333.783Z" stroke="url(#paint54_linear_148_344)" stroke-opacity="0.3" stroke-width="3"/>
<path opacity="0.56" fill-rule="evenodd" clip-rule="evenodd" d="M796.594 330.862C873.842 367.966 994.939 366.935 1017.57 449.537C1039.51 529.657 924.26 579.554 884.652 652.34C847.848 719.971 854.939 811.03 794.739 859.009C730.463 910.235 640.757 926.099 559.692 911.327C480.211 896.844 410.362 845.537 362.61 780.265C319.455 721.277 322.538 644.885 311.931 572.665C301.722 503.149 263.053 425.667 301.968 367.354C340.954 308.934 427.681 316.262 495.464 297.642C546.515 283.618 595.661 266.387 648.356 272.2C702.455 278.168 747.482 307.273 796.594 330.862Z" stroke="url(#paint55_linear_148_344)" stroke-opacity="0.3" stroke-width="3"/>
<path opacity="0.57" fill-rule="evenodd" clip-rule="evenodd" d="M795.117 328.004C872.683 363.606 993.252 360.47 1017.22 442.33C1040.46 521.731 926.559 573.425 888.38 646.593C852.905 714.581 861.546 805.132 802.431 853.957C739.316 906.088 650.262 923.447 569.283 910.149C489.886 897.111 419.442 847.237 370.759 783.072C326.763 725.084 328.508 648.961 316.693 577.229C305.321 508.184 265.471 431.702 303.21 372.957C341.018 314.103 427.507 319.89 494.681 300.168C545.273 285.314 593.913 267.3 646.487 272.171C700.461 277.172 745.803 305.369 795.117 328.004Z" stroke="url(#paint56_linear_148_344)" stroke-opacity="0.3" stroke-width="3"/>
<path opacity="0.58" fill-rule="evenodd" clip-rule="evenodd" d="M793.545 325.211C871.4 359.312 991.404 354.089 1016.69 435.186C1041.21 513.846 928.687 567.305 891.939 640.829C857.794 709.147 867.969 799.165 809.951 848.813C748.007 901.822 659.632 920.659 578.765 908.828C499.478 897.228 428.467 848.792 378.878 785.746C334.061 728.769 334.479 652.937 321.47 581.715C308.948 513.16 267.941 437.695 304.501 378.541C341.128 319.278 427.351 323.534 493.898 302.726C544.018 287.054 592.14 268.268 644.575 272.203C698.408 276.243 744.047 303.531 793.545 325.211Z" stroke="url(#paint57_linear_148_344)" stroke-opacity="0.3" stroke-width="3"/>
<path opacity="0.59" fill-rule="evenodd" clip-rule="evenodd" d="M791.881 322.485C869.996 355.085 989.399 347.795 1015.98 428.107C1041.76 506.006 930.648 561.198 895.331 635.05C862.516 703.672 874.209 793.131 817.3 843.579C756.538 897.442 668.866 917.738 588.138 907.366C508.987 897.196 437.437 850.202 386.965 788.287C341.351 732.333 340.452 656.816 326.263 586.122C312.605 518.076 270.463 443.646 305.842 384.106C341.285 324.457 427.215 327.193 493.118 305.314C542.754 288.835 590.345 269.292 642.625 272.296C696.299 275.381 742.217 301.759 791.881 322.485Z" stroke="url(#paint58_linear_148_344)" stroke-opacity="0.3" stroke-width="3"/>
<path opacity="0.6" fill-rule="evenodd" clip-rule="evenodd" d="M790.124 319.828C868.472 350.929 987.238 341.59 1015.1 421.097C1042.12 498.216 932.439 555.108 898.555 629.26C867.07 698.162 880.265 787.036 824.473 838.26C764.906 892.952 677.96 914.688 597.397 905.766C518.407 897.018 446.348 851.47 395.018 790.698C348.628 735.776 346.422 660.597 331.068 590.451C316.288 522.933 273.035 449.554 307.23 389.651C341.487 329.639 427.098 330.867 492.34 307.933C541.478 290.661 588.527 270.371 640.636 272.453C694.134 274.59 740.313 300.056 790.124 319.828Z" stroke="url(#paint59_linear_148_344)" stroke-opacity="0.3" stroke-width="3"/>
<path opacity="0.61" fill-rule="evenodd" clip-rule="evenodd" d="M788.277 317.243C866.828 346.846 984.923 335.479 1014.04 414.161C1042.29 490.478 934.062 549.038 901.609 623.463C871.454 692.618 886.134 780.883 831.471 832.86C773.107 888.355 686.912 911.512 606.539 904.031C527.737 896.696 455.197 852.598 403.032 792.98C355.889 739.101 352.389 664.281 335.883 594.703C319.996 527.731 275.656 455.419 308.665 395.177C341.734 334.825 426.999 334.557 491.564 310.585C540.191 292.53 586.686 271.508 638.608 272.673C691.914 273.869 738.337 298.422 788.277 317.243Z" stroke="url(#paint60_linear_148_344)" stroke-opacity="0.3" stroke-width="3"/>
<path opacity="0.62" fill-rule="evenodd" clip-rule="evenodd" d="M786.342 314.73C865.068 342.838 982.457 329.463 1012.82 407.3C1042.26 482.798 935.52 542.991 904.498 617.662C875.672 687.046 891.82 774.676 838.293 827.382C781.144 883.655 695.721 908.215 615.565 902.165C536.975 896.234 463.982 853.589 411.008 795.135C363.134 742.308 358.351 667.87 340.71 598.878C323.729 532.47 278.326 461.241 310.148 400.682C342.028 340.013 426.921 338.261 490.791 313.268C538.896 294.443 584.826 272.702 636.545 272.958C689.642 273.221 736.291 296.86 786.342 314.73Z" stroke="url(#paint61_linear_148_344)" stroke-opacity="0.3" stroke-width="3"/>
<path opacity="0.63" fill-rule="evenodd" clip-rule="evenodd" d="M784.32 312.292C863.193 338.907 979.842 323.546 1011.42 400.519C1042.05 475.179 936.811 536.972 907.218 611.862C879.721 681.448 897.318 768.42 844.938 821.831C789.011 878.857 704.384 904.799 624.47 900.171C546.117 895.634 472.701 854.444 418.942 797.164C370.358 745.399 364.305 671.365 345.543 602.977C327.485 537.151 281.042 467.019 311.676 406.167C342.366 345.204 426.861 341.981 490.022 315.983C537.592 296.402 582.947 273.954 634.446 273.308C687.318 272.645 734.175 295.37 784.32 312.292Z" stroke="url(#paint62_linear_148_344)" stroke-opacity="0.3" stroke-width="3"/>
<path opacity="0.64" fill-rule="evenodd" clip-rule="evenodd" d="M782.212 309.93C861.203 335.057 977.08 317.731 1009.86 393.821C1041.65 467.625 937.937 530.983 909.772 606.065C883.601 675.83 902.63 762.119 851.404 816.211C796.709 873.965 712.9 901.268 633.252 898.052C555.161 894.899 481.349 855.165 426.831 799.07C377.56 748.374 370.249 674.765 350.383 607C331.261 541.773 283.804 472.753 313.25 411.631C342.749 350.397 426.821 345.717 489.257 318.731C536.281 298.406 581.049 275.266 632.313 273.726C684.943 272.145 731.991 293.955 782.212 309.93Z" stroke="url(#paint63_linear_148_344)" stroke-opacity="0.3" stroke-width="3"/>
<path opacity="0.65" fill-rule="evenodd" clip-rule="evenodd" d="M780.019 307.647C859.102 331.289 974.172 312.02 1008.12 387.209C1041.06 460.14 938.899 525.029 912.158 600.275C887.312 670.193 907.755 755.776 857.69 810.526C804.236 868.981 721.265 897.625 641.91 895.81C564.105 894.031 489.926 855.755 434.673 800.852C384.738 751.234 376.182 678.073 355.227 610.948C335.057 546.336 286.61 478.442 314.867 417.073C343.176 355.591 426.8 349.467 488.495 321.511C534.961 300.455 579.132 276.636 630.146 274.21C682.52 271.719 729.74 292.616 780.019 307.647Z" stroke="url(#paint64_linear_148_344)" stroke-opacity="0.3" stroke-width="3"/>
<path opacity="0.66" fill-rule="evenodd" clip-rule="evenodd" d="M777.746 305.444C856.892 327.606 971.123 306.417 1006.23 380.688C1040.28 452.727 939.7 519.112 914.381 594.496C890.856 664.542 912.694 749.397 863.798 804.78C811.592 863.911 729.482 893.875 650.443 893.45C572.948 893.034 498.431 856.216 442.467 802.515C391.891 753.983 382.103 681.289 360.076 614.821C338.874 550.842 289.462 484.087 316.531 422.493C343.649 360.786 426.8 353.232 487.74 324.324C533.637 302.551 577.202 278.066 627.95 274.762C680.051 271.37 727.427 291.354 777.746 305.444Z" stroke="url(#paint65_linear_148_344)" stroke-opacity="0.3" stroke-width="3"/>
<path opacity="0.67" fill-rule="evenodd" clip-rule="evenodd" d="M775.39 303.323C854.572 324.01 967.933 300.924 1004.17 374.259C1039.33 445.39 940.336 513.237 916.437 588.732C894.23 658.881 917.443 742.985 869.723 798.977C818.773 858.759 737.544 890.022 658.845 890.975C581.684 891.91 506.856 856.551 450.208 804.059C399.012 756.619 388.007 684.414 364.925 618.62C342.706 555.29 292.354 489.688 318.235 427.892C344.164 365.982 426.818 357.014 486.988 327.17C532.306 304.694 575.254 279.557 625.721 275.384C677.534 271.1 725.048 290.17 775.39 303.323Z" stroke="url(#paint66_linear_148_344)" stroke-opacity="0.3" stroke-width="3"/>
<path opacity="0.68" fill-rule="evenodd" clip-rule="evenodd" d="M772.957 301.285C852.148 320.503 964.607 295.545 1001.96 367.926C1038.19 438.133 940.815 507.406 918.33 582.986C897.438 653.214 922.008 736.544 875.47 793.121C825.781 853.528 745.454 886.068 667.12 888.388C590.316 890.662 515.206 856.761 457.897 805.486C406.105 759.146 393.897 687.449 369.775 622.346C346.556 559.681 295.289 495.244 319.984 433.268C344.724 371.178 426.857 360.81 486.244 330.05C530.971 306.883 573.293 281.109 623.466 276.075C674.975 270.907 722.609 289.067 772.957 301.285Z" stroke="url(#paint67_linear_148_344)" stroke-opacity="0.3" stroke-width="3"/>
<path opacity="0.69" fill-rule="evenodd" clip-rule="evenodd" d="M770.444 299.333C849.617 317.087 961.144 290.28 999.587 361.693C1036.87 430.96 941.132 501.623 920.058 577.261C900.477 647.544 926.382 730.078 881.032 787.217C832.612 848.223 753.206 882.018 675.26 885.692C598.837 889.293 523.472 856.849 465.529 806.798C413.163 761.564 399.765 690.395 374.621 625.999C350.419 564.015 298.262 500.754 321.772 438.621C345.326 376.375 426.914 364.622 485.504 332.963C529.631 309.119 571.318 282.722 621.18 276.837C672.371 270.795 720.109 288.045 770.444 299.333Z" stroke="url(#paint68_linear_148_344)" stroke-opacity="0.3" stroke-width="3"/>
<path opacity="0.7" fill-rule="evenodd" clip-rule="evenodd" d="M767.857 297.468C846.984 313.765 957.549 285.135 997.059 355.562C1035.38 423.873 941.291 495.891 921.623 571.561C903.348 641.874 930.57 723.593 886.413 781.268C839.267 842.847 760.801 877.876 683.266 882.89C607.246 887.806 531.655 856.818 473.102 807.997C420.186 763.875 405.613 693.255 379.465 629.581C354.296 568.292 301.273 506.219 323.602 443.952C345.97 381.57 426.991 368.449 484.77 335.91C528.287 311.404 569.33 284.397 618.868 277.67C669.725 270.763 717.55 287.106 767.857 297.468Z" stroke="url(#paint69_linear_148_344)" stroke-opacity="0.3" stroke-width="3"/>
<path opacity="0.71" fill-rule="evenodd" clip-rule="evenodd" d="M765.196 295.691C844.252 310.538 953.824 280.11 994.379 349.537C1033.71 416.877 941.295 490.213 923.028 565.891C906.054 636.209 934.571 717.091 891.612 775.279C845.745 837.406 768.238 873.645 691.138 879.987C615.544 886.205 539.754 856.671 480.617 809.086C427.172 766.081 411.44 696.028 384.305 633.092C358.185 572.513 304.324 511.639 325.472 449.26C346.659 386.766 427.089 372.292 484.045 338.892C526.941 313.736 567.333 286.135 616.532 278.575C667.041 270.814 714.935 286.252 765.196 295.691Z" stroke="url(#paint70_linear_148_344)" stroke-opacity="0.3" stroke-width="3"/>
<path opacity="0.72" fill-rule="evenodd" clip-rule="evenodd" d="M762.466 294.004C841.423 307.409 949.975 275.209 991.551 343.62C1031.88 409.975 941.146 484.593 924.274 560.252C908.596 630.552 938.387 710.577 896.631 769.254C852.048 831.902 775.518 869.329 698.875 876.985C623.729 884.491 547.768 856.408 488.072 810.065C434.122 768.183 417.245 698.715 389.14 636.533C362.088 576.679 307.413 517.014 327.384 454.544C347.392 391.96 427.209 376.15 483.329 341.907C525.596 316.117 565.327 287.935 614.174 279.553C664.322 270.947 712.267 285.482 762.466 294.004Z" stroke="url(#paint71_linear_148_344)" stroke-opacity="0.3" stroke-width="3"/>
<path opacity="0.73" fill-rule="evenodd" clip-rule="evenodd" d="M759.663 292.409C838.495 304.379 945.998 270.433 988.573 337.815C1029.87 403.171 940.841 479.035 925.357 554.648C910.969 624.907 942.014 704.055 901.464 763.196C858.169 826.341 782.634 864.932 706.47 873.888C631.794 882.669 555.69 856.034 495.459 810.938C441.027 770.182 423.022 701.319 393.965 639.904C365.997 580.789 310.535 522.343 329.332 459.805C348.164 397.153 427.346 380.024 482.619 344.957C524.247 318.547 563.31 289.8 611.79 280.604C661.562 271.164 709.543 284.799 759.663 292.409Z" stroke="url(#paint72_linear_148_344)" stroke-opacity="0.3" stroke-width="3"/>
<path opacity="0.74" fill-rule="evenodd" clip-rule="evenodd" d="M756.794 290.907C835.477 301.451 941.903 265.786 985.452 332.124C1027.69 396.468 940.386 473.541 926.284 549.084C913.181 619.278 945.457 697.53 906.117 757.111C864.114 820.725 789.592 860.459 713.929 870.7C639.744 880.742 563.523 855.551 502.784 811.706C447.892 772.081 428.775 703.841 398.785 643.208C369.918 584.845 313.694 527.627 331.321 465.042C348.981 402.344 427.506 383.914 481.92 348.042C522.902 321.026 561.288 291.728 609.389 281.729C658.771 271.465 706.771 284.204 756.794 290.907Z" stroke="url(#paint73_linear_148_344)" stroke-opacity="0.3" stroke-width="3"/>
<path opacity="0.75" fill-rule="evenodd" clip-rule="evenodd" d="M753.859 289.5C832.365 298.627 937.687 261.27 982.189 326.55C1025.35 389.869 939.781 468.114 927.053 543.562C915.227 613.667 948.713 691.004 910.586 751.002C869.878 815.06 796.385 855.912 721.245 867.424C647.573 878.712 571.262 854.962 510.04 812.371C454.711 773.88 434.497 706.281 403.593 646.443C373.845 588.846 316.885 532.865 333.347 470.256C349.838 407.533 427.686 387.819 481.229 351.162C521.555 323.554 559.258 293.72 606.966 282.93C655.945 271.852 703.947 283.697 753.859 289.5Z" stroke="url(#paint74_linear_148_344)" stroke-opacity="0.3" stroke-width="3"/>
<path opacity="0.76" fill-rule="evenodd" clip-rule="evenodd" d="M750.858 288.188C829.163 295.907 933.354 256.886 978.784 321.096C1022.85 383.377 939.026 462.757 927.666 538.085C917.109 608.078 951.784 684.483 914.872 744.872C875.461 809.349 803.014 851.295 728.418 864.063C655.279 876.582 578.906 854.267 517.226 812.935C461.482 775.582 440.189 708.641 408.388 649.612C377.778 592.794 320.108 538.057 335.408 475.445C350.736 412.719 427.885 391.74 480.547 354.317C520.21 326.131 557.223 295.776 604.525 284.204C653.087 272.324 701.074 283.281 750.858 288.188Z" stroke="url(#paint75_linear_148_344)" stroke-opacity="0.3" stroke-width="3"/>
<path opacity="0.77" fill-rule="evenodd" clip-rule="evenodd" d="M747.797 286.974C825.875 293.294 928.91 252.638 975.245 315.765C1020.19 376.995 938.127 457.474 928.125 532.657C918.831 602.516 954.671 677.969 918.977 738.727C880.866 803.596 809.479 846.612 735.448 860.621C662.863 874.356 586.455 853.472 524.341 813.402C468.207 777.189 445.85 710.922 413.172 652.715C381.717 596.688 323.363 543.204 337.507 480.611C351.676 417.903 428.106 395.676 479.877 357.507C518.868 328.759 555.184 297.898 602.068 285.555C650.201 272.883 698.157 282.955 747.797 286.974Z" stroke="url(#paint76_linear_148_344)" stroke-opacity="0.3" stroke-width="3"/>
<path opacity="0.78" fill-rule="evenodd" clip-rule="evenodd" d="M744.675 285.858C822.502 290.791 924.356 248.527 971.571 310.559C1017.37 370.728 937.083 452.267 928.431 527.281C920.392 596.983 957.375 671.468 922.9 732.569C886.09 797.806 815.78 841.868 742.334 857.102C670.323 872.037 593.906 852.579 531.384 813.772C474.881 778.701 451.478 713.126 417.941 655.754C385.66 600.53 326.649 548.306 339.641 485.752C352.657 423.083 428.349 399.628 479.218 360.732C517.53 331.437 553.143 300.084 599.595 286.982C647.286 273.531 695.195 282.722 744.675 285.858Z" stroke="url(#paint77_linear_148_344)" stroke-opacity="0.3" stroke-width="3"/>
<path opacity="0.79" fill-rule="evenodd" clip-rule="evenodd" d="M741.498 284.842C819.049 288.398 919.696 244.555 967.768 305.482C1014.4 364.577 935.898 447.14 928.588 521.961C921.795 591.483 959.898 664.983 926.643 726.405C891.136 791.983 821.916 837.067 749.076 853.508C677.658 869.629 601.258 851.589 538.354 814.049C481.505 780.122 457.074 715.255 422.698 658.729C389.609 604.32 329.965 553.362 341.812 490.869C353.681 428.261 428.614 403.596 478.572 363.993C516.198 334.165 551.102 302.336 597.111 288.486C644.347 274.266 692.193 282.581 741.498 284.842Z" stroke="url(#paint78_linear_148_344)" stroke-opacity="0.3" stroke-width="3"/>
<path opacity="0.8" fill-rule="evenodd" clip-rule="evenodd" d="M738.264 283.927C815.515 286.117 914.932 240.724 963.836 300.534C1011.27 358.547 934.572 442.095 928.594 516.699C923.039 586.02 962.239 658.519 930.204 720.236C896.001 786.13 827.886 832.211 755.671 849.845C684.866 867.134 608.51 850.507 545.248 814.234C488.076 781.452 462.633 717.309 427.437 661.641C393.558 608.058 333.309 558.373 344.017 495.961C354.744 433.435 428.9 407.579 477.938 367.289C514.871 336.944 549.059 304.654 594.614 290.067C641.383 275.091 689.15 282.535 738.264 283.927Z" stroke="url(#paint79_linear_148_344)" stroke-opacity="0.3" stroke-width="3"/>
<path opacity="0.81" fill-rule="evenodd" clip-rule="evenodd" d="M734.974 283.115C811.901 283.95 910.065 237.037 959.778 295.72C1008 352.639 933.106 437.136 928.45 511.499C924.124 580.596 964.398 652.078 933.584 714.067C900.684 780.252 833.688 827.306 762.117 846.114C691.944 864.555 615.657 849.334 552.063 814.329C494.59 782.694 468.154 719.29 432.157 664.492C397.508 611.746 336.679 563.339 346.254 501.029C355.846 438.605 429.205 411.578 477.315 370.621C513.548 339.774 547.017 307.038 592.105 291.726C638.394 276.005 686.067 282.583 734.974 283.115Z" stroke="url(#paint80_linear_148_344)" stroke-opacity="0.3" stroke-width="3"/>
<path opacity="0.82" fill-rule="evenodd" clip-rule="evenodd" d="M731.636 282.405C808.215 281.899 905.102 233.495 955.599 291.041C1004.58 346.857 931.507 432.265 928.163 506.363C925.055 575.215 966.38 645.665 936.786 707.903C905.189 774.353 839.325 822.354 768.417 842.32C698.894 861.897 622.703 848.074 558.801 814.338C501.05 783.849 473.638 721.199 436.86 667.282C401.459 615.384 340.077 568.259 348.526 506.072C356.99 443.771 429.535 415.593 476.708 373.989C512.235 342.654 544.978 309.489 589.588 293.462C635.387 277.009 682.949 282.728 731.636 282.405Z" stroke="url(#paint81_linear_148_344)" stroke-opacity="0.3" stroke-width="3"/>
<path opacity="0.83" fill-rule="evenodd" clip-rule="evenodd" d="M728.249 281.801C804.457 279.964 900.046 230.101 951.303 286.499C1001.02 341.203 929.774 427.485 927.731 501.296C925.833 569.881 968.184 639.283 939.81 701.746C909.516 768.437 844.795 817.36 774.57 838.467C705.716 859.162 629.645 846.729 565.459 814.262C507.453 784.92 479.084 723.039 441.545 670.013C405.411 618.972 343.502 573.135 350.832 511.091C358.175 448.933 429.888 419.624 476.115 377.393C510.932 345.586 542.944 312.005 587.065 295.278C632.362 278.104 679.798 282.969 728.249 281.801Z" stroke="url(#paint82_linear_148_344)" stroke-opacity="0.3" stroke-width="3"/>
<path opacity="0.84" fill-rule="evenodd" clip-rule="evenodd" d="M724.813 281.302C800.627 278.148 894.897 226.855 946.888 282.098C997.317 335.681 927.908 422.798 927.155 496.3C926.456 564.597 969.81 632.938 942.655 695.602C913.661 762.508 850.097 812.328 780.571 834.558C712.403 856.354 636.478 845.302 572.035 814.103C513.795 785.908 484.488 724.81 446.207 672.685C409.359 622.512 346.949 577.967 353.168 516.085C359.398 454.09 430.262 423.671 475.537 380.833C509.636 348.57 540.913 314.589 584.534 297.172C629.318 279.291 676.613 283.307 724.813 281.302Z" stroke="url(#paint83_linear_148_344)" stroke-opacity="0.3" stroke-width="3"/>
<path opacity="0.85" fill-rule="evenodd" clip-rule="evenodd" d="M721.332 280.91C796.729 276.452 889.659 223.76 942.36 277.839C993.478 330.293 925.912 418.208 926.438 491.378C926.927 559.366 971.26 626.631 945.321 689.474C917.626 756.569 855.231 807.261 786.422 830.596C718.958 853.475 643.204 843.796 578.527 813.865C520.076 786.816 489.848 726.514 450.846 675.3C413.304 626.004 350.419 582.753 355.534 521.054C360.659 459.242 430.657 427.734 474.972 384.309C508.349 351.604 538.887 317.239 581.998 299.145C626.258 280.569 673.397 283.744 721.332 280.91Z" stroke="url(#paint84_linear_148_344)" stroke-opacity="0.3" stroke-width="3"/>
<path opacity="0.86" fill-rule="evenodd" clip-rule="evenodd" d="M717.809 280.625C792.767 274.876 884.337 220.817 937.724 273.724C989.506 325.041 923.79 413.717 925.583 486.532C927.249 554.191 972.536 620.368 947.812 683.365C921.415 750.625 860.198 802.163 792.124 826.585C725.381 850.53 649.822 842.214 584.936 813.549C526.296 787.644 495.167 728.153 455.463 677.859C417.246 629.448 353.913 587.496 357.933 525.999C361.961 464.389 431.076 431.812 474.425 387.822C507.074 354.69 536.87 319.956 579.46 301.198C623.185 281.939 670.153 284.279 717.809 280.625Z" stroke="url(#paint85_linear_148_344)" stroke-opacity="0.3" stroke-width="3"/>
<path opacity="0.87" fill-rule="evenodd" clip-rule="evenodd" d="M714.246 280.449C788.743 273.424 878.934 218.028 932.981 269.756C985.404 319.929 921.543 409.327 924.591 481.766C927.423 549.076 973.64 614.152 950.128 677.28C925.025 744.681 864.997 797.039 797.676 822.529C731.67 847.521 656.331 840.559 591.26 813.159C532.453 788.396 500.442 729.729 460.057 680.363C421.184 632.847 357.427 592.194 360.362 530.919C363.301 469.531 431.518 435.906 473.895 391.37C505.811 357.828 534.861 322.74 576.92 303.33C620.101 283.403 666.883 284.915 714.246 280.449Z" stroke="url(#paint86_linear_148_344)" stroke-opacity="0.3" stroke-width="3"/>
<path opacity="0.88" fill-rule="evenodd" clip-rule="evenodd" d="M710.647 280.382C784.662 272.095 873.454 215.394 928.138 265.936C981.178 314.959 919.177 405.042 923.467 477.083C927.453 544.023 974.576 607.985 952.273 671.222C928.461 738.739 869.633 791.892 803.079 818.431C737.826 844.452 662.731 838.833 597.5 812.695C538.548 789.073 505.675 731.241 464.628 682.813C425.119 636.199 360.966 596.849 362.822 535.814C364.683 474.668 431.985 440.016 473.385 394.955C504.565 361.018 532.865 325.592 574.384 305.543C617.009 284.959 663.591 285.65 710.647 280.382Z" stroke="url(#paint87_linear_148_344)" stroke-opacity="0.3" stroke-width="3"/>
<path opacity="0.89" fill-rule="evenodd" clip-rule="evenodd" d="M707.01 280.425C780.521 270.89 867.898 212.917 923.192 262.266C976.825 310.132 916.689 400.863 922.208 472.485C927.337 539.036 975.34 601.873 954.243 665.195C931.719 732.804 874.098 786.725 808.33 814.295C743.845 841.326 669.018 837.04 603.651 812.161C544.576 789.677 510.859 732.694 469.172 685.211C429.046 639.506 364.522 601.46 365.31 540.684C366.1 479.798 432.474 444.142 472.89 398.577C503.33 364.259 530.878 328.51 571.846 307.835C613.907 286.608 660.274 286.486 707.01 280.425Z" stroke="url(#paint88_linear_148_344)" stroke-opacity="0.3" stroke-width="3"/>
<path opacity="0.9" fill-rule="evenodd" clip-rule="evenodd" d="M703.341 280.579C776.327 269.813 862.27 210.598 918.151 258.749C972.352 305.453 914.084 396.794 920.82 467.976C927.078 534.118 975.937 595.819 956.042 659.204C934.801 726.879 878.398 781.544 813.429 810.125C749.73 838.148 675.194 835.183 609.714 811.56C550.538 790.211 515.996 734.087 473.689 687.557C432.966 642.77 368.097 606.028 367.827 545.531C367.557 484.923 432.988 448.284 472.415 402.234C502.111 367.552 528.903 331.496 569.313 310.208C610.8 288.352 656.938 287.424 703.341 280.579Z" stroke="url(#paint89_linear_148_344)" stroke-opacity="0.3" stroke-width="3"/>
<path opacity="0.91" fill-rule="evenodd" clip-rule="evenodd" d="M699.639 280.845C772.08 268.861 856.574 208.438 913.015 255.385C967.761 300.922 911.365 392.835 919.302 463.557C926.678 529.271 976.368 589.825 957.671 653.25C937.708 720.969 882.531 776.35 818.377 805.923C755.477 834.918 681.256 833.264 615.688 810.893C556.431 790.676 521.085 735.423 478.178 689.853C436.878 645.99 371.69 610.553 370.372 550.352C369.051 490.041 433.524 452.441 471.959 405.928C500.907 370.897 526.942 334.549 566.784 312.661C607.688 290.189 653.584 288.464 699.639 280.845Z" stroke="url(#paint90_linear_148_344)" stroke-opacity="0.3" stroke-width="3"/>
<path opacity="0.92" fill-rule="evenodd" clip-rule="evenodd" d="M695.911 281.223C767.786 268.038 850.814 206.439 907.792 252.177C963.058 296.542 908.535 388.99 917.661 459.232C926.141 524.5 976.636 583.896 959.133 647.339C940.444 715.077 886.5 771.149 823.176 801.694C761.089 831.642 687.206 831.286 621.573 810.163C562.258 791.074 526.128 736.704 482.641 692.1C440.783 649.167 375.302 615.035 372.945 555.148C370.584 495.152 434.087 456.614 471.525 409.658C499.722 374.294 524.998 337.669 564.263 315.194C604.575 292.12 650.215 289.605 695.911 281.223Z" stroke="url(#paint91_linear_148_344)" stroke-opacity="0.3" stroke-width="3"/>
<path opacity="0.93" fill-rule="evenodd" clip-rule="evenodd" d="M692.153 281.714C763.443 267.344 844.991 204.601 902.48 249.127C958.242 292.315 905.594 385.262 915.894 455.003C925.465 519.806 976.741 578.035 960.425 641.474C943.005 709.207 890.302 765.944 827.822 797.441C766.562 828.323 693.039 829.252 627.365 809.373C568.013 791.408 531.118 737.93 487.073 694.299C444.677 652.303 378.929 619.475 375.544 559.921C372.153 500.258 434.672 460.803 471.109 413.425C498.552 377.743 523.068 340.857 561.748 317.809C601.46 294.146 646.829 290.85 692.153 281.714Z" stroke="url(#paint92_linear_148_344)" stroke-opacity="0.3" stroke-width="3"/>
<path opacity="0.94" fill-rule="evenodd" clip-rule="evenodd" d="M688.374 282.32C759.06 266.781 839.112 202.927 897.088 246.236C953.322 288.244 902.549 381.652 914.009 450.873C924.656 515.193 976.688 572.247 961.554 635.659C945.397 703.363 893.941 760.739 832.319 793.168C771.901 824.964 698.76 827.167 633.068 808.526C573.7 791.68 536.06 739.105 491.477 696.453C448.564 655.398 382.573 623.874 378.171 564.669C373.762 505.357 435.285 465.008 470.718 417.229C497.405 381.244 521.158 344.112 559.246 320.504C598.348 296.267 643.435 292.199 688.374 282.32Z" stroke="url(#paint93_linear_148_344)" stroke-opacity="0.3" stroke-width="3"/>
<path opacity="0.95" fill-rule="evenodd" clip-rule="evenodd" d="M684.573 283.039C754.635 266.348 833.178 201.416 891.615 243.505C948.297 284.33 899.4 378.161 912.004 446.843C923.715 510.662 976.476 566.532 962.519 629.896C947.618 697.549 897.416 755.537 836.665 788.878C777.101 821.567 704.364 825.03 638.678 807.623C579.314 791.891 540.95 740.228 495.85 698.56C452.439 658.453 386.231 628.23 380.824 569.393C375.406 510.448 435.921 469.228 470.348 421.068C496.276 384.795 519.266 347.433 556.753 323.279C595.24 298.482 640.03 293.65 684.573 283.039Z" stroke="url(#paint94_linear_148_344)" stroke-opacity="0.3" stroke-width="3"/>
<path opacity="0.96" fill-rule="evenodd" clip-rule="evenodd" d="M680.754 283.873C750.173 266.047 827.194 200.071 886.069 240.937C943.174 280.575 896.152 374.793 909.884 442.918C922.644 506.219 976.111 560.896 963.324 624.19C949.672 691.768 900.729 750.343 840.862 784.575C782.166 818.138 709.855 822.848 644.196 806.668C584.858 792.045 545.79 741.303 500.194 700.625C456.305 661.469 389.905 632.546 383.503 574.093C377.09 515.533 436.585 473.465 470.002 424.944C495.17 388.4 517.396 350.822 554.275 326.136C592.138 300.792 636.619 295.206 680.754 283.873Z" stroke="url(#paint95_linear_148_344)" stroke-opacity="0.3" stroke-width="3"/>
<path opacity="0.97" fill-rule="evenodd" clip-rule="evenodd" d="M676.917 284.821C745.677 265.878 821.163 198.891 880.449 238.531C937.954 276.981 892.806 371.549 907.651 439.097C921.446 501.863 975.591 555.341 963.968 618.543C951.558 686.024 903.879 745.159 844.91 780.261C787.092 814.677 715.229 820.62 649.621 805.661C590.329 792.142 550.578 742.33 504.505 702.645C460.158 664.447 393.591 636.82 386.207 578.768C378.81 520.609 437.274 477.716 469.68 428.855C494.087 392.054 515.547 354.277 551.812 329.073C589.043 303.197 633.202 296.865 676.917 284.821Z" stroke="url(#paint96_linear_148_344)" stroke-opacity="0.3" stroke-width="3"/>
<path opacity="0.98" fill-rule="evenodd" clip-rule="evenodd" d="M673.064 285.886C741.146 265.842 815.086 197.877 874.759 236.29C932.64 273.549 889.363 368.431 905.306 435.385C920.12 497.599 974.919 549.87 964.452 612.96C953.277 680.32 906.867 739.989 848.806 775.941C791.88 811.19 720.484 818.352 654.95 804.607C595.724 792.185 555.31 743.312 508.782 704.625C463.997 667.387 397.289 641.054 388.934 583.419C380.565 525.678 437.987 481.983 469.38 432.802C493.024 395.761 513.72 357.799 549.362 332.09C585.955 305.696 629.78 298.629 673.064 285.886Z" stroke="url(#paint97_linear_148_344)" stroke-opacity="0.3" stroke-width="3"/>
<path opacity="0.99" fill-rule="evenodd" clip-rule="evenodd" d="M669.201 287.066C736.587 265.94 808.969 197.03 869.005 234.215C927.237 270.283 885.829 365.442 902.853 431.784C918.672 493.429 974.099 544.487 964.781 607.443C954.833 674.661 909.696 734.837 852.556 771.618C796.532 807.68 725.625 816.046 660.186 803.508C601.047 792.177 559.99 744.25 513.028 706.565C467.825 670.291 401 645.248 391.687 588.047C382.357 530.74 438.728 486.266 469.107 436.786C491.987 399.519 511.918 361.388 546.932 335.188C582.88 308.29 626.359 300.497 669.201 287.066Z" stroke="url(#paint98_linear_148_344)" stroke-opacity="0.3" stroke-width="3"/>
<path fill-rule="evenodd" clip-rule="evenodd" d="M665.329 288.362C732.003 266.172 802.818 196.352 863.192 232.307C921.751 267.182 882.207 362.582 900.297 428.296C917.105 489.356 973.135 539.195 964.958 601.997C956.227 669.049 912.367 729.707 856.158 767.296C801.048 804.149 730.65 813.705 665.329 802.366C606.296 792.119 564.617 745.146 517.242 708.466C471.64 673.159 404.723 649.403 394.465 592.651C384.188 535.794 439.497 490.564 468.861 440.805C490.976 403.328 510.143 365.042 544.523 338.366C579.819 310.979 622.94 302.47 665.329 288.362Z" stroke="url(#paint99_linear_148_344)" stroke-opacity="0.3" stroke-width="3"/>
<defs>
<linearGradient id="paint0_linear_148_344" x1="804.343" y1="558.516" x2="-53.0478" y2="422.719" gradientUnits="userSpaceOnUse">
<stop stop-color="#B620E0"/>
<stop offset="1" stop-color="#0047FF"/>
</linearGradient>
<linearGradient id="paint1_linear_148_344" x1="809.173" y1="553.85" x2="-47.6218" y2="433.435" gradientUnits="userSpaceOnUse">
<stop stop-color="#B620E0"/>
<stop offset="1" stop-color="#0047FF"/>
</linearGradient>
<linearGradient id="paint2_linear_148_344" x1="813.874" y1="549.121" x2="-42.0506" y2="444.027" gradientUnits="userSpaceOnUse">
<stop stop-color="#B620E0"/>
<stop offset="1" stop-color="#0047FF"/>
</linearGradient>
<linearGradient id="paint3_linear_148_344" x1="818.439" y1="544.334" x2="-36.3427" y2="454.493" gradientUnits="userSpaceOnUse">
<stop stop-color="#B620E0"/>
<stop offset="1" stop-color="#0047FF"/>
</linearGradient>
<linearGradient id="paint4_linear_148_344" x1="822.872" y1="539.491" x2="-30.4947" y2="464.831" gradientUnits="userSpaceOnUse">
<stop stop-color="#B620E0"/>
<stop offset="1" stop-color="#0047FF"/>
</linearGradient>
<linearGradient id="paint5_linear_148_344" x1="827.17" y1="534.594" x2="-24.5146" y2="475.039" gradientUnits="userSpaceOnUse">
<stop stop-color="#B620E0"/>
<stop offset="1" stop-color="#0047FF"/>
</linearGradient>
<linearGradient id="paint6_linear_148_344" x1="831.33" y1="529.647" x2="-18.405" y2="485.114" gradientUnits="userSpaceOnUse">
<stop stop-color="#B620E0"/>
<stop offset="1" stop-color="#0047FF"/>
</linearGradient>
<linearGradient id="paint7_linear_148_344" x1="835.356" y1="524.652" x2="-12.1664" y2="495.056" gradientUnits="userSpaceOnUse">
<stop stop-color="#B620E0"/>
<stop offset="1" stop-color="#0047FF"/>
</linearGradient>
<linearGradient id="paint8_linear_148_344" x1="839.243" y1="519.612" x2="-5.80357" y2="504.862" gradientUnits="userSpaceOnUse">
<stop stop-color="#B620E0"/>
<stop offset="1" stop-color="#0047FF"/>
</linearGradient>
<linearGradient id="paint9_linear_148_344" x1="842.992" y1="514.53" x2="0.67926" y2="514.53" gradientUnits="userSpaceOnUse">
<stop stop-color="#B620E0"/>
<stop offset="1" stop-color="#0047FF"/>
</linearGradient>
<linearGradient id="paint10_linear_148_344" x1="846.602" y1="509.409" x2="7.27951" y2="524.059" gradientUnits="userSpaceOnUse">
<stop stop-color="#B620E0"/>
<stop offset="1" stop-color="#0047FF"/>
</linearGradient>
<linearGradient id="paint11_linear_148_344" x1="850.074" y1="504.251" x2="13.9965" y2="533.447" gradientUnits="userSpaceOnUse">
<stop stop-color="#B620E0"/>
<stop offset="1" stop-color="#0047FF"/>
</linearGradient>
<linearGradient id="paint12_linear_148_344" x1="853.405" y1="499.06" x2="20.8229" y2="542.694" gradientUnits="userSpaceOnUse">
<stop stop-color="#B620E0"/>
<stop offset="1" stop-color="#0047FF"/>
</linearGradient>
<linearGradient id="paint13_linear_148_344" x1="856.594" y1="493.838" x2="27.7568" y2="551.796" gradientUnits="userSpaceOnUse">
<stop stop-color="#B620E0"/>
<stop offset="1" stop-color="#0047FF"/>
</linearGradient>
<linearGradient id="paint14_linear_148_344" x1="859.642" y1="488.589" x2="34.7944" y2="560.754" gradientUnits="userSpaceOnUse">
<stop stop-color="#B620E0"/>
<stop offset="1" stop-color="#0047FF"/>
</linearGradient>
<linearGradient id="paint15_linear_148_344" x1="862.548" y1="483.314" x2="41.9318" y2="569.565" gradientUnits="userSpaceOnUse">
<stop stop-color="#B620E0"/>
<stop offset="1" stop-color="#0047FF"/>
</linearGradient>
<linearGradient id="paint16_linear_148_344" x1="865.312" y1="478.018" x2="49.1675" y2="578.228" gradientUnits="userSpaceOnUse">
<stop stop-color="#B620E0"/>
<stop offset="1" stop-color="#0047FF"/>
</linearGradient>
<linearGradient id="paint17_linear_148_344" x1="867.935" y1="472.703" x2="56.4988" y2="586.743" gradientUnits="userSpaceOnUse">
<stop stop-color="#B620E0"/>
<stop offset="1" stop-color="#0047FF"/>
</linearGradient>
<linearGradient id="paint18_linear_148_344" x1="870.414" y1="467.372" x2="63.919" y2="595.108" gradientUnits="userSpaceOnUse">
<stop stop-color="#B620E0"/>
<stop offset="1" stop-color="#0047FF"/>
</linearGradient>
<linearGradient id="paint19_linear_148_344" x1="872.75" y1="462.028" x2="71.4266" y2="603.323" gradientUnits="userSpaceOnUse">
<stop stop-color="#B620E0"/>
<stop offset="1" stop-color="#0047FF"/>
</linearGradient>
<linearGradient id="paint20_linear_148_344" x1="874.944" y1="456.673" x2="79.0191" y2="611.385" gradientUnits="userSpaceOnUse">
<stop stop-color="#B620E0"/>
<stop offset="1" stop-color="#0047FF"/>
</linearGradient>
<linearGradient id="paint21_linear_148_344" x1="876.995" y1="451.311" x2="86.6915" y2="619.295" gradientUnits="userSpaceOnUse">
<stop stop-color="#B620E0"/>
<stop offset="1" stop-color="#0047FF"/>
</linearGradient>
<linearGradient id="paint22_linear_148_344" x1="878.902" y1="445.945" x2="94.4402" y2="627.052" gradientUnits="userSpaceOnUse">
<stop stop-color="#B620E0"/>
<stop offset="1" stop-color="#0047FF"/>
</linearGradient>
<linearGradient id="paint23_linear_148_344" x1="880.666" y1="440.577" x2="102.262" y2="634.655" gradientUnits="userSpaceOnUse">
<stop stop-color="#B620E0"/>
<stop offset="1" stop-color="#0047FF"/>
</linearGradient>
<linearGradient id="paint24_linear_148_344" x1="882.288" y1="435.211" x2="110.155" y2="642.104" gradientUnits="userSpaceOnUse">
<stop stop-color="#B620E0"/>
<stop offset="1" stop-color="#0047FF"/>
</linearGradient>
<linearGradient id="paint25_linear_148_344" x1="883.768" y1="429.85" x2="118.115" y2="649.397" gradientUnits="userSpaceOnUse">
<stop stop-color="#B620E0"/>
<stop offset="1" stop-color="#0047FF"/>
</linearGradient>
<linearGradient id="paint26_linear_148_344" x1="885.105" y1="424.495" x2="126.138" y2="656.534" gradientUnits="userSpaceOnUse">
<stop stop-color="#B620E0"/>
<stop offset="1" stop-color="#0047FF"/>
</linearGradient>
<linearGradient id="paint27_linear_148_344" x1="886.298" y1="419.151" x2="134.219" y2="663.516" gradientUnits="userSpaceOnUse">
<stop stop-color="#B620E0"/>
<stop offset="1" stop-color="#0047FF"/>
</linearGradient>
<linearGradient id="paint28_linear_148_344" x1="887.349" y1="413.82" x2="142.357" y2="670.341" gradientUnits="userSpaceOnUse">
<stop stop-color="#B620E0"/>
<stop offset="1" stop-color="#0047FF"/>
</linearGradient>
<linearGradient id="paint29_linear_148_344" x1="888.261" y1="408.504" x2="150.549" y2="677.01" gradientUnits="userSpaceOnUse">
<stop stop-color="#B620E0"/>
<stop offset="1" stop-color="#0047FF"/>
</linearGradient>
<linearGradient id="paint30_linear_148_344" x1="889.03" y1="403.208" x2="158.788" y2="683.522" gradientUnits="userSpaceOnUse">
<stop stop-color="#B620E0"/>
<stop offset="1" stop-color="#0047FF"/>
</linearGradient>
<linearGradient id="paint31_linear_148_344" x1="889.659" y1="397.933" x2="167.075" y2="689.876" gradientUnits="userSpaceOnUse">
<stop stop-color="#B620E0"/>
<stop offset="1" stop-color="#0047FF"/>
</linearGradient>
<linearGradient id="paint32_linear_148_344" x1="890.148" y1="392.683" x2="175.405" y2="696.074" gradientUnits="userSpaceOnUse">
<stop stop-color="#B620E0"/>
<stop offset="1" stop-color="#0047FF"/>
</linearGradient>
<linearGradient id="paint33_linear_148_344" x1="890.499" y1="387.461" x2="183.775" y2="702.114" gradientUnits="userSpaceOnUse">
<stop stop-color="#B620E0"/>
<stop offset="1" stop-color="#0047FF"/>
</linearGradient>
<linearGradient id="paint34_linear_148_344" x1="890.71" y1="382.269" x2="192.18" y2="707.999" gradientUnits="userSpaceOnUse">
<stop stop-color="#B620E0"/>
<stop offset="1" stop-color="#0047FF"/>
</linearGradient>
<linearGradient id="paint35_linear_148_344" x1="890.782" y1="377.109" x2="200.616" y2="713.726" gradientUnits="userSpaceOnUse">
<stop stop-color="#B620E0"/>
<stop offset="1" stop-color="#0047FF"/>
</linearGradient>
<linearGradient id="paint36_linear_148_344" x1="890.719" y1="371.986" x2="209.083" y2="719.297" gradientUnits="userSpaceOnUse">
<stop stop-color="#B620E0"/>
<stop offset="1" stop-color="#0047FF"/>
</linearGradient>
<linearGradient id="paint37_linear_148_344" x1="890.519" y1="366.901" x2="217.577" y2="724.711" gradientUnits="userSpaceOnUse">
<stop stop-color="#B620E0"/>
<stop offset="1" stop-color="#0047FF"/>
</linearGradient>
<linearGradient id="paint38_linear_148_344" x1="890.183" y1="361.858" x2="226.092" y2="729.969" gradientUnits="userSpaceOnUse">
<stop stop-color="#B620E0"/>
<stop offset="1" stop-color="#0047FF"/>
</linearGradient>
<linearGradient id="paint39_linear_148_344" x1="889.713" y1="356.858" x2="234.626" y2="735.073" gradientUnits="userSpaceOnUse">
<stop stop-color="#B620E0"/>
<stop offset="1" stop-color="#0047FF"/>
</linearGradient>
<linearGradient id="paint40_linear_148_344" x1="889.109" y1="351.906" x2="243.177" y2="740.021" gradientUnits="userSpaceOnUse">
<stop stop-color="#B620E0"/>
<stop offset="1" stop-color="#0047FF"/>
</linearGradient>
<linearGradient id="paint41_linear_148_344" x1="888.373" y1="347.003" x2="251.74" y2="744.815" gradientUnits="userSpaceOnUse">
<stop stop-color="#B620E0"/>
<stop offset="1" stop-color="#0047FF"/>
</linearGradient>
<linearGradient id="paint42_linear_148_344" x1="887.503" y1="342.152" x2="260.311" y2="749.456" gradientUnits="userSpaceOnUse">
<stop stop-color="#B620E0"/>
<stop offset="1" stop-color="#0047FF"/>
</linearGradient>
<linearGradient id="paint43_linear_148_344" x1="886.506" y1="337.357" x2="268.892" y2="753.943" gradientUnits="userSpaceOnUse">
<stop stop-color="#B620E0"/>
<stop offset="1" stop-color="#0047FF"/>
</linearGradient>
<linearGradient id="paint44_linear_148_344" x1="885.381" y1="332.618" x2="277.476" y2="758.278" gradientUnits="userSpaceOnUse">
<stop stop-color="#B620E0"/>
<stop offset="1" stop-color="#0047FF"/>
</linearGradient>
<linearGradient id="paint45_linear_148_344" x1="884.126" y1="327.94" x2="286.058" y2="762.462" gradientUnits="userSpaceOnUse">
<stop stop-color="#B620E0"/>
<stop offset="1" stop-color="#0047FF"/>
</linearGradient>
<linearGradient id="paint46_linear_148_344" x1="882.746" y1="323.325" x2="294.639" y2="766.495" gradientUnits="userSpaceOnUse">
<stop stop-color="#B620E0"/>
<stop offset="1" stop-color="#0047FF"/>
</linearGradient>
<linearGradient id="paint47_linear_148_344" x1="881.241" y1="318.775" x2="303.214" y2="770.379" gradientUnits="userSpaceOnUse">
<stop stop-color="#B620E0"/>
<stop offset="1" stop-color="#0047FF"/>
</linearGradient>
<linearGradient id="paint48_linear_148_344" x1="879.612" y1="314.292" x2="311.779" y2="774.114" gradientUnits="userSpaceOnUse">
<stop stop-color="#B620E0"/>
<stop offset="1" stop-color="#0047FF"/>
</linearGradient>
<linearGradient id="paint49_linear_148_344" x1="877.861" y1="309.879" x2="320.333" y2="777.701" gradientUnits="userSpaceOnUse">
<stop stop-color="#B620E0"/>
<stop offset="1" stop-color="#0047FF"/>
</linearGradient>
<linearGradient id="paint50_linear_148_344" x1="875.989" y1="305.54" x2="328.871" y2="781.142" gradientUnits="userSpaceOnUse">
<stop stop-color="#B620E0"/>
<stop offset="1" stop-color="#0047FF"/>
</linearGradient>
<linearGradient id="paint51_linear_148_344" x1="873.999" y1="301.275" x2="337.392" y2="784.438" gradientUnits="userSpaceOnUse">
<stop stop-color="#B620E0"/>
<stop offset="1" stop-color="#0047FF"/>
</linearGradient>
<linearGradient id="paint52_linear_148_344" x1="871.89" y1="297.087" x2="345.891" y2="787.589" gradientUnits="userSpaceOnUse">
<stop stop-color="#B620E0"/>
<stop offset="1" stop-color="#0047FF"/>
</linearGradient>
<linearGradient id="paint53_linear_148_344" x1="869.667" y1="292.98" x2="354.368" y2="790.599" gradientUnits="userSpaceOnUse">
<stop stop-color="#B620E0"/>
<stop offset="1" stop-color="#0047FF"/>
</linearGradient>
<linearGradient id="paint54_linear_148_344" x1="867.331" y1="288.955" x2="362.82" y2="793.467" gradientUnits="userSpaceOnUse">
<stop stop-color="#B620E0"/>
<stop offset="1" stop-color="#0047FF"/>
</linearGradient>
<linearGradient id="paint55_linear_148_344" x1="864.883" y1="285.014" x2="371.241" y2="796.194" gradientUnits="userSpaceOnUse">
<stop stop-color="#B620E0"/>
<stop offset="1" stop-color="#0047FF"/>
</linearGradient>
<linearGradient id="paint56_linear_148_344" x1="862.323" y1="281.16" x2="379.631" y2="798.784" gradientUnits="userSpaceOnUse">
<stop stop-color="#B620E0"/>
<stop offset="1" stop-color="#0047FF"/>
</linearGradient>
<linearGradient id="paint57_linear_148_344" x1="859.653" y1="277.395" x2="387.984" y2="801.236" gradientUnits="userSpaceOnUse">
<stop stop-color="#B620E0"/>
<stop offset="1" stop-color="#0047FF"/>
</linearGradient>
<linearGradient id="paint58_linear_148_344" x1="856.879" y1="273.72" x2="396.302" y2="803.554" gradientUnits="userSpaceOnUse">
<stop stop-color="#B620E0"/>
<stop offset="1" stop-color="#0047FF"/>
</linearGradient>
<linearGradient id="paint59_linear_148_344" x1="853.999" y1="270.139" x2="404.579" y2="805.737" gradientUnits="userSpaceOnUse">
<stop stop-color="#B620E0"/>
<stop offset="1" stop-color="#0047FF"/>
</linearGradient>
<linearGradient id="paint60_linear_148_344" x1="851.016" y1="266.653" x2="412.813" y2="807.788" gradientUnits="userSpaceOnUse">
<stop stop-color="#B620E0"/>
<stop offset="1" stop-color="#0047FF"/>
</linearGradient>
<linearGradient id="paint61_linear_148_344" x1="847.933" y1="263.265" x2="421.004" y2="809.709" gradientUnits="userSpaceOnUse">
<stop stop-color="#B620E0"/>
<stop offset="1" stop-color="#0047FF"/>
</linearGradient>
<linearGradient id="paint62_linear_148_344" x1="844.752" y1="259.976" x2="429.147" y2="811.501" gradientUnits="userSpaceOnUse">
<stop stop-color="#B620E0"/>
<stop offset="1" stop-color="#0047FF"/>
</linearGradient>
<linearGradient id="paint63_linear_148_344" x1="841.474" y1="256.788" x2="437.241" y2="813.167" gradientUnits="userSpaceOnUse">
<stop stop-color="#B620E0"/>
<stop offset="1" stop-color="#0047FF"/>
</linearGradient>
<linearGradient id="paint64_linear_148_344" x1="838.1" y1="253.703" x2="445.281" y2="814.707" gradientUnits="userSpaceOnUse">
<stop stop-color="#B620E0"/>
<stop offset="1" stop-color="#0047FF"/>
</linearGradient>
<linearGradient id="paint65_linear_148_344" x1="834.637" y1="250.724" x2="453.27" y2="816.125" gradientUnits="userSpaceOnUse">
<stop stop-color="#B620E0"/>
<stop offset="1" stop-color="#0047FF"/>
</linearGradient>
<linearGradient id="paint66_linear_148_344" x1="831.082" y1="247.852" x2="461.199" y2="817.421" gradientUnits="userSpaceOnUse">
<stop stop-color="#B620E0"/>
<stop offset="1" stop-color="#0047FF"/>
</linearGradient>
<linearGradient id="paint67_linear_148_344" x1="827.44" y1="245.088" x2="469.071" y2="818.598" gradientUnits="userSpaceOnUse">
<stop stop-color="#B620E0"/>
<stop offset="1" stop-color="#0047FF"/>
</linearGradient>
<linearGradient id="paint68_linear_148_344" x1="823.711" y1="242.434" x2="476.881" y2="819.658" gradientUnits="userSpaceOnUse">
<stop stop-color="#B620E0"/>
<stop offset="1" stop-color="#0047FF"/>
</linearGradient>
<linearGradient id="paint69_linear_148_344" x1="819.899" y1="239.893" x2="484.627" y2="820.602" gradientUnits="userSpaceOnUse">
<stop stop-color="#B620E0"/>
<stop offset="1" stop-color="#0047FF"/>
</linearGradient>
<linearGradient id="paint70_linear_148_344" x1="816.007" y1="237.466" x2="492.308" y2="821.434" gradientUnits="userSpaceOnUse">
<stop stop-color="#B620E0"/>
<stop offset="1" stop-color="#0047FF"/>
</linearGradient>
<linearGradient id="paint71_linear_148_344" x1="812.038" y1="235.154" x2="499.924" y2="822.155" gradientUnits="userSpaceOnUse">
<stop stop-color="#B620E0"/>
<stop offset="1" stop-color="#0047FF"/>
</linearGradient>
<linearGradient id="paint72_linear_148_344" x1="807.99" y1="232.959" x2="507.468" y2="822.767" gradientUnits="userSpaceOnUse">
<stop stop-color="#B620E0"/>
<stop offset="1" stop-color="#0047FF"/>
</linearGradient>
<linearGradient id="paint73_linear_148_344" x1="803.872" y1="230.883" x2="514.944" y2="823.273" gradientUnits="userSpaceOnUse">
<stop stop-color="#B620E0"/>
<stop offset="1" stop-color="#0047FF"/>
</linearGradient>
<linearGradient id="paint74_linear_148_344" x1="799.68" y1="228.927" x2="522.345" y2="823.675" gradientUnits="userSpaceOnUse">
<stop stop-color="#B620E0"/>
<stop offset="1" stop-color="#0047FF"/>
</linearGradient>
<linearGradient id="paint75_linear_148_344" x1="795.419" y1="227.092" x2="529.67" y2="823.974" gradientUnits="userSpaceOnUse">
<stop stop-color="#B620E0"/>
<stop offset="1" stop-color="#0047FF"/>
</linearGradient>
<linearGradient id="paint76_linear_148_344" x1="791.093" y1="225.38" x2="536.92" y2="824.173" gradientUnits="userSpaceOnUse">
<stop stop-color="#B620E0"/>
<stop offset="1" stop-color="#0047FF"/>
</linearGradient>
<linearGradient id="paint77_linear_148_344" x1="786.703" y1="223.792" x2="544.091" y2="824.276" gradientUnits="userSpaceOnUse">
<stop stop-color="#B620E0"/>
<stop offset="1" stop-color="#0047FF"/>
</linearGradient>
<linearGradient id="paint78_linear_148_344" x1="782.253" y1="222.329" x2="551.185" y2="824.283" gradientUnits="userSpaceOnUse">
<stop stop-color="#B620E0"/>
<stop offset="1" stop-color="#0047FF"/>
</linearGradient>
<linearGradient id="paint79_linear_148_344" x1="777.745" y1="220.992" x2="558.196" y2="824.197" gradientUnits="userSpaceOnUse">
<stop stop-color="#B620E0"/>
<stop offset="1" stop-color="#0047FF"/>
</linearGradient>
<linearGradient id="paint80_linear_148_344" x1="773.179" y1="219.784" x2="565.123" y2="824.022" gradientUnits="userSpaceOnUse">
<stop stop-color="#B620E0"/>
<stop offset="1" stop-color="#0047FF"/>
</linearGradient>
<linearGradient id="paint81_linear_148_344" x1="768.562" y1="218.704" x2="571.968" y2="823.758" gradientUnits="userSpaceOnUse">
<stop stop-color="#B620E0"/>
<stop offset="1" stop-color="#0047FF"/>
</linearGradient>
<linearGradient id="paint82_linear_148_344" x1="763.895" y1="217.754" x2="578.727" y2="823.409" gradientUnits="userSpaceOnUse">
<stop stop-color="#B620E0"/>
<stop offset="1" stop-color="#0047FF"/>
</linearGradient>
<linearGradient id="paint83_linear_148_344" x1="759.179" y1="216.934" x2="585.399" y2="822.977" gradientUnits="userSpaceOnUse">
<stop stop-color="#B620E0"/>
<stop offset="1" stop-color="#0047FF"/>
</linearGradient>
<linearGradient id="paint84_linear_148_344" x1="754.416" y1="216.246" x2="591.981" y2="822.465" gradientUnits="userSpaceOnUse">
<stop stop-color="#B620E0"/>
<stop offset="1" stop-color="#0047FF"/>
</linearGradient>
<linearGradient id="paint85_linear_148_344" x1="749.613" y1="215.691" x2="598.475" y2="821.874" gradientUnits="userSpaceOnUse">
<stop stop-color="#B620E0"/>
<stop offset="1" stop-color="#0047FF"/>
</linearGradient>
<linearGradient id="paint86_linear_148_344" x1="744.77" y1="215.27" x2="604.878" y2="821.209" gradientUnits="userSpaceOnUse">
<stop stop-color="#B620E0"/>
<stop offset="1" stop-color="#0047FF"/>
</linearGradient>
<linearGradient id="paint87_linear_148_344" x1="739.892" y1="214.982" x2="611.192" y2="820.47" gradientUnits="userSpaceOnUse">
<stop stop-color="#B620E0"/>
<stop offset="1" stop-color="#0047FF"/>
</linearGradient>
<linearGradient id="paint88_linear_148_344" x1="734.978" y1="214.829" x2="617.411" y2="819.661" gradientUnits="userSpaceOnUse">
<stop stop-color="#B620E0"/>
<stop offset="1" stop-color="#0047FF"/>
</linearGradient>
<linearGradient id="paint89_linear_148_344" x1="730.034" y1="214.812" x2="623.537" y2="818.784" gradientUnits="userSpaceOnUse">
<stop stop-color="#B620E0"/>
<stop offset="1" stop-color="#0047FF"/>
</linearGradient>
<linearGradient id="paint90_linear_148_344" x1="725.06" y1="214.931" x2="629.568" y2="817.842" gradientUnits="userSpaceOnUse">
<stop stop-color="#B620E0"/>
<stop offset="1" stop-color="#0047FF"/>
</linearGradient>
<linearGradient id="paint91_linear_148_344" x1="720.062" y1="215.187" x2="635.505" y2="816.838" gradientUnits="userSpaceOnUse">
<stop stop-color="#B620E0"/>
<stop offset="1" stop-color="#0047FF"/>
</linearGradient>
<linearGradient id="paint92_linear_148_344" x1="715.038" y1="215.579" x2="641.344" y2="815.773" gradientUnits="userSpaceOnUse">
<stop stop-color="#B620E0"/>
<stop offset="1" stop-color="#0047FF"/>
</linearGradient>
<linearGradient id="paint93_linear_148_344" x1="709.998" y1="216.11" x2="647.088" y2="814.652" gradientUnits="userSpaceOnUse">
<stop stop-color="#B620E0"/>
<stop offset="1" stop-color="#0047FF"/>
</linearGradient>
<linearGradient id="paint94_linear_148_344" x1="704.938" y1="216.778" x2="652.734" y2="813.474" gradientUnits="userSpaceOnUse">
<stop stop-color="#B620E0"/>
<stop offset="1" stop-color="#0047FF"/>
</linearGradient>
<linearGradient id="paint95_linear_148_344" x1="699.866" y1="217.586" x2="658.284" y2="812.246" gradientUnits="userSpaceOnUse">
<stop stop-color="#B620E0"/>
<stop offset="1" stop-color="#0047FF"/>
</linearGradient>
<linearGradient id="paint96_linear_148_344" x1="694.783" y1="218.53" x2="663.734" y2="810.967" gradientUnits="userSpaceOnUse">
<stop stop-color="#B620E0"/>
<stop offset="1" stop-color="#0047FF"/>
</linearGradient>
<linearGradient id="paint97_linear_148_344" x1="689.688" y1="219.614" x2="669.084" y2="809.641" gradientUnits="userSpaceOnUse">
<stop stop-color="#B620E0"/>
<stop offset="1" stop-color="#0047FF"/>
</linearGradient>
<linearGradient id="paint98_linear_148_344" x1="684.589" y1="220.837" x2="674.335" y2="808.272" gradientUnits="userSpaceOnUse">
<stop stop-color="#B620E0"/>
<stop offset="1" stop-color="#0047FF"/>
</linearGradient>
<linearGradient id="paint99_linear_148_344" x1="679.488" y1="222.199" x2="679.488" y2="806.861" gradientUnits="userSpaceOnUse">
<stop stop-color="#B620E0"/>
<stop offset="1" stop-color="#0047FF"/>
</linearGradient>
</defs>
</svg>
