<svg width="22" height="23" viewBox="0 0 22 23" fill="none" xmlns="http://www.w3.org/2000/svg">
<path d="M10.997 7.92403C8.97722 7.92403 7.32888 9.5754 7.32888 11.599C7.32888 13.6225 8.97722 15.2739 10.997 15.2739C13.0169 15.2739 14.6652 13.6225 14.6652 11.599C14.6652 9.5754 13.0169 7.92403 10.997 7.92403ZM21.9988 11.599C21.9988 10.0772 22.0125 8.56914 21.9272 7.05009C21.8419 5.28568 21.4402 3.71977 20.1523 2.42955C18.8617 1.13657 17.3014 0.73682 15.5403 0.651356C14.0213 0.565893 12.516 0.579677 10.9998 0.579677C9.4808 0.579677 7.97556 0.565893 6.45931 0.651356C4.69816 0.73682 3.13513 1.13933 1.84728 2.42955C0.556684 3.72253 0.157672 5.28568 0.0723655 7.05009C-0.0129406 8.57189 0.000818509 10.0799 0.000818509 11.599C0.000818509 13.118 -0.0129406 14.6288 0.0723655 16.1478C0.157672 17.9122 0.559436 19.4781 1.84728 20.7684C3.13788 22.0613 4.69816 22.4611 6.45931 22.5466C7.97831 22.632 9.48355 22.6182 10.9998 22.6182C12.5188 22.6182 14.024 22.632 15.5403 22.5466C17.3014 22.4611 18.8645 22.0586 20.1523 20.7684C21.4429 19.4754 21.8419 17.9122 21.9272 16.1478C22.0153 14.6288 21.9988 13.1208 21.9988 11.599V11.599ZM10.997 17.2533C7.87374 17.2533 5.35308 14.728 5.35308 11.599C5.35308 8.46989 7.87374 5.94458 10.997 5.94458C14.1203 5.94458 16.641 8.46989 16.641 11.599C16.641 14.728 14.1203 17.2533 10.997 17.2533ZM16.8722 7.03355C16.1429 7.03355 15.554 6.44358 15.554 5.713C15.554 4.98243 16.1429 4.39245 16.8722 4.39245C17.6014 4.39245 18.1903 4.98243 18.1903 5.713C18.1905 5.88648 18.1565 6.0583 18.0904 6.21861C18.0242 6.37893 17.9271 6.52459 17.8047 6.64726C17.6822 6.76992 17.5369 6.86719 17.3768 6.93347C17.2168 6.99976 17.0453 7.03377 16.8722 7.03355V7.03355Z" fill="#F8F8F8"/>
</svg>
