<svg width="23" height="29" viewBox="0 0 23 29" fill="none" xmlns="http://www.w3.org/2000/svg">
<path d="M11.4999 17.7744C14.671 17.7744 17.2499 15.2438 17.2499 12.1321C17.2499 9.02033 14.671 6.48975 11.4999 6.48975C8.32885 6.48975 5.75 9.02033 5.75 12.1321C5.75 15.2438 8.32885 17.7744 11.4999 17.7744ZM11.4999 9.31091C13.0855 9.31091 14.3749 10.5762 14.3749 12.1321C14.3749 13.688 13.0855 14.9532 11.4999 14.9532C9.91439 14.9532 8.62497 13.688 8.62497 12.1321C8.62497 10.5762 9.91439 9.31091 11.4999 9.31091Z" fill="#F8F8F8"/>
<path d="M10.6663 28.1754C10.9096 28.3459 11.201 28.4375 11.5 28.4375C11.799 28.4375 12.0905 28.3459 12.3337 28.1754C12.7707 27.8721 23.0416 20.5949 22.9999 11.5107C22.9999 5.28866 17.8407 0.226073 11.5 0.226073C5.15926 0.226074 0.000127013 5.28866 0.000127579 11.5037C-0.0415586 20.5949 10.2293 27.8721 10.6663 28.1754ZM11.5 3.04724C16.2566 3.04724 20.1249 6.84312 20.1249 11.5178C20.1551 17.778 13.8172 23.3991 11.5 25.2428C9.18422 23.3977 2.84491 17.7752 2.8751 11.5107C2.8751 6.84312 6.74337 3.04724 11.5 3.04724Z" fill="#F8F8F8"/>
</svg>
