<svg width="22" height="23" viewBox="0 0 22 23" fill="none" xmlns="http://www.w3.org/2000/svg">
<path d="M19.6842 11.2116H22C22 5.26078 17.5155 0.772705 11.5673 0.772705V3.09272C16.2707 3.09272 19.6842 6.50663 19.6842 11.2116Z" fill="#F8F8F8"/>
<path d="M11.5794 7.73303C14.0144 7.73303 15.0531 8.77356 15.0531 11.2131H17.3689C17.3689 7.47203 15.3136 5.41302 11.5794 5.41302V7.73303ZM15.5417 14.047C15.3192 13.8444 15.0269 13.7363 14.7263 13.7456C14.4258 13.7549 14.1407 13.8809 13.9311 14.0968L11.1602 16.9516C10.4933 16.824 9.1524 16.4053 7.77218 15.026C6.39196 13.6421 5.97396 12.2953 5.85006 11.6318L8.69735 8.85476C8.91319 8.64495 9.03909 8.35923 9.04838 8.05807C9.05767 7.75692 8.94964 7.46396 8.74714 7.24119L4.46868 2.52807C4.2661 2.30461 3.98454 2.16906 3.6838 2.15021C3.38306 2.13137 3.08683 2.23072 2.85803 2.42715L0.345382 4.58593C0.145193 4.78721 0.0257072 5.0551 0.00958971 5.33877C-0.00777886 5.62878 -0.338939 12.4983 4.97816 17.8274C9.61672 22.4733 15.4271 22.8131 17.0273 22.8131C17.2612 22.8131 17.4048 22.8062 17.443 22.8039C17.7261 22.788 17.9934 22.6677 18.1933 22.4663L20.347 19.9479C20.5433 19.7189 20.6426 19.4222 20.624 19.1209C20.6054 18.8196 20.4703 18.5375 20.2474 18.3344L15.5417 14.047Z" fill="#F8F8F8"/>
</svg>
