<svg aria-hidden="true" style="position: absolute; width: 0; height: 0; overflow: hidden;" version="1.1" xmlns="http://www.w3.org/2000/svg" xmlns:xlink="http://www.w3.org/1999/xlink">
<defs>
<symbol id="arrow" viewBox="0 0 34 32">
<path fill="none" stroke="#fff" style="stroke: var(--color1, #fff)" stroke-linejoin="miter" stroke-linecap="butt" stroke-miterlimit="4" stroke-width="3.5556" d="M1.904 30.643l28.913-28.703M30.817 1.94l-25.019-0.122M30.817 1.94l0.123 24.838"></path>
</symbol>

<symbol id="instagram" viewBox="0 0 31 32">
<path fill="#f8f8f8" style="fill: var(--color2, #f8f8f8)" d="M15.3 11.025c-2.81 0-5.103 2.298-5.103 5.113s2.293 5.113 5.103 5.113c2.81 0 5.104-2.298 5.104-5.113s-2.293-5.113-5.104-5.113zM30.607 16.138c0-2.117 0.019-4.215-0.1-6.329-0.119-2.455-0.678-4.633-2.469-6.429-1.796-1.799-3.966-2.355-6.417-2.474-2.113-0.119-4.208-0.1-6.317-0.1-2.113 0-4.208-0.019-6.317 0.1-2.45 0.119-4.625 0.679-6.417 2.474-1.796 1.799-2.351 3.974-2.469 6.429-0.119 2.117-0.1 4.215-0.1 6.329s-0.019 4.215 0.1 6.329c0.119 2.455 0.678 4.633 2.469 6.429 1.796 1.799 3.966 2.355 6.417 2.474 2.113 0.119 4.208 0.1 6.317 0.1 2.113 0 4.208 0.019 6.317-0.1 2.45-0.119 4.625-0.679 6.417-2.474 1.796-1.799 2.351-3.974 2.469-6.429 0.123-2.113 0.1-4.211 0.1-6.329v0zM15.3 24.005c-4.345 0-7.852-3.513-7.852-7.867s3.507-7.867 7.852-7.867c4.345 0 7.853 3.513 7.853 7.867s-3.507 7.867-7.853 7.867zM23.474 9.786c-1.015 0-1.834-0.821-1.834-1.837s0.819-1.837 1.834-1.837c1.015 0 1.834 0.821 1.834 1.837 0 0.241-0.047 0.48-0.139 0.703s-0.227 0.426-0.398 0.596c-0.17 0.171-0.373 0.306-0.595 0.398s-0.461 0.14-0.702 0.139v0z"></path>
</symbol>

<symbol id="location" viewBox="0 0 25 32">
<path fill="#f8f8f8" style="fill: var(--color2, #f8f8f8)" d="M12.69 19.613c3.499 0 6.345-2.792 6.345-6.226s-2.846-6.226-6.345-6.226c-3.499 0-6.345 2.792-6.345 6.226s2.846 6.226 6.345 6.226zM12.69 10.274c1.75 0 3.172 1.396 3.172 3.113s-1.423 3.113-3.172 3.113c-1.75 0-3.172-1.396-3.172-3.113s1.423-3.113 3.172-3.113z"></path>
<path fill="#f8f8f8" style="fill: var(--color2, #f8f8f8)" d="M11.77 31.090c0.268 0.188 0.59 0.289 0.92 0.289s0.652-0.101 0.92-0.289c0.482-0.335 11.816-8.365 11.77-18.389 0-6.866-5.693-12.452-12.69-12.452s-12.69 5.586-12.69 12.444c-0.046 10.032 11.287 18.062 11.77 18.396zM12.69 3.362c5.249 0 9.517 4.189 9.517 9.347 0.033 6.908-6.96 13.11-9.517 15.145-2.555-2.036-9.55-8.24-9.517-15.153 0-5.15 4.268-9.339 9.517-9.339z"></path>
</symbol>

<symbol id="phone" viewBox="0 0 31 32">
<path fill="#f8f8f8" style="fill: var(--color2, #f8f8f8)" d="M27.387 15.599h3.222c0-8.279-6.239-14.524-14.515-14.524v3.228c6.544 0 11.293 4.75 11.293 11.296z"></path>
<path fill="#f8f8f8" style="fill: var(--color2, #f8f8f8)" d="M16.11 10.759c3.388 0 4.833 1.448 4.833 4.842h3.222c0-5.205-2.86-8.070-8.055-8.070v3.228zM21.623 19.544c-0.31-0.282-0.716-0.432-1.134-0.419s-0.815 0.188-1.106 0.489l-3.855 3.972c-0.928-0.178-2.793-0.76-4.714-2.679-1.92-1.925-2.502-3.799-2.674-4.722l3.961-3.864c0.3-0.292 0.475-0.689 0.488-1.108s-0.137-0.827-0.419-1.137l-5.953-6.557c-0.282-0.311-0.674-0.499-1.092-0.526s-0.831 0.112-1.149 0.385l-3.496 3.004c-0.279 0.28-0.445 0.653-0.467 1.047-0.024 0.404-0.485 9.961 6.913 17.375 6.454 6.464 14.538 6.937 16.764 6.937 0.325 0 0.525-0.010 0.578-0.013 0.394-0.022 0.766-0.189 1.044-0.47l2.996-3.504c0.273-0.319 0.411-0.731 0.385-1.151s-0.214-0.812-0.524-1.094l-6.547-5.965z"></path>
</symbol>
</defs>
</svg>
