<svg width="390" height="1063" viewBox="0 0 390 1063" fill="none" xmlns="http://www.w3.org/2000/svg">
<path opacity="0.01" fill-rule="evenodd" clip-rule="evenodd" d="M135.083 440.927C170.501 382.889 178.313 286.091 246.505 276.14C312.647 266.487 344.639 363.418 400.476 402.197C452.36 438.229 526.259 441.513 560.633 494.297C597.334 550.655 603.718 623.844 586.026 687.123C568.681 749.166 522.343 799.9 466.326 831.617C415.702 860.281 354.351 850.314 295.384 851.688C238.626 853.01 173.417 876.275 129.194 839.472C84.8899 802.602 96.9862 734.07 86.8161 678.116C79.1565 635.974 68.7759 595.037 77.2221 553.531C85.8935 510.919 112.565 477.825 135.083 440.927Z" stroke="url(#paint0_linear_2527_193)" stroke-opacity="0.15" stroke-width="3"/>
<path opacity="0.02" fill-rule="evenodd" clip-rule="evenodd" d="M131.555 440.353C165.811 381.866 171.894 285.206 239.631 274.104C305.331 263.335 338.889 359.439 395.176 397.142C447.477 432.176 521.129 434.173 556.286 486.213C593.823 541.777 601.462 614.649 584.953 678.056C568.765 740.224 523.507 791.616 468.277 824.212C418.364 853.671 357.091 844.792 298.392 847.182C241.892 849.482 177.358 873.809 132.673 837.875C87.9059 801.875 98.7516 733.327 87.6432 677.707C79.2768 635.816 68.2218 595.175 75.906 553.64C83.795 510.999 109.777 477.536 131.555 440.353Z" stroke="url(#paint1_linear_2527_193)" stroke-opacity="0.15" stroke-width="3"/>
<path opacity="0.03" fill-rule="evenodd" clip-rule="evenodd" d="M128.051 439.851C161.14 380.938 165.505 284.447 232.766 272.205C298.007 260.33 333.11 355.582 389.824 392.205C442.523 426.234 515.905 426.952 551.828 478.237C590.184 532.994 599.069 605.528 583.738 669.04C568.707 731.312 524.536 783.341 470.106 816.8C420.915 847.038 359.74 839.245 301.326 842.643C245.099 845.913 181.259 871.287 136.128 836.228C90.9157 801.104 100.516 732.563 88.4785 677.292C79.4128 635.665 67.6915 595.33 74.6162 553.78C81.7255 511.123 107.014 477.306 128.051 439.851Z" stroke="url(#paint2_linear_2527_193)" stroke-opacity="0.15" stroke-width="3"/>
<path opacity="0.04" fill-rule="evenodd" clip-rule="evenodd" d="M124.573 439.425C156.493 380.107 159.149 283.815 225.917 270.444C290.679 257.475 327.306 351.849 384.427 387.387C437.503 420.408 510.594 419.855 547.267 470.373C586.423 524.311 596.541 596.484 582.387 660.081C568.509 722.435 525.433 775.08 471.815 809.385C423.357 840.388 362.299 833.675 304.187 838.073C248.25 842.307 185.119 868.713 139.562 834.533C93.921 800.292 102.28 731.78 89.3248 676.874C79.5673 635.522 67.1879 595.505 73.3559 553.953C79.6884 511.295 104.279 477.137 124.573 439.425Z" stroke="url(#paint3_linear_2527_193)" stroke-opacity="0.15" stroke-width="3"/>
<path opacity="0.05" fill-rule="evenodd" clip-rule="evenodd" d="M121.118 439.069C151.866 379.369 152.824 283.306 219.081 268.819C283.347 254.767 321.474 348.238 378.981 382.687C432.415 414.696 505.192 412.88 542.598 462.62C582.536 515.726 593.878 587.519 580.896 651.178C568.168 713.594 526.194 766.834 473.399 801.968C425.686 833.72 364.765 828.082 306.97 833.473C251.34 838.662 188.934 866.083 142.967 832.79C96.9162 799.435 104.04 730.974 90.1768 676.45C79.7354 635.385 66.7062 595.696 72.1207 554.156C77.6795 511.51 101.57 477.025 121.118 439.069Z" stroke="url(#paint4_linear_2527_193)" stroke-opacity="0.15" stroke-width="3"/>
<path opacity="0.06" fill-rule="evenodd" clip-rule="evenodd" d="M117.694 438.788C147.268 378.728 146.539 282.924 212.266 267.333C276.018 252.21 315.624 344.753 373.495 378.108C427.267 409.102 499.71 406.033 537.831 454.983C578.533 507.246 591.085 578.637 579.273 642.338C567.692 704.795 526.825 758.607 474.866 794.554C427.908 827.04 367.141 822.471 309.682 828.846C254.375 834.982 192.709 863.404 146.35 831.001C99.9067 798.538 105.802 730.151 91.0406 676.023C79.9232 635.256 66.253 595.906 70.9171 554.392C75.7055 511.772 98.892 476.973 117.694 438.788Z" stroke="url(#paint5_linear_2527_193)" stroke-opacity="0.15" stroke-width="3"/>
<path opacity="0.07" fill-rule="evenodd" clip-rule="evenodd" d="M114.303 438.579C142.701 378.18 140.297 282.665 205.476 265.982C268.697 249.801 309.759 341.392 367.972 373.651C422.063 403.625 494.149 399.312 532.969 447.462C574.417 498.871 588.167 569.839 577.52 633.561C567.082 696.038 527.328 750.402 476.216 787.143C430.023 820.348 369.43 816.843 312.323 824.193C257.354 831.268 196.444 860.674 149.711 829.166C102.892 797.6 107.565 729.307 91.9168 675.591C80.1316 635.134 65.8291 596.134 69.7464 554.659C73.7681 512.079 96.2481 476.979 114.303 438.579Z" stroke="url(#paint6_linear_2527_193)" stroke-opacity="0.15" stroke-width="3"/>
<path opacity="0.08" fill-rule="evenodd" clip-rule="evenodd" d="M110.943 438.44C138.164 377.725 134.096 282.529 198.71 264.767C261.383 247.539 303.878 338.155 362.412 369.314C416.802 398.266 488.511 392.719 528.012 440.058C570.187 490.602 585.123 561.126 575.637 624.848C566.337 687.325 527.702 742.219 477.447 779.738C432.03 813.645 371.629 811.198 314.89 819.514C260.275 827.519 200.135 857.893 153.046 827.284C105.87 796.619 109.326 728.444 92.8028 675.153C80.3581 635.017 65.4322 596.377 68.6065 554.954C71.8654 512.428 93.6362 477.041 110.943 438.44Z" stroke="url(#paint7_linear_2527_193)" stroke-opacity="0.15" stroke-width="3"/>
<path opacity="0.09" fill-rule="evenodd" clip-rule="evenodd" d="M107.609 438.37C133.652 377.361 127.934 282.511 191.966 263.684C254.073 245.422 297.977 335.041 356.812 365.097C411.481 393.024 482.792 386.254 522.956 432.772C565.84 482.44 581.949 552.501 573.619 616.201C565.452 678.657 527.942 734.06 478.555 772.338C433.922 806.932 373.732 805.537 317.377 814.81C263.131 823.736 203.776 855.062 156.348 825.356C108.833 795.596 111.08 727.559 93.6927 674.708C80.597 634.904 65.0568 596.635 67.492 555.278C69.9922 512.819 91.0517 477.158 107.609 438.37Z" stroke="url(#paint8_linear_2527_193)" stroke-opacity="0.15" stroke-width="3"/>
<path opacity="0.1" fill-rule="evenodd" clip-rule="evenodd" d="M104.316 438.373C129.181 377.091 121.825 282.617 185.258 262.738C246.784 243.456 292.073 332.053 351.187 361.004C406.115 387.905 477.007 379.921 517.818 425.609C561.391 474.39 578.659 543.968 571.481 607.627C564.443 670.042 528.061 725.931 479.553 764.952C435.714 800.217 375.752 799.866 319.796 810.086C265.936 819.924 207.379 852.185 159.63 823.386C111.794 794.534 112.84 726.657 94.5992 674.262C80.8613 634.8 64.7159 596.911 66.4164 555.633C68.1621 513.254 88.5083 477.333 104.316 438.373Z" stroke="url(#paint9_linear_2527_193)" stroke-opacity="0.15" stroke-width="3"/>
<path opacity="0.11" fill-rule="evenodd" clip-rule="evenodd" d="M101.057 438.443C124.743 376.912 115.763 282.842 178.579 261.924C239.509 241.635 286.159 329.189 345.531 357.033C400.698 382.906 471.151 373.719 512.59 418.568C556.834 466.452 575.249 535.528 569.216 599.124C563.301 661.478 528.052 717.832 480.432 757.577C437.396 793.497 377.681 794.184 322.14 805.342C268.679 816.082 210.934 849.26 162.882 821.371C114.743 793.431 114.595 725.735 95.5133 673.809C81.142 634.7 64.401 597.202 65.3711 556.015C66.367 513.73 85.998 477.563 101.057 438.443Z" stroke="url(#paint10_linear_2527_193)" stroke-opacity="0.15" stroke-width="3"/>
<path opacity="0.12" fill-rule="evenodd" clip-rule="evenodd" d="M97.8331 438.58C120.341 376.82 109.751 283.183 171.935 261.24C232.251 239.957 280.238 326.447 339.847 353.183C395.234 378.025 465.228 367.648 507.278 411.648C552.173 458.627 571.72 527.18 566.827 590.693C562.03 652.966 527.916 709.764 481.194 750.215C438.969 786.773 379.519 788.49 324.409 800.575C271.362 812.208 214.443 846.288 166.106 819.312C117.68 792.286 116.347 724.792 96.4364 673.348C81.4407 634.604 64.1136 597.505 64.358 556.423C64.6089 514.245 83.5232 477.845 97.8331 438.58Z" stroke="url(#paint11_linear_2527_193)" stroke-opacity="0.15" stroke-width="3"/>
<path opacity="0.13" fill-rule="evenodd" clip-rule="evenodd" d="M94.6488 438.786C115.979 376.82 103.794 283.643 165.33 260.69C225.017 238.427 274.316 323.831 334.14 349.457C389.728 373.269 459.243 361.712 501.885 404.855C547.414 450.918 568.079 518.931 564.319 582.341C560.633 644.512 527.659 701.732 481.844 742.871C440.438 780.051 381.271 782.791 326.606 795.794C273.988 808.309 217.907 843.272 169.302 817.211C120.608 791.103 118.098 723.831 97.3709 672.884C81.7601 634.513 63.8565 597.824 63.3801 556.859C62.8911 514.802 81.0875 478.183 94.6488 438.786Z" stroke="url(#paint12_linear_2527_193)" stroke-opacity="0.15" stroke-width="3"/>
<path opacity="0.14" fill-rule="evenodd" clip-rule="evenodd" d="M91.5035 439.059C111.658 376.908 97.8914 284.218 158.764 260.269C217.807 237.04 268.393 321.339 328.412 345.854C384.18 368.634 453.198 355.909 496.414 398.187C542.556 443.326 564.325 510.78 561.692 574.067C559.11 636.117 527.279 693.737 482.38 735.546C441.802 773.331 382.934 777.086 328.729 790.995C276.553 804.384 221.324 840.212 172.469 815.069C123.525 789.88 119.847 722.852 98.3151 672.415C82.0984 634.428 63.6282 598.156 62.4362 557.321C61.2124 515.398 78.69 478.573 91.5035 439.059Z" stroke="url(#paint13_linear_2527_193)" stroke-opacity="0.15" stroke-width="3"/>
<path opacity="0.15" fill-rule="evenodd" clip-rule="evenodd" d="M88.4017 439.397C107.381 377.083 92.0498 284.908 152.243 259.978C210.628 235.798 262.475 318.97 322.667 342.375C378.597 364.122 447.097 350.242 490.87 391.647C537.606 435.853 560.464 502.73 558.951 565.873C557.468 627.783 526.782 685.781 482.806 728.242C443.063 766.616 384.511 771.378 330.781 786.182C279.063 800.433 224.696 837.109 175.609 812.886C126.432 788.619 121.596 721.854 99.2723 671.939C82.4593 634.346 63.4323 598.502 61.53 557.81C59.5771 516.032 76.335 479.015 88.4017 439.397Z" stroke="url(#paint14_linear_2527_193)" stroke-opacity="0.15" stroke-width="3"/>
<path opacity="0.16" fill-rule="evenodd" clip-rule="evenodd" d="M85.3418 439.802C103.149 377.347 86.268 285.712 145.768 259.817C203.479 234.699 256.562 316.726 316.906 339.02C372.978 359.735 440.943 344.713 485.254 385.236C532.565 428.503 556.496 494.783 556.096 557.764C555.703 619.514 526.165 677.869 483.12 720.963C444.219 759.909 386.002 765.669 332.76 781.358C281.513 796.46 228.021 833.966 178.719 810.665C129.328 787.32 123.342 720.839 100.24 671.459C82.84 634.269 63.2664 598.862 60.6594 558.324C57.983 516.706 74.0208 479.51 85.3418 439.802Z" stroke="url(#paint15_linear_2527_193)" stroke-opacity="0.15" stroke-width="3"/>
<path opacity="0.17" fill-rule="evenodd" clip-rule="evenodd" d="M82.3263 440.27C98.9628 377.695 80.5492 286.628 139.34 259.782C196.365 233.742 250.656 314.604 311.133 335.788C367.328 355.471 434.738 339.319 479.569 378.954C527.435 421.272 552.425 486.94 553.129 549.738C553.82 611.308 525.43 669.999 483.325 713.707C445.273 753.209 387.406 759.958 334.668 776.52C283.904 792.463 231.299 830.781 181.8 808.402C132.211 785.981 125.087 719.804 101.218 670.973C83.2418 634.195 63.1318 599.233 59.8259 558.862C56.4318 517.416 71.7493 480.054 82.3263 440.27Z" stroke="url(#paint16_linear_2527_193)" stroke-opacity="0.15" stroke-width="3"/>
<path opacity="0.18" fill-rule="evenodd" clip-rule="evenodd" d="M79.3537 440.8C94.8225 378.126 74.8928 287.653 132.961 259.871C189.284 232.924 244.759 312.604 305.347 332.678C361.645 351.33 428.483 334.061 473.815 372.801C522.217 414.164 548.25 479.201 550.052 541.797C551.818 603.17 524.578 662.173 483.42 706.478C446.223 746.518 388.723 754.247 336.501 771.671C286.235 788.443 234.527 827.555 184.849 806.099C135.08 784.604 126.827 718.749 102.206 670.479C83.6623 634.123 63.0263 599.614 59.0274 559.423C54.9219 518.16 69.5191 480.646 79.3537 440.8Z" stroke="url(#paint17_linear_2527_193)" stroke-opacity="0.15" stroke-width="3"/>
<path opacity="0.19" fill-rule="evenodd" clip-rule="evenodd" d="M76.4288 441.394C90.7331 378.642 69.3045 288.788 126.636 260.087C182.244 232.248 238.876 310.727 299.555 329.692C355.937 347.315 422.184 328.942 468 366.782C516.918 407.182 543.978 471.571 546.868 533.946C549.702 595.102 523.613 654.398 483.408 699.279C447.073 739.841 389.956 748.54 338.264 766.815C288.509 784.405 237.708 824.292 187.869 803.76C137.938 783.191 128.567 717.679 103.206 669.98C84.1052 634.056 62.9536 600.008 58.2679 560.008C53.4573 518.941 67.3345 481.289 76.4288 441.394Z" stroke="url(#paint18_linear_2527_193)" stroke-opacity="0.15" stroke-width="3"/>
<path opacity="0.2" fill-rule="evenodd" clip-rule="evenodd" d="M73.55 442.048C86.6934 379.241 63.7834 290.032 120.364 260.427C175.245 231.711 233.007 308.971 293.756 326.83C350.203 343.424 415.842 323.962 462.123 360.894C511.537 400.326 539.608 464.051 543.578 526.185C547.471 587.106 522.534 646.671 483.289 692.111C447.821 733.177 391.103 742.838 339.955 761.95C290.722 780.347 240.84 820.991 190.856 801.383C140.78 781.74 130.302 716.589 104.215 669.475C84.568 633.99 62.9114 600.412 57.5453 560.615C52.0361 519.757 65.1938 481.979 73.55 442.048Z" stroke="url(#paint19_linear_2527_193)" stroke-opacity="0.15" stroke-width="3"/>
<path opacity="0.21" fill-rule="evenodd" clip-rule="evenodd" d="M70.7198 442.763C82.7061 379.921 58.3327 291.381 114.15 260.888C168.29 231.312 227.155 307.337 287.954 324.09C344.447 339.657 409.461 319.12 456.189 355.139C506.079 393.595 535.145 456.64 540.186 518.516C545.13 579.182 521.343 638.997 483.064 684.976C448.469 726.529 392.166 737.141 341.574 757.079C292.877 776.271 243.923 817.653 193.812 798.969C143.609 780.252 132.035 715.482 105.236 668.963C85.0521 633.926 62.9011 600.826 56.8611 561.243C50.6602 520.605 63.0992 482.716 70.7198 442.763Z" stroke="url(#paint20_linear_2527_193)" stroke-opacity="0.15" stroke-width="3"/>
<path opacity="0.22" fill-rule="evenodd" clip-rule="evenodd" d="M67.9425 443.537C78.7761 380.681 52.9578 292.834 107.999 261.471C161.386 231.049 221.326 305.822 282.154 321.473C338.675 336.016 403.047 314.418 450.203 349.518C500.55 386.994 530.594 449.342 536.697 510.94C542.682 571.334 520.046 631.376 482.739 677.876C449.022 719.9 393.149 731.452 343.126 752.204C294.976 772.178 246.959 814.279 196.739 796.52C146.426 778.727 133.768 714.357 106.271 668.444C85.5609 633.865 62.9264 601.249 56.2193 561.892C49.3335 521.487 61.0548 483.499 67.9425 443.537Z" stroke="url(#paint21_linear_2527_193)" stroke-opacity="0.15" stroke-width="3"/>
<path opacity="0.23" fill-rule="evenodd" clip-rule="evenodd" d="M65.2141 444.369C74.8996 381.52 47.6551 294.391 101.907 262.173C154.529 230.923 215.518 304.428 276.355 318.979C332.885 332.5 396.598 309.856 444.163 344.032C494.947 380.521 525.952 442.158 533.108 503.46C540.124 563.564 518.639 623.812 482.308 670.813C449.475 713.29 394.047 725.772 344.606 747.325C297.015 768.07 249.945 810.871 199.632 794.035C149.227 777.167 135.496 713.215 107.315 667.919C86.0893 633.804 62.982 601.681 55.6148 562.561C48.0513 522.4 59.0563 484.327 65.2141 444.369Z" stroke="url(#paint22_linear_2527_193)" stroke-opacity="0.15" stroke-width="3"/>
<path opacity="0.24" fill-rule="evenodd" clip-rule="evenodd" d="M62.5393 445.259C71.0818 382.437 42.4302 296.05 95.881 262.993C147.726 230.93 209.736 303.153 270.563 316.607C327.082 329.108 390.12 305.433 438.076 338.681C489.278 374.179 521.227 435.088 529.425 496.076C537.464 555.873 517.127 616.305 481.778 663.788C449.832 706.701 394.865 720.103 346.017 742.443C298.998 763.947 252.883 807.429 202.494 791.515C152.014 775.571 137.224 712.055 108.371 667.387C86.6412 633.745 63.0722 602.12 55.0521 563.25C46.8182 523.344 57.1083 485.199 62.5393 445.259Z" stroke="url(#paint23_linear_2527_193)" stroke-opacity="0.15" stroke-width="3"/>
<path opacity="0.25" fill-rule="evenodd" clip-rule="evenodd" d="M59.9201 446.205C67.3249 383.431 37.2859 297.809 89.9237 263.931C140.98 231.071 203.984 301.998 264.779 314.358C321.27 325.843 383.618 301.151 431.946 333.466C483.546 367.969 516.422 428.135 525.652 488.792C534.702 548.263 515.514 608.858 481.151 656.805C450.096 700.136 395.604 714.447 347.361 737.562C300.925 759.812 255.773 803.956 205.327 788.962C154.788 773.941 138.95 710.878 109.442 666.848C87.2174 633.687 63.1978 602.568 54.532 563.958C45.6353 524.318 55.2123 486.114 59.9201 446.205Z" stroke="url(#paint24_linear_2527_193)" stroke-opacity="0.15" stroke-width="3"/>
<path opacity="0.26" fill-rule="evenodd" clip-rule="evenodd" d="M57.352 447.204C63.625 384.499 32.2183 299.664 84.0317 264.983C134.288 231.343 198.258 300.958 259.003 312.228C315.447 322.7 377.089 297.009 425.771 328.387C477.748 361.889 511.533 421.299 521.785 481.606C531.837 540.734 513.794 601.472 480.422 649.862C450.262 693.595 396.26 708.803 348.634 732.68C302.791 755.662 258.61 800.449 208.123 786.374C157.543 772.274 140.67 709.682 110.52 666.301C87.8128 633.627 63.3537 603.022 54.0498 564.682C44.4979 525.32 53.3638 487.07 57.352 447.204Z" stroke="url(#paint25_linear_2527_193)" stroke-opacity="0.15" stroke-width="3"/>
<path opacity="0.27" fill-rule="evenodd" clip-rule="evenodd" d="M54.84 448.258C59.9873 385.642 27.2333 301.617 78.2112 266.148C127.657 231.746 192.564 300.035 253.239 310.22C309.618 319.683 370.539 293.007 419.556 323.444C471.891 355.942 506.568 414.581 517.831 474.521C528.874 533.29 511.974 594.149 479.596 642.964C450.335 687.08 396.837 703.175 349.839 727.8C304.6 751.503 261.398 796.912 210.886 783.755C160.282 770.574 142.388 708.47 111.611 665.746C88.4314 633.568 63.544 603.482 53.6096 565.423C43.4105 526.351 51.5675 488.068 54.84 448.258Z" stroke="url(#paint26_linear_2527_193)" stroke-opacity="0.15" stroke-width="3"/>
<path opacity="0.28" fill-rule="evenodd" clip-rule="evenodd" d="M52.3887 449.366C56.4168 386.859 22.336 303.665 72.4678 267.427C121.093 232.279 186.909 299.23 247.495 308.334C303.791 316.793 363.975 289.147 413.309 318.641C465.982 350.131 501.532 407.985 513.795 467.541C525.819 525.934 510.059 586.892 478.679 636.113C450.32 680.596 397.34 697.564 350.98 722.924C306.356 747.334 264.14 793.348 213.621 781.105C163.01 768.841 144.106 707.243 112.718 665.186C89.0768 633.51 63.7724 603.949 53.2154 566.183C42.3771 527.41 49.8278 489.107 52.3887 449.366Z" stroke="url(#paint27_linear_2527_193)" stroke-opacity="0.15" stroke-width="3"/>
<path opacity="0.29" fill-rule="evenodd" clip-rule="evenodd" d="M50.0131 450.532C52.9288 388.153 17.5422 305.813 66.8175 268.823C114.612 232.945 181.309 298.546 241.786 306.573C297.981 314.032 357.414 285.433 407.046 313.981C460.037 344.46 496.444 401.516 509.695 460.671C522.688 518.67 508.065 579.708 477.686 629.315C450.231 674.147 397.783 691.978 352.073 718.059C308.074 743.163 266.85 789.76 216.341 778.43C165.738 767.08 145.84 706.004 113.854 664.623C89.7632 633.457 64.0532 604.427 52.8817 566.963C41.4124 528.501 48.1594 490.19 50.0131 450.532Z" stroke="url(#paint28_linear_2527_193)" stroke-opacity="0.15" stroke-width="3"/>
<path opacity="0.3" fill-rule="evenodd" clip-rule="evenodd" d="M47.6765 451.74C49.487 389.51 12.8157 308.044 61.2246 270.32C108.179 233.73 175.728 297.969 236.077 304.925C292.153 311.388 350.822 281.852 400.733 309.451C454.023 338.917 491.267 395.162 505.495 453.899C519.446 511.489 505.957 572.585 476.581 622.559C450.033 667.723 398.13 686.404 353.079 713.192C309.715 738.977 269.491 786.138 219.007 775.718C168.431 765.278 147.551 704.741 114.982 664.046C90.453 633.395 64.3489 604.902 52.571 567.751C40.4792 529.609 46.5254 491.304 47.6765 451.74Z" stroke="url(#paint29_linear_2527_193)" stroke-opacity="0.15" stroke-width="3"/>
<path opacity="0.31" fill-rule="evenodd" clip-rule="evenodd" d="M45.4003 452.998C46.1132 390.936 8.17878 310.365 55.7116 271.925C101.816 234.64 170.19 297.505 230.392 303.395C286.331 308.868 344.222 278.413 394.394 305.06C447.962 333.511 486.025 388.931 501.218 447.234C516.115 504.398 503.756 565.532 475.386 615.854C449.747 661.333 398.402 680.851 354.021 708.332C311.301 734.785 272.082 782.491 221.64 772.976C171.106 763.445 149.26 703.463 116.124 663.46C91.1669 633.332 64.6801 605.382 52.3042 568.553C39.5984 530.743 44.947 492.456 45.4003 452.998Z" stroke="url(#paint30_linear_2527_193)" stroke-opacity="0.15" stroke-width="3"/>
<path opacity="0.32" fill-rule="evenodd" clip-rule="evenodd" d="M43.1827 454.304C42.8059 392.429 3.63025 312.773 50.2778 273.634C95.5237 235.672 164.693 297.153 224.729 301.983C280.514 306.471 337.613 275.113 388.028 300.807C441.855 328.24 480.718 382.824 496.865 440.677C512.696 497.4 501.462 558.55 474.1 609.201C449.371 654.977 398.598 675.32 354.896 703.481C312.83 730.587 274.621 778.817 224.238 770.206C173.763 761.578 150.964 702.167 117.275 662.866C91.9023 633.267 65.0444 605.864 52.079 569.368C38.7679 531.899 43.4223 493.642 43.1827 454.304Z" stroke="url(#paint31_linear_2527_193)" stroke-opacity="0.15" stroke-width="3"/>
<path opacity="0.33" fill-rule="evenodd" clip-rule="evenodd" d="M41.0292 455.656C39.5708 393.987 -0.823968 315.266 44.9295 275.447C89.3082 236.826 159.244 296.912 219.096 300.688C274.71 304.197 331.004 271.953 381.643 296.692C435.709 323.105 475.354 376.841 492.441 434.228C509.194 490.494 499.081 551.641 472.728 602.602C448.912 648.657 398.722 669.812 355.708 698.638C314.306 726.383 277.112 775.119 226.804 767.407C176.404 759.68 152.667 700.855 118.441 662.264C92.6637 633.198 65.4463 606.349 51.9 570.194C37.9926 533.077 41.9564 494.863 41.0292 455.656Z" stroke="url(#paint32_linear_2527_193)" stroke-opacity="0.15" stroke-width="3"/>
<path opacity="0.34" fill-rule="evenodd" clip-rule="evenodd" d="M38.9346 457.052C36.4032 395.609 -5.18825 317.841 39.6627 277.361C83.166 238.097 153.839 296.779 213.489 299.508C268.914 302.044 324.391 268.931 375.236 292.714C429.522 318.107 469.929 370.983 487.944 427.888C505.607 483.681 496.61 544.805 471.267 596.056C448.364 642.374 398.77 664.329 356.454 693.804C315.723 722.176 279.55 771.396 229.333 764.579C179.024 757.749 154.364 699.525 119.616 661.651C93.4452 633.126 65.8801 606.834 51.7617 571.031C37.267 534.274 40.544 496.116 38.9346 457.052Z" stroke="url(#paint33_linear_2527_193)" stroke-opacity="0.15" stroke-width="3"/>
<path opacity="0.35" fill-rule="evenodd" clip-rule="evenodd" d="M36.9072 458.494C33.3116 397.294 -9.45381 320.499 34.4865 279.375C77.1066 239.487 148.489 296.756 207.917 298.444C263.138 300.013 317.785 266.049 368.817 288.875C423.303 313.247 464.454 365.252 483.384 421.66C501.944 476.966 494.057 538.046 469.726 589.568C447.737 636.131 398.75 658.872 357.141 688.983C317.09 717.966 281.941 767.652 231.831 761.725C181.629 755.788 156.061 698.18 120.806 661.03C94.2545 633.05 66.3533 607.321 51.6717 571.879C36.5988 535.492 39.1932 497.402 36.9072 458.494Z" stroke="url(#paint34_linear_2527_193)" stroke-opacity="0.15" stroke-width="3"/>
<path opacity="0.36" fill-rule="evenodd" clip-rule="evenodd" d="M34.9427 459.978C30.2922 399.041 -13.6243 323.237 29.3977 281.488C71.127 240.993 143.189 296.84 202.379 297.496C257.377 298.105 311.183 263.306 362.384 285.175C417.051 308.525 458.926 359.648 478.757 415.544C498.202 470.348 491.42 531.364 468.101 583.139C447.026 629.929 398.658 653.443 357.764 684.175C318.402 713.756 284.281 763.887 234.294 758.846C184.214 753.796 157.754 696.819 122.008 660.4C95.0863 632.971 66.8608 607.809 51.6252 572.737C35.9835 536.73 37.8994 498.72 34.9427 459.978Z" stroke="url(#paint35_linear_2527_193)" stroke-opacity="0.15" stroke-width="3"/>
<path opacity="0.37" fill-rule="evenodd" clip-rule="evenodd" d="M33.0458 461.503C27.3497 400.847 -17.6945 326.052 24.4018 283.696C65.2333 242.613 137.946 297.03 196.879 296.66C251.639 296.316 304.593 260.701 355.944 281.613C410.772 303.94 453.352 354.171 474.072 409.54C494.388 463.828 488.704 524.761 466.397 576.768C446.237 623.769 398.5 648.042 358.329 679.38C319.662 709.545 286.574 760.101 236.725 755.941C186.784 751.774 159.446 695.442 123.225 659.761C95.9448 632.888 67.4067 608.296 51.6263 573.603C35.4253 537.985 36.6672 500.067 33.0458 461.503Z" stroke="url(#paint36_linear_2527_193)" stroke-opacity="0.15" stroke-width="3"/>
<path opacity="0.38" fill-rule="evenodd" clip-rule="evenodd" d="M31.212 463.068C24.4802 402.711 -21.6684 328.942 19.4954 285.998C59.4223 244.344 132.757 297.324 191.416 295.935C245.921 294.645 298.011 258.233 349.495 278.187C404.464 299.493 447.73 348.821 469.325 403.649C490.498 457.406 485.907 518.236 464.611 570.457C445.365 617.652 398.27 642.67 358.83 674.599C320.867 705.333 288.814 756.294 239.118 753.01C189.332 749.72 161.132 694.047 124.451 659.111C96.8247 632.798 67.9859 608.781 51.67 574.476C34.9192 539.256 35.4918 501.441 31.212 463.068Z" stroke="url(#paint37_linear_2527_193)" stroke-opacity="0.15" stroke-width="3"/>
<path opacity="0.39" fill-rule="evenodd" clip-rule="evenodd" d="M29.4463 464.67C21.689 404.63 -25.5403 331.904 14.6843 288.39C53.7003 246.185 127.628 297.72 185.995 295.322C240.229 293.094 291.444 255.901 343.043 274.899C398.134 295.183 442.066 343.599 464.523 397.872C486.54 451.084 483.035 511.792 462.75 564.208C444.417 611.579 397.975 637.328 359.274 669.834C322.021 701.122 291.006 752.469 241.479 750.055C191.862 747.637 162.816 692.636 125.691 658.45C97.7304 632.703 68.6028 609.264 51.7608 575.355C34.47 540.541 34.3782 502.842 29.4463 464.67Z" stroke="url(#paint38_linear_2527_193)" stroke-opacity="0.15" stroke-width="3"/>
<path opacity="0.4" fill-rule="evenodd" clip-rule="evenodd" d="M27.7502 466.312C18.9776 406.606 -29.3084 334.939 9.97086 290.875C48.0699 248.135 122.562 298.22 180.62 294.821C234.567 291.662 284.897 253.707 336.592 271.75C391.787 291.013 436.365 338.508 459.669 392.212C482.517 444.866 480.09 505.432 460.815 558.024C443.395 605.554 397.615 632.021 359.66 665.087C323.126 696.916 293.151 748.627 243.808 747.078C194.375 745.526 164.5 691.212 126.946 657.782C98.6626 632.603 69.2579 609.747 51.8996 576.242C34.0786 541.843 33.3276 504.272 27.7502 466.312Z" stroke="url(#paint39_linear_2527_193)" stroke-opacity="0.15" stroke-width="3"/>
<path opacity="0.41" fill-rule="evenodd" clip-rule="evenodd" d="M26.1195 467.988C16.3424 408.634 -32.9763 338.042 5.35181 293.446C42.5283 250.19 117.555 298.819 175.288 294.427C228.932 290.345 278.367 251.648 330.141 268.735C385.42 286.98 430.625 333.545 454.761 386.665C478.425 438.748 477.069 499.153 458.803 551.902C442.295 599.574 397.188 626.744 359.985 660.357C324.176 692.71 295.243 744.767 246.1 744.077C196.866 743.385 166.177 689.769 128.211 657.1C99.6165 632.496 69.9468 610.224 52.0817 577.131C33.7405 543.157 32.3355 505.724 26.1195 467.988Z" stroke="url(#paint40_linear_2527_193)" stroke-opacity="0.15" stroke-width="3"/>
<path opacity="0.42" fill-rule="evenodd" clip-rule="evenodd" d="M24.5586 469.699C13.7879 410.713 -36.5391 341.212 0.832482 296.103C37.0811 252.35 112.614 299.518 170.004 294.141C223.33 289.146 271.861 249.723 323.695 265.858C379.039 283.085 424.851 328.711 449.805 381.236C474.273 432.734 473.98 492.959 456.72 545.847C441.122 593.644 396.698 621.503 360.255 655.646C325.176 688.51 297.287 740.892 248.358 741.054C199.339 741.216 167.853 688.311 129.489 656.409C100.596 632.382 70.673 610.699 52.3111 578.026C33.4598 544.483 31.4063 507.2 24.5586 469.699Z" stroke="url(#paint41_linear_2527_193)" stroke-opacity="0.15" stroke-width="3"/>
<path opacity="0.43" fill-rule="evenodd" clip-rule="evenodd" d="M23.0692 471.444C11.3162 412.844 -39.9946 344.448 -3.58467 298.846C31.7312 254.613 107.741 300.315 164.772 293.964C217.765 288.063 265.382 247.934 317.26 263.118C372.649 279.329 419.048 324.009 444.806 375.924C470.062 426.825 470.824 486.852 454.569 539.86C439.879 587.765 396.148 616.298 360.47 650.956C326.128 684.316 299.284 737.003 250.583 738.011C201.793 739.02 169.527 686.839 130.783 655.708C101.602 632.262 71.4378 611.17 52.5889 578.925C33.2378 545.821 30.5414 508.7 23.0692 471.444Z" stroke="url(#paint42_linear_2527_193)" stroke-opacity="0.15" stroke-width="3"/>
<path opacity="0.44" fill-rule="evenodd" clip-rule="evenodd" d="M21.6474 473.218C8.9236 415.021 -43.3463 347.745 -7.90268 301.667C26.4759 256.974 102.933 301.206 159.589 293.89C212.234 287.092 258.928 246.276 310.832 260.511C366.248 275.709 413.214 319.434 439.762 370.728C465.791 421.019 467.599 480.829 452.347 533.938C438.564 581.935 395.534 611.127 360.627 646.284C327.028 680.125 301.23 733.098 252.772 734.945C204.225 736.795 171.196 685.349 132.086 654.994C102.63 632.132 72.2365 611.633 52.9108 579.824C33.0701 547.167 29.7367 510.219 21.6474 473.218Z" stroke="url(#paint43_linear_2527_193)" stroke-opacity="0.15" stroke-width="3"/>
<path opacity="0.45" fill-rule="evenodd" clip-rule="evenodd" d="M20.2943 475.021C6.61156 417.242 -46.5926 351.1 -12.1195 304.566C21.3177 259.431 98.1936 302.189 154.459 293.918C206.74 286.233 252.504 244.748 304.415 258.036C359.841 272.224 407.353 314.988 434.675 365.647C461.463 415.317 464.309 474.891 450.057 528.083C437.177 576.155 394.858 605.992 360.728 641.633C327.876 675.94 303.125 729.179 254.925 731.857C206.636 734.541 172.859 683.841 133.4 654.267C103.681 631.992 73.0699 612.089 53.2775 580.723C32.9576 548.521 28.9934 511.756 20.2943 475.021Z" stroke="url(#paint44_linear_2527_193)" stroke-opacity="0.15" stroke-width="3"/>
<path opacity="0.46" fill-rule="evenodd" clip-rule="evenodd" d="M19.0177 476.856C4.38798 419.512 -49.7253 354.516 -16.2268 307.546C16.2652 261.986 93.531 303.268 149.39 294.052C201.293 285.489 246.118 243.355 298.02 255.7C353.435 268.88 401.475 310.675 429.555 360.688C457.087 409.724 460.963 469.045 447.707 522.302C435.728 570.431 394.128 600.899 360.78 637.008C328.682 671.765 304.977 725.25 257.048 728.753C209.031 732.263 174.525 682.321 134.732 653.531C104.762 631.847 73.9451 612.541 53.6962 581.625C32.9076 549.884 28.3188 513.314 19.0177 476.856Z" stroke="url(#paint45_linear_2527_193)" stroke-opacity="0.15" stroke-width="3"/>
<path opacity="0.47" fill-rule="evenodd" clip-rule="evenodd" d="M17.8102 478.716C2.24583 421.822 -52.7515 357.987 -20.231 310.598C11.3123 264.633 88.9393 304.437 144.376 294.286C195.887 284.854 239.765 242.09 291.641 253.494C347.028 265.67 395.574 306.491 424.398 355.846C452.659 404.237 457.554 463.287 445.292 516.589C434.211 564.76 393.338 595.842 360.778 632.405C329.437 667.598 306.778 721.308 259.134 725.629C211.403 729.957 176.185 680.784 136.074 652.781C105.865 631.69 74.8543 612.984 54.1592 582.524C32.9126 551.253 27.7056 514.888 17.8102 478.716Z" stroke="url(#paint46_linear_2527_193)" stroke-opacity="0.15" stroke-width="3"/>
<path opacity="0.48" fill-rule="evenodd" clip-rule="evenodd" d="M16.6764 480.602C0.189987 424.174 -55.666 361.511 -24.1267 313.723C6.46488 267.372 84.4242 305.694 139.423 294.62C190.528 284.33 233.453 240.953 285.285 251.421C340.626 262.597 389.658 302.436 419.21 351.122C448.185 398.857 454.09 457.618 442.817 510.948C432.63 559.145 392.492 590.826 360.724 627.825C330.146 663.439 308.533 717.356 261.188 722.486C213.756 727.625 177.843 679.231 137.43 652.019C106.994 631.524 75.8014 613.419 54.6706 583.422C32.9767 552.627 27.158 516.477 16.6764 480.602Z" stroke="url(#paint47_linear_2527_193)" stroke-opacity="0.15" stroke-width="3"/>
<path opacity="0.49" fill-rule="evenodd" clip-rule="evenodd" d="M15.6147 482.512C-1.78105 426.565 -58.4703 365.086 -27.915 316.918C1.72222 270.199 79.9852 307.039 134.532 295.052C185.216 283.913 227.181 239.945 278.953 249.479C334.228 259.658 383.727 298.512 413.992 346.517C443.665 393.584 450.569 452.039 440.283 505.379C430.987 553.585 391.591 585.851 360.62 623.271C330.808 659.29 310.239 713.394 263.207 719.325C216.087 725.267 179.497 677.663 138.799 651.244C108.147 631.347 76.7844 613.844 55.2283 584.318C33.0978 554.004 26.6744 518.081 15.6147 482.512Z" stroke="url(#paint48_linear_2527_193)" stroke-opacity="0.15" stroke-width="3"/>
<path opacity="0.5" fill-rule="evenodd" clip-rule="evenodd" d="M14.6238 484.443C-3.66822 428.992 -61.1651 368.709 -31.5962 320.181C-2.91576 273.111 75.6223 308.469 129.702 295.58C179.953 283.603 220.951 239.062 272.645 247.667C327.838 256.855 377.782 294.716 408.744 342.03C439.1 388.42 446.994 446.551 437.689 499.883C429.279 548.081 390.634 580.916 360.463 618.742C331.422 655.151 311.896 709.422 265.189 716.146C218.396 722.882 181.145 676.078 140.177 650.455C109.322 631.158 77.8014 614.259 55.8308 585.208C33.2746 555.384 26.2533 519.697 14.6238 484.443Z" stroke="url(#paint49_linear_2527_193)" stroke-opacity="0.15" stroke-width="3"/>
<path opacity="0.51" fill-rule="evenodd" clip-rule="evenodd" d="M13.7111 486.397C-5.46386 431.458 -63.7428 372.38 -35.1623 323.511C-7.44053 276.11 71.3441 309.985 124.943 296.205C174.746 283.4 214.771 238.306 266.371 245.987C321.463 254.187 371.834 291.051 403.476 337.664C434.5 383.366 443.373 441.157 435.044 494.463C427.517 542.637 389.629 576.026 360.262 614.241C331.995 651.025 313.51 705.444 267.142 712.952C220.688 720.475 182.795 674.479 141.573 649.655C110.526 630.959 78.8596 614.665 56.485 586.097C33.5141 556.767 25.902 521.327 13.7111 486.397Z" stroke="url(#paint50_linear_2527_193)" stroke-opacity="0.15" stroke-width="3"/>
<path opacity="0.52" fill-rule="evenodd" clip-rule="evenodd" d="M12.8693 488.369C-7.17521 433.955 -66.2103 376.093 -38.6199 326.902C-11.8585 279.188 67.1443 311.58 120.248 296.921C169.591 283.3 208.637 237.672 260.126 244.433C315.101 251.651 365.876 287.513 398.183 333.414C429.859 378.419 439.7 435.853 432.343 489.115C425.694 537.25 388.569 571.177 360.01 609.766C332.52 646.91 315.075 701.456 269.058 709.741C222.956 718.041 184.439 672.863 142.979 648.84C111.752 630.747 79.9511 615.058 57.1832 586.977C33.8085 558.148 25.613 522.964 12.8693 488.369Z" stroke="url(#paint51_linear_2527_193)" stroke-opacity="0.15" stroke-width="3"/>
<path opacity="0.53" fill-rule="evenodd" clip-rule="evenodd" d="M12.1058 490.361C-8.7945 436.486 -68.56 379.851 -41.9609 330.355C-16.1611 282.347 63.0317 313.258 115.626 297.732C164.496 283.305 202.559 237.162 253.921 243.008C308.759 249.249 359.92 284.107 392.875 329.286C425.187 373.583 435.986 430.644 429.595 483.845C423.819 531.925 387.464 566.375 359.715 605.321C333.006 642.809 316.597 697.464 270.944 706.516C225.207 715.585 186.084 671.233 144.401 648.012C113.007 630.523 81.0829 615.441 57.9325 587.853C34.1652 559.53 25.3936 524.613 12.1058 490.361Z" stroke="url(#paint52_linear_2527_193)" stroke-opacity="0.15" stroke-width="3"/>
<path opacity="0.54" fill-rule="evenodd" clip-rule="evenodd" d="M11.4129 492.367C-10.3293 439.045 -70.7992 383.646 -45.1924 333.866C-20.3552 285.582 58.9995 315.012 111.071 298.631C159.455 283.41 196.529 236.773 247.748 241.709C302.434 246.979 353.959 280.827 387.547 325.275C420.479 368.856 432.223 425.527 426.792 478.649C421.885 526.659 386.306 561.615 359.371 600.903C333.444 638.72 318.069 693.465 272.793 703.275C227.433 713.103 187.721 669.585 145.831 647.169C114.282 630.286 82.2467 615.809 58.7248 588.72C34.5759 560.909 25.2359 526.268 11.4129 492.367Z" stroke="url(#paint53_linear_2527_193)" stroke-opacity="0.15" stroke-width="3"/>
<path opacity="0.55" fill-rule="evenodd" clip-rule="evenodd" d="M10.7953 494.387C-11.7746 441.632 -72.9228 387.477 -48.309 337.432C-24.4348 288.89 55.0538 316.842 106.589 299.618C154.475 283.614 190.557 236.501 241.616 240.533C296.132 244.838 348.002 277.674 382.205 321.382C415.741 364.237 428.419 420.502 423.943 473.53C419.898 521.452 385.101 556.9 358.982 596.514C333.84 634.644 319.496 689.46 274.608 700.019C229.638 710.596 189.356 667.922 147.275 646.31C115.582 630.033 83.4472 616.162 59.5645 589.577C35.0453 562.284 25.1446 527.928 10.7953 494.387Z" stroke="url(#paint54_linear_2527_193)" stroke-opacity="0.15" stroke-width="3"/>
<path opacity="0.56" fill-rule="evenodd" clip-rule="evenodd" d="M10.2546 496.421C-13.1288 444.246 -74.9293 391.343 -51.3085 341.051C-28.3976 292.271 51.1971 318.747 102.183 300.692C149.559 283.917 184.644 236.349 235.528 239.483C289.857 242.828 342.051 274.648 376.854 317.608C410.977 359.729 424.578 415.573 421.05 468.488C417.862 516.309 383.852 552.231 358.551 592.155C334.197 630.584 320.88 685.452 276.392 696.749C231.823 708.067 190.989 666.243 148.733 645.437C116.908 629.767 84.6852 616.502 60.4528 590.426C35.5746 563.655 25.121 529.593 10.2546 496.421Z" stroke="url(#paint55_linear_2527_193)" stroke-opacity="0.15" stroke-width="3"/>
<path opacity="0.57" fill-rule="evenodd" clip-rule="evenodd" d="M9.78848 498.468C-14.3938 446.885 -76.8205 395.243 -54.1927 344.724C-32.2448 295.722 47.4283 320.725 97.8529 301.853C144.707 284.318 178.791 236.314 229.484 238.556C283.609 240.949 336.108 271.751 371.493 313.954C406.187 355.332 420.699 410.74 418.113 463.525C415.776 511.228 382.558 547.61 358.076 587.828C334.511 626.54 322.218 681.441 278.142 693.468C233.986 705.516 192.618 664.549 150.202 644.55C118.257 629.487 85.9583 616.828 61.3872 591.265C36.1612 565.021 25.1629 531.263 9.78848 498.468Z" stroke="url(#paint56_linear_2527_193)" stroke-opacity="0.15" stroke-width="3"/>
<path opacity="0.58" fill-rule="evenodd" clip-rule="evenodd" d="M9.39895 500.524C-15.5676 449.547 -78.5943 399.172 -56.9589 348.444C-35.9736 299.24 43.7505 322.773 93.6011 303.096C139.922 284.813 173.002 236.393 223.489 237.75C277.393 239.197 330.176 268.979 366.127 310.416C401.377 351.044 416.786 406 415.135 458.639C413.643 506.211 381.221 543.036 357.561 583.532C334.787 622.512 323.512 677.427 279.86 690.173C236.128 702.942 194.245 662.84 151.685 643.647C119.632 629.192 87.2681 617.137 62.3693 592.092C36.8069 566.38 25.2719 532.934 9.39895 500.524Z" stroke="url(#paint57_linear_2527_193)" stroke-opacity="0.15" stroke-width="3"/>
<path opacity="0.59" fill-rule="evenodd" clip-rule="evenodd" d="M9.08418 502.589C-16.6517 452.229 -80.2522 403.128 -59.6084 352.21C-39.5848 302.821 40.1629 324.889 89.4274 304.421C135.203 285.403 167.277 236.586 217.542 237.063C271.21 237.573 324.256 266.332 360.757 306.997C396.544 346.867 412.839 401.356 412.116 453.832C411.462 501.257 379.842 538.509 357.004 579.268C335.022 618.5 324.761 673.41 281.544 686.866C238.248 700.346 195.868 661.114 153.18 642.728C121.029 628.88 88.6123 617.43 63.3969 592.907C37.5096 567.73 25.4463 534.606 9.08418 502.589Z" stroke="url(#paint58_linear_2527_193)" stroke-opacity="0.15" stroke-width="3"/>
<path opacity="0.6" fill-rule="evenodd" clip-rule="evenodd" d="M8.84564 504.659C-17.6446 454.929 -81.7927 407.108 -62.1391 356.019C-43.0761 306.464 36.6681 327.07 85.3347 305.825C130.555 286.083 161.619 236.89 211.647 236.495C265.062 236.074 318.352 263.81 355.385 303.694C391.695 342.799 408.862 396.807 409.059 449.103C409.238 496.366 378.422 534.03 356.408 575.035C335.218 614.505 325.967 669.392 283.196 683.546C240.347 697.727 197.488 659.372 154.687 641.792C122.451 628.551 89.9922 617.704 64.4714 593.707C38.2705 569.071 25.6873 536.276 8.84564 504.659Z" stroke="url(#paint59_linear_2527_193)" stroke-opacity="0.15" stroke-width="3"/>
<path opacity="0.61" fill-rule="evenodd" clip-rule="evenodd" d="M8.68436 506.737C-18.545 457.647 -83.2145 411.113 -64.5497 359.871C-46.4457 310.168 33.2682 329.318 81.3255 307.308C125.98 286.856 156.032 237.305 205.809 236.046C258.955 234.701 312.468 261.413 350.017 300.509C386.832 338.842 404.859 392.355 405.969 444.456C406.972 491.542 376.965 529.601 355.775 570.837C335.378 610.529 327.132 665.375 284.817 680.218C242.425 695.088 199.106 657.616 156.207 640.841C123.898 628.207 91.4086 617.962 65.5935 594.495C39.0904 570.403 25.996 537.947 8.68436 506.737Z" stroke="url(#paint60_linear_2527_193)" stroke-opacity="0.15" stroke-width="3"/>
<path opacity="0.62" fill-rule="evenodd" clip-rule="evenodd" d="M8.59597 508.816C-19.3571 460.379 -84.5218 415.136 -66.8438 363.76C-49.6969 313.927 29.9599 331.626 77.3966 308.865C121.474 287.715 150.513 237.827 200.024 235.71C252.885 233.45 306.602 259.137 344.65 297.439C381.954 334.993 400.826 387.997 402.841 439.887C404.661 486.782 375.467 525.22 355.101 566.671C335.498 606.569 328.25 661.356 286.403 676.877C244.479 692.426 200.718 655.842 157.737 639.872C125.365 627.844 92.8568 618.199 66.7585 595.266C39.9648 571.721 26.3677 539.611 8.59597 508.816Z" stroke="url(#paint61_linear_2527_193)" stroke-opacity="0.15" stroke-width="3"/>
<path opacity="0.63" fill-rule="evenodd" clip-rule="evenodd" d="M8.58501 510.898C-20.0763 463.124 -85.71 419.177 -69.0165 367.685C-52.8246 317.739 26.7488 333.994 73.5541 310.495C117.045 288.661 145.07 238.455 194.299 235.489C246.86 232.322 300.761 256.983 339.29 294.485C377.066 331.254 396.772 383.734 399.683 435.397C402.313 482.087 373.934 520.888 354.393 562.538C335.583 602.628 329.328 657.338 287.958 673.526C246.512 689.743 202.328 654.053 159.28 638.886C126.858 627.463 94.341 618.416 67.9708 596.02C40.8979 573.026 26.807 541.271 8.58501 510.898Z" stroke="url(#paint62_linear_2527_193)" stroke-opacity="0.15" stroke-width="3"/>
<path opacity="0.64" fill-rule="evenodd" clip-rule="evenodd" d="M8.65194 512.981C-20.7019 465.881 -86.7785 423.234 -71.0668 371.644C-55.8273 321.604 23.6362 336.42 69.7996 312.199C112.694 289.693 139.703 239.188 188.637 235.38C240.883 231.315 294.948 254.952 333.941 291.647C372.173 327.625 392.697 379.569 396.496 430.989C399.929 477.459 372.368 516.608 353.651 558.441C335.635 598.708 330.365 653.322 289.483 670.166C248.525 687.041 203.936 652.248 160.836 637.883C128.375 627.064 95.8614 618.614 69.2306 596.757C41.89 574.318 27.3143 542.925 8.65194 512.981Z" stroke="url(#paint63_linear_2527_193)" stroke-opacity="0.15" stroke-width="3"/>
<path opacity="0.65" fill-rule="evenodd" clip-rule="evenodd" d="M8.79252 515.061C-21.2381 468.646 -87.7314 427.303 -72.9987 375.634C-58.7087 325.517 20.6191 338.902 66.1303 313.972C108.419 290.807 134.412 240.023 183.036 235.382C234.952 230.428 289.161 253.039 328.602 288.922C367.271 324.103 388.601 375.498 393.279 426.66C397.507 472.898 370.766 512.377 352.872 554.378C335.649 594.806 331.36 649.307 290.974 666.796C250.515 684.317 205.539 650.426 162.403 636.862C129.914 626.645 97.4137 618.79 70.5334 597.476C42.9368 575.594 27.8851 544.571 8.79252 515.061Z" stroke="url(#paint64_linear_2527_193)" stroke-opacity="0.15" stroke-width="3"/>
<path opacity="0.66" fill-rule="evenodd" clip-rule="evenodd" d="M9.00781 517.139C-21.6837 471.418 -88.5675 431.382 -74.8104 379.652C-61.4668 329.476 17.6994 341.436 62.5485 315.812C104.222 292.001 129.198 240.958 177.499 235.493C229.07 229.658 283.404 251.246 323.274 286.31C362.366 320.69 384.487 371.522 390.035 422.411C395.049 468.402 369.131 508.196 352.06 550.349C335.628 590.924 332.312 645.294 292.433 663.417C252.481 681.573 207.138 648.589 163.979 635.822C131.474 626.206 98.9987 618.944 71.8802 598.175C44.0389 576.853 28.5205 546.207 9.00781 517.139Z" stroke="url(#paint65_linear_2527_193)" stroke-opacity="0.15" stroke-width="3"/>
<path opacity="0.67" fill-rule="evenodd" clip-rule="evenodd" d="M9.30199 519.213C-22.0343 474.197 -89.2826 435.47 -76.4976 383.696C-64.0967 333.478 14.8824 344.023 59.0597 317.718C100.109 293.276 124.069 241.993 172.033 235.712C223.244 229.005 277.683 249.571 317.967 283.813C357.463 317.386 380.361 367.643 386.769 418.244C392.561 463.974 367.468 504.067 351.218 546.357C335.577 587.063 333.226 641.286 293.863 660.031C254.428 678.81 208.736 646.735 165.571 634.764C133.06 625.748 100.62 619.075 73.2748 598.855C45.2005 578.096 29.2246 547.834 9.30199 519.213Z" stroke="url(#paint66_linear_2527_193)" stroke-opacity="0.15" stroke-width="3"/>
<path opacity="0.68" fill-rule="evenodd" clip-rule="evenodd" d="M9.67033 521.281C-22.2946 476.978 -89.8814 439.562 -78.0645 387.764C-66.6026 337.522 12.1641 346.658 55.6604 319.688C96.0767 294.627 119.022 243.124 166.635 236.036C217.472 228.468 271.997 248.013 312.676 281.427C352.56 314.189 376.22 363.859 383.48 414.157C390.041 459.613 365.773 499.989 350.344 542.4C335.492 583.222 334.1 637.28 295.262 656.636C256.352 676.027 210.33 644.866 167.172 633.687C134.667 625.269 102.274 619.183 74.7124 599.513C46.4166 579.318 29.9926 549.448 9.67033 521.281Z" stroke="url(#paint67_linear_2527_193)" stroke-opacity="0.15" stroke-width="3"/>
<path opacity="0.69" fill-rule="evenodd" clip-rule="evenodd" d="M10.1139 523.342C-22.4633 479.761 -90.3628 443.658 -79.5096 391.852C-68.9825 341.603 9.54681 349.341 52.3532 321.72C92.1284 296.055 114.059 244.35 161.309 236.464C211.757 228.044 266.348 246.57 307.406 279.153C347.661 311.099 372.069 360.17 380.17 410.151C387.492 455.321 364.051 495.962 349.44 538.479C335.375 579.404 334.934 633.28 296.629 653.235C258.255 673.226 211.92 642.98 168.784 632.592C136.296 624.768 103.96 619.266 76.194 600.149C47.6882 580.521 30.8256 551.049 10.1139 523.342Z" stroke="url(#paint68_linear_2527_193)" stroke-opacity="0.15" stroke-width="3"/>
<path opacity="0.7" fill-rule="evenodd" clip-rule="evenodd" d="M10.6307 525.393C-22.5425 482.543 -90.7288 447.755 -80.8348 395.959C-71.2381 345.719 7.02917 352.067 49.1369 323.81C88.263 297.554 109.18 245.667 156.053 236.993C206.099 227.732 260.738 245.242 302.156 276.988C342.765 308.115 367.907 356.575 376.84 406.225C384.913 451.095 362.3 491.987 348.504 534.594C335.225 575.606 335.727 629.284 297.964 649.826C260.133 670.405 213.504 641.077 170.405 631.476C137.945 624.245 105.676 619.325 77.7172 600.761C49.013 581.703 31.7212 552.635 10.6307 525.393Z" stroke="url(#paint69_linear_2527_193)" stroke-opacity="0.15" stroke-width="3"/>
<path opacity="0.71" fill-rule="evenodd" clip-rule="evenodd" d="M11.2249 527.434C-22.5278 485.323 -90.9751 451.85 -82.0354 400.082C-73.3642 349.87 4.6165 354.837 46.0173 325.96C84.4865 299.127 104.392 247.077 150.876 237.624C200.506 227.532 255.173 244.027 296.935 274.935C337.881 305.238 363.741 353.076 373.495 402.38C382.31 446.938 360.526 488.065 347.544 530.747C335.048 571.831 336.484 625.294 299.272 646.411C261.991 667.567 215.088 639.16 172.04 630.342C139.618 623.701 107.427 619.358 79.2863 601.351C50.3952 582.863 32.6838 554.207 11.2249 527.434Z" stroke="url(#paint70_linear_2527_193)" stroke-opacity="0.15" stroke-width="3"/>
<path opacity="0.72" fill-rule="evenodd" clip-rule="evenodd" d="M11.8917 529.461C-22.4239 488.097 -91.1066 455.939 -83.1159 404.216C-75.3652 354.047 2.30483 357.645 42.9907 328.161C80.7956 300.766 99.6908 248.572 145.773 238.351C194.974 227.437 249.651 242.922 291.74 272.987C333.006 302.464 359.569 349.669 370.133 398.614C379.681 442.847 358.726 484.192 346.555 526.935C334.84 568.077 337.201 621.308 300.547 642.988C263.826 664.708 216.666 637.223 173.683 629.185C141.311 623.132 109.208 619.363 80.8963 601.913C51.8298 583.997 33.7086 555.758 11.8917 529.461Z" stroke="url(#paint71_linear_2527_193)" stroke-opacity="0.15" stroke-width="3"/>
<path opacity="0.73" fill-rule="evenodd" clip-rule="evenodd" d="M12.635 531.476C-22.227 490.867 -91.1195 460.024 -84.0722 408.363C-77.2367 358.255 0.098843 360.492 40.0621 330.419C77.1955 302.475 95.0833 250.156 140.751 239.176C189.511 227.453 244.178 241.93 286.576 271.149C328.145 299.796 355.396 346.359 366.761 394.93C377.032 438.826 356.905 480.374 345.542 523.162C334.605 564.347 337.883 617.331 301.795 639.562C265.641 661.834 218.242 635.272 175.339 628.01C143.027 622.541 111.023 619.344 82.5509 602.451C53.3204 585.108 34.7991 557.293 12.635 531.476Z" stroke="url(#paint72_linear_2527_193)" stroke-opacity="0.15" stroke-width="3"/>
<path opacity="0.74" fill-rule="evenodd" clip-rule="evenodd" d="M13.4529 533.474C-21.9385 493.628 -91.0155 464.098 -84.9058 412.517C-78.9797 362.485 -2.00228 363.374 37.231 332.726C73.6862 304.247 90.5692 251.823 135.811 240.094C184.115 227.572 238.754 241.045 281.445 269.416C323.301 297.231 351.224 343.14 363.378 391.325C374.362 434.872 355.064 476.607 344.506 519.424C334.343 560.638 338.529 613.359 303.014 636.128C267.434 658.94 219.815 633.303 177.006 626.813C144.764 621.925 112.869 619.294 84.2483 602.961C54.8653 586.192 35.9537 558.806 13.4529 533.474Z" stroke="url(#paint73_linear_2527_193)" stroke-opacity="0.15" stroke-width="3"/>
<path opacity="0.75" fill-rule="evenodd" clip-rule="evenodd" d="M14.3401 535.454C-21.5641 496.378 -90.8003 468.161 -85.622 416.675C-80.5994 366.737 -4.0032 366.289 34.4931 335.081C70.2635 306.082 86.1449 253.57 130.949 241.104C178.786 227.793 233.378 240.268 276.343 267.787C318.469 294.769 347.049 340.014 359.981 387.8C371.668 430.986 353.198 472.892 343.441 515.724C334.05 556.953 339.135 609.394 304.2 632.69C269.201 656.029 221.381 631.318 178.679 625.594C146.518 621.284 114.741 619.217 85.983 603.443C56.4589 587.249 37.167 560.298 14.3401 535.454Z" stroke="url(#paint74_linear_2527_193)" stroke-opacity="0.15" stroke-width="3"/>
<path opacity="0.76" fill-rule="evenodd" clip-rule="evenodd" d="M15.3037 537.418C-21.0965 499.118 -90.4667 472.211 -86.2135 420.839C-82.088 371.01 -5.89597 369.237 31.8567 337.484C66.9361 307.98 81.8192 255.399 126.174 242.205C173.531 228.119 228.059 239.598 271.282 266.265C313.66 292.41 342.881 336.982 356.58 384.356C368.961 427.169 351.317 469.23 342.358 512.063C333.735 553.292 339.708 605.439 305.36 629.249C270.949 653.102 222.945 629.317 180.365 624.356C148.295 620.62 116.646 619.111 87.7619 603.898C58.1081 588.279 38.4458 561.769 15.3037 537.418Z" stroke="url(#paint75_linear_2527_193)" stroke-opacity="0.15" stroke-width="3"/>
<path opacity="0.77" fill-rule="evenodd" clip-rule="evenodd" d="M16.3388 539.361C-20.5404 501.842 -90.0195 476.244 -86.6846 425.001C-83.4498 375.298 -7.68453 372.211 29.3181 339.93C63.7006 309.934 77.5891 257.304 121.483 243.394C168.349 228.542 222.793 239.031 266.257 264.843C308.871 290.151 338.718 334.04 353.172 380.989C366.235 423.419 349.417 465.619 341.252 508.438C333.392 549.654 340.244 601.491 306.49 625.802C272.674 650.157 224.505 627.298 182.059 623.094C150.091 619.929 118.58 618.974 89.5803 604.322C59.808 589.279 39.7855 563.214 16.3388 539.361Z" stroke="url(#paint76_linear_2527_193)" stroke-opacity="0.15" stroke-width="3"/>
<path opacity="0.78" fill-rule="evenodd" clip-rule="evenodd" d="M17.4458 541.283C-19.8955 504.552 -89.4588 480.26 -87.035 429.163C-84.6841 379.601 -9.36781 375.214 26.8787 342.42C60.5587 311.947 73.4567 259.286 116.879 244.67C163.241 229.065 217.585 238.569 261.272 263.525C304.105 287.994 334.562 331.192 349.76 377.704C363.495 419.739 347.5 462.063 340.125 504.853C333.025 546.041 340.745 597.554 307.591 622.352C274.377 647.197 226.06 625.263 183.762 621.812C151.905 619.213 120.542 618.808 91.4384 604.717C61.559 590.249 41.1862 564.635 17.4458 541.283Z" stroke="url(#paint77_linear_2527_193)" stroke-opacity="0.15" stroke-width="3"/>
<path opacity="0.79" fill-rule="evenodd" clip-rule="evenodd" d="M18.6264 543.18C-19.16 507.243 -88.7827 484.253 -87.2628 433.318C-85.7886 383.913 -10.9432 378.238 24.5415 344.947C57.5136 314.012 69.4256 261.337 112.366 246.027C158.213 229.681 212.438 238.206 256.331 262.305C299.367 285.934 330.418 328.431 346.347 374.494C360.743 416.123 345.571 458.556 338.98 501.303C332.636 542.45 341.214 593.623 308.667 618.897C276.06 644.218 227.613 623.209 185.476 620.505C153.741 618.468 122.535 618.609 93.3379 605.078C63.3627 591.186 42.6498 566.027 18.6264 543.18Z" stroke="url(#paint78_linear_2527_193)" stroke-opacity="0.15" stroke-width="3"/>
<path opacity="0.8" fill-rule="evenodd" clip-rule="evenodd" d="M19.8746 545.052C-18.3398 509.915 -87.9974 488.224 -87.3738 437.467C-86.769 388.235 -12.4161 381.285 22.3015 347.512C54.5608 316.13 65.4915 263.46 107.939 247.467C153.26 230.392 207.348 237.943 251.431 261.185C294.653 283.973 326.282 325.762 342.931 371.364C357.977 412.577 343.624 455.102 337.814 497.792C332.221 538.883 341.646 589.703 309.711 615.44C277.716 641.224 229.158 621.139 187.196 619.176C155.592 617.697 124.552 618.378 95.2729 605.407C65.2129 592.091 44.1702 567.392 19.8746 545.052Z" stroke="url(#paint79_linear_2527_193)" stroke-opacity="0.15" stroke-width="3"/>
<path opacity="0.81" fill-rule="evenodd" clip-rule="evenodd" d="M21.1977 546.899C-17.4278 512.566 -87.0959 492.17 -87.3607 441.606C-87.6176 392.562 -13.7784 384.352 20.167 350.113C51.7088 318.299 61.6633 265.651 103.608 248.987C148.392 231.196 202.326 237.778 246.582 260.163C289.973 282.11 322.164 323.182 339.52 368.312C355.205 409.098 341.67 451.7 336.635 494.319C331.788 535.342 342.05 585.793 310.731 611.98C279.356 638.215 230.703 619.053 188.928 617.825C157.465 616.9 126.602 618.116 97.2505 605.705C67.117 592.963 45.7546 568.728 21.1977 546.899Z" stroke="url(#paint80_linear_2527_193)" stroke-opacity="0.15" stroke-width="3"/>
<path opacity="0.82" fill-rule="evenodd" clip-rule="evenodd" d="M22.5873 548.718C-16.4321 515.193 -86.0866 496.087 -87.2318 445.732C-88.3425 396.891 -15.0378 387.435 18.1307 352.746C48.9505 320.514 57.9343 267.907 99.366 250.584C143.602 232.088 197.366 237.709 241.777 259.236C285.321 280.342 318.057 320.69 336.108 365.336C352.422 405.685 339.701 448.35 335.435 490.883C331.33 531.824 342.417 581.893 311.721 608.517C280.969 635.189 232.241 616.948 190.666 616.449C159.353 616.073 128.675 617.819 99.2624 605.967C69.0664 593.799 47.3947 570.032 22.5873 548.718Z" stroke="url(#paint81_linear_2527_193)" stroke-opacity="0.15" stroke-width="3"/>
<path opacity="0.83" fill-rule="evenodd" clip-rule="evenodd" d="M24.0476 550.507C-15.3488 517.795 -84.9657 499.974 -86.9827 449.844C-88.9391 401.221 -16.1894 390.532 16.1978 355.41C46.2916 322.775 54.3103 270.226 95.2195 252.255C138.898 233.068 192.473 237.734 237.024 258.404C280.704 278.669 313.969 318.286 332.703 362.437C349.633 402.339 337.723 445.051 334.222 487.485C330.852 528.33 342.753 578.003 312.685 605.051C282.562 632.148 233.775 614.825 192.412 615.049C161.26 615.218 130.775 617.488 101.313 606.194C71.0653 594.599 49.0946 571.305 24.0476 550.507Z" stroke="url(#paint82_linear_2527_193)" stroke-opacity="0.15" stroke-width="3"/>
<path opacity="0.84" fill-rule="evenodd" clip-rule="evenodd" d="M25.5754 552.266C-14.1807 520.37 -83.7364 503.829 -86.6166 453.939C-89.4102 405.549 -17.2356 393.642 14.3661 358.102C43.7302 325.079 50.7899 272.606 91.1672 253.999C134.278 234.133 187.648 237.852 232.321 257.665C276.121 277.09 309.899 315.968 329.302 359.615C346.838 399.06 335.737 441.803 332.994 484.125C330.354 524.861 343.057 574.125 313.622 601.583C284.132 629.092 235.303 612.686 194.166 613.625C163.183 614.333 132.9 617.123 103.399 606.386C73.1106 595.362 50.8511 572.544 25.5754 552.266Z" stroke="url(#paint83_linear_2527_193)" stroke-opacity="0.15" stroke-width="3"/>
<path opacity="0.85" fill-rule="evenodd" clip-rule="evenodd" d="M27.1722 553.993C-12.9266 522.917 -82.3974 507.649 -86.1319 458.014C-89.7541 409.871 -18.1743 396.763 12.6383 360.821C41.269 327.424 47.3761 275.045 87.2124 255.814C129.745 235.283 182.894 238.061 227.672 257.018C271.576 275.604 305.851 313.737 325.911 356.868C344.04 395.847 333.743 438.607 331.753 480.802C329.838 521.418 343.332 570.259 314.533 598.114C285.681 626.021 236.828 610.529 195.928 612.178C165.123 613.42 135.052 616.723 105.521 606.541C75.2036 596.088 52.6658 573.75 27.1722 553.993Z" stroke="url(#paint84_linear_2527_193)" stroke-opacity="0.15" stroke-width="3"/>
<path opacity="0.86" fill-rule="evenodd" clip-rule="evenodd" d="M28.8385 555.685C-11.586 525.433 -80.9487 511.432 -85.5282 462.067C-89.9701 414.186 -19.0045 399.89 11.0155 363.563C38.9099 329.808 44.071 277.538 83.3574 257.697C125.303 236.513 178.214 238.358 223.082 256.46C267.073 274.209 301.828 311.59 322.531 354.195C341.242 392.699 331.746 435.461 330.503 477.517C329.305 517.998 343.578 566.404 315.42 594.643C287.21 622.935 238.35 608.353 197.699 610.705C167.082 612.475 137.23 616.287 107.681 606.659C77.3449 596.774 54.5391 574.919 28.8385 555.685Z" stroke="url(#paint85_linear_2527_193)" stroke-opacity="0.15" stroke-width="3"/>
<path opacity="0.87" fill-rule="evenodd" clip-rule="evenodd" d="M30.5684 557.343C-10.1646 527.917 -79.396 515.177 -84.8112 466.096C-90.0637 418.49 -19.7313 403.024 9.49315 366.326C36.6482 332.228 40.8703 280.086 79.5983 259.646C120.948 237.822 173.605 238.742 218.545 255.992C262.607 272.904 297.826 309.528 319.16 351.597C338.441 389.617 329.742 432.367 329.238 474.27C328.753 514.603 343.792 562.561 316.278 591.172C288.714 619.835 239.864 606.161 199.474 609.207C169.054 611.501 139.43 615.814 109.873 606.738C79.5286 597.421 56.4653 576.051 30.5684 557.343Z" stroke="url(#paint86_linear_2527_193)" stroke-opacity="0.15" stroke-width="3"/>
<path opacity="0.88" fill-rule="evenodd" clip-rule="evenodd" d="M32.3634 558.963C-8.66119 530.365 -77.7384 518.879 -83.9796 470.096C-90.0333 422.78 -20.3526 406.159 8.07337 369.108C34.4865 334.68 37.7769 282.682 75.9382 261.656C116.683 239.206 169.069 239.21 214.066 255.609C258.184 271.687 293.849 307.547 315.801 349.071C335.639 386.599 327.733 429.321 327.962 471.058C328.182 511.231 343.976 558.728 317.11 587.697C290.195 616.719 241.373 603.949 201.255 607.682C171.04 610.494 141.653 615.303 112.098 606.777C81.756 598.025 58.4456 577.144 32.3634 558.963Z" stroke="url(#paint87_linear_2527_193)" stroke-opacity="0.15" stroke-width="3"/>
<path opacity="0.89" fill-rule="evenodd" clip-rule="evenodd" d="M34.2235 560.545C-7.07566 532.779 -75.9761 522.538 -83.0335 474.068C-89.8788 427.055 -20.868 409.295 6.75719 371.906C32.4262 337.165 34.7925 285.328 72.3791 263.728C112.51 240.666 164.611 239.762 209.648 255.312C253.805 270.558 289.901 305.649 312.456 346.619C332.841 383.645 325.722 426.325 326.677 467.884C327.596 507.885 344.131 554.91 317.917 584.223C291.655 613.589 242.876 601.719 203.043 606.133C173.042 609.457 143.898 614.755 114.356 606.777C84.0274 598.587 60.4802 578.198 34.2235 560.545Z" stroke="url(#paint88_linear_2527_193)" stroke-opacity="0.15" stroke-width="3"/>
<path opacity="0.9" fill-rule="evenodd" clip-rule="evenodd" d="M36.1494 562.089C-5.40722 535.155 -74.1086 526.152 -81.9719 478.008C-89.599 431.311 -21.2759 412.43 5.54632 374.72C30.4692 339.68 31.9191 288.02 68.9234 265.859C108.432 242.199 160.232 240.395 205.293 255.098C249.474 269.514 285.984 303.833 309.129 344.239C330.047 380.756 323.711 423.38 325.385 464.746C326.997 504.564 344.261 551.104 318.701 580.748C293.094 610.446 244.376 599.472 204.838 604.557C175.059 608.388 146.168 614.168 116.649 606.737C86.3433 599.107 62.5699 579.212 36.1494 562.089Z" stroke="url(#paint89_linear_2527_193)" stroke-opacity="0.15" stroke-width="3"/>
<path opacity="0.91" fill-rule="evenodd" clip-rule="evenodd" d="M38.1384 563.591C-3.65893 537.492 -72.139 529.718 -80.7981 481.914C-89.1969 435.547 -21.5789 415.561 4.43859 377.545C28.6137 342.221 29.1554 290.754 65.5699 268.046C104.449 243.8 155.932 241.106 201.002 254.966C245.19 268.555 282.097 302.095 305.82 341.929C327.259 377.929 321.7 420.483 324.086 461.645C326.383 501.267 344.362 547.31 319.46 577.272C294.512 607.289 245.871 597.205 206.639 602.955C177.091 607.285 148.459 613.543 118.973 606.654C88.7011 599.582 64.7118 580.184 38.1384 563.591Z" stroke="url(#paint90_linear_2527_193)" stroke-opacity="0.15" stroke-width="3"/>
<path opacity="0.92" fill-rule="evenodd" clip-rule="evenodd" d="M40.1882 565.051C-1.83276 539.788 -70.0698 533.234 -79.5139 485.784C-88.6742 439.759 -21.7782 418.686 3.433 380.38C26.859 344.787 26.5009 293.53 62.3184 270.287C100.56 245.47 151.712 241.894 196.773 254.914C240.955 267.679 278.242 300.437 302.528 339.691C324.475 375.166 319.689 417.635 322.779 458.581C325.753 497.994 344.436 543.53 320.193 573.797C295.906 604.118 247.358 594.921 208.443 601.327C179.134 606.151 150.769 612.878 121.326 606.53C91.0986 600.013 66.9039 581.113 40.1882 565.051Z" stroke="url(#paint91_linear_2527_193)" stroke-opacity="0.15" stroke-width="3"/>
<path opacity="0.93" fill-rule="evenodd" clip-rule="evenodd" d="M42.2993 566.467C0.0714016 542.041 -67.901 536.698 -78.1194 489.614C-88.0308 443.945 -21.8734 421.802 2.53047 383.223C25.2063 347.376 23.9571 296.343 59.1707 272.578C96.7678 247.205 147.573 242.757 192.611 254.94C236.77 266.885 274.421 298.856 299.255 337.521C321.7 372.464 317.68 414.835 321.466 455.553C325.11 494.746 344.483 539.763 320.902 570.321C297.278 600.934 248.839 592.618 210.252 599.671C181.19 604.983 153.1 612.173 123.71 606.363C93.5362 600.397 69.1465 581.997 42.2993 566.467Z" stroke="url(#paint92_linear_2527_193)" stroke-opacity="0.15" stroke-width="3"/>
<path opacity="0.94" fill-rule="evenodd" clip-rule="evenodd" d="M44.4721 567.839C2.0541 544.249 -65.6323 540.108 -76.6141 493.403C-87.2659 448.102 -21.8632 424.907 1.73243 386.07C23.6572 349.984 21.5259 299.192 56.1291 274.919C93.0745 249.002 143.519 243.693 188.518 255.042C232.639 266.17 270.637 297.352 296.007 335.42C318.934 369.824 315.675 412.082 320.15 452.56C324.457 491.521 344.505 536.01 321.588 566.845C298.629 597.737 250.316 590.296 212.067 597.988C183.259 603.781 155.451 611.427 126.123 606.151C96.0144 600.735 71.4402 582.837 44.4721 567.839Z" stroke="url(#paint93_linear_2527_193)" stroke-opacity="0.15" stroke-width="3"/>
<path opacity="0.95" fill-rule="evenodd" clip-rule="evenodd" d="M46.7039 569.165C4.11245 546.412 -63.267 543.463 -75.001 497.15C-86.3824 452.229 -21.75 427.999 1.03684 388.921C22.2102 352.61 19.2059 302.075 53.1924 277.306C89.4794 250.86 139.549 244.699 184.494 255.22C228.561 265.535 266.89 295.923 292.781 333.387C316.179 367.245 313.675 409.378 318.829 449.603C323.791 488.322 344.502 532.271 322.251 563.37C299.959 594.527 251.786 587.956 213.885 596.278C185.34 602.545 157.821 610.641 128.565 605.896C98.5306 601.025 73.7822 583.63 46.7039 569.165Z" stroke="url(#paint94_linear_2527_193)" stroke-opacity="0.15" stroke-width="3"/>
<path opacity="0.96" fill-rule="evenodd" clip-rule="evenodd" d="M48.9951 570.442C6.24695 548.526 -60.8049 546.758 -73.2796 500.849C-85.3795 456.32 -21.5329 431.075 0.444979 391.771C20.8666 355.251 16.9989 304.986 50.3627 279.736C85.9848 252.775 135.665 245.773 180.541 255.469C224.54 264.975 263.182 294.566 289.58 331.419C313.437 364.725 311.68 406.718 317.507 446.68C323.115 485.145 344.475 528.544 322.891 559.895C301.267 591.303 253.251 585.595 215.708 594.538C187.432 601.273 160.209 609.811 131.036 605.594C101.085 601.265 76.1731 584.375 48.9951 570.442Z" stroke="url(#paint95_linear_2527_193)" stroke-opacity="0.15" stroke-width="3"/>
<path opacity="0.97" fill-rule="evenodd" clip-rule="evenodd" d="M51.34 571.667C8.45159 550.588 -58.2521 549.99 -71.4561 504.498C-84.2633 460.372 -21.2173 434.13 -0.0482556 394.617C19.6218 357.901 14.9003 307.923 47.6357 282.204C82.5869 254.743 131.865 246.91 176.656 255.785C220.572 264.487 259.511 293.279 286.401 329.514C310.704 362.261 309.689 404.102 316.178 443.788C322.425 481.988 344.421 524.828 323.504 556.417C302.55 588.063 254.706 583.213 217.531 592.768C189.532 599.964 162.611 608.936 133.53 605.244C103.673 601.453 78.6071 585.068 51.34 571.667Z" stroke="url(#paint96_linear_2527_193)" stroke-opacity="0.15" stroke-width="3"/>
<path opacity="0.98" fill-rule="evenodd" clip-rule="evenodd" d="M53.7451 572.846C10.733 552.603 -55.6025 553.165 -69.524 508.1C-83.0271 464.39 -20.7961 437.17 -0.435505 397.462C18.4833 360.566 12.918 310.889 45.0196 284.715C79.2941 256.768 128.156 248.115 172.847 256.175C216.665 264.077 255.885 292.068 283.254 327.678C307.989 359.86 307.709 401.535 314.853 440.935C321.729 478.86 344.346 521.131 324.099 552.943C303.815 584.814 256.158 580.815 219.36 590.973C191.646 598.623 165.034 608.023 136.053 604.851C106.3 601.595 81.0909 585.716 53.7451 572.846Z" stroke="url(#paint97_linear_2527_193)" stroke-opacity="0.15" stroke-width="3"/>
<path opacity="0.99" fill-rule="evenodd" clip-rule="evenodd" d="M56.2046 573.974C13.0851 554.566 -52.8624 556.275 -67.4894 511.651C-81.677 468.367 -20.2748 440.187 -0.722027 400.301C17.4462 363.24 11.0474 313.877 42.51 287.262C76.1023 258.844 124.534 249.382 169.111 256.631C212.817 263.738 252.301 290.926 280.135 325.905C305.289 357.516 305.736 399.013 313.526 438.116C321.023 475.755 344.248 517.447 324.67 549.471C305.057 581.553 257.602 578.398 221.191 589.149C193.768 597.246 167.472 607.066 138.601 604.411C108.96 601.684 83.6186 586.313 56.2046 573.974Z" stroke="url(#paint98_linear_2527_193)" stroke-opacity="0.15" stroke-width="3"/>
<path fill-rule="evenodd" clip-rule="evenodd" d="M58.7184 575.049C15.5079 556.475 -50.0321 559.32 -65.3526 515.146C-80.2128 472.3 -19.6532 443.181 -0.907151 403.132C16.5115 365.919 9.28954 316.886 40.1083 289.843C73.0132 260.968 121.003 250.708 165.451 257.152C209.031 263.47 248.762 289.854 277.045 324.195C302.606 355.23 303.773 396.536 312.199 435.331C320.31 472.673 344.127 513.778 325.22 546C306.277 578.28 259.039 575.962 223.024 587.297C195.899 595.834 169.925 606.066 141.173 603.923C111.655 601.723 86.1903 586.858 58.7184 575.049Z" stroke="url(#paint99_linear_2527_193)" stroke-opacity="0.15" stroke-width="3"/>
<defs>
<linearGradient id="paint0_linear_2527_193" x1="103.003" y1="381.893" x2="474.571" y2="830.604" gradientUnits="userSpaceOnUse">
<stop stop-color="#B620E0"/>
<stop offset="1" stop-color="#0047FF"/>
</linearGradient>
<linearGradient id="paint1_linear_2527_193" x1="98.5738" y1="382.041" x2="477.021" y2="822.586" gradientUnits="userSpaceOnUse">
<stop stop-color="#B620E0"/>
<stop offset="1" stop-color="#0047FF"/>
</linearGradient>
<linearGradient id="paint2_linear_2527_193" x1="94.1838" y1="382.275" x2="479.33" y2="814.541" gradientUnits="userSpaceOnUse">
<stop stop-color="#B620E0"/>
<stop offset="1" stop-color="#0047FF"/>
</linearGradient>
<linearGradient id="paint3_linear_2527_193" x1="89.8377" y1="382.598" x2="481.502" y2="806.474" gradientUnits="userSpaceOnUse">
<stop stop-color="#B620E0"/>
<stop offset="1" stop-color="#0047FF"/>
</linearGradient>
<linearGradient id="paint4_linear_2527_193" x1="85.5318" y1="383.005" x2="483.529" y2="798.387" gradientUnits="userSpaceOnUse">
<stop stop-color="#B620E0"/>
<stop offset="1" stop-color="#0047FF"/>
</linearGradient>
<linearGradient id="paint5_linear_2527_193" x1="81.2737" y1="383.5" x2="485.417" y2="790.285" gradientUnits="userSpaceOnUse">
<stop stop-color="#B620E0"/>
<stop offset="1" stop-color="#0047FF"/>
</linearGradient>
<linearGradient id="paint6_linear_2527_193" x1="77.0657" y1="384.08" x2="487.166" y2="782.171" gradientUnits="userSpaceOnUse">
<stop stop-color="#B620E0"/>
<stop offset="1" stop-color="#0047FF"/>
</linearGradient>
<linearGradient id="paint7_linear_2527_193" x1="72.9066" y1="384.743" x2="488.772" y2="774.047" gradientUnits="userSpaceOnUse">
<stop stop-color="#B620E0"/>
<stop offset="1" stop-color="#0047FF"/>
</linearGradient>
<linearGradient id="paint8_linear_2527_193" x1="68.792" y1="385.487" x2="490.231" y2="765.917" gradientUnits="userSpaceOnUse">
<stop stop-color="#B620E0"/>
<stop offset="1" stop-color="#0047FF"/>
</linearGradient>
<linearGradient id="paint9_linear_2527_193" x1="64.7362" y1="386.315" x2="491.554" y2="757.788" gradientUnits="userSpaceOnUse">
<stop stop-color="#B620E0"/>
<stop offset="1" stop-color="#0047FF"/>
</linearGradient>
<linearGradient id="paint10_linear_2527_193" x1="60.7316" y1="387.223" x2="492.732" y2="749.66" gradientUnits="userSpaceOnUse">
<stop stop-color="#B620E0"/>
<stop offset="1" stop-color="#0047FF"/>
</linearGradient>
<linearGradient id="paint11_linear_2527_193" x1="56.781" y1="388.208" x2="493.767" y2="741.536" gradientUnits="userSpaceOnUse">
<stop stop-color="#B620E0"/>
<stop offset="1" stop-color="#0047FF"/>
</linearGradient>
<linearGradient id="paint12_linear_2527_193" x1="52.8883" y1="389.273" x2="494.66" y2="733.424" gradientUnits="userSpaceOnUse">
<stop stop-color="#B620E0"/>
<stop offset="1" stop-color="#0047FF"/>
</linearGradient>
<linearGradient id="paint13_linear_2527_193" x1="49.0531" y1="390.414" x2="495.412" y2="725.324" gradientUnits="userSpaceOnUse">
<stop stop-color="#B620E0"/>
<stop offset="1" stop-color="#0047FF"/>
</linearGradient>
<linearGradient id="paint14_linear_2527_193" x1="45.28" y1="391.632" x2="496.025" y2="717.242" gradientUnits="userSpaceOnUse">
<stop stop-color="#B620E0"/>
<stop offset="1" stop-color="#0047FF"/>
</linearGradient>
<linearGradient id="paint15_linear_2527_193" x1="41.5677" y1="392.925" x2="496.497" y2="709.182" gradientUnits="userSpaceOnUse">
<stop stop-color="#B620E0"/>
<stop offset="1" stop-color="#0047FF"/>
</linearGradient>
<linearGradient id="paint16_linear_2527_193" x1="37.9186" y1="394.291" x2="496.83" y2="701.145" gradientUnits="userSpaceOnUse">
<stop stop-color="#B620E0"/>
<stop offset="1" stop-color="#0047FF"/>
</linearGradient>
<linearGradient id="paint17_linear_2527_193" x1="34.3313" y1="395.728" x2="497.022" y2="693.135" gradientUnits="userSpaceOnUse">
<stop stop-color="#B620E0"/>
<stop offset="1" stop-color="#0047FF"/>
</linearGradient>
<linearGradient id="paint18_linear_2527_193" x1="30.8108" y1="397.237" x2="497.078" y2="685.159" gradientUnits="userSpaceOnUse">
<stop stop-color="#B620E0"/>
<stop offset="1" stop-color="#0047FF"/>
</linearGradient>
<linearGradient id="paint19_linear_2527_193" x1="27.3556" y1="398.815" x2="496.996" y2="677.217" gradientUnits="userSpaceOnUse">
<stop stop-color="#B620E0"/>
<stop offset="1" stop-color="#0047FF"/>
</linearGradient>
<linearGradient id="paint20_linear_2527_193" x1="23.9682" y1="400.46" x2="496.779" y2="669.314" gradientUnits="userSpaceOnUse">
<stop stop-color="#B620E0"/>
<stop offset="1" stop-color="#0047FF"/>
</linearGradient>
<linearGradient id="paint21_linear_2527_193" x1="20.653" y1="402.173" x2="496.431" y2="661.454" gradientUnits="userSpaceOnUse">
<stop stop-color="#B620E0"/>
<stop offset="1" stop-color="#0047FF"/>
</linearGradient>
<linearGradient id="paint22_linear_2527_193" x1="17.406" y1="403.95" x2="495.948" y2="653.64" gradientUnits="userSpaceOnUse">
<stop stop-color="#B620E0"/>
<stop offset="1" stop-color="#0047FF"/>
</linearGradient>
<linearGradient id="paint23_linear_2527_193" x1="14.2321" y1="405.792" x2="495.337" y2="645.875" gradientUnits="userSpaceOnUse">
<stop stop-color="#B620E0"/>
<stop offset="1" stop-color="#0047FF"/>
</linearGradient>
<linearGradient id="paint24_linear_2527_193" x1="11.1331" y1="407.696" x2="494.598" y2="638.164" gradientUnits="userSpaceOnUse">
<stop stop-color="#B620E0"/>
<stop offset="1" stop-color="#0047FF"/>
</linearGradient>
<linearGradient id="paint25_linear_2527_193" x1="8.10483" y1="409.66" x2="493.729" y2="630.507" gradientUnits="userSpaceOnUse">
<stop stop-color="#B620E0"/>
<stop offset="1" stop-color="#0047FF"/>
</linearGradient>
<linearGradient id="paint26_linear_2527_193" x1="5.15224" y1="411.683" x2="492.735" y2="622.91" gradientUnits="userSpaceOnUse">
<stop stop-color="#B620E0"/>
<stop offset="1" stop-color="#0047FF"/>
</linearGradient>
<linearGradient id="paint27_linear_2527_193" x1="2.2798" y1="413.766" x2="491.622" y2="615.377" gradientUnits="userSpaceOnUse">
<stop stop-color="#B620E0"/>
<stop offset="1" stop-color="#0047FF"/>
</linearGradient>
<linearGradient id="paint28_linear_2527_193" x1="-0.497342" y1="415.911" x2="490.407" y2="607.915" gradientUnits="userSpaceOnUse">
<stop stop-color="#B620E0"/>
<stop offset="1" stop-color="#0047FF"/>
</linearGradient>
<linearGradient id="paint29_linear_2527_193" x1="-3.2159" y1="418.103" x2="489.053" y2="600.515" gradientUnits="userSpaceOnUse">
<stop stop-color="#B620E0"/>
<stop offset="1" stop-color="#0047FF"/>
</linearGradient>
<linearGradient id="paint30_linear_2527_193" x1="-5.85448" y1="420.349" x2="487.584" y2="593.186" gradientUnits="userSpaceOnUse">
<stop stop-color="#B620E0"/>
<stop offset="1" stop-color="#0047FF"/>
</linearGradient>
<linearGradient id="paint31_linear_2527_193" x1="-8.41477" y1="422.646" x2="486" y2="585.932" gradientUnits="userSpaceOnUse">
<stop stop-color="#B620E0"/>
<stop offset="1" stop-color="#0047FF"/>
</linearGradient>
<linearGradient id="paint32_linear_2527_193" x1="-10.8915" y1="424.992" x2="484.307" y2="578.754" gradientUnits="userSpaceOnUse">
<stop stop-color="#B620E0"/>
<stop offset="1" stop-color="#0047FF"/>
</linearGradient>
<linearGradient id="paint33_linear_2527_193" x1="-13.2897" y1="427.386" x2="482.502" y2="571.655" gradientUnits="userSpaceOnUse">
<stop stop-color="#B620E0"/>
<stop offset="1" stop-color="#0047FF"/>
</linearGradient>
<linearGradient id="paint34_linear_2527_193" x1="-15.6012" y1="429.827" x2="480.595" y2="564.638" gradientUnits="userSpaceOnUse">
<stop stop-color="#B620E0"/>
<stop offset="1" stop-color="#0047FF"/>
</linearGradient>
<linearGradient id="paint35_linear_2527_193" x1="-17.8303" y1="432.313" x2="478.584" y2="557.707" gradientUnits="userSpaceOnUse">
<stop stop-color="#B620E0"/>
<stop offset="1" stop-color="#0047FF"/>
</linearGradient>
<linearGradient id="paint36_linear_2527_193" x1="-19.9723" y1="434.842" x2="476.476" y2="550.862" gradientUnits="userSpaceOnUse">
<stop stop-color="#B620E0"/>
<stop offset="1" stop-color="#0047FF"/>
</linearGradient>
<linearGradient id="paint37_linear_2527_193" x1="-22.0318" y1="437.411" x2="474.268" y2="544.105" gradientUnits="userSpaceOnUse">
<stop stop-color="#B620E0"/>
<stop offset="1" stop-color="#0047FF"/>
</linearGradient>
<linearGradient id="paint38_linear_2527_193" x1="-24.0038" y1="440.02" x2="471.967" y2="537.438" gradientUnits="userSpaceOnUse">
<stop stop-color="#B620E0"/>
<stop offset="1" stop-color="#0047FF"/>
</linearGradient>
<linearGradient id="paint39_linear_2527_193" x1="-25.887" y1="442.668" x2="469.578" y2="530.866" gradientUnits="userSpaceOnUse">
<stop stop-color="#B620E0"/>
<stop offset="1" stop-color="#0047FF"/>
</linearGradient>
<linearGradient id="paint40_linear_2527_193" x1="-27.6855" y1="445.351" x2="467.099" y2="524.387" gradientUnits="userSpaceOnUse">
<stop stop-color="#B620E0"/>
<stop offset="1" stop-color="#0047FF"/>
</linearGradient>
<linearGradient id="paint41_linear_2527_193" x1="-29.395" y1="448.069" x2="464.535" y2="518.005" gradientUnits="userSpaceOnUse">
<stop stop-color="#B620E0"/>
<stop offset="1" stop-color="#0047FF"/>
</linearGradient>
<linearGradient id="paint42_linear_2527_193" x1="-31.0139" y1="450.82" x2="461.893" y2="511.722" gradientUnits="userSpaceOnUse">
<stop stop-color="#B620E0"/>
<stop offset="1" stop-color="#0047FF"/>
</linearGradient>
<linearGradient id="paint43_linear_2527_193" x1="-32.5463" y1="453.6" x2="459.169" y2="505.537" gradientUnits="userSpaceOnUse">
<stop stop-color="#B620E0"/>
<stop offset="1" stop-color="#0047FF"/>
</linearGradient>
<linearGradient id="paint44_linear_2527_193" x1="-33.9909" y1="456.407" x2="456.369" y2="499.451" gradientUnits="userSpaceOnUse">
<stop stop-color="#B620E0"/>
<stop offset="1" stop-color="#0047FF"/>
</linearGradient>
<linearGradient id="paint45_linear_2527_193" x1="-35.3403" y1="459.245" x2="453.502" y2="493.47" gradientUnits="userSpaceOnUse">
<stop stop-color="#B620E0"/>
<stop offset="1" stop-color="#0047FF"/>
</linearGradient>
<linearGradient id="paint46_linear_2527_193" x1="-36.6019" y1="462.106" x2="450.564" y2="487.591" gradientUnits="userSpaceOnUse">
<stop stop-color="#B620E0"/>
<stop offset="1" stop-color="#0047FF"/>
</linearGradient>
<linearGradient id="paint47_linear_2527_193" x1="-37.7712" y1="464.991" x2="447.562" y2="481.815" gradientUnits="userSpaceOnUse">
<stop stop-color="#B620E0"/>
<stop offset="1" stop-color="#0047FF"/>
</linearGradient>
<linearGradient id="paint48_linear_2527_193" x1="-38.85" y1="467.897" x2="444.498" y2="476.144" gradientUnits="userSpaceOnUse">
<stop stop-color="#B620E0"/>
<stop offset="1" stop-color="#0047FF"/>
</linearGradient>
<linearGradient id="paint49_linear_2527_193" x1="-39.8395" y1="470.822" x2="441.373" y2="470.579" gradientUnits="userSpaceOnUse">
<stop stop-color="#B620E0"/>
<stop offset="1" stop-color="#0047FF"/>
</linearGradient>
<linearGradient id="paint50_linear_2527_193" x1="-40.7326" y1="473.766" x2="438.197" y2="465.121" gradientUnits="userSpaceOnUse">
<stop stop-color="#B620E0"/>
<stop offset="1" stop-color="#0047FF"/>
</linearGradient>
<linearGradient id="paint51_linear_2527_193" x1="-41.5368" y1="476.724" x2="434.966" y2="459.768" gradientUnits="userSpaceOnUse">
<stop stop-color="#B620E0"/>
<stop offset="1" stop-color="#0047FF"/>
</linearGradient>
<linearGradient id="paint52_linear_2527_193" x1="-42.2448" y1="479.699" x2="431.69" y2="454.524" gradientUnits="userSpaceOnUse">
<stop stop-color="#B620E0"/>
<stop offset="1" stop-color="#0047FF"/>
</linearGradient>
<linearGradient id="paint53_linear_2527_193" x1="-42.8643" y1="482.683" x2="428.365" y2="449.386" gradientUnits="userSpaceOnUse">
<stop stop-color="#B620E0"/>
<stop offset="1" stop-color="#0047FF"/>
</linearGradient>
<linearGradient id="paint54_linear_2527_193" x1="-43.3909" y1="485.678" x2="424.998" y2="444.355" gradientUnits="userSpaceOnUse">
<stop stop-color="#B620E0"/>
<stop offset="1" stop-color="#0047FF"/>
</linearGradient>
<linearGradient id="paint55_linear_2527_193" x1="-43.8231" y1="488.681" x2="421.593" y2="439.431" gradientUnits="userSpaceOnUse">
<stop stop-color="#B620E0"/>
<stop offset="1" stop-color="#0047FF"/>
</linearGradient>
<linearGradient id="paint56_linear_2527_193" x1="-44.1634" y1="491.691" x2="418.152" y2="434.617" gradientUnits="userSpaceOnUse">
<stop stop-color="#B620E0"/>
<stop offset="1" stop-color="#0047FF"/>
</linearGradient>
<linearGradient id="paint57_linear_2527_193" x1="-44.4101" y1="494.706" x2="414.679" y2="429.909" gradientUnits="userSpaceOnUse">
<stop stop-color="#B620E0"/>
<stop offset="1" stop-color="#0047FF"/>
</linearGradient>
<linearGradient id="paint58_linear_2527_193" x1="-44.5649" y1="497.723" x2="411.175" y2="425.308" gradientUnits="userSpaceOnUse">
<stop stop-color="#B620E0"/>
<stop offset="1" stop-color="#0047FF"/>
</linearGradient>
<linearGradient id="paint59_linear_2527_193" x1="-44.6268" y1="500.74" x2="407.645" y2="420.813" gradientUnits="userSpaceOnUse">
<stop stop-color="#B620E0"/>
<stop offset="1" stop-color="#0047FF"/>
</linearGradient>
<linearGradient id="paint60_linear_2527_193" x1="-44.5948" y1="503.758" x2="404.093" y2="416.427" gradientUnits="userSpaceOnUse">
<stop stop-color="#B620E0"/>
<stop offset="1" stop-color="#0047FF"/>
</linearGradient>
<linearGradient id="paint61_linear_2527_193" x1="-44.4735" y1="506.771" x2="400.517" y2="412.144" gradientUnits="userSpaceOnUse">
<stop stop-color="#B620E0"/>
<stop offset="1" stop-color="#0047FF"/>
</linearGradient>
<linearGradient id="paint62_linear_2527_193" x1="-44.2586" y1="509.779" x2="396.924" y2="407.966" gradientUnits="userSpaceOnUse">
<stop stop-color="#B620E0"/>
<stop offset="1" stop-color="#0047FF"/>
</linearGradient>
<linearGradient id="paint63_linear_2527_193" x1="-43.9497" y1="512.781" x2="393.318" y2="403.893" gradientUnits="userSpaceOnUse">
<stop stop-color="#B620E0"/>
<stop offset="1" stop-color="#0047FF"/>
</linearGradient>
<linearGradient id="paint64_linear_2527_193" x1="-43.5515" y1="515.773" x2="389.698" y2="399.924" gradientUnits="userSpaceOnUse">
<stop stop-color="#B620E0"/>
<stop offset="1" stop-color="#0047FF"/>
</linearGradient>
<linearGradient id="paint65_linear_2527_193" x1="-43.0629" y1="518.755" x2="386.067" y2="396.056" gradientUnits="userSpaceOnUse">
<stop stop-color="#B620E0"/>
<stop offset="1" stop-color="#0047FF"/>
</linearGradient>
<linearGradient id="paint66_linear_2527_193" x1="-42.4801" y1="521.725" x2="382.433" y2="392.291" gradientUnits="userSpaceOnUse">
<stop stop-color="#B620E0"/>
<stop offset="1" stop-color="#0047FF"/>
</linearGradient>
<linearGradient id="paint67_linear_2527_193" x1="-41.808" y1="524.68" x2="378.793" y2="388.626" gradientUnits="userSpaceOnUse">
<stop stop-color="#B620E0"/>
<stop offset="1" stop-color="#0047FF"/>
</linearGradient>
<linearGradient id="paint68_linear_2527_193" x1="-41.0457" y1="527.619" x2="375.151" y2="385.061" gradientUnits="userSpaceOnUse">
<stop stop-color="#B620E0"/>
<stop offset="1" stop-color="#0047FF"/>
</linearGradient>
<linearGradient id="paint69_linear_2527_193" x1="-40.1956" y1="530.54" x2="371.508" y2="381.594" gradientUnits="userSpaceOnUse">
<stop stop-color="#B620E0"/>
<stop offset="1" stop-color="#0047FF"/>
</linearGradient>
<linearGradient id="paint70_linear_2527_193" x1="-39.2535" y1="533.442" x2="367.87" y2="378.226" gradientUnits="userSpaceOnUse">
<stop stop-color="#B620E0"/>
<stop offset="1" stop-color="#0047FF"/>
</linearGradient>
<linearGradient id="paint71_linear_2527_193" x1="-38.2246" y1="536.32" x2="364.236" y2="374.95" gradientUnits="userSpaceOnUse">
<stop stop-color="#B620E0"/>
<stop offset="1" stop-color="#0047FF"/>
</linearGradient>
<linearGradient id="paint72_linear_2527_193" x1="-37.1053" y1="539.176" x2="360.612" y2="371.772" gradientUnits="userSpaceOnUse">
<stop stop-color="#B620E0"/>
<stop offset="1" stop-color="#0047FF"/>
</linearGradient>
<linearGradient id="paint73_linear_2527_193" x1="-35.8976" y1="542.006" x2="356.998" y2="368.685" gradientUnits="userSpaceOnUse">
<stop stop-color="#B620E0"/>
<stop offset="1" stop-color="#0047FF"/>
</linearGradient>
<linearGradient id="paint74_linear_2527_193" x1="-34.6071" y1="544.808" x2="353.392" y2="365.689" gradientUnits="userSpaceOnUse">
<stop stop-color="#B620E0"/>
<stop offset="1" stop-color="#0047FF"/>
</linearGradient>
<linearGradient id="paint75_linear_2527_193" x1="-33.2271" y1="547.584" x2="349.803" y2="362.786" gradientUnits="userSpaceOnUse">
<stop stop-color="#B620E0"/>
<stop offset="1" stop-color="#0047FF"/>
</linearGradient>
<linearGradient id="paint76_linear_2527_193" x1="-31.7625" y1="550.327" x2="346.229" y2="359.969" gradientUnits="userSpaceOnUse">
<stop stop-color="#B620E0"/>
<stop offset="1" stop-color="#0047FF"/>
</linearGradient>
<linearGradient id="paint77_linear_2527_193" x1="-30.2134" y1="553.039" x2="342.672" y2="357.242" gradientUnits="userSpaceOnUse">
<stop stop-color="#B620E0"/>
<stop offset="1" stop-color="#0047FF"/>
</linearGradient>
<linearGradient id="paint78_linear_2527_193" x1="-28.5782" y1="555.715" x2="339.137" y2="354.597" gradientUnits="userSpaceOnUse">
<stop stop-color="#B620E0"/>
<stop offset="1" stop-color="#0047FF"/>
</linearGradient>
<linearGradient id="paint79_linear_2527_193" x1="-26.8631" y1="558.355" x2="335.619" y2="352.037" gradientUnits="userSpaceOnUse">
<stop stop-color="#B620E0"/>
<stop offset="1" stop-color="#0047FF"/>
</linearGradient>
<linearGradient id="paint80_linear_2527_193" x1="-25.0614" y1="560.959" x2="332.129" y2="349.56" gradientUnits="userSpaceOnUse">
<stop stop-color="#B620E0"/>
<stop offset="1" stop-color="#0047FF"/>
</linearGradient>
<linearGradient id="paint81_linear_2527_193" x1="-23.1814" y1="563.522" x2="328.66" y2="347.162" gradientUnits="userSpaceOnUse">
<stop stop-color="#B620E0"/>
<stop offset="1" stop-color="#0047FF"/>
</linearGradient>
<linearGradient id="paint82_linear_2527_193" x1="-21.2195" y1="566.045" x2="325.217" y2="344.843" gradientUnits="userSpaceOnUse">
<stop stop-color="#B620E0"/>
<stop offset="1" stop-color="#0047FF"/>
</linearGradient>
<linearGradient id="paint83_linear_2527_193" x1="-19.1789" y1="568.524" x2="321.802" y2="342.602" gradientUnits="userSpaceOnUse">
<stop stop-color="#B620E0"/>
<stop offset="1" stop-color="#0047FF"/>
</linearGradient>
<linearGradient id="paint84_linear_2527_193" x1="-17.0585" y1="570.96" x2="318.416" y2="340.436" gradientUnits="userSpaceOnUse">
<stop stop-color="#B620E0"/>
<stop offset="1" stop-color="#0047FF"/>
</linearGradient>
<linearGradient id="paint85_linear_2527_193" x1="-14.8582" y1="573.349" x2="315.062" y2="338.342" gradientUnits="userSpaceOnUse">
<stop stop-color="#B620E0"/>
<stop offset="1" stop-color="#0047FF"/>
</linearGradient>
<linearGradient id="paint86_linear_2527_193" x1="-12.5838" y1="575.692" x2="311.736" y2="336.322" gradientUnits="userSpaceOnUse">
<stop stop-color="#B620E0"/>
<stop offset="1" stop-color="#0047FF"/>
</linearGradient>
<linearGradient id="paint87_linear_2527_193" x1="-10.2346" y1="577.983" x2="308.443" y2="334.369" gradientUnits="userSpaceOnUse">
<stop stop-color="#B620E0"/>
<stop offset="1" stop-color="#0047FF"/>
</linearGradient>
<linearGradient id="paint88_linear_2527_193" x1="-7.81062" y1="580.224" x2="305.183" y2="332.486" gradientUnits="userSpaceOnUse">
<stop stop-color="#B620E0"/>
<stop offset="1" stop-color="#0047FF"/>
</linearGradient>
<linearGradient id="paint89_linear_2527_193" x1="-5.31134" y1="582.414" x2="301.959" y2="330.669" gradientUnits="userSpaceOnUse">
<stop stop-color="#B620E0"/>
<stop offset="1" stop-color="#0047FF"/>
</linearGradient>
<linearGradient id="paint90_linear_2527_193" x1="-2.74005" y1="584.548" x2="298.77" y2="328.916" gradientUnits="userSpaceOnUse">
<stop stop-color="#B620E0"/>
<stop offset="1" stop-color="#0047FF"/>
</linearGradient>
<linearGradient id="paint91_linear_2527_193" x1="-0.0990141" y1="586.628" x2="295.616" y2="327.227" gradientUnits="userSpaceOnUse">
<stop stop-color="#B620E0"/>
<stop offset="1" stop-color="#0047FF"/>
</linearGradient>
<linearGradient id="paint92_linear_2527_193" x1="2.61165" y1="588.651" x2="292.499" y2="325.598" gradientUnits="userSpaceOnUse">
<stop stop-color="#B620E0"/>
<stop offset="1" stop-color="#0047FF"/>
</linearGradient>
<linearGradient id="paint93_linear_2527_193" x1="5.39226" y1="590.616" x2="289.421" y2="324.029" gradientUnits="userSpaceOnUse">
<stop stop-color="#B620E0"/>
<stop offset="1" stop-color="#0047FF"/>
</linearGradient>
<linearGradient id="paint94_linear_2527_193" x1="8.23971" y1="592.521" x2="286.382" y2="322.517" gradientUnits="userSpaceOnUse">
<stop stop-color="#B620E0"/>
<stop offset="1" stop-color="#0047FF"/>
</linearGradient>
<linearGradient id="paint95_linear_2527_193" x1="11.1543" y1="594.364" x2="283.382" y2="321.06" gradientUnits="userSpaceOnUse">
<stop stop-color="#B620E0"/>
<stop offset="1" stop-color="#0047FF"/>
</linearGradient>
<linearGradient id="paint96_linear_2527_193" x1="14.1296" y1="596.141" x2="280.418" y2="319.654" gradientUnits="userSpaceOnUse">
<stop stop-color="#B620E0"/>
<stop offset="1" stop-color="#0047FF"/>
</linearGradient>
<linearGradient id="paint97_linear_2527_193" x1="17.1723" y1="597.858" x2="277.498" y2="318.305" gradientUnits="userSpaceOnUse">
<stop stop-color="#B620E0"/>
<stop offset="1" stop-color="#0047FF"/>
</linearGradient>
<linearGradient id="paint98_linear_2527_193" x1="20.276" y1="599.51" x2="274.618" y2="317.006" gradientUnits="userSpaceOnUse">
<stop stop-color="#B620E0"/>
<stop offset="1" stop-color="#0047FF"/>
</linearGradient>
<linearGradient id="paint99_linear_2527_193" x1="23.4404" y1="601.095" x2="271.779" y2="315.757" gradientUnits="userSpaceOnUse">
<stop stop-color="#B620E0"/>
<stop offset="1" stop-color="#0047FF"/>
</linearGradient>
</defs>
</svg>
