<svg width="382" height="390" viewBox="0 0 382 390" fill="none" xmlns="http://www.w3.org/2000/svg">
<path opacity="0.261307" d="M248.778 267.094L239.282 264.198C229.786 261.301 210.793 255.509 193.769 257.954C176.745 260.398 161.688 271.08 143.133 267.118C124.578 263.156 102.524 244.551 84.4067 242.419C66.2889 240.288 52.1071 254.63 45.0162 261.802L37.9252 268.973" stroke="url(#paint0_linear_2511_29)" stroke-opacity="0.35"/>
<path opacity="0.266332" d="M248.722 264.113L239.239 261.346C229.757 258.579 210.792 253.046 193.97 255.785C177.148 258.525 162.468 269.537 143.979 265.842C125.491 262.147 103.193 243.744 85.1808 241.888C67.1683 240.031 53.4408 254.721 46.5771 262.065L39.7134 269.41" stroke="url(#paint1_linear_2511_29)" stroke-opacity="0.35"/>
<path opacity="0.271357" d="M248.633 261.132L239.168 258.495C229.702 255.859 210.771 250.586 194.156 253.619C177.541 256.653 163.242 267.993 144.826 264.566C126.409 261.139 103.875 242.944 85.9729 241.363C68.0711 239.782 54.8022 254.814 48.1677 262.33L41.5332 269.846" stroke="url(#paint2_linear_2511_29)" stroke-opacity="0.35"/>
<path opacity="0.276382" d="M248.513 258.152L239.067 255.647C229.621 253.141 210.729 248.13 194.327 251.457C177.924 254.784 164.011 266.448 145.672 263.29C127.333 260.132 104.568 242.151 86.7828 240.846C68.9972 239.54 56.1908 254.91 49.7876 262.596L43.3844 270.281" stroke="url(#paint3_linear_2511_29)" stroke-opacity="0.35"/>
<path opacity="0.281407" d="M248.362 255.174L238.938 252.801C229.515 250.427 210.668 245.679 194.483 249.298C178.297 252.917 164.774 264.902 146.519 262.014C128.263 259.126 105.275 241.364 87.6108 240.335C69.9467 239.306 57.6068 255.009 51.4369 262.861L45.2669 270.713" stroke="url(#paint4_linear_2511_29)" stroke-opacity="0.35"/>
<path opacity="0.286432" d="M248.18 252.198L238.781 249.957C229.383 247.716 210.587 243.233 194.624 247.143C178.661 251.053 165.532 263.355 147.365 260.738C129.198 258.12 105.994 240.583 88.4566 239.831C70.9195 239.079 59.0499 255.11 53.1151 263.126L47.1802 271.142" stroke="url(#paint5_linear_2511_29)" stroke-opacity="0.35"/>
<path opacity="0.291457" d="M247.967 249.225L238.596 247.117C229.226 245.009 210.486 240.793 194.751 244.993C179.015 249.192 166.284 261.807 148.211 259.462C130.139 257.116 106.725 239.809 89.3203 239.333C71.9155 238.858 60.5197 255.213 54.8218 263.391L49.1239 271.569" stroke="url(#paint6_linear_2511_29)" stroke-opacity="0.35"/>
<path opacity="0.296482" d="M247.723 246.254L238.384 244.28C229.045 242.306 210.367 238.358 194.863 242.846C179.36 247.334 167.03 260.259 149.058 258.185C131.085 256.112 107.469 239.041 90.2021 238.842C72.9349 238.643 62.0164 255.317 56.5572 263.654L51.098 271.991" stroke="url(#paint7_linear_2511_29)" stroke-opacity="0.35"/>
<path opacity="0.301508" d="M247.45 243.288L238.145 241.448C228.839 239.608 210.229 235.929 194.962 240.704C179.695 245.48 167.772 258.71 149.904 256.909C132.037 255.109 108.226 238.278 91.1018 238.356C73.9775 238.435 63.5397 255.422 58.3208 263.916L53.1019 272.41" stroke="url(#paint8_linear_2511_29)" stroke-opacity="0.35"/>
<path opacity="0.306533" d="M247.146 240.325L237.878 238.62C228.61 236.916 210.073 233.506 195.047 238.567C180.022 243.629 168.507 257.16 150.751 255.633C132.994 254.106 108.996 237.521 92.0194 237.876C75.0431 238.232 65.0892 255.528 60.1122 264.176L55.1352 272.824" stroke="url(#paint9_linear_2511_29)" stroke-opacity="0.35"/>
<path opacity="0.311558" d="M246.814 237.367L237.585 235.798C228.356 234.229 209.899 231.091 195.119 236.436C180.339 241.781 169.237 255.61 151.597 254.357C133.957 253.104 109.778 236.769 92.9548 237.402C76.1318 238.034 66.6647 255.633 61.9311 264.432L57.1976 273.232" stroke="url(#paint10_linear_2511_29)" stroke-opacity="0.35"/>
<path opacity="0.316583" d="M246.452 234.414L237.266 232.981C228.079 231.548 209.706 228.682 195.177 234.31C180.648 239.938 169.962 254.059 152.443 253.081C134.925 252.102 110.573 236.023 93.908 236.932C77.2434 237.841 68.2661 255.738 63.7774 264.687L59.2887 273.635" stroke="url(#paint11_linear_2511_29)" stroke-opacity="0.35"/>
<path opacity="0.321608" d="M246.062 231.467L236.921 230.171C227.779 228.874 209.497 226.281 195.222 232.189C180.948 238.098 170.682 252.508 153.29 251.805C135.898 251.101 111.38 235.282 94.8793 236.468C78.3781 237.653 69.8932 255.842 65.6508 264.937L61.4083 274.031" stroke="url(#paint12_linear_2511_29)" stroke-opacity="0.35"/>
<path opacity="0.326633" d="M245.643 228.526L236.55 227.367C227.457 226.207 209.27 223.887 195.255 230.075C181.24 236.263 171.396 250.958 154.136 250.529C136.876 250.1 112.201 234.547 95.8681 236.008C79.5354 237.469 71.5456 255.945 67.5507 265.183L63.5558 274.421" stroke="url(#paint13_linear_2511_29)" stroke-opacity="0.35"/>
<path opacity="0.331658" d="M245.197 225.592L236.154 224.569C227.112 223.547 209.027 221.502 195.275 227.967C181.523 234.431 172.105 249.406 154.983 249.252C137.86 249.098 113.034 233.815 96.8748 235.552C80.7156 237.289 73.2233 256.046 69.4771 265.425L65.731 274.803" stroke="url(#paint14_linear_2511_29)" stroke-opacity="0.35"/>
<path opacity="0.336683" d="M244.723 222.665L235.734 221.78C226.745 220.895 208.767 219.125 195.282 225.865C181.798 232.605 172.808 247.855 155.829 247.976C138.849 248.097 113.88 233.089 97.8992 235.101C81.9183 237.113 74.9258 256.146 71.4296 265.662L67.9333 275.178" stroke="url(#paint15_linear_2511_29)" stroke-opacity="0.35"/>
<path opacity="0.341709" d="M244.222 219.746L235.289 218.999C226.356 218.251 208.49 216.757 195.278 223.77C182.066 230.783 173.507 246.304 156.675 246.7C139.843 247.096 114.739 232.367 98.9411 234.654C83.1435 236.941 76.6529 256.242 73.4076 265.893L70.1623 275.544" stroke="url(#paint16_linear_2511_29)" stroke-opacity="0.35"/>
<path opacity="0.346734" d="M243.695 216.835L234.821 216.225C225.947 215.616 208.199 214.398 195.262 221.682C182.326 228.966 174.2 244.753 157.522 245.423C140.843 246.094 115.61 231.65 100.001 234.21C84.3912 236.77 78.4045 256.336 75.4112 266.119L72.4178 275.902" stroke="url(#paint17_linear_2511_29)" stroke-opacity="0.35"/>
<path opacity="0.351759" d="M243.141 213.932L234.328 213.461C225.516 212.99 207.891 212.048 195.235 219.601C182.578 227.154 174.889 243.201 158.368 244.147C141.847 245.093 116.495 230.936 101.078 233.77C85.6612 236.603 80.1802 256.427 77.4397 266.338L74.6992 276.25" stroke="url(#paint18_linear_2511_29)" stroke-opacity="0.35"/>
<path opacity="0.356784" d="M242.561 211.039L233.813 210.706C225.065 210.373 207.569 209.708 195.196 217.527C182.822 225.347 175.572 241.651 159.214 242.871C142.857 244.091 117.392 230.227 102.172 233.333C86.9532 236.438 81.9796 256.513 79.4928 266.551L77.006 276.589" stroke="url(#paint19_linear_2511_29)" stroke-opacity="0.35"/>
<path opacity="0.361809" d="M241.956 208.155L233.275 207.961C224.594 207.767 207.232 207.378 195.146 215.462C183.06 223.545 176.25 240.101 160.061 241.595C143.871 243.089 118.301 229.522 103.284 232.898C88.2672 236.275 83.8025 256.596 81.5702 266.756L79.3378 276.917" stroke="url(#paint20_linear_2511_29)" stroke-opacity="0.35"/>
<path opacity="0.366834" d="M241.326 205.282L232.714 205.226C224.103 205.171 206.88 205.059 195.085 213.404C183.291 221.749 176.924 238.551 160.907 240.319C144.89 242.086 119.224 228.82 104.414 232.467C89.6032 236.114 85.6488 256.674 83.6716 266.954L81.6943 277.234" stroke="url(#paint21_linear_2511_29)" stroke-opacity="0.35"/>
<path opacity="0.371859" d="M240.671 202.419L232.132 202.502C223.593 202.585 206.515 202.75 195.014 211.354C183.514 219.959 177.592 237.001 161.753 239.042C145.915 241.083 120.159 228.121 105.56 232.037C90.9609 235.953 87.5179 256.747 85.7965 267.144L84.075 277.54" stroke="url(#paint22_linear_2511_29)" stroke-opacity="0.35"/>
<path opacity="0.376884" d="M239.993 199.568L231.529 199.789C223.064 200.01 206.136 200.453 194.933 209.313C183.731 218.174 178.256 235.453 162.6 237.766C146.944 240.079 121.107 227.427 106.724 231.61C92.3401 235.794 89.4096 256.814 87.9444 267.325L86.4792 277.835" stroke="url(#paint23_linear_2511_29)" stroke-opacity="0.35"/>
<path opacity="0.38191" d="M239.291 196.728L230.904 197.088C222.517 197.447 205.743 198.167 194.843 207.281C183.942 216.395 178.915 233.905 163.446 236.49C147.977 239.075 122.068 226.735 107.904 231.185C93.7407 235.636 91.3236 256.876 90.1151 267.497L88.9066 278.117" stroke="url(#paint24_linear_2511_29)" stroke-opacity="0.35"/>
<path opacity="0.386935" d="M238.565 193.9L230.258 194.398C221.952 194.896 205.338 195.892 194.742 205.258C184.146 214.623 179.569 232.358 164.292 235.214C149.016 238.069 123.041 226.046 109.102 230.762C95.1625 235.478 93.2596 256.932 92.3081 267.659L91.3566 278.387" stroke="url(#paint25_linear_2511_29)" stroke-opacity="0.35"/>
<path opacity="0.39196" d="M237.817 191.085L229.593 191.721C221.369 192.357 204.92 193.629 194.632 203.243C184.345 212.856 180.218 230.811 165.139 233.937C150.059 237.063 124.026 225.36 110.316 230.339C96.6055 235.319 95.2173 256.981 94.5232 267.812L93.8291 278.643" stroke="url(#paint26_linear_2511_29)" stroke-opacity="0.35"/>
<path opacity="0.396985" d="M237.047 188.283L228.908 189.057C220.769 189.831 204.49 191.379 194.514 201.238C184.537 211.097 180.863 229.266 165.985 232.661C151.107 236.056 125.025 224.677 111.547 229.918C98.0693 235.16 97.1962 257.023 96.7597 267.954L96.3232 278.886" stroke="url(#paint27_linear_2511_29)" stroke-opacity="0.35"/>
<path opacity="0.40201" d="M236.256 185.494L228.204 186.406C220.152 187.318 204.048 189.142 194.386 199.242C184.724 209.343 181.504 227.722 166.831 231.385C152.159 235.048 126.035 223.996 112.794 229.498C99.5537 235 99.1961 257.057 99.0173 268.086L98.8384 279.114" stroke="url(#paint28_linear_2511_29)" stroke-opacity="0.35"/>
<path opacity="0.407035" d="M235.443 182.719L227.481 183.769C219.519 184.818 203.595 186.917 194.25 197.257C184.906 207.597 182.139 226.178 167.678 230.108C153.216 234.038 127.058 223.317 114.058 229.078C101.059 234.84 101.217 257.084 101.295 268.206L101.374 279.328" stroke="url(#paint29_linear_2511_29)" stroke-opacity="0.35"/>
<path opacity="0.41206" d="M234.609 179.959L226.74 181.146C218.87 182.332 203.131 184.705 194.106 195.281C185.082 205.857 182.771 224.636 168.524 228.832C154.277 233.028 128.094 222.64 115.339 228.659C102.584 234.678 103.257 257.103 103.594 268.315L103.931 279.528" stroke="url(#paint30_linear_2511_29)" stroke-opacity="0.35"/>
<path opacity="0.417085" d="M233.756 177.214L225.981 178.537C218.206 179.86 202.657 182.506 193.955 193.315C185.253 204.124 183.398 223.095 169.37 227.556C155.342 232.016 129.141 221.965 116.635 228.239C104.129 234.513 105.318 257.112 105.912 268.412L106.506 279.711" stroke="url(#paint31_linear_2511_29)" stroke-opacity="0.35"/>
<path opacity="0.422111" d="M232.882 174.484L225.205 175.943C217.527 177.403 202.172 180.322 193.796 191.36C185.419 202.398 184.021 221.556 170.217 226.279C156.412 231.002 130.201 221.292 117.948 227.819C105.694 234.347 107.398 257.113 108.25 268.496L109.101 279.879" stroke="url(#paint32_linear_2511_29)" stroke-opacity="0.35"/>
<path opacity="0.427136" d="M231.99 171.77L224.412 173.365C216.834 174.961 201.678 178.152 193.629 189.416C185.581 200.68 184.64 220.018 171.063 225.003C157.486 229.988 131.274 220.62 119.276 227.4C107.279 234.179 109.497 257.105 110.606 268.568L111.715 280.031" stroke="url(#paint33_linear_2511_29)" stroke-opacity="0.35"/>
<path opacity="0.432161" d="M231.079 169.072L223.603 170.803C216.127 172.533 201.174 175.995 193.456 187.482C185.738 198.969 185.254 218.482 171.909 223.727C158.564 228.972 132.358 219.95 120.621 226.979C108.883 234.007 111.615 257.086 112.981 268.626L114.347 280.165" stroke="url(#paint34_linear_2511_29)" stroke-opacity="0.35"/>
<path opacity="0.437186" d="M230.15 166.39L222.778 168.256C215.406 170.122 200.661 173.853 193.276 185.559C185.891 197.266 185.864 216.946 172.755 222.45C159.646 227.954 133.454 219.281 121.981 226.557C110.507 233.833 113.751 257.058 115.374 268.67L116.996 280.283" stroke="url(#paint35_linear_2511_29)" stroke-opacity="0.35"/>
<path opacity="0.442211" d="M229.204 163.726L221.938 165.726C214.672 167.726 200.14 171.726 193.09 183.648C186.04 195.57 186.471 215.413 173.602 221.174C160.732 226.935 134.563 218.613 123.356 226.134C112.149 233.655 115.906 257.019 117.784 268.701L119.662 280.383" stroke="url(#paint36_linear_2511_29)" stroke-opacity="0.35"/>
<path opacity="0.447236" d="M228.24 161.079L221.083 163.213C213.926 165.347 199.611 169.614 192.898 181.748C186.185 193.882 187.073 213.882 174.448 219.897C161.822 225.913 135.683 217.945 124.746 225.709C113.81 233.473 118.077 256.969 120.211 268.716L122.345 280.464" stroke="url(#paint37_linear_2511_29)" stroke-opacity="0.35"/>
<path opacity="0.452261" d="M227.261 158.45L220.214 160.717C213.167 162.984 199.074 167.518 192.7 179.86C186.326 192.202 187.672 212.352 175.294 218.621C162.916 224.89 136.815 217.278 126.152 225.283C115.49 233.287 120.266 256.907 122.655 268.717L125.043 280.528" stroke="url(#paint38_linear_2511_29)" stroke-opacity="0.35"/>
<path opacity="0.457286" d="M226.265 155.839L219.331 158.239C212.398 160.638 198.53 165.437 192.497 177.983C186.465 190.53 188.267 210.824 176.14 217.345C164.014 223.865 137.958 216.612 127.573 224.854C117.188 233.097 122.472 256.834 125.114 268.703L127.757 280.572" stroke="url(#paint39_linear_2511_29)" stroke-opacity="0.35"/>
<path opacity="0.462312" d="M225.254 153.247L218.435 155.778C211.617 158.309 197.979 163.372 192.289 176.119C186.6 188.866 188.858 209.298 176.987 216.068C165.115 222.838 139.114 215.946 129.009 224.423C118.903 232.901 124.694 256.749 127.59 268.673L130.485 280.597" stroke="url(#paint40_linear_2511_29)" stroke-opacity="0.35"/>
<path opacity="0.467337" d="M224.229 150.675L217.527 153.337C210.825 155.999 197.421 161.323 192.077 174.267C186.732 187.211 189.446 207.775 177.833 214.792C166.22 221.809 140.281 215.28 130.459 223.99C120.637 232.701 126.932 256.652 130.08 268.628L133.228 280.603" stroke="url(#paint41_linear_2511_29)" stroke-opacity="0.35"/>
<path opacity="0.472362" d="M223.189 148.121L216.606 150.913C210.023 153.705 196.858 159.289 191.859 172.426C186.861 185.563 190.03 206.253 178.679 213.516C167.328 220.778 141.459 214.613 131.923 223.554C122.387 232.495 129.186 256.542 132.585 268.565L135.984 280.588" stroke="url(#paint42_linear_2511_29)" stroke-opacity="0.35"/>
<path opacity="0.477387" d="M222.136 145.588L215.674 148.509C209.212 151.43 196.289 157.273 191.639 170.599C186.988 183.925 190.61 204.734 179.525 212.239C168.44 219.745 142.649 213.946 133.402 223.115C124.156 232.283 131.454 256.418 135.104 268.486L138.753 280.553" stroke="url(#paint43_linear_2511_29)" stroke-opacity="0.35"/>
<path opacity="0.482412" d="M221.069 143.075L214.731 146.124C208.392 149.174 195.715 155.273 191.414 168.784C187.113 182.294 191.187 203.216 180.371 210.963C169.556 218.709 143.849 213.279 134.895 222.672C125.94 232.066 133.738 256.282 137.636 268.39L141.535 280.498" stroke="url(#paint44_linear_2511_29)" stroke-opacity="0.35"/>
<path opacity="0.487437" d="M219.991 140.583L213.777 143.76C207.564 146.937 195.136 153.291 191.186 166.982C187.235 180.673 191.761 201.702 181.218 209.686C170.674 217.671 145.061 212.611 136.402 222.226C127.742 231.842 136.035 256.131 140.182 268.276L144.328 280.421" stroke="url(#paint45_linear_2511_29)" stroke-opacity="0.35"/>
<path opacity="0.492462" d="M218.9 138.111L212.813 141.414C206.727 144.718 194.553 151.325 190.955 165.193C187.356 179.061 192.332 200.189 182.064 208.41C171.796 216.63 146.284 211.942 137.922 221.776C129.559 231.61 138.346 255.966 142.74 268.144L147.133 280.322" stroke="url(#paint46_linear_2511_29)" stroke-opacity="0.35"/>
<path opacity="0.497487" d="M217.798 135.661L211.841 139.09C205.883 142.519 193.967 149.377 190.721 163.417C187.475 177.457 192.899 198.68 182.91 207.134C172.921 215.587 147.518 211.273 139.456 221.323C131.393 231.373 140.671 255.787 145.31 267.995L149.948 280.202" stroke="url(#paint47_linear_2511_29)" stroke-opacity="0.35"/>
<path opacity="0.502513" d="M216.686 133.233L210.859 136.786C205.031 140.34 193.377 147.446 190.485 161.654C187.593 175.863 193.464 197.172 183.756 205.857C174.049 214.542 148.763 210.601 141.003 220.864C133.242 231.127 143.008 255.593 147.891 267.826L152.774 280.059" stroke="url(#paint48_linear_2511_29)" stroke-opacity="0.35"/>
<path opacity="0.507538" d="M215.564 130.827L209.869 134.504C204.174 138.18 192.783 145.534 190.246 159.905C187.709 174.277 194.025 195.668 184.603 204.581C175.18 213.494 150.018 209.929 142.563 220.402C135.107 230.874 145.358 255.384 150.483 267.639L155.609 279.894" stroke="url(#paint49_linear_2511_29)" stroke-opacity="0.35"/>
<path opacity="0.512563" d="M214.432 128.443L208.871 132.242C203.31 136.041 192.188 143.639 190.006 158.17C187.825 172.701 194.584 194.166 185.449 203.304C176.313 212.443 151.284 209.255 144.136 219.934C136.987 230.613 147.72 255.159 153.086 267.432L158.452 279.706" stroke="url(#paint50_linear_2511_29)" stroke-opacity="0.35"/>
<path opacity="0.517588" d="M213.291 126.083L207.866 130.003C202.441 133.922 191.59 141.762 189.765 156.448C187.94 171.134 195.14 192.667 186.295 202.028C177.45 211.389 152.56 208.579 145.721 219.461C138.881 230.344 150.093 254.919 155.698 267.207L161.304 279.494" stroke="url(#paint51_linear_2511_29)" stroke-opacity="0.35"/>
<path opacity="0.522613" d="M212.142 123.745L206.855 127.785C201.567 131.824 190.991 139.904 189.523 154.74C188.054 169.577 195.693 191.17 187.141 200.751C178.589 210.332 153.847 207.9 147.319 218.983C140.791 230.066 152.477 254.662 158.32 266.961L164.163 279.259" stroke="url(#paint52_linear_2511_29)" stroke-opacity="0.35"/>
<path opacity="0.527638" d="M210.986 121.431L205.837 125.589C200.688 129.747 190.391 138.064 189.279 153.046C188.168 168.029 196.243 189.677 187.987 199.475C179.731 209.273 155.143 207.22 148.928 218.499C142.714 229.779 154.872 254.389 160.951 266.695L167.03 279" stroke="url(#paint53_linear_2511_29)" stroke-opacity="0.35"/>
<path opacity="0.532663" d="M209.822 119.14L204.814 123.416C199.806 127.692 189.789 136.243 189.036 151.367C188.282 166.49 196.791 188.187 188.833 198.198C180.875 208.21 156.45 206.538 150.55 218.01C144.651 229.482 157.277 254.1 163.59 266.408L169.903 278.717" stroke="url(#paint54_linear_2511_29)" stroke-opacity="0.35"/>
<path opacity="0.537688" d="M208.652 116.874L203.786 121.266C198.92 125.657 189.188 134.441 188.792 149.701C188.396 164.962 197.337 186.699 189.679 196.922C182.022 207.144 157.766 205.852 152.184 217.514C146.601 229.176 159.691 253.793 166.236 266.101L172.781 278.409" stroke="url(#paint55_linear_2511_29)" stroke-opacity="0.35"/>
<path opacity="0.542714" d="M207.477 114.632L202.754 119.138C198.031 123.645 188.586 132.657 188.549 148.05C188.511 163.443 197.88 185.215 190.525 195.645C183.171 206.076 159.092 205.164 153.828 217.013C148.564 228.861 162.115 253.469 168.89 265.772L175.665 278.076" stroke="url(#paint56_linear_2511_29)" stroke-opacity="0.35"/>
<path opacity="0.547739" d="M206.296 112.415L201.718 117.034C197.141 121.654 187.986 130.893 188.306 146.413C188.626 161.933 198.421 183.734 191.372 194.369C184.322 205.004 160.428 204.474 155.484 216.504C150.541 228.535 164.547 253.127 171.55 265.423L178.553 277.719" stroke="url(#paint57_linear_2511_29)" stroke-opacity="0.35"/>
<path opacity="0.552764" d="M205.11 110.222L200.679 114.954C196.248 119.686 187.386 129.149 188.064 144.792C188.742 160.434 198.96 182.256 192.218 193.092C185.476 203.929 161.773 203.78 157.151 215.989C152.529 228.199 166.987 252.767 174.216 265.051L181.445 277.336" stroke="url(#paint58_linear_2511_29)" stroke-opacity="0.35"/>
<path opacity="0.557789" d="M203.921 108.055L199.638 112.898C195.354 117.74 186.788 127.424 187.823 143.184C188.859 158.945 199.497 180.782 193.064 191.816C186.631 202.851 163.128 203.083 158.829 215.468C154.53 227.852 169.435 252.39 176.888 264.658L184.341 276.927" stroke="url(#paint59_linear_2511_29)" stroke-opacity="0.35"/>
<path opacity="0.562814" d="M202.728 105.914L198.594 110.865C194.46 115.816 186.191 125.718 187.584 141.592C188.977 157.465 200.031 179.31 193.91 190.539C187.788 201.769 164.491 202.382 160.517 214.938C156.542 227.494 171.89 251.993 179.564 264.243L187.239 276.492" stroke="url(#paint60_linear_2511_29)" stroke-opacity="0.35"/>
<path opacity="0.567839" d="M201.533 103.798L197.549 108.857C193.565 113.915 185.597 124.032 187.347 140.014C189.097 155.996 200.564 177.843 194.756 189.263C188.948 200.684 165.864 201.678 162.215 214.402C158.566 227.125 174.353 251.578 182.246 263.805L190.139 276.031" stroke="url(#paint61_linear_2511_29)" stroke-opacity="0.35"/>
<path opacity="0.572864" d="M200.335 101.708L196.503 106.873C192.671 112.037 185.006 122.366 187.112 138.452C189.218 154.537 201.095 176.378 195.602 187.987C190.109 199.595 167.245 200.97 163.923 213.857C160.601 226.745 176.821 251.144 184.93 263.344L193.04 275.544" stroke="url(#paint62_linear_2511_29)" stroke-opacity="0.35"/>
<path opacity="0.577889" d="M199.136 99.6448L195.457 104.914C191.777 110.183 184.418 120.721 186.88 136.904C189.342 153.088 201.625 174.918 196.448 186.71C191.271 198.503 168.635 200.258 165.641 213.305C162.647 226.353 179.295 250.691 187.618 262.861L195.942 275.03" stroke="url(#paint63_linear_2511_29)" stroke-opacity="0.35"/>
<path opacity="0.582915" d="M197.937 97.6077L194.411 102.979C190.885 108.351 183.834 119.095 186.651 135.372C189.467 151.649 202.153 173.46 197.294 185.434C192.436 197.407 170.034 199.542 167.368 212.745C164.702 225.948 181.774 250.219 190.309 262.354L198.845 274.489" stroke="url(#paint64_linear_2511_29)" stroke-opacity="0.35"/>
<path opacity="0.58794" d="M196.737 95.5972L193.366 101.07C189.995 106.543 183.253 117.489 186.424 133.855C189.595 150.221 202.679 172.007 198.14 184.157C193.602 196.307 171.44 198.821 169.104 212.176C166.768 225.531 184.257 249.726 193.002 261.823L201.747 273.921" stroke="url(#paint65_linear_2511_29)" stroke-opacity="0.35"/>
<path opacity="0.592965" d="M195.537 93.6142L192.322 99.1865C189.107 104.759 182.678 115.904 186.202 132.353C189.726 148.803 203.204 170.557 198.986 182.88C194.769 195.204 172.855 198.097 170.849 211.599C168.843 225.102 186.745 249.214 195.696 261.27L204.648 273.326" stroke="url(#paint66_linear_2511_29)" stroke-opacity="0.35"/>
<path opacity="0.59799" d="M194.339 91.6579L191.281 97.328C188.223 102.998 182.107 114.338 185.983 130.867C189.859 147.395 203.728 169.111 199.832 181.604C195.937 194.097 174.278 197.367 172.603 211.013C170.928 224.659 189.237 248.681 198.392 260.692L207.547 272.702" stroke="url(#paint67_linear_2511_29)" stroke-opacity="0.35"/>
<path opacity="0.603015" d="M193.142 89.7292L190.242 95.4954C187.342 101.262 181.542 112.794 185.769 129.396C189.996 145.997 204.25 167.668 200.678 180.327C197.107 192.986 175.708 196.633 174.365 210.418C173.021 224.204 191.732 248.128 201.088 260.09L210.443 272.052" stroke="url(#paint68_linear_2511_29)" stroke-opacity="0.35"/>
<path opacity="0.60804" d="M191.947 87.828L189.206 93.6885C186.464 99.549 180.982 111.27 185.559 127.94C190.135 144.61 204.772 166.23 201.524 179.051C198.277 191.871 177.146 195.894 176.134 209.814C175.123 223.735 194.23 247.554 203.783 259.464L213.337 271.373" stroke="url(#paint69_linear_2511_29)" stroke-opacity="0.35"/>
<path opacity="0.613065" d="M190.756 85.9547L188.174 91.9077C185.592 97.8607 180.429 109.767 185.354 126.5C190.279 143.234 205.292 164.795 202.37 177.774C199.449 190.753 178.592 195.149 177.912 209.201C177.232 223.252 196.73 246.959 206.478 258.813L216.227 270.666" stroke="url(#paint70_linear_2511_29)" stroke-opacity="0.35"/>
<path opacity="0.61809" d="M189.567 84.1093L187.146 90.153C184.725 96.1967 179.882 108.284 185.153 125.076C190.425 141.868 205.811 163.365 203.216 176.498C200.621 189.63 180.045 194.399 179.697 208.578C179.35 222.756 199.231 246.344 209.172 258.137L219.113 269.931" stroke="url(#paint71_linear_2511_29)" stroke-opacity="0.35"/>
<path opacity="0.623116" d="M188.384 82.2922L186.123 88.4248C183.863 94.5574 179.342 106.822 184.959 123.668C190.576 140.513 206.33 161.938 204.062 175.221C201.795 188.504 181.505 193.645 181.489 207.945C181.474 222.246 201.734 245.707 211.864 257.437L221.994 269.168" stroke="url(#paint72_linear_2511_29)" stroke-opacity="0.35"/>
<path opacity="0.628141" d="M187.204 80.5033L185.106 86.7229C183.007 92.9424 178.81 105.381 184.771 122.275C190.731 139.168 206.848 160.516 204.908 173.945C202.969 187.374 182.971 192.884 183.289 207.303C183.606 221.721 204.238 245.048 214.554 256.712L224.87 268.376" stroke="url(#paint73_linear_2511_29)" stroke-opacity="0.35"/>
<path opacity="0.633166" d="M186.031 78.7428L184.094 85.0475C182.158 91.3521 178.286 103.961 184.588 120.898C190.89 137.834 207.366 159.097 205.754 172.668C204.143 186.239 184.445 192.117 185.094 206.65C185.744 221.182 206.741 244.368 217.24 255.962L227.739 267.555" stroke="url(#paint74_linear_2511_29)" stroke-opacity="0.35"/>
<path opacity="0.638191" d="M184.863 77.011L183.09 83.3988C181.317 89.7866 177.77 102.562 184.412 119.536C191.053 136.51 207.883 157.683 206.6 171.391C205.318 185.1 185.924 191.345 186.906 205.986C187.888 220.628 209.245 243.666 219.923 255.186L230.602 266.705" stroke="url(#paint75_linear_2511_29)" stroke-opacity="0.35"/>
<path opacity="0.643216" d="M183.702 75.3078L182.092 81.7768C180.483 88.2459 177.263 101.184 184.243 118.191C191.222 135.197 208.399 156.273 207.446 170.115C206.493 183.957 187.411 190.566 188.724 205.312C190.037 220.059 211.747 242.942 222.602 254.384L233.457 265.826" stroke="url(#paint76_linear_2511_29)" stroke-opacity="0.35"/>
<path opacity="0.648241" d="M182.548 73.6336L181.102 80.1818C179.657 86.7301 176.766 99.8267 184.08 116.861C191.395 133.895 208.915 154.867 208.292 168.838C207.669 182.81 188.903 189.781 190.548 204.628C192.193 219.474 214.249 242.196 225.277 253.557L236.305 264.918" stroke="url(#paint77_linear_2511_29)" stroke-opacity="0.35"/>
<path opacity="0.653266" d="M181.402 71.9885L180.121 78.614C178.84 85.2396 176.278 98.4907 183.926 115.547C191.573 132.603 209.431 153.465 209.138 167.562C208.845 181.658 190.401 188.99 192.377 203.933C194.353 218.875 216.748 241.428 227.946 252.704L239.144 263.981" stroke="url(#paint78_linear_2511_29)" stroke-opacity="0.35"/>
<path opacity="0.658291" d="M180.264 70.3723L179.148 77.0731C178.032 83.7739 175.799 97.1755 183.778 114.249C191.757 131.322 209.947 152.068 209.984 166.285C210.021 180.503 191.905 188.193 194.211 203.226C196.517 218.26 219.245 240.637 230.609 251.825L241.974 263.014" stroke="url(#paint79_linear_2511_29)" stroke-opacity="0.35"/>
<path opacity="0.663317" d="M179.135 68.7853L178.184 75.5593C177.233 82.3333 175.332 95.8813 183.639 112.967C191.946 130.052 210.463 150.674 210.83 165.009C211.197 179.343 193.414 187.388 196.05 202.508C198.685 217.628 221.739 239.823 233.267 250.92L244.794 262.018" stroke="url(#paint80_linear_2511_29)" stroke-opacity="0.35"/>
<path opacity="0.668342" d="M178.016 67.228L177.231 74.0731C176.445 80.9183 174.875 94.6085 183.508 111.7C192.142 128.792 210.979 149.286 211.676 163.732C212.373 178.178 194.929 186.577 197.893 201.779C200.858 216.981 224.23 238.987 235.917 249.99L247.603 260.992" stroke="url(#paint81_linear_2511_29)" stroke-opacity="0.35"/>
<path opacity="0.673367" d="M176.907 65.6996L176.288 72.6138C175.668 79.528 174.429 93.3563 183.386 110.45C192.342 127.543 211.495 147.901 212.522 162.455C213.548 177.009 196.449 185.759 199.741 201.038C203.033 216.318 226.718 238.127 238.56 249.032L250.402 259.937" stroke="url(#paint82_linear_2511_29)" stroke-opacity="0.35"/>
<path opacity="0.678392" d="M175.81 64.2008L175.356 71.182C174.902 78.1631 173.995 92.1254 183.272 109.215C192.55 126.305 212.012 146.522 213.368 161.179C214.724 175.836 197.973 184.934 201.592 200.286C205.211 215.638 229.2 237.245 241.195 248.048L253.189 258.852" stroke="url(#paint83_linear_2511_29)" stroke-opacity="0.35"/>
<path opacity="0.683417" d="M174.723 62.7317L174.435 69.7777C174.148 76.8236 173.572 90.9155 183.168 107.996C192.763 125.077 212.529 145.146 214.214 159.902C215.898 174.658 199.502 184.101 203.447 199.521C207.392 214.942 231.678 236.339 243.821 247.038L255.964 257.737" stroke="url(#paint84_linear_2511_29)" stroke-opacity="0.35"/>
<path opacity="0.688442" d="M173.649 61.292L173.527 68.4006C173.406 75.5092 173.163 89.7265 183.073 106.793C192.983 123.859 213.046 143.775 215.059 158.626C217.073 173.476 201.036 183.261 205.306 198.745C209.575 214.228 234.151 235.41 246.439 246.001L258.727 256.592" stroke="url(#paint85_linear_2511_29)" stroke-opacity="0.35"/>
<path opacity="0.693467" d="M172.587 59.8821L172.631 67.0513C172.676 74.2204 172.766 88.5587 182.988 105.606C193.21 122.653 213.564 142.409 215.905 157.349C218.247 172.289 202.574 182.414 207.167 197.956C211.76 213.498 236.618 234.458 249.047 244.938L261.476 255.418" stroke="url(#paint86_linear_2511_29)" stroke-opacity="0.35"/>
<path opacity="0.698492" d="M171.538 58.5018L171.749 65.7293C171.96 72.9568 172.382 87.4117 182.913 104.434C193.443 121.457 214.083 141.047 216.751 156.073C219.42 171.098 204.116 181.559 209.031 197.155C213.946 212.751 239.078 233.482 251.645 243.848L264.211 254.214" stroke="url(#paint87_linear_2511_29)" stroke-opacity="0.35"/>
<path opacity="0.703518" d="M170.503 57.1512L170.88 64.4348C171.257 71.7184 172.011 86.2856 182.848 103.278C193.684 120.271 214.603 139.69 217.597 154.796C220.592 169.902 205.662 180.696 210.897 196.341C216.132 211.987 241.532 232.483 254.232 242.731L266.932 252.98" stroke="url(#paint88_linear_2511_29)" stroke-opacity="0.35"/>
<path opacity="0.708543" d="M169.483 55.8304L170.026 63.1679C170.569 70.5054 171.655 85.1804 182.793 102.138C193.932 119.096 215.123 138.337 218.443 153.519C221.763 168.702 207.212 179.825 212.766 195.515C218.319 211.205 243.978 231.46 256.808 241.588L269.637 251.715" stroke="url(#paint89_linear_2511_29)" stroke-opacity="0.35"/>
<path opacity="0.713568" d="M168.477 54.5393L169.186 61.9285C169.895 69.3177 171.312 84.096 182.75 101.014C194.187 117.932 215.644 136.989 219.289 152.243C222.933 167.496 208.765 178.947 214.636 194.676C220.507 210.405 246.417 230.413 259.372 240.417L272.327 250.421" stroke="url(#paint90_linear_2511_29)" stroke-opacity="0.35"/>
<path opacity="0.718593" d="M167.487 53.2781L168.361 60.7167C169.236 68.1553 170.985 83.0325 182.717 99.905C194.45 116.778 216.167 135.645 220.135 150.966C224.102 166.287 210.321 178.06 216.507 193.824C222.693 209.588 248.847 229.343 261.924 239.22L275.001 249.097" stroke="url(#paint91_linear_2511_29)" stroke-opacity="0.35"/>
<path opacity="0.723618" d="M166.513 52.0466L167.552 59.5324C168.592 67.0181 170.672 81.9896 182.697 98.8118C194.721 115.634 216.691 134.307 220.98 149.69C225.27 165.072 211.88 177.165 218.38 192.959C224.879 208.753 251.269 228.248 264.464 237.996L277.658 247.744" stroke="url(#paint92_linear_2511_29)" stroke-opacity="0.35"/>
<path opacity="0.728643" d="M165.555 50.8446L166.76 58.3753C167.965 65.9059 170.375 80.9671 182.687 97.7338C195 114.5 217.216 132.973 221.826 148.413C226.437 163.853 213.442 176.261 220.253 192.081C227.064 207.9 253.681 227.13 266.99 236.745L280.298 246.36" stroke="url(#paint93_linear_2511_29)" stroke-opacity="0.35"/>
<path opacity="0.733668" d="M164.615 49.6727L165.984 57.2459C167.354 64.8191 170.093 79.9655 182.69 96.6715C195.287 113.378 217.742 131.643 222.672 147.136C227.602 162.629 215.006 175.35 222.127 191.189C229.247 207.029 256.084 225.988 269.502 235.467L282.92 244.946" stroke="url(#paint94_linear_2511_29)" stroke-opacity="0.35"/>
<path opacity="0.738693" d="M163.692 48.5304L165.226 56.1438C166.759 63.7573 169.827 78.9843 182.705 95.6246C195.582 112.265 218.27 130.319 223.518 145.86C228.765 161.401 216.573 174.429 224.001 190.284C231.428 206.139 258.476 224.821 272 234.162L285.524 243.503" stroke="url(#paint95_linear_2511_29)" stroke-opacity="0.35"/>
<path opacity="0.743719" d="M162.787 47.4173L164.485 55.0687C166.182 62.7201 169.578 78.023 182.732 94.5926C195.886 111.162 218.8 128.998 224.364 144.583C229.928 160.167 218.142 173.5 225.874 189.365C233.607 205.231 260.858 223.631 274.483 232.83L288.109 242.03" stroke="url(#paint96_linear_2511_29)" stroke-opacity="0.35"/>
<path opacity="0.748744" d="M161.901 46.3343L163.762 54.0214C165.623 61.7084 169.345 77.0826 182.772 93.5763C196.199 110.07 219.331 127.683 225.209 143.306C231.088 158.929 219.713 172.562 227.748 188.433C235.783 204.305 263.229 222.416 276.951 231.472L290.674 240.527" stroke="url(#paint97_linear_2511_29)" stroke-opacity="0.35"/>
<path opacity="0.753769" d="M161.035 45.2808L163.058 53.0011C165.082 60.7214 169.129 76.1621 182.825 92.575C196.52 108.988 219.864 126.373 226.055 142.03C232.246 157.687 221.285 171.615 229.62 187.488C237.956 203.36 265.588 221.178 279.404 230.086L293.22 238.995" stroke="url(#paint98_linear_2511_29)" stroke-opacity="0.35"/>
<path opacity="0.758794" d="M160.188 44.2566L162.374 52.0079C164.559 59.7591 168.931 75.2617 182.891 91.5887C196.85 107.916 220.399 125.067 226.901 140.753C233.403 156.439 222.859 170.659 231.492 186.528C240.125 202.397 267.935 219.915 281.84 228.674L295.745 237.433" stroke="url(#paint99_linear_2511_29)" stroke-opacity="0.35"/>
<path opacity="0.763819" d="M159.362 43.262L161.709 51.0418C164.056 58.8216 168.75 74.3813 182.97 90.6176C197.19 106.854 220.936 123.767 227.747 139.477C234.558 155.187 224.434 169.694 233.362 185.554C242.29 201.415 270.269 218.628 284.259 227.235L298.249 235.842" stroke="url(#paint100_linear_2511_29)" stroke-opacity="0.35"/>
<path opacity="0.768844" d="M158.556 42.2962L161.064 50.1022C163.572 57.9083 168.587 73.5203 183.063 89.6608C197.539 105.801 221.475 122.47 228.592 138.2C235.71 153.929 226.01 168.719 235.23 184.566C244.45 200.413 272.591 217.317 286.661 225.769L300.731 234.221" stroke="url(#paint101_linear_2511_29)" stroke-opacity="0.35"/>
<path opacity="0.773869" d="M157.772 41.3602L160.44 49.19C163.107 57.0199 168.443 72.6796 183.17 88.7195C197.897 104.759 222.016 121.179 229.438 136.923C236.861 152.668 227.587 167.736 237.097 183.565C246.606 199.393 274.899 215.982 289.045 224.277L303.192 232.571" stroke="url(#paint102_linear_2511_29)" stroke-opacity="0.35"/>
<path opacity="0.778894" d="M157.009 40.453L159.836 48.3042C162.663 56.1555 168.317 71.8581 183.291 87.7924C198.265 103.727 222.559 119.893 230.284 135.647C238.009 151.401 229.164 166.743 238.96 182.548C248.757 198.354 277.193 214.623 291.411 222.757L305.63 230.892" stroke="url(#paint103_linear_2511_29)" stroke-opacity="0.35"/>
<path opacity="0.78392" d="M156.269 39.5749L159.254 47.4453C162.24 55.3156 168.21 71.0563 183.426 86.8802C198.642 102.704 223.105 118.611 231.13 134.37C239.155 150.129 230.742 165.741 240.822 181.518C250.901 197.296 279.473 213.24 293.759 221.212L308.045 229.184" stroke="url(#paint104_linear_2511_29)" stroke-opacity="0.35"/>
<path opacity="0.788945" d="M155.552 38.7254L158.694 46.6124C161.837 54.4994 168.122 70.2734 183.576 85.982C199.03 101.691 223.653 117.334 231.975 133.093C240.298 148.853 232.32 164.728 242.68 180.473C253.04 196.218 281.738 211.832 296.087 219.64L310.436 227.447" stroke="url(#paint105_linear_2511_29)" stroke-opacity="0.35"/>
<path opacity="0.79397" d="M154.858 37.9051L158.157 45.8063C161.456 53.7075 168.054 69.51 183.74 85.0986C199.427 100.687 224.204 116.062 232.821 131.817C241.439 147.572 233.898 163.707 244.535 179.414C255.173 195.122 283.989 210.401 298.396 218.041L312.804 225.681" stroke="url(#paint106_linear_2511_29)" stroke-opacity="0.35"/>
<path opacity="0.798995" d="M154.187 37.1131L157.642 45.0262C161.096 52.9393 168.005 68.7654 183.92 84.2292C199.835 99.693 224.757 114.795 233.667 130.54C242.577 146.286 235.475 162.676 246.387 178.341C257.298 194.006 286.223 208.946 300.685 216.416L315.147 223.887" stroke="url(#paint107_linear_2511_29)" stroke-opacity="0.35"/>
<path opacity="0.80402" d="M153.541 36.3496L157.15 44.2721C160.759 52.1946 167.976 68.0396 184.115 83.3739C200.253 98.7082 225.313 113.532 234.513 129.263C243.712 144.995 237.052 161.634 248.234 177.252C259.417 192.87 288.441 207.467 302.954 214.765L317.466 222.064" stroke="url(#paint108_linear_2511_29)" stroke-opacity="0.35"/>
<path opacity="0.809045" d="M152.92 35.6146L156.682 43.5442C160.444 51.4737 167.968 67.3327 184.324 82.5329C200.681 97.7331 225.871 112.274 235.358 127.987C244.845 143.7 238.628 160.584 250.078 176.15C261.528 191.716 290.643 205.964 305.201 213.089L319.759 220.213" stroke="url(#paint109_linear_2511_29)" stroke-opacity="0.35"/>
<path opacity="0.81407" d="M152.324 34.9075L156.238 42.8417C160.152 50.7758 167.98 66.644 184.55 81.7054C201.12 96.7668 226.433 111.021 236.204 126.71C245.975 142.399 240.203 159.522 251.917 175.032C263.63 190.542 292.829 204.438 307.428 211.386L322.027 218.334" stroke="url(#paint110_linear_2511_29)" stroke-opacity="0.35"/>
<path opacity="0.819095" d="M151.753 34.2285L155.818 42.1648C159.883 50.1011 168.012 65.9737 184.791 80.8917C201.57 95.8098 226.998 109.773 237.05 125.434C247.101 141.094 241.777 158.452 253.751 173.9C265.725 189.348 294.997 202.888 309.632 209.657L324.268 216.427" stroke="url(#paint111_linear_2511_29)" stroke-opacity="0.35"/>
<path opacity="0.824121" d="M151.208 33.5773L155.422 41.5134C159.637 49.4494 168.066 65.3215 185.048 80.0917C202.03 94.8618 227.565 108.53 237.895 124.157C248.225 139.784 243.35 157.371 255.58 172.753C267.811 188.135 297.147 201.314 311.815 207.903L326.483 214.492" stroke="url(#paint112_linear_2511_29)" stroke-opacity="0.35"/>
<path opacity="0.829146" d="M150.689 32.9536L155.052 40.887C159.415 48.8204 168.141 64.6872 185.322 79.3049C202.502 93.9226 228.136 107.291 238.741 122.88C249.346 138.47 244.92 156.28 257.404 171.591C269.887 186.903 299.279 199.716 313.975 206.123L328.671 212.53" stroke="url(#paint113_linear_2511_29)" stroke-opacity="0.35"/>
<path opacity="0.834171" d="M150.198 32.3574L154.708 40.2857C159.218 48.2141 168.238 64.0707 185.611 78.5316C202.984 92.9924 228.71 106.057 239.586 121.604C250.463 137.15 246.489 155.178 259.222 170.415C271.954 185.651 301.393 198.096 316.112 204.318L330.831 210.54" stroke="url(#paint114_linear_2511_29)" stroke-opacity="0.35"/>
<path opacity="0.839196" d="M149.733 31.7882L154.389 39.709C159.045 47.6299 168.356 63.4716 185.917 77.7712C203.478 92.0707 229.288 104.828 240.432 120.327C251.577 135.826 248.056 154.067 261.034 169.223C274.012 184.379 303.488 196.451 318.226 202.487L332.964 208.523" stroke="url(#paint115_linear_2511_29)" stroke-opacity="0.35"/>
<path opacity="0.844221" d="M149.297 31.2462L154.097 39.1571C158.897 47.0681 168.497 62.89 186.239 77.024C203.982 91.1579 229.868 103.604 241.278 119.051C252.687 134.497 249.62 152.945 262.839 168.017C276.059 183.089 305.564 194.784 320.316 200.632L335.069 206.48" stroke="url(#paint116_linear_2511_29)" stroke-opacity="0.35"/>
<path opacity="0.849246" d="M148.888 30.7309L153.831 38.6295C158.773 46.5282 168.659 62.3255 186.579 76.2895C204.498 90.2535 230.452 102.384 242.123 117.774C253.794 133.164 251.182 151.813 264.639 166.796C278.095 181.778 307.62 193.094 322.382 198.752L337.144 204.41" stroke="url(#paint117_linear_2511_29)" stroke-opacity="0.35"/>
<path opacity="0.854271" d="M148.507 30.242L153.591 38.126C158.676 46.0099 168.844 61.7778 186.935 75.5676C205.026 89.3574 231.04 101.169 242.969 116.498C254.898 131.826 252.741 150.671 266.431 165.559C280.12 180.448 309.656 191.381 324.424 196.847L339.191 202.313" stroke="url(#paint118_linear_2511_29)" stroke-opacity="0.35"/>
<path opacity="0.859297" d="M148.156 29.7793L153.38 37.6462C158.603 45.513 169.051 61.2466 187.308 74.8581C205.565 88.4695 231.632 99.9588 243.815 115.221C255.998 130.483 254.297 149.518 268.216 164.308C282.134 179.099 311.672 189.645 326.44 194.918L341.209 200.191" stroke="url(#paint119_linear_2511_29)" stroke-opacity="0.35"/>
<path opacity="0.864322" d="M147.833 29.3428L153.195 37.1901C158.557 45.0374 169.281 60.732 187.699 74.1609C206.116 87.5899 232.227 98.753 244.66 113.944C257.094 129.135 255.85 148.354 269.994 163.042C284.137 177.73 313.667 187.886 328.432 192.964L343.197 198.042" stroke="url(#paint120_linear_2511_29)" stroke-opacity="0.35"/>
<path opacity="0.869347" d="M147.54 28.9319L153.039 36.7573C158.537 44.5827 169.534 60.2335 188.106 73.4758C206.678 86.7181 232.826 97.5519 245.506 112.667C258.186 127.783 257.4 147.18 271.764 161.761C286.127 176.341 315.641 186.104 330.398 190.986L345.155 195.868" stroke="url(#paint121_linear_2511_29)" stroke-opacity="0.35"/>
<path opacity="0.874372" d="M147.277 28.5469L152.91 36.348C158.544 44.1491 169.811 59.7514 188.532 72.803C207.253 85.8546 233.428 96.3557 246.351 111.391C259.275 126.427 258.946 145.996 273.526 160.465C288.105 174.934 317.594 184.301 332.338 188.985L347.082 193.669" stroke="url(#paint122_linear_2511_29)" stroke-opacity="0.35"/>
<path opacity="0.879397" d="M147.044 28.1867L152.811 35.9612C158.577 43.7356 170.11 59.2846 188.975 72.1416C207.839 84.9986 234.035 95.1636 247.197 110.114C260.359 125.065 260.488 144.801 275.279 159.154C290.071 173.506 319.525 182.475 334.252 186.959L348.979 191.444" stroke="url(#paint123_linear_2511_29)" stroke-opacity="0.35"/>
<path opacity="0.884422" d="M146.842 27.8517L152.74 35.5971C158.637 43.3425 170.433 58.8334 189.435 71.4919C208.437 84.1503 234.645 93.9764 248.043 108.838C261.44 123.699 262.026 143.596 277.024 157.828C292.023 172.06 321.434 180.627 336.139 184.911L350.845 189.194" stroke="url(#paint124_linear_2511_29)" stroke-opacity="0.35"/>
<path opacity="0.889447" d="M146.67 27.5413L152.697 35.2553C158.725 42.9693 170.78 58.3974 189.914 70.8535C209.047 83.3095 235.26 92.7935 248.888 107.561C262.516 122.329 263.559 142.38 278.761 156.487C293.962 170.594 323.321 178.758 338 182.839L352.679 186.921" stroke="url(#paint125_linear_2511_29)" stroke-opacity="0.35"/>
<path opacity="0.894472" d="M146.529 27.2552L152.685 34.9355C158.84 42.6158 171.15 57.9764 190.41 70.2263C209.67 82.4761 235.879 91.6152 249.734 106.285C263.588 120.954 265.089 141.153 280.488 155.132C295.887 169.11 325.185 176.866 339.834 180.744L354.482 184.623" stroke="url(#paint126_linear_2511_29)" stroke-opacity="0.35"/>
<path opacity="0.899498" d="M146.42 26.9932L152.702 34.6374C158.983 42.2817 171.545 57.5701 190.925 69.61C210.305 81.65 236.502 90.4413 250.579 105.008C264.657 119.574 266.613 139.916 282.206 153.761C297.798 167.606 327.026 174.953 341.64 178.627L356.253 182.301" stroke="url(#paint127_linear_2511_29)" stroke-opacity="0.35"/>
<path opacity="0.904523" d="M146.343 26.7551L152.748 34.3609C159.153 41.9667 171.963 57.1784 191.457 69.0047C210.951 80.831 237.13 89.272 251.425 103.731C265.72 118.191 268.133 138.668 283.914 152.375C299.694 166.083 328.843 173.019 343.418 176.487L357.992 179.955" stroke="url(#paint128_linear_2511_29)" stroke-opacity="0.35"/>
<path opacity="0.909548" d="M146.298 26.5405L152.825 34.1056C159.352 41.6707 172.406 56.8009 192.008 68.4101C211.61 80.0192 237.761 88.1072 252.27 102.455C266.78 116.803 269.647 137.41 285.612 150.975C301.576 164.541 330.637 171.064 345.168 174.325L359.698 177.587" stroke="url(#paint129_linear_2511_29)" stroke-opacity="0.35"/>
<path opacity="0.914573" d="M146.285 26.3489L152.932 33.871C159.579 41.393 172.873 56.4372 192.577 67.8256C212.282 79.2139 238.397 86.9466 253.116 101.178C267.835 115.41 271.157 136.141 287.3 149.56C303.443 162.98 332.408 169.088 346.89 172.141L361.372 175.195" stroke="url(#paint130_linear_2511_29)" stroke-opacity="0.35"/>
<path opacity="0.919598" d="M146.304 26.1801L153.069 33.6568C159.834 41.1336 173.364 56.0871 193.165 67.2513C212.966 78.4154 239.038 85.7903 253.962 99.9017C268.885 114.013 272.661 134.861 288.978 148.131C305.295 161.4 334.154 167.091 348.583 169.936L363.013 172.781" stroke="url(#paint131_linear_2511_29)" stroke-opacity="0.35"/>
<path opacity="0.924623" d="M146.356 26.0336L153.237 33.4628C160.118 40.8919 173.88 55.7503 193.771 66.6868C213.662 77.6234 239.683 84.6382 254.807 98.6251C269.931 112.612 274.159 133.571 290.645 146.686C307.131 159.801 335.875 165.073 350.248 167.709L364.62 170.345" stroke="url(#paint132_linear_2511_29)" stroke-opacity="0.35"/>
<path opacity="0.929648" d="M146.441 25.9093L153.436 33.2886C160.431 40.6679 174.421 55.4265 194.396 66.1322C214.372 76.8378 240.333 83.4905 255.653 97.3484C270.972 111.206 275.651 132.27 292.301 145.227C308.951 158.184 337.572 163.035 351.883 165.461L366.194 167.887" stroke="url(#paint133_linear_2511_29)" stroke-opacity="0.35"/>
<path opacity="0.934673" d="M146.56 25.8069L153.666 33.1341C160.773 40.4613 174.986 55.1157 195.039 65.5871C215.093 76.0585 240.987 82.347 256.498 96.0719C272.009 109.797 277.137 130.958 293.946 143.753C310.754 156.549 339.244 160.978 353.489 163.193L367.734 165.407" stroke="url(#paint134_linear_2511_29)" stroke-opacity="0.35"/>
<path opacity="0.939699" d="M146.712 25.7259L153.928 32.9987C161.144 40.2716 175.576 54.8173 195.702 65.0513C215.827 75.2854 241.646 81.2078 257.344 94.7954C273.041 108.383 278.617 129.636 295.579 142.265C312.542 154.894 340.891 158.901 355.066 160.904L369.241 162.907" stroke="url(#paint135_linear_2511_29)" stroke-opacity="0.35"/>
<path opacity="0.944724" d="M146.898 25.6658L154.221 32.8821C161.544 40.0984 176.191 54.531 196.383 64.5245C216.574 74.5181 242.31 80.0726 258.189 93.5187C274.068 106.965 280.09 128.303 297.201 140.762C314.312 153.222 342.513 156.804 356.613 158.594L370.713 160.385" stroke="url(#paint136_linear_2511_29)" stroke-opacity="0.35"/>
<path opacity="0.949749" d="M147.117 25.6266L154.546 32.7842C161.974 39.9417 176.831 54.2568 197.082 64.0068C217.334 73.7568 242.979 78.9417 259.035 92.2424C275.091 105.543 281.557 126.959 298.811 139.246C316.066 151.532 344.108 154.688 358.13 156.266L372.151 157.844" stroke="url(#paint137_linear_2511_29)" stroke-opacity="0.35"/>
<path opacity="0.954774" d="M147.371 25.6075L154.902 32.7041C162.434 39.8007 177.496 53.9939 197.801 63.4974C218.106 73.0009 243.653 77.8146 259.88 90.9657C276.108 104.117 283.016 125.605 300.409 137.714C317.801 149.823 345.678 152.552 359.616 153.917L373.555 155.282" stroke="url(#paint138_linear_2511_29)" stroke-opacity="0.35"/>
<path opacity="0.959799" d="M147.659 25.6086L155.291 32.6421C162.923 39.6756 178.186 53.7426 198.539 62.9967C218.891 72.2508 244.331 76.6918 260.726 89.6893C277.12 102.687 284.469 124.241 301.994 136.169C319.52 148.097 347.222 150.399 361.072 151.55L374.923 152.701" stroke="url(#paint139_linear_2511_29)" stroke-opacity="0.35"/>
<path opacity="0.964824" d="M147.981 25.6289L155.711 32.5972C163.441 39.5655 178.902 53.502 199.295 62.5039C219.688 71.5057 245.015 75.5728 261.571 88.4127C278.128 101.253 285.914 122.866 303.567 134.609C321.22 146.352 348.739 148.226 362.498 149.163L376.258 150.1" stroke="url(#paint140_linear_2511_29)" stroke-opacity="0.35"/>
<path opacity="0.969849" d="M148.338 25.6683L156.164 32.5692C163.99 39.4702 179.642 53.272 200.07 62.0189C220.499 70.7657 245.703 74.4576 262.417 87.1361C279.13 99.8146 287.352 121.48 305.127 133.035C322.902 144.59 350.229 146.035 363.893 146.758L377.557 147.481" stroke="url(#paint141_linear_2511_29)" stroke-opacity="0.35"/>
<path opacity="0.974874" d="M148.73 25.7266L156.649 32.558C164.569 39.3895 180.408 53.0524 200.865 61.5416C221.322 70.0308 246.397 73.3464 263.262 85.8596C280.127 98.3728 288.783 120.084 306.674 131.447C324.566 142.811 351.693 143.827 365.257 144.335L378.821 144.843" stroke="url(#paint142_linear_2511_29)" stroke-opacity="0.35"/>
<path opacity="0.9799" d="M149.156 25.8032L157.167 32.5631C165.178 39.323 181.199 52.8429 201.678 61.0718C222.158 69.3008 247.096 72.239 264.108 84.5831C281.12 96.9272 290.206 118.677 308.208 129.846C326.211 141.014 353.13 141.601 366.59 141.894L380.05 142.187" stroke="url(#paint143_linear_2511_29)" stroke-opacity="0.35"/>
<path opacity="0.984925" d="M149.618 25.8977L157.717 32.584C165.816 39.2703 182.015 52.643 202.511 60.6092C223.007 68.5755 247.8 71.1354 264.953 83.3066C282.107 95.4778 291.62 117.26 309.729 128.23C327.837 139.2 354.54 139.357 367.892 139.436L381.243 139.514" stroke="url(#paint144_linear_2511_29)" stroke-opacity="0.35"/>
<path opacity="0.98995" d="M150.115 26.0095L158.3 32.6202C166.486 39.2308 182.856 52.4522 203.362 60.1533C223.868 67.8544 248.509 70.0352 265.799 82.0299C283.088 94.0245 293.027 115.833 311.235 126.601C329.444 137.369 355.923 137.096 369.162 136.96L382.401 136.824" stroke="url(#paint145_linear_2511_29)" stroke-opacity="0.35"/>
<path opacity="0.994975" d="M150.647 26.1387L158.916 32.6718C167.185 39.2048 183.723 52.2708 204.233 59.7044C224.742 67.138 249.223 68.9392 266.644 80.7536C284.065 92.568 294.425 114.396 312.728 124.958C331.032 135.521 357.278 134.819 370.401 134.468L383.524 134.117" stroke="url(#paint146_linear_2511_29)" stroke-opacity="0.35"/>
<path d="M151.214 26.2843L159.564 32.7377C167.914 39.1911 184.615 52.0978 205.122 59.2617C225.629 66.4255 249.943 67.8464 267.49 79.4769C285.036 91.1075 295.815 112.948 314.207 123.302C332.6 133.656 358.605 132.525 371.608 131.959L384.611 131.393" stroke="url(#paint147_linear_2511_29)" stroke-opacity="0.35"/>
<defs>
<linearGradient id="paint0_linear_2511_29" x1="149.256" y1="292.745" x2="159.197" y2="246.186" gradientUnits="userSpaceOnUse">
<stop stop-color="#0038FF"/>
<stop offset="1" stop-color="#B620E0"/>
</linearGradient>
<linearGradient id="paint1_linear_2511_29" x1="150.645" y1="291.581" x2="160.034" y2="244.601" gradientUnits="userSpaceOnUse">
<stop stop-color="#0038FF"/>
<stop offset="1" stop-color="#B620E0"/>
</linearGradient>
<linearGradient id="paint2_linear_2511_29" x1="152.033" y1="290.409" x2="160.854" y2="243.003" gradientUnits="userSpaceOnUse">
<stop stop-color="#0038FF"/>
<stop offset="1" stop-color="#B620E0"/>
</linearGradient>
<linearGradient id="paint3_linear_2511_29" x1="153.418" y1="289.23" x2="161.656" y2="241.393" gradientUnits="userSpaceOnUse">
<stop stop-color="#0038FF"/>
<stop offset="1" stop-color="#B620E0"/>
</linearGradient>
<linearGradient id="paint4_linear_2511_29" x1="154.801" y1="288.042" x2="162.438" y2="239.771" gradientUnits="userSpaceOnUse">
<stop stop-color="#0038FF"/>
<stop offset="1" stop-color="#B620E0"/>
</linearGradient>
<linearGradient id="paint5_linear_2511_29" x1="156.181" y1="286.847" x2="163.199" y2="238.136" gradientUnits="userSpaceOnUse">
<stop stop-color="#0038FF"/>
<stop offset="1" stop-color="#B620E0"/>
</linearGradient>
<linearGradient id="paint6_linear_2511_29" x1="157.559" y1="285.643" x2="163.939" y2="236.49" gradientUnits="userSpaceOnUse">
<stop stop-color="#0038FF"/>
<stop offset="1" stop-color="#B620E0"/>
</linearGradient>
<linearGradient id="paint7_linear_2511_29" x1="158.934" y1="284.432" x2="164.656" y2="234.833" gradientUnits="userSpaceOnUse">
<stop stop-color="#0038FF"/>
<stop offset="1" stop-color="#B620E0"/>
</linearGradient>
<linearGradient id="paint8_linear_2511_29" x1="160.306" y1="283.213" x2="165.349" y2="233.166" gradientUnits="userSpaceOnUse">
<stop stop-color="#0038FF"/>
<stop offset="1" stop-color="#B620E0"/>
</linearGradient>
<linearGradient id="paint9_linear_2511_29" x1="161.674" y1="281.985" x2="166.017" y2="231.488" gradientUnits="userSpaceOnUse">
<stop stop-color="#0038FF"/>
<stop offset="1" stop-color="#B620E0"/>
</linearGradient>
<linearGradient id="paint10_linear_2511_29" x1="163.04" y1="280.75" x2="166.658" y2="229.801" gradientUnits="userSpaceOnUse">
<stop stop-color="#0038FF"/>
<stop offset="1" stop-color="#B620E0"/>
</linearGradient>
<linearGradient id="paint11_linear_2511_29" x1="164.401" y1="279.506" x2="167.273" y2="228.106" gradientUnits="userSpaceOnUse">
<stop stop-color="#0038FF"/>
<stop offset="1" stop-color="#B620E0"/>
</linearGradient>
<linearGradient id="paint12_linear_2511_29" x1="165.76" y1="278.255" x2="167.858" y2="226.403" gradientUnits="userSpaceOnUse">
<stop stop-color="#0038FF"/>
<stop offset="1" stop-color="#B620E0"/>
</linearGradient>
<linearGradient id="paint13_linear_2511_29" x1="167.114" y1="276.995" x2="168.414" y2="224.693" gradientUnits="userSpaceOnUse">
<stop stop-color="#0038FF"/>
<stop offset="1" stop-color="#B620E0"/>
</linearGradient>
<linearGradient id="paint14_linear_2511_29" x1="168.464" y1="275.727" x2="168.939" y2="222.977" gradientUnits="userSpaceOnUse">
<stop stop-color="#0038FF"/>
<stop offset="1" stop-color="#B620E0"/>
</linearGradient>
<linearGradient id="paint15_linear_2511_29" x1="169.811" y1="274.452" x2="169.432" y2="221.256" gradientUnits="userSpaceOnUse">
<stop stop-color="#0038FF"/>
<stop offset="1" stop-color="#B620E0"/>
</linearGradient>
<linearGradient id="paint16_linear_2511_29" x1="171.153" y1="273.168" x2="169.891" y2="219.532" gradientUnits="userSpaceOnUse">
<stop stop-color="#0038FF"/>
<stop offset="1" stop-color="#B620E0"/>
</linearGradient>
<linearGradient id="paint17_linear_2511_29" x1="172.491" y1="271.876" x2="170.315" y2="217.806" gradientUnits="userSpaceOnUse">
<stop stop-color="#0038FF"/>
<stop offset="1" stop-color="#B620E0"/>
</linearGradient>
<linearGradient id="paint18_linear_2511_29" x1="173.824" y1="270.576" x2="170.704" y2="216.079" gradientUnits="userSpaceOnUse">
<stop stop-color="#0038FF"/>
<stop offset="1" stop-color="#B620E0"/>
</linearGradient>
<linearGradient id="paint19_linear_2511_29" x1="175.152" y1="269.268" x2="171.056" y2="214.353" gradientUnits="userSpaceOnUse">
<stop stop-color="#0038FF"/>
<stop offset="1" stop-color="#B620E0"/>
</linearGradient>
<linearGradient id="paint20_linear_2511_29" x1="176.475" y1="267.952" x2="171.37" y2="212.629" gradientUnits="userSpaceOnUse">
<stop stop-color="#0038FF"/>
<stop offset="1" stop-color="#B620E0"/>
</linearGradient>
<linearGradient id="paint21_linear_2511_29" x1="177.794" y1="266.628" x2="171.645" y2="210.91" gradientUnits="userSpaceOnUse">
<stop stop-color="#0038FF"/>
<stop offset="1" stop-color="#B620E0"/>
</linearGradient>
<linearGradient id="paint22_linear_2511_29" x1="179.107" y1="265.296" x2="171.879" y2="209.197" gradientUnits="userSpaceOnUse">
<stop stop-color="#0038FF"/>
<stop offset="1" stop-color="#B620E0"/>
</linearGradient>
<linearGradient id="paint23_linear_2511_29" x1="180.416" y1="263.956" x2="172.073" y2="207.493" gradientUnits="userSpaceOnUse">
<stop stop-color="#0038FF"/>
<stop offset="1" stop-color="#B620E0"/>
</linearGradient>
<linearGradient id="paint24_linear_2511_29" x1="181.718" y1="262.608" x2="172.225" y2="205.8" gradientUnits="userSpaceOnUse">
<stop stop-color="#0038FF"/>
<stop offset="1" stop-color="#B620E0"/>
</linearGradient>
<linearGradient id="paint25_linear_2511_29" x1="183.015" y1="261.252" x2="172.335" y2="204.119" gradientUnits="userSpaceOnUse">
<stop stop-color="#0038FF"/>
<stop offset="1" stop-color="#B620E0"/>
</linearGradient>
<linearGradient id="paint26_linear_2511_29" x1="184.307" y1="259.888" x2="172.401" y2="202.455" gradientUnits="userSpaceOnUse">
<stop stop-color="#0038FF"/>
<stop offset="1" stop-color="#B620E0"/>
</linearGradient>
<linearGradient id="paint27_linear_2511_29" x1="185.592" y1="258.516" x2="172.424" y2="200.809" gradientUnits="userSpaceOnUse">
<stop stop-color="#0038FF"/>
<stop offset="1" stop-color="#B620E0"/>
</linearGradient>
<linearGradient id="paint28_linear_2511_29" x1="186.872" y1="257.136" x2="172.404" y2="199.184" gradientUnits="userSpaceOnUse">
<stop stop-color="#0038FF"/>
<stop offset="1" stop-color="#B620E0"/>
</linearGradient>
<linearGradient id="paint29_linear_2511_29" x1="188.145" y1="255.748" x2="172.339" y2="197.584" gradientUnits="userSpaceOnUse">
<stop stop-color="#0038FF"/>
<stop offset="1" stop-color="#B620E0"/>
</linearGradient>
<linearGradient id="paint30_linear_2511_29" x1="189.412" y1="254.353" x2="172.231" y2="196.012" gradientUnits="userSpaceOnUse">
<stop stop-color="#0038FF"/>
<stop offset="1" stop-color="#B620E0"/>
</linearGradient>
<linearGradient id="paint31_linear_2511_29" x1="190.673" y1="252.95" x2="172.079" y2="194.47" gradientUnits="userSpaceOnUse">
<stop stop-color="#0038FF"/>
<stop offset="1" stop-color="#B620E0"/>
</linearGradient>
<linearGradient id="paint32_linear_2511_29" x1="191.928" y1="251.539" x2="171.885" y2="192.962" gradientUnits="userSpaceOnUse">
<stop stop-color="#0038FF"/>
<stop offset="1" stop-color="#B620E0"/>
</linearGradient>
<linearGradient id="paint33_linear_2511_29" x1="193.175" y1="250.12" x2="171.649" y2="191.493" gradientUnits="userSpaceOnUse">
<stop stop-color="#0038FF"/>
<stop offset="1" stop-color="#B620E0"/>
</linearGradient>
<linearGradient id="paint34_linear_2511_29" x1="194.416" y1="248.694" x2="171.372" y2="190.064" gradientUnits="userSpaceOnUse">
<stop stop-color="#0038FF"/>
<stop offset="1" stop-color="#B620E0"/>
</linearGradient>
<linearGradient id="paint35_linear_2511_29" x1="195.65" y1="247.26" x2="171.056" y2="188.68" gradientUnits="userSpaceOnUse">
<stop stop-color="#0038FF"/>
<stop offset="1" stop-color="#B620E0"/>
</linearGradient>
<linearGradient id="paint36_linear_2511_29" x1="196.878" y1="245.818" x2="170.703" y2="187.346" gradientUnits="userSpaceOnUse">
<stop stop-color="#0038FF"/>
<stop offset="1" stop-color="#B620E0"/>
</linearGradient>
<linearGradient id="paint37_linear_2511_29" x1="198.098" y1="244.369" x2="170.316" y2="186.063" gradientUnits="userSpaceOnUse">
<stop stop-color="#0038FF"/>
<stop offset="1" stop-color="#B620E0"/>
</linearGradient>
<linearGradient id="paint38_linear_2511_29" x1="199.31" y1="242.913" x2="169.896" y2="184.835" gradientUnits="userSpaceOnUse">
<stop stop-color="#0038FF"/>
<stop offset="1" stop-color="#B620E0"/>
</linearGradient>
<linearGradient id="paint39_linear_2511_29" x1="200.516" y1="241.449" x2="169.446" y2="183.667" gradientUnits="userSpaceOnUse">
<stop stop-color="#0038FF"/>
<stop offset="1" stop-color="#B620E0"/>
</linearGradient>
<linearGradient id="paint40_linear_2511_29" x1="201.714" y1="239.978" x2="168.971" y2="182.561" gradientUnits="userSpaceOnUse">
<stop stop-color="#0038FF"/>
<stop offset="1" stop-color="#B620E0"/>
</linearGradient>
<linearGradient id="paint41_linear_2511_29" x1="202.905" y1="238.499" x2="168.474" y2="181.521" gradientUnits="userSpaceOnUse">
<stop stop-color="#0038FF"/>
<stop offset="1" stop-color="#B620E0"/>
</linearGradient>
<linearGradient id="paint42_linear_2511_29" x1="204.087" y1="237.013" x2="167.959" y2="180.549" gradientUnits="userSpaceOnUse">
<stop stop-color="#0038FF"/>
<stop offset="1" stop-color="#B620E0"/>
</linearGradient>
<linearGradient id="paint43_linear_2511_29" x1="205.263" y1="235.52" x2="167.432" y2="179.648" gradientUnits="userSpaceOnUse">
<stop stop-color="#0038FF"/>
<stop offset="1" stop-color="#B620E0"/>
</linearGradient>
<linearGradient id="paint44_linear_2511_29" x1="206.43" y1="234.02" x2="166.895" y2="178.82" gradientUnits="userSpaceOnUse">
<stop stop-color="#0038FF"/>
<stop offset="1" stop-color="#B620E0"/>
</linearGradient>
<linearGradient id="paint45_linear_2511_29" x1="207.589" y1="232.513" x2="166.357" y2="178.067" gradientUnits="userSpaceOnUse">
<stop stop-color="#0038FF"/>
<stop offset="1" stop-color="#B620E0"/>
</linearGradient>
<linearGradient id="paint46_linear_2511_29" x1="208.741" y1="230.999" x2="165.821" y2="177.389" gradientUnits="userSpaceOnUse">
<stop stop-color="#0038FF"/>
<stop offset="1" stop-color="#B620E0"/>
</linearGradient>
<linearGradient id="paint47_linear_2511_29" x1="209.884" y1="229.479" x2="165.293" y2="176.79" gradientUnits="userSpaceOnUse">
<stop stop-color="#0038FF"/>
<stop offset="1" stop-color="#B620E0"/>
</linearGradient>
<linearGradient id="paint48_linear_2511_29" x1="211.019" y1="227.951" x2="164.78" y2="176.267" gradientUnits="userSpaceOnUse">
<stop stop-color="#0038FF"/>
<stop offset="1" stop-color="#B620E0"/>
</linearGradient>
<linearGradient id="paint49_linear_2511_29" x1="212.145" y1="226.416" x2="164.289" y2="175.822" gradientUnits="userSpaceOnUse">
<stop stop-color="#0038FF"/>
<stop offset="1" stop-color="#B620E0"/>
</linearGradient>
<linearGradient id="paint50_linear_2511_29" x1="213.264" y1="224.875" x2="163.824" y2="175.453" gradientUnits="userSpaceOnUse">
<stop stop-color="#0038FF"/>
<stop offset="1" stop-color="#B620E0"/>
</linearGradient>
<linearGradient id="paint51_linear_2511_29" x1="214.373" y1="223.328" x2="163.393" y2="175.159" gradientUnits="userSpaceOnUse">
<stop stop-color="#0038FF"/>
<stop offset="1" stop-color="#B620E0"/>
</linearGradient>
<linearGradient id="paint52_linear_2511_29" x1="215.475" y1="221.773" x2="163.002" y2="174.937" gradientUnits="userSpaceOnUse">
<stop stop-color="#0038FF"/>
<stop offset="1" stop-color="#B620E0"/>
</linearGradient>
<linearGradient id="paint53_linear_2511_29" x1="216.567" y1="220.213" x2="162.656" y2="174.784" gradientUnits="userSpaceOnUse">
<stop stop-color="#0038FF"/>
<stop offset="1" stop-color="#B620E0"/>
</linearGradient>
<linearGradient id="paint54_linear_2511_29" x1="217.651" y1="218.646" x2="162.362" y2="174.698" gradientUnits="userSpaceOnUse">
<stop stop-color="#0038FF"/>
<stop offset="1" stop-color="#B620E0"/>
</linearGradient>
<linearGradient id="paint55_linear_2511_29" x1="218.726" y1="217.073" x2="162.125" y2="174.675" gradientUnits="userSpaceOnUse">
<stop stop-color="#0038FF"/>
<stop offset="1" stop-color="#B620E0"/>
</linearGradient>
<linearGradient id="paint56_linear_2511_29" x1="219.792" y1="215.493" x2="161.95" y2="174.708" gradientUnits="userSpaceOnUse">
<stop stop-color="#0038FF"/>
<stop offset="1" stop-color="#B620E0"/>
</linearGradient>
<linearGradient id="paint57_linear_2511_29" x1="220.85" y1="213.908" x2="161.841" y2="174.795" gradientUnits="userSpaceOnUse">
<stop stop-color="#0038FF"/>
<stop offset="1" stop-color="#B620E0"/>
</linearGradient>
<linearGradient id="paint58_linear_2511_29" x1="221.898" y1="212.317" x2="161.804" y2="174.928" gradientUnits="userSpaceOnUse">
<stop stop-color="#0038FF"/>
<stop offset="1" stop-color="#B620E0"/>
</linearGradient>
<linearGradient id="paint59_linear_2511_29" x1="222.937" y1="210.72" x2="161.841" y2="175.103" gradientUnits="userSpaceOnUse">
<stop stop-color="#0038FF"/>
<stop offset="1" stop-color="#B620E0"/>
</linearGradient>
<linearGradient id="paint60_linear_2511_29" x1="223.967" y1="209.117" x2="161.955" y2="175.312" gradientUnits="userSpaceOnUse">
<stop stop-color="#0038FF"/>
<stop offset="1" stop-color="#B620E0"/>
</linearGradient>
<linearGradient id="paint61_linear_2511_29" x1="224.988" y1="207.508" x2="162.149" y2="175.549" gradientUnits="userSpaceOnUse">
<stop stop-color="#0038FF"/>
<stop offset="1" stop-color="#B620E0"/>
</linearGradient>
<linearGradient id="paint62_linear_2511_29" x1="226" y1="205.894" x2="162.424" y2="175.808" gradientUnits="userSpaceOnUse">
<stop stop-color="#0038FF"/>
<stop offset="1" stop-color="#B620E0"/>
</linearGradient>
<linearGradient id="paint63_linear_2511_29" x1="227.003" y1="204.275" x2="162.781" y2="176.083" gradientUnits="userSpaceOnUse">
<stop stop-color="#0038FF"/>
<stop offset="1" stop-color="#B620E0"/>
</linearGradient>
<linearGradient id="paint64_linear_2511_29" x1="227.996" y1="202.65" x2="163.22" y2="176.365" gradientUnits="userSpaceOnUse">
<stop stop-color="#0038FF"/>
<stop offset="1" stop-color="#B620E0"/>
</linearGradient>
<linearGradient id="paint65_linear_2511_29" x1="228.98" y1="201.019" x2="163.741" y2="176.649" gradientUnits="userSpaceOnUse">
<stop stop-color="#0038FF"/>
<stop offset="1" stop-color="#B620E0"/>
</linearGradient>
<linearGradient id="paint66_linear_2511_29" x1="229.954" y1="199.384" x2="164.342" y2="176.929" gradientUnits="userSpaceOnUse">
<stop stop-color="#0038FF"/>
<stop offset="1" stop-color="#B620E0"/>
</linearGradient>
<linearGradient id="paint67_linear_2511_29" x1="230.919" y1="197.744" x2="165.023" y2="177.197" gradientUnits="userSpaceOnUse">
<stop stop-color="#0038FF"/>
<stop offset="1" stop-color="#B620E0"/>
</linearGradient>
<linearGradient id="paint68_linear_2511_29" x1="231.875" y1="196.098" x2="165.781" y2="177.449" gradientUnits="userSpaceOnUse">
<stop stop-color="#0038FF"/>
<stop offset="1" stop-color="#B620E0"/>
</linearGradient>
<linearGradient id="paint69_linear_2511_29" x1="232.82" y1="194.448" x2="166.613" y2="177.679" gradientUnits="userSpaceOnUse">
<stop stop-color="#0038FF"/>
<stop offset="1" stop-color="#B620E0"/>
</linearGradient>
<linearGradient id="paint70_linear_2511_29" x1="233.757" y1="192.793" x2="167.517" y2="177.882" gradientUnits="userSpaceOnUse">
<stop stop-color="#0038FF"/>
<stop offset="1" stop-color="#B620E0"/>
</linearGradient>
<linearGradient id="paint71_linear_2511_29" x1="234.684" y1="191.134" x2="168.488" y2="178.053" gradientUnits="userSpaceOnUse">
<stop stop-color="#0038FF"/>
<stop offset="1" stop-color="#B620E0"/>
</linearGradient>
<linearGradient id="paint72_linear_2511_29" x1="235.601" y1="189.47" x2="169.524" y2="178.189" gradientUnits="userSpaceOnUse">
<stop stop-color="#0038FF"/>
<stop offset="1" stop-color="#B620E0"/>
</linearGradient>
<linearGradient id="paint73_linear_2511_29" x1="236.509" y1="187.802" x2="170.62" y2="178.284" gradientUnits="userSpaceOnUse">
<stop stop-color="#0038FF"/>
<stop offset="1" stop-color="#B620E0"/>
</linearGradient>
<linearGradient id="paint74_linear_2511_29" x1="237.407" y1="186.13" x2="171.771" y2="178.337" gradientUnits="userSpaceOnUse">
<stop stop-color="#0038FF"/>
<stop offset="1" stop-color="#B620E0"/>
</linearGradient>
<linearGradient id="paint75_linear_2511_29" x1="238.295" y1="184.453" x2="172.975" y2="178.343" gradientUnits="userSpaceOnUse">
<stop stop-color="#0038FF"/>
<stop offset="1" stop-color="#B620E0"/>
</linearGradient>
<linearGradient id="paint76_linear_2511_29" x1="239.174" y1="182.773" x2="174.226" y2="178.302" gradientUnits="userSpaceOnUse">
<stop stop-color="#0038FF"/>
<stop offset="1" stop-color="#B620E0"/>
</linearGradient>
<linearGradient id="paint77_linear_2511_29" x1="240.043" y1="181.088" x2="175.52" y2="178.211" gradientUnits="userSpaceOnUse">
<stop stop-color="#0038FF"/>
<stop offset="1" stop-color="#B620E0"/>
</linearGradient>
<linearGradient id="paint78_linear_2511_29" x1="240.902" y1="179.4" x2="176.853" y2="178.069" gradientUnits="userSpaceOnUse">
<stop stop-color="#0038FF"/>
<stop offset="1" stop-color="#B620E0"/>
</linearGradient>
<linearGradient id="paint79_linear_2511_29" x1="241.752" y1="177.709" x2="178.22" y2="177.874" gradientUnits="userSpaceOnUse">
<stop stop-color="#0038FF"/>
<stop offset="1" stop-color="#B620E0"/>
</linearGradient>
<linearGradient id="paint80_linear_2511_29" x1="242.592" y1="176.013" x2="179.617" y2="177.625" gradientUnits="userSpaceOnUse">
<stop stop-color="#0038FF"/>
<stop offset="1" stop-color="#B620E0"/>
</linearGradient>
<linearGradient id="paint81_linear_2511_29" x1="243.422" y1="174.315" x2="181.04" y2="177.324" gradientUnits="userSpaceOnUse">
<stop stop-color="#0038FF"/>
<stop offset="1" stop-color="#B620E0"/>
</linearGradient>
<linearGradient id="paint82_linear_2511_29" x1="244.243" y1="172.613" x2="182.486" y2="176.969" gradientUnits="userSpaceOnUse">
<stop stop-color="#0038FF"/>
<stop offset="1" stop-color="#B620E0"/>
</linearGradient>
<linearGradient id="paint83_linear_2511_29" x1="245.054" y1="170.908" x2="183.95" y2="176.561" gradientUnits="userSpaceOnUse">
<stop stop-color="#0038FF"/>
<stop offset="1" stop-color="#B620E0"/>
</linearGradient>
<linearGradient id="paint84_linear_2511_29" x1="245.855" y1="169.201" x2="185.429" y2="176.1" gradientUnits="userSpaceOnUse">
<stop stop-color="#0038FF"/>
<stop offset="1" stop-color="#B620E0"/>
</linearGradient>
<linearGradient id="paint85_linear_2511_29" x1="246.647" y1="167.49" x2="186.919" y2="175.587" gradientUnits="userSpaceOnUse">
<stop stop-color="#0038FF"/>
<stop offset="1" stop-color="#B620E0"/>
</linearGradient>
<linearGradient id="paint86_linear_2511_29" x1="247.429" y1="165.777" x2="188.418" y2="175.023" gradientUnits="userSpaceOnUse">
<stop stop-color="#0038FF"/>
<stop offset="1" stop-color="#B620E0"/>
</linearGradient>
<linearGradient id="paint87_linear_2511_29" x1="248.201" y1="164.061" x2="189.923" y2="174.41" gradientUnits="userSpaceOnUse">
<stop stop-color="#0038FF"/>
<stop offset="1" stop-color="#B620E0"/>
</linearGradient>
<linearGradient id="paint88_linear_2511_29" x1="248.964" y1="162.342" x2="191.43" y2="173.747" gradientUnits="userSpaceOnUse">
<stop stop-color="#0038FF"/>
<stop offset="1" stop-color="#B620E0"/>
</linearGradient>
<linearGradient id="paint89_linear_2511_29" x1="249.718" y1="160.621" x2="192.937" y2="173.038" gradientUnits="userSpaceOnUse">
<stop stop-color="#0038FF"/>
<stop offset="1" stop-color="#B620E0"/>
</linearGradient>
<linearGradient id="paint90_linear_2511_29" x1="250.461" y1="158.899" x2="194.442" y2="172.282" gradientUnits="userSpaceOnUse">
<stop stop-color="#0038FF"/>
<stop offset="1" stop-color="#B620E0"/>
</linearGradient>
<linearGradient id="paint91_linear_2511_29" x1="251.195" y1="157.174" x2="195.942" y2="171.483" gradientUnits="userSpaceOnUse">
<stop stop-color="#0038FF"/>
<stop offset="1" stop-color="#B620E0"/>
</linearGradient>
<linearGradient id="paint92_linear_2511_29" x1="251.92" y1="155.447" x2="197.437" y2="170.641" gradientUnits="userSpaceOnUse">
<stop stop-color="#0038FF"/>
<stop offset="1" stop-color="#B620E0"/>
</linearGradient>
<linearGradient id="paint93_linear_2511_29" x1="252.636" y1="153.719" x2="198.923" y2="169.757" gradientUnits="userSpaceOnUse">
<stop stop-color="#0038FF"/>
<stop offset="1" stop-color="#B620E0"/>
</linearGradient>
<linearGradient id="paint94_linear_2511_29" x1="253.342" y1="151.988" x2="200.399" y2="168.834" gradientUnits="userSpaceOnUse">
<stop stop-color="#0038FF"/>
<stop offset="1" stop-color="#B620E0"/>
</linearGradient>
<linearGradient id="paint95_linear_2511_29" x1="254.038" y1="150.257" x2="201.864" y2="167.874" gradientUnits="userSpaceOnUse">
<stop stop-color="#0038FF"/>
<stop offset="1" stop-color="#B620E0"/>
</linearGradient>
<linearGradient id="paint96_linear_2511_29" x1="254.725" y1="148.524" x2="203.317" y2="166.877" gradientUnits="userSpaceOnUse">
<stop stop-color="#0038FF"/>
<stop offset="1" stop-color="#B620E0"/>
</linearGradient>
<linearGradient id="paint97_linear_2511_29" x1="255.403" y1="146.79" x2="204.756" y2="165.847" gradientUnits="userSpaceOnUse">
<stop stop-color="#0038FF"/>
<stop offset="1" stop-color="#B620E0"/>
</linearGradient>
<linearGradient id="paint98_linear_2511_29" x1="256.072" y1="145.055" x2="206.181" y2="164.783" gradientUnits="userSpaceOnUse">
<stop stop-color="#0038FF"/>
<stop offset="1" stop-color="#B620E0"/>
</linearGradient>
<linearGradient id="paint99_linear_2511_29" x1="256.732" y1="143.318" x2="207.59" y2="163.689" gradientUnits="userSpaceOnUse">
<stop stop-color="#0038FF"/>
<stop offset="1" stop-color="#B620E0"/>
</linearGradient>
<linearGradient id="paint100_linear_2511_29" x1="257.382" y1="141.582" x2="208.983" y2="162.565" gradientUnits="userSpaceOnUse">
<stop stop-color="#0038FF"/>
<stop offset="1" stop-color="#B620E0"/>
</linearGradient>
<linearGradient id="paint101_linear_2511_29" x1="258.024" y1="139.844" x2="210.358" y2="161.413" gradientUnits="userSpaceOnUse">
<stop stop-color="#0038FF"/>
<stop offset="1" stop-color="#B620E0"/>
</linearGradient>
<linearGradient id="paint102_linear_2511_29" x1="258.657" y1="138.106" x2="211.717" y2="160.235" gradientUnits="userSpaceOnUse">
<stop stop-color="#0038FF"/>
<stop offset="1" stop-color="#B620E0"/>
</linearGradient>
<linearGradient id="paint103_linear_2511_29" x1="259.28" y1="136.367" x2="213.057" y2="159.032" gradientUnits="userSpaceOnUse">
<stop stop-color="#0038FF"/>
<stop offset="1" stop-color="#B620E0"/>
</linearGradient>
<linearGradient id="paint104_linear_2511_29" x1="259.895" y1="134.629" x2="214.38" y2="157.806" gradientUnits="userSpaceOnUse">
<stop stop-color="#0038FF"/>
<stop offset="1" stop-color="#B620E0"/>
</linearGradient>
<linearGradient id="paint105_linear_2511_29" x1="260.501" y1="132.89" x2="215.683" y2="156.558" gradientUnits="userSpaceOnUse">
<stop stop-color="#0038FF"/>
<stop offset="1" stop-color="#B620E0"/>
</linearGradient>
<linearGradient id="paint106_linear_2511_29" x1="261.099" y1="131.151" x2="216.968" y2="155.29" gradientUnits="userSpaceOnUse">
<stop stop-color="#0038FF"/>
<stop offset="1" stop-color="#B620E0"/>
</linearGradient>
<linearGradient id="paint107_linear_2511_29" x1="261.687" y1="129.413" x2="218.234" y2="154.002" gradientUnits="userSpaceOnUse">
<stop stop-color="#0038FF"/>
<stop offset="1" stop-color="#B620E0"/>
</linearGradient>
<linearGradient id="paint108_linear_2511_29" x1="262.267" y1="127.675" x2="219.481" y2="152.696" gradientUnits="userSpaceOnUse">
<stop stop-color="#0038FF"/>
<stop offset="1" stop-color="#B620E0"/>
</linearGradient>
<linearGradient id="paint109_linear_2511_29" x1="262.839" y1="125.937" x2="220.709" y2="151.374" gradientUnits="userSpaceOnUse">
<stop stop-color="#0038FF"/>
<stop offset="1" stop-color="#B620E0"/>
</linearGradient>
<linearGradient id="paint110_linear_2511_29" x1="263.402" y1="124.2" x2="221.918" y2="150.036" gradientUnits="userSpaceOnUse">
<stop stop-color="#0038FF"/>
<stop offset="1" stop-color="#B620E0"/>
</linearGradient>
<linearGradient id="paint111_linear_2511_29" x1="263.957" y1="122.464" x2="223.108" y2="148.684" gradientUnits="userSpaceOnUse">
<stop stop-color="#0038FF"/>
<stop offset="1" stop-color="#B620E0"/>
</linearGradient>
<linearGradient id="paint112_linear_2511_29" x1="264.504" y1="120.729" x2="224.279" y2="147.318" gradientUnits="userSpaceOnUse">
<stop stop-color="#0038FF"/>
<stop offset="1" stop-color="#B620E0"/>
</linearGradient>
<linearGradient id="paint113_linear_2511_29" x1="265.043" y1="118.994" x2="225.431" y2="145.941" gradientUnits="userSpaceOnUse">
<stop stop-color="#0038FF"/>
<stop offset="1" stop-color="#B620E0"/>
</linearGradient>
<linearGradient id="paint114_linear_2511_29" x1="265.574" y1="117.261" x2="226.564" y2="144.552" gradientUnits="userSpaceOnUse">
<stop stop-color="#0038FF"/>
<stop offset="1" stop-color="#B620E0"/>
</linearGradient>
<linearGradient id="paint115_linear_2511_29" x1="266.097" y1="115.529" x2="227.68" y2="143.153" gradientUnits="userSpaceOnUse">
<stop stop-color="#0038FF"/>
<stop offset="1" stop-color="#B620E0"/>
</linearGradient>
<linearGradient id="paint116_linear_2511_29" x1="266.612" y1="113.799" x2="228.776" y2="141.745" gradientUnits="userSpaceOnUse">
<stop stop-color="#0038FF"/>
<stop offset="1" stop-color="#B620E0"/>
</linearGradient>
<linearGradient id="paint117_linear_2511_29" x1="267.119" y1="112.071" x2="229.855" y2="140.329" gradientUnits="userSpaceOnUse">
<stop stop-color="#0038FF"/>
<stop offset="1" stop-color="#B620E0"/>
</linearGradient>
<linearGradient id="paint118_linear_2511_29" x1="267.618" y1="110.344" x2="230.917" y2="138.906" gradientUnits="userSpaceOnUse">
<stop stop-color="#0038FF"/>
<stop offset="1" stop-color="#B620E0"/>
</linearGradient>
<linearGradient id="paint119_linear_2511_29" x1="268.11" y1="108.618" x2="231.961" y2="137.475" gradientUnits="userSpaceOnUse">
<stop stop-color="#0038FF"/>
<stop offset="1" stop-color="#B620E0"/>
</linearGradient>
<linearGradient id="paint120_linear_2511_29" x1="268.595" y1="106.895" x2="232.988" y2="136.039" gradientUnits="userSpaceOnUse">
<stop stop-color="#0038FF"/>
<stop offset="1" stop-color="#B620E0"/>
</linearGradient>
<linearGradient id="paint121_linear_2511_29" x1="269.073" y1="105.174" x2="233.998" y2="134.598" gradientUnits="userSpaceOnUse">
<stop stop-color="#0038FF"/>
<stop offset="1" stop-color="#B620E0"/>
</linearGradient>
<linearGradient id="paint122_linear_2511_29" x1="269.543" y1="103.456" x2="234.991" y2="133.153" gradientUnits="userSpaceOnUse">
<stop stop-color="#0038FF"/>
<stop offset="1" stop-color="#B620E0"/>
</linearGradient>
<linearGradient id="paint123_linear_2511_29" x1="270.006" y1="101.739" x2="235.969" y2="131.705" gradientUnits="userSpaceOnUse">
<stop stop-color="#0038FF"/>
<stop offset="1" stop-color="#B620E0"/>
</linearGradient>
<linearGradient id="paint124_linear_2511_29" x1="270.462" y1="100.026" x2="236.931" y2="130.253" gradientUnits="userSpaceOnUse">
<stop stop-color="#0038FF"/>
<stop offset="1" stop-color="#B620E0"/>
</linearGradient>
<linearGradient id="paint125_linear_2511_29" x1="270.911" y1="98.3148" x2="237.877" y2="128.8" gradientUnits="userSpaceOnUse">
<stop stop-color="#0038FF"/>
<stop offset="1" stop-color="#B620E0"/>
</linearGradient>
<linearGradient id="paint126_linear_2511_29" x1="271.354" y1="96.6066" x2="238.809" y2="127.345" gradientUnits="userSpaceOnUse">
<stop stop-color="#0038FF"/>
<stop offset="1" stop-color="#B620E0"/>
</linearGradient>
<linearGradient id="paint127_linear_2511_29" x1="271.79" y1="94.9013" x2="239.726" y2="125.889" gradientUnits="userSpaceOnUse">
<stop stop-color="#0038FF"/>
<stop offset="1" stop-color="#B620E0"/>
</linearGradient>
<linearGradient id="paint128_linear_2511_29" x1="272.22" y1="93.1992" x2="240.628" y2="124.432" gradientUnits="userSpaceOnUse">
<stop stop-color="#0038FF"/>
<stop offset="1" stop-color="#B620E0"/>
</linearGradient>
<linearGradient id="paint129_linear_2511_29" x1="272.643" y1="91.5005" x2="241.517" y2="122.977" gradientUnits="userSpaceOnUse">
<stop stop-color="#0038FF"/>
<stop offset="1" stop-color="#B620E0"/>
</linearGradient>
<linearGradient id="paint130_linear_2511_29" x1="273.06" y1="89.8048" x2="242.393" y2="121.522" gradientUnits="userSpaceOnUse">
<stop stop-color="#0038FF"/>
<stop offset="1" stop-color="#B620E0"/>
</linearGradient>
<linearGradient id="paint131_linear_2511_29" x1="273.471" y1="88.1127" x2="243.255" y2="120.068" gradientUnits="userSpaceOnUse">
<stop stop-color="#0038FF"/>
<stop offset="1" stop-color="#B620E0"/>
</linearGradient>
<linearGradient id="paint132_linear_2511_29" x1="273.876" y1="86.4241" x2="244.104" y2="118.616" gradientUnits="userSpaceOnUse">
<stop stop-color="#0038FF"/>
<stop offset="1" stop-color="#B620E0"/>
</linearGradient>
<linearGradient id="paint133_linear_2511_29" x1="274.275" y1="84.7392" x2="244.942" y2="117.167" gradientUnits="userSpaceOnUse">
<stop stop-color="#0038FF"/>
<stop offset="1" stop-color="#B620E0"/>
</linearGradient>
<linearGradient id="paint134_linear_2511_29" x1="274.669" y1="83.0583" x2="245.768" y2="115.72" gradientUnits="userSpaceOnUse">
<stop stop-color="#0038FF"/>
<stop offset="1" stop-color="#B620E0"/>
</linearGradient>
<linearGradient id="paint135_linear_2511_29" x1="275.057" y1="81.3813" x2="246.582" y2="114.277" gradientUnits="userSpaceOnUse">
<stop stop-color="#0038FF"/>
<stop offset="1" stop-color="#B620E0"/>
</linearGradient>
<linearGradient id="paint136_linear_2511_29" x1="275.439" y1="79.7084" x2="247.385" y2="112.838" gradientUnits="userSpaceOnUse">
<stop stop-color="#0038FF"/>
<stop offset="1" stop-color="#B620E0"/>
</linearGradient>
<linearGradient id="paint137_linear_2511_29" x1="275.817" y1="78.0399" x2="248.178" y2="111.403" gradientUnits="userSpaceOnUse">
<stop stop-color="#0038FF"/>
<stop offset="1" stop-color="#B620E0"/>
</linearGradient>
<linearGradient id="paint138_linear_2511_29" x1="276.189" y1="76.3754" x2="248.961" y2="109.973" gradientUnits="userSpaceOnUse">
<stop stop-color="#0038FF"/>
<stop offset="1" stop-color="#B620E0"/>
</linearGradient>
<linearGradient id="paint139_linear_2511_29" x1="276.556" y1="74.7156" x2="249.734" y2="108.548" gradientUnits="userSpaceOnUse">
<stop stop-color="#0038FF"/>
<stop offset="1" stop-color="#B620E0"/>
</linearGradient>
<linearGradient id="paint140_linear_2511_29" x1="276.918" y1="73.0602" x2="250.498" y2="107.128" gradientUnits="userSpaceOnUse">
<stop stop-color="#0038FF"/>
<stop offset="1" stop-color="#B620E0"/>
</linearGradient>
<linearGradient id="paint141_linear_2511_29" x1="277.276" y1="71.4095" x2="251.253" y2="105.714" gradientUnits="userSpaceOnUse">
<stop stop-color="#0038FF"/>
<stop offset="1" stop-color="#B620E0"/>
</linearGradient>
<linearGradient id="paint142_linear_2511_29" x1="277.629" y1="69.7636" x2="252" y2="104.307" gradientUnits="userSpaceOnUse">
<stop stop-color="#0038FF"/>
<stop offset="1" stop-color="#B620E0"/>
</linearGradient>
<linearGradient id="paint143_linear_2511_29" x1="277.978" y1="68.1227" x2="252.739" y2="102.906" gradientUnits="userSpaceOnUse">
<stop stop-color="#0038FF"/>
<stop offset="1" stop-color="#B620E0"/>
</linearGradient>
<linearGradient id="paint144_linear_2511_29" x1="278.323" y1="66.4868" x2="253.471" y2="101.512" gradientUnits="userSpaceOnUse">
<stop stop-color="#0038FF"/>
<stop offset="1" stop-color="#B620E0"/>
</linearGradient>
<linearGradient id="paint145_linear_2511_29" x1="278.663" y1="64.8557" x2="254.195" y2="100.125" gradientUnits="userSpaceOnUse">
<stop stop-color="#0038FF"/>
<stop offset="1" stop-color="#B620E0"/>
</linearGradient>
<linearGradient id="paint146_linear_2511_29" x1="279" y1="63.2304" x2="254.913" y2="98.7465" gradientUnits="userSpaceOnUse">
<stop stop-color="#0038FF"/>
<stop offset="1" stop-color="#B620E0"/>
</linearGradient>
<linearGradient id="paint147_linear_2511_29" x1="279.333" y1="61.61" x2="255.626" y2="97.3756" gradientUnits="userSpaceOnUse">
<stop stop-color="#0038FF"/>
<stop offset="1" stop-color="#B620E0"/>
</linearGradient>
</defs>
</svg>
