<svg width="14" height="14" viewBox="0 0 14 14" fill="none" xmlns="http://www.w3.org/2000/svg">
<path d="M6.99812 4.64143C5.71277 4.64143 4.66384 5.67281 4.66384 6.93664C4.66384 8.20046 5.71277 9.23184 6.99812 9.23184C8.28346 9.23184 9.3324 8.20046 9.3324 6.93664C9.3324 5.67281 8.28346 4.64143 6.99812 4.64143ZM13.9992 6.93664C13.9992 5.98618 14.008 5.04434 13.9537 4.09561C13.8994 2.99364 13.6437 2.01564 12.8242 1.20982C12.0029 0.402277 11.01 0.152612 9.88927 0.0992349C8.92263 0.045858 7.96475 0.0544672 6.99987 0.0544672C6.03323 0.0544672 5.07536 0.045858 4.11047 0.0992349C2.98974 0.152612 1.99508 0.403999 1.17554 1.20982C0.354253 2.01736 0.100336 2.99364 0.0460508 4.09561C-0.00823491 5.04606 0.00052087 5.98791 0.00052087 6.93664C0.00052087 7.88537 -0.00823491 8.82893 0.0460508 9.77766C0.100336 10.8796 0.356004 11.8576 1.17554 12.6635C1.99683 13.471 2.98974 13.7207 4.11047 13.774C5.07711 13.8274 6.03498 13.8188 6.99987 13.8188C7.9665 13.8188 8.92438 13.8274 9.88927 13.774C11.01 13.7207 12.0047 13.4693 12.8242 12.6635C13.6455 11.8559 13.8994 10.8796 13.9537 9.77766C14.0097 8.82893 13.9992 7.88709 13.9992 6.93664ZM6.99812 10.4681C5.01056 10.4681 3.40651 8.89092 3.40651 6.93664C3.40651 4.98236 5.01056 3.40516 6.99812 3.40516C8.98567 3.40516 10.5897 4.98236 10.5897 6.93664C10.5897 8.89092 8.98567 10.4681 6.99812 10.4681ZM10.7368 4.08528C10.2728 4.08528 9.89802 3.71681 9.89802 3.26052C9.89802 2.80424 10.2728 2.43576 10.7368 2.43576C11.2009 2.43576 11.5756 2.80424 11.5756 3.26052C11.5758 3.36887 11.5542 3.47618 11.5121 3.5763C11.47 3.67643 11.4082 3.7674 11.3303 3.84402C11.2523 3.92063 11.1598 3.98138 11.058 4.02278C10.9562 4.06418 10.847 4.08542 10.7368 4.08528Z" fill="#F8F8F8"/>
</svg>
