<svg width="14" height="18" viewBox="0 0 14 18" fill="none" xmlns="http://www.w3.org/2000/svg">
<path d="M6.99996 11.0118C8.93019 11.0118 10.4999 9.51241 10.4999 7.66873C10.4999 5.82504 8.93019 4.32568 6.99996 4.32568C5.06973 4.32568 3.5 5.82504 3.5 7.66873C3.5 9.51241 5.06973 11.0118 6.99996 11.0118ZM6.99996 5.9972C7.96508 5.9972 8.74994 6.74688 8.74994 7.66873C8.74994 8.59057 7.96508 9.34025 6.99996 9.34025C6.03485 9.34025 5.24998 8.59057 5.24998 7.66873C5.24998 6.74688 6.03485 5.9972 6.99996 5.9972Z" fill="#F8F8F8"/>
<path d="M6.49251 17.1743C6.6406 17.2753 6.81803 17.3296 7 17.3296C7.18198 17.3296 7.35941 17.2753 7.5075 17.1743C7.77349 16.9946 14.0253 12.6829 13.9999 7.30059C13.9999 3.61405 10.8596 0.614501 7 0.614502C3.14042 0.614502 7.73638e-05 3.61405 7.7771e-05 7.29641C-0.0252964 12.6829 6.22651 16.9946 6.49251 17.1743ZM7 2.28602C9.89534 2.28602 12.2499 4.53506 12.2499 7.30477C12.2683 11.0139 8.41049 14.3444 7 15.4367C5.59039 14.3435 1.73168 11.0122 1.75006 7.30059C1.75006 4.53506 4.10466 2.28602 7 2.28602Z" fill="#F8F8F8"/>
</svg>
