<svg width="14" height="14" viewBox="0 0 14 14" fill="none" xmlns="http://www.w3.org/2000/svg">
<path d="M12.5263 6.57357H14C14 2.85698 11.1462 0.0539551 7.36102 0.0539551V1.50292C10.3541 1.50292 12.5263 3.63507 12.5263 6.57357Z" fill="#F8F8F8"/>
<path d="M7.36869 4.401C8.91828 4.401 9.57924 5.05086 9.57924 6.57445H11.0529C11.0529 4.23799 9.74503 2.95204 7.36869 2.95204V4.401ZM9.89019 8.34436C9.7486 8.21783 9.56254 8.15034 9.3713 8.15616C9.18006 8.16197 8.9986 8.24062 8.86523 8.37551L7.10195 10.1585C6.67753 10.0788 5.82426 9.81723 4.94593 8.95582C4.06761 8.09151 3.80161 7.25039 3.72277 6.83598L5.53468 5.10157C5.67203 4.97053 5.75215 4.79209 5.75806 4.604C5.76397 4.41592 5.69522 4.23295 5.56636 4.09382L2.84371 1.15025C2.71479 1.01068 2.53561 0.926025 2.34423 0.914256C2.15286 0.902487 1.96435 0.964534 1.81875 1.08722L0.219789 2.43548C0.0923958 2.56119 0.0163591 2.7285 0.00610254 2.90567C-0.00495018 3.08679 -0.215689 7.37717 3.16792 10.7054C6.11973 13.607 9.81724 13.8193 10.8356 13.8193C10.9844 13.8193 11.0758 13.8149 11.1001 13.8135C11.2803 13.8036 11.4503 13.7285 11.5776 13.6026L12.9481 12.0298C13.073 11.8867 13.1362 11.7014 13.1244 11.5133C13.1125 11.3251 13.0266 11.1489 12.8847 11.022L9.89019 8.34436Z" fill="#F8F8F8"/>
</svg>
