<svg width="390" height="583" viewBox="0 0 390 583" fill="none" xmlns="http://www.w3.org/2000/svg">
<path opacity="0.01" fill-rule="evenodd" clip-rule="evenodd" d="M251.709 287.775C261.048 344.865 308.343 411.421 271.507 455.943C235.779 499.127 163.783 454.742 108.35 461.05C56.8417 466.911 9.34722 506.121 -40.3481 491.43C-93.4072 475.745 -136.772 432.294 -159.903 381.748C-182.581 332.19 -181.231 273.687 -163.65 221.989C-147.762 175.268 -104.433 147.367 -68.6867 113.514C-34.279 80.9289 -6.45828 29.5213 40.7245 28.4382C87.9937 27.3531 117.415 78.1448 153.841 108.406C181.275 131.197 209.744 151.692 226.87 183.08C244.452 215.305 245.771 251.479 251.709 287.775Z" stroke="url(#paint0_linear_2544_46)" stroke-opacity="0.15" stroke-width="3"/>
<path opacity="0.02" fill-rule="evenodd" clip-rule="evenodd" d="M254.201 286.172C264.501 342.9 312.791 408.401 276.857 453.408C242.004 497.062 169.484 454.084 114.352 461.334C63.1235 468.07 16.4752 507.969 -33.3042 494.193C-86.4532 479.485 -130.424 436.94 -154.355 386.973C-177.818 337.983 -177.49 279.661 -160.87 227.838C-145.849 181.003 -103.155 152.447 -68.1212 118.091C-34.3993 85.0211 -7.56915 33.3094 39.432 31.4097C86.5192 29.5065 116.723 79.6091 153.55 109.131C181.286 131.366 210.013 151.294 227.626 182.275C245.708 214.081 247.652 250.106 254.201 286.172Z" stroke="url(#paint1_linear_2544_46)" stroke-opacity="0.15" stroke-width="3"/>
<path opacity="0.03" fill-rule="evenodd" clip-rule="evenodd" d="M256.639 284.534C267.891 340.884 317.154 405.315 282.128 450.789C248.154 494.897 175.138 453.33 120.323 461.513C69.3886 469.116 23.5961 509.687 -26.2508 496.825C-79.4717 483.093 -124.031 441.461 -148.748 392.086C-172.982 343.675 -173.67 285.552 -158.009 233.621C-143.856 186.69 -101.806 157.492 -67.4916 122.647C-34.4618 89.1066 -8.62431 37.1098 38.1811 34.3994C85.0721 31.6841 116.043 81.0859 153.256 109.864C181.283 131.538 210.258 150.897 228.349 181.463C246.922 212.843 249.486 248.708 256.639 284.534Z" stroke="url(#paint2_linear_2544_46)" stroke-opacity="0.15" stroke-width="3"/>
<path opacity="0.04" fill-rule="evenodd" clip-rule="evenodd" d="M259.021 282.863C271.214 338.82 321.426 402.167 287.313 448.09C254.225 492.634 180.739 452.483 126.257 461.59C75.6318 470.053 30.7041 511.276 -19.1935 499.327C-72.4685 486.568 -117.597 445.858 -143.088 397.086C-168.08 349.267 -169.777 291.36 -155.074 239.34C-141.786 192.328 -100.391 162.501 -66.8015 127.182C-34.47 93.1855 -9.62694 40.9223 36.9688 37.4076C83.6498 33.8864 115.373 82.5758 152.957 110.606C181.264 131.716 210.475 150.504 229.035 180.647C248.09 211.594 251.269 247.288 259.021 282.863Z" stroke="url(#paint3_linear_2544_46)" stroke-opacity="0.15" stroke-width="3"/>
<path opacity="0.05" fill-rule="evenodd" clip-rule="evenodd" d="M261.348 281.161C274.473 336.707 325.612 398.958 292.417 445.312C260.219 490.274 186.291 451.542 132.156 461.565C81.8549 470.878 37.801 512.738 -12.1307 501.698C-65.4422 489.911 -111.122 450.129 -137.372 401.972C-163.11 354.757 -165.808 297.084 -152.061 244.992C-139.638 197.914 -98.9055 167.473 -66.0477 131.694C-34.4203 97.2558 -10.573 44.7451 35.7992 40.4325C82.2564 36.1121 114.716 84.078 152.657 111.355C181.233 131.899 210.669 150.112 229.688 179.826C249.215 210.333 253.004 245.846 261.348 281.161Z" stroke="url(#paint4_linear_2544_46)" stroke-opacity="0.15" stroke-width="3"/>
<path opacity="0.06" fill-rule="evenodd" clip-rule="evenodd" d="M263.618 279.427C277.663 334.549 329.707 395.69 297.434 442.458C266.131 487.82 191.787 450.511 138.016 461.44C88.0525 471.594 44.8807 514.072 -5.06855 503.939C-58.3988 493.121 -104.611 454.275 -131.607 406.745C-158.076 360.144 -161.769 302.722 -148.976 250.576C-137.415 203.449 -97.3548 172.407 -65.2342 136.184C-34.3165 101.317 -11.4661 48.5778 34.6691 43.4741C80.8888 38.3611 114.07 85.5927 152.353 112.114C181.186 132.088 210.836 149.724 230.306 179.003C250.295 209.061 254.689 244.383 263.618 279.427Z" stroke="url(#paint5_linear_2544_46)" stroke-opacity="0.15" stroke-width="3"/>
<path opacity="0.07" fill-rule="evenodd" clip-rule="evenodd" d="M265.83 277.665C280.785 332.346 333.71 392.365 302.364 439.528C271.96 485.273 197.227 449.39 143.835 461.215C94.2232 472.202 51.9417 515.28 1.99122 506.052C-51.3403 496.199 -98.0665 458.295 -125.795 411.404C-152.982 365.429 -157.66 308.275 -145.82 256.091C-135.119 208.931 -95.739 177.303 -64.3612 140.649C-34.1584 105.369 -12.3055 52.4194 33.5792 46.5315C79.5479 40.6329 113.434 87.1196 152.045 112.88C181.124 132.282 210.977 149.341 230.888 178.176C251.33 207.781 256.323 242.9 265.83 277.665Z" stroke="url(#paint6_linear_2544_46)" stroke-opacity="0.15" stroke-width="3"/>
<path opacity="0.08" fill-rule="evenodd" clip-rule="evenodd" d="M267.986 275.874C283.839 330.101 337.622 388.985 307.207 436.525C277.705 482.636 202.611 448.18 149.612 460.891C100.366 472.702 58.9826 516.361 9.04725 508.035C-44.2681 499.145 -91.4894 462.188 -119.936 415.947C-147.827 370.608 -153.483 313.74 -142.592 261.536C-132.75 214.358 -94.058 182.158 -63.4281 145.089C-33.9453 109.409 -13.0904 56.2686 32.5306 49.6037C78.2351 42.9266 112.811 88.6583 151.734 113.656C181.048 132.483 211.093 148.961 231.436 177.348C252.321 206.491 257.907 241.398 267.986 275.874Z" stroke="url(#paint7_linear_2544_46)" stroke-opacity="0.15" stroke-width="3"/>
<path opacity="0.09" fill-rule="evenodd" clip-rule="evenodd" d="M270.083 274.056C286.824 327.813 341.442 385.552 311.96 433.45C283.365 479.909 207.936 446.883 155.345 460.471C106.478 473.096 66.0004 517.319 16.0964 509.891C-37.1856 501.96 -84.8832 465.956 -114.034 420.375C-142.615 375.684 -149.24 319.117 -139.296 266.911C-130.309 219.73 -92.3136 186.972 -62.4366 149.503C-33.6783 113.438 -13.8213 60.1247 31.5227 52.6902C76.9499 45.2421 112.199 90.2089 151.419 114.44C180.958 132.69 211.183 148.587 231.948 176.518C253.267 205.194 259.44 239.879 270.083 274.056Z" stroke="url(#paint8_linear_2544_46)" stroke-opacity="0.15" stroke-width="3"/>
<path opacity="0.1" fill-rule="evenodd" clip-rule="evenodd" d="M272.121 272.213C289.738 325.486 345.166 382.067 316.622 430.307C288.936 477.096 213.2 445.5 161.032 459.954C112.558 473.384 72.9919 518.152 23.1352 511.619C-30.0961 504.643 -78.2511 469.598 -108.091 424.687C-137.349 380.653 -144.935 324.405 -135.933 272.213C-127.798 225.045 -90.5077 191.744 -61.3881 153.89C-33.3589 117.454 -14.4995 63.9867 30.5548 55.7903C75.6916 47.5789 111.598 91.7712 151.101 115.233C180.853 132.904 211.247 148.218 232.425 175.688C254.167 203.89 260.921 238.344 272.121 272.213Z" stroke="url(#paint9_linear_2544_46)" stroke-opacity="0.15" stroke-width="3"/>
<path opacity="0.11" fill-rule="evenodd" clip-rule="evenodd" d="M274.1 270.345C292.581 323.12 348.796 378.534 321.193 427.096C294.419 474.199 218.402 444.034 166.67 459.342C118.602 473.567 79.9551 518.862 30.1619 513.219C-23.0017 507.195 -71.5953 473.114 -102.111 428.883C-132.03 385.517 -140.567 329.603 -132.506 277.443C-125.22 230.303 -88.6409 196.473 -60.283 158.249C-32.9871 121.457 -15.1245 67.8538 29.6273 58.9032C74.461 49.9362 111.009 93.345 150.779 116.036C180.733 133.125 211.286 147.855 232.866 174.858C255.021 202.581 262.351 236.793 274.1 270.345Z" stroke="url(#paint10_linear_2544_46)" stroke-opacity="0.15" stroke-width="3"/>
<path opacity="0.12" fill-rule="evenodd" clip-rule="evenodd" d="M276.021 268.455C295.353 320.717 352.332 374.953 325.671 423.82C299.812 471.218 223.542 442.484 172.26 458.638C124.61 473.647 86.8891 519.451 37.1751 514.695C-15.904 509.616 -64.9171 476.504 -96.093 432.964C-126.66 390.275 -136.139 334.711 -129.013 282.599C-122.574 235.503 -86.7131 201.158 -59.121 162.58C-32.5621 125.445 -15.6954 71.7253 28.7413 62.0287C73.2593 52.3143 110.432 94.9305 150.455 116.847C180.599 133.354 211.3 147.5 233.272 174.03C255.831 201.267 263.73 235.228 276.021 268.455Z" stroke="url(#paint11_linear_2544_46)" stroke-opacity="0.15" stroke-width="3"/>
<path opacity="0.13" fill-rule="evenodd" clip-rule="evenodd" d="M277.88 266.542C298.052 318.279 355.771 371.327 330.055 420.48C305.112 468.157 228.615 440.854 177.798 457.841C130.579 473.625 93.7895 519.918 44.1704 516.044C-8.80722 511.908 -58.221 479.768 -90.0427 436.928C-121.243 394.925 -131.654 339.727 -125.46 287.68C-119.862 240.643 -84.7274 205.799 -57.9048 166.88C-32.0866 129.419 -16.2144 75.5998 27.8949 65.1653C72.0849 54.7117 109.866 96.527 150.127 117.668C180.451 133.591 211.287 147.151 233.643 173.203C256.594 199.949 265.055 233.649 277.88 266.542Z" stroke="url(#paint12_linear_2544_46)" stroke-opacity="0.15" stroke-width="3"/>
<path opacity="0.14" fill-rule="evenodd" clip-rule="evenodd" d="M279.679 264.608C300.678 315.806 359.112 367.657 334.344 417.079C310.319 465.017 233.622 439.144 183.282 456.953C136.507 473.501 100.654 520.266 51.1456 517.269C-1.71404 514.069 -51.5095 482.905 -83.962 440.775C-115.781 399.467 -127.115 344.652 -121.848 292.686C-117.088 245.722 -82.6849 210.394 -56.6352 171.15C-31.561 133.375 -16.6816 79.4763 27.0881 68.3125C70.9379 57.1282 109.31 98.1342 149.795 118.498C180.287 133.835 211.248 146.81 233.977 172.378C257.311 198.627 266.328 232.058 279.679 264.608Z" stroke="url(#paint13_linear_2544_46)" stroke-opacity="0.15" stroke-width="3"/>
<path opacity="0.15" fill-rule="evenodd" clip-rule="evenodd" d="M281.416 262.656C303.231 313.302 362.356 363.947 338.536 413.62C315.431 461.8 238.56 437.356 188.711 455.975C142.392 473.277 107.481 520.495 58.0987 518.37C5.37365 516.101 -44.7846 485.918 -77.8529 444.505C-110.275 403.902 -122.522 349.484 -118.177 297.616C-114.251 250.741 -80.5862 214.943 -55.3126 175.389C-30.9854 137.316 -17.0967 83.3546 26.3214 71.4701C69.819 59.5639 108.766 99.7527 149.46 119.338C180.108 134.089 211.184 146.478 234.275 171.557C257.982 197.305 267.548 230.457 281.416 262.656Z" stroke="url(#paint14_linear_2544_46)" stroke-opacity="0.15" stroke-width="3"/>
<path opacity="0.16" fill-rule="evenodd" clip-rule="evenodd" d="M283.092 260.685C305.708 310.766 365.501 360.198 342.63 410.103C320.447 458.509 243.427 435.491 194.082 454.91C148.231 472.954 114.268 520.607 65.0265 519.349C12.4523 518.005 -38.0497 488.805 -71.7187 448.119C-104.73 408.229 -117.878 354.222 -114.452 302.469C-111.355 255.697 -78.4334 219.445 -53.9388 179.596C-30.3614 141.239 -17.461 87.2333 25.5937 74.637C68.7273 62.0177 108.233 101.382 149.12 120.188C179.914 134.351 211.093 146.154 234.537 170.74C258.606 195.981 268.714 228.845 283.092 260.685Z" stroke="url(#paint15_linear_2544_46)" stroke-opacity="0.15" stroke-width="3"/>
<path opacity="0.17" fill-rule="evenodd" clip-rule="evenodd" d="M284.707 258.698C308.111 308.201 368.547 356.411 346.627 406.531C325.365 455.145 248.225 433.552 199.396 453.758C154.025 472.533 121.013 520.602 71.9279 520.205C19.5207 519.781 -31.306 491.567 -65.5604 451.616C-99.1455 412.447 -113.185 358.867 -110.671 307.244C-108.398 260.59 -76.2264 223.898 -52.5133 183.769C-29.6882 145.143 -17.7734 91.1116 24.9064 77.8125C67.6643 64.4891 107.711 103.021 148.777 121.047C179.706 134.623 210.977 145.84 234.764 169.928C259.184 194.657 269.827 227.225 284.707 258.698Z" stroke="url(#paint16_linear_2544_46)" stroke-opacity="0.15" stroke-width="3"/>
<path opacity="0.18" fill-rule="evenodd" clip-rule="evenodd" d="M286.26 256.695C310.44 305.609 371.494 352.59 350.525 402.907C330.186 451.711 252.951 431.54 204.651 452.521C159.771 472.016 127.714 520.482 78.8008 520.941C26.5767 521.431 -24.5558 494.204 -59.3802 454.997C-93.5242 416.556 -108.444 363.418 -106.836 311.942C-105.383 265.42 -73.9662 228.303 -51.0369 187.91C-28.9662 149.029 -18.0341 94.9892 24.2594 80.9966C66.6303 66.9783 107.202 104.672 148.432 121.917C179.484 134.904 210.837 145.536 234.956 169.121C259.717 193.335 270.887 225.597 286.26 256.695Z" stroke="url(#paint17_linear_2544_46)" stroke-opacity="0.15" stroke-width="3"/>
<path opacity="0.19" fill-rule="evenodd" clip-rule="evenodd" d="M287.75 254.679C312.693 302.991 374.341 348.736 354.323 399.232C334.906 448.21 257.602 429.456 209.842 451.2C165.465 471.404 134.368 520.249 85.6409 521.557C33.6158 522.954 -17.8035 496.717 -53.1825 458.261C-87.8703 420.556 -103.66 367.874 -102.952 316.56C-102.313 270.185 -71.6561 232.659 -49.5125 192.016C-28.1982 152.895 -18.2453 98.8647 23.6507 84.188C65.6234 69.4843 106.702 106.333 148.081 122.796C179.246 135.196 210.67 145.243 235.11 168.321C260.203 192.014 271.893 223.963 287.75 254.679Z" stroke="url(#paint18_linear_2544_46)" stroke-opacity="0.15" stroke-width="3"/>
<path opacity="0.2" fill-rule="evenodd" clip-rule="evenodd" d="M289.178 252.649C314.869 300.348 377.087 344.851 358.02 395.507C339.526 444.642 262.178 427.303 214.971 449.797C171.108 470.699 140.973 519.903 92.4474 522.054C40.637 524.351 -11.0503 499.106 -46.9682 461.408C-82.1844 424.447 -98.8319 372.235 -99.0191 321.099C-99.1883 274.885 -69.2956 236.965 -47.9396 196.087C-27.3833 156.74 -18.406 102.737 23.0816 87.3857C64.6452 72.0063 106.214 108.003 147.728 123.686C178.995 135.497 210.478 144.96 235.23 167.527C260.642 190.696 272.845 222.323 289.178 252.649Z" stroke="url(#paint19_linear_2544_46)" stroke-opacity="0.15" stroke-width="3"/>
<path opacity="0.21" fill-rule="evenodd" clip-rule="evenodd" d="M290.544 250.608C316.97 297.683 379.732 340.937 361.616 391.737C344.043 441.01 266.679 425.082 220.036 448.314C176.697 469.901 147.528 519.446 99.218 522.434C47.6377 525.623 -4.29847 501.372 -40.7398 464.439C-76.4691 428.228 -93.9629 376.501 -95.0382 325.558C-96.0101 279.519 -66.8863 241.22 -46.3191 200.122C-26.5222 160.564 -18.5165 106.606 22.552 90.59C63.6956 74.5446 105.737 109.684 147.372 124.586C178.729 135.81 210.261 144.689 235.314 166.742C261.036 189.382 273.743 220.679 290.544 250.608Z" stroke="url(#paint20_linear_2544_46)" stroke-opacity="0.15" stroke-width="3"/>
<path opacity="0.22" fill-rule="evenodd" clip-rule="evenodd" d="M291.846 248.558C318.993 294.997 382.276 336.997 365.109 387.923C348.458 437.318 271.101 422.795 225.035 446.752C182.23 469.012 154.03 518.88 105.95 522.697C54.6149 526.772 2.44853 503.516 -34.5004 467.355C-70.7274 431.901 -89.0558 380.671 -91.0125 329.937C-92.7809 284.086 -64.4301 245.423 -44.653 204.122C-25.6165 164.367 -18.5781 110.471 22.0607 93.8C62.7739 77.0986 105.271 111.376 147.011 125.497C178.448 136.133 210.018 144.431 235.363 165.966C261.383 188.074 274.588 219.033 291.846 248.558Z" stroke="url(#paint21_linear_2544_46)" stroke-opacity="0.15" stroke-width="3"/>
<path opacity="0.23" fill-rule="evenodd" clip-rule="evenodd" d="M293.086 246.498C320.939 292.291 384.718 333.033 368.499 384.066C352.768 433.566 275.445 420.444 229.965 445.112C187.706 468.034 160.477 518.206 112.641 522.845C61.5665 527.799 9.18888 505.537 -28.2518 470.154C-64.9611 435.463 -84.112 384.744 -86.9432 334.234C-89.5018 288.587 -61.9277 249.575 -42.9415 208.084C-24.6663 168.147 -18.5906 114.33 21.6082 97.0148C61.8806 79.6675 104.817 113.077 146.648 126.419C178.153 136.468 209.75 144.186 235.376 165.198C261.684 186.771 275.378 217.384 293.086 246.498Z" stroke="url(#paint22_linear_2544_46)" stroke-opacity="0.15" stroke-width="3"/>
<path opacity="0.24" fill-rule="evenodd" clip-rule="evenodd" d="M294.262 244.431C322.807 289.567 387.058 329.046 371.786 380.169C356.974 429.757 279.709 418.03 234.827 443.397C193.123 466.968 166.867 517.425 119.288 522.88C68.4899 528.703 15.9198 507.436 -21.9969 472.839C-59.1728 438.917 -79.1339 388.722 -82.8324 338.451C-86.1748 293.019 -59.3809 253.675 -41.1862 212.009C-23.6728 171.904 -18.5548 118.184 21.1939 100.234C61.0154 82.2509 104.373 114.787 146.28 127.352C177.843 136.814 209.458 143.953 235.353 164.441C261.938 185.475 276.113 215.735 294.262 244.431Z" stroke="url(#paint23_linear_2544_46)" stroke-opacity="0.15" stroke-width="3"/>
<path opacity="0.25" fill-rule="evenodd" clip-rule="evenodd" d="M295.375 242.358C324.598 286.827 389.295 325.039 374.969 376.235C361.073 425.893 283.893 415.555 239.619 441.608C198.479 465.816 173.198 516.54 125.891 522.801C75.3831 529.487 22.6392 509.215 -15.7374 475.408C-53.3643 442.261 -74.1234 392.602 -78.6816 342.586C-82.801 297.383 -56.7906 257.721 -39.3876 215.896C-22.6363 175.637 -18.4708 122.031 20.818 103.457C60.1787 84.8486 103.94 116.508 145.91 128.295C177.52 137.173 209.14 143.735 235.295 163.695C262.147 184.186 276.795 214.085 295.375 242.358Z" stroke="url(#paint24_linear_2544_46)" stroke-opacity="0.15" stroke-width="3"/>
<path opacity="0.26" fill-rule="evenodd" clip-rule="evenodd" d="M296.425 240.28C326.311 284.072 391.431 321.013 378.048 372.265C365.067 421.977 287.995 413.022 244.339 439.746C203.774 464.578 179.468 515.551 132.447 522.612C82.244 530.151 29.345 510.874 -9.47568 477.862C-47.5379 445.496 -69.0822 396.386 -74.4924 346.638C-79.3819 301.679 -54.1578 261.714 -37.5465 219.744C-21.5573 179.347 -18.3389 125.87 20.4804 106.683C59.3707 87.46 103.519 118.238 145.536 129.25C177.182 137.544 208.799 143.531 235.203 162.96C262.31 182.907 277.423 212.438 296.425 240.28Z" stroke="url(#paint25_linear_2544_46)" stroke-opacity="0.15" stroke-width="3"/>
<path opacity="0.27" fill-rule="evenodd" clip-rule="evenodd" d="M297.41 238.198C327.946 281.304 393.463 316.972 381.021 368.262C368.952 418.012 292.014 410.431 248.986 437.814C209.004 463.258 185.675 514.46 138.953 522.313C89.0694 530.697 36.0338 512.414 -3.21475 480.203C-41.6966 448.622 -64.0133 400.074 -70.2676 350.609C-75.9198 305.905 -51.4847 265.653 -35.6649 223.554C-20.4376 183.031 -18.1602 129.702 20.18 109.911C58.5905 90.0848 103.108 119.977 145.159 130.217C176.83 137.929 208.432 143.342 235.075 162.238C262.427 181.637 277.997 210.793 297.41 238.198Z" stroke="url(#paint26_linear_2544_46)" stroke-opacity="0.15" stroke-width="3"/>
<path opacity="0.28" fill-rule="evenodd" clip-rule="evenodd" d="M298.332 236.115C329.502 278.525 395.392 312.917 383.887 364.228C372.729 413.998 295.948 407.785 253.558 435.813C214.169 461.856 191.817 513.269 145.408 521.905C95.8571 531.125 42.7035 513.835 3.04309 482.43C-35.8425 451.639 -58.9187 403.664 -66.0088 354.497C-72.4164 310.062 -48.7725 269.537 -33.7437 227.323C-19.2776 186.69 -17.9354 133.524 19.9168 113.142C57.8383 92.7223 102.707 121.726 144.778 131.195C176.464 138.326 208.041 143.169 234.912 161.529C262.499 180.378 278.516 209.152 298.332 236.115Z" stroke="url(#paint27_linear_2544_46)" stroke-opacity="0.15" stroke-width="3"/>
<path opacity="0.29" fill-rule="evenodd" clip-rule="evenodd" d="M299.191 234.031C330.979 275.737 397.218 308.85 386.648 360.166C376.396 409.939 299.798 405.087 258.054 433.745C219.267 460.374 197.892 511.979 151.808 521.39C102.605 531.438 49.352 515.139 9.29583 484.544C-29.9778 454.548 -53.8002 407.158 -61.7176 358.302C-68.8729 314.148 -46.0224 273.367 -31.7837 231.053C-18.0781 190.323 -17.6646 137.337 19.6905 116.374C57.114 95.3725 102.317 123.484 144.394 132.185C176.084 138.737 207.626 143.012 234.714 160.834C262.524 179.131 278.98 207.516 299.191 234.031Z" stroke="url(#paint28_linear_2544_46)" stroke-opacity="0.15" stroke-width="3"/>
<path opacity="0.3" fill-rule="evenodd" clip-rule="evenodd" d="M299.987 231.948C332.379 272.94 398.942 304.773 389.303 356.076C379.955 405.838 303.563 402.337 262.475 431.612C224.297 458.814 203.9 510.593 158.155 520.77C109.313 531.636 55.9781 516.326 15.5424 486.546C-24.1034 457.348 -48.6587 410.555 -57.3947 362.024C-65.2899 318.165 -43.2343 277.142 -29.7846 234.742C-16.8386 193.93 -17.347 141.14 19.5023 119.607C56.4191 98.0349 101.939 125.252 144.008 133.186C175.692 139.162 207.188 142.872 234.483 160.154C262.505 177.897 279.392 205.886 299.987 231.948Z" stroke="url(#paint29_linear_2544_46)" stroke-opacity="0.15" stroke-width="3"/>
<path opacity="0.31" fill-rule="evenodd" clip-rule="evenodd" d="M300.718 229.867C333.699 270.137 400.561 300.689 391.851 351.962C383.402 401.695 307.24 399.538 266.817 429.415C229.257 457.177 209.837 509.112 164.442 520.046C115.975 531.72 62.5774 517.398 21.7783 488.437C-18.2238 460.041 -43.4984 413.856 -53.0442 365.663C-61.6711 322.11 -40.4121 280.861 -27.75 238.39C-15.5621 197.51 -16.9855 144.932 19.3496 122.841C55.7512 100.709 101.571 127.029 143.617 134.2C175.284 139.602 206.725 142.748 234.216 159.489C262.44 176.676 279.749 204.264 300.718 229.867Z" stroke="url(#paint30_linear_2544_46)" stroke-opacity="0.15" stroke-width="3"/>
<path opacity="0.32" fill-rule="evenodd" clip-rule="evenodd" d="M301.386 227.788C334.941 267.329 402.078 296.6 394.291 347.826C386.739 397.514 310.83 396.691 271.081 427.157C234.146 455.465 215.702 507.538 170.671 519.22C122.591 531.693 69.149 518.355 28.0027 490.216C-12.3398 462.626 -38.3201 417.059 -48.6664 369.219C-58.0168 325.984 -37.5554 284.525 -25.6793 241.997C-14.248 201.062 -16.5791 148.712 19.2335 126.074C55.1117 103.394 101.213 128.814 143.223 135.226C174.863 140.055 206.239 142.643 233.916 158.84C262.331 175.469 280.053 202.65 301.386 227.788Z" stroke="url(#paint31_linear_2544_46)" stroke-opacity="0.15" stroke-width="3"/>
<path opacity="0.33" fill-rule="evenodd" clip-rule="evenodd" d="M301.991 225.715C336.104 264.519 403.493 292.507 396.625 343.671C389.964 393.297 314.333 393.799 275.265 424.838C238.963 453.68 221.495 505.872 176.839 518.293C129.16 531.554 75.691 519.198 34.2137 491.885C-6.45326 465.104 -33.1253 420.166 -44.2628 372.691C-54.3283 329.786 -34.6653 288.132 -23.5734 245.562C-12.8968 204.587 -16.1282 152.481 19.154 129.306C54.5007 106.089 100.867 130.609 142.828 136.265C174.43 140.524 205.73 142.556 233.583 158.208C262.177 174.279 280.303 201.045 301.991 225.715Z" stroke="url(#paint32_linear_2544_46)" stroke-opacity="0.15" stroke-width="3"/>
<path opacity="0.34" fill-rule="evenodd" clip-rule="evenodd" d="M302.534 223.648C337.189 261.706 404.805 288.412 398.852 339.497C393.079 389.046 317.747 390.863 279.368 422.462C243.707 451.824 227.212 504.117 182.944 517.266C135.679 531.306 82.2011 519.93 40.409 493.444C-0.566545 467.476 -27.9163 423.176 -39.8355 376.08C-50.6073 333.517 -31.7433 291.682 -21.4334 249.085C-11.5095 208.084 -15.6333 156.236 19.1107 132.537C53.9182 108.795 100.532 132.413 142.429 137.316C173.984 141.009 205.199 142.487 233.216 157.594C261.98 173.104 280.501 199.451 302.534 223.648Z" stroke="url(#paint33_linear_2544_46)" stroke-opacity="0.15" stroke-width="3"/>
<path opacity="0.35" fill-rule="evenodd" clip-rule="evenodd" d="M303.013 221.588C338.195 258.895 406.013 284.32 400.971 335.308C396.08 384.765 321.071 387.886 283.389 420.03C248.376 449.898 232.853 502.274 188.983 516.143C142.145 530.951 88.6761 520.55 46.5856 494.895C5.31732 469.742 -22.6961 426.091 -35.387 379.386C-46.8563 337.177 -28.7917 295.177 -19.2613 252.567C-10.0877 211.552 -15.096 159.978 19.1022 135.767C53.363 111.512 100.207 134.226 142.027 138.38C173.525 141.509 204.645 142.439 232.816 156.999C261.738 171.948 280.645 197.869 303.013 221.588Z" stroke="url(#paint34_linear_2544_46)" stroke-opacity="0.15" stroke-width="3"/>
<path opacity="0.36" fill-rule="evenodd" clip-rule="evenodd" d="M303.428 219.536C339.122 256.085 407.119 280.229 402.981 331.106C398.968 380.455 324.304 384.869 287.327 417.543C252.968 447.904 238.414 500.346 194.956 514.924C148.556 530.49 95.1139 521.06 52.741 496.238C11.196 471.902 -17.4667 428.91 -30.9194 382.609C-43.0772 340.765 -25.8119 298.614 -17.0583 256.005C-8.6325 214.991 -14.5168 163.706 19.1284 138.995C52.8352 114.238 99.8919 136.047 141.622 139.457C173.052 142.026 204.068 142.41 232.382 156.423C261.451 170.809 280.735 196.3 303.428 219.536Z" stroke="url(#paint35_linear_2544_46)" stroke-opacity="0.15" stroke-width="3"/>
<path opacity="0.37" fill-rule="evenodd" clip-rule="evenodd" d="M303.782 217.495C339.972 253.278 408.123 276.144 404.885 326.894C401.745 376.118 327.447 381.815 291.181 415.005C257.483 445.844 243.897 498.333 200.861 513.611C154.912 529.923 101.514 521.461 58.8751 497.475C17.0692 473.957 -12.2285 431.633 -26.4327 385.748C-39.2697 344.28 -22.8035 301.994 -14.8238 259.4C-7.14289 218.401 -13.8948 167.42 19.1904 142.22C52.3362 116.973 99.5884 137.877 141.216 140.548C172.567 142.559 203.469 142.401 231.917 155.866C261.123 169.69 280.774 194.745 303.782 217.495Z" stroke="url(#paint36_linear_2544_46)" stroke-opacity="0.15" stroke-width="3"/>
<path opacity="0.38" fill-rule="evenodd" clip-rule="evenodd" d="M304.074 215.465C340.743 250.477 409.025 272.066 406.681 322.672C404.407 371.757 330.499 378.725 294.951 412.416C261.92 443.72 249.298 496.239 206.695 512.206C161.209 529.254 107.873 521.755 64.9842 498.605C22.9333 475.908 -6.98469 434.261 -21.9301 388.804C-35.437 347.723 -19.7692 305.318 -12.5602 262.752C-5.62113 221.781 -13.2318 171.118 19.2866 145.441C51.8646 119.717 99.2952 139.716 140.806 141.651C172.07 143.109 202.849 142.413 231.419 155.33C260.751 168.591 280.761 193.205 304.074 215.465Z" stroke="url(#paint37_linear_2544_46)" stroke-opacity="0.15" stroke-width="3"/>
<path opacity="0.39" fill-rule="evenodd" clip-rule="evenodd" d="M304.303 213.447C341.436 247.682 409.825 267.997 408.369 318.444C406.956 367.374 333.459 375.602 298.635 409.778C266.277 441.534 254.616 494.064 212.458 510.71C167.446 528.483 114.189 521.942 71.0665 499.631C28.7865 477.756 -1.73721 436.794 -17.4132 391.777C-31.5803 351.094 -16.7102 308.583 -10.2684 266.06C-4.06784 225.13 -12.5282 174.801 19.4169 148.659C51.4205 122.469 99.0123 141.564 140.394 142.768C171.561 143.676 202.206 142.447 230.889 154.815C260.336 167.513 280.695 191.681 304.303 213.447Z" stroke="url(#paint38_linear_2544_46)" stroke-opacity="0.15" stroke-width="3"/>
<path opacity="0.4" fill-rule="evenodd" clip-rule="evenodd" d="M304.47 211.444C342.052 244.897 410.524 263.94 409.949 314.212C409.391 362.973 336.326 372.447 302.233 407.094C270.553 439.288 259.851 491.813 218.147 509.127C173.621 527.612 120.46 522.025 77.1199 500.553C34.6266 479.501 3.51197 439.234 -12.8838 394.668C-27.7013 354.393 -13.6278 311.792 -7.94955 269.326C-2.48395 228.45 -11.7847 178.468 19.5808 151.874C51.0038 125.231 98.7397 143.42 139.979 143.9C171.039 144.261 201.543 142.504 230.327 154.323C259.879 166.458 280.577 190.176 304.47 211.444Z" stroke="url(#paint39_linear_2544_46)" stroke-opacity="0.15" stroke-width="3"/>
<path opacity="0.41" fill-rule="evenodd" clip-rule="evenodd" d="M304.576 209.456C342.589 242.121 411.122 259.896 411.422 309.978C411.713 358.554 339.101 369.263 305.743 404.366C274.748 436.983 265 489.485 223.761 507.456C179.732 526.643 126.684 522.004 83.1427 501.372C40.4519 481.144 8.76123 441.579 -8.34336 397.476C-23.8015 357.619 -10.523 314.943 -5.6044 272.547C-0.869964 231.739 -11.0016 182.118 19.7783 155.083C50.6146 127.999 98.4776 145.285 139.563 145.044C170.506 144.863 200.859 142.582 229.734 153.853C259.379 165.425 280.408 188.688 304.576 209.456Z" stroke="url(#paint40_linear_2544_46)" stroke-opacity="0.15" stroke-width="3"/>
<path opacity="0.42" fill-rule="evenodd" clip-rule="evenodd" d="M304.62 207.484C343.05 239.357 411.619 255.868 412.787 305.744C413.92 354.121 341.782 366.052 309.167 401.595C278.861 434.621 270.062 487.084 229.299 505.701C185.778 525.578 132.86 521.881 89.1329 502.09C46.2604 482.686 14.0087 443.831 -3.79359 400.202C-19.8822 360.774 -7.39722 318.037 -3.23401 275.725C0.773298 234.997 -10.1795 185.75 20.0091 158.288C50.2529 130.775 98.226 147.159 139.144 146.204C169.961 145.484 200.154 142.683 229.111 153.407C258.839 164.416 280.188 187.22 304.62 207.484Z" stroke="url(#paint41_linear_2544_46)" stroke-opacity="0.15" stroke-width="3"/>
<path opacity="0.43" fill-rule="evenodd" clip-rule="evenodd" d="M304.603 205.53C343.433 236.606 412.015 251.856 414.044 301.512C416.013 349.676 344.369 362.815 312.5 398.783C282.888 432.205 275.035 484.61 234.758 503.863C191.755 524.418 138.984 521.657 95.0875 502.707C52.0489 484.127 19.2512 445.989 0.762595 402.846C-15.9463 363.856 -4.25284 321.073 -0.840628 278.858C2.4438 238.224 -9.32011 189.365 20.2715 161.487C49.9173 133.558 97.9837 149.041 138.722 147.377C169.404 146.124 199.428 142.808 228.455 152.985C258.257 163.432 279.916 185.773 304.603 205.53Z" stroke="url(#paint42_linear_2544_46)" stroke-opacity="0.15" stroke-width="3"/>
<path opacity="0.44" fill-rule="evenodd" clip-rule="evenodd" d="M304.527 203.595C343.741 233.87 412.313 247.865 415.196 297.285C417.993 345.221 346.864 359.555 315.747 395.933C286.833 429.736 279.921 482.067 240.139 501.944C197.665 523.166 145.056 521.335 101.007 503.225C57.8178 485.47 24.4894 448.056 5.3259 405.408C-11.9929 366.866 -1.08872 324.051 1.57716 281.947C4.14322 241.419 -8.42164 192.962 20.5678 164.681C49.6103 136.348 97.7532 150.931 138.3 148.565C168.838 146.782 198.684 142.957 227.772 152.587C257.635 162.474 279.595 184.347 304.527 203.595Z" stroke="url(#paint43_linear_2544_46)" stroke-opacity="0.15" stroke-width="3"/>
<path opacity="0.45" fill-rule="evenodd" clip-rule="evenodd" d="M304.391 201.68C343.973 231.15 412.513 243.894 416.242 293.065C419.859 340.758 349.265 356.273 318.904 393.047C290.693 427.217 284.717 479.457 245.44 499.946C203.504 521.822 151.075 520.914 106.888 503.645C63.5644 486.713 29.7205 450.031 9.89383 407.889C-8.02435 369.804 2.09299 326.973 4.01744 284.992C5.86983 244.583 -7.48556 196.54 20.8967 167.868C49.3308 139.144 97.5336 152.83 137.876 149.767C168.261 147.46 197.92 143.131 227.059 152.215C256.974 161.542 279.226 182.945 304.391 201.68Z" stroke="url(#paint44_linear_2544_46)" stroke-opacity="0.15" stroke-width="3"/>
<path opacity="0.46" fill-rule="evenodd" clip-rule="evenodd" d="M304.194 199.788C344.128 228.448 412.613 239.947 417.181 288.854C421.611 336.291 351.57 352.972 321.97 390.126C294.466 424.648 289.42 476.781 250.657 497.871C209.27 520.388 157.037 520.398 112.728 503.968C69.2853 487.859 34.9412 451.915 14.4631 410.29C-4.04379 372.671 5.28945 329.836 6.4776 287.992C7.62125 247.715 -6.51405 200.099 21.2562 171.049C49.0773 141.946 97.3232 154.737 137.45 150.984C167.672 148.157 197.137 143.329 226.316 151.869C256.272 160.637 278.805 181.566 304.194 199.788Z" stroke="url(#paint45_linear_2544_46)" stroke-opacity="0.15" stroke-width="3"/>
<path opacity="0.47" fill-rule="evenodd" clip-rule="evenodd" d="M303.939 197.918C344.209 225.767 412.617 236.026 418.014 284.655C423.25 331.822 353.782 349.655 324.946 387.173C298.152 422.034 294.032 474.043 255.792 495.722C214.963 518.869 162.941 519.787 118.527 504.196C74.9802 488.909 40.1513 453.71 19.0337 412.61C-0.0511028 375.466 8.50105 332.644 8.95824 290.949C9.39831 250.815 -5.50608 203.64 21.6477 174.224C48.8511 144.755 97.1238 156.654 137.023 152.217C167.074 148.875 196.336 143.554 225.544 151.551C255.531 159.761 278.337 180.213 303.939 197.918Z" stroke="url(#paint46_linear_2544_46)" stroke-opacity="0.15" stroke-width="3"/>
<path opacity="0.48" fill-rule="evenodd" clip-rule="evenodd" d="M303.626 196.072C344.215 223.106 412.523 232.132 418.743 280.468C424.775 327.352 355.899 346.322 327.831 384.189C301.751 419.374 298.55 471.242 260.842 493.499C220.58 517.262 168.786 519.084 124.282 504.329C80.6467 489.863 45.3485 455.414 23.6036 414.85C3.95175 378.19 11.7261 335.393 11.4579 293.86C11.1997 253.883 -4.46269 207.159 22.0703 177.391C48.6518 147.568 96.9348 158.578 136.595 153.464C166.465 149.613 195.516 143.803 224.745 151.259C254.753 158.914 277.821 178.885 303.626 196.072Z" stroke="url(#paint47_linear_2544_46)" stroke-opacity="0.15" stroke-width="3"/>
<path opacity="0.49" fill-rule="evenodd" clip-rule="evenodd" d="M303.254 194.251C344.147 220.468 412.333 228.268 419.365 276.297C426.187 322.884 357.921 342.975 330.625 381.176C305.262 416.672 302.974 468.384 265.805 491.206C226.121 515.573 174.569 518.289 129.99 504.37C86.2824 490.723 50.5305 457.03 28.1704 417.01C7.96262 380.842 14.9626 338.086 13.9749 296.728C13.0241 256.918 -3.38518 210.659 22.523 180.55C48.4786 150.387 96.7556 160.51 136.165 154.727C165.847 150.371 194.678 144.08 223.917 150.996C253.936 158.097 277.256 177.584 303.254 194.251Z" stroke="url(#paint48_linear_2544_46)" stroke-opacity="0.15" stroke-width="3"/>
<path opacity="0.5" fill-rule="evenodd" clip-rule="evenodd" d="M302.825 192.457C344.006 217.854 412.047 224.434 419.885 272.144C427.486 318.42 359.849 339.618 333.327 378.137C308.684 413.929 307.303 465.468 270.682 488.844C231.583 513.802 180.29 517.404 135.652 504.319C91.8864 491.49 55.6964 458.557 32.7335 419.091C11.9809 383.424 18.2104 340.721 16.5091 299.55C14.8715 259.921 -2.27324 214.138 23.0064 183.702C48.3323 153.21 96.5872 162.451 135.735 156.005C165.22 151.151 193.824 144.383 223.063 150.761C253.081 157.31 276.644 176.311 302.825 192.457Z" stroke="url(#paint49_linear_2544_46)" stroke-opacity="0.15" stroke-width="3"/>
<path opacity="0.51" fill-rule="evenodd" clip-rule="evenodd" d="M302.339 190.691C343.79 215.266 411.666 220.634 420.299 268.01C428.673 313.963 361.681 336.252 335.937 375.074C312.016 411.148 311.535 462.498 275.47 486.415C236.965 511.951 185.945 516.432 141.264 504.179C97.456 492.164 60.8435 459.998 37.2903 421.094C16.0043 385.936 21.4672 343.301 19.0586 302.329C16.7401 262.892 -1.12843 217.596 23.5191 186.845C48.2119 156.038 96.4286 164.401 135.304 157.3C164.583 151.951 192.952 144.713 222.181 150.556C252.19 156.555 275.985 175.067 302.339 190.691Z" stroke="url(#paint50_linear_2544_46)" stroke-opacity="0.15" stroke-width="3"/>
<path opacity="0.52" fill-rule="evenodd" clip-rule="evenodd" d="M301.797 188.954C343.504 212.705 411.192 216.869 420.612 263.899C429.748 309.516 363.419 332.879 338.455 371.989C315.259 408.33 315.671 459.476 280.17 483.922C242.267 510.023 191.536 515.374 146.826 503.949C102.991 492.748 65.9712 461.352 41.8404 423.02C20.0323 388.378 24.7329 345.823 21.6234 305.064C18.6303 265.83 0.049686 221.032 24.0619 189.98C48.1182 158.87 96.2809 166.358 134.872 158.61C163.937 152.774 192.064 145.071 221.274 150.381C251.263 155.833 275.281 173.854 301.797 188.954Z" stroke="url(#paint51_linear_2544_46)" stroke-opacity="0.15" stroke-width="3"/>
<path opacity="0.53" fill-rule="evenodd" clip-rule="evenodd" d="M301.199 187.247C343.144 210.172 410.625 213.14 420.821 259.811C430.71 305.079 365.062 329.501 340.881 368.883C318.411 405.477 319.708 456.403 284.779 481.366C247.486 508.019 197.058 514.232 152.336 503.633C108.487 493.241 71.0767 462.621 46.3809 424.868C24.0623 390.749 28.0052 348.29 24.2014 307.754C20.54 268.735 1.25928 224.447 24.6332 193.105C48.05 161.706 96.1428 168.324 134.44 159.936C163.283 153.618 191.159 145.457 220.34 150.237C250.299 155.143 274.531 172.671 301.199 187.247Z" stroke="url(#paint52_linear_2544_46)" stroke-opacity="0.15" stroke-width="3"/>
<path opacity="0.54" fill-rule="evenodd" clip-rule="evenodd" d="M300.546 185.571C342.715 207.671 409.965 209.451 420.929 255.749C431.563 300.657 366.612 326.12 343.214 365.759C321.473 402.592 323.648 453.284 289.297 478.751C252.622 505.942 202.511 513.007 157.792 503.231C113.946 493.646 76.1598 463.805 50.9118 426.64C28.0943 393.052 31.2841 350.701 26.7929 310.4C22.4699 271.608 2.50115 227.84 25.234 196.222C48.0085 164.546 96.0159 170.299 134.008 161.278C162.622 154.484 190.24 145.872 219.382 150.123C249.302 154.488 273.736 171.521 300.546 185.571Z" stroke="url(#paint53_linear_2544_46)" stroke-opacity="0.15" stroke-width="3"/>
<path opacity="0.55" fill-rule="evenodd" clip-rule="evenodd" d="M299.84 183.928C342.215 205.201 409.216 205.802 420.936 251.716C432.305 296.25 368.067 322.738 345.455 362.619C324.444 399.676 327.489 450.118 293.724 476.077C257.673 503.794 207.895 511.701 163.193 502.745C119.364 493.964 81.2184 464.906 55.4314 428.336C32.1265 395.286 34.5684 353.057 29.3968 313.002C24.419 274.448 3.77442 231.211 25.8637 199.329C47.9935 167.389 95.8999 172.282 133.576 162.637C161.953 155.373 189.306 146.316 218.401 150.042C248.271 153.867 272.898 170.403 299.84 183.928Z" stroke="url(#paint54_linear_2544_46)" stroke-opacity="0.15" stroke-width="3"/>
<path opacity="0.56" fill-rule="evenodd" clip-rule="evenodd" d="M299.079 182.318C341.646 202.764 408.376 202.195 420.843 247.713C432.937 291.862 369.428 319.357 347.603 359.465C327.322 396.732 331.23 446.909 298.057 473.348C262.639 501.575 213.207 510.317 168.537 502.177C124.74 494.196 86.2502 465.924 59.9371 429.957C36.1568 397.452 37.8558 355.357 32.0111 315.561C26.3853 277.255 5.07747 234.559 26.5209 202.426C48.0037 170.235 95.7939 174.273 133.145 164.012C161.276 156.285 188.357 146.79 217.394 149.993C247.205 153.282 272.017 169.319 299.079 182.318Z" stroke="url(#paint55_linear_2544_46)" stroke-opacity="0.15" stroke-width="3"/>
<path opacity="0.57" fill-rule="evenodd" clip-rule="evenodd" d="M298.266 180.743C341.008 200.361 407.446 198.633 420.651 243.741C433.459 287.494 370.695 315.98 349.657 356.298C330.109 393.762 334.87 443.66 302.296 470.564C267.517 499.29 218.445 508.856 173.822 501.528C130.071 494.344 91.2537 466.861 64.4276 431.504C40.1837 399.55 41.1454 357.603 34.635 318.076C28.3685 280.029 6.40984 237.885 27.2055 205.514C48.0392 173.083 95.6979 176.272 132.713 165.404C160.592 157.219 187.394 147.293 216.364 149.977C246.107 152.733 271.091 168.271 298.266 180.743Z" stroke="url(#paint56_linear_2544_46)" stroke-opacity="0.15" stroke-width="3"/>
<path opacity="0.58" fill-rule="evenodd" clip-rule="evenodd" d="M297.399 179.204C340.3 197.995 406.427 195.117 420.359 239.805C433.872 283.149 371.868 312.608 351.618 353.122C332.803 390.768 338.41 440.371 306.44 467.73C272.306 496.94 223.608 507.319 179.047 500.8C135.357 494.408 96.2269 467.718 68.9011 432.977C44.2056 401.58 44.4356 359.794 37.2672 320.548C30.3672 282.771 7.77054 241.187 27.9166 208.591C48.0996 175.935 95.6118 178.28 132.282 166.814C159.9 158.178 186.417 147.826 215.311 149.995C244.975 152.221 270.124 167.258 297.399 179.204Z" stroke="url(#paint57_linear_2544_46)" stroke-opacity="0.15" stroke-width="3"/>
<path opacity="0.59" fill-rule="evenodd" clip-rule="evenodd" d="M296.482 177.702C339.527 195.666 405.323 191.649 419.97 235.904C434.177 278.829 372.948 309.242 353.488 349.938C335.405 387.751 341.848 437.047 310.489 464.846C277.007 494.526 228.696 505.71 184.212 499.994C140.597 494.39 101.17 468.495 73.3577 434.378C48.2227 403.544 47.7269 361.931 39.9082 322.976C32.3823 285.48 9.16042 244.466 28.6554 211.658C48.1861 178.789 95.5369 180.296 131.852 168.24C159.203 159.16 185.428 148.39 214.237 150.046C243.813 151.746 269.116 166.281 296.482 177.702Z" stroke="url(#paint58_linear_2544_46)" stroke-opacity="0.15" stroke-width="3"/>
<path opacity="0.6" fill-rule="evenodd" clip-rule="evenodd" d="M295.514 176.238C338.687 193.376 404.132 188.23 419.484 232.041C434.375 274.536 373.936 305.886 355.264 346.747C337.914 384.715 345.185 433.688 314.442 461.914C281.618 492.052 233.707 504.029 189.314 499.113C145.788 494.292 106.08 469.194 77.7951 435.706C52.2326 405.442 51.0171 364.015 42.5561 325.362C34.412 288.157 10.5778 247.722 29.4205 214.713C48.2976 181.644 95.4724 182.321 131.424 169.683C158.5 160.165 184.426 148.985 213.14 150.132C242.62 151.31 268.067 165.343 295.514 176.238Z" stroke="url(#paint59_linear_2544_46)" stroke-opacity="0.15" stroke-width="3"/>
<path opacity="0.61" fill-rule="evenodd" clip-rule="evenodd" d="M294.496 174.813C337.781 191.126 402.856 184.862 418.903 228.219C434.467 270.273 374.83 302.542 356.947 343.553C340.33 381.66 348.42 430.297 318.298 458.939C286.137 489.519 238.64 502.28 194.352 498.157C150.928 494.115 110.956 469.816 82.2113 436.964C56.2335 407.274 54.3047 366.045 45.2096 327.705C36.4551 290.801 12.0218 250.954 30.2111 217.758C48.4337 184.502 95.4179 184.354 130.996 171.145C157.791 161.196 183.412 149.612 212.023 150.254C241.396 150.913 266.977 164.443 294.496 174.813Z" stroke="url(#paint60_linear_2544_46)" stroke-opacity="0.15" stroke-width="3"/>
<path opacity="0.62" fill-rule="evenodd" clip-rule="evenodd" d="M293.43 173.429C336.811 188.917 401.498 181.547 418.227 224.439C434.454 266.041 375.633 299.21 358.539 340.357C342.655 378.59 351.553 426.877 322.057 455.92C290.566 486.929 243.494 500.462 199.325 497.129C156.019 493.861 115.797 470.361 86.6066 438.151C60.2258 409.041 57.5901 368.023 47.8692 330.006C38.5123 293.412 13.4932 254.162 31.0284 220.792C48.5957 187.361 95.3748 186.396 130.57 172.623C157.078 162.25 182.387 150.27 210.886 150.411C240.145 150.556 265.85 163.582 293.43 173.429Z" stroke="url(#paint61_linear_2544_46)" stroke-opacity="0.15" stroke-width="3"/>
<path opacity="0.63" fill-rule="evenodd" clip-rule="evenodd" d="M292.316 172.085C335.778 186.751 400.057 178.286 417.457 220.702C434.335 261.842 376.345 295.893 360.038 337.16C344.886 375.505 354.583 423.43 325.719 452.861C294.901 484.285 248.268 498.58 204.232 496.03C161.057 493.53 120.602 470.832 90.9784 439.269C64.2068 410.744 60.8712 369.948 50.5329 332.264C40.5818 295.991 14.9902 257.346 31.8707 223.814C48.7822 190.221 95.3422 188.445 130.146 174.119C156.359 163.329 181.352 150.96 209.73 150.604C238.864 150.238 264.684 162.76 292.316 172.085Z" stroke="url(#paint62_linear_2544_46)" stroke-opacity="0.15" stroke-width="3"/>
<path opacity="0.64" fill-rule="evenodd" clip-rule="evenodd" d="M291.154 170.784C334.682 184.63 398.534 175.082 416.595 217.011C434.113 257.68 376.965 292.593 361.445 333.966C347.024 372.409 357.51 419.957 329.282 449.764C299.143 481.589 252.961 496.634 209.072 494.862C166.04 493.125 125.367 471.23 95.3255 440.319C68.1755 412.383 64.1468 371.822 53.1998 334.481C42.6628 298.538 16.5121 260.505 32.7377 226.825C48.9931 193.082 95.32 190.503 129.725 175.633C155.637 164.433 180.305 151.682 208.554 150.834C237.556 149.962 263.481 161.981 291.154 170.784Z" stroke="url(#paint63_linear_2544_46)" stroke-opacity="0.15" stroke-width="3"/>
<path opacity="0.65" fill-rule="evenodd" clip-rule="evenodd" d="M289.946 169.525C333.524 182.553 396.932 171.935 415.641 213.368C433.788 253.555 377.495 289.312 362.76 330.775C349.068 369.303 360.333 416.462 332.746 446.632C303.29 478.843 257.57 494.627 213.842 493.627C170.969 492.646 130.093 471.555 99.6465 441.301C72.1304 413.96 67.4158 373.645 55.869 336.656C44.7546 301.053 18.0584 263.64 33.629 229.823C49.2282 195.944 95.3083 192.57 129.305 177.165C154.909 165.563 179.25 152.437 207.36 151.1C236.22 149.728 262.24 161.243 289.946 169.525Z" stroke="url(#paint64_linear_2544_46)" stroke-opacity="0.15" stroke-width="3"/>
<path opacity="0.66" fill-rule="evenodd" clip-rule="evenodd" d="M288.693 168.312C332.306 180.524 395.252 168.848 414.598 209.774C433.362 249.47 377.936 286.051 363.985 327.591C351.021 366.189 363.055 412.947 336.111 443.465C307.344 476.049 262.098 492.561 218.544 492.327C175.842 492.097 134.78 471.809 103.941 442.217C76.0718 415.474 70.6786 375.417 58.5409 338.791C46.8578 303.536 19.6297 266.751 34.5456 232.81C49.4888 198.807 95.3084 194.645 128.889 178.715C154.18 166.718 178.186 153.225 206.15 151.405C234.86 149.536 260.966 160.547 288.693 168.312Z" stroke="url(#paint65_linear_2544_46)" stroke-opacity="0.15" stroke-width="3"/>
<path opacity="0.67" fill-rule="evenodd" clip-rule="evenodd" d="M287.395 167.143C331.028 178.542 393.494 165.821 413.464 206.231C432.835 245.428 378.287 282.814 365.118 324.415C352.881 363.07 365.672 409.414 339.377 440.268C311.301 473.21 266.541 490.437 223.175 490.963C180.656 491.478 139.423 471.993 108.207 443.068C79.9962 416.927 73.932 377.139 61.2125 340.884C48.9693 305.987 21.2231 269.837 35.4847 235.785C49.7724 201.671 95.3181 196.729 128.474 180.284C153.446 167.898 177.112 154.047 204.922 151.747C233.473 149.387 259.655 159.895 287.395 167.143Z" stroke="url(#paint66_linear_2544_46)" stroke-opacity="0.15" stroke-width="3"/>
<path opacity="0.68" fill-rule="evenodd" clip-rule="evenodd" d="M286.054 166.02C329.692 176.61 391.661 162.857 412.244 202.742C432.209 241.429 378.551 279.601 366.161 321.248C354.649 359.947 368.187 405.865 342.543 437.041C315.163 470.328 270.899 488.259 227.734 489.537C185.412 490.79 144.023 472.109 112.444 443.854C83.9046 418.32 77.1772 378.812 63.8851 342.937C51.0908 308.406 22.8403 272.899 36.4482 238.748C50.0811 204.534 95.3397 198.821 128.064 181.871C152.711 169.105 176.032 154.902 203.679 152.128C232.062 149.281 258.311 159.287 286.054 166.02Z" stroke="url(#paint67_linear_2544_46)" stroke-opacity="0.15" stroke-width="3"/>
<path opacity="0.69" fill-rule="evenodd" clip-rule="evenodd" d="M284.67 164.944C328.297 174.728 389.753 159.956 410.936 199.307C431.483 237.476 378.725 276.414 367.113 318.094C356.323 356.822 370.598 402.302 345.608 433.788C318.927 467.404 275.171 486.027 232.219 488.051C190.107 490.036 148.578 472.158 116.649 444.577C87.7937 419.652 80.411 380.435 66.5558 344.95C53.2194 310.794 24.4785 275.935 37.4337 241.698C50.4127 207.397 95.3712 200.921 127.656 183.476C151.972 170.337 174.943 155.791 202.419 152.548C230.627 149.219 256.933 158.724 284.67 164.944Z" stroke="url(#paint68_linear_2544_46)" stroke-opacity="0.15" stroke-width="3"/>
<path opacity="0.7" fill-rule="evenodd" clip-rule="evenodd" d="M283.244 163.916C326.846 172.897 387.772 157.12 409.543 195.929C430.66 233.571 378.813 273.255 367.976 314.953C357.905 353.698 372.905 398.728 348.573 430.509C322.594 464.442 279.356 483.744 236.631 486.507C194.741 489.216 153.088 472.141 120.823 445.238C91.6635 420.925 83.6336 382.01 69.2247 346.924C55.3554 313.151 26.1382 278.947 38.4418 244.635C50.768 210.26 95.4136 203.03 127.252 185.1C151.232 171.595 173.848 156.714 201.145 153.007C229.17 149.201 255.523 158.207 283.244 163.916Z" stroke="url(#paint69_linear_2544_46)" stroke-opacity="0.15" stroke-width="3"/>
<path opacity="0.71" fill-rule="evenodd" clip-rule="evenodd" d="M281.778 162.937C325.34 171.119 385.719 154.352 408.066 192.609C429.742 229.716 378.815 270.127 368.749 311.828C359.396 350.576 375.11 395.146 351.438 427.209C326.164 461.444 283.454 481.413 240.969 484.908C199.314 488.334 157.55 472.059 124.963 445.838C95.5132 422.141 86.8443 383.539 71.8915 348.859C57.4986 315.478 27.819 281.933 39.4724 247.56C51.1472 213.123 95.4674 205.148 126.852 186.743C150.49 172.881 172.747 157.672 199.858 153.506C227.691 149.229 254.082 157.736 281.778 162.937Z" stroke="url(#paint70_linear_2544_46)" stroke-opacity="0.15" stroke-width="3"/>
<path opacity="0.72" fill-rule="evenodd" clip-rule="evenodd" d="M280.274 162.008C323.782 169.394 383.598 151.651 406.508 189.348C428.73 225.913 378.733 267.03 369.436 308.721C360.797 347.459 377.213 391.556 354.204 423.889C329.637 458.411 287.466 479.035 245.232 483.253C203.824 487.39 161.966 471.915 129.071 446.378C99.3427 423.299 90.0433 385.02 74.5563 350.755C59.6493 317.773 29.5215 284.895 40.5263 250.472C51.5512 215.985 95.5337 207.274 126.458 188.404C149.749 174.193 171.642 158.664 198.559 154.045C226.192 149.302 252.612 157.312 280.274 162.008Z" stroke="url(#paint71_linear_2544_46)" stroke-opacity="0.15" stroke-width="3"/>
<path opacity="0.73" fill-rule="evenodd" clip-rule="evenodd" d="M278.729 161.129C322.169 167.725 381.407 149.019 404.867 186.149C427.622 222.163 378.565 263.967 370.033 305.633C362.105 344.348 379.211 387.962 356.867 420.551C333.01 455.346 291.387 476.612 249.418 481.547C208.268 486.386 166.332 471.709 133.142 446.859C103.148 424.401 93.2265 386.454 77.2152 352.612C61.8035 320.038 31.2417 287.831 41.5997 253.371C51.9767 218.847 95.6092 209.408 126.067 190.085C149.006 175.532 170.531 159.691 197.245 154.624C224.672 149.422 251.111 156.935 278.729 161.129Z" stroke="url(#paint72_linear_2544_46)" stroke-opacity="0.15" stroke-width="3"/>
<path opacity="0.74" fill-rule="evenodd" clip-rule="evenodd" d="M277.148 160.301C320.505 166.112 379.15 146.459 403.148 183.013C426.424 218.47 378.315 260.94 370.544 302.567C363.323 341.247 381.109 384.367 359.431 417.198C336.286 452.252 295.221 474.147 253.528 479.79C212.649 485.324 170.648 471.443 137.178 447.282C106.931 425.447 96.3963 387.844 79.8707 354.433C63.964 322.273 32.9824 290.743 42.6957 256.257C52.4268 221.707 95.6975 211.552 125.681 191.785C148.264 176.898 169.416 160.754 195.922 155.244C223.133 149.588 249.583 156.608 277.148 160.301Z" stroke="url(#paint73_linear_2544_46)" stroke-opacity="0.15" stroke-width="3"/>
<path opacity="0.75" fill-rule="evenodd" clip-rule="evenodd" d="M275.531 159.526C318.791 164.555 376.827 143.97 401.349 179.942C425.135 214.833 377.981 257.949 370.968 299.524C364.451 338.155 382.903 380.771 361.894 413.831C339.462 449.13 298.964 471.641 257.559 477.985C216.963 484.205 174.913 471.117 141.177 447.648C110.688 426.438 99.5498 389.189 82.5202 356.216C66.1282 324.477 34.7411 293.629 43.8119 259.13C52.8994 224.566 95.7965 213.704 125.301 193.504C147.522 178.291 168.298 161.851 194.587 155.905C221.576 149.801 248.027 156.328 275.531 159.526Z" stroke="url(#paint74_linear_2544_46)" stroke-opacity="0.15" stroke-width="3"/>
<path opacity="0.76" fill-rule="evenodd" clip-rule="evenodd" d="M273.877 158.803C317.026 163.056 374.44 141.554 399.474 176.937C423.755 211.256 377.565 254.997 371.305 296.506C365.488 335.075 384.595 377.177 364.255 410.454C342.539 445.983 302.617 469.097 261.512 476.133C221.209 483.031 179.125 470.735 145.136 447.96C114.42 427.376 102.686 390.489 85.1625 357.962C68.2952 326.653 36.5168 296.491 44.9477 261.989C53.394 227.424 95.9063 215.864 124.925 195.242C146.781 179.711 167.176 162.984 193.242 156.608C220.001 150.061 246.444 156.099 273.877 158.803Z" stroke="url(#paint75_linear_2544_46)" stroke-opacity="0.15" stroke-width="3"/>
<path opacity="0.77" fill-rule="evenodd" clip-rule="evenodd" d="M272.19 158.134C315.215 161.617 371.991 139.213 397.523 173.999C422.288 207.739 377.07 252.086 371.558 293.515C366.437 332.01 386.186 373.588 366.517 407.068C345.517 442.813 306.18 466.517 265.386 474.236C225.389 481.805 183.285 470.297 149.058 448.217C118.125 428.262 105.806 391.746 87.7988 359.672C70.466 328.799 38.3108 299.327 46.1044 264.836C53.9123 230.281 96.0284 218.033 124.556 197C146.042 181.159 166.053 164.153 191.888 157.352C218.411 150.37 244.837 155.919 272.19 158.134Z" stroke="url(#paint76_linear_2544_46)" stroke-opacity="0.15" stroke-width="3"/>
<path opacity="0.78" fill-rule="evenodd" clip-rule="evenodd" d="M270.47 157.519C313.356 160.237 369.481 136.948 395.499 171.13C420.735 204.286 376.494 249.217 371.727 290.552C367.297 328.961 387.676 370.005 368.679 403.675C348.396 439.623 309.652 463.903 269.18 472.297C229.499 480.527 187.39 469.804 152.938 448.421C121.803 429.095 108.907 392.961 90.427 361.346C72.6389 330.916 40.121 302.138 47.2804 267.668C54.4529 233.136 96.1617 220.211 124.193 198.777C145.304 182.635 164.928 165.358 190.525 158.138C216.805 150.726 243.205 155.791 270.47 157.519Z" stroke="url(#paint77_linear_2544_46)" stroke-opacity="0.15" stroke-width="3"/>
<path opacity="0.79" fill-rule="evenodd" clip-rule="evenodd" d="M268.719 156.959C311.453 158.919 366.913 134.759 393.403 168.332C419.097 200.897 375.841 246.392 371.813 287.621C368.07 325.931 389.067 366.432 370.741 400.278C351.176 436.414 313.033 461.257 272.895 470.317C233.541 479.2 191.442 469.259 156.779 448.573C125.453 429.878 111.99 394.134 93.0476 362.986C74.8143 333.004 41.9484 304.924 48.4765 270.488C55.0167 235.989 96.3076 222.397 123.836 200.574C144.57 184.138 163.803 166.599 189.156 158.967C215.185 151.131 241.55 155.713 268.719 156.959Z" stroke="url(#paint78_linear_2544_46)" stroke-opacity="0.15" stroke-width="3"/>
<path opacity="0.8" fill-rule="evenodd" clip-rule="evenodd" d="M266.937 156.455C309.506 157.662 364.288 132.649 391.237 165.606C417.375 197.573 375.111 243.612 371.817 284.721C368.756 322.92 390.357 362.87 372.704 396.878C353.857 433.189 316.323 458.581 276.529 468.298C237.513 477.825 195.438 468.663 160.578 448.675C129.074 430.611 115.054 395.265 95.6593 364.59C76.991 335.064 43.7913 307.686 49.6917 273.294C55.6029 238.84 96.4654 224.592 123.487 202.391C143.839 185.669 162.678 167.877 187.781 159.838C213.552 151.586 239.874 155.688 266.937 156.455Z" stroke="url(#paint79_linear_2544_46)" stroke-opacity="0.15" stroke-width="3"/>
<path opacity="0.81" fill-rule="evenodd" clip-rule="evenodd" d="M265.125 156.007C307.514 156.468 361.606 130.617 389 162.953C415.571 194.318 374.303 240.879 371.737 281.856C369.353 319.931 391.546 359.321 374.566 393.479C356.437 429.95 319.52 455.878 280.081 466.242C241.413 476.404 199.376 468.017 164.333 448.728C132.663 431.295 118.096 396.357 98.26 366.161C79.167 337.096 45.648 310.422 50.9241 276.087C56.21 241.689 96.6338 226.796 123.144 204.227C143.11 187.229 161.552 169.19 186.398 160.752C211.905 152.089 238.174 155.715 265.125 156.007Z" stroke="url(#paint80_linear_2544_46)" stroke-opacity="0.15" stroke-width="3"/>
<path opacity="0.82" fill-rule="evenodd" clip-rule="evenodd" d="M263.285 155.616C305.483 155.337 358.872 128.665 386.698 160.375C413.687 191.132 373.422 238.195 371.579 279.026C369.867 316.966 392.638 355.787 376.331 390.082C358.92 426.699 322.626 453.149 283.553 464.152C245.243 474.939 203.259 467.322 168.046 448.732C136.223 431.932 121.118 397.409 100.852 367.699C81.3445 339.101 47.5206 313.133 52.1763 278.866C56.8405 244.535 96.8156 229.008 122.809 206.083C142.387 188.816 160.429 170.54 185.011 161.709C210.248 152.643 236.457 155.794 263.285 155.616Z" stroke="url(#paint81_linear_2544_46)" stroke-opacity="0.15" stroke-width="3"/>
<path opacity="0.83" fill-rule="evenodd" clip-rule="evenodd" d="M261.419 155.284C303.412 154.272 356.086 126.795 384.33 157.873C411.725 188.017 372.467 235.561 371.341 276.234C370.295 314.027 393.632 352.271 377.997 386.69C361.304 423.439 325.64 450.398 286.943 462.029C249.002 473.432 207.084 466.581 171.715 448.691C139.751 432.522 124.119 398.423 103.433 369.204C83.5219 341.078 49.4075 315.82 53.4467 281.632C57.4933 247.38 97.0099 231.23 122.483 207.959C141.668 190.432 159.308 171.928 183.621 162.71C208.581 153.247 234.72 155.927 261.419 155.284Z" stroke="url(#paint82_linear_2544_46)" stroke-opacity="0.15" stroke-width="3"/>
<path opacity="0.84" fill-rule="evenodd" clip-rule="evenodd" d="M259.525 155.009C301.302 153.271 353.248 125.006 381.897 155.447C409.686 184.974 371.439 232.979 371.024 273.481C370.639 311.115 394.528 348.774 379.565 383.304C363.588 420.172 328.562 447.625 290.25 459.874C252.687 471.885 210.849 465.795 175.339 448.603C143.246 433.067 127.096 399.399 106.002 370.676C85.6976 343.029 51.3072 318.483 54.7341 284.383C58.1672 250.222 97.2158 233.46 122.164 209.854C140.954 192.076 158.189 173.351 182.226 163.754C206.904 153.9 232.965 156.114 259.525 155.009Z" stroke="url(#paint83_linear_2544_46)" stroke-opacity="0.15" stroke-width="3"/>
<path opacity="0.85" fill-rule="evenodd" clip-rule="evenodd" d="M257.607 154.792C299.154 152.336 350.362 123.3 379.402 153.1C407.57 182.004 370.338 230.449 370.628 270.768C370.898 308.233 395.327 345.298 381.034 379.927C365.773 416.899 331.39 444.832 293.474 457.691C256.299 470.298 214.555 464.965 178.916 448.472C146.707 433.566 130.05 400.338 108.558 372.117C87.8711 344.953 53.2191 321.12 56.038 287.121C58.862 253.06 97.4334 235.698 121.853 211.769C140.245 193.748 157.073 174.811 180.828 164.841C205.217 154.604 231.193 156.354 257.607 154.792Z" stroke="url(#paint84_linear_2544_46)" stroke-opacity="0.15" stroke-width="3"/>
<path opacity="0.86" fill-rule="evenodd" clip-rule="evenodd" d="M255.666 154.635C296.971 151.468 347.429 121.679 376.848 150.833C405.382 179.111 369.169 227.974 370.157 268.098C371.076 305.381 396.031 341.847 382.407 376.561C367.861 413.624 334.128 442.024 296.617 455.481C259.838 468.676 218.202 464.093 182.448 448.298C150.135 434.023 132.981 401.241 111.103 373.527C90.0437 346.851 55.1444 323.733 57.3599 289.846C59.5794 255.897 97.6645 237.945 121.552 213.705C139.543 195.448 155.961 176.309 179.43 165.972C203.524 155.36 229.405 156.649 255.666 154.635Z" stroke="url(#paint85_linear_2544_46)" stroke-opacity="0.15" stroke-width="3"/>
<path opacity="0.87" fill-rule="evenodd" clip-rule="evenodd" d="M253.702 154.538C294.753 150.667 344.452 120.142 374.234 148.646C403.121 176.294 367.931 225.556 369.611 265.472C371.171 302.563 396.639 338.422 383.683 373.208C369.85 410.349 336.772 439.2 299.676 453.246C263.304 467.018 221.789 463.181 185.932 448.083C153.527 434.438 135.888 402.109 113.634 374.907C92.2136 348.724 57.0813 326.323 58.6981 292.557C60.3179 258.73 97.9079 240.202 121.259 215.661C138.847 197.178 154.854 177.843 178.031 167.147C201.825 156.166 227.603 156.999 253.702 154.538Z" stroke="url(#paint86_linear_2544_46)" stroke-opacity="0.15" stroke-width="3"/>
<path opacity="0.88" fill-rule="evenodd" clip-rule="evenodd" d="M251.719 154.501C292.504 149.935 341.432 118.691 371.565 146.541C400.792 173.555 366.627 223.194 368.991 262.892C371.188 299.778 397.154 335.024 384.865 369.87C371.743 407.074 339.326 436.364 302.653 450.988C266.696 465.327 225.316 462.23 189.371 447.827C156.886 434.81 138.771 402.943 116.153 376.257C94.3818 350.571 59.031 328.887 60.0541 295.255C61.079 261.561 98.1655 242.466 120.978 217.636C138.16 198.935 153.754 179.414 176.633 168.366C200.121 157.024 225.789 157.405 251.719 154.501Z" stroke="url(#paint87_linear_2544_46)" stroke-opacity="0.15" stroke-width="3"/>
<path opacity="0.89" fill-rule="evenodd" clip-rule="evenodd" d="M249.715 154.525C290.222 149.271 338.37 117.325 368.84 144.519C398.393 170.895 365.256 220.891 368.298 260.358C371.124 297.03 397.575 331.656 385.95 366.549C373.538 403.804 341.787 433.517 305.546 448.709C270.013 463.604 228.78 461.242 192.76 447.533C160.207 435.143 141.628 403.743 118.657 377.578C96.5456 352.393 60.9905 331.428 61.425 297.938C61.8602 264.388 98.435 244.74 120.706 219.631C137.479 200.721 152.659 181.022 175.234 169.629C198.412 157.932 223.962 157.865 249.715 154.525Z" stroke="url(#paint88_linear_2544_46)" stroke-opacity="0.15" stroke-width="3"/>
<path opacity="0.9" fill-rule="evenodd" clip-rule="evenodd" d="M247.693 154.61C287.911 148.677 335.27 116.048 366.062 142.581C395.929 168.317 363.821 218.649 367.533 257.873C370.981 294.32 397.905 328.32 386.942 363.247C375.237 400.539 344.157 430.662 308.356 446.411C273.255 461.852 232.183 460.219 196.101 447.202C163.493 435.438 144.459 404.511 121.146 378.871C98.7061 354.192 62.961 333.945 62.8122 300.609C62.6631 267.212 98.7181 247.022 120.444 221.647C136.807 202.536 151.571 182.668 173.839 170.937C196.7 158.893 222.124 158.382 247.693 154.61Z" stroke="url(#paint89_linear_2544_46)" stroke-opacity="0.15" stroke-width="3"/>
<path opacity="0.91" fill-rule="evenodd" clip-rule="evenodd" d="M245.653 154.757C285.571 148.153 332.131 114.858 363.232 140.727C393.399 165.82 362.323 216.468 366.697 255.438C370.761 291.65 398.142 325.017 387.839 359.967C376.839 397.282 346.434 427.8 311.083 444.096C276.422 460.073 235.523 459.161 199.393 446.834C166.74 435.694 147.263 405.247 123.62 380.136C100.862 355.966 64.9408 336.439 64.2142 303.266C63.4862 270.032 99.0138 249.313 120.193 223.683C136.144 204.379 150.491 184.35 172.445 172.288C194.985 159.906 220.275 158.955 245.653 154.757Z" stroke="url(#paint90_linear_2544_46)" stroke-opacity="0.15" stroke-width="3"/>
<path opacity="0.92" fill-rule="evenodd" clip-rule="evenodd" d="M243.599 154.965C283.205 147.7 328.957 113.756 360.354 138.96C390.808 163.406 360.763 214.349 365.792 253.055C370.465 289.02 398.29 321.75 388.645 356.709C378.346 394.035 348.621 424.934 313.727 441.765C279.515 458.268 238.802 458.071 202.636 446.432C169.951 435.913 150.042 405.953 126.079 381.374C103.014 357.717 66.9311 338.908 65.6323 305.909C64.3311 272.848 99.3238 251.612 119.954 225.738C135.491 206.251 149.419 186.069 171.056 173.684C193.269 160.97 218.419 159.584 243.599 154.965Z" stroke="url(#paint91_linear_2544_46)" stroke-opacity="0.15" stroke-width="3"/>
<path opacity="0.93" fill-rule="evenodd" clip-rule="evenodd" d="M241.528 155.236C280.812 147.318 325.748 112.744 357.427 137.279C388.154 161.077 359.143 212.295 364.818 250.725C370.092 286.434 398.347 318.521 389.357 353.478C379.757 390.801 350.716 422.066 316.287 439.422C282.531 456.439 242.016 456.951 205.828 445.997C173.122 436.097 152.791 406.629 128.521 382.587C105.159 359.445 68.9292 341.355 67.0641 308.539C65.1956 275.662 99.6461 253.921 119.725 227.814C134.847 208.151 148.356 187.826 169.67 175.125C191.553 162.086 216.553 160.27 241.528 155.236Z" stroke="url(#paint92_linear_2544_46)" stroke-opacity="0.15" stroke-width="3"/>
<path opacity="0.94" fill-rule="evenodd" clip-rule="evenodd" d="M239.446 155.569C278.397 147.007 322.509 111.821 354.456 135.686C385.443 158.834 357.465 210.305 363.78 248.449C369.647 283.891 398.318 315.33 389.979 350.273C381.076 387.581 352.722 419.197 318.766 437.067C285.473 454.587 245.169 455.801 208.97 445.53C176.256 436.247 155.515 407.276 130.948 383.773C107.301 361.15 70.9375 343.779 68.5121 311.155C66.0821 278.471 99.9837 256.238 119.509 229.909C134.214 210.08 147.303 189.619 168.291 176.61C189.838 163.255 214.683 161.013 239.446 155.569Z" stroke="url(#paint93_linear_2544_46)" stroke-opacity="0.15" stroke-width="3"/>
<path opacity="0.95" fill-rule="evenodd" clip-rule="evenodd" d="M237.351 155.966C275.958 146.768 319.239 110.988 351.44 134.181C382.674 156.677 355.73 208.382 362.675 246.228C369.128 281.395 398.202 312.182 390.511 347.098C382.299 384.377 354.636 416.331 321.16 434.703C288.338 452.716 248.257 454.624 212.061 445.032C179.35 436.363 158.21 407.895 133.358 384.934C109.436 362.834 72.9532 346.179 69.9735 313.758C66.9884 281.277 100.334 258.563 119.305 232.025C133.593 212.037 146.261 191.449 166.918 178.14C188.125 164.475 212.806 161.813 237.351 155.966Z" stroke="url(#paint94_linear_2544_46)" stroke-opacity="0.15" stroke-width="3"/>
<path opacity="0.96" fill-rule="evenodd" clip-rule="evenodd" d="M235.247 156.425C273.5 146.602 315.941 110.247 348.384 132.766C379.851 154.608 353.94 206.526 361.507 244.065C368.538 278.946 398 309.076 390.954 343.953C383.431 381.192 356.462 413.469 323.473 432.332C291.129 450.826 251.283 453.421 215.102 444.506C182.405 436.448 160.877 408.487 135.751 386.072C111.567 364.496 74.9776 348.558 71.45 316.348C67.9161 284.079 100.7 260.898 119.114 234.161C132.983 214.023 145.23 193.317 165.552 179.714C186.416 165.748 210.927 162.67 235.247 156.425Z" stroke="url(#paint95_linear_2544_46)" stroke-opacity="0.15" stroke-width="3"/>
<path opacity="0.97" fill-rule="evenodd" clip-rule="evenodd" d="M233.133 156.948C271.022 146.509 312.618 109.596 345.287 131.44C376.974 152.627 352.096 204.738 360.276 241.96C367.878 276.546 397.714 306.014 391.309 340.842C384.471 378.026 358.198 410.612 325.703 429.954C293.844 448.919 254.244 452.194 218.091 443.951C185.419 436.501 163.515 409.053 138.127 387.185C113.69 366.136 77.009 350.913 72.9401 318.924C68.8637 286.876 101.08 263.24 118.937 236.316C132.386 216.037 144.211 195.221 164.195 181.332C184.71 167.073 209.044 163.584 233.133 156.948Z" stroke="url(#paint96_linear_2544_46)" stroke-opacity="0.15" stroke-width="3"/>
<path opacity="0.98" fill-rule="evenodd" clip-rule="evenodd" d="M231.01 157.534C268.525 146.489 309.269 109.038 342.152 130.205C374.046 150.736 350.199 203.02 358.984 239.915C367.147 274.197 397.344 303 391.576 337.765C385.418 374.883 359.844 407.763 327.851 427.574C296.482 446.998 257.14 450.944 221.028 443.37C188.392 436.525 166.122 409.594 140.484 388.276C115.805 367.756 79.0465 353.246 74.4429 321.487C69.8308 289.67 101.473 265.592 118.772 238.491C131.8 218.08 143.204 197.161 162.845 182.995C183.009 168.45 207.158 164.556 231.01 157.534Z" stroke="url(#paint97_linear_2544_46)" stroke-opacity="0.15" stroke-width="3"/>
<path opacity="0.99" fill-rule="evenodd" clip-rule="evenodd" d="M228.881 158.185C266.013 146.543 305.899 108.572 338.981 129.062C371.069 148.936 348.251 201.373 357.632 237.93C366.349 271.899 396.892 300.034 391.757 334.725C386.275 371.765 361.403 404.925 329.916 425.192C299.045 445.064 259.972 449.674 223.913 442.765C191.325 436.521 168.701 410.111 142.823 389.345C117.914 369.357 81.0912 355.557 75.9595 324.037C70.8185 292.459 101.881 267.952 118.621 240.686C131.229 220.151 142.211 199.139 161.506 184.702C181.314 169.88 205.273 165.586 228.881 158.185Z" stroke="url(#paint98_linear_2544_46)" stroke-opacity="0.15" stroke-width="3"/>
<path fill-rule="evenodd" clip-rule="evenodd" d="M226.747 158.899C263.487 146.671 302.509 108.198 335.777 128.01C368.046 147.228 346.256 199.797 356.224 236.008C365.486 269.655 396.36 297.118 391.855 331.724C387.044 368.673 362.875 402.098 331.902 422.81C301.534 443.118 262.742 448.384 226.747 442.136C194.218 436.489 171.251 410.605 145.145 390.393C120.017 370.937 83.143 357.847 77.4903 326.574C71.8272 295.244 102.305 270.32 118.485 242.901C130.672 222.25 141.234 201.153 160.178 186.453C179.628 171.362 203.389 166.673 226.747 158.899Z" stroke="url(#paint99_linear_2544_46)" stroke-opacity="0.15" stroke-width="3"/>
<defs>
<linearGradient id="paint0_linear_2544_46" x1="303.349" y1="307.764" x2="-169.107" y2="232.935" gradientUnits="userSpaceOnUse">
<stop stop-color="#B620E0"/>
<stop offset="1" stop-color="#0047FF"/>
</linearGradient>
<linearGradient id="paint1_linear_2544_46" x1="306.011" y1="305.193" x2="-166.117" y2="238.84" gradientUnits="userSpaceOnUse">
<stop stop-color="#B620E0"/>
<stop offset="1" stop-color="#0047FF"/>
</linearGradient>
<linearGradient id="paint2_linear_2544_46" x1="308.601" y1="302.587" x2="-163.047" y2="244.676" gradientUnits="userSpaceOnUse">
<stop stop-color="#B620E0"/>
<stop offset="1" stop-color="#0047FF"/>
</linearGradient>
<linearGradient id="paint3_linear_2544_46" x1="311.117" y1="299.95" x2="-159.902" y2="250.444" gradientUnits="userSpaceOnUse">
<stop stop-color="#B620E0"/>
<stop offset="1" stop-color="#0047FF"/>
</linearGradient>
<linearGradient id="paint4_linear_2544_46" x1="313.56" y1="297.281" x2="-156.679" y2="256.14" gradientUnits="userSpaceOnUse">
<stop stop-color="#B620E0"/>
<stop offset="1" stop-color="#0047FF"/>
</linearGradient>
<linearGradient id="paint5_linear_2544_46" x1="315.928" y1="294.583" x2="-153.384" y2="261.765" gradientUnits="userSpaceOnUse">
<stop stop-color="#B620E0"/>
<stop offset="1" stop-color="#0047FF"/>
</linearGradient>
<linearGradient id="paint6_linear_2544_46" x1="318.22" y1="291.857" x2="-150.017" y2="267.317" gradientUnits="userSpaceOnUse">
<stop stop-color="#B620E0"/>
<stop offset="1" stop-color="#0047FF"/>
</linearGradient>
<linearGradient id="paint7_linear_2544_46" x1="320.438" y1="289.104" x2="-146.58" y2="272.795" gradientUnits="userSpaceOnUse">
<stop stop-color="#B620E0"/>
<stop offset="1" stop-color="#0047FF"/>
</linearGradient>
<linearGradient id="paint8_linear_2544_46" x1="322.581" y1="286.327" x2="-143.073" y2="278.199" gradientUnits="userSpaceOnUse">
<stop stop-color="#B620E0"/>
<stop offset="1" stop-color="#0047FF"/>
</linearGradient>
<linearGradient id="paint9_linear_2544_46" x1="324.647" y1="283.526" x2="-139.501" y2="283.526" gradientUnits="userSpaceOnUse">
<stop stop-color="#B620E0"/>
<stop offset="1" stop-color="#0047FF"/>
</linearGradient>
<linearGradient id="paint10_linear_2544_46" x1="326.636" y1="280.704" x2="-135.864" y2="288.777" gradientUnits="userSpaceOnUse">
<stop stop-color="#B620E0"/>
<stop offset="1" stop-color="#0047FF"/>
</linearGradient>
<linearGradient id="paint11_linear_2544_46" x1="328.549" y1="277.862" x2="-132.163" y2="293.951" gradientUnits="userSpaceOnUse">
<stop stop-color="#B620E0"/>
<stop offset="1" stop-color="#0047FF"/>
</linearGradient>
<linearGradient id="paint12_linear_2544_46" x1="330.385" y1="275.002" x2="-128.401" y2="299.046" gradientUnits="userSpaceOnUse">
<stop stop-color="#B620E0"/>
<stop offset="1" stop-color="#0047FF"/>
</linearGradient>
<linearGradient id="paint13_linear_2544_46" x1="332.142" y1="272.124" x2="-124.58" y2="304.061" gradientUnits="userSpaceOnUse">
<stop stop-color="#B620E0"/>
<stop offset="1" stop-color="#0047FF"/>
</linearGradient>
<linearGradient id="paint14_linear_2544_46" x1="333.822" y1="269.232" x2="-120.702" y2="308.997" gradientUnits="userSpaceOnUse">
<stop stop-color="#B620E0"/>
<stop offset="1" stop-color="#0047FF"/>
</linearGradient>
<linearGradient id="paint15_linear_2544_46" x1="335.422" y1="266.325" x2="-116.769" y2="313.853" gradientUnits="userSpaceOnUse">
<stop stop-color="#B620E0"/>
<stop offset="1" stop-color="#0047FF"/>
</linearGradient>
<linearGradient id="paint16_linear_2544_46" x1="336.946" y1="263.407" x2="-112.782" y2="318.626" gradientUnits="userSpaceOnUse">
<stop stop-color="#B620E0"/>
<stop offset="1" stop-color="#0047FF"/>
</linearGradient>
<linearGradient id="paint17_linear_2544_46" x1="338.391" y1="260.478" x2="-108.742" y2="323.319" gradientUnits="userSpaceOnUse">
<stop stop-color="#B620E0"/>
<stop offset="1" stop-color="#0047FF"/>
</linearGradient>
<linearGradient id="paint18_linear_2544_46" x1="339.757" y1="257.541" x2="-104.654" y2="327.928" gradientUnits="userSpaceOnUse">
<stop stop-color="#B620E0"/>
<stop offset="1" stop-color="#0047FF"/>
</linearGradient>
<linearGradient id="paint19_linear_2544_46" x1="341.044" y1="254.595" x2="-100.516" y2="332.454" gradientUnits="userSpaceOnUse">
<stop stop-color="#B620E0"/>
<stop offset="1" stop-color="#0047FF"/>
</linearGradient>
<linearGradient id="paint20_linear_2544_46" x1="342.253" y1="251.645" x2="-96.3327" y2="336.897" gradientUnits="userSpaceOnUse">
<stop stop-color="#B620E0"/>
<stop offset="1" stop-color="#0047FF"/>
</linearGradient>
<linearGradient id="paint21_linear_2544_46" x1="343.383" y1="248.69" x2="-92.1052" y2="341.256" gradientUnits="userSpaceOnUse">
<stop stop-color="#B620E0"/>
<stop offset="1" stop-color="#0047FF"/>
</linearGradient>
<linearGradient id="paint22_linear_2544_46" x1="344.434" y1="245.733" x2="-87.8351" y2="345.531" gradientUnits="userSpaceOnUse">
<stop stop-color="#B620E0"/>
<stop offset="1" stop-color="#0047FF"/>
</linearGradient>
<linearGradient id="paint23_linear_2544_46" x1="345.407" y1="242.776" x2="-83.5247" y2="349.72" gradientUnits="userSpaceOnUse">
<stop stop-color="#B620E0"/>
<stop offset="1" stop-color="#0047FF"/>
</linearGradient>
<linearGradient id="paint24_linear_2544_46" x1="346.3" y1="239.819" x2="-79.1755" y2="353.825" gradientUnits="userSpaceOnUse">
<stop stop-color="#B620E0"/>
<stop offset="1" stop-color="#0047FF"/>
</linearGradient>
<linearGradient id="paint25_linear_2544_46" x1="347.116" y1="236.864" x2="-74.7892" y2="357.843" gradientUnits="userSpaceOnUse">
<stop stop-color="#B620E0"/>
<stop offset="1" stop-color="#0047FF"/>
</linearGradient>
<linearGradient id="paint26_linear_2544_46" x1="347.852" y1="233.914" x2="-70.3685" y2="361.776" gradientUnits="userSpaceOnUse">
<stop stop-color="#B620E0"/>
<stop offset="1" stop-color="#0047FF"/>
</linearGradient>
<linearGradient id="paint27_linear_2544_46" x1="348.51" y1="230.968" x2="-65.9154" y2="365.623" gradientUnits="userSpaceOnUse">
<stop stop-color="#B620E0"/>
<stop offset="1" stop-color="#0047FF"/>
</linearGradient>
<linearGradient id="paint28_linear_2544_46" x1="349.089" y1="228.031" x2="-61.4313" y2="369.384" gradientUnits="userSpaceOnUse">
<stop stop-color="#B620E0"/>
<stop offset="1" stop-color="#0047FF"/>
</linearGradient>
<linearGradient id="paint29_linear_2544_46" x1="349.592" y1="225.102" x2="-56.917" y2="373.059" gradientUnits="userSpaceOnUse">
<stop stop-color="#B620E0"/>
<stop offset="1" stop-color="#0047FF"/>
</linearGradient>
<linearGradient id="paint30_linear_2544_46" x1="350.015" y1="222.184" x2="-52.3766" y2="376.647" gradientUnits="userSpaceOnUse">
<stop stop-color="#B620E0"/>
<stop offset="1" stop-color="#0047FF"/>
</linearGradient>
<linearGradient id="paint31_linear_2544_46" x1="350.362" y1="219.277" x2="-47.8105" y2="380.149" gradientUnits="userSpaceOnUse">
<stop stop-color="#B620E0"/>
<stop offset="1" stop-color="#0047FF"/>
</linearGradient>
<linearGradient id="paint32_linear_2544_46" x1="350.631" y1="216.384" x2="-43.2204" y2="383.564" gradientUnits="userSpaceOnUse">
<stop stop-color="#B620E0"/>
<stop offset="1" stop-color="#0047FF"/>
</linearGradient>
<linearGradient id="paint33_linear_2544_46" x1="350.825" y1="213.506" x2="-38.6082" y2="386.893" gradientUnits="userSpaceOnUse">
<stop stop-color="#B620E0"/>
<stop offset="1" stop-color="#0047FF"/>
</linearGradient>
<linearGradient id="paint34_linear_2544_46" x1="350.941" y1="210.645" x2="-33.9768" y2="390.135" gradientUnits="userSpaceOnUse">
<stop stop-color="#B620E0"/>
<stop offset="1" stop-color="#0047FF"/>
</linearGradient>
<linearGradient id="paint35_linear_2544_46" x1="350.981" y1="207.802" x2="-29.328" y2="393.291" gradientUnits="userSpaceOnUse">
<stop stop-color="#B620E0"/>
<stop offset="1" stop-color="#0047FF"/>
</linearGradient>
<linearGradient id="paint36_linear_2544_46" x1="350.946" y1="204.979" x2="-24.662" y2="396.361" gradientUnits="userSpaceOnUse">
<stop stop-color="#B620E0"/>
<stop offset="1" stop-color="#0047FF"/>
</linearGradient>
<linearGradient id="paint37_linear_2544_46" x1="350.836" y1="202.177" x2="-19.9821" y2="399.344" gradientUnits="userSpaceOnUse">
<stop stop-color="#B620E0"/>
<stop offset="1" stop-color="#0047FF"/>
</linearGradient>
<linearGradient id="paint38_linear_2544_46" x1="350.651" y1="199.398" x2="-15.2898" y2="402.242" gradientUnits="userSpaceOnUse">
<stop stop-color="#B620E0"/>
<stop offset="1" stop-color="#0047FF"/>
</linearGradient>
<linearGradient id="paint39_linear_2544_46" x1="350.392" y1="196.643" x2="-10.5871" y2="405.054" gradientUnits="userSpaceOnUse">
<stop stop-color="#B620E0"/>
<stop offset="1" stop-color="#0047FF"/>
</linearGradient>
<linearGradient id="paint40_linear_2544_46" x1="350.059" y1="193.914" x2="-5.87544" y2="407.781" gradientUnits="userSpaceOnUse">
<stop stop-color="#B620E0"/>
<stop offset="1" stop-color="#0047FF"/>
</linearGradient>
<linearGradient id="paint41_linear_2544_46" x1="349.653" y1="191.213" x2="-1.15659" y2="410.423" gradientUnits="userSpaceOnUse">
<stop stop-color="#B620E0"/>
<stop offset="1" stop-color="#0047FF"/>
</linearGradient>
<linearGradient id="paint42_linear_2544_46" x1="349.174" y1="188.54" x2="3.56648" y2="412.98" gradientUnits="userSpaceOnUse">
<stop stop-color="#B620E0"/>
<stop offset="1" stop-color="#0047FF"/>
</linearGradient>
<linearGradient id="paint43_linear_2544_46" x1="348.625" y1="185.897" x2="8.29446" y2="415.452" gradientUnits="userSpaceOnUse">
<stop stop-color="#B620E0"/>
<stop offset="1" stop-color="#0047FF"/>
</linearGradient>
<linearGradient id="paint44_linear_2544_46" x1="348.005" y1="183.286" x2="13.0248" y2="417.841" gradientUnits="userSpaceOnUse">
<stop stop-color="#B620E0"/>
<stop offset="1" stop-color="#0047FF"/>
</linearGradient>
<linearGradient id="paint45_linear_2544_46" x1="347.313" y1="180.708" x2="17.7541" y2="420.146" gradientUnits="userSpaceOnUse">
<stop stop-color="#B620E0"/>
<stop offset="1" stop-color="#0047FF"/>
</linearGradient>
<linearGradient id="paint46_linear_2544_46" x1="346.553" y1="178.165" x2="22.4825" y2="422.369" gradientUnits="userSpaceOnUse">
<stop stop-color="#B620E0"/>
<stop offset="1" stop-color="#0047FF"/>
</linearGradient>
<linearGradient id="paint47_linear_2544_46" x1="345.723" y1="175.657" x2="27.2077" y2="424.509" gradientUnits="userSpaceOnUse">
<stop stop-color="#B620E0"/>
<stop offset="1" stop-color="#0047FF"/>
</linearGradient>
<linearGradient id="paint48_linear_2544_46" x1="344.825" y1="173.187" x2="31.9274" y2="426.567" gradientUnits="userSpaceOnUse">
<stop stop-color="#B620E0"/>
<stop offset="1" stop-color="#0047FF"/>
</linearGradient>
<linearGradient id="paint49_linear_2544_46" x1="343.861" y1="170.756" x2="36.6409" y2="428.544" gradientUnits="userSpaceOnUse">
<stop stop-color="#B620E0"/>
<stop offset="1" stop-color="#0047FF"/>
</linearGradient>
<linearGradient id="paint50_linear_2544_46" x1="342.829" y1="168.364" x2="41.3456" y2="430.44" gradientUnits="userSpaceOnUse">
<stop stop-color="#B620E0"/>
<stop offset="1" stop-color="#0047FF"/>
</linearGradient>
<linearGradient id="paint51_linear_2544_46" x1="341.733" y1="166.014" x2="46.0411" y2="432.256" gradientUnits="userSpaceOnUse">
<stop stop-color="#B620E0"/>
<stop offset="1" stop-color="#0047FF"/>
</linearGradient>
<linearGradient id="paint52_linear_2544_46" x1="340.571" y1="163.707" x2="50.7245" y2="433.993" gradientUnits="userSpaceOnUse">
<stop stop-color="#B620E0"/>
<stop offset="1" stop-color="#0047FF"/>
</linearGradient>
<linearGradient id="paint53_linear_2544_46" x1="339.346" y1="161.444" x2="55.3956" y2="435.651" gradientUnits="userSpaceOnUse">
<stop stop-color="#B620E0"/>
<stop offset="1" stop-color="#0047FF"/>
</linearGradient>
<linearGradient id="paint54_linear_2544_46" x1="338.059" y1="159.226" x2="60.0528" y2="437.231" gradientUnits="userSpaceOnUse">
<stop stop-color="#B620E0"/>
<stop offset="1" stop-color="#0047FF"/>
</linearGradient>
<linearGradient id="paint55_linear_2544_46" x1="336.709" y1="157.054" x2="64.6933" y2="438.735" gradientUnits="userSpaceOnUse">
<stop stop-color="#B620E0"/>
<stop offset="1" stop-color="#0047FF"/>
</linearGradient>
<linearGradient id="paint56_linear_2544_46" x1="335.299" y1="154.93" x2="69.3161" y2="440.161" gradientUnits="userSpaceOnUse">
<stop stop-color="#B620E0"/>
<stop offset="1" stop-color="#0047FF"/>
</linearGradient>
<linearGradient id="paint57_linear_2544_46" x1="333.828" y1="152.855" x2="73.9191" y2="441.513" gradientUnits="userSpaceOnUse">
<stop stop-color="#B620E0"/>
<stop offset="1" stop-color="#0047FF"/>
</linearGradient>
<linearGradient id="paint58_linear_2544_46" x1="332.299" y1="150.831" x2="78.5024" y2="442.79" gradientUnits="userSpaceOnUse">
<stop stop-color="#B620E0"/>
<stop offset="1" stop-color="#0047FF"/>
</linearGradient>
<linearGradient id="paint59_linear_2544_46" x1="330.712" y1="148.857" x2="83.0637" y2="443.993" gradientUnits="userSpaceOnUse">
<stop stop-color="#B620E0"/>
<stop offset="1" stop-color="#0047FF"/>
</linearGradient>
<linearGradient id="paint60_linear_2544_46" x1="329.068" y1="146.937" x2="87.6011" y2="445.123" gradientUnits="userSpaceOnUse">
<stop stop-color="#B620E0"/>
<stop offset="1" stop-color="#0047FF"/>
</linearGradient>
<linearGradient id="paint61_linear_2544_46" x1="327.369" y1="145.07" x2="92.1147" y2="446.182" gradientUnits="userSpaceOnUse">
<stop stop-color="#B620E0"/>
<stop offset="1" stop-color="#0047FF"/>
</linearGradient>
<linearGradient id="paint62_linear_2544_46" x1="325.616" y1="143.257" x2="96.602" y2="447.169" gradientUnits="userSpaceOnUse">
<stop stop-color="#B620E0"/>
<stop offset="1" stop-color="#0047FF"/>
</linearGradient>
<linearGradient id="paint63_linear_2544_46" x1="323.81" y1="141.5" x2="101.062" y2="448.087" gradientUnits="userSpaceOnUse">
<stop stop-color="#B620E0"/>
<stop offset="1" stop-color="#0047FF"/>
</linearGradient>
<linearGradient id="paint64_linear_2544_46" x1="321.951" y1="139.8" x2="105.492" y2="448.936" gradientUnits="userSpaceOnUse">
<stop stop-color="#B620E0"/>
<stop offset="1" stop-color="#0047FF"/>
</linearGradient>
<linearGradient id="paint65_linear_2544_46" x1="320.043" y1="138.159" x2="109.894" y2="449.717" gradientUnits="userSpaceOnUse">
<stop stop-color="#B620E0"/>
<stop offset="1" stop-color="#0047FF"/>
</linearGradient>
<linearGradient id="paint66_linear_2544_46" x1="318.083" y1="136.576" x2="114.263" y2="450.431" gradientUnits="userSpaceOnUse">
<stop stop-color="#B620E0"/>
<stop offset="1" stop-color="#0047FF"/>
</linearGradient>
<linearGradient id="paint67_linear_2544_46" x1="316.077" y1="135.053" x2="118.601" y2="451.08" gradientUnits="userSpaceOnUse">
<stop stop-color="#B620E0"/>
<stop offset="1" stop-color="#0047FF"/>
</linearGradient>
<linearGradient id="paint68_linear_2544_46" x1="314.022" y1="133.591" x2="122.905" y2="451.664" gradientUnits="userSpaceOnUse">
<stop stop-color="#B620E0"/>
<stop offset="1" stop-color="#0047FF"/>
</linearGradient>
<linearGradient id="paint69_linear_2544_46" x1="311.922" y1="132.19" x2="127.173" y2="452.184" gradientUnits="userSpaceOnUse">
<stop stop-color="#B620E0"/>
<stop offset="1" stop-color="#0047FF"/>
</linearGradient>
<linearGradient id="paint70_linear_2544_46" x1="309.777" y1="130.853" x2="131.406" y2="452.643" gradientUnits="userSpaceOnUse">
<stop stop-color="#B620E0"/>
<stop offset="1" stop-color="#0047FF"/>
</linearGradient>
<linearGradient id="paint71_linear_2544_46" x1="307.59" y1="129.579" x2="135.603" y2="453.04" gradientUnits="userSpaceOnUse">
<stop stop-color="#B620E0"/>
<stop offset="1" stop-color="#0047FF"/>
</linearGradient>
<linearGradient id="paint72_linear_2544_46" x1="305.359" y1="128.37" x2="139.76" y2="453.377" gradientUnits="userSpaceOnUse">
<stop stop-color="#B620E0"/>
<stop offset="1" stop-color="#0047FF"/>
</linearGradient>
<linearGradient id="paint73_linear_2544_46" x1="303.09" y1="127.226" x2="143.879" y2="453.656" gradientUnits="userSpaceOnUse">
<stop stop-color="#B620E0"/>
<stop offset="1" stop-color="#0047FF"/>
</linearGradient>
<linearGradient id="paint74_linear_2544_46" x1="300.78" y1="126.148" x2="147.957" y2="453.877" gradientUnits="userSpaceOnUse">
<stop stop-color="#B620E0"/>
<stop offset="1" stop-color="#0047FF"/>
</linearGradient>
<linearGradient id="paint75_linear_2544_46" x1="298.432" y1="125.137" x2="151.994" y2="454.042" gradientUnits="userSpaceOnUse">
<stop stop-color="#B620E0"/>
<stop offset="1" stop-color="#0047FF"/>
</linearGradient>
<linearGradient id="paint76_linear_2544_46" x1="296.048" y1="124.193" x2="155.989" y2="454.152" gradientUnits="userSpaceOnUse">
<stop stop-color="#B620E0"/>
<stop offset="1" stop-color="#0047FF"/>
</linearGradient>
<linearGradient id="paint77_linear_2544_46" x1="293.629" y1="123.318" x2="159.941" y2="454.208" gradientUnits="userSpaceOnUse">
<stop stop-color="#B620E0"/>
<stop offset="1" stop-color="#0047FF"/>
</linearGradient>
<linearGradient id="paint78_linear_2544_46" x1="291.177" y1="122.512" x2="163.849" y2="454.212" gradientUnits="userSpaceOnUse">
<stop stop-color="#B620E0"/>
<stop offset="1" stop-color="#0047FF"/>
</linearGradient>
<linearGradient id="paint79_linear_2544_46" x1="288.693" y1="121.776" x2="167.713" y2="454.165" gradientUnits="userSpaceOnUse">
<stop stop-color="#B620E0"/>
<stop offset="1" stop-color="#0047FF"/>
</linearGradient>
<linearGradient id="paint80_linear_2544_46" x1="286.177" y1="121.109" x2="171.53" y2="454.068" gradientUnits="userSpaceOnUse">
<stop stop-color="#B620E0"/>
<stop offset="1" stop-color="#0047FF"/>
</linearGradient>
<linearGradient id="paint81_linear_2544_46" x1="283.632" y1="120.514" x2="175.301" y2="453.923" gradientUnits="userSpaceOnUse">
<stop stop-color="#B620E0"/>
<stop offset="1" stop-color="#0047FF"/>
</linearGradient>
<linearGradient id="paint82_linear_2544_46" x1="281.061" y1="119.991" x2="179.026" y2="453.731" gradientUnits="userSpaceOnUse">
<stop stop-color="#B620E0"/>
<stop offset="1" stop-color="#0047FF"/>
</linearGradient>
<linearGradient id="paint83_linear_2544_46" x1="278.462" y1="119.539" x2="182.702" y2="453.493" gradientUnits="userSpaceOnUse">
<stop stop-color="#B620E0"/>
<stop offset="1" stop-color="#0047FF"/>
</linearGradient>
<linearGradient id="paint84_linear_2544_46" x1="275.838" y1="119.16" x2="186.329" y2="453.21" gradientUnits="userSpaceOnUse">
<stop stop-color="#B620E0"/>
<stop offset="1" stop-color="#0047FF"/>
</linearGradient>
<linearGradient id="paint85_linear_2544_46" x1="273.191" y1="118.854" x2="189.908" y2="452.885" gradientUnits="userSpaceOnUse">
<stop stop-color="#B620E0"/>
<stop offset="1" stop-color="#0047FF"/>
</linearGradient>
<linearGradient id="paint86_linear_2544_46" x1="270.522" y1="118.622" x2="193.436" y2="452.519" gradientUnits="userSpaceOnUse">
<stop stop-color="#B620E0"/>
<stop offset="1" stop-color="#0047FF"/>
</linearGradient>
<linearGradient id="paint87_linear_2544_46" x1="267.834" y1="118.464" x2="196.915" y2="452.111" gradientUnits="userSpaceOnUse">
<stop stop-color="#B620E0"/>
<stop offset="1" stop-color="#0047FF"/>
</linearGradient>
<linearGradient id="paint88_linear_2544_46" x1="265.127" y1="118.379" x2="200.342" y2="451.665" gradientUnits="userSpaceOnUse">
<stop stop-color="#B620E0"/>
<stop offset="1" stop-color="#0047FF"/>
</linearGradient>
<linearGradient id="paint89_linear_2544_46" x1="262.402" y1="118.37" x2="203.718" y2="451.183" gradientUnits="userSpaceOnUse">
<stop stop-color="#B620E0"/>
<stop offset="1" stop-color="#0047FF"/>
</linearGradient>
<linearGradient id="paint90_linear_2544_46" x1="259.661" y1="118.436" x2="207.041" y2="450.663" gradientUnits="userSpaceOnUse">
<stop stop-color="#B620E0"/>
<stop offset="1" stop-color="#0047FF"/>
</linearGradient>
<linearGradient id="paint91_linear_2544_46" x1="256.907" y1="118.576" x2="210.313" y2="450.11" gradientUnits="userSpaceOnUse">
<stop stop-color="#B620E0"/>
<stop offset="1" stop-color="#0047FF"/>
</linearGradient>
<linearGradient id="paint92_linear_2544_46" x1="254.139" y1="118.793" x2="213.53" y2="449.523" gradientUnits="userSpaceOnUse">
<stop stop-color="#B620E0"/>
<stop offset="1" stop-color="#0047FF"/>
</linearGradient>
<linearGradient id="paint93_linear_2544_46" x1="251.362" y1="119.085" x2="216.696" y2="448.905" gradientUnits="userSpaceOnUse">
<stop stop-color="#B620E0"/>
<stop offset="1" stop-color="#0047FF"/>
</linearGradient>
<linearGradient id="paint94_linear_2544_46" x1="248.574" y1="119.453" x2="219.807" y2="448.257" gradientUnits="userSpaceOnUse">
<stop stop-color="#B620E0"/>
<stop offset="1" stop-color="#0047FF"/>
</linearGradient>
<linearGradient id="paint95_linear_2544_46" x1="245.779" y1="119.898" x2="222.865" y2="447.58" gradientUnits="userSpaceOnUse">
<stop stop-color="#B620E0"/>
<stop offset="1" stop-color="#0047FF"/>
</linearGradient>
<linearGradient id="paint96_linear_2544_46" x1="242.977" y1="120.419" x2="225.868" y2="446.875" gradientUnits="userSpaceOnUse">
<stop stop-color="#B620E0"/>
<stop offset="1" stop-color="#0047FF"/>
</linearGradient>
<linearGradient id="paint97_linear_2544_46" x1="240.17" y1="121.016" x2="228.816" y2="446.144" gradientUnits="userSpaceOnUse">
<stop stop-color="#B620E0"/>
<stop offset="1" stop-color="#0047FF"/>
</linearGradient>
<linearGradient id="paint98_linear_2544_46" x1="237.36" y1="121.69" x2="231.71" y2="445.39" gradientUnits="userSpaceOnUse">
<stop stop-color="#B620E0"/>
<stop offset="1" stop-color="#0047FF"/>
</linearGradient>
<linearGradient id="paint99_linear_2544_46" x1="234.55" y1="122.441" x2="234.55" y2="444.612" gradientUnits="userSpaceOnUse">
<stop stop-color="#B620E0"/>
<stop offset="1" stop-color="#0047FF"/>
</linearGradient>
</defs>
</svg>
