<svg width="1440" height="1784" viewBox="0 0 1440 1784" fill="none" xmlns="http://www.w3.org/2000/svg">
<path opacity="0.01" fill-rule="evenodd" clip-rule="evenodd" d="M474.666 775.461C517.808 661.343 501.61 489.914 615.834 447.441C726.626 406.243 811.316 563.227 919.212 610.16C1019.47 653.769 1147.56 632.237 1222.83 711.471C1303.2 796.069 1336.58 921.156 1325.53 1037.86C1314.69 1152.29 1250.53 1257.72 1163.91 1333.6C1085.63 1402.18 977.069 1407.45 876.084 1431.58C778.881 1454.82 673.861 1519.37 586.543 1471.6C499.066 1423.73 498.889 1299.94 464.27 1206.26C438.197 1135.71 407.813 1068.26 409.633 992.87C411.5 915.474 447.237 848.014 474.666 775.461Z" stroke="url(#paint0_linear_2378_321)" stroke-opacity="0.3" stroke-width="3"/>
<path opacity="0.02" fill-rule="evenodd" clip-rule="evenodd" d="M468.424 775.762C509.429 661.292 490.301 490.74 603.389 446.43C713.08 403.451 800.21 558.418 908.549 603.313C1009.22 645.029 1136.49 621.346 1212.88 698.998C1294.44 781.905 1329.89 905.977 1320.91 1022.47C1312.1 1136.69 1250 1242.86 1165 1319.99C1088.18 1389.69 980.092 1396.82 879.878 1422.63C783.417 1447.47 679.885 1513.62 592.038 1467.53C504.031 1421.36 501.698 1298 465.567 1205.25C438.356 1135.39 406.903 1068.7 407.403 993.544C407.916 916.385 442.353 848.539 468.424 775.762Z" stroke="url(#paint1_linear_2378_321)" stroke-opacity="0.3" stroke-width="3"/>
<path opacity="0.03" fill-rule="evenodd" clip-rule="evenodd" d="M462.243 776.182C501.112 661.399 479.08 491.775 591.003 445.655C699.563 400.921 789.089 553.833 897.834 596.689C998.878 636.51 1125.29 610.7 1202.77 686.753C1285.5 767.954 1322.98 890.977 1316.06 1007.22C1309.27 1121.19 1249.24 1228.08 1165.88 1306.41C1090.54 1377.2 982.948 1386.19 883.532 1413.64C787.839 1440.07 685.82 1507.8 597.476 1463.39C508.97 1418.9 504.497 1296.02 466.877 1204.22C438.543 1135.08 406.038 1069.17 405.227 994.264C404.395 917.366 437.531 849.158 462.243 776.182Z" stroke="url(#paint2_linear_2378_321)" stroke-opacity="0.3" stroke-width="3"/>
<path opacity="0.04" fill-rule="evenodd" clip-rule="evenodd" d="M456.131 776.722C492.866 661.666 467.956 493.019 578.686 445.116C686.089 398.653 777.966 549.474 887.077 590.291C988.462 628.218 1113.99 600.301 1192.52 674.742C1276.37 754.222 1315.87 876.163 1310.99 992.12C1306.21 1105.81 1248.25 1213.36 1166.54 1292.87C1092.7 1364.72 985.645 1375.55 887.054 1404.63C792.155 1432.63 691.671 1501.89 602.862 1459.17C513.89 1416.38 507.292 1294 468.204 1203.18C438.765 1134.77 405.226 1069.66 403.113 995.031C400.944 918.416 432.777 849.872 456.131 776.722Z" stroke="url(#paint3_linear_2378_321)" stroke-opacity="0.3" stroke-width="3"/>
<path opacity="0.05" fill-rule="evenodd" clip-rule="evenodd" d="M450.082 777.378C484.684 662.087 456.924 494.466 566.432 444.808C672.65 396.642 766.832 545.337 876.273 584.115C977.964 620.147 1102.56 590.149 1182.12 662.964C1267.06 740.708 1308.54 861.534 1305.7 977.168C1302.92 1090.54 1247.04 1198.72 1167 1279.37C1094.67 1352.25 988.172 1364.9 890.433 1395.6C796.353 1425.15 697.427 1495.91 608.185 1454.88C518.779 1413.79 510.073 1291.95 469.54 1202.12C439.012 1134.47 404.456 1070.17 401.051 995.84C397.555 919.532 428.083 850.676 450.082 777.378Z" stroke="url(#paint4_linear_2378_321)" stroke-opacity="0.3" stroke-width="3"/>
<path opacity="0.06" fill-rule="evenodd" clip-rule="evenodd" d="M444.107 778.15C476.58 662.665 445.999 496.116 554.258 444.731C659.263 394.89 755.705 541.425 865.437 578.165C967.399 612.304 1091.04 580.247 1171.58 651.423C1257.58 727.417 1301.02 847.097 1300.21 962.372C1299.41 1075.4 1245.6 1184.17 1167.25 1265.92C1096.44 1339.8 990.542 1354.25 893.68 1386.54C800.445 1417.62 703.098 1489.85 613.455 1450.52C523.647 1411.12 512.85 1289.87 470.894 1201.06C439.296 1134.18 403.741 1070.7 399.053 996.693C394.241 920.716 423.462 851.571 444.107 778.15Z" stroke="url(#paint5_linear_2378_321)" stroke-opacity="0.3" stroke-width="3"/>
<path opacity="0.07" fill-rule="evenodd" clip-rule="evenodd" d="M438.211 779.036C468.558 663.396 435.184 497.968 542.167 444.884C645.935 393.395 744.589 537.736 854.574 572.44C956.772 604.687 1079.42 570.595 1160.92 640.121C1247.94 714.352 1293.31 832.854 1294.5 947.735C1295.68 1060.37 1243.96 1169.69 1167.3 1252.52C1098.03 1327.37 992.755 1343.61 896.797 1377.46C804.431 1410.05 708.685 1483.72 618.672 1446.08C528.494 1408.39 515.623 1287.75 472.269 1199.99C439.617 1133.89 403.081 1071.25 397.122 997.589C391.003 921.964 418.917 852.557 438.211 779.036Z" stroke="url(#paint6_linear_2378_321)" stroke-opacity="0.3" stroke-width="3"/>
<path opacity="0.08" fill-rule="evenodd" clip-rule="evenodd" d="M432.39 780.034C460.616 664.277 424.478 500.016 530.159 445.263C632.664 392.154 733.484 534.269 843.686 566.939C946.084 597.296 1067.7 561.195 1150.13 629.058C1238.13 701.514 1285.4 818.806 1288.6 933.259C1291.73 1045.48 1242.09 1155.31 1167.16 1239.17C1099.43 1314.95 994.809 1332.97 899.778 1368.37C808.307 1402.45 714.181 1477.51 623.831 1441.58C533.315 1405.58 518.388 1285.6 473.658 1198.9C439.97 1133.6 402.473 1071.82 395.252 998.525C387.837 923.274 414.444 853.629 432.39 780.034Z" stroke="url(#paint7_linear_2378_321)" stroke-opacity="0.3" stroke-width="3"/>
<path opacity="0.09" fill-rule="evenodd" clip-rule="evenodd" d="M426.636 781.142C452.746 665.307 413.876 502.26 518.229 445.865C619.447 391.165 722.384 531.022 832.764 561.662C935.329 590.132 1055.89 552.046 1139.2 618.236C1228.15 688.905 1277.31 804.959 1282.48 918.948C1287.56 1030.71 1240.01 1141.01 1166.8 1225.87C1100.63 1302.57 996.693 1322.33 902.615 1359.26C812.061 1394.81 719.576 1471.24 628.92 1437C538.097 1402.71 521.134 1283.41 475.053 1197.8C440.347 1133.32 401.907 1072.41 393.434 999.5C384.736 924.646 410.036 854.786 426.636 781.142Z" stroke="url(#paint8_linear_2378_321)" stroke-opacity="0.3" stroke-width="3"/>
<path opacity="0.1" fill-rule="evenodd" clip-rule="evenodd" d="M420.974 782.36C444.974 666.485 403.403 504.696 506.403 446.69C606.309 390.428 711.316 527.997 821.838 556.609C924.534 583.195 1044 543.152 1128.17 607.657C1218.04 676.529 1269.04 791.314 1276.18 904.806C1283.18 1016.08 1237.72 1126.81 1166.25 1212.64C1101.65 1290.21 998.431 1311.71 905.331 1350.14C815.717 1387.14 724.891 1464.9 633.961 1432.36C542.864 1399.77 523.883 1281.19 476.475 1196.68C440.769 1133.04 401.405 1073.02 391.693 1000.51C381.722 926.078 405.715 856.029 420.974 782.36Z" stroke="url(#paint9_linear_2378_321)" stroke-opacity="0.3" stroke-width="3"/>
<path opacity="0.11" fill-rule="evenodd" clip-rule="evenodd" d="M415.39 783.684C437.288 667.809 393.047 507.322 494.67 447.736C593.24 389.939 700.269 525.19 810.895 551.78C913.688 576.487 1032.04 534.512 1117.03 597.324C1207.77 664.387 1260.59 777.874 1269.68 890.835C1278.6 1001.59 1235.23 1112.71 1165.5 1199.48C1102.49 1277.89 1000.01 1301.11 907.909 1341.02C819.258 1379.43 730.111 1458.5 638.937 1427.66C547.597 1396.76 526.619 1278.94 477.909 1195.56C441.222 1132.76 400.953 1073.64 390.013 1001.56C378.781 927.569 401.469 857.355 415.39 783.684Z" stroke="url(#paint10_linear_2378_321)" stroke-opacity="0.3" stroke-width="3"/>
<path opacity="0.12" fill-rule="evenodd" clip-rule="evenodd" d="M409.888 785.113C429.689 669.275 382.812 510.134 483.034 448.997C580.246 389.696 689.247 522.601 799.941 547.173C902.797 570.006 1019.99 526.126 1105.77 587.235C1197.36 652.481 1251.96 764.641 1262.99 877.037C1273.81 987.237 1232.53 1098.72 1164.56 1186.38C1103.14 1265.61 1001.43 1290.52 910.351 1331.88C822.687 1371.7 735.235 1452.03 643.85 1422.88C552.298 1393.68 529.344 1276.65 479.355 1194.42C441.706 1132.48 400.551 1074.27 388.395 1002.65C375.915 929.116 397.299 858.76 409.888 785.113Z" stroke="url(#paint11_linear_2378_321)" stroke-opacity="0.3" stroke-width="3"/>
<path opacity="0.13" fill-rule="evenodd" clip-rule="evenodd" d="M404.475 786.645C422.188 670.881 372.708 513.13 471.507 450.473C567.337 389.698 678.262 520.229 788.987 542.789C891.872 563.752 1007.88 517.995 1094.42 577.394C1186.82 640.812 1243.18 751.619 1256.12 863.417C1268.82 973.032 1229.63 1084.82 1163.43 1173.35C1103.61 1253.36 1002.69 1279.95 912.665 1322.75C826.008 1363.94 740.268 1445.5 648.704 1418.05C556.972 1390.54 532.061 1274.33 480.82 1193.26C442.227 1132.21 400.207 1074.92 386.847 1003.77C373.131 930.718 393.214 860.244 404.475 786.645Z" stroke="url(#paint12_linear_2378_321)" stroke-opacity="0.3" stroke-width="3"/>
<path opacity="0.14" fill-rule="evenodd" clip-rule="evenodd" d="M399.149 788.28C414.783 672.628 362.734 516.309 460.086 452.162C554.514 389.942 667.313 518.073 778.033 538.629C880.912 557.728 995.708 510.122 1082.97 567.801C1176.14 629.385 1234.22 738.811 1249.07 849.979C1263.63 958.975 1226.53 1071.04 1162.11 1160.4C1103.89 1241.16 1003.81 1269.4 914.847 1313.61C829.219 1356.16 745.207 1438.91 653.494 1413.15C561.613 1387.34 534.769 1271.98 482.3 1192.1C442.783 1131.93 399.916 1075.59 385.365 1004.92C370.427 932.375 389.21 861.808 399.149 788.28Z" stroke="url(#paint13_linear_2378_321)" stroke-opacity="0.3" stroke-width="3"/>
<path opacity="0.15" fill-rule="evenodd" clip-rule="evenodd" d="M393.919 790.014C407.482 674.511 352.899 519.665 448.783 454.06C541.787 390.426 656.41 516.132 767.088 534.689C869.93 551.932 983.482 502.504 1071.43 558.458C1165.34 618.199 1225.12 726.218 1241.85 836.723C1258.25 945.07 1223.23 1057.37 1160.61 1147.53C1104.01 1229 1004.77 1258.88 916.903 1304.47C832.325 1348.36 750.057 1432.27 658.226 1408.19C566.226 1384.07 537.471 1269.6 483.8 1190.92C443.378 1131.66 399.685 1076.26 383.956 1006.11C367.809 934.083 385.295 863.447 393.919 790.014Z" stroke="url(#paint14_linear_2378_321)" stroke-opacity="0.3" stroke-width="3"/>
<path opacity="0.16" fill-rule="evenodd" clip-rule="evenodd" d="M388.781 791.846C400.284 676.53 343.202 523.197 437.598 456.166C529.156 391.149 645.554 514.404 756.155 530.971C858.924 546.364 971.205 495.145 1059.81 549.366C1154.42 607.258 1215.86 713.843 1234.46 823.655C1252.68 931.321 1219.75 1043.82 1158.92 1134.73C1103.94 1216.89 1005.59 1248.39 918.83 1295.34C835.322 1340.53 754.813 1425.57 662.895 1403.17C570.808 1380.74 540.163 1267.19 485.317 1189.72C444.01 1131.38 399.51 1076.95 382.617 1007.32C365.273 935.843 381.467 865.161 388.781 791.846Z" stroke="url(#paint15_linear_2378_321)" stroke-opacity="0.3" stroke-width="3"/>
<path opacity="0.17" fill-rule="evenodd" clip-rule="evenodd" d="M383.738 793.773C393.192 678.679 333.648 526.9 426.533 458.475C516.628 392.106 634.749 512.887 745.237 527.471C847.901 541.023 958.883 488.04 1048.11 540.524C1143.38 596.56 1206.46 701.687 1226.9 810.773C1246.93 917.728 1216.08 1030.39 1157.05 1122.02C1103.7 1204.84 1006.25 1237.93 920.63 1286.21C838.211 1332.69 759.475 1418.81 667.5 1398.1C575.357 1377.34 542.847 1264.74 486.851 1188.51C444.678 1131.11 399.392 1077.64 381.348 1008.57C362.823 937.65 377.727 866.946 383.738 793.773Z" stroke="url(#paint16_linear_2378_321)" stroke-opacity="0.3" stroke-width="3"/>
<path opacity="0.18" fill-rule="evenodd" clip-rule="evenodd" d="M378.788 795.792C386.204 680.958 324.234 530.771 415.591 460.984C504.202 393.294 623.995 511.579 734.335 524.19C836.861 535.908 946.516 481.193 1036.34 531.933C1132.23 586.107 1196.91 689.753 1219.17 798.082C1241 904.296 1212.22 1017.08 1155 1109.4C1103.29 1192.84 1006.77 1227.5 922.298 1277.1C840.989 1324.83 764.039 1412.01 672.039 1392.96C579.87 1373.89 545.517 1262.26 488.398 1187.29C445.379 1130.83 399.327 1078.35 380.146 1009.84C360.454 939.504 374.073 868.801 378.788 795.792Z" stroke="url(#paint17_linear_2378_321)" stroke-opacity="0.3" stroke-width="3"/>
<path opacity="0.19" fill-rule="evenodd" clip-rule="evenodd" d="M373.94 797.904C379.329 683.365 314.971 534.809 404.779 463.692C491.888 394.713 613.303 510.48 723.459 521.128C825.815 531.021 934.118 474.603 1024.49 523.595C1120.98 575.904 1187.23 678.043 1211.3 785.586C1234.89 891.028 1208.18 1003.9 1152.78 1096.87C1102.71 1180.9 1007.14 1217.11 923.844 1267.99C843.663 1316.96 768.511 1405.15 676.515 1387.78C584.351 1370.37 548.181 1259.76 489.965 1186.05C446.12 1130.54 399.322 1079.06 379.019 1011.14C358.175 941.404 370.513 870.725 373.94 797.904Z" stroke="url(#paint18_linear_2378_321)" stroke-opacity="0.3" stroke-width="3"/>
<path opacity="0.2" fill-rule="evenodd" clip-rule="evenodd" d="M369.19 800.105C372.566 685.896 305.857 539.009 394.098 466.596C479.687 396.358 602.672 509.587 712.61 518.281C814.764 526.36 921.687 468.269 1012.58 515.51C1109.63 565.948 1177.41 666.558 1203.26 773.285C1228.61 877.926 1203.96 990.84 1150.38 1084.43C1101.95 1169.02 1007.37 1206.75 925.262 1258.89C846.227 1309.08 772.886 1398.25 680.925 1382.54C588.795 1366.8 550.832 1257.22 491.547 1184.8C446.896 1130.26 399.374 1079.78 377.962 1012.46C355.98 943.347 367.043 872.716 369.19 800.105Z" stroke="url(#paint19_linear_2378_321)" stroke-opacity="0.3" stroke-width="3"/>
<path opacity="0.21" fill-rule="evenodd" clip-rule="evenodd" d="M364.541 802.393C365.916 688.55 296.897 543.368 383.552 469.69C467.604 398.227 592.108 508.898 701.793 515.65C803.712 521.924 909.231 462.191 1000.62 507.677C1098.19 556.242 1167.47 655.3 1195.08 761.181C1222.15 864.993 1199.56 977.916 1147.81 1072.09C1101.03 1157.2 1007.46 1196.44 926.555 1249.82C848.685 1301.19 777.165 1391.3 685.269 1377.24C593.204 1363.16 553.473 1254.65 493.145 1183.53C447.709 1129.97 399.482 1080.5 376.978 1013.81C353.874 945.332 363.666 874.771 364.541 802.393Z" stroke="url(#paint20_linear_2378_321)" stroke-opacity="0.3" stroke-width="3"/>
<path opacity="0.22" fill-rule="evenodd" clip-rule="evenodd" d="M360.002 804.765C359.391 691.322 288.098 547.881 373.152 472.973C455.65 400.316 581.621 508.411 691.02 513.232C792.671 517.712 896.761 456.368 988.601 500.097C1086.66 546.785 1157.41 644.27 1186.76 749.277C1215.54 852.231 1195 965.125 1145.07 1059.85C1099.95 1145.46 1007.4 1186.17 927.732 1240.75C851.043 1293.29 781.355 1384.3 689.553 1371.9C597.583 1359.47 556.109 1252.05 494.766 1182.25C448.565 1129.67 399.656 1081.23 376.073 1015.17C351.862 947.356 360.391 876.888 360.002 804.765Z" stroke="url(#paint21_linear_2378_321)" stroke-opacity="0.3" stroke-width="3"/>
<path opacity="0.23" fill-rule="evenodd" clip-rule="evenodd" d="M355.565 807.22C352.981 694.213 279.456 552.548 362.891 476.442C443.819 402.623 571.206 508.125 680.283 511.028C781.637 513.725 884.274 450.802 976.534 492.771C1075.04 537.581 1147.23 633.472 1178.3 737.575C1208.77 839.644 1190.26 952.472 1142.17 1047.71C1098.71 1133.78 1007.21 1175.95 928.782 1231.71C853.291 1285.38 785.446 1377.27 693.768 1366.51C601.921 1355.72 558.731 1249.43 496.4 1180.95C449.455 1129.37 399.883 1081.96 375.238 1016.56C349.937 949.419 357.207 879.067 355.565 807.22Z" stroke="url(#paint22_linear_2378_321)" stroke-opacity="0.3" stroke-width="3"/>
<path opacity="0.24" fill-rule="evenodd" clip-rule="evenodd" d="M351.237 809.756C346.696 697.218 270.978 557.362 352.779 480.093C432.122 405.146 560.872 508.037 669.595 509.034C770.62 509.96 871.781 445.49 964.429 485.699C1063.35 528.629 1136.94 622.905 1169.71 726.077C1201.84 827.233 1185.36 939.959 1139.11 1035.67C1097.31 1122.18 1006.88 1165.78 929.715 1222.69C855.439 1277.47 789.444 1370.19 697.919 1361.06C606.226 1351.92 561.346 1246.77 498.055 1179.63C450.386 1129.07 400.173 1082.69 374.481 1017.97C348.105 951.518 354.124 881.303 351.237 809.756Z" stroke="url(#paint23_linear_2378_321)" stroke-opacity="0.3" stroke-width="3"/>
<path opacity="0.25" fill-rule="evenodd" clip-rule="evenodd" d="M347.022 812.368C340.54 700.334 262.67 562.321 342.821 483.922C420.564 407.878 550.626 508.145 658.961 507.249C759.625 506.416 859.288 440.432 952.291 478.879C1051.59 519.928 1126.55 612.57 1160.99 714.784C1194.76 815 1180.31 927.587 1135.89 1023.74C1095.75 1110.65 1006.42 1155.66 930.533 1213.7C857.486 1269.56 793.351 1363.08 702.008 1355.57C610.497 1348.05 563.955 1244.09 499.73 1178.3C451.359 1128.75 400.526 1083.43 373.804 1019.39C346.369 953.65 351.144 883.596 347.022 812.368Z" stroke="url(#paint24_linear_2378_321)" stroke-opacity="0.3" stroke-width="3"/>
<path opacity="0.26" fill-rule="evenodd" clip-rule="evenodd" d="M342.912 815.056C334.504 703.558 254.523 567.421 333.011 487.926C409.14 410.819 540.46 508.447 648.375 505.671C748.649 503.092 846.79 435.626 940.115 472.312C1039.76 511.48 1116.05 602.469 1152.14 703.697C1187.53 802.948 1175.09 915.36 1132.51 1011.93C1094.03 1099.2 1005.82 1145.59 931.227 1204.73C859.425 1261.65 797.157 1355.93 706.024 1350.04C614.725 1344.14 566.547 1241.37 501.418 1176.95C452.365 1128.43 400.933 1084.16 373.196 1020.83C344.72 955.815 348.257 885.943 342.912 815.056Z" stroke="url(#paint25_linear_2378_321)" stroke-opacity="0.3" stroke-width="3"/>
<path opacity="0.27" fill-rule="evenodd" clip-rule="evenodd" d="M338.915 817.818C328.598 706.89 246.548 572.659 323.358 492.102C397.86 413.966 530.387 508.94 637.849 504.3C737.702 499.989 834.301 431.073 927.915 465.998C1027.86 503.286 1105.45 592.604 1143.17 692.82C1180.15 791.079 1169.72 903.28 1128.98 1000.22C1092.16 1087.83 1005.09 1135.58 931.805 1195.79C861.263 1253.74 800.869 1348.74 709.975 1344.46C618.915 1340.16 569.13 1238.63 503.124 1175.58C453.411 1128.1 401.401 1084.89 372.666 1022.28C343.165 958.01 345.474 888.342 338.915 817.818Z" stroke="url(#paint26_linear_2378_321)" stroke-opacity="0.3" stroke-width="3"/>
<path opacity="0.28" fill-rule="evenodd" clip-rule="evenodd" d="M335.038 820.651C322.83 710.325 238.753 578.032 313.872 496.447C386.734 417.314 520.415 509.623 627.392 503.134C726.795 497.103 821.832 426.772 915.701 459.937C1015.92 495.346 1094.77 582.975 1134.09 682.154C1172.64 779.396 1164.2 891.35 1125.31 988.627C1090.15 1076.54 1004.24 1125.62 932.275 1186.88C863.007 1245.83 804.493 1341.52 713.867 1338.83C623.075 1336.14 571.71 1235.85 504.855 1174.2C454.503 1127.76 401.937 1085.62 372.221 1023.75C341.712 960.235 342.8 890.792 335.038 820.651Z" stroke="url(#paint27_linear_2378_321)" stroke-opacity="0.3" stroke-width="3"/>
<path opacity="0.29" fill-rule="evenodd" clip-rule="evenodd" d="M331.303 823.556C317.221 713.864 231.159 583.538 304.576 500.96C375.786 420.864 510.568 510.497 617.029 502.173C715.951 494.438 809.406 422.725 903.497 454.131C1003.96 487.664 1084.03 573.587 1124.93 671.703C1165.03 767.903 1158.57 879.576 1121.51 977.156C1088.02 1065.34 1003.28 1115.73 932.658 1178C864.677 1237.94 808.049 1334.28 717.718 1333.17C627.222 1332.07 574.306 1233.06 506.63 1172.8C455.66 1127.41 402.559 1086.35 371.879 1025.23C340.38 962.49 340.255 893.294 331.303 823.556Z" stroke="url(#paint28_linear_2378_321)" stroke-opacity="0.3" stroke-width="3"/>
<path opacity="0.3" fill-rule="evenodd" clip-rule="evenodd" d="M327.655 826.522C311.718 717.496 223.715 589.166 295.416 505.63C364.963 424.603 500.795 511.55 606.707 501.408C705.12 491.984 796.973 418.921 891.255 448.572C991.919 480.23 1073.19 564.432 1115.64 661.461C1157.26 756.594 1152.76 867.95 1117.54 965.8C1085.71 1054.23 1002.17 1105.9 932.899 1169.15C866.219 1230.04 811.482 1327 721.473 1327.47C631.301 1327.94 576.862 1230.23 508.395 1171.38C456.828 1127.05 403.214 1087.07 371.586 1026.72C339.115 964.765 337.787 895.837 327.655 826.522Z" stroke="url(#paint29_linear_2378_321)" stroke-opacity="0.3" stroke-width="3"/>
<path opacity="0.31" fill-rule="evenodd" clip-rule="evenodd" d="M324.125 829.552C306.353 721.223 216.451 594.918 286.427 510.457C354.3 428.534 491.128 512.785 596.462 500.841C694.337 489.743 784.569 415.366 879.009 443.264C979.841 473.05 1062.26 555.515 1106.24 651.432C1149.36 745.476 1146.82 856.481 1113.44 954.566C1083.27 1043.21 1000.94 1096.13 933.031 1160.35C867.663 1222.16 814.821 1319.69 725.163 1321.72C635.341 1323.76 579.409 1227.37 510.178 1169.94C458.036 1126.68 403.93 1087.78 371.373 1028.21C337.948 967.063 335.425 898.424 324.125 829.552Z" stroke="url(#paint30_linear_2378_321)" stroke-opacity="0.3" stroke-width="3"/>
<path opacity="0.32" fill-rule="evenodd" clip-rule="evenodd" d="M320.712 832.643C301.122 725.042 209.366 600.787 277.605 515.437C343.794 432.651 481.567 514.199 586.291 500.47C683.6 487.714 772.195 412.057 866.759 438.206C967.725 466.124 1051.27 546.838 1096.75 641.62C1141.34 734.55 1140.74 845.17 1109.19 943.456C1080.67 1032.28 999.585 1086.43 933.05 1151.58C869.007 1214.28 818.063 1312.36 728.782 1315.94C639.338 1319.53 581.943 1224.49 511.976 1168.48C459.281 1126.29 404.704 1088.48 371.235 1029.72C336.873 969.382 333.166 901.052 320.712 832.643Z" stroke="url(#paint31_linear_2378_321)" stroke-opacity="0.3" stroke-width="3"/>
<path opacity="0.33" fill-rule="evenodd" clip-rule="evenodd" d="M317.422 835.791C296.035 728.949 202.469 606.771 268.962 520.566C333.458 436.952 472.122 515.788 576.207 500.293C672.921 485.895 759.861 408.991 854.519 433.395C955.584 459.45 1040.21 538.399 1087.16 632.022C1133.2 723.817 1134.53 834.018 1104.81 932.47C1077.95 1021.45 998.112 1076.79 932.965 1142.84C870.258 1206.42 821.214 1305 732.338 1310.12C643.298 1315.25 584.47 1221.57 513.797 1167C460.569 1125.89 405.543 1089.18 371.18 1031.22C335.9 971.719 331.019 903.719 317.422 835.791Z" stroke="url(#paint32_linear_2378_321)" stroke-opacity="0.3" stroke-width="3"/>
<path opacity="0.34" fill-rule="evenodd" clip-rule="evenodd" d="M314.247 838.995C291.084 732.941 195.752 612.865 260.491 525.84C323.285 441.431 462.787 517.549 566.203 500.306C662.296 484.283 747.564 406.168 842.283 428.831C943.413 453.028 1029.09 530.198 1077.49 622.641C1124.94 713.277 1128.18 823.026 1100.29 921.612C1075.08 1010.71 996.516 1067.22 932.768 1134.15C871.408 1198.57 824.267 1297.62 735.821 1304.26C647.212 1310.92 586.98 1218.63 515.629 1165.5C461.891 1125.48 406.438 1089.86 371.198 1032.73C335.019 974.072 328.974 906.421 314.247 838.995Z" stroke="url(#paint33_linear_2378_321)" stroke-opacity="0.3" stroke-width="3"/>
<path opacity="0.35" fill-rule="evenodd" clip-rule="evenodd" d="M311.202 842.252C286.284 737.015 189.23 619.066 252.206 531.256C313.29 446.085 453.579 519.482 556.296 500.508C651.74 482.877 735.321 403.586 830.069 424.514C931.231 446.859 1017.92 522.238 1067.74 613.477C1116.59 702.935 1121.73 812.198 1095.65 910.883C1072.09 1000.07 994.812 1057.73 932.474 1125.5C872.47 1190.74 827.234 1290.22 739.244 1298.37C651.093 1306.55 589.487 1215.67 517.487 1163.98C463.26 1125.05 407.401 1090.54 371.303 1034.24C334.243 976.439 327.044 909.159 311.202 842.252Z" stroke="url(#paint34_linear_2378_321)" stroke-opacity="0.3" stroke-width="3"/>
<path opacity="0.36" fill-rule="evenodd" clip-rule="evenodd" d="M308.278 845.561C281.626 741.17 182.896 625.371 244.101 536.811C303.468 450.912 444.49 521.582 546.481 500.897C641.249 481.677 723.128 401.244 817.873 420.443C919.032 440.942 1006.7 514.518 1057.91 604.533C1108.13 692.791 1115.14 801.536 1090.89 900.286C1068.97 989.531 992.992 1048.31 932.073 1116.9C873.436 1182.92 830.105 1282.8 742.597 1292.45C654.929 1302.12 591.981 1212.67 519.361 1162.44C464.666 1124.61 408.423 1091.2 371.485 1035.75C333.564 978.821 325.222 911.929 308.278 845.561Z" stroke="url(#paint35_linear_2378_321)" stroke-opacity="0.3" stroke-width="3"/>
<path opacity="0.37" fill-rule="evenodd" clip-rule="evenodd" d="M305.483 848.916C277.118 745.399 176.758 631.773 236.186 542.498C293.828 455.906 435.533 523.846 536.767 501.469C630.834 480.678 710.996 399.138 805.708 416.614C906.831 435.274 995.434 507.036 1048.02 595.807C1099.57 682.843 1108.45 791.038 1086.01 889.821C1065.73 979.096 991.066 1038.96 931.577 1108.34C874.315 1175.13 832.889 1275.36 745.888 1286.5C658.729 1297.65 594.47 1209.65 521.257 1160.88C466.117 1124.14 409.511 1091.85 371.752 1037.26C332.988 981.211 323.516 914.728 305.483 848.916Z" stroke="url(#paint36_linear_2378_321)" stroke-opacity="0.3" stroke-width="3"/>
<path opacity="0.38" fill-rule="evenodd" clip-rule="evenodd" d="M302.808 852.316C272.754 749.702 170.809 638.27 228.453 548.315C284.365 461.063 426.699 526.271 527.15 502.223C620.489 479.878 698.921 397.267 793.568 413.028C894.622 429.856 984.128 499.794 1038.05 587.3C1090.92 673.096 1101.64 780.709 1081.01 879.491C1062.36 968.765 989.026 1029.69 930.975 1099.83C875.098 1167.35 835.576 1267.9 749.108 1280.51C662.482 1293.14 596.943 1206.6 523.167 1159.29C467.603 1123.66 410.656 1092.48 372.095 1038.76C332.507 983.61 321.915 917.555 302.808 852.316Z" stroke="url(#paint37_linear_2378_321)" stroke-opacity="0.3" stroke-width="3"/>
<path opacity="0.39" fill-rule="evenodd" clip-rule="evenodd" d="M300.262 855.759C268.542 754.075 165.057 644.857 220.912 554.257C275.088 466.379 418 528.854 517.641 503.155C610.226 479.277 686.915 395.63 781.466 409.683C882.418 424.687 972.79 492.792 1028.02 579.013C1082.18 663.55 1094.73 770.549 1075.89 869.298C1058.87 958.542 986.883 1020.5 930.279 1091.37C875.794 1159.59 838.174 1260.44 752.264 1274.5C666.195 1288.58 599.408 1203.52 525.098 1157.69C469.131 1123.16 411.864 1093.09 372.52 1040.26C332.128 986.016 320.429 920.407 300.262 855.759Z" stroke="url(#paint38_linear_2378_321)" stroke-opacity="0.3" stroke-width="3"/>
<path opacity="0.4" fill-rule="evenodd" clip-rule="evenodd" d="M297.848 859.242C264.484 758.515 159.506 651.531 213.566 560.321C266.002 471.851 409.44 531.592 508.243 504.264C600.05 478.87 674.984 394.224 769.409 406.577C870.225 419.766 961.427 486.028 1017.94 570.946C1073.35 654.204 1087.72 760.559 1070.67 859.242C1055.27 948.427 984.64 1011.39 929.49 1082.97C876.405 1151.86 840.686 1252.95 755.357 1268.45C669.871 1283.98 601.866 1200.42 527.051 1156.06C470.704 1122.65 413.139 1093.69 373.03 1041.75C331.853 988.427 319.06 923.282 297.848 859.242Z" stroke="url(#paint39_linear_2378_321)" stroke-opacity="0.3" stroke-width="3"/>
<path opacity="0.41" fill-rule="evenodd" clip-rule="evenodd" d="M295.556 862.763C260.573 763.018 154.148 658.287 206.41 566.501C257.101 477.474 401.013 534.482 498.952 505.545C589.956 478.657 663.124 393.046 757.392 403.708C858.04 415.092 950.035 479.504 1007.8 563.099C1064.44 645.061 1080.6 750.74 1065.34 849.326C1051.54 938.422 982.29 1002.36 928.601 1074.61C876.923 1144.15 843.103 1245.46 758.379 1262.38C673.499 1279.33 604.31 1197.29 529.018 1154.41C472.311 1122.11 414.469 1094.27 373.616 1043.23C331.674 990.839 317.798 926.177 295.556 862.763Z" stroke="url(#paint40_linear_2378_321)" stroke-opacity="0.3" stroke-width="3"/>
<path opacity="0.42" fill-rule="evenodd" clip-rule="evenodd" d="M293.396 866.316C256.816 767.58 148.992 665.12 199.451 572.794C248.395 483.242 392.729 537.52 489.778 506.996C579.955 478.633 651.346 392.094 745.426 401.074C845.875 410.662 938.626 473.216 997.62 555.471C1055.46 636.12 1073.39 741.094 1059.9 839.549C1047.71 928.528 979.844 993.418 927.623 1066.31C877.357 1136.47 845.432 1237.96 761.337 1256.29C677.087 1274.64 606.745 1194.13 531.005 1152.73C473.961 1121.55 415.864 1094.83 374.284 1044.71C331.597 993.251 316.652 929.09 293.396 866.316Z" stroke="url(#paint41_linear_2378_321)" stroke-opacity="0.3" stroke-width="3"/>
<path opacity="0.43" fill-rule="evenodd" clip-rule="evenodd" d="M291.369 869.904C253.218 772.201 144.04 672.028 192.695 579.197C239.887 489.155 384.593 540.704 480.726 508.616C570.053 478.799 639.656 391.367 733.519 398.675C833.737 406.478 927.207 467.167 987.397 548.065C1046.41 627.383 1066.1 731.623 1054.37 829.916C1043.77 918.748 977.304 984.557 926.557 1058.06C877.71 1128.81 847.676 1230.45 764.233 1250.17C680.637 1269.91 609.173 1190.95 533.014 1151.03C475.654 1120.97 417.323 1095.36 375.037 1046.17C331.625 995.663 315.624 932.02 291.369 869.904Z" stroke="url(#paint42_linear_2378_321)" stroke-opacity="0.3" stroke-width="3"/>
<path opacity="0.44" fill-rule="evenodd" clip-rule="evenodd" d="M289.467 873.518C249.769 776.874 139.285 679.004 186.132 585.702C231.572 495.203 376.598 544.028 471.791 510.398C560.244 479.149 628.05 390.859 721.667 396.506C821.621 402.535 915.775 461.353 977.131 540.877C1037.29 618.848 1058.71 722.325 1048.74 820.425C1039.73 909.081 974.664 975.78 925.397 1049.87C877.975 1121.18 849.826 1222.94 767.058 1244.02C684.138 1265.14 611.587 1187.74 535.036 1149.31C477.382 1120.36 418.838 1095.88 375.866 1047.62C331.748 998.069 314.705 934.962 289.467 873.518Z" stroke="url(#paint43_linear_2378_321)" stroke-opacity="0.3" stroke-width="3"/>
<path opacity="0.45" fill-rule="evenodd" clip-rule="evenodd" d="M287.692 877.158C246.474 781.596 134.73 686.045 179.768 592.307C223.454 501.385 368.748 547.49 462.977 512.34C550.533 479.68 616.534 390.57 709.875 394.565C809.535 398.832 904.335 455.774 966.828 533.909C1028.1 610.517 1051.23 713.201 1043.01 811.076C1035.57 899.53 971.93 967.09 924.147 1041.73C878.153 1113.58 851.886 1215.41 769.815 1237.85C687.593 1260.33 613.986 1184.51 537.074 1147.56C479.147 1119.73 420.411 1096.36 376.772 1049.05C331.969 1000.47 313.897 937.913 287.692 877.158Z" stroke="url(#paint44_linear_2378_321)" stroke-opacity="0.3" stroke-width="3"/>
<path opacity="0.46" fill-rule="evenodd" clip-rule="evenodd" d="M286.058 880.822C243.344 786.366 130.388 693.148 173.617 599.008C215.547 507.697 361.06 551.087 454.3 514.442C540.938 480.392 605.125 390.497 698.162 392.853C797.496 395.369 892.905 450.431 956.506 527.16C1018.86 602.391 1043.69 704.255 1037.2 801.874C1031.33 890.097 969.115 958.488 922.821 1033.66C878.26 1106.02 853.868 1207.89 772.516 1231.66C691.014 1255.48 616.385 1181.24 539.139 1145.79C480.961 1119.08 422.055 1096.83 377.768 1050.46C332.301 1002.86 313.214 940.874 286.058 880.822Z" stroke="url(#paint45_linear_2378_321)" stroke-opacity="0.3" stroke-width="3"/>
<path opacity="0.47" fill-rule="evenodd" clip-rule="evenodd" d="M284.551 884.506C240.368 791.179 126.246 700.306 167.665 605.8C207.84 514.133 353.521 554.815 445.749 516.698C531.446 481.28 593.814 390.636 686.517 391.365C785.494 392.142 881.476 445.32 946.155 520.63C1009.57 594.469 1036.06 695.484 1031.29 792.818C1026.98 880.782 966.208 949.975 921.407 1025.65C878.283 1098.48 855.759 1200.36 775.147 1225.45C694.388 1250.59 618.769 1177.95 541.218 1143.98C482.81 1118.4 423.754 1097.26 378.839 1051.86C332.728 1005.24 312.641 943.841 284.551 884.506Z" stroke="url(#paint46_linear_2378_321)" stroke-opacity="0.3" stroke-width="3"/>
<path opacity="0.48" fill-rule="evenodd" clip-rule="evenodd" d="M283.178 888.208C237.552 796.032 122.312 707.517 161.922 612.678C200.342 520.688 346.142 558.669 437.334 519.105C522.07 482.342 582.61 390.986 674.951 390.099C773.543 389.152 870.061 440.442 935.786 514.318C1000.23 586.751 1028.37 686.891 1025.31 783.908C1022.55 871.586 963.219 941.553 919.913 1017.69C878.229 1090.98 857.567 1192.83 777.716 1219.22C697.72 1245.66 621.145 1174.64 543.317 1142.16C484.7 1117.69 425.515 1097.67 379.994 1053.23C333.259 1007.61 312.186 946.81 283.178 888.208Z" stroke="url(#paint47_linear_2378_321)" stroke-opacity="0.3" stroke-width="3"/>
<path opacity="0.49" fill-rule="evenodd" clip-rule="evenodd" d="M281.937 891.925C234.895 800.923 118.585 714.776 156.386 619.639C193.051 527.36 338.92 562.648 429.055 521.661C512.808 483.576 571.516 391.542 663.467 389.053C761.642 386.395 858.66 435.795 925.402 508.224C990.841 579.238 1020.61 678.476 1019.25 775.146C1018.02 862.512 960.147 933.222 918.339 1009.8C878.098 1083.51 859.288 1185.3 780.221 1212.97C701.008 1240.7 623.51 1171.3 545.433 1140.3C486.629 1116.96 427.336 1098.05 381.227 1054.59C333.889 1009.96 311.846 949.781 281.937 891.925Z" stroke="url(#paint48_linear_2378_321)" stroke-opacity="0.3" stroke-width="3"/>
<path opacity="0.5" fill-rule="evenodd" clip-rule="evenodd" d="M280.825 895.654C232.392 805.846 115.059 722.079 151.054 626.677C185.967 534.142 331.854 566.748 420.911 524.362C503.661 484.977 560.531 392.303 652.065 388.224C749.794 383.87 847.275 431.378 915.003 502.346C981.409 571.928 1012.78 670.238 1013.1 766.533C1013.4 853.559 956.99 924.983 916.683 1001.97C877.886 1076.08 860.922 1177.78 782.656 1206.71C704.248 1235.69 625.859 1167.93 547.562 1138.42C488.592 1116.2 429.213 1098.4 382.536 1055.92C334.615 1012.3 311.616 952.751 280.825 895.654Z" stroke="url(#paint49_linear_2378_321)" stroke-opacity="0.3" stroke-width="3"/>
<path opacity="0.51" fill-rule="evenodd" clip-rule="evenodd" d="M279.853 899.393C230.059 810.8 111.75 729.422 145.941 633.789C179.104 541.031 324.961 570.963 412.917 527.204C494.645 486.544 549.673 393.265 640.761 387.611C738.015 381.575 835.923 427.19 904.608 496.686C971.951 564.824 1004.9 662.18 1006.9 758.07C1008.7 844.729 953.764 916.838 914.96 994.209C877.609 1068.68 862.48 1170.25 785.037 1200.43C707.453 1230.66 628.208 1164.54 549.718 1136.51C490.603 1115.41 431.157 1098.71 383.933 1057.22C335.451 1014.62 311.511 955.717 279.853 899.393Z" stroke="url(#paint50_linear_2378_321)" stroke-opacity="0.3" stroke-width="3"/>
<path opacity="0.52" fill-rule="evenodd" clip-rule="evenodd" d="M279.009 903.137C227.88 815.78 108.644 736.798 141.033 640.97C172.448 548.02 318.227 575.291 405.062 530.184C485.749 488.271 538.93 394.424 629.547 387.209C726.297 379.506 824.595 423.228 894.205 491.239C962.455 557.922 996.962 654.3 1000.61 749.755C1003.92 836.022 950.458 908.787 913.157 986.51C877.252 1061.32 863.95 1162.73 787.349 1194.13C710.608 1225.58 630.54 1161.12 551.885 1134.58C492.646 1114.59 433.154 1099 385.403 1058.5C336.38 1016.92 311.515 958.676 279.009 903.137Z" stroke="url(#paint51_linear_2378_321)" stroke-opacity="0.3" stroke-width="3"/>
<path opacity="0.53" fill-rule="evenodd" clip-rule="evenodd" d="M278.306 906.886C225.87 820.783 105.753 744.207 136.344 648.215C166.016 555.108 311.668 579.728 397.362 533.299C476.988 490.158 528.32 395.777 618.438 387.016C714.656 377.662 813.309 419.491 883.813 486.008C952.941 551.224 988.979 646.599 994.274 741.592C999.06 827.441 947.086 900.831 911.289 978.878C876.832 1054 865.346 1155.22 789.606 1187.82C713.727 1220.47 632.869 1157.67 554.077 1132.61C494.735 1113.74 435.217 1099.24 386.96 1059.74C337.416 1019.19 311.642 961.628 278.306 906.886Z" stroke="url(#paint52_linear_2378_321)" stroke-opacity="0.3" stroke-width="3"/>
<path opacity="0.54" fill-rule="evenodd" clip-rule="evenodd" d="M277.728 910.635C224.014 825.805 103.064 751.64 131.861 655.519C159.794 562.286 305.271 584.27 389.804 536.545C468.352 492.199 517.832 397.321 607.425 387.029C703.083 376.04 802.054 415.978 873.422 480.988C943.396 544.728 980.942 639.075 987.865 733.578C994.122 818.983 943.638 892.97 909.344 971.312C876.334 1046.72 866.653 1147.72 791.793 1181.49C716.795 1215.33 635.18 1154.2 556.279 1130.61C496.855 1112.85 437.331 1099.46 388.588 1060.96C338.545 1021.44 311.878 964.566 277.728 910.635Z" stroke="url(#paint53_linear_2378_321)" stroke-opacity="0.3" stroke-width="3"/>
<path opacity="0.55" fill-rule="evenodd" clip-rule="evenodd" d="M277.285 914.381C222.321 830.843 100.585 759.094 127.594 662.877C153.791 569.551 299.046 588.911 382.399 539.916C459.851 494.391 507.478 399.052 596.521 387.244C691.59 374.637 790.844 412.685 863.045 476.179C933.835 538.434 972.863 631.73 981.399 725.714C989.113 810.651 940.123 885.204 907.331 963.813C875.768 1039.48 867.881 1140.22 793.918 1175.15C719.82 1210.15 637.482 1150.7 558.499 1128.59C499.013 1111.93 439.504 1099.63 390.294 1062.15C339.773 1023.66 312.229 967.491 277.285 914.381Z" stroke="url(#paint54_linear_2378_321)" stroke-opacity="0.3" stroke-width="3"/>
<path opacity="0.56" fill-rule="evenodd" clip-rule="evenodd" d="M276.977 918.122C220.792 835.895 98.3177 766.568 123.543 670.287C148.011 576.9 292.996 593.651 375.151 543.413C451.489 496.732 497.263 400.968 585.729 387.661C680.183 373.453 779.684 409.612 852.686 471.582C924.262 532.342 964.748 624.565 974.88 718.002C984.036 802.446 936.545 877.536 905.256 956.384C875.138 1032.28 869.033 1132.73 795.985 1168.8C722.803 1204.95 639.777 1147.18 560.739 1126.53C501.211 1110.98 441.737 1099.77 392.082 1063.3C341.103 1025.85 312.698 970.4 276.977 918.122Z" stroke="url(#paint55_linear_2378_321)" stroke-opacity="0.3" stroke-width="3"/>
<path opacity="0.57" fill-rule="evenodd" clip-rule="evenodd" d="M276.802 921.857C219.425 840.956 96.2591 774.054 119.707 677.744C142.451 584.327 287.12 598.484 368.059 547.029C443.267 499.219 487.187 403.064 575.051 388.274C668.863 372.483 768.575 406.758 842.348 467.195C914.679 526.451 956.597 617.578 968.309 710.442C978.893 794.368 932.905 869.966 903.115 949.024C874.441 1025.12 870.106 1125.25 797.99 1162.44C725.742 1199.71 642.06 1143.63 562.995 1124.44C503.446 1110 444.026 1099.86 393.945 1064.41C342.53 1028.02 313.281 973.291 276.802 921.857Z" stroke="url(#paint56_linear_2378_321)" stroke-opacity="0.3" stroke-width="3"/>
<path opacity="0.58" fill-rule="evenodd" clip-rule="evenodd" d="M276.762 925.581C218.221 846.023 94.4115 781.55 116.089 685.242C137.115 591.827 281.422 603.406 361.128 550.762C435.19 501.847 477.255 405.338 564.494 389.082C657.638 371.726 757.526 404.119 832.037 463.014C905.094 520.759 948.417 610.769 961.692 703.034C973.689 786.418 929.206 862.494 900.914 941.733C873.681 1018 871.103 1117.78 799.936 1156.07C728.638 1194.43 644.334 1140.05 565.268 1122.32C505.72 1108.97 446.373 1099.92 395.887 1065.49C344.056 1030.14 313.981 976.162 276.762 925.581Z" stroke="url(#paint57_linear_2378_321)" stroke-opacity="0.3" stroke-width="3"/>
<path opacity="0.59" fill-rule="evenodd" clip-rule="evenodd" d="M276.853 929.291C217.178 851.093 92.7715 789.049 112.686 692.776C132.002 599.395 275.901 608.413 354.356 554.608C427.256 504.612 467.469 407.784 554.057 390.079C646.506 371.177 746.535 401.693 821.755 459.04C895.505 515.267 940.208 604.137 955.028 695.777C968.422 778.595 925.448 855.121 898.651 934.513C872.857 1010.93 872.022 1110.33 801.82 1149.69C731.489 1189.13 646.597 1136.45 567.557 1120.17C508.028 1107.92 448.775 1099.93 397.904 1066.53C345.678 1032.24 314.792 979.008 276.853 929.291Z" stroke="url(#paint58_linear_2378_321)" stroke-opacity="0.3" stroke-width="3"/>
<path opacity="0.6" fill-rule="evenodd" clip-rule="evenodd" d="M277.076 932.986C216.297 856.161 91.3408 796.55 109.5 700.343C127.113 607.027 270.559 613.502 347.748 558.562C419.471 507.512 457.832 410.4 543.746 391.265C635.476 370.834 735.61 399.479 811.507 455.27C885.92 509.972 931.976 597.683 948.325 688.672C963.1 770.901 921.636 847.846 896.33 927.364C871.973 1003.9 872.866 1102.89 803.645 1143.31C734.296 1183.8 648.85 1132.82 569.862 1117.99C510.372 1106.82 451.232 1099.9 399.997 1067.53C347.397 1034.29 315.718 981.829 277.076 932.986Z" stroke="url(#paint59_linear_2378_321)" stroke-opacity="0.3" stroke-width="3"/>
<path opacity="0.61" fill-rule="evenodd" clip-rule="evenodd" d="M277.435 936.662C215.581 861.226 90.1218 804.046 106.533 707.938C122.452 614.717 265.4 618.668 341.307 562.621C411.839 510.544 448.351 413.182 533.568 392.634C624.552 370.695 724.758 397.473 801.3 451.704C876.346 504.875 923.729 591.406 941.587 681.718C957.726 763.336 917.774 840.671 893.956 920.286C871.031 996.921 873.638 1095.46 805.413 1136.91C737.063 1178.43 651.095 1129.16 572.186 1115.77C512.755 1105.69 453.747 1099.83 402.168 1068.48C349.215 1036.31 316.76 984.622 277.435 936.662Z" stroke="url(#paint60_linear_2378_321)" stroke-opacity="0.3" stroke-width="3"/>
<path opacity="0.62" fill-rule="evenodd" clip-rule="evenodd" d="M277.92 940.315C215.02 866.282 89.1052 811.533 103.779 715.555C118.011 622.461 260.417 623.906 335.027 566.781C404.354 513.701 439.021 416.125 523.516 394.183C613.731 370.755 713.974 395.674 791.13 448.337C866.778 499.972 915.46 585.304 934.809 674.915C952.296 755.899 913.857 833.594 891.523 913.28C870.025 989.982 874.332 1088.05 807.117 1130.51C739.78 1173.04 653.324 1125.48 574.52 1113.52C515.168 1104.51 456.31 1099.71 404.407 1069.4C351.122 1038.28 317.909 987.383 277.92 940.315Z" stroke="url(#paint61_linear_2378_321)" stroke-opacity="0.3" stroke-width="3"/>
<path opacity="0.63" fill-rule="evenodd" clip-rule="evenodd" d="M278.538 943.944C214.624 871.327 88.2986 819.007 101.244 723.19C113.799 630.253 255.619 629.213 328.918 571.038C397.026 516.981 429.851 419.226 513.603 395.908C603.025 371.012 703.269 394.077 781.008 445.169C857.228 495.263 907.182 579.378 928.003 668.262C946.82 748.59 909.894 826.617 889.039 906.346C868.964 983.088 874.954 1080.66 808.765 1124.1C742.455 1167.62 655.544 1121.77 576.871 1111.23C517.618 1103.3 458.928 1099.54 406.723 1070.26C353.126 1040.21 319.172 990.111 278.538 943.944Z" stroke="url(#paint62_linear_2378_321)" stroke-opacity="0.3" stroke-width="3"/>
<path opacity="0.64" fill-rule="evenodd" clip-rule="evenodd" d="M279.291 947.545C214.392 876.358 87.7032 826.465 98.9297 730.841C109.819 638.09 251.01 634.586 322.983 575.388C389.859 520.382 420.847 422.481 503.833 397.807C592.437 371.463 692.65 392.683 770.941 442.199C847.702 490.748 898.9 573.626 921.174 661.761C941.303 741.411 905.891 819.741 886.509 899.485C867.852 976.242 875.51 1073.28 810.359 1117.69C745.09 1162.17 657.758 1118.03 579.241 1108.91C520.105 1102.04 461.604 1099.32 409.115 1071.08C355.228 1042.09 320.551 992.804 279.291 947.545Z" stroke="url(#paint63_linear_2378_321)" stroke-opacity="0.3" stroke-width="3"/>
<path opacity="0.65" fill-rule="evenodd" clip-rule="evenodd" d="M280.169 951.118C214.316 881.371 87.31 833.902 96.8287 738.501C106.061 645.966 246.58 640.02 317.215 579.828C382.848 523.899 412.002 425.887 494.202 399.876C581.965 372.105 682.113 391.488 760.924 439.425C838.195 486.425 890.609 568.049 914.316 655.41C935.741 734.362 901.84 812.965 883.926 892.697C866.682 969.444 875.99 1065.92 811.892 1111.27C747.677 1156.7 659.957 1114.27 581.622 1106.56C522.623 1100.75 464.327 1099.05 411.576 1071.85C357.418 1043.93 322.037 995.46 280.169 951.118Z" stroke="url(#paint64_linear_2378_321)" stroke-opacity="0.3" stroke-width="3"/>
<path opacity="0.66" fill-rule="evenodd" clip-rule="evenodd" d="M281.176 954.655C214.398 886.362 87.1208 841.312 94.943 746.164C102.53 653.875 242.335 645.509 311.619 584.352C375.996 527.526 403.323 429.437 484.714 402.11C571.615 372.933 671.663 390.487 750.963 436.841C828.714 482.29 882.317 562.643 907.436 649.208C930.138 727.44 897.748 806.288 881.295 885.982C865.458 962.691 876.399 1058.59 813.366 1104.85C750.218 1151.19 662.144 1110.48 584.015 1104.16C525.172 1099.41 467.1 1098.74 414.106 1072.57C359.699 1045.71 323.63 998.074 281.176 954.655Z" stroke="url(#paint65_linear_2378_321)" stroke-opacity="0.3" stroke-width="3"/>
<path opacity="0.67" fill-rule="evenodd" clip-rule="evenodd" d="M282.317 958.159C214.646 891.33 87.1425 848.694 93.2799 753.83C99.2329 661.816 238.283 651.053 306.203 588.959C369.313 531.263 394.82 433.131 475.381 404.507C561.396 373.946 661.313 389.681 741.071 434.45C819.271 478.345 874.034 557.411 900.545 643.156C924.504 720.648 893.624 799.712 878.625 879.341C864.188 955.988 876.745 1051.27 814.79 1098.42C752.722 1145.67 664.326 1106.66 586.428 1101.74C527.759 1098.03 469.929 1098.37 416.712 1073.24C362.077 1047.45 325.339 1000.65 282.317 958.159Z" stroke="url(#paint66_linear_2378_321)" stroke-opacity="0.3" stroke-width="3"/>
<path opacity="0.68" fill-rule="evenodd" clip-rule="evenodd" d="M283.583 961.624C215.05 896.268 87.3655 856.041 91.8305 761.49C96.1612 669.779 234.415 656.643 300.96 593.642C362.793 535.102 386.485 436.961 466.197 407.062C551.305 375.138 651.056 389.064 731.242 432.247C809.86 474.585 865.755 552.348 893.637 637.252C918.836 713.984 889.463 793.235 875.911 872.773C862.866 949.332 877.021 1043.97 816.156 1092C755.179 1140.11 666.494 1102.82 588.852 1099.27C530.376 1096.6 472.805 1097.95 419.386 1073.86C364.543 1049.13 327.154 1003.17 283.583 961.624Z" stroke="url(#paint67_linear_2378_321)" stroke-opacity="0.3" stroke-width="3"/>
<path opacity="0.69" fill-rule="evenodd" clip-rule="evenodd" d="M284.977 965.048C215.611 901.176 87.7915 863.351 90.5967 769.142C93.3177 677.764 230.735 662.279 295.894 598.4C356.44 539.044 378.325 440.926 457.168 409.772C541.347 376.508 640.901 388.636 721.482 430.23C800.489 471.012 857.486 547.456 886.719 631.497C913.137 707.449 885.268 786.86 873.155 866.28C861.496 942.725 877.231 1036.7 817.466 1085.57C757.592 1134.53 668.651 1098.95 591.289 1096.77C533.024 1095.13 475.73 1097.47 422.128 1074.42C367.098 1050.76 329.077 1005.66 284.977 965.048Z" stroke="url(#paint68_linear_2378_321)" stroke-opacity="0.3" stroke-width="3"/>
<path opacity="0.7" fill-rule="evenodd" clip-rule="evenodd" d="M286.493 968.429C216.327 906.05 88.4162 870.619 89.5751 776.782C90.6991 685.764 227.24 667.956 291.003 603.227C350.252 543.081 370.339 445.02 448.292 412.632C531.522 378.052 630.846 388.392 711.793 428.398C791.157 467.622 849.228 542.732 879.789 625.89C907.409 701.042 881.04 780.584 870.358 859.861C860.077 936.168 877.371 1029.45 818.719 1079.14C759.959 1128.93 670.793 1095.05 593.736 1094.23C535.7 1093.61 478.7 1096.94 424.935 1074.93C369.738 1052.33 331.103 1008.09 286.493 968.429Z" stroke="url(#paint69_linear_2378_321)" stroke-opacity="0.3" stroke-width="3"/>
<path opacity="0.71" fill-rule="evenodd" clip-rule="evenodd" d="M288.14 971.763C217.204 910.885 89.2463 877.84 88.7726 784.403C88.3131 693.773 223.939 673.667 286.296 608.118C344.238 547.21 362.536 449.239 439.581 415.639C521.842 379.764 620.904 388.328 702.185 426.745C781.877 464.412 840.993 538.175 872.86 620.428C901.66 694.763 876.788 774.408 867.529 853.515C858.616 929.66 877.452 1022.22 819.922 1072.71C762.286 1123.3 672.929 1091.13 596.2 1091.65C538.411 1092.04 481.722 1096.35 427.814 1075.37C372.47 1053.83 333.239 1010.47 288.14 971.763Z" stroke="url(#paint70_linear_2378_321)" stroke-opacity="0.3" stroke-width="3"/>
<path opacity="0.72" fill-rule="evenodd" clip-rule="evenodd" d="M289.907 975.047C218.232 915.678 90.2721 885.009 88.1801 792C86.1511 701.786 220.823 679.409 281.766 613.069C338.393 551.427 354.91 453.577 431.029 418.786C512.301 381.641 611.069 388.441 692.653 425.271C772.644 461.38 832.775 533.782 865.927 615.11C895.887 688.61 872.507 768.329 864.661 847.242C857.109 923.2 877.465 1015.02 821.067 1066.28C764.566 1117.64 675.05 1087.18 598.672 1089.03C541.147 1090.43 484.786 1095.7 430.755 1075.76C375.284 1055.28 335.476 1012.79 289.907 975.047Z" stroke="url(#paint71_linear_2378_321)" stroke-opacity="0.3" stroke-width="3"/>
<path opacity="0.73" fill-rule="evenodd" clip-rule="evenodd" d="M291.802 978.281C219.418 920.428 91.5001 892.126 87.8048 799.574C84.2204 709.802 217.901 685.181 277.42 618.079C332.725 555.729 347.471 458.034 422.646 422.074C502.909 383.681 601.353 388.732 683.21 423.974C763.468 458.528 824.586 529.555 858.999 609.939C890.1 682.585 868.207 762.352 861.764 841.045C855.563 916.792 877.421 1007.84 822.164 1059.86C766.807 1111.97 677.163 1083.2 601.16 1086.37C543.917 1088.77 487.9 1095 433.765 1076.08C378.188 1056.67 337.822 1015.06 291.802 978.281Z" stroke="url(#paint72_linear_2378_321)" stroke-opacity="0.3" stroke-width="3"/>
<path opacity="0.74" fill-rule="evenodd" clip-rule="evenodd" d="M293.82 981.46C220.759 925.129 92.9262 899.183 87.6427 807.114C82.5179 717.812 215.17 690.975 273.258 623.141C327.232 560.11 340.218 462.6 414.431 425.495C493.667 385.878 591.756 389.192 673.856 422.849C754.352 455.848 816.425 525.49 852.078 604.91C884.298 676.686 863.887 756.472 858.838 834.921C853.978 910.432 877.316 1000.69 823.21 1053.43C769.005 1106.27 679.266 1079.19 603.66 1083.68C546.717 1087.05 491.06 1094.23 436.841 1076.35C381.177 1057.98 340.271 1017.27 293.82 981.46Z" stroke="url(#paint73_linear_2378_321)" stroke-opacity="0.3" stroke-width="3"/>
<path opacity="0.75" fill-rule="evenodd" clip-rule="evenodd" d="M295.953 984.582C222.245 929.779 94.5401 906.177 87.6842 814.62C81.0343 725.813 212.621 696.788 269.27 628.251C321.908 564.567 333.144 467.275 406.378 429.047C484.57 388.23 582.272 389.821 664.584 421.895C745.289 453.343 808.289 521.586 845.157 600.024C878.476 670.912 859.541 750.691 855.875 828.87C852.346 904.122 877.143 993.561 824.196 1047.01C771.153 1100.55 681.35 1075.16 606.163 1080.94C549.536 1085.29 494.255 1093.41 439.971 1076.55C384.241 1059.24 342.814 1019.42 295.953 984.582Z" stroke="url(#paint74_linear_2378_321)" stroke-opacity="0.3" stroke-width="3"/>
<path opacity="0.76" fill-rule="evenodd" clip-rule="evenodd" d="M298.211 987.646C223.888 934.377 96.3538 913.107 87.9417 822.087C79.7824 733.802 210.268 702.618 265.472 633.408C316.767 569.098 326.265 472.055 398.504 432.726C475.633 390.734 572.919 390.615 655.413 421.11C736.296 451.009 800.194 517.843 838.254 595.281C872.651 665.265 855.184 745.009 852.89 822.895C850.682 897.865 876.917 986.463 825.138 1040.59C773.264 1094.81 683.429 1071.1 608.683 1078.16C552.389 1083.48 497.5 1092.52 443.17 1076.68C387.392 1060.42 345.463 1021.51 298.211 987.646Z" stroke="url(#paint75_linear_2378_321)" stroke-opacity="0.3" stroke-width="3"/>
<path opacity="0.77" fill-rule="evenodd" clip-rule="evenodd" d="M300.585 990.646C225.678 938.917 98.3573 919.965 88.4057 829.509C78.7531 741.771 208.103 708.458 261.855 638.603C311.801 573.695 319.574 476.932 390.801 436.525C466.85 393.383 563.69 391.571 646.337 420.489C727.369 448.842 792.134 514.257 831.363 590.677C866.816 659.74 850.812 739.423 849.878 816.992C848.98 891.656 876.631 979.391 826.026 1034.17C775.329 1089.05 685.492 1067 611.211 1075.34C555.265 1081.61 500.783 1091.57 446.427 1076.75C390.622 1061.54 348.209 1023.53 300.585 990.646Z" stroke="url(#paint76_linear_2378_321)" stroke-opacity="0.3" stroke-width="3"/>
<path opacity="0.78" fill-rule="evenodd" clip-rule="evenodd" d="M303.078 993.583C227.617 943.397 100.551 926.749 89.0772 836.883C77.948 749.717 206.128 714.305 258.422 643.836C307.014 578.357 313.074 481.904 383.274 440.443C458.227 396.175 554.592 392.684 637.361 420.03C718.513 446.841 784.115 510.828 824.489 586.212C860.977 654.34 846.427 733.935 846.843 811.163C847.242 885.499 876.288 972.348 826.865 1027.75C777.351 1083.26 687.544 1062.89 613.747 1072.48C558.167 1079.7 504.107 1090.56 449.743 1076.75C393.93 1062.58 351.053 1025.49 303.078 993.583Z" stroke="url(#paint77_linear_2378_321)" stroke-opacity="0.3" stroke-width="3"/>
<path opacity="0.79" fill-rule="evenodd" clip-rule="evenodd" d="M305.689 996.452C229.706 947.812 102.936 933.454 89.9575 844.204C77.3686 757.635 204.344 720.153 255.177 649.1C302.41 583.077 306.77 486.965 375.928 444.472C449.768 399.104 545.629 393.951 628.491 419.729C709.735 445.003 776.143 507.551 817.638 581.884C855.139 649.061 842.036 728.541 843.788 805.405C845.474 879.39 875.892 965.332 827.656 1021.34C779.332 1077.46 689.586 1058.74 616.295 1069.57C561.096 1077.72 507.474 1089.48 453.12 1076.68C397.319 1063.55 353.997 1027.38 305.689 996.452Z" stroke="url(#paint78_linear_2378_321)" stroke-opacity="0.3" stroke-width="3"/>
<path opacity="0.8" fill-rule="evenodd" clip-rule="evenodd" d="M308.409 999.252C231.934 952.161 105.502 940.078 91.0364 851.468C77.0053 765.52 202.744 726.001 252.11 654.392C297.98 587.854 300.654 492.111 368.756 448.612C441.468 402.168 536.796 395.37 619.722 419.584C701.027 443.326 768.213 504.427 810.804 577.692C849.296 643.905 837.631 723.244 840.707 799.721C843.668 873.333 875.434 958.346 828.393 1014.94C781.265 1071.63 691.61 1054.56 618.845 1066.62C564.043 1075.7 510.872 1088.33 456.549 1076.54C400.777 1064.44 357.029 1029.19 308.409 999.252Z" stroke="url(#paint79_linear_2378_321)" stroke-opacity="0.3" stroke-width="3"/>
<path opacity="0.81" fill-rule="evenodd" clip-rule="evenodd" d="M311.25 1001.98C234.314 956.441 108.261 946.617 92.3263 858.671C76.8708 773.368 201.34 731.844 249.235 659.709C293.739 592.682 294.741 497.339 361.773 452.856C433.342 405.363 528.11 396.936 611.069 419.593C692.408 441.809 760.341 501.455 804.004 573.637C843.464 638.87 833.229 718.043 837.616 794.109C841.839 867.327 874.931 951.391 829.089 1008.54C783.163 1065.79 693.628 1050.36 621.411 1063.63C567.021 1073.62 514.316 1087.12 460.041 1076.33C404.319 1065.26 360.163 1030.93 311.25 1001.98Z" stroke="url(#paint80_linear_2378_321)" stroke-opacity="0.3" stroke-width="3"/>
<path opacity="0.82" fill-rule="evenodd" clip-rule="evenodd" d="M314.196 1004.64C236.831 960.648 111.195 953.065 93.8113 865.809C76.9496 781.174 200.118 737.676 246.54 665.045C289.674 597.556 289.019 502.642 354.967 457.2C425.379 408.682 519.558 398.644 602.523 419.751C683.867 440.445 752.516 498.629 797.226 569.713C837.633 633.954 828.817 712.934 834.502 788.568C839.975 861.37 874.369 944.464 829.731 1002.14C785.012 1059.92 695.628 1046.13 623.978 1060.59C570.014 1071.48 517.79 1085.84 463.581 1076.05C407.927 1065.99 363.383 1032.6 314.196 1004.64Z" stroke="url(#paint81_linear_2378_321)" stroke-opacity="0.3" stroke-width="3"/>
<path opacity="0.83" fill-rule="evenodd" clip-rule="evenodd" d="M317.255 1007.21C239.49 964.779 114.313 959.419 95.4981 872.876C77.2488 788.933 199.086 743.494 244.031 670.395C285.793 602.472 283.497 508.016 348.348 461.639C417.588 412.122 511.151 400.491 594.093 420.054C675.414 439.234 744.749 495.949 790.482 565.92C831.812 629.156 824.406 707.918 831.375 783.098C838.084 855.462 873.757 937.566 830.328 995.75C786.82 1054.04 697.616 1041.87 626.553 1057.51C573.031 1069.29 521.301 1084.49 467.176 1075.68C411.61 1066.65 366.695 1034.19 317.255 1007.21Z" stroke="url(#paint82_linear_2378_321)" stroke-opacity="0.3" stroke-width="3"/>
<path opacity="0.84" fill-rule="evenodd" clip-rule="evenodd" d="M320.421 1009.71C242.287 968.832 117.607 965.678 97.3815 879.87C77.7636 796.641 198.239 749.295 241.705 675.758C282.094 607.428 278.171 513.457 341.913 466.169C409.969 415.681 502.89 402.475 585.779 420.501C667.05 438.175 737.041 493.414 783.77 562.259C826.001 624.476 819.995 702.996 828.235 777.699C836.165 849.605 873.093 930.701 830.877 989.367C788.584 1048.14 699.59 1037.58 629.133 1054.38C576.068 1067.04 524.844 1083.07 470.822 1075.25C415.361 1067.22 370.096 1035.7 320.421 1009.71Z" stroke="url(#paint83_linear_2378_321)" stroke-opacity="0.3" stroke-width="3"/>
<path opacity="0.85" fill-rule="evenodd" clip-rule="evenodd" d="M323.695 1012.13C245.223 972.804 121.079 971.836 99.4624 886.788C78.4952 804.294 197.579 755.074 239.566 681.129C278.579 612.419 273.047 518.962 335.667 470.788C402.526 419.353 494.778 404.592 577.587 421.089C658.779 437.263 729.396 491.022 777.097 558.726C820.206 619.913 815.589 698.166 825.084 772.372C834.223 843.799 872.381 923.867 831.381 982.99C790.307 1042.22 701.551 1033.26 631.719 1051.21C579.125 1064.74 528.421 1081.58 474.52 1074.74C419.182 1067.71 373.585 1037.13 323.695 1012.13Z" stroke="url(#paint84_linear_2378_321)" stroke-opacity="0.3" stroke-width="3"/>
<path opacity="0.86" fill-rule="evenodd" clip-rule="evenodd" d="M327.079 1014.46C248.299 976.691 124.729 977.891 101.741 893.623C79.4445 811.887 197.109 760.827 237.614 686.502C275.252 617.44 268.126 524.524 329.614 475.488C395.264 423.134 486.82 406.836 569.522 421.812C650.607 436.495 721.819 488.768 770.467 555.32C814.431 615.465 811.192 693.426 821.927 767.113C832.26 838.042 871.624 917.064 831.844 976.62C791.992 1036.29 703.503 1028.91 634.314 1048C582.204 1062.37 532.034 1080.01 478.271 1074.15C423.075 1068.12 377.165 1038.47 327.079 1014.46Z" stroke="url(#paint85_linear_2378_321)" stroke-opacity="0.3" stroke-width="3"/>
<path opacity="0.87" fill-rule="evenodd" clip-rule="evenodd" d="M330.562 1016.71C251.504 980.492 128.545 983.837 104.208 900.373C80.6015 819.416 196.819 766.55 235.843 691.875C272.103 622.487 263.402 530.138 323.746 480.266C388.175 427.019 479.011 409.204 561.577 422.668C642.529 435.869 714.306 486.652 763.874 552.038C808.67 611.131 806.797 688.775 818.758 761.924C830.271 832.333 870.815 910.293 832.258 970.257C793.629 1030.33 705.436 1024.53 636.909 1044.73C585.297 1059.95 535.673 1078.38 482.065 1073.47C427.028 1068.44 380.824 1039.74 330.562 1016.71Z" stroke="url(#paint86_linear_2378_321)" stroke-opacity="0.3" stroke-width="3"/>
<path opacity="0.88" fill-rule="evenodd" clip-rule="evenodd" d="M334.144 1018.87C254.839 984.201 132.529 989.672 106.862 907.032C81.9668 826.874 196.71 772.238 234.252 697.241C269.136 627.555 258.877 535.801 318.067 485.117C381.264 431.003 471.355 411.691 553.757 423.653C634.549 435.38 706.862 484.67 757.324 548.879C802.929 606.908 802.41 684.213 815.581 756.802C828.258 826.673 869.958 903.553 832.625 963.901C795.223 1024.36 707.353 1020.13 639.505 1041.42C588.405 1057.46 539.338 1076.67 485.903 1072.72C431.044 1068.67 384.564 1040.91 334.144 1018.87Z" stroke="url(#paint87_linear_2378_321)" stroke-opacity="0.3" stroke-width="3"/>
<path opacity="0.89" fill-rule="evenodd" clip-rule="evenodd" d="M337.827 1020.94C258.304 987.819 136.68 995.394 109.705 913.599C83.5412 834.261 196.784 777.89 232.846 702.6C266.354 632.642 254.554 541.508 312.581 490.038C374.534 435.083 463.856 414.296 546.068 424.764C626.673 435.028 699.49 482.821 750.821 545.842C797.211 602.797 798.035 679.739 812.399 751.749C826.226 821.063 869.057 896.846 832.949 957.554C796.775 1018.37 709.256 1015.69 642.105 1038.06C591.529 1054.92 543.032 1074.89 489.786 1071.89C435.122 1068.81 388.386 1041.99 337.827 1020.94Z" stroke="url(#paint88_linear_2378_321)" stroke-opacity="0.3" stroke-width="3"/>
<path opacity="0.9" fill-rule="evenodd" clip-rule="evenodd" d="M341.612 1022.91C261.901 991.341 140.998 1001 112.737 920.068C85.3252 841.569 197.042 783.498 231.624 707.945C263.758 637.742 250.437 547.254 307.29 495.022C367.991 439.254 456.52 417.012 538.513 425.998C618.905 434.809 692.197 481.102 744.371 542.924C791.523 598.795 793.675 675.351 809.217 746.762C824.178 815.5 868.114 890.171 833.233 951.214C798.289 1012.37 711.148 1011.22 644.71 1034.66C594.671 1052.31 546.756 1073.03 493.716 1070.97C439.263 1068.86 392.289 1042.99 341.612 1022.91Z" stroke="url(#paint89_linear_2378_321)" stroke-opacity="0.3" stroke-width="3"/>
<path opacity="0.91" fill-rule="evenodd" clip-rule="evenodd" d="M345.492 1024.8C265.623 994.766 145.477 1006.48 115.952 926.437C87.3137 848.797 197.479 789.063 230.585 713.274C261.345 642.852 246.522 553.036 302.193 500.068C361.632 443.514 449.343 419.837 531.093 427.352C611.245 434.72 684.982 479.512 737.973 540.125C785.862 594.903 789.33 671.049 806.034 741.843C822.112 809.987 867.128 883.529 833.475 944.883C799.76 1006.35 713.024 1006.73 647.316 1031.21C597.827 1049.64 550.504 1071.1 497.688 1069.97C443.464 1068.82 396.271 1043.89 345.492 1024.8Z" stroke="url(#paint90_linear_2378_321)" stroke-opacity="0.3" stroke-width="3"/>
<path opacity="0.92" fill-rule="evenodd" clip-rule="evenodd" d="M349.465 1026.58C269.466 998.089 150.112 1011.84 119.345 932.7C89.502 855.938 198.093 794.576 229.723 718.581C259.113 647.967 242.806 558.847 297.287 505.167C355.455 447.854 442.327 422.766 523.806 428.82C603.694 434.756 677.845 478.045 731.626 537.44C780.23 591.117 785 666.831 802.848 736.989C820.028 804.52 866.097 876.92 833.672 938.56C801.187 1000.31 714.883 1002.2 649.92 1027.7C600.994 1046.91 554.274 1069.09 501.697 1068.89C447.719 1068.69 400.325 1044.7 349.465 1026.58Z" stroke="url(#paint91_linear_2378_321)" stroke-opacity="0.3" stroke-width="3"/>
<path opacity="0.93" fill-rule="evenodd" clip-rule="evenodd" d="M353.528 1028.27C273.431 1001.31 154.902 1017.07 122.915 938.857C91.8898 862.99 198.883 800.038 229.041 723.864C257.063 653.084 239.293 564.685 292.575 510.319C349.464 452.274 435.473 425.795 516.656 430.401C596.253 434.916 670.79 476.702 725.335 534.869C774.629 587.437 780.687 662.697 799.663 732.2C817.928 799.101 865.025 870.344 833.827 932.248C802.572 994.264 716.725 997.645 652.524 1024.16C604.171 1044.12 558.066 1067 505.744 1067.72C452.028 1068.46 404.452 1045.41 353.528 1028.27Z" stroke="url(#paint92_linear_2378_321)" stroke-opacity="0.3" stroke-width="3"/>
<path opacity="0.94" fill-rule="evenodd" clip-rule="evenodd" d="M357.685 1029.86C277.516 1004.42 159.847 1022.17 126.664 944.899C94.4777 869.946 199.851 805.44 228.54 729.116C255.198 658.196 235.984 570.541 288.061 515.515C343.663 456.764 428.788 428.919 509.649 432.087C588.93 435.194 663.821 475.477 719.104 532.408C769.065 583.858 776.397 658.643 796.483 727.474C815.817 793.727 863.914 863.799 833.943 925.942C803.917 988.198 718.554 993.057 655.13 1020.55C607.362 1041.26 561.881 1064.83 509.831 1066.46C456.394 1068.13 408.654 1046.03 357.685 1029.86Z" stroke="url(#paint93_linear_2378_321)" stroke-opacity="0.3" stroke-width="3"/>
<path opacity="0.95" fill-rule="evenodd" clip-rule="evenodd" d="M361.929 1031.34C281.718 1007.43 164.942 1027.14 130.585 950.827C97.2606 876.806 200.993 810.783 228.217 734.336C253.513 663.303 232.877 576.416 283.741 520.755C338.049 461.326 422.268 432.135 502.782 433.88C581.723 435.591 656.94 474.37 712.934 530.057C763.538 580.384 772.129 654.671 793.307 722.812C813.692 788.401 862.764 857.29 834.019 919.647C805.22 982.118 720.366 988.44 657.734 1016.91C610.562 1038.35 565.715 1062.59 513.952 1065.12C460.81 1067.71 412.924 1046.55 361.929 1031.34Z" stroke="url(#paint94_linear_2378_321)" stroke-opacity="0.3" stroke-width="3"/>
<path opacity="0.96" fill-rule="evenodd" clip-rule="evenodd" d="M366.26 1032.72C286.037 1010.33 170.185 1031.97 134.678 956.635C100.238 883.561 202.308 816.06 228.072 739.518C252.011 668.397 229.973 582.301 279.619 526.03C332.626 465.95 415.919 435.438 496.06 435.772C574.636 436.1 650.149 473.377 706.827 527.812C758.05 577.008 767.885 650.776 790.138 718.211C811.558 783.12 861.578 850.811 834.056 913.36C806.483 976.022 722.162 983.791 660.336 1013.21C613.772 1035.36 569.569 1060.26 518.109 1063.68C465.277 1067.19 417.264 1046.96 366.26 1032.72Z" stroke="url(#paint95_linear_2378_321)" stroke-opacity="0.3" stroke-width="3"/>
<path opacity="0.97" fill-rule="evenodd" clip-rule="evenodd" d="M370.669 1034C290.46 1013.11 175.566 1036.67 138.932 962.322C103.399 890.212 203.787 821.27 228.096 744.661C250.683 673.477 227.264 588.194 275.686 531.339C327.386 470.636 409.732 438.825 489.477 437.762C567.664 436.72 643.442 472.496 700.779 525.673C752.597 573.732 763.66 646.961 786.969 713.672C809.406 777.884 860.347 844.368 834.047 907.084C807.699 969.914 723.936 979.112 662.93 1009.46C616.983 1032.31 573.434 1057.86 522.291 1062.16C469.785 1066.57 421.663 1047.28 370.669 1034Z" stroke="url(#paint96_linear_2378_321)" stroke-opacity="0.3" stroke-width="3"/>
<path opacity="0.98" fill-rule="evenodd" clip-rule="evenodd" d="M375.166 1035.17C295.001 1015.78 181.094 1041.22 143.357 967.884C106.755 896.753 205.442 826.408 228.301 749.76C249.541 678.538 224.763 594.09 271.956 536.677C322.343 475.377 403.722 442.292 483.046 439.846C560.82 437.447 636.836 471.725 694.805 523.637C747.193 570.553 759.469 643.223 783.816 709.194C807.252 772.694 859.087 837.958 834.006 900.818C808.879 963.792 725.699 974.403 665.526 1005.66C620.207 1029.2 577.321 1055.38 526.51 1060.54C474.346 1065.84 426.133 1047.49 375.166 1035.17Z" stroke="url(#paint97_linear_2378_321)" stroke-opacity="0.3" stroke-width="3"/>
<path opacity="0.99" fill-rule="evenodd" clip-rule="evenodd" d="M379.741 1036.22C299.646 1018.33 186.758 1045.62 147.943 973.315C110.294 903.18 207.262 831.47 228.677 754.809C248.576 683.576 222.461 599.984 268.42 542.038C317.49 480.169 397.883 445.833 476.762 442.018C554.1 438.277 630.323 471.059 688.897 521.701C741.832 567.468 755.305 639.56 780.671 704.775C805.087 767.548 857.79 831.581 833.925 894.561C810.017 957.657 727.442 969.662 668.117 1001.81C623.435 1026.02 581.22 1052.82 530.757 1058.84C478.949 1065.02 430.663 1047.6 379.741 1036.22Z" stroke="url(#paint98_linear_2378_321)" stroke-opacity="0.3" stroke-width="3"/>
<path fill-rule="evenodd" clip-rule="evenodd" d="M384.394 1037.17C304.397 1020.76 192.558 1049.88 152.688 978.614C114.017 909.488 209.248 836.452 229.226 759.805C247.789 688.586 220.359 605.871 265.08 547.417C312.828 485.006 392.216 449.444 470.627 444.275C547.506 439.206 623.908 470.495 683.061 519.862C736.519 564.476 751.171 635.969 777.538 700.413C802.917 762.444 856.46 825.236 833.808 888.313C811.114 951.507 729.168 964.889 670.702 997.906C626.668 1022.77 585.132 1050.17 535.031 1057.04C483.594 1064.09 435.253 1047.6 384.394 1037.17Z" stroke="url(#paint99_linear_2378_321)" stroke-opacity="0.3" stroke-width="3"/>
<defs>
<linearGradient id="paint0_linear_2378_321" x1="401.426" y1="684.499" x2="1185.42" y2="1319.36" gradientUnits="userSpaceOnUse">
<stop stop-color="#B620E0"/>
<stop offset="1" stop-color="#0047FF"/>
</linearGradient>
<linearGradient id="paint1_linear_2378_321" x1="393.854" y1="686.389" x2="1186.19" y2="1305.43" gradientUnits="userSpaceOnUse">
<stop stop-color="#B620E0"/>
<stop offset="1" stop-color="#0047FF"/>
</linearGradient>
<linearGradient id="paint2_linear_2378_321" x1="386.376" y1="688.416" x2="1186.73" y2="1291.53" gradientUnits="userSpaceOnUse">
<stop stop-color="#B620E0"/>
<stop offset="1" stop-color="#0047FF"/>
</linearGradient>
<linearGradient id="paint3_linear_2378_321" x1="379" y1="690.582" x2="1187.07" y2="1277.68" gradientUnits="userSpaceOnUse">
<stop stop-color="#B620E0"/>
<stop offset="1" stop-color="#0047FF"/>
</linearGradient>
<linearGradient id="paint4_linear_2378_321" x1="371.72" y1="692.879" x2="1187.19" y2="1263.88" gradientUnits="userSpaceOnUse">
<stop stop-color="#B620E0"/>
<stop offset="1" stop-color="#0047FF"/>
</linearGradient>
<linearGradient id="paint5_linear_2378_321" x1="364.549" y1="695.311" x2="1187.1" y2="1250.13" gradientUnits="userSpaceOnUse">
<stop stop-color="#B620E0"/>
<stop offset="1" stop-color="#0047FF"/>
</linearGradient>
<linearGradient id="paint6_linear_2378_321" x1="357.49" y1="697.872" x2="1186.81" y2="1236.44" gradientUnits="userSpaceOnUse">
<stop stop-color="#B620E0"/>
<stop offset="1" stop-color="#0047FF"/>
</linearGradient>
<linearGradient id="paint7_linear_2378_321" x1="350.54" y1="700.561" x2="1186.31" y2="1222.81" gradientUnits="userSpaceOnUse">
<stop stop-color="#B620E0"/>
<stop offset="1" stop-color="#0047FF"/>
</linearGradient>
<linearGradient id="paint8_linear_2378_321" x1="343.692" y1="703.374" x2="1185.6" y2="1209.24" gradientUnits="userSpaceOnUse">
<stop stop-color="#B620E0"/>
<stop offset="1" stop-color="#0047FF"/>
</linearGradient>
<linearGradient id="paint9_linear_2378_321" x1="336.971" y1="706.31" x2="1184.7" y2="1195.74" gradientUnits="userSpaceOnUse">
<stop stop-color="#B620E0"/>
<stop offset="1" stop-color="#0047FF"/>
</linearGradient>
<linearGradient id="paint10_linear_2378_321" x1="330.362" y1="709.367" x2="1183.59" y2="1182.32" gradientUnits="userSpaceOnUse">
<stop stop-color="#B620E0"/>
<stop offset="1" stop-color="#0047FF"/>
</linearGradient>
<linearGradient id="paint11_linear_2378_321" x1="323.87" y1="712.54" x2="1182.28" y2="1168.97" gradientUnits="userSpaceOnUse">
<stop stop-color="#B620E0"/>
<stop offset="1" stop-color="#0047FF"/>
</linearGradient>
<linearGradient id="paint12_linear_2378_321" x1="317.501" y1="715.829" x2="1180.79" y2="1155.69" gradientUnits="userSpaceOnUse">
<stop stop-color="#B620E0"/>
<stop offset="1" stop-color="#0047FF"/>
</linearGradient>
<linearGradient id="paint13_linear_2378_321" x1="311.255" y1="719.231" x2="1179.1" y2="1142.51" gradientUnits="userSpaceOnUse">
<stop stop-color="#B620E0"/>
<stop offset="1" stop-color="#0047FF"/>
</linearGradient>
<linearGradient id="paint14_linear_2378_321" x1="305.139" y1="722.743" x2="1177.22" y2="1129.4" gradientUnits="userSpaceOnUse">
<stop stop-color="#B620E0"/>
<stop offset="1" stop-color="#0047FF"/>
</linearGradient>
<linearGradient id="paint15_linear_2378_321" x1="299.151" y1="726.364" x2="1175.16" y2="1116.39" gradientUnits="userSpaceOnUse">
<stop stop-color="#B620E0"/>
<stop offset="1" stop-color="#0047FF"/>
</linearGradient>
<linearGradient id="paint16_linear_2378_321" x1="293.294" y1="730.087" x2="1172.91" y2="1103.46" gradientUnits="userSpaceOnUse">
<stop stop-color="#B620E0"/>
<stop offset="1" stop-color="#0047FF"/>
</linearGradient>
<linearGradient id="paint17_linear_2378_321" x1="287.565" y1="733.912" x2="1170.48" y2="1090.63" gradientUnits="userSpaceOnUse">
<stop stop-color="#B620E0"/>
<stop offset="1" stop-color="#0047FF"/>
</linearGradient>
<linearGradient id="paint18_linear_2378_321" x1="281.972" y1="737.838" x2="1167.87" y2="1077.9" gradientUnits="userSpaceOnUse">
<stop stop-color="#B620E0"/>
<stop offset="1" stop-color="#0047FF"/>
</linearGradient>
<linearGradient id="paint19_linear_2378_321" x1="276.513" y1="741.859" x2="1165.09" y2="1065.27" gradientUnits="userSpaceOnUse">
<stop stop-color="#B620E0"/>
<stop offset="1" stop-color="#0047FF"/>
</linearGradient>
<linearGradient id="paint20_linear_2378_321" x1="271.191" y1="745.973" x2="1162.13" y2="1052.75" gradientUnits="userSpaceOnUse">
<stop stop-color="#B620E0"/>
<stop offset="1" stop-color="#0047FF"/>
</linearGradient>
<linearGradient id="paint21_linear_2378_321" x1="266.015" y1="750.178" x2="1159" y2="1040.33" gradientUnits="userSpaceOnUse">
<stop stop-color="#B620E0"/>
<stop offset="1" stop-color="#0047FF"/>
</linearGradient>
<linearGradient id="paint22_linear_2378_321" x1="260.975" y1="754.47" x2="1155.71" y2="1028.02" gradientUnits="userSpaceOnUse">
<stop stop-color="#B620E0"/>
<stop offset="1" stop-color="#0047FF"/>
</linearGradient>
<linearGradient id="paint23_linear_2378_321" x1="256.08" y1="758.847" x2="1152.26" y2="1015.82" gradientUnits="userSpaceOnUse">
<stop stop-color="#B620E0"/>
<stop offset="1" stop-color="#0047FF"/>
</linearGradient>
<linearGradient id="paint24_linear_2378_321" x1="251.334" y1="763.305" x2="1148.64" y2="1003.74" gradientUnits="userSpaceOnUse">
<stop stop-color="#B620E0"/>
<stop offset="1" stop-color="#0047FF"/>
</linearGradient>
<linearGradient id="paint25_linear_2378_321" x1="246.727" y1="767.841" x2="1144.87" y2="991.773" gradientUnits="userSpaceOnUse">
<stop stop-color="#B620E0"/>
<stop offset="1" stop-color="#0047FF"/>
</linearGradient>
<linearGradient id="paint26_linear_2378_321" x1="242.269" y1="772.454" x2="1140.94" y2="979.929" gradientUnits="userSpaceOnUse">
<stop stop-color="#B620E0"/>
<stop offset="1" stop-color="#0047FF"/>
</linearGradient>
<linearGradient id="paint27_linear_2378_321" x1="237.967" y1="777.139" x2="1136.87" y2="968.207" gradientUnits="userSpaceOnUse">
<stop stop-color="#B620E0"/>
<stop offset="1" stop-color="#0047FF"/>
</linearGradient>
<linearGradient id="paint28_linear_2378_321" x1="233.84" y1="781.897" x2="1132.67" y2="956.613" gradientUnits="userSpaceOnUse">
<stop stop-color="#B620E0"/>
<stop offset="1" stop-color="#0047FF"/>
</linearGradient>
<linearGradient id="paint29_linear_2378_321" x1="229.837" y1="786.717" x2="1128.31" y2="945.142" gradientUnits="userSpaceOnUse">
<stop stop-color="#B620E0"/>
<stop offset="1" stop-color="#0047FF"/>
</linearGradient>
<linearGradient id="paint30_linear_2378_321" x1="225.987" y1="791.601" x2="1123.8" y2="933.8" gradientUnits="userSpaceOnUse">
<stop stop-color="#B620E0"/>
<stop offset="1" stop-color="#0047FF"/>
</linearGradient>
<linearGradient id="paint31_linear_2378_321" x1="222.287" y1="796.544" x2="1119.15" y2="922.59" gradientUnits="userSpaceOnUse">
<stop stop-color="#B620E0"/>
<stop offset="1" stop-color="#0047FF"/>
</linearGradient>
<linearGradient id="paint32_linear_2378_321" x1="218.746" y1="801.544" x2="1114.37" y2="911.512" gradientUnits="userSpaceOnUse">
<stop stop-color="#B620E0"/>
<stop offset="1" stop-color="#0047FF"/>
</linearGradient>
<linearGradient id="paint33_linear_2378_321" x1="215.354" y1="806.596" x2="1109.45" y2="900.569" gradientUnits="userSpaceOnUse">
<stop stop-color="#B620E0"/>
<stop offset="1" stop-color="#0047FF"/>
</linearGradient>
<linearGradient id="paint34_linear_2378_321" x1="212.127" y1="811.698" x2="1104.41" y2="889.763" gradientUnits="userSpaceOnUse">
<stop stop-color="#B620E0"/>
<stop offset="1" stop-color="#0047FF"/>
</linearGradient>
<linearGradient id="paint35_linear_2378_321" x1="209.054" y1="816.849" x2="1099.25" y2="879.097" gradientUnits="userSpaceOnUse">
<stop stop-color="#B620E0"/>
<stop offset="1" stop-color="#0047FF"/>
</linearGradient>
<linearGradient id="paint36_linear_2378_321" x1="206.144" y1="822.042" x2="1093.97" y2="868.571" gradientUnits="userSpaceOnUse">
<stop stop-color="#B620E0"/>
<stop offset="1" stop-color="#0047FF"/>
</linearGradient>
<linearGradient id="paint37_linear_2378_321" x1="203.389" y1="827.276" x2="1088.56" y2="858.187" gradientUnits="userSpaceOnUse">
<stop stop-color="#B620E0"/>
<stop offset="1" stop-color="#0047FF"/>
</linearGradient>
<linearGradient id="paint38_linear_2378_321" x1="200.797" y1="832.547" x2="1083.05" y2="847.946" gradientUnits="userSpaceOnUse">
<stop stop-color="#B620E0"/>
<stop offset="1" stop-color="#0047FF"/>
</linearGradient>
<linearGradient id="paint39_linear_2378_321" x1="198.369" y1="837.851" x2="1077.43" y2="837.851" gradientUnits="userSpaceOnUse">
<stop stop-color="#B620E0"/>
<stop offset="1" stop-color="#0047FF"/>
</linearGradient>
<linearGradient id="paint40_linear_2378_321" x1="196.097" y1="843.187" x2="1071.7" y2="827.903" gradientUnits="userSpaceOnUse">
<stop stop-color="#B620E0"/>
<stop offset="1" stop-color="#0047FF"/>
</linearGradient>
<linearGradient id="paint41_linear_2378_321" x1="193.989" y1="848.548" x2="1065.86" y2="818.102" gradientUnits="userSpaceOnUse">
<stop stop-color="#B620E0"/>
<stop offset="1" stop-color="#0047FF"/>
</linearGradient>
<linearGradient id="paint42_linear_2378_321" x1="192.047" y1="853.936" x2="1059.94" y2="808.452" gradientUnits="userSpaceOnUse">
<stop stop-color="#B620E0"/>
<stop offset="1" stop-color="#0047FF"/>
</linearGradient>
<linearGradient id="paint43_linear_2378_321" x1="190.263" y1="859.342" x2="1053.91" y2="798.95" gradientUnits="userSpaceOnUse">
<stop stop-color="#B620E0"/>
<stop offset="1" stop-color="#0047FF"/>
</linearGradient>
<linearGradient id="paint44_linear_2378_321" x1="188.638" y1="864.764" x2="1047.78" y2="789.599" gradientUnits="userSpaceOnUse">
<stop stop-color="#B620E0"/>
<stop offset="1" stop-color="#0047FF"/>
</linearGradient>
<linearGradient id="paint45_linear_2378_321" x1="187.186" y1="870.202" x2="1041.58" y2="780.401" gradientUnits="userSpaceOnUse">
<stop stop-color="#B620E0"/>
<stop offset="1" stop-color="#0047FF"/>
</linearGradient>
<linearGradient id="paint46_linear_2378_321" x1="185.893" y1="875.649" x2="1035.29" y2="771.356" gradientUnits="userSpaceOnUse">
<stop stop-color="#B620E0"/>
<stop offset="1" stop-color="#0047FF"/>
</linearGradient>
<linearGradient id="paint47_linear_2378_321" x1="184.765" y1="881.102" x2="1028.91" y2="762.465" gradientUnits="userSpaceOnUse">
<stop stop-color="#B620E0"/>
<stop offset="1" stop-color="#0047FF"/>
</linearGradient>
<linearGradient id="paint48_linear_2378_321" x1="183.799" y1="886.56" x2="1022.46" y2="753.729" gradientUnits="userSpaceOnUse">
<stop stop-color="#B620E0"/>
<stop offset="1" stop-color="#0047FF"/>
</linearGradient>
<linearGradient id="paint49_linear_2378_321" x1="182.993" y1="892.019" x2="1015.94" y2="745.148" gradientUnits="userSpaceOnUse">
<stop stop-color="#B620E0"/>
<stop offset="1" stop-color="#0047FF"/>
</linearGradient>
<linearGradient id="paint50_linear_2378_321" x1="182.358" y1="897.474" x2="1009.34" y2="736.724" gradientUnits="userSpaceOnUse">
<stop stop-color="#B620E0"/>
<stop offset="1" stop-color="#0047FF"/>
</linearGradient>
<linearGradient id="paint51_linear_2378_321" x1="181.881" y1="902.923" x2="1002.68" y2="728.456" gradientUnits="userSpaceOnUse">
<stop stop-color="#B620E0"/>
<stop offset="1" stop-color="#0047FF"/>
</linearGradient>
<linearGradient id="paint52_linear_2378_321" x1="181.574" y1="908.362" x2="995.963" y2="720.346" gradientUnits="userSpaceOnUse">
<stop stop-color="#B620E0"/>
<stop offset="1" stop-color="#0047FF"/>
</linearGradient>
<linearGradient id="paint53_linear_2378_321" x1="181.422" y1="913.788" x2="989.178" y2="712.392" gradientUnits="userSpaceOnUse">
<stop stop-color="#B620E0"/>
<stop offset="1" stop-color="#0047FF"/>
</linearGradient>
<linearGradient id="paint54_linear_2378_321" x1="181.434" y1="919.196" x2="982.338" y2="704.594" gradientUnits="userSpaceOnUse">
<stop stop-color="#B620E0"/>
<stop offset="1" stop-color="#0047FF"/>
</linearGradient>
<linearGradient id="paint55_linear_2378_321" x1="181.609" y1="924.585" x2="975.448" y2="696.956" gradientUnits="userSpaceOnUse">
<stop stop-color="#B620E0"/>
<stop offset="1" stop-color="#0047FF"/>
</linearGradient>
<linearGradient id="paint56_linear_2378_321" x1="181.946" y1="929.952" x2="968.51" y2="689.475" gradientUnits="userSpaceOnUse">
<stop stop-color="#B620E0"/>
<stop offset="1" stop-color="#0047FF"/>
</linearGradient>
<linearGradient id="paint57_linear_2378_321" x1="182.444" y1="935.292" x2="961.528" y2="682.153" gradientUnits="userSpaceOnUse">
<stop stop-color="#B620E0"/>
<stop offset="1" stop-color="#0047FF"/>
</linearGradient>
<linearGradient id="paint58_linear_2378_321" x1="183.102" y1="940.602" x2="954.503" y2="674.988" gradientUnits="userSpaceOnUse">
<stop stop-color="#B620E0"/>
<stop offset="1" stop-color="#0047FF"/>
</linearGradient>
<linearGradient id="paint59_linear_2378_321" x1="183.919" y1="945.88" x2="947.441" y2="667.981" gradientUnits="userSpaceOnUse">
<stop stop-color="#B620E0"/>
<stop offset="1" stop-color="#0047FF"/>
</linearGradient>
<linearGradient id="paint60_linear_2378_321" x1="184.898" y1="951.121" x2="940.347" y2="661.132" gradientUnits="userSpaceOnUse">
<stop stop-color="#B620E0"/>
<stop offset="1" stop-color="#0047FF"/>
</linearGradient>
<linearGradient id="paint61_linear_2378_321" x1="186.029" y1="956.323" x2="933.217" y2="654.439" gradientUnits="userSpaceOnUse">
<stop stop-color="#B620E0"/>
<stop offset="1" stop-color="#0047FF"/>
</linearGradient>
<linearGradient id="paint62_linear_2378_321" x1="187.319" y1="961.481" x2="926.063" y2="647.903" gradientUnits="userSpaceOnUse">
<stop stop-color="#B620E0"/>
<stop offset="1" stop-color="#0047FF"/>
</linearGradient>
<linearGradient id="paint63_linear_2378_321" x1="188.769" y1="966.594" x2="918.888" y2="641.524" gradientUnits="userSpaceOnUse">
<stop stop-color="#B620E0"/>
<stop offset="1" stop-color="#0047FF"/>
</linearGradient>
<linearGradient id="paint64_linear_2378_321" x1="190.37" y1="971.659" x2="911.69" y2="635.302" gradientUnits="userSpaceOnUse">
<stop stop-color="#B620E0"/>
<stop offset="1" stop-color="#0047FF"/>
</linearGradient>
<linearGradient id="paint65_linear_2378_321" x1="192.123" y1="976.67" x2="904.472" y2="629.234" gradientUnits="userSpaceOnUse">
<stop stop-color="#B620E0"/>
<stop offset="1" stop-color="#0047FF"/>
</linearGradient>
<linearGradient id="paint66_linear_2378_321" x1="194.035" y1="981.627" x2="897.248" y2="623.322" gradientUnits="userSpaceOnUse">
<stop stop-color="#B620E0"/>
<stop offset="1" stop-color="#0047FF"/>
</linearGradient>
<linearGradient id="paint67_linear_2378_321" x1="196.095" y1="986.524" x2="890.01" y2="617.563" gradientUnits="userSpaceOnUse">
<stop stop-color="#B620E0"/>
<stop offset="1" stop-color="#0047FF"/>
</linearGradient>
<linearGradient id="paint68_linear_2378_321" x1="198.306" y1="991.361" x2="882.766" y2="611.959" gradientUnits="userSpaceOnUse">
<stop stop-color="#B620E0"/>
<stop offset="1" stop-color="#0047FF"/>
</linearGradient>
<linearGradient id="paint69_linear_2378_321" x1="200.662" y1="996.134" x2="875.515" y2="606.507" gradientUnits="userSpaceOnUse">
<stop stop-color="#B620E0"/>
<stop offset="1" stop-color="#0047FF"/>
</linearGradient>
<linearGradient id="paint70_linear_2378_321" x1="203.17" y1="1000.84" x2="868.269" y2="601.206" gradientUnits="userSpaceOnUse">
<stop stop-color="#B620E0"/>
<stop offset="1" stop-color="#0047FF"/>
</linearGradient>
<linearGradient id="paint71_linear_2378_321" x1="205.821" y1="1005.47" x2="861.023" y2="596.055" gradientUnits="userSpaceOnUse">
<stop stop-color="#B620E0"/>
<stop offset="1" stop-color="#0047FF"/>
</linearGradient>
<linearGradient id="paint72_linear_2378_321" x1="208.62" y1="1010.03" x2="853.787" y2="591.056" gradientUnits="userSpaceOnUse">
<stop stop-color="#B620E0"/>
<stop offset="1" stop-color="#0047FF"/>
</linearGradient>
<linearGradient id="paint73_linear_2378_321" x1="211.563" y1="1014.51" x2="846.561" y2="586.203" gradientUnits="userSpaceOnUse">
<stop stop-color="#B620E0"/>
<stop offset="1" stop-color="#0047FF"/>
</linearGradient>
<linearGradient id="paint74_linear_2378_321" x1="214.641" y1="1018.92" x2="839.341" y2="581.498" gradientUnits="userSpaceOnUse">
<stop stop-color="#B620E0"/>
<stop offset="1" stop-color="#0047FF"/>
</linearGradient>
<linearGradient id="paint75_linear_2378_321" x1="217.863" y1="1023.24" x2="832.144" y2="576.941" gradientUnits="userSpaceOnUse">
<stop stop-color="#B620E0"/>
<stop offset="1" stop-color="#0047FF"/>
</linearGradient>
<linearGradient id="paint76_linear_2378_321" x1="221.222" y1="1027.48" x2="824.962" y2="572.527" gradientUnits="userSpaceOnUse">
<stop stop-color="#B620E0"/>
<stop offset="1" stop-color="#0047FF"/>
</linearGradient>
<linearGradient id="paint77_linear_2378_321" x1="224.716" y1="1031.63" x2="817.803" y2="568.258" gradientUnits="userSpaceOnUse">
<stop stop-color="#B620E0"/>
<stop offset="1" stop-color="#0047FF"/>
</linearGradient>
<linearGradient id="paint78_linear_2378_321" x1="228.347" y1="1035.69" x2="810.672" y2="564.129" gradientUnits="userSpaceOnUse">
<stop stop-color="#B620E0"/>
<stop offset="1" stop-color="#0047FF"/>
</linearGradient>
<linearGradient id="paint79_linear_2378_321" x1="232.105" y1="1039.65" x2="803.562" y2="560.141" gradientUnits="userSpaceOnUse">
<stop stop-color="#B620E0"/>
<stop offset="1" stop-color="#0047FF"/>
</linearGradient>
<linearGradient id="paint80_linear_2378_321" x1="236.001" y1="1043.52" x2="796.492" y2="556.293" gradientUnits="userSpaceOnUse">
<stop stop-color="#B620E0"/>
<stop offset="1" stop-color="#0047FF"/>
</linearGradient>
<linearGradient id="paint81_linear_2378_321" x1="240.019" y1="1047.29" x2="789.448" y2="552.581" gradientUnits="userSpaceOnUse">
<stop stop-color="#B620E0"/>
<stop offset="1" stop-color="#0047FF"/>
</linearGradient>
<linearGradient id="paint82_linear_2378_321" x1="244.164" y1="1050.96" x2="782.443" y2="549.005" gradientUnits="userSpaceOnUse">
<stop stop-color="#B620E0"/>
<stop offset="1" stop-color="#0047FF"/>
</linearGradient>
<linearGradient id="paint83_linear_2378_321" x1="248.433" y1="1054.52" x2="775.477" y2="545.563" gradientUnits="userSpaceOnUse">
<stop stop-color="#B620E0"/>
<stop offset="1" stop-color="#0047FF"/>
</linearGradient>
<linearGradient id="paint84_linear_2378_321" x1="252.825" y1="1057.98" x2="768.553" y2="542.254" gradientUnits="userSpaceOnUse">
<stop stop-color="#B620E0"/>
<stop offset="1" stop-color="#0047FF"/>
</linearGradient>
<linearGradient id="paint85_linear_2378_321" x1="257.34" y1="1061.33" x2="761.678" y2="539.075" gradientUnits="userSpaceOnUse">
<stop stop-color="#B620E0"/>
<stop offset="1" stop-color="#0047FF"/>
</linearGradient>
<linearGradient id="paint86_linear_2378_321" x1="261.969" y1="1064.57" x2="754.846" y2="536.024" gradientUnits="userSpaceOnUse">
<stop stop-color="#B620E0"/>
<stop offset="1" stop-color="#0047FF"/>
</linearGradient>
<linearGradient id="paint87_linear_2378_321" x1="266.71" y1="1067.69" x2="748.062" y2="533.099" gradientUnits="userSpaceOnUse">
<stop stop-color="#B620E0"/>
<stop offset="1" stop-color="#0047FF"/>
</linearGradient>
<linearGradient id="paint88_linear_2378_321" x1="271.565" y1="1070.7" x2="741.331" y2="530.299" gradientUnits="userSpaceOnUse">
<stop stop-color="#B620E0"/>
<stop offset="1" stop-color="#0047FF"/>
</linearGradient>
<linearGradient id="paint89_linear_2378_321" x1="276.533" y1="1073.59" x2="734.657" y2="527.622" gradientUnits="userSpaceOnUse">
<stop stop-color="#B620E0"/>
<stop offset="1" stop-color="#0047FF"/>
</linearGradient>
<linearGradient id="paint90_linear_2378_321" x1="281.609" y1="1076.36" x2="728.041" y2="525.066" gradientUnits="userSpaceOnUse">
<stop stop-color="#B620E0"/>
<stop offset="1" stop-color="#0047FF"/>
</linearGradient>
<linearGradient id="paint91_linear_2378_321" x1="286.787" y1="1079.01" x2="721.482" y2="522.627" gradientUnits="userSpaceOnUse">
<stop stop-color="#B620E0"/>
<stop offset="1" stop-color="#0047FF"/>
</linearGradient>
<linearGradient id="paint92_linear_2378_321" x1="292.068" y1="1081.53" x2="714.984" y2="520.306" gradientUnits="userSpaceOnUse">
<stop stop-color="#B620E0"/>
<stop offset="1" stop-color="#0047FF"/>
</linearGradient>
<linearGradient id="paint93_linear_2378_321" x1="297.451" y1="1083.93" x2="708.553" y2="518.096" gradientUnits="userSpaceOnUse">
<stop stop-color="#B620E0"/>
<stop offset="1" stop-color="#0047FF"/>
</linearGradient>
<linearGradient id="paint94_linear_2378_321" x1="302.931" y1="1086.2" x2="702.187" y2="516" gradientUnits="userSpaceOnUse">
<stop stop-color="#B620E0"/>
<stop offset="1" stop-color="#0047FF"/>
</linearGradient>
<linearGradient id="paint95_linear_2378_321" x1="308.508" y1="1088.33" x2="695.891" y2="514.012" gradientUnits="userSpaceOnUse">
<stop stop-color="#B620E0"/>
<stop offset="1" stop-color="#0047FF"/>
</linearGradient>
<linearGradient id="paint96_linear_2378_321" x1="314.17" y1="1090.33" x2="689.659" y2="512.133" gradientUnits="userSpaceOnUse">
<stop stop-color="#B620E0"/>
<stop offset="1" stop-color="#0047FF"/>
</linearGradient>
<linearGradient id="paint97_linear_2378_321" x1="319.928" y1="1092.2" x2="683.506" y2="510.358" gradientUnits="userSpaceOnUse">
<stop stop-color="#B620E0"/>
<stop offset="1" stop-color="#0047FF"/>
</linearGradient>
<linearGradient id="paint98_linear_2378_321" x1="325.771" y1="1093.94" x2="677.425" y2="508.685" gradientUnits="userSpaceOnUse">
<stop stop-color="#B620E0"/>
<stop offset="1" stop-color="#0047FF"/>
</linearGradient>
<linearGradient id="paint99_linear_2378_321" x1="331.699" y1="1095.53" x2="671.422" y2="507.111" gradientUnits="userSpaceOnUse">
<stop stop-color="#B620E0"/>
<stop offset="1" stop-color="#0047FF"/>
</linearGradient>
</defs>
</svg>
