<svg width="1386" height="1579" viewBox="0 0 1386 1579" fill="none" xmlns="http://www.w3.org/2000/svg">
<path opacity="0.261307" d="M1041.45 1065.92L1001.6 1053.77C961.748 1041.61 882.041 1017.3 810.593 1027.56C739.145 1037.82 675.956 1082.65 598.084 1066.02C520.212 1049.4 427.658 971.313 351.621 962.368C275.585 953.423 216.066 1013.62 186.307 1043.71L156.548 1073.81" stroke="url(#paint0_linear_2419_56)" stroke-opacity="0.45"/>
<path opacity="0.266332" d="M1041.22 1053.41L1001.42 1041.8C961.627 1030.19 882.036 1006.96 811.436 1018.46C740.837 1029.96 679.229 1076.18 601.636 1060.67C524.043 1045.16 430.465 967.929 354.87 960.137C279.275 952.345 221.664 1013.99 192.858 1044.82L164.052 1075.64" stroke="url(#paint1_linear_2419_56)" stroke-opacity="0.45"/>
<path opacity="0.271357" d="M1040.85 1040.9L1001.12 1029.84C961.396 1018.77 881.945 996.642 812.216 1009.37C742.487 1022.1 682.479 1069.7 605.188 1055.31C527.898 1040.93 433.324 964.572 358.194 957.936C283.064 951.3 227.377 1014.39 199.533 1045.93L171.69 1077.47" stroke="url(#paint2_linear_2419_56)" stroke-opacity="0.45"/>
<path opacity="0.276382" d="M1040.34 1028.4L1000.7 1017.88C961.057 1007.37 881.77 986.336 812.932 1000.3C744.095 1014.26 685.705 1063.21 608.74 1049.96C531.776 1036.7 436.236 961.242 361.593 955.764C286.951 950.285 233.205 1014.79 206.332 1047.04L179.459 1079.3" stroke="url(#paint3_linear_2419_56)" stroke-opacity="0.45"/>
<path opacity="0.281407" d="M1039.71 1015.9L1000.16 1005.94C960.611 995.974 881.513 976.051 813.587 991.238C745.661 1006.43 688.908 1056.72 612.293 1044.6C535.678 1032.48 439.201 957.94 365.068 953.621C290.936 949.303 239.148 1015.21 213.254 1048.16L187.36 1081.11" stroke="url(#paint4_linear_2419_56)" stroke-opacity="0.45"/>
<path opacity="0.286432" d="M1038.94 1003.41L999.501 994.002C960.058 984.596 881.173 965.785 814.18 982.194C747.187 998.602 692.087 1050.23 615.845 1039.25C539.602 1028.26 442.218 954.664 368.618 951.506C295.018 948.348 245.204 1015.63 220.297 1049.27L195.389 1082.91" stroke="url(#paint5_linear_2419_56)" stroke-opacity="0.45"/>
<path opacity="0.291457" d="M1038.05 990.929L998.724 982.082C959.4 973.235 880.752 955.542 814.712 973.167C748.673 990.792 695.243 1043.74 619.397 1033.89C543.55 1024.05 445.287 951.413 372.243 949.417C299.198 947.421 251.373 1016.06 227.46 1050.38L203.547 1084.7" stroke="url(#paint6_linear_2419_56)" stroke-opacity="0.45"/>
<path opacity="0.296482" d="M1037.03 978.462L997.833 970.178C958.639 961.893 880.251 945.323 815.185 964.159C750.12 982.995 698.376 1037.24 622.949 1028.54C547.521 1019.83 448.41 948.188 375.943 947.354C303.476 946.52 257.654 1016.5 234.742 1051.49L211.831 1086.48" stroke="url(#paint7_linear_2419_56)" stroke-opacity="0.45"/>
<path opacity="0.301508" d="M1035.88 966.012L996.828 958.291C957.776 950.571 879.673 935.13 815.6 955.171C751.528 975.212 701.487 1030.74 626.501 1023.18C551.516 1015.62 451.587 944.988 379.719 945.316C307.852 945.645 264.047 1016.94 242.144 1052.59L220.241 1088.23" stroke="url(#paint8_linear_2419_56)" stroke-opacity="0.45"/>
<path opacity="0.306533" d="M1034.61 953.578L995.709 946.424C956.812 939.271 879.017 924.963 815.957 946.203C752.898 967.443 704.574 1024.23 630.053 1017.82C555.533 1011.42 454.816 941.81 383.57 943.302C312.324 944.793 270.549 1017.38 249.662 1053.67L228.775 1089.97" stroke="url(#paint9_linear_2419_56)" stroke-opacity="0.45"/>
<path opacity="0.311558" d="M1033.21 941.165L994.479 934.58C955.748 927.995 878.285 914.824 816.257 937.257C754.23 959.69 707.638 1017.73 633.605 1012.47C559.573 1007.21 458.099 938.657 387.496 941.31C316.893 943.964 277.162 1017.82 257.296 1054.75L237.43 1091.68" stroke="url(#paint10_linear_2419_56)" stroke-opacity="0.45"/>
<path opacity="0.316583" d="M1031.69 928.773L993.139 922.758C954.586 916.744 877.478 904.716 816.502 928.334C755.525 951.953 710.68 1011.22 637.157 1007.11C563.635 1003.01 461.435 935.526 391.497 939.34C321.558 943.155 283.882 1018.26 265.044 1055.82L246.206 1093.37" stroke="url(#paint11_linear_2419_56)" stroke-opacity="0.45"/>
<path opacity="0.321608" d="M1030.06 916.404L991.691 910.962C953.327 905.521 876.599 894.637 816.692 919.435C756.785 944.232 713.7 1004.71 640.71 1001.76C567.719 998.802 464.824 932.416 395.572 937.39C326.32 942.365 290.711 1018.7 272.906 1056.87L255.102 1095.04" stroke="url(#paint12_linear_2419_56)" stroke-opacity="0.45"/>
<path opacity="0.326633" d="M1028.3 904.062L990.136 899.195C951.973 894.327 875.647 884.593 816.828 910.561C758.009 936.53 716.697 998.201 644.262 996.4C571.826 994.6 468.268 929.327 399.723 935.461C331.178 941.594 297.646 1019.13 280.88 1057.9L264.114 1096.67" stroke="url(#paint13_linear_2419_56)" stroke-opacity="0.45"/>
<path opacity="0.331658" d="M1026.43 891.747L988.476 887.456C950.526 883.164 874.626 874.581 816.912 901.713C759.199 928.844 719.672 991.69 647.814 991.044C575.955 990.398 471.765 926.259 403.948 933.549C336.131 940.839 304.687 1019.56 288.965 1058.92L273.243 1098.28" stroke="url(#paint14_linear_2419_56)" stroke-opacity="0.45"/>
<path opacity="0.336683" d="M1024.44 879.463L986.711 875.749C948.986 872.035 873.534 864.606 816.944 892.892C760.354 921.179 722.625 985.18 651.366 985.688C580.106 986.196 475.315 923.211 408.247 931.655C341.178 940.1 311.832 1019.98 297.159 1059.91L282.486 1099.85" stroke="url(#paint15_linear_2419_56)" stroke-opacity="0.45"/>
<path opacity="0.341709" d="M1022.33 867.211L984.845 864.075C947.355 860.939 872.375 854.667 816.926 884.1C761.476 913.532 725.557 978.67 654.917 980.332C584.278 981.994 478.919 920.181 412.619 929.778C346.32 939.374 319.08 1020.38 305.46 1060.88L291.84 1101.39" stroke="url(#paint16_linear_2419_56)" stroke-opacity="0.45"/>
<path opacity="0.346734" d="M1020.12 854.994L982.878 852.438C945.636 849.881 871.151 844.767 816.859 875.337C762.567 905.907 728.467 972.16 658.47 974.976C588.472 977.792 482.577 917.17 417.067 927.916C351.556 938.661 326.431 1020.77 313.869 1061.83L301.306 1102.89" stroke="url(#paint17_linear_2419_56)" stroke-opacity="0.45"/>
<path opacity="0.351759" d="M1017.8 842.813L980.812 840.836C943.828 838.859 869.861 834.905 816.743 866.603C763.625 898.301 731.356 965.651 662.022 969.62C592.688 973.589 486.288 914.176 421.587 926.068C356.886 937.959 333.883 1021.15 322.382 1062.75L310.881 1104.35" stroke="url(#paint18_linear_2419_56)" stroke-opacity="0.45"/>
<path opacity="0.356784" d="M1015.36 830.671L978.649 829.275C941.935 827.879 868.508 825.086 816.58 857.902C764.652 890.718 734.223 959.144 665.574 964.264C596.924 969.384 490.053 911.2 426.181 924.233C362.309 937.267 341.435 1021.52 330.999 1063.64L320.562 1105.77" stroke="url(#paint19_linear_2419_56)" stroke-opacity="0.45"/>
<path opacity="0.361809" d="M1012.82 818.57L976.391 817.754C939.958 816.939 867.093 815.308 816.371 849.233C765.649 883.158 737.07 952.637 669.125 958.908C601.181 965.178 493.871 908.239 430.847 922.411C367.823 936.583 349.086 1021.86 339.717 1064.51L330.348 1107.15" stroke="url(#paint20_linear_2419_56)" stroke-opacity="0.45"/>
<path opacity="0.366834" d="M1010.18 806.511L974.039 806.277C937.898 806.043 865.618 805.575 816.117 840.597C766.616 875.62 739.896 946.133 672.677 953.552C605.459 960.97 497.742 905.294 435.586 920.6C373.43 935.905 356.834 1022.19 348.536 1065.34L340.238 1108.48" stroke="url(#paint21_linear_2419_56)" stroke-opacity="0.45"/>
<path opacity="0.371859" d="M1007.43 794.497L971.595 794.844C935.758 795.191 864.084 795.885 815.819 831.995C767.555 868.105 742.701 939.631 676.229 948.195C609.757 956.76 501.667 902.363 440.398 918.798C379.128 935.233 364.678 1022.5 357.454 1066.13L350.229 1109.76" stroke="url(#paint22_linear_2419_56)" stroke-opacity="0.45"/>
<path opacity="0.376884" d="M1004.58 782.53L969.062 783.458C933.539 784.387 862.493 786.243 815.48 823.43C768.467 860.616 745.487 933.132 679.781 942.839C614.076 952.547 505.645 899.447 445.281 917.006C384.916 934.565 372.618 1022.78 366.468 1066.89L360.319 1111" stroke="url(#paint23_linear_2419_56)" stroke-opacity="0.45"/>
<path opacity="0.38191" d="M1001.64 770.611L966.44 772.12C931.242 773.629 860.845 776.648 815.098 814.899C769.351 853.151 748.252 926.634 683.333 937.483C618.415 948.331 509.676 896.543 450.235 915.221C390.794 933.899 380.65 1023.04 375.578 1067.61L370.506 1112.18" stroke="url(#paint24_linear_2419_56)" stroke-opacity="0.45"/>
<path opacity="0.386935" d="M998.594 758.744L963.731 760.833C928.869 762.923 859.144 767.103 814.676 806.408C770.208 845.712 750.997 920.142 686.885 932.127C622.773 944.112 513.76 893.653 455.261 913.444C396.761 933.234 388.775 1023.28 384.782 1068.3L380.789 1113.32" stroke="url(#paint25_linear_2419_56)" stroke-opacity="0.45"/>
<path opacity="0.39196" d="M995.455 746.928L960.939 749.598C926.423 752.268 857.391 757.607 814.216 797.953C771.041 838.299 753.723 913.652 690.437 926.77C627.151 939.889 517.897 890.774 460.357 911.671C402.817 932.569 396.991 1023.48 394.078 1068.94L391.165 1114.39" stroke="url(#paint26_linear_2419_56)" stroke-opacity="0.45"/>
<path opacity="0.396985" d="M992.224 735.169L958.064 738.418C923.905 741.666 855.587 748.164 813.718 789.539C771.849 830.914 756.43 907.166 693.989 921.414C631.548 935.662 522.086 887.906 465.523 909.904C408.96 931.903 405.296 1023.66 403.464 1069.53L401.632 1115.41" stroke="url(#paint27_linear_2419_56)" stroke-opacity="0.45"/>
<path opacity="0.40201" d="M988.901 723.465L955.109 727.291C921.317 731.118 853.733 738.772 813.183 781.163C772.633 823.555 759.117 900.684 697.541 916.057C635.964 931.43 526.328 885.047 470.759 908.139C415.19 931.232 413.689 1023.8 412.939 1070.09L412.188 1116.37" stroke="url(#paint28_linear_2419_56)" stroke-opacity="0.45"/>
<path opacity="0.407035" d="M985.489 711.82L952.075 716.224C918.66 720.628 851.832 729.435 812.613 772.83C773.394 816.225 761.786 894.208 701.092 910.702C640.399 927.195 530.621 882.199 476.064 906.378C421.506 930.558 422.168 1023.91 422.5 1070.59L422.831 1117.27" stroke="url(#paint29_linear_2419_56)" stroke-opacity="0.45"/>
<path opacity="0.41206" d="M981.991 700.236L948.965 705.216C915.938 710.195 849.884 720.153 812.009 764.538C774.133 808.924 764.436 887.736 704.644 905.345C644.852 922.954 534.967 879.359 481.437 904.618C427.907 929.877 430.733 1023.99 432.146 1071.05L433.559 1118.1" stroke="url(#paint30_linear_2419_56)" stroke-opacity="0.45"/>
<path opacity="0.417085" d="M978.409 688.714L945.78 694.267C913.151 699.821 847.893 710.927 811.372 756.289C774.851 801.651 767.068 881.27 708.196 899.988C649.324 918.707 539.364 876.526 486.878 902.857C434.392 929.189 439.381 1024.03 441.875 1071.45L444.369 1118.88" stroke="url(#paint31_linear_2419_56)" stroke-opacity="0.45"/>
<path opacity="0.422111" d="M974.744 677.257L942.523 683.382C910.301 689.508 845.859 701.758 810.704 748.084C775.549 794.409 769.682 874.809 711.747 894.632C653.813 914.455 543.812 873.701 492.387 901.096C440.961 928.491 448.11 1024.04 451.685 1071.81L455.26 1119.58" stroke="url(#paint32_linear_2419_56)" stroke-opacity="0.45"/>
<path opacity="0.427136" d="M970.999 665.865L939.195 672.561C907.392 679.257 843.784 692.649 810.006 739.923C776.227 787.197 772.278 868.354 715.299 889.275C658.321 910.197 548.312 870.882 497.962 899.333C447.612 927.784 456.92 1024 461.574 1072.11L466.229 1120.21" stroke="url(#paint33_linear_2419_56)" stroke-opacity="0.45"/>
<path opacity="0.432161" d="M967.176 654.543L935.799 661.807C904.423 669.071 841.67 683.6 809.278 731.809C776.887 780.018 774.857 861.906 718.851 883.919C662.845 905.932 552.863 868.07 503.604 897.568C454.345 927.065 465.809 1023.92 471.541 1072.35L477.273 1120.78" stroke="url(#paint34_linear_2419_56)" stroke-opacity="0.45"/>
<path opacity="0.437186" d="M963.277 643.288L932.338 651.119C901.398 658.949 839.518 674.61 808.524 723.739C777.529 772.867 777.419 855.463 722.402 878.562C667.386 901.66 557.464 865.261 509.311 895.796C461.158 926.331 474.774 1023.8 481.583 1072.54L488.391 1121.27" stroke="url(#paint35_linear_2419_56)" stroke-opacity="0.45"/>
<path opacity="0.442211" d="M959.306 632.107L928.812 640.501C898.318 648.896 837.331 665.684 807.743 715.718C778.154 765.751 779.964 849.029 725.954 873.205C671.945 897.382 562.115 862.457 515.083 894.021C468.051 925.585 483.816 1023.64 491.698 1072.66L499.58 1121.69" stroke="url(#paint36_linear_2419_56)" stroke-opacity="0.45"/>
<path opacity="0.447236" d="M955.262 620.999L925.224 629.954C895.186 638.91 835.11 656.821 806.937 707.744C778.763 758.667 782.492 842.602 729.506 867.849C676.519 893.096 566.816 859.656 520.919 892.239C475.022 924.822 492.93 1023.43 501.884 1072.73L510.838 1122.04" stroke="url(#paint37_linear_2419_56)" stroke-opacity="0.45"/>
<path opacity="0.452261" d="M951.151 609.965L921.577 619.479C892.004 628.994 832.857 648.022 806.107 699.819C779.357 751.616 785.005 836.182 733.057 862.492C681.11 888.802 571.567 856.857 526.819 890.449C482.071 924.041 502.117 1023.17 512.14 1072.74L522.164 1122.3" stroke="url(#paint38_linear_2419_56)" stroke-opacity="0.45"/>
<path opacity="0.457286" d="M946.972 599.01L917.872 609.079C888.773 619.149 830.573 639.289 805.255 691.944C779.937 744.6 787.501 829.771 736.609 857.136C685.716 884.501 576.367 854.061 532.782 888.652C489.196 923.243 511.374 1022.87 522.463 1072.68L533.553 1122.49" stroke="url(#paint39_linear_2419_56)" stroke-opacity="0.45"/>
<path opacity="0.462312" d="M942.73 588.131L914.112 598.754C885.495 609.376 828.26 630.621 804.382 684.118C780.504 737.616 789.982 823.367 740.16 851.779C690.338 880.191 581.216 851.264 538.806 886.844C496.397 922.423 520.7 1022.51 532.852 1072.55L545.003 1122.59" stroke="url(#paint40_linear_2419_56)" stroke-opacity="0.45"/>
<path opacity="0.467337" d="M938.426 577.334L910.3 588.506C882.173 599.678 825.921 622.021 803.49 676.345C781.059 730.668 792.448 816.972 743.712 846.422C694.975 875.872 586.113 848.469 544.892 885.025C503.671 921.582 530.093 1022.1 543.303 1072.36L556.514 1122.62" stroke="url(#paint41_linear_2419_56)" stroke-opacity="0.45"/>
<path opacity="0.472362" d="M934.061 566.618L906.435 578.336C878.809 590.053 823.556 613.489 802.579 668.622C781.601 723.755 794.899 810.586 747.263 841.065C699.627 871.544 591.057 845.671 551.038 883.195C511.019 920.718 539.55 1021.64 553.815 1072.1L568.081 1122.56" stroke="url(#paint42_linear_2419_56)" stroke-opacity="0.45"/>
<path opacity="0.477387" d="M929.641 555.986L902.523 568.246C875.405 580.506 821.169 605.026 801.652 660.952C782.134 716.878 797.335 804.209 750.814 835.708C704.294 867.207 596.05 842.874 557.245 881.352C518.439 919.83 549.071 1021.12 564.387 1071.76L579.703 1122.41" stroke="url(#paint43_linear_2419_56)" stroke-opacity="0.45"/>
<path opacity="0.482412" d="M925.166 545.44L898.565 558.239C871.963 571.037 818.76 596.634 800.708 653.336C782.657 710.037 799.758 797.843 754.366 830.352C708.974 862.861 601.09 840.074 563.51 879.495C525.929 918.916 558.653 1020.55 575.015 1071.36L591.377 1122.18" stroke="url(#paint44_linear_2419_56)" stroke-opacity="0.45"/>
<path opacity="0.487437" d="M920.64 534.98L894.563 548.313C868.486 561.647 816.331 588.313 799.752 645.773C783.172 703.233 802.166 791.485 757.917 824.995C713.669 858.504 606.176 837.271 569.833 877.623C533.49 917.976 568.295 1019.91 585.698 1070.88L603.101 1121.85" stroke="url(#paint45_linear_2419_56)" stroke-opacity="0.45"/>
<path opacity="0.492462" d="M916.063 524.608L890.518 538.472C864.974 552.336 813.885 580.064 798.781 638.264C783.678 696.465 804.561 785.138 761.469 819.638C718.376 854.137 611.309 834.463 576.214 875.735C541.118 917.006 577.995 1019.22 596.433 1070.33L614.871 1121.44" stroke="url(#paint46_linear_2419_56)" stroke-opacity="0.45"/>
<path opacity="0.497487" d="M911.439 514.326L886.435 528.717C861.431 543.107 811.422 571.888 797.8 630.812C784.178 689.735 806.943 778.802 765.02 814.281C723.097 849.76 616.487 831.652 582.65 873.83C548.814 916.007 587.75 1018.47 607.218 1069.7L626.686 1120.93" stroke="url(#paint47_linear_2419_56)" stroke-opacity="0.45"/>
<path opacity="0.502513" d="M906.771 504.136L882.315 519.048C857.858 533.961 808.945 563.786 796.809 623.414C784.672 683.043 809.312 772.476 768.571 808.924C727.831 845.372 621.711 828.835 589.143 871.906C556.575 914.977 597.56 1017.66 618.052 1069L638.544 1120.34" stroke="url(#paint48_linear_2419_56)" stroke-opacity="0.45"/>
<path opacity="0.507538" d="M902.061 494.039L878.16 509.468C854.259 524.898 806.456 555.758 795.809 616.074C785.161 676.39 811.668 766.162 772.123 803.567C732.577 840.973 626.979 826.013 595.69 869.964C564.401 913.916 607.421 1016.78 628.931 1068.21L650.441 1119.64" stroke="url(#paint49_linear_2419_56)" stroke-opacity="0.45"/>
<path opacity="0.512563" d="M897.311 484.035L873.972 499.978C850.634 515.921 803.957 547.806 794.802 608.791C785.646 669.775 814.013 759.858 775.674 798.21C737.335 836.562 632.292 823.183 602.291 868.001C572.29 912.82 617.333 1015.84 639.854 1067.34L662.375 1118.85" stroke="url(#paint50_linear_2419_56)" stroke-opacity="0.45"/>
<path opacity="0.517588" d="M892.523 474.127L869.754 490.578C846.985 507.029 801.448 539.93 793.788 601.565C786.128 663.199 816.345 753.567 779.224 792.853C742.104 832.14 637.647 820.346 608.944 866.017C580.241 911.689 627.292 1014.83 650.817 1066.4L674.343 1117.96" stroke="url(#paint51_linear_2419_56)" stroke-opacity="0.45"/>
<path opacity="0.522613" d="M887.702 464.317L865.51 481.27C843.318 498.224 798.934 532.131 792.771 594.397C786.608 656.663 818.667 747.287 782.776 787.496C746.886 827.705 643.047 817.5 615.65 864.011C588.253 910.522 637.299 1013.75 661.821 1065.36L686.344 1116.98" stroke="url(#paint52_linear_2419_56)" stroke-opacity="0.45"/>
<path opacity="0.527638" d="M882.848 454.605L861.239 472.057C839.631 489.508 796.414 524.411 791.75 587.289C787.087 650.167 820.977 741.02 786.327 782.14C751.678 823.259 648.488 814.646 622.406 861.982C596.324 909.318 647.349 1012.6 672.861 1064.25L698.374 1115.89" stroke="url(#paint53_linear_2419_56)" stroke-opacity="0.45"/>
<path opacity="0.532663" d="M877.964 444.992L856.946 462.936C835.927 480.88 793.89 516.768 790.728 580.239C787.565 643.71 823.276 734.764 789.878 776.782C756.48 818.799 653.971 811.78 629.212 859.927C604.452 908.074 657.441 1011.39 683.936 1063.04L710.43 1114.7" stroke="url(#paint54_linear_2419_56)" stroke-opacity="0.45"/>
<path opacity="0.537688" d="M873.055 435.481L852.632 453.912C832.21 472.343 791.366 509.204 789.705 573.249C788.044 637.294 825.566 728.522 793.429 771.425C761.292 814.328 659.496 808.905 636.067 857.848C612.637 906.791 667.574 1010.1 695.043 1061.76L722.511 1113.41" stroke="url(#paint55_linear_2419_56)" stroke-opacity="0.45"/>
<path opacity="0.542714" d="M868.12 426.072L848.301 444.984C828.481 463.896 788.842 501.721 788.683 566.32C788.525 630.919 827.846 722.293 796.98 766.068C766.114 809.843 665.062 806.018 642.97 855.742C620.878 905.467 677.745 1008.74 706.179 1060.38L734.613 1112.01" stroke="url(#paint56_linear_2419_56)" stroke-opacity="0.45"/>
<path opacity="0.547739" d="M863.164 416.766L843.953 436.154C824.743 455.542 786.321 494.317 787.664 559.451C789.008 624.585 830.116 716.077 800.531 760.71C770.946 805.344 670.668 803.118 649.92 853.609C629.171 904.099 687.953 1007.31 717.344 1058.91L746.735 1110.51" stroke="url(#paint57_linear_2419_56)" stroke-opacity="0.45"/>
<path opacity="0.552764" d="M858.189 407.565L839.593 427.423C820.997 447.28 783.804 486.996 786.649 552.644C789.494 618.293 832.377 709.875 804.082 755.353C775.787 800.832 676.313 800.206 656.915 851.448C637.517 902.689 698.195 1005.8 728.533 1057.35L758.872 1108.9" stroke="url(#paint58_linear_2419_56)" stroke-opacity="0.45"/>
<path opacity="0.557789" d="M853.198 398.47L835.222 418.791C817.246 439.113 781.294 479.756 785.64 545.899C789.986 612.042 834.63 703.687 807.633 749.996C780.636 796.306 681.998 797.281 663.956 849.257C645.915 901.233 708.469 1004.21 739.747 1055.7L771.024 1107.19" stroke="url(#paint59_linear_2419_56)" stroke-opacity="0.45"/>
<path opacity="0.562814" d="M848.192 389.482L830.841 410.261C813.491 431.04 778.79 472.597 784.636 539.215C790.482 605.833 836.874 697.512 811.183 744.639C785.493 791.765 687.72 794.34 671.04 847.036C654.36 899.731 718.773 1002.55 750.979 1053.96L783.186 1105.36" stroke="url(#paint60_linear_2419_56)" stroke-opacity="0.45"/>
<path opacity="0.567839" d="M843.176 380.603L826.456 401.832C809.737 423.062 776.298 465.522 783.641 532.595C790.985 599.667 839.111 691.352 814.735 739.282C790.359 787.211 693.481 791.385 678.167 844.784C662.854 898.183 729.106 1000.81 762.231 1052.12L795.357 1103.43" stroke="url(#paint61_linear_2419_56)" stroke-opacity="0.45"/>
<path opacity="0.572864" d="M838.15 371.832L822.066 393.507C805.983 415.182 773.816 458.531 782.656 526.037C791.495 593.544 841.34 685.207 818.286 733.925C795.231 782.642 699.278 788.414 685.336 842.5C671.394 896.586 739.464 998.986 773.499 1050.19L807.534 1101.39" stroke="url(#paint62_linear_2419_56)" stroke-opacity="0.45"/>
<path opacity="0.577889" d="M833.118 363.172L817.676 385.285C802.233 407.398 771.348 451.623 781.68 519.543C792.013 587.463 843.562 679.077 821.836 728.568C800.111 778.059 705.111 785.426 692.544 840.183C679.978 894.939 749.846 997.084 784.78 1048.16L819.714 1099.23" stroke="url(#paint63_linear_2419_56)" stroke-opacity="0.45"/>
<path opacity="0.582915" d="M828.083 354.623L813.286 377.167C798.49 399.712 768.896 444.8 780.718 513.112C792.54 581.425 845.777 672.961 825.387 723.21C804.997 773.46 710.979 782.421 699.793 837.831C688.606 893.241 760.25 995.1 796.073 1046.03L831.895 1096.96" stroke="url(#paint64_linear_2419_56)" stroke-opacity="0.45"/>
<path opacity="0.58794" d="M823.047 346.186L808.901 369.155C794.754 392.123 766.461 438.06 779.769 506.745C793.077 575.429 847.987 666.86 828.938 717.853C809.89 768.845 716.883 779.397 707.079 835.444C697.276 891.491 770.675 993.033 807.374 1043.8L844.074 1094.57" stroke="url(#paint65_linear_2419_56)" stroke-opacity="0.45"/>
<path opacity="0.592965" d="M818.013 337.863L804.521 361.249C791.029 384.635 764.044 431.408 778.835 500.443C793.625 569.478 850.19 660.776 832.489 712.496C814.788 764.215 722.821 776.356 714.403 833.023C705.985 889.69 781.116 990.883 818.682 1041.48L856.247 1092.08" stroke="url(#paint66_linear_2419_56)" stroke-opacity="0.45"/>
<path opacity="0.59799" d="M812.983 329.654L800.149 353.45C787.316 377.247 761.649 424.84 777.917 494.205C794.185 563.57 852.387 654.707 836.039 707.138C819.691 759.569 728.792 773.294 721.762 830.564C714.733 887.833 791.573 988.647 829.994 1039.05L868.414 1089.46" stroke="url(#paint67_linear_2419_56)" stroke-opacity="0.45"/>
<path opacity="0.603015" d="M807.961 321.559L795.79 345.759C783.618 369.958 759.276 418.358 777.017 488.031C794.757 557.705 854.581 648.654 839.59 701.781C824.6 754.908 734.796 770.213 729.157 828.067C723.518 885.922 802.045 986.326 841.308 1036.53L880.571 1086.73" stroke="url(#paint68_linear_2419_56)" stroke-opacity="0.45"/>
<path opacity="0.60804" d="M802.947 313.58L791.442 338.176C779.937 362.771 756.927 411.962 776.135 481.923C795.343 551.885 856.768 642.617 843.14 696.423C829.512 750.23 740.83 767.11 736.584 825.532C732.338 883.954 812.526 983.918 852.621 1033.9L892.715 1083.88" stroke="url(#paint69_linear_2419_56)" stroke-opacity="0.45"/>
<path opacity="0.613065" d="M797.946 305.719L787.111 330.702C776.276 355.686 754.605 405.653 775.274 475.88C795.944 546.108 858.952 636.597 846.691 691.066C834.429 745.535 746.897 763.986 744.045 822.958C741.192 881.929 823.018 981.422 863.931 1031.17L904.844 1080.92" stroke="url(#paint70_linear_2419_56)" stroke-opacity="0.45"/>
<path opacity="0.61809" d="M792.959 297.974L782.797 323.338C772.635 348.702 752.311 399.431 774.435 469.903C796.559 540.376 861.132 630.593 850.241 685.708C839.35 740.824 752.994 760.839 751.536 820.343C750.078 879.846 833.517 978.839 875.236 1028.33L916.956 1077.83" stroke="url(#paint71_linear_2419_56)" stroke-opacity="0.45"/>
<path opacity="0.623116" d="M787.991 290.348L778.505 316.085C769.019 341.822 750.047 393.296 773.619 463.992C797.192 534.688 863.31 624.606 853.792 680.351C844.274 736.097 759.121 757.67 759.058 817.688C758.994 877.705 844.021 976.166 886.534 1025.4L929.047 1074.63" stroke="url(#paint72_linear_2419_56)" stroke-opacity="0.45"/>
<path opacity="0.628141" d="M783.042 282.84L774.235 308.942C765.428 335.044 747.814 387.249 772.828 458.146C797.842 529.044 865.484 618.636 857.342 674.994C849.201 731.352 765.277 754.478 766.608 814.99C767.94 875.503 854.528 973.402 897.822 1022.35L941.115 1071.3" stroke="url(#paint73_linear_2419_56)" stroke-opacity="0.45"/>
<path opacity="0.633166" d="M778.116 275.452L769.991 301.911C761.865 328.37 745.614 381.289 772.062 452.367C798.509 523.445 867.655 612.682 860.893 669.636C854.13 726.59 771.46 751.261 774.186 812.25C776.912 873.24 865.035 970.548 909.096 1019.2L953.158 1067.86" stroke="url(#paint74_linear_2419_56)" stroke-opacity="0.45"/>
<path opacity="0.638191" d="M773.215 268.183L765.773 294.991C758.332 321.8 743.45 375.416 771.323 446.653C799.196 517.89 869.824 606.746 864.443 664.279C859.061 721.811 777.67 748.019 781.79 809.466C785.91 870.914 875.541 967.602 920.356 1015.95L965.172 1064.29" stroke="url(#paint75_linear_2419_56)" stroke-opacity="0.45"/>
<path opacity="0.643216" d="M768.342 261.035L761.587 288.184C754.832 315.334 741.322 369.632 770.612 441.006C799.902 512.379 871.992 600.828 867.993 658.921C863.994 717.014 783.907 744.751 789.42 806.638C794.932 868.526 886.044 964.563 931.6 1012.58L977.156 1060.6" stroke="url(#paint76_linear_2419_56)" stroke-opacity="0.45"/>
<path opacity="0.648241" d="M763.499 254.009L757.432 281.491C751.366 308.973 739.233 363.936 769.931 435.425C800.629 506.914 874.158 594.928 871.544 653.564C868.929 712.2 790.17 741.458 797.073 803.766C803.976 866.074 896.541 961.432 942.824 1009.11L989.106 1056.79" stroke="url(#paint77_linear_2419_56)" stroke-opacity="0.45"/>
<path opacity="0.653266" d="M758.689 247.104L753.313 274.911C747.937 302.717 737.185 358.329 769.281 429.911C801.378 501.493 876.324 589.045 875.094 648.206C873.864 707.367 796.458 738.137 804.749 800.847C813.041 863.557 907.031 958.207 954.026 1005.53L1001.02 1052.86" stroke="url(#paint78_linear_2419_56)" stroke-opacity="0.45"/>
<path opacity="0.658291" d="M753.914 240.322L749.23 268.444C744.546 296.566 735.178 352.81 768.664 424.464C802.15 496.117 878.489 583.181 878.644 642.849C878.799 702.517 802.769 734.79 812.447 797.883C822.125 860.975 917.511 954.888 965.204 1001.84L1012.9 1048.8" stroke="url(#paint79_linear_2419_56)" stroke-opacity="0.45"/>
<path opacity="0.663317" d="M749.177 233.662L745.187 262.091C741.196 290.52 733.214 347.378 768.079 419.082C802.944 490.785 880.654 577.334 882.194 637.491C883.734 697.648 809.103 731.414 820.164 794.87C831.226 858.326 927.979 951.473 976.356 998.046L1024.73 1044.62" stroke="url(#paint80_linear_2419_56)" stroke-opacity="0.45"/>
<path opacity="0.668342" d="M744.481 227.126L741.185 255.853C737.889 284.581 731.297 342.036 767.53 413.768C803.762 485.499 882.82 571.506 885.744 632.134C888.669 692.762 815.46 728.01 827.901 791.81C840.342 855.61 938.433 947.963 987.479 994.139L1036.52 1040.32" stroke="url(#paint81_linear_2419_56)" stroke-opacity="0.45"/>
<path opacity="0.673367" d="M739.828 220.712L737.228 249.729C734.627 278.747 729.426 336.782 767.016 408.519C804.606 480.257 884.987 565.697 889.295 626.776C893.603 687.856 821.838 724.576 835.655 788.701C849.472 852.826 948.871 944.356 998.571 990.121L1048.27 1035.89" stroke="url(#paint82_linear_2419_56)" stroke-opacity="0.45"/>
<path opacity="0.678392" d="M735.22 214.422L733.316 243.72C731.412 273.018 727.604 331.615 766.539 403.337C805.475 475.059 887.154 559.905 892.845 621.419C898.535 682.932 828.236 721.113 843.425 785.543C858.614 849.973 959.291 940.652 1009.63 985.992L1059.97 1031.33" stroke="url(#paint83_linear_2419_56)" stroke-opacity="0.45"/>
<path opacity="0.683417" d="M730.661 208.255L729.453 237.826C728.246 267.396 725.832 326.537 766.101 398.221C806.371 469.905 889.324 554.132 896.395 616.061C903.465 677.989 834.654 717.618 851.21 782.334C867.767 847.05 969.69 936.852 1020.65 981.752L1071.61 1026.65" stroke="url(#paint84_linear_2419_56)" stroke-opacity="0.45"/>
<path opacity="0.688442" d="M726.151 202.214L725.641 232.047C725.131 261.881 724.112 321.548 765.702 393.173C807.293 464.797 891.495 548.379 899.944 610.703C908.394 673.028 841.091 714.094 859.009 779.076C876.928 844.057 980.067 932.954 1031.64 977.402L1083.21 1021.85" stroke="url(#paint85_linear_2419_56)" stroke-opacity="0.45"/>
<path opacity="0.693467" d="M721.695 196.297L721.883 226.384C722.07 256.472 722.446 316.647 765.345 388.19C808.245 459.733 893.669 542.645 903.495 605.346C913.32 668.047 847.546 710.538 866.821 775.765C886.096 840.993 990.42 928.957 1042.58 972.939L1094.74 1016.92" stroke="url(#paint86_linear_2419_56)" stroke-opacity="0.45"/>
<path opacity="0.698492" d="M717.294 190.504L718.179 220.836C719.064 251.168 720.834 311.833 765.03 383.273C809.226 454.713 895.847 536.929 907.045 599.988C918.243 663.047 854.018 706.95 874.644 772.403C895.27 837.857 1000.75 924.862 1053.48 968.364L1106.22 1011.87" stroke="url(#paint87_linear_2419_56)" stroke-opacity="0.45"/>
<path opacity="0.703518" d="M712.95 184.836L714.533 215.403C716.115 245.971 719.28 307.107 764.757 378.422C810.235 449.737 898.027 531.233 910.594 594.63C923.162 658.028 860.505 703.328 882.476 768.988C904.446 834.648 1011.04 920.668 1064.34 963.677L1117.64 1006.69" stroke="url(#paint88_linear_2419_56)" stroke-opacity="0.45"/>
<path opacity="0.708543" d="M708.668 179.293L710.946 210.087C713.225 240.881 717.783 302.469 764.53 373.637C811.276 444.806 900.211 525.556 914.144 589.273C928.077 652.99 867.009 699.675 890.317 765.521C913.625 831.367 1021.31 916.374 1075.15 958.878L1129 1001.38" stroke="url(#paint89_linear_2419_56)" stroke-opacity="0.45"/>
<path opacity="0.713568" d="M704.447 173.874L707.422 204.885C710.397 235.896 716.347 297.917 764.347 368.918C812.348 439.919 902.399 519.898 917.694 583.915C932.989 647.932 873.526 695.987 898.165 761.999C922.804 828.011 1031.55 911.981 1085.92 953.966L1140.29 995.951" stroke="url(#paint90_linear_2419_56)" stroke-opacity="0.45"/>
<path opacity="0.718593" d="M700.291 168.581L703.961 199.799C707.631 231.017 714.971 293.454 764.212 364.264C813.452 435.075 904.592 514.26 921.244 578.557C937.895 642.855 880.057 692.265 906.019 758.423C931.982 824.582 1041.74 907.488 1096.63 948.942L1151.51 990.395" stroke="url(#paint91_linear_2419_56)" stroke-opacity="0.45"/>
<path opacity="0.723618" d="M696.203 163.413L700.567 194.829C704.931 226.245 713.659 289.077 764.124 359.676C814.589 430.276 906.791 508.642 924.794 573.2C942.796 637.758 886.6 688.509 913.878 754.793C941.156 821.078 1051.91 902.896 1107.28 943.805L1162.66 984.714" stroke="url(#paint92_linear_2419_56)" stroke-opacity="0.45"/>
<path opacity="0.728643" d="M692.184 158.368L697.241 189.973C702.297 221.577 712.411 284.786 764.085 355.153C815.759 425.519 908.994 503.042 928.343 567.842C947.692 632.641 893.155 684.717 921.74 751.107C950.325 817.497 1062.03 898.202 1117.88 938.554L1173.74 978.906" stroke="url(#paint93_linear_2419_56)" stroke-opacity="0.45"/>
<path opacity="0.733668" d="M688.237 153.45L693.985 185.233C699.733 217.016 711.228 280.582 764.096 350.694C816.964 420.806 911.204 497.464 931.893 562.485C952.582 627.505 899.721 680.89 929.604 747.365C959.487 813.841 1072.11 893.408 1128.43 933.191L1184.74 972.974" stroke="url(#paint94_linear_2419_56)" stroke-opacity="0.45"/>
<path opacity="0.738693" d="M684.364 148.655L690.801 180.608C697.238 212.56 710.113 276.464 764.158 346.3C818.203 416.137 913.419 491.904 935.442 557.127C957.465 622.35 906.296 677.027 937.468 743.568C968.641 810.108 1082.15 888.513 1138.91 927.715L1195.67 966.917" stroke="url(#paint95_linear_2419_56)" stroke-opacity="0.45"/>
<path opacity="0.743719" d="M680.568 143.985L687.693 176.096C694.817 208.208 709.066 272.431 764.272 341.97C819.478 411.509 915.641 486.364 938.992 551.769C962.343 617.173 912.881 673.126 945.333 739.712C977.785 806.298 1092.15 883.516 1149.33 922.125L1206.52 960.734" stroke="url(#paint96_linear_2419_56)" stroke-opacity="0.45"/>
<path opacity="0.748744" d="M676.85 139.439L684.66 171.7C692.47 203.961 708.089 268.483 764.44 337.704C820.79 406.925 917.871 480.845 942.541 546.411C967.212 611.978 919.472 669.19 953.194 735.801C986.916 802.411 1102.1 878.419 1159.69 916.424L1217.28 954.428" stroke="url(#paint97_linear_2419_56)" stroke-opacity="0.45"/>
<path opacity="0.753769" d="M673.214 135.018L681.706 167.418C690.199 199.819 707.184 264.62 764.661 333.502C822.138 402.384 920.108 475.346 946.091 541.054C972.074 606.762 926.072 665.216 961.053 731.831C996.035 798.446 1112 873.221 1169.98 910.609L1227.97 947.997" stroke="url(#paint98_linear_2419_56)" stroke-opacity="0.45"/>
<path opacity="0.758794" d="M669.66 130.72L678.833 163.25C688.006 195.781 706.352 260.842 764.938 329.363C823.525 397.885 922.352 469.866 949.641 535.696C976.929 601.526 932.677 661.204 968.907 727.803C1005.14 794.402 1121.85 867.922 1180.21 904.682L1238.56 941.442" stroke="url(#paint99_linear_2419_56)" stroke-opacity="0.45"/>
<path opacity="0.763819" d="M666.192 126.545L676.042 159.195C685.893 191.846 705.593 257.146 765.271 325.287C824.95 393.427 924.606 464.407 953.19 530.339C981.775 596.27 939.288 657.154 976.756 723.717C1014.22 790.28 1131.65 862.521 1190.36 898.642L1249.07 934.763" stroke="url(#paint100_linear_2419_56)" stroke-opacity="0.45"/>
<path opacity="0.768844" d="M662.811 122.492L673.336 155.253C683.86 188.013 704.91 253.534 765.662 321.272C826.413 389.011 926.867 458.967 956.739 524.98C986.612 590.994 945.902 653.065 984.597 719.571C1023.29 786.077 1141.39 857.019 1200.44 892.49L1259.49 927.961" stroke="url(#paint101_linear_2419_56)" stroke-opacity="0.45"/>
<path opacity="0.773869" d="M659.52 118.563L670.716 151.424C681.912 184.284 704.304 250.005 766.11 317.321C827.917 384.637 929.138 453.548 960.289 519.623C991.44 585.698 952.52 648.937 992.429 715.367C1032.34 781.796 1151.08 851.417 1210.45 886.227L1269.82 921.037" stroke="url(#paint102_linear_2419_56)" stroke-opacity="0.45"/>
<path opacity="0.778894" d="M656.32 114.757L668.184 147.707C680.047 180.657 703.775 246.558 766.618 313.43C829.46 380.303 931.418 448.149 963.838 514.265C996.258 580.382 959.14 644.77 1000.25 711.103C1041.36 777.435 1160.71 845.713 1220.38 879.851L1280.05 913.99" stroke="url(#paint103_linear_2419_56)" stroke-opacity="0.45"/>
<path opacity="0.78392" d="M653.214 111.071L665.742 144.102C678.27 177.132 703.326 243.192 767.186 309.602C831.045 376.011 933.709 442.77 967.388 508.908C1001.07 575.046 965.762 640.563 1008.06 706.779C1050.37 772.994 1170.28 839.908 1230.23 873.365L1290.18 906.822" stroke="url(#paint104_linear_2419_56)" stroke-opacity="0.45"/>
<path opacity="0.788945" d="M650.203 107.507L663.391 140.607C676.58 173.707 702.957 239.907 767.814 305.833C832.671 371.759 936.009 437.41 970.937 503.549C1005.86 569.689 972.383 636.315 1015.86 702.394C1059.34 768.472 1179.78 834.002 1240 866.766L1300.22 899.531" stroke="url(#paint105_linear_2419_56)" stroke-opacity="0.45"/>
<path opacity="0.79397" d="M647.291 104.064L661.135 137.224C674.98 170.383 702.67 236.703 768.505 302.125C834.34 367.547 938.32 432.072 974.487 498.192C1010.65 564.312 979.005 632.028 1023.65 697.949C1068.29 763.87 1189.23 827.996 1249.69 860.058L1310.16 892.121" stroke="url(#paint106_linear_2419_56)" stroke-opacity="0.45"/>
<path opacity="0.798995" d="M644.477 100.74L658.974 133.95C673.471 167.159 702.465 233.578 769.258 298.477C836.05 363.375 940.642 426.753 978.035 492.834C1015.43 558.916 985.625 627.7 1031.42 693.443C1077.21 759.186 1198.6 821.889 1259.3 853.24L1319.99 884.591" stroke="url(#paint107_linear_2419_56)" stroke-opacity="0.45"/>
<path opacity="0.80402" d="M641.765 97.5357L656.91 130.785C672.055 164.034 702.345 230.532 770.075 294.887C837.805 359.242 942.975 421.454 981.585 487.476C1020.19 553.498 992.243 623.33 1039.17 688.876C1086.1 754.422 1207.91 815.681 1268.82 846.311L1329.72 876.94" stroke="url(#paint108_linear_2419_56)" stroke-opacity="0.45"/>
<path opacity="0.809045" d="M639.157 94.4509L654.945 127.729C670.733 161.008 702.309 227.565 770.956 291.357C839.603 355.149 945.32 416.176 985.134 482.119C1024.95 548.062 998.858 618.92 1046.91 684.248C1094.96 749.576 1217.15 809.374 1278.25 839.274L1339.35 869.173" stroke="url(#paint109_linear_2419_56)" stroke-opacity="0.45"/>
<path opacity="0.81407" d="M636.655 91.4835L653.081 124.781C669.507 158.079 702.36 224.675 771.902 287.885C841.445 351.094 947.677 410.918 988.683 476.761C1029.69 542.604 1005.47 614.467 1054.63 679.558C1103.79 744.649 1226.33 802.967 1287.6 832.127L1348.86 861.286" stroke="url(#paint110_linear_2419_56)" stroke-opacity="0.45"/>
<path opacity="0.819095" d="M634.259 88.634L651.319 121.941C668.378 155.248 702.497 221.862 772.915 284.47C843.332 347.078 950.047 405.68 992.232 471.404C1034.42 537.127 1012.07 609.973 1062.32 674.806C1112.58 739.64 1235.42 796.461 1296.85 824.872L1358.27 853.283" stroke="url(#paint111_linear_2419_56)" stroke-opacity="0.45"/>
<path opacity="0.824121" d="M631.972 85.9009L649.66 119.207C667.348 152.513 702.723 219.125 773.994 281.112C845.264 343.099 952.429 400.462 995.781 466.046C1039.13 531.63 1018.67 605.437 1070 669.993C1121.33 734.55 1244.45 789.857 1306.01 817.51L1367.57 845.163" stroke="url(#paint112_linear_2419_56)" stroke-opacity="0.45"/>
<path opacity="0.829146" d="M629.796 83.2837L648.107 116.579C666.417 149.873 703.038 216.463 775.14 277.811C847.242 339.158 954.825 395.264 999.33 460.688C1043.84 526.113 1025.26 600.858 1077.65 665.118C1130.04 729.377 1253.4 783.153 1315.07 810.041L1376.75 836.928" stroke="url(#paint113_linear_2419_56)" stroke-opacity="0.45"/>
<path opacity="0.834171" d="M627.733 80.7811L646.661 114.055C665.588 147.328 703.444 213.876 776.355 274.565C849.266 335.254 957.234 390.085 1002.88 455.331C1048.52 520.576 1031.85 596.236 1085.28 660.179C1138.72 724.123 1262.27 776.351 1324.04 802.464L1385.82 828.578" stroke="url(#paint114_linear_2419_56)" stroke-opacity="0.45"/>
<path opacity="0.839196" d="M625.784 78.3926L645.323 111.635C664.862 144.877 703.94 211.361 777.639 271.374C851.338 331.386 959.657 384.927 1006.43 449.973C1053.2 515.019 1038.42 591.571 1092.89 655.179C1147.35 718.787 1271.06 769.451 1332.91 794.783L1394.77 820.115" stroke="url(#paint115_linear_2419_56)" stroke-opacity="0.45"/>
<path opacity="0.844221" d="M623.951 76.1173L644.096 109.318C664.24 142.519 704.529 208.92 778.993 268.237C853.456 327.555 962.094 379.788 1009.98 444.615C1057.86 509.442 1044.99 586.863 1100.47 650.116C1155.94 713.369 1279.77 762.453 1341.68 786.996L1403.6 811.538" stroke="url(#paint116_linear_2419_56)" stroke-opacity="0.45"/>
<path opacity="0.849246" d="M622.235 73.955L642.979 107.104C663.723 140.253 705.211 206.551 780.416 265.155C855.622 323.759 964.546 374.669 1013.53 439.258C1062.51 503.846 1051.54 582.112 1108.02 644.991C1164.49 707.869 1288.4 755.36 1350.36 779.105L1412.31 802.851" stroke="url(#paint117_linear_2419_56)" stroke-opacity="0.45"/>
<path opacity="0.854271" d="M620.639 71.9034L641.976 104.991C663.313 138.078 705.986 204.252 781.911 262.126C857.836 319.999 967.012 369.57 1017.08 433.9C1067.14 498.23 1058.09 577.318 1115.54 639.803C1172.99 702.288 1296.95 748.17 1358.92 771.111L1420.9 794.052" stroke="url(#paint118_linear_2419_56)" stroke-opacity="0.45"/>
<path opacity="0.859297" d="M619.163 69.9616L641.086 102.977C663.01 135.992 706.856 202.023 783.477 259.148C860.098 316.272 969.494 364.49 1020.62 428.542C1071.75 492.594 1064.62 572.479 1123.03 634.552C1181.44 696.624 1305.41 740.884 1367.39 763.013L1429.37 785.143" stroke="url(#paint119_linear_2419_56)" stroke-opacity="0.45"/>
<path opacity="0.864322" d="M617.81 68.1295L640.313 101.063C662.816 133.997 707.822 199.864 785.116 256.222C862.41 312.581 971.991 359.43 1024.17 423.184C1076.35 486.938 1071.14 567.597 1130.49 629.238C1189.85 690.879 1313.78 733.502 1375.74 754.814L1437.71 776.126" stroke="url(#paint120_linear_2419_56)" stroke-opacity="0.45"/>
<path opacity="0.869347" d="M616.58 66.4055L639.656 99.2472C662.732 132.089 708.885 197.772 786.828 253.347C864.771 308.922 974.505 354.39 1027.72 417.827C1080.94 481.264 1077.64 562.671 1137.92 623.861C1198.2 685.052 1322.06 726.027 1384 746.514L1445.93 767.001" stroke="url(#paint121_linear_2419_56)" stroke-opacity="0.45"/>
<path opacity="0.874372" d="M615.476 64.7888L639.118 97.5285C662.76 130.268 710.044 195.748 788.612 250.523C867.181 305.298 977.034 349.368 1031.27 412.469C1085.51 475.57 1084.13 557.701 1145.31 618.423C1206.5 679.145 1330.26 718.458 1392.14 738.114L1454.02 757.771" stroke="url(#paint122_linear_2419_56)" stroke-opacity="0.45"/>
<path opacity="0.879397" d="M614.498 63.2782L638.699 95.9061C662.899 128.534 711.301 193.79 790.471 247.748C869.641 301.706 979.58 344.367 1034.82 407.112C1090.06 469.857 1090.6 552.687 1152.67 612.921C1214.75 673.156 1338.36 710.795 1400.17 729.615L1461.98 748.435" stroke="url(#paint123_linear_2419_56)" stroke-opacity="0.45"/>
<path opacity="0.884422" d="M613.648 61.8718L638.4 94.3778C663.152 126.884 712.657 191.896 792.404 245.021C872.152 298.146 982.143 339.384 1038.37 401.754C1094.59 464.124 1097.05 547.627 1160 607.356C1222.94 667.085 1346.38 703.04 1408.09 721.017L1469.81 738.995" stroke="url(#paint124_linear_2419_56)" stroke-opacity="0.45"/>
<path opacity="0.889447" d="M612.928 60.5689L638.224 92.9431C663.52 125.317 714.112 190.066 794.412 242.341C874.713 294.617 984.723 334.419 1041.92 396.396C1099.11 458.373 1103.49 542.524 1167.28 601.729C1231.08 660.934 1354.29 695.193 1415.9 712.322L1477.51 729.452" stroke="url(#paint125_linear_2419_56)" stroke-opacity="0.45"/>
<path opacity="0.894472" d="M612.338 59.3686L638.17 91.6013C664.002 123.834 715.666 188.299 796.496 239.71C877.325 291.12 987.32 329.475 1045.47 391.039C1103.61 452.603 1109.91 537.377 1174.53 596.04C1239.16 654.703 1362.12 687.255 1423.6 703.531L1485.07 719.808" stroke="url(#paint126_linear_2419_56)" stroke-opacity="0.45"/>
<path opacity="0.899498" d="M611.88 58.2693L638.241 90.3506C664.601 122.432 717.322 186.594 798.655 237.123C879.989 287.653 989.935 324.548 1049.01 385.681C1108.09 446.814 1116.31 532.184 1181.74 590.287C1247.18 648.391 1369.84 679.227 1431.18 694.645L1492.51 710.063" stroke="url(#paint127_linear_2419_56)" stroke-opacity="0.45"/>
<path opacity="0.904523" d="M611.555 57.2696L638.436 89.1896C665.316 121.11 719.078 184.95 800.89 234.583C882.703 284.215 992.568 319.64 1052.56 380.323C1112.56 441.006 1122.68 526.947 1188.91 584.473C1255.14 641.998 1377.47 671.109 1438.64 685.664L1499.8 700.22" stroke="url(#paint128_linear_2419_56)" stroke-opacity="0.45"/>
<path opacity="0.909548" d="M611.364 56.3689L638.757 88.118C666.15 119.867 720.935 183.366 803.202 232.087C885.469 280.808 995.219 314.752 1056.11 374.966C1117 435.181 1129.04 521.666 1196.04 578.597C1263.04 635.527 1385 662.904 1445.98 676.592L1506.96 690.28" stroke="url(#paint129_linear_2419_56)" stroke-opacity="0.45"/>
<path opacity="0.914573" d="M611.31 55.5649L639.206 87.1335C667.102 118.702 722.895 181.839 805.592 229.634C888.288 277.429 997.889 309.881 1059.66 369.609C1121.43 429.337 1135.37 516.34 1203.12 572.658C1270.87 628.977 1392.43 654.61 1453.21 667.427L1513.99 680.243" stroke="url(#paint130_linear_2419_56)" stroke-opacity="0.45"/>
<path opacity="0.919598" d="M611.391 54.856L639.783 86.2344C668.174 117.613 724.957 180.37 808.058 227.223C891.159 274.077 1000.58 305.028 1063.21 364.251C1125.84 423.474 1141.68 510.969 1210.16 566.657C1278.64 622.346 1399.76 646.229 1460.32 658.17L1520.87 670.112" stroke="url(#paint131_linear_2419_56)" stroke-opacity="0.45"/>
<path opacity="0.924623" d="M611.61 54.2418L640.488 85.4204C669.366 116.599 727.122 178.956 810.602 224.855C894.081 270.754 1003.28 300.193 1066.76 358.893C1130.23 417.593 1147.97 505.553 1217.16 560.595C1286.35 615.638 1406.98 637.762 1467.3 648.825L1527.62 659.887" stroke="url(#paint132_linear_2419_56)" stroke-opacity="0.45"/>
<path opacity="0.929648" d="M611.968 53.72L641.324 84.6895C670.68 115.659 729.391 177.598 813.224 222.527C897.057 267.456 1006.01 295.376 1070.31 353.535C1134.6 411.694 1154.23 500.092 1224.11 554.471C1293.99 608.851 1414.11 629.211 1474.17 639.391L1534.23 649.571" stroke="url(#paint133_linear_2419_56)" stroke-opacity="0.45"/>
<path opacity="0.934673" d="M612.465 53.2902L642.29 84.041C672.115 114.792 731.764 176.293 815.925 220.24C900.085 264.186 1008.76 290.578 1073.85 348.178C1138.95 405.778 1160.47 494.588 1231.01 548.287C1301.56 601.986 1421.12 620.576 1480.91 629.87L1540.69 639.165" stroke="url(#paint134_linear_2419_56)" stroke-opacity="0.45"/>
<path opacity="0.939699" d="M613.103 52.9505L643.388 83.4731C673.672 113.996 734.241 175.041 818.704 217.991C903.167 260.942 1011.52 285.797 1077.4 342.821C1143.28 399.845 1166.68 489.039 1237.87 542.042C1309.06 595.045 1428.03 611.858 1487.52 620.264L1547.01 628.67" stroke="url(#paint135_linear_2419_56)" stroke-opacity="0.45"/>
<path opacity="0.944724" d="M613.883 52.6982L644.618 82.9835C675.352 113.269 736.822 173.84 821.562 215.78C906.301 257.721 1014.31 281.032 1080.95 337.463C1147.59 393.894 1172.86 483.444 1244.68 535.735C1316.49 588.026 1434.84 603.057 1494.01 610.572L1553.19 618.088" stroke="url(#paint136_linear_2419_56)" stroke-opacity="0.45"/>
<path opacity="0.949749" d="M614.805 52.5337L645.98 82.5725C677.156 112.611 739.508 172.689 824.499 213.608C909.489 254.526 1017.12 276.286 1084.5 332.106C1151.88 387.926 1179.02 477.806 1251.43 529.369C1323.85 580.931 1441.54 594.176 1500.38 600.799L1559.23 607.421" stroke="url(#paint137_linear_2419_56)" stroke-opacity="0.45"/>
<path opacity="0.954774" d="M615.869 52.4533L647.476 82.2364C679.084 112.019 742.299 171.586 827.514 211.47C912.729 251.354 1019.94 271.556 1088.05 326.748C1156.15 381.941 1185.15 472.123 1258.14 522.942C1331.13 573.76 1448.12 585.215 1506.62 590.942L1565.12 596.67" stroke="url(#paint138_linear_2419_56)" stroke-opacity="0.45"/>
<path opacity="0.959799" d="M617.077 52.4574L649.107 81.9756C681.137 111.494 745.196 170.53 830.61 209.368C916.023 248.205 1022.79 266.844 1091.6 321.391C1160.4 375.939 1191.24 466.396 1264.79 516.456C1338.34 566.515 1454.6 576.176 1512.73 581.006L1570.86 585.837" stroke="url(#paint139_linear_2419_56)" stroke-opacity="0.45"/>
<path opacity="0.964824" d="M618.43 52.5429L650.872 81.7873C683.314 111.032 748.197 169.521 833.784 207.3C919.371 245.078 1025.66 262.147 1095.14 316.034C1164.63 369.921 1197.31 460.625 1271.39 509.91C1345.48 559.194 1460.97 567.058 1518.71 570.99L1576.46 574.923" stroke="url(#paint140_linear_2419_56)" stroke-opacity="0.45"/>
<path opacity="0.969849" d="M619.928 52.7085L652.772 81.6702C685.617 110.632 751.305 168.556 837.038 205.264C922.772 241.973 1028.55 257.467 1098.69 310.676C1168.84 363.885 1203.34 454.81 1277.94 503.304C1352.54 551.799 1467.23 557.864 1524.57 560.897L1581.91 563.93" stroke="url(#paint141_linear_2419_56)" stroke-opacity="0.45"/>
<path opacity="0.974874" d="M621.572 52.9532L654.808 81.6235C688.045 110.294 754.518 167.634 840.372 203.262C926.226 238.889 1031.46 252.804 1102.24 305.319C1173.02 357.835 1209.35 448.951 1284.43 496.641C1359.52 544.331 1473.37 548.596 1530.29 550.728L1587.22 552.86" stroke="url(#paint142_linear_2419_56)" stroke-opacity="0.45"/>
<path opacity="0.9799" d="M623.362 53.2747L656.981 81.6447C690.6 110.015 757.838 166.755 843.786 201.29C929.735 235.826 1034.39 248.156 1105.79 299.962C1177.19 351.768 1215.32 443.048 1290.87 489.919C1366.42 536.791 1479.4 539.253 1535.89 540.484L1592.37 541.715" stroke="url(#paint143_linear_2419_56)" stroke-opacity="0.45"/>
<path opacity="0.984925" d="M625.3 53.6709L659.291 81.732C693.281 109.793 761.263 165.915 847.28 199.348C933.297 232.781 1037.35 243.524 1109.34 294.604C1181.33 345.684 1221.25 437.101 1297.25 483.139C1373.25 529.177 1485.32 529.837 1541.35 530.166L1597.38 530.496" stroke="url(#paint144_linear_2419_56)" stroke-opacity="0.45"/>
<path opacity="0.98995" d="M627.384 54.1408L661.737 81.8845C696.089 109.628 764.794 165.116 850.853 197.435C936.912 229.755 1040.32 238.908 1112.89 289.247C1185.45 339.586 1227.16 431.112 1303.58 476.302C1379.99 521.493 1491.12 520.349 1546.68 519.777L1602.24 519.205" stroke="url(#paint145_linear_2419_56)" stroke-opacity="0.45"/>
<path opacity="0.994975" d="M629.617 54.6824L664.321 82.1002C699.024 109.518 768.432 164.354 854.506 195.551C940.581 226.748 1043.32 234.307 1116.43 283.89C1189.55 333.472 1233.03 425.079 1309.84 469.408C1386.66 513.738 1496.81 510.791 1551.88 509.318L1606.96 507.844" stroke="url(#paint146_linear_2419_56)" stroke-opacity="0.45"/>
<path d="M631.998 55.2936L667.042 82.3771C702.086 109.461 772.175 163.628 858.239 193.693C944.304 223.758 1046.34 229.721 1119.98 278.532C1193.62 327.343 1238.86 419.002 1316.05 462.458C1393.24 505.913 1502.38 501.164 1556.95 498.789L1611.52 496.415" stroke="url(#paint147_linear_2419_56)" stroke-opacity="0.45"/>
<defs>
<linearGradient id="paint0_linear_2419_56" x1="623.779" y1="1173.57" x2="665.5" y2="978.176" gradientUnits="userSpaceOnUse">
<stop stop-color="#0038FF"/>
<stop offset="1" stop-color="#B620E0"/>
</linearGradient>
<linearGradient id="paint1_linear_2419_56" x1="629.61" y1="1168.69" x2="669.015" y2="971.525" gradientUnits="userSpaceOnUse">
<stop stop-color="#0038FF"/>
<stop offset="1" stop-color="#B620E0"/>
</linearGradient>
<linearGradient id="paint2_linear_2419_56" x1="635.433" y1="1163.77" x2="672.456" y2="964.82" gradientUnits="userSpaceOnUse">
<stop stop-color="#0038FF"/>
<stop offset="1" stop-color="#B620E0"/>
</linearGradient>
<linearGradient id="paint3_linear_2419_56" x1="641.247" y1="1158.82" x2="675.82" y2="958.062" gradientUnits="userSpaceOnUse">
<stop stop-color="#0038FF"/>
<stop offset="1" stop-color="#B620E0"/>
</linearGradient>
<linearGradient id="paint4_linear_2419_56" x1="647.051" y1="1153.84" x2="679.102" y2="951.253" gradientUnits="userSpaceOnUse">
<stop stop-color="#0038FF"/>
<stop offset="1" stop-color="#B620E0"/>
</linearGradient>
<linearGradient id="paint5_linear_2419_56" x1="652.844" y1="1148.82" x2="682.297" y2="944.393" gradientUnits="userSpaceOnUse">
<stop stop-color="#0038FF"/>
<stop offset="1" stop-color="#B620E0"/>
</linearGradient>
<linearGradient id="paint6_linear_2419_56" x1="658.626" y1="1143.77" x2="685.401" y2="937.485" gradientUnits="userSpaceOnUse">
<stop stop-color="#0038FF"/>
<stop offset="1" stop-color="#B620E0"/>
</linearGradient>
<linearGradient id="paint7_linear_2419_56" x1="664.395" y1="1138.69" x2="688.41" y2="930.531" gradientUnits="userSpaceOnUse">
<stop stop-color="#0038FF"/>
<stop offset="1" stop-color="#B620E0"/>
</linearGradient>
<linearGradient id="paint8_linear_2419_56" x1="670.153" y1="1133.57" x2="691.318" y2="923.532" gradientUnits="userSpaceOnUse">
<stop stop-color="#0038FF"/>
<stop offset="1" stop-color="#B620E0"/>
</linearGradient>
<linearGradient id="paint9_linear_2419_56" x1="675.897" y1="1128.42" x2="694.122" y2="916.492" gradientUnits="userSpaceOnUse">
<stop stop-color="#0038FF"/>
<stop offset="1" stop-color="#B620E0"/>
</linearGradient>
<linearGradient id="paint10_linear_2419_56" x1="681.627" y1="1123.23" x2="696.814" y2="909.413" gradientUnits="userSpaceOnUse">
<stop stop-color="#0038FF"/>
<stop offset="1" stop-color="#B620E0"/>
</linearGradient>
<linearGradient id="paint11_linear_2419_56" x1="687.342" y1="1118.02" x2="699.392" y2="902.298" gradientUnits="userSpaceOnUse">
<stop stop-color="#0038FF"/>
<stop offset="1" stop-color="#B620E0"/>
</linearGradient>
<linearGradient id="paint12_linear_2419_56" x1="693.043" y1="1112.76" x2="701.85" y2="895.149" gradientUnits="userSpaceOnUse">
<stop stop-color="#0038FF"/>
<stop offset="1" stop-color="#B620E0"/>
</linearGradient>
<linearGradient id="paint13_linear_2419_56" x1="698.727" y1="1107.48" x2="704.183" y2="887.973" gradientUnits="userSpaceOnUse">
<stop stop-color="#0038FF"/>
<stop offset="1" stop-color="#B620E0"/>
</linearGradient>
<linearGradient id="paint14_linear_2419_56" x1="704.395" y1="1102.16" x2="706.386" y2="880.772" gradientUnits="userSpaceOnUse">
<stop stop-color="#0038FF"/>
<stop offset="1" stop-color="#B620E0"/>
</linearGradient>
<linearGradient id="paint15_linear_2419_56" x1="710.045" y1="1096.8" x2="708.453" y2="873.552" gradientUnits="userSpaceOnUse">
<stop stop-color="#0038FF"/>
<stop offset="1" stop-color="#B620E0"/>
</linearGradient>
<linearGradient id="paint16_linear_2419_56" x1="715.677" y1="1091.41" x2="710.38" y2="866.316" gradientUnits="userSpaceOnUse">
<stop stop-color="#0038FF"/>
<stop offset="1" stop-color="#B620E0"/>
</linearGradient>
<linearGradient id="paint17_linear_2419_56" x1="721.291" y1="1085.99" x2="712.163" y2="859.071" gradientUnits="userSpaceOnUse">
<stop stop-color="#0038FF"/>
<stop offset="1" stop-color="#B620E0"/>
</linearGradient>
<linearGradient id="paint18_linear_2419_56" x1="726.886" y1="1080.54" x2="713.794" y2="851.823" gradientUnits="userSpaceOnUse">
<stop stop-color="#0038FF"/>
<stop offset="1" stop-color="#B620E0"/>
</linearGradient>
<linearGradient id="paint19_linear_2419_56" x1="732.461" y1="1075.05" x2="715.271" y2="844.579" gradientUnits="userSpaceOnUse">
<stop stop-color="#0038FF"/>
<stop offset="1" stop-color="#B620E0"/>
</linearGradient>
<linearGradient id="paint20_linear_2419_56" x1="738.015" y1="1069.52" x2="716.588" y2="837.346" gradientUnits="userSpaceOnUse">
<stop stop-color="#0038FF"/>
<stop offset="1" stop-color="#B620E0"/>
</linearGradient>
<linearGradient id="paint21_linear_2419_56" x1="743.549" y1="1063.97" x2="717.741" y2="830.131" gradientUnits="userSpaceOnUse">
<stop stop-color="#0038FF"/>
<stop offset="1" stop-color="#B620E0"/>
</linearGradient>
<linearGradient id="paint22_linear_2419_56" x1="749.061" y1="1058.38" x2="718.726" y2="822.942" gradientUnits="userSpaceOnUse">
<stop stop-color="#0038FF"/>
<stop offset="1" stop-color="#B620E0"/>
</linearGradient>
<linearGradient id="paint23_linear_2419_56" x1="754.551" y1="1052.75" x2="719.54" y2="815.79" gradientUnits="userSpaceOnUse">
<stop stop-color="#0038FF"/>
<stop offset="1" stop-color="#B620E0"/>
</linearGradient>
<linearGradient id="paint24_linear_2419_56" x1="760.018" y1="1047.09" x2="720.178" y2="808.682" gradientUnits="userSpaceOnUse">
<stop stop-color="#0038FF"/>
<stop offset="1" stop-color="#B620E0"/>
</linearGradient>
<linearGradient id="paint25_linear_2419_56" x1="765.461" y1="1041.4" x2="720.637" y2="801.631" gradientUnits="userSpaceOnUse">
<stop stop-color="#0038FF"/>
<stop offset="1" stop-color="#B620E0"/>
</linearGradient>
<linearGradient id="paint26_linear_2419_56" x1="770.881" y1="1035.68" x2="720.917" y2="794.645" gradientUnits="userSpaceOnUse">
<stop stop-color="#0038FF"/>
<stop offset="1" stop-color="#B620E0"/>
</linearGradient>
<linearGradient id="paint27_linear_2419_56" x1="776.276" y1="1029.92" x2="721.013" y2="787.737" gradientUnits="userSpaceOnUse">
<stop stop-color="#0038FF"/>
<stop offset="1" stop-color="#B620E0"/>
</linearGradient>
<linearGradient id="paint28_linear_2419_56" x1="781.646" y1="1024.13" x2="720.926" y2="780.918" gradientUnits="userSpaceOnUse">
<stop stop-color="#0038FF"/>
<stop offset="1" stop-color="#B620E0"/>
</linearGradient>
<linearGradient id="paint29_linear_2419_56" x1="786.991" y1="1018.31" x2="720.655" y2="774.203" gradientUnits="userSpaceOnUse">
<stop stop-color="#0038FF"/>
<stop offset="1" stop-color="#B620E0"/>
</linearGradient>
<linearGradient id="paint30_linear_2419_56" x1="792.309" y1="1012.45" x2="720.201" y2="767.604" gradientUnits="userSpaceOnUse">
<stop stop-color="#0038FF"/>
<stop offset="1" stop-color="#B620E0"/>
</linearGradient>
<linearGradient id="paint31_linear_2419_56" x1="797.6" y1="1006.56" x2="719.564" y2="761.133" gradientUnits="userSpaceOnUse">
<stop stop-color="#0038FF"/>
<stop offset="1" stop-color="#B620E0"/>
</linearGradient>
<linearGradient id="paint32_linear_2419_56" x1="802.864" y1="1000.64" x2="718.749" y2="754.807" gradientUnits="userSpaceOnUse">
<stop stop-color="#0038FF"/>
<stop offset="1" stop-color="#B620E0"/>
</linearGradient>
<linearGradient id="paint33_linear_2419_56" x1="808.101" y1="994.687" x2="717.758" y2="748.639" gradientUnits="userSpaceOnUse">
<stop stop-color="#0038FF"/>
<stop offset="1" stop-color="#B620E0"/>
</linearGradient>
<linearGradient id="paint34_linear_2419_56" x1="813.309" y1="988.702" x2="716.597" y2="742.645" gradientUnits="userSpaceOnUse">
<stop stop-color="#0038FF"/>
<stop offset="1" stop-color="#B620E0"/>
</linearGradient>
<linearGradient id="paint35_linear_2419_56" x1="818.488" y1="982.683" x2="715.271" y2="736.837" gradientUnits="userSpaceOnUse">
<stop stop-color="#0038FF"/>
<stop offset="1" stop-color="#B620E0"/>
</linearGradient>
<linearGradient id="paint36_linear_2419_56" x1="823.639" y1="976.633" x2="713.791" y2="731.235" gradientUnits="userSpaceOnUse">
<stop stop-color="#0038FF"/>
<stop offset="1" stop-color="#B620E0"/>
</linearGradient>
<linearGradient id="paint37_linear_2419_56" x1="828.759" y1="970.552" x2="712.163" y2="725.851" gradientUnits="userSpaceOnUse">
<stop stop-color="#0038FF"/>
<stop offset="1" stop-color="#B620E0"/>
</linearGradient>
<linearGradient id="paint38_linear_2419_56" x1="833.849" y1="964.439" x2="710.4" y2="720.7" gradientUnits="userSpaceOnUse">
<stop stop-color="#0038FF"/>
<stop offset="1" stop-color="#B620E0"/>
</linearGradient>
<linearGradient id="paint39_linear_2419_56" x1="838.908" y1="958.296" x2="708.515" y2="715.798" gradientUnits="userSpaceOnUse">
<stop stop-color="#0038FF"/>
<stop offset="1" stop-color="#B620E0"/>
</linearGradient>
<linearGradient id="paint40_linear_2419_56" x1="843.936" y1="952.122" x2="706.521" y2="711.157" gradientUnits="userSpaceOnUse">
<stop stop-color="#0038FF"/>
<stop offset="1" stop-color="#B620E0"/>
</linearGradient>
<linearGradient id="paint41_linear_2419_56" x1="848.933" y1="945.917" x2="704.435" y2="706.791" gradientUnits="userSpaceOnUse">
<stop stop-color="#0038FF"/>
<stop offset="1" stop-color="#B620E0"/>
</linearGradient>
<linearGradient id="paint42_linear_2419_56" x1="853.896" y1="939.681" x2="702.274" y2="702.71" gradientUnits="userSpaceOnUse">
<stop stop-color="#0038FF"/>
<stop offset="1" stop-color="#B620E0"/>
</linearGradient>
<linearGradient id="paint43_linear_2419_56" x1="858.829" y1="933.415" x2="700.059" y2="698.929" gradientUnits="userSpaceOnUse">
<stop stop-color="#0038FF"/>
<stop offset="1" stop-color="#B620E0"/>
</linearGradient>
<linearGradient id="paint44_linear_2419_56" x1="863.727" y1="927.12" x2="697.81" y2="695.454" gradientUnits="userSpaceOnUse">
<stop stop-color="#0038FF"/>
<stop offset="1" stop-color="#B620E0"/>
</linearGradient>
<linearGradient id="paint45_linear_2419_56" x1="868.593" y1="920.796" x2="695.549" y2="692.293" gradientUnits="userSpaceOnUse">
<stop stop-color="#0038FF"/>
<stop offset="1" stop-color="#B620E0"/>
</linearGradient>
<linearGradient id="paint46_linear_2419_56" x1="873.425" y1="914.441" x2="693.299" y2="689.452" gradientUnits="userSpaceOnUse">
<stop stop-color="#0038FF"/>
<stop offset="1" stop-color="#B620E0"/>
</linearGradient>
<linearGradient id="paint47_linear_2419_56" x1="878.223" y1="908.059" x2="691.085" y2="686.934" gradientUnits="userSpaceOnUse">
<stop stop-color="#0038FF"/>
<stop offset="1" stop-color="#B620E0"/>
</linearGradient>
<linearGradient id="paint48_linear_2419_56" x1="882.986" y1="901.647" x2="688.934" y2="684.742" gradientUnits="userSpaceOnUse">
<stop stop-color="#0038FF"/>
<stop offset="1" stop-color="#B620E0"/>
</linearGradient>
<linearGradient id="paint49_linear_2419_56" x1="887.714" y1="895.208" x2="686.87" y2="682.873" gradientUnits="userSpaceOnUse">
<stop stop-color="#0038FF"/>
<stop offset="1" stop-color="#B620E0"/>
</linearGradient>
<linearGradient id="paint50_linear_2419_56" x1="892.408" y1="888.74" x2="684.92" y2="681.324" gradientUnits="userSpaceOnUse">
<stop stop-color="#0038FF"/>
<stop offset="1" stop-color="#B620E0"/>
</linearGradient>
<linearGradient id="paint51_linear_2419_56" x1="897.064" y1="882.244" x2="683.11" y2="680.088" gradientUnits="userSpaceOnUse">
<stop stop-color="#0038FF"/>
<stop offset="1" stop-color="#B620E0"/>
</linearGradient>
<linearGradient id="paint52_linear_2419_56" x1="901.687" y1="875.722" x2="681.468" y2="679.157" gradientUnits="userSpaceOnUse">
<stop stop-color="#0038FF"/>
<stop offset="1" stop-color="#B620E0"/>
</linearGradient>
<linearGradient id="paint53_linear_2419_56" x1="906.272" y1="869.173" x2="680.017" y2="678.519" gradientUnits="userSpaceOnUse">
<stop stop-color="#0038FF"/>
<stop offset="1" stop-color="#B620E0"/>
</linearGradient>
<linearGradient id="paint54_linear_2419_56" x1="910.82" y1="862.596" x2="678.783" y2="678.157" gradientUnits="userSpaceOnUse">
<stop stop-color="#0038FF"/>
<stop offset="1" stop-color="#B620E0"/>
</linearGradient>
<linearGradient id="paint55_linear_2419_56" x1="915.332" y1="855.995" x2="677.787" y2="678.058" gradientUnits="userSpaceOnUse">
<stop stop-color="#0038FF"/>
<stop offset="1" stop-color="#B620E0"/>
</linearGradient>
<linearGradient id="paint56_linear_2419_56" x1="919.807" y1="849.367" x2="677.053" y2="678.2" gradientUnits="userSpaceOnUse">
<stop stop-color="#0038FF"/>
<stop offset="1" stop-color="#B620E0"/>
</linearGradient>
<linearGradient id="paint57_linear_2419_56" x1="924.244" y1="842.713" x2="676.599" y2="678.562" gradientUnits="userSpaceOnUse">
<stop stop-color="#0038FF"/>
<stop offset="1" stop-color="#B620E0"/>
</linearGradient>
<linearGradient id="paint58_linear_2419_56" x1="928.644" y1="836.035" x2="676.442" y2="679.122" gradientUnits="userSpaceOnUse">
<stop stop-color="#0038FF"/>
<stop offset="1" stop-color="#B620E0"/>
</linearGradient>
<linearGradient id="paint59_linear_2419_56" x1="933.006" y1="829.332" x2="676.597" y2="679.854" gradientUnits="userSpaceOnUse">
<stop stop-color="#0038FF"/>
<stop offset="1" stop-color="#B620E0"/>
</linearGradient>
<linearGradient id="paint60_linear_2419_56" x1="937.328" y1="822.605" x2="677.076" y2="680.732" gradientUnits="userSpaceOnUse">
<stop stop-color="#0038FF"/>
<stop offset="1" stop-color="#B620E0"/>
</linearGradient>
<linearGradient id="paint61_linear_2419_56" x1="941.614" y1="815.854" x2="677.889" y2="681.728" gradientUnits="userSpaceOnUse">
<stop stop-color="#0038FF"/>
<stop offset="1" stop-color="#B620E0"/>
</linearGradient>
<linearGradient id="paint62_linear_2419_56" x1="945.86" y1="809.08" x2="679.043" y2="682.816" gradientUnits="userSpaceOnUse">
<stop stop-color="#0038FF"/>
<stop offset="1" stop-color="#B620E0"/>
</linearGradient>
<linearGradient id="paint63_linear_2419_56" x1="950.067" y1="802.283" x2="680.54" y2="683.966" gradientUnits="userSpaceOnUse">
<stop stop-color="#0038FF"/>
<stop offset="1" stop-color="#B620E0"/>
</linearGradient>
<linearGradient id="paint64_linear_2419_56" x1="954.235" y1="795.464" x2="682.383" y2="685.151" gradientUnits="userSpaceOnUse">
<stop stop-color="#0038FF"/>
<stop offset="1" stop-color="#B620E0"/>
</linearGradient>
<linearGradient id="paint65_linear_2419_56" x1="958.365" y1="788.621" x2="684.57" y2="686.343" gradientUnits="userSpaceOnUse">
<stop stop-color="#0038FF"/>
<stop offset="1" stop-color="#B620E0"/>
</linearGradient>
<linearGradient id="paint66_linear_2419_56" x1="962.454" y1="781.759" x2="687.095" y2="687.517" gradientUnits="userSpaceOnUse">
<stop stop-color="#0038FF"/>
<stop offset="1" stop-color="#B620E0"/>
</linearGradient>
<linearGradient id="paint67_linear_2419_56" x1="966.504" y1="774.874" x2="689.952" y2="688.644" gradientUnits="userSpaceOnUse">
<stop stop-color="#0038FF"/>
<stop offset="1" stop-color="#B620E0"/>
</linearGradient>
<linearGradient id="paint68_linear_2419_56" x1="970.514" y1="767.969" x2="693.133" y2="689.703" gradientUnits="userSpaceOnUse">
<stop stop-color="#0038FF"/>
<stop offset="1" stop-color="#B620E0"/>
</linearGradient>
<linearGradient id="paint69_linear_2419_56" x1="974.483" y1="761.044" x2="696.625" y2="690.668" gradientUnits="userSpaceOnUse">
<stop stop-color="#0038FF"/>
<stop offset="1" stop-color="#B620E0"/>
</linearGradient>
<linearGradient id="paint70_linear_2419_56" x1="978.414" y1="754.099" x2="700.418" y2="691.52" gradientUnits="userSpaceOnUse">
<stop stop-color="#0038FF"/>
<stop offset="1" stop-color="#B620E0"/>
</linearGradient>
<linearGradient id="paint71_linear_2419_56" x1="982.303" y1="747.135" x2="704.494" y2="692.238" gradientUnits="userSpaceOnUse">
<stop stop-color="#0038FF"/>
<stop offset="1" stop-color="#B620E0"/>
</linearGradient>
<linearGradient id="paint72_linear_2419_56" x1="986.154" y1="740.152" x2="708.841" y2="692.805" gradientUnits="userSpaceOnUse">
<stop stop-color="#0038FF"/>
<stop offset="1" stop-color="#B620E0"/>
</linearGradient>
<linearGradient id="paint73_linear_2419_56" x1="989.963" y1="733.152" x2="713.44" y2="693.206" gradientUnits="userSpaceOnUse">
<stop stop-color="#0038FF"/>
<stop offset="1" stop-color="#B620E0"/>
</linearGradient>
<linearGradient id="paint74_linear_2419_56" x1="993.732" y1="726.133" x2="718.273" y2="693.427" gradientUnits="userSpaceOnUse">
<stop stop-color="#0038FF"/>
<stop offset="1" stop-color="#B620E0"/>
</linearGradient>
<linearGradient id="paint75_linear_2419_56" x1="997.46" y1="719.097" x2="723.324" y2="693.455" gradientUnits="userSpaceOnUse">
<stop stop-color="#0038FF"/>
<stop offset="1" stop-color="#B620E0"/>
</linearGradient>
<linearGradient id="paint76_linear_2419_56" x1="1001.15" y1="712.044" x2="728.574" y2="693.282" gradientUnits="userSpaceOnUse">
<stop stop-color="#0038FF"/>
<stop offset="1" stop-color="#B620E0"/>
</linearGradient>
<linearGradient id="paint77_linear_2419_56" x1="1004.8" y1="704.975" x2="734.005" y2="692.899" gradientUnits="userSpaceOnUse">
<stop stop-color="#0038FF"/>
<stop offset="1" stop-color="#B620E0"/>
</linearGradient>
<linearGradient id="paint78_linear_2419_56" x1="1008.4" y1="697.89" x2="739.598" y2="692.301" gradientUnits="userSpaceOnUse">
<stop stop-color="#0038FF"/>
<stop offset="1" stop-color="#B620E0"/>
</linearGradient>
<linearGradient id="paint79_linear_2419_56" x1="1011.97" y1="690.791" x2="745.335" y2="691.483" gradientUnits="userSpaceOnUse">
<stop stop-color="#0038FF"/>
<stop offset="1" stop-color="#B620E0"/>
</linearGradient>
<linearGradient id="paint80_linear_2419_56" x1="1015.49" y1="683.676" x2="751.199" y2="690.442" gradientUnits="userSpaceOnUse">
<stop stop-color="#0038FF"/>
<stop offset="1" stop-color="#B620E0"/>
</linearGradient>
<linearGradient id="paint81_linear_2419_56" x1="1018.98" y1="676.549" x2="757.172" y2="689.177" gradientUnits="userSpaceOnUse">
<stop stop-color="#0038FF"/>
<stop offset="1" stop-color="#B620E0"/>
</linearGradient>
<linearGradient id="paint82_linear_2419_56" x1="1022.42" y1="669.407" x2="763.239" y2="687.687" gradientUnits="userSpaceOnUse">
<stop stop-color="#0038FF"/>
<stop offset="1" stop-color="#B620E0"/>
</linearGradient>
<linearGradient id="paint83_linear_2419_56" x1="1025.83" y1="662.251" x2="769.384" y2="685.974" gradientUnits="userSpaceOnUse">
<stop stop-color="#0038FF"/>
<stop offset="1" stop-color="#B620E0"/>
</linearGradient>
<linearGradient id="paint84_linear_2419_56" x1="1029.19" y1="655.084" x2="775.591" y2="684.039" gradientUnits="userSpaceOnUse">
<stop stop-color="#0038FF"/>
<stop offset="1" stop-color="#B620E0"/>
</linearGradient>
<linearGradient id="paint85_linear_2419_56" x1="1032.51" y1="647.905" x2="781.846" y2="681.888" gradientUnits="userSpaceOnUse">
<stop stop-color="#0038FF"/>
<stop offset="1" stop-color="#B620E0"/>
</linearGradient>
<linearGradient id="paint86_linear_2419_56" x1="1035.79" y1="640.714" x2="788.137" y2="679.522" gradientUnits="userSpaceOnUse">
<stop stop-color="#0038FF"/>
<stop offset="1" stop-color="#B620E0"/>
</linearGradient>
<linearGradient id="paint87_linear_2419_56" x1="1039.03" y1="633.513" x2="794.451" y2="676.946" gradientUnits="userSpaceOnUse">
<stop stop-color="#0038FF"/>
<stop offset="1" stop-color="#B620E0"/>
</linearGradient>
<linearGradient id="paint88_linear_2419_56" x1="1042.24" y1="626.301" x2="800.775" y2="674.166" gradientUnits="userSpaceOnUse">
<stop stop-color="#0038FF"/>
<stop offset="1" stop-color="#B620E0"/>
</linearGradient>
<linearGradient id="paint89_linear_2419_56" x1="1045.4" y1="619.08" x2="807.1" y2="671.188" gradientUnits="userSpaceOnUse">
<stop stop-color="#0038FF"/>
<stop offset="1" stop-color="#B620E0"/>
</linearGradient>
<linearGradient id="paint90_linear_2419_56" x1="1048.52" y1="611.849" x2="813.416" y2="668.018" gradientUnits="userSpaceOnUse">
<stop stop-color="#0038FF"/>
<stop offset="1" stop-color="#B620E0"/>
</linearGradient>
<linearGradient id="paint91_linear_2419_56" x1="1051.6" y1="604.61" x2="819.714" y2="664.662" gradientUnits="userSpaceOnUse">
<stop stop-color="#0038FF"/>
<stop offset="1" stop-color="#B620E0"/>
</linearGradient>
<linearGradient id="paint92_linear_2419_56" x1="1054.64" y1="597.364" x2="825.985" y2="661.128" gradientUnits="userSpaceOnUse">
<stop stop-color="#0038FF"/>
<stop offset="1" stop-color="#B620E0"/>
</linearGradient>
<linearGradient id="paint93_linear_2419_56" x1="1057.64" y1="590.109" x2="832.222" y2="657.42" gradientUnits="userSpaceOnUse">
<stop stop-color="#0038FF"/>
<stop offset="1" stop-color="#B620E0"/>
</linearGradient>
<linearGradient id="paint94_linear_2419_56" x1="1060.61" y1="582.848" x2="838.418" y2="653.548" gradientUnits="userSpaceOnUse">
<stop stop-color="#0038FF"/>
<stop offset="1" stop-color="#B620E0"/>
</linearGradient>
<linearGradient id="paint95_linear_2419_56" x1="1063.53" y1="575.581" x2="844.567" y2="649.517" gradientUnits="userSpaceOnUse">
<stop stop-color="#0038FF"/>
<stop offset="1" stop-color="#B620E0"/>
</linearGradient>
<linearGradient id="paint96_linear_2419_56" x1="1066.41" y1="568.308" x2="850.664" y2="645.335" gradientUnits="userSpaceOnUse">
<stop stop-color="#0038FF"/>
<stop offset="1" stop-color="#B620E0"/>
</linearGradient>
<linearGradient id="paint97_linear_2419_56" x1="1069.26" y1="561.03" x2="856.704" y2="641.009" gradientUnits="userSpaceOnUse">
<stop stop-color="#0038FF"/>
<stop offset="1" stop-color="#B620E0"/>
</linearGradient>
<linearGradient id="paint98_linear_2419_56" x1="1072.07" y1="553.748" x2="862.682" y2="636.546" gradientUnits="userSpaceOnUse">
<stop stop-color="#0038FF"/>
<stop offset="1" stop-color="#B620E0"/>
</linearGradient>
<linearGradient id="paint99_linear_2419_56" x1="1074.83" y1="546.462" x2="868.595" y2="631.953" gradientUnits="userSpaceOnUse">
<stop stop-color="#0038FF"/>
<stop offset="1" stop-color="#B620E0"/>
</linearGradient>
<linearGradient id="paint100_linear_2419_56" x1="1077.57" y1="539.173" x2="874.441" y2="627.236" gradientUnits="userSpaceOnUse">
<stop stop-color="#0038FF"/>
<stop offset="1" stop-color="#B620E0"/>
</linearGradient>
<linearGradient id="paint101_linear_2419_56" x1="1080.26" y1="531.88" x2="880.215" y2="622.402" gradientUnits="userSpaceOnUse">
<stop stop-color="#0038FF"/>
<stop offset="1" stop-color="#B620E0"/>
</linearGradient>
<linearGradient id="paint102_linear_2419_56" x1="1082.91" y1="524.586" x2="885.916" y2="617.459" gradientUnits="userSpaceOnUse">
<stop stop-color="#0038FF"/>
<stop offset="1" stop-color="#B620E0"/>
</linearGradient>
<linearGradient id="paint103_linear_2419_56" x1="1085.53" y1="517.29" x2="891.542" y2="612.411" gradientUnits="userSpaceOnUse">
<stop stop-color="#0038FF"/>
<stop offset="1" stop-color="#B620E0"/>
</linearGradient>
<linearGradient id="paint104_linear_2419_56" x1="1088.11" y1="509.994" x2="897.091" y2="607.265" gradientUnits="userSpaceOnUse">
<stop stop-color="#0038FF"/>
<stop offset="1" stop-color="#B620E0"/>
</linearGradient>
<linearGradient id="paint105_linear_2419_56" x1="1090.65" y1="502.696" x2="902.562" y2="602.027" gradientUnits="userSpaceOnUse">
<stop stop-color="#0038FF"/>
<stop offset="1" stop-color="#B620E0"/>
</linearGradient>
<linearGradient id="paint106_linear_2419_56" x1="1093.16" y1="495.4" x2="907.955" y2="596.703" gradientUnits="userSpaceOnUse">
<stop stop-color="#0038FF"/>
<stop offset="1" stop-color="#B620E0"/>
</linearGradient>
<linearGradient id="paint107_linear_2419_56" x1="1095.63" y1="488.104" x2="913.268" y2="591.299" gradientUnits="userSpaceOnUse">
<stop stop-color="#0038FF"/>
<stop offset="1" stop-color="#B620E0"/>
</linearGradient>
<linearGradient id="paint108_linear_2419_56" x1="1098.07" y1="480.809" x2="918.501" y2="585.818" gradientUnits="userSpaceOnUse">
<stop stop-color="#0038FF"/>
<stop offset="1" stop-color="#B620E0"/>
</linearGradient>
<linearGradient id="paint109_linear_2419_56" x1="1100.47" y1="473.517" x2="923.654" y2="580.269" gradientUnits="userSpaceOnUse">
<stop stop-color="#0038FF"/>
<stop offset="1" stop-color="#B620E0"/>
</linearGradient>
<linearGradient id="paint110_linear_2419_56" x1="1102.83" y1="466.227" x2="928.727" y2="574.654" gradientUnits="userSpaceOnUse">
<stop stop-color="#0038FF"/>
<stop offset="1" stop-color="#B620E0"/>
</linearGradient>
<linearGradient id="paint111_linear_2419_56" x1="1105.16" y1="458.94" x2="933.721" y2="568.979" gradientUnits="userSpaceOnUse">
<stop stop-color="#0038FF"/>
<stop offset="1" stop-color="#B620E0"/>
</linearGradient>
<linearGradient id="paint112_linear_2419_56" x1="1107.45" y1="451.658" x2="938.635" y2="563.249" gradientUnits="userSpaceOnUse">
<stop stop-color="#0038FF"/>
<stop offset="1" stop-color="#B620E0"/>
</linearGradient>
<linearGradient id="paint113_linear_2419_56" x1="1109.72" y1="444.379" x2="943.471" y2="557.468" gradientUnits="userSpaceOnUse">
<stop stop-color="#0038FF"/>
<stop offset="1" stop-color="#B620E0"/>
</linearGradient>
<linearGradient id="paint114_linear_2419_56" x1="1111.94" y1="437.106" x2="948.228" y2="551.64" gradientUnits="userSpaceOnUse">
<stop stop-color="#0038FF"/>
<stop offset="1" stop-color="#B620E0"/>
</linearGradient>
<linearGradient id="paint115_linear_2419_56" x1="1114.14" y1="429.838" x2="952.908" y2="545.769" gradientUnits="userSpaceOnUse">
<stop stop-color="#0038FF"/>
<stop offset="1" stop-color="#B620E0"/>
</linearGradient>
<linearGradient id="paint116_linear_2419_56" x1="1116.3" y1="422.576" x2="957.512" y2="539.86" gradientUnits="userSpaceOnUse">
<stop stop-color="#0038FF"/>
<stop offset="1" stop-color="#B620E0"/>
</linearGradient>
<linearGradient id="paint117_linear_2419_56" x1="1118.43" y1="415.321" x2="962.04" y2="533.917" gradientUnits="userSpaceOnUse">
<stop stop-color="#0038FF"/>
<stop offset="1" stop-color="#B620E0"/>
</linearGradient>
<linearGradient id="paint118_linear_2419_56" x1="1120.52" y1="408.073" x2="966.494" y2="527.942" gradientUnits="userSpaceOnUse">
<stop stop-color="#0038FF"/>
<stop offset="1" stop-color="#B620E0"/>
</linearGradient>
<linearGradient id="paint119_linear_2419_56" x1="1122.59" y1="400.833" x2="970.875" y2="521.939" gradientUnits="userSpaceOnUse">
<stop stop-color="#0038FF"/>
<stop offset="1" stop-color="#B620E0"/>
</linearGradient>
<linearGradient id="paint120_linear_2419_56" x1="1124.62" y1="393.602" x2="975.185" y2="515.913" gradientUnits="userSpaceOnUse">
<stop stop-color="#0038FF"/>
<stop offset="1" stop-color="#B620E0"/>
</linearGradient>
<linearGradient id="paint121_linear_2419_56" x1="1126.63" y1="386.379" x2="979.425" y2="509.866" gradientUnits="userSpaceOnUse">
<stop stop-color="#0038FF"/>
<stop offset="1" stop-color="#B620E0"/>
</linearGradient>
<linearGradient id="paint122_linear_2419_56" x1="1128.6" y1="379.166" x2="983.595" y2="503.801" gradientUnits="userSpaceOnUse">
<stop stop-color="#0038FF"/>
<stop offset="1" stop-color="#B620E0"/>
</linearGradient>
<linearGradient id="paint123_linear_2419_56" x1="1130.54" y1="371.964" x2="987.698" y2="497.722" gradientUnits="userSpaceOnUse">
<stop stop-color="#0038FF"/>
<stop offset="1" stop-color="#B620E0"/>
</linearGradient>
<linearGradient id="paint124_linear_2419_56" x1="1132.46" y1="364.772" x2="991.734" y2="491.63" gradientUnits="userSpaceOnUse">
<stop stop-color="#0038FF"/>
<stop offset="1" stop-color="#B620E0"/>
</linearGradient>
<linearGradient id="paint125_linear_2419_56" x1="1134.34" y1="357.591" x2="995.706" y2="485.53" gradientUnits="userSpaceOnUse">
<stop stop-color="#0038FF"/>
<stop offset="1" stop-color="#B620E0"/>
</linearGradient>
<linearGradient id="paint126_linear_2419_56" x1="1136.2" y1="350.422" x2="999.616" y2="479.423" gradientUnits="userSpaceOnUse">
<stop stop-color="#0038FF"/>
<stop offset="1" stop-color="#B620E0"/>
</linearGradient>
<linearGradient id="paint127_linear_2419_56" x1="1138.03" y1="343.266" x2="1003.46" y2="473.313" gradientUnits="userSpaceOnUse">
<stop stop-color="#0038FF"/>
<stop offset="1" stop-color="#B620E0"/>
</linearGradient>
<linearGradient id="paint128_linear_2419_56" x1="1139.83" y1="336.122" x2="1007.25" y2="467.202" gradientUnits="userSpaceOnUse">
<stop stop-color="#0038FF"/>
<stop offset="1" stop-color="#B620E0"/>
</linearGradient>
<linearGradient id="paint129_linear_2419_56" x1="1141.61" y1="328.993" x2="1010.98" y2="461.092" gradientUnits="userSpaceOnUse">
<stop stop-color="#0038FF"/>
<stop offset="1" stop-color="#B620E0"/>
</linearGradient>
<linearGradient id="paint130_linear_2419_56" x1="1143.36" y1="321.877" x2="1014.66" y2="454.986" gradientUnits="userSpaceOnUse">
<stop stop-color="#0038FF"/>
<stop offset="1" stop-color="#B620E0"/>
</linearGradient>
<linearGradient id="paint131_linear_2419_56" x1="1145.09" y1="314.775" x2="1018.27" y2="448.885" gradientUnits="userSpaceOnUse">
<stop stop-color="#0038FF"/>
<stop offset="1" stop-color="#B620E0"/>
</linearGradient>
<linearGradient id="paint132_linear_2419_56" x1="1146.79" y1="307.688" x2="1021.84" y2="442.792" gradientUnits="userSpaceOnUse">
<stop stop-color="#0038FF"/>
<stop offset="1" stop-color="#B620E0"/>
</linearGradient>
<linearGradient id="paint133_linear_2419_56" x1="1148.46" y1="300.617" x2="1025.35" y2="436.709" gradientUnits="userSpaceOnUse">
<stop stop-color="#0038FF"/>
<stop offset="1" stop-color="#B620E0"/>
</linearGradient>
<linearGradient id="paint134_linear_2419_56" x1="1150.11" y1="293.563" x2="1028.82" y2="430.639" gradientUnits="userSpaceOnUse">
<stop stop-color="#0038FF"/>
<stop offset="1" stop-color="#B620E0"/>
</linearGradient>
<linearGradient id="paint135_linear_2419_56" x1="1151.74" y1="286.525" x2="1032.24" y2="424.583" gradientUnits="userSpaceOnUse">
<stop stop-color="#0038FF"/>
<stop offset="1" stop-color="#B620E0"/>
</linearGradient>
<linearGradient id="paint136_linear_2419_56" x1="1153.35" y1="279.504" x2="1035.61" y2="418.543" gradientUnits="userSpaceOnUse">
<stop stop-color="#0038FF"/>
<stop offset="1" stop-color="#B620E0"/>
</linearGradient>
<linearGradient id="paint137_linear_2419_56" x1="1154.93" y1="272.501" x2="1038.94" y2="412.521" gradientUnits="userSpaceOnUse">
<stop stop-color="#0038FF"/>
<stop offset="1" stop-color="#B620E0"/>
</linearGradient>
<linearGradient id="paint138_linear_2419_56" x1="1156.49" y1="265.516" x2="1042.22" y2="406.518" gradientUnits="userSpaceOnUse">
<stop stop-color="#0038FF"/>
<stop offset="1" stop-color="#B620E0"/>
</linearGradient>
<linearGradient id="paint139_linear_2419_56" x1="1158.03" y1="258.55" x2="1045.47" y2="400.537" gradientUnits="userSpaceOnUse">
<stop stop-color="#0038FF"/>
<stop offset="1" stop-color="#B620E0"/>
</linearGradient>
<linearGradient id="paint140_linear_2419_56" x1="1159.55" y1="251.603" x2="1048.67" y2="394.579" gradientUnits="userSpaceOnUse">
<stop stop-color="#0038FF"/>
<stop offset="1" stop-color="#B620E0"/>
</linearGradient>
<linearGradient id="paint141_linear_2419_56" x1="1161.05" y1="244.675" x2="1051.84" y2="388.645" gradientUnits="userSpaceOnUse">
<stop stop-color="#0038FF"/>
<stop offset="1" stop-color="#B620E0"/>
</linearGradient>
<linearGradient id="paint142_linear_2419_56" x1="1162.54" y1="237.768" x2="1054.98" y2="382.738" gradientUnits="userSpaceOnUse">
<stop stop-color="#0038FF"/>
<stop offset="1" stop-color="#B620E0"/>
</linearGradient>
<linearGradient id="paint143_linear_2419_56" x1="1164" y1="230.881" x2="1058.08" y2="376.859" gradientUnits="userSpaceOnUse">
<stop stop-color="#0038FF"/>
<stop offset="1" stop-color="#B620E0"/>
</linearGradient>
<linearGradient id="paint144_linear_2419_56" x1="1165.45" y1="224.015" x2="1061.15" y2="371.009" gradientUnits="userSpaceOnUse">
<stop stop-color="#0038FF"/>
<stop offset="1" stop-color="#B620E0"/>
</linearGradient>
<linearGradient id="paint145_linear_2419_56" x1="1166.88" y1="217.171" x2="1064.19" y2="365.189" gradientUnits="userSpaceOnUse">
<stop stop-color="#0038FF"/>
<stop offset="1" stop-color="#B620E0"/>
</linearGradient>
<linearGradient id="paint146_linear_2419_56" x1="1168.29" y1="210.348" x2="1067.2" y2="359.403" gradientUnits="userSpaceOnUse">
<stop stop-color="#0038FF"/>
<stop offset="1" stop-color="#B620E0"/>
</linearGradient>
<linearGradient id="paint147_linear_2419_56" x1="1169.69" y1="203.548" x2="1070.19" y2="353.649" gradientUnits="userSpaceOnUse">
<stop stop-color="#0038FF"/>
<stop offset="1" stop-color="#B620E0"/>
</linearGradient>
</defs>
</svg>
