<svg width="1247" height="1067" viewBox="0 0 1247 1067" fill="none" xmlns="http://www.w3.org/2000/svg">
<path opacity="0.01" fill-rule="evenodd" clip-rule="evenodd" d="M837.494 526.693C854.563 631.032 941 752.67 873.679 834.039C808.381 912.964 676.801 831.844 575.49 843.373C481.352 854.085 394.551 925.746 303.727 898.897C206.755 870.23 127.501 790.818 85.2266 698.44C43.7783 607.866 46.2468 500.945 78.3771 406.461C107.414 321.072 186.604 270.081 251.934 208.21C314.818 148.657 365.664 54.7032 451.896 52.7236C538.286 50.7404 592.058 143.568 658.63 198.874C708.77 240.528 760.799 277.985 792.099 335.35C824.232 394.244 826.643 460.358 837.494 526.693Z" stroke="url(#paint0_linear_2378_220)" stroke-opacity="0.3" stroke-width="3"/>
<path opacity="0.02" fill-rule="evenodd" clip-rule="evenodd" d="M842.049 523.763C860.875 627.44 949.13 747.15 883.457 829.405C819.758 909.189 687.22 830.641 586.459 843.891C492.833 856.202 407.578 929.123 316.6 903.946C219.464 877.065 139.102 799.309 95.3659 707.989C52.4845 618.453 53.0839 511.862 83.4591 417.15C110.91 331.554 188.939 279.364 252.968 216.574C314.599 156.135 363.634 61.6263 449.534 58.1543C535.591 54.6759 590.793 146.244 658.098 200.199C708.789 240.836 761.291 277.257 793.48 333.878C826.528 392.007 830.081 457.848 842.049 523.763Z" stroke="url(#paint1_linear_2378_220)" stroke-opacity="0.3" stroke-width="3"/>
<path opacity="0.03" fill-rule="evenodd" clip-rule="evenodd" d="M846.506 520.769C867.071 623.755 957.103 741.511 893.089 824.62C830.998 905.232 697.553 829.263 597.371 844.219C504.284 858.115 420.592 932.262 329.491 908.756C232.224 883.658 150.787 807.572 105.613 717.333C61.3223 628.856 60.0649 522.629 88.687 427.72C114.554 341.948 191.405 288.584 254.119 224.901C314.485 163.603 361.706 68.5722 447.248 63.6187C532.947 58.6561 589.551 148.944 657.562 201.539C708.784 241.151 761.738 276.533 794.802 332.395C828.746 389.746 833.432 455.293 846.506 520.769Z" stroke="url(#paint2_linear_2378_220)" stroke-opacity="0.3" stroke-width="3"/>
<path opacity="0.04" fill-rule="evenodd" clip-rule="evenodd" d="M850.859 517.715C873.143 619.982 964.912 735.757 902.566 819.687C842.094 901.095 707.79 827.715 608.216 844.36C515.694 859.826 433.583 935.167 342.389 913.328C245.023 890.01 162.545 815.607 115.958 726.471C70.2814 639.076 67.18 533.244 94.0514 438.172C118.336 352.251 193.992 297.739 255.38 233.189C314.47 171.057 359.873 75.5396 445.032 69.1161C530.347 62.6808 588.326 151.666 657.015 202.894C708.749 241.476 762.135 275.812 796.056 330.903C830.88 387.462 836.691 452.698 850.859 517.715Z" stroke="url(#paint3_linear_2378_220)" stroke-opacity="0.3" stroke-width="3"/>
<path opacity="0.05" fill-rule="evenodd" clip-rule="evenodd" d="M855.112 514.604C879.099 616.122 972.563 729.893 911.894 814.611C853.049 896.783 717.936 825.997 618.999 844.314C527.067 861.335 446.553 937.838 355.297 917.661C257.864 896.119 174.379 823.413 126.403 735.402C79.3655 649.11 74.4337 543.705 99.5573 448.501C122.263 362.462 196.706 306.826 256.758 241.437C314.56 178.496 358.144 82.5267 442.895 74.645C527.801 66.7488 587.125 154.412 656.467 204.265C708.692 241.811 762.489 275.097 797.25 329.404C832.938 385.158 839.863 450.062 855.112 514.604Z" stroke="url(#paint4_linear_2378_220)" stroke-opacity="0.3" stroke-width="3"/>
<path opacity="0.06" fill-rule="evenodd" clip-rule="evenodd" d="M859.261 511.436C884.93 612.177 980.046 723.92 921.064 809.393C863.853 892.297 727.981 824.112 629.708 844.085C538.394 862.644 459.492 940.276 368.204 921.758C270.737 901.986 186.278 830.99 136.939 744.124C88.5646 658.956 81.8162 554.01 105.196 458.707C126.325 372.577 199.54 315.844 258.244 249.642C314.75 185.919 356.512 89.5312 440.83 80.2036C525.301 70.8589 585.944 157.18 655.911 205.65C708.606 242.155 762.795 274.388 798.379 327.898C834.912 382.834 842.942 447.388 859.261 511.436Z" stroke="url(#paint5_linear_2378_220)" stroke-opacity="0.3" stroke-width="3"/>
<path opacity="0.07" fill-rule="evenodd" clip-rule="evenodd" d="M863.304 508.215C890.635 608.152 987.362 717.843 930.073 804.038C874.506 887.643 737.924 822.062 640.343 843.674C549.671 863.755 472.397 942.483 381.107 925.619C283.637 907.612 198.239 838.337 147.562 752.638C97.8753 668.613 89.3249 564.158 110.965 468.786C130.521 382.595 202.493 324.791 259.84 257.803C315.039 193.323 354.978 96.552 438.837 85.7912C522.851 75.0107 584.782 159.971 655.347 207.052C708.493 242.511 763.052 273.687 799.443 326.388C836.803 380.493 845.928 444.678 863.304 508.215Z" stroke="url(#paint6_linear_2378_220)" stroke-opacity="0.3" stroke-width="3"/>
<path opacity="0.08" fill-rule="evenodd" clip-rule="evenodd" d="M867.243 504.942C896.217 604.047 994.512 711.666 938.924 798.55C885.006 882.823 747.763 819.851 650.901 843.083C560.898 864.669 485.265 944.461 394.002 929.244C296.562 912.997 210.26 845.454 158.27 760.941C107.296 678.08 96.9589 574.146 116.863 478.738C134.852 392.514 205.565 333.664 261.545 265.918C315.429 200.708 353.543 103.587 436.921 91.4062C520.451 79.2031 583.643 162.783 654.779 208.469C708.355 242.878 763.264 272.994 800.443 324.874C838.614 378.136 848.823 441.934 867.243 504.942Z" stroke="url(#paint7_linear_2378_220)" stroke-opacity="0.3" stroke-width="3"/>
<path opacity="0.09" fill-rule="evenodd" clip-rule="evenodd" d="M871.077 501.62C901.672 599.867 1001.49 705.391 947.611 792.931C895.35 877.84 757.496 817.481 661.38 842.314C572.07 865.388 498.091 946.21 406.886 932.635C309.507 918.14 222.334 852.34 169.057 769.034C116.822 687.356 104.713 583.973 122.888 488.56C139.313 402.332 208.754 342.462 263.357 273.984C315.917 208.071 352.208 110.635 435.079 97.0471C518.103 83.4349 582.525 165.617 654.204 209.902C708.19 243.256 763.43 272.31 801.38 323.357C840.342 375.766 851.625 439.157 871.077 501.62Z" stroke="url(#paint8_linear_2378_220)" stroke-opacity="0.3" stroke-width="3"/>
<path opacity="0.1" fill-rule="evenodd" clip-rule="evenodd" d="M874.802 498.251C906.998 595.613 1008.3 699.023 956.132 787.186C905.532 872.699 767.116 814.954 671.773 841.37C583.18 865.915 510.869 947.733 419.75 935.793C322.464 923.044 234.455 858.996 179.918 776.915C126.447 696.439 112.583 593.638 129.034 498.251C143.901 412.046 212.054 351.184 265.274 282.002C316.5 215.411 350.968 117.693 433.31 102.713C515.803 87.7056 581.427 168.472 653.623 211.352C707.998 243.647 763.547 271.636 802.251 321.84C841.987 373.383 854.332 436.351 874.802 498.251Z" stroke="url(#paint9_linear_2378_220)" stroke-opacity="0.3" stroke-width="3"/>
<path opacity="0.11" fill-rule="evenodd" clip-rule="evenodd" d="M878.418 494.837C912.193 591.289 1014.93 692.564 964.485 781.317C915.552 867.403 776.623 812.274 682.077 840.252C594.226 866.25 523.595 949.032 432.592 938.719C335.429 927.708 246.619 865.421 190.848 784.585C136.167 705.328 120.564 603.138 135.298 507.809C148.613 421.656 215.466 359.827 267.293 289.969C317.18 222.726 349.826 124.761 431.615 108.402C513.554 92.0141 580.349 171.349 653.035 212.818C707.778 244.052 763.617 270.973 803.057 320.324C843.548 370.99 856.945 433.516 878.418 494.837Z" stroke="url(#paint10_linear_2378_220)" stroke-opacity="0.3" stroke-width="3"/>
<path opacity="0.12" fill-rule="evenodd" clip-rule="evenodd" d="M881.928 491.382C917.26 586.898 1021.4 686.02 972.67 775.33C925.409 861.956 786.016 809.442 692.294 838.964C605.207 866.396 536.268 950.107 445.409 941.414C348.401 932.133 258.824 871.616 201.846 792.042C145.982 714.022 128.657 612.473 141.68 517.232C153.45 431.158 218.989 368.39 269.417 297.883C317.956 230.016 348.782 131.836 429.996 114.114C511.358 96.3598 579.295 174.246 652.443 214.302C707.534 244.47 763.643 270.323 803.8 318.809C845.028 368.588 859.465 430.655 881.928 491.382Z" stroke="url(#paint11_linear_2378_220)" stroke-opacity="0.3" stroke-width="3"/>
<path opacity="0.13" fill-rule="evenodd" clip-rule="evenodd" d="M885.326 487.886C922.193 582.442 1027.68 679.393 980.683 769.227C935.096 856.361 795.289 806.462 702.414 837.507C616.116 866.355 548.879 950.962 458.194 943.881C361.371 936.321 271.062 877.581 212.904 799.287C155.882 722.522 136.854 621.641 148.174 526.519C158.405 440.553 222.618 376.872 271.64 305.743C318.825 237.277 347.834 138.917 428.449 119.847C509.211 100.742 578.26 177.164 651.843 215.802C707.262 244.903 763.62 269.686 804.477 317.298C846.423 366.179 861.887 427.771 885.326 487.886Z" stroke="url(#paint12_linear_2378_220)" stroke-opacity="0.3" stroke-width="3"/>
<path opacity="0.14" fill-rule="evenodd" clip-rule="evenodd" d="M888.613 484.353C926.992 577.923 1033.79 672.687 988.52 763.012C944.613 850.622 804.438 803.336 712.437 835.884C626.95 866.128 561.425 951.597 470.942 946.119C374.335 940.271 283.328 883.316 224.017 806.318C165.865 730.824 145.151 630.641 154.776 535.668C163.475 449.836 226.351 385.27 273.96 313.546C319.786 244.509 346.98 146.002 426.974 125.599C507.115 105.158 577.245 180.101 651.236 217.319C706.963 245.35 763.549 269.063 805.088 315.791C847.734 363.765 864.213 424.864 888.613 484.353Z" stroke="url(#paint13_linear_2378_220)" stroke-opacity="0.3" stroke-width="3"/>
<path opacity="0.15" fill-rule="evenodd" clip-rule="evenodd" d="M891.789 480.784C931.657 573.345 1039.72 665.906 996.182 756.689C953.956 844.743 813.464 800.068 722.359 834.098C637.706 865.718 573.902 952.016 483.65 948.132C387.289 943.986 295.619 888.821 235.182 813.136C175.927 738.929 153.545 639.472 161.485 544.678C168.66 459.008 230.187 393.583 276.377 321.293C320.838 251.711 346.221 153.09 425.573 131.37C505.07 109.61 576.251 183.059 650.623 218.854C706.636 245.813 763.431 268.455 805.633 314.29C848.96 361.347 866.443 421.937 891.789 480.784Z" stroke="url(#paint14_linear_2378_220)" stroke-opacity="0.3" stroke-width="3"/>
<path opacity="0.16" fill-rule="evenodd" clip-rule="evenodd" d="M894.852 477.183C936.185 568.711 1045.46 659.054 1003.66 750.261C963.122 838.728 822.36 796.661 732.176 832.151C648.378 865.128 586.305 952.219 496.311 949.92C400.226 947.466 307.927 894.098 246.393 819.74C186.061 746.836 162.031 648.133 168.294 553.547C173.954 468.066 234.121 401.81 278.888 328.982C321.979 258.88 345.555 160.179 424.243 137.157C503.075 114.094 575.276 186.037 650.002 220.407C706.282 246.293 763.265 267.864 806.112 312.797C850.1 358.928 868.573 418.991 894.852 477.183Z" stroke="url(#paint15_linear_2378_220)" stroke-opacity="0.3" stroke-width="3"/>
<path opacity="0.17" fill-rule="evenodd" clip-rule="evenodd" d="M897.802 473.551C940.577 564.025 1051.03 652.134 1010.97 743.734C972.111 832.581 831.128 793.117 741.887 830.046C658.966 864.36 598.632 952.211 508.924 951.486C413.144 950.712 320.252 899.146 257.648 826.132C196.267 754.545 170.608 656.622 175.204 562.275C179.357 477.009 238.155 409.95 281.493 336.61C323.209 266.017 344.984 167.267 422.987 142.962C501.132 118.611 574.322 189.034 649.375 221.978C705.901 246.789 763.054 267.29 806.526 311.313C851.157 356.509 870.608 416.03 897.802 473.551Z" stroke="url(#paint16_linear_2378_220)" stroke-opacity="0.3" stroke-width="3"/>
<path opacity="0.18" fill-rule="evenodd" clip-rule="evenodd" d="M900.642 469.891C944.834 559.287 1056.42 645.15 1018.09 737.109C980.922 826.305 839.765 789.439 751.491 827.785C669.467 863.415 610.88 951.992 521.485 952.831C426.04 953.726 332.589 903.966 268.943 832.31C206.541 762.055 179.273 664.939 182.212 570.859C184.868 485.836 242.286 418.001 284.192 344.177C324.529 273.118 344.508 174.353 421.805 148.78C499.242 123.16 573.391 192.05 648.744 223.566C705.496 247.303 762.797 266.734 806.877 309.838C852.131 354.092 872.546 413.055 900.642 469.891Z" stroke="url(#paint17_linear_2378_220)" stroke-opacity="0.3" stroke-width="3"/>
<path opacity="0.19" fill-rule="evenodd" clip-rule="evenodd" d="M903.365 466.205C948.95 554.502 1061.62 638.106 1025.03 730.392C989.548 819.905 848.265 785.632 760.979 825.371C679.875 862.296 623.041 951.566 533.987 953.956C438.905 956.509 344.93 908.559 280.27 838.275C216.874 769.365 188.017 673.083 189.31 579.3C190.478 494.544 246.508 425.961 286.978 351.681C325.932 280.183 344.122 181.436 420.692 154.613C497.402 127.74 572.478 195.085 648.104 225.174C705.062 247.836 762.491 266.198 807.16 308.376C853.019 351.678 874.384 410.068 903.365 466.205Z" stroke="url(#paint18_linear_2378_220)" stroke-opacity="0.3" stroke-width="3"/>
<path opacity="0.2" fill-rule="evenodd" clip-rule="evenodd" d="M905.975 462.496C952.928 549.672 1066.64 631.005 1031.79 723.586C997.99 813.385 856.629 781.696 770.353 822.807C690.187 861.007 635.113 950.934 546.426 954.865C451.736 959.062 357.272 912.925 291.628 844.028C227.266 776.476 196.841 681.053 196.499 587.596C196.189 503.134 250.822 433.83 289.852 359.122C327.421 287.211 343.829 188.514 419.652 160.457C495.614 132.35 571.586 198.139 647.458 226.8C704.601 248.387 762.14 265.681 807.378 306.926C853.822 349.27 876.124 407.072 905.975 462.496Z" stroke="url(#paint19_linear_2378_220)" stroke-opacity="0.3" stroke-width="3"/>
<path opacity="0.21" fill-rule="evenodd" clip-rule="evenodd" d="M908.471 458.766C956.767 544.8 1071.47 623.853 1038.36 716.695C1006.25 806.748 864.854 777.637 779.61 820.096C700.402 859.548 647.093 950.099 558.8 955.559C464.531 961.388 369.612 917.066 303.011 849.567C237.711 783.387 205.739 688.849 203.774 595.745C201.998 511.603 255.225 441.607 292.814 366.497C328.995 294.2 343.627 195.585 418.684 166.313C493.879 136.989 570.715 201.211 646.807 228.445C704.115 248.957 761.744 265.186 807.532 305.49C854.541 346.868 877.766 404.067 908.471 458.766Z" stroke="url(#paint20_linear_2378_220)" stroke-opacity="0.3" stroke-width="3"/>
<path opacity="0.22" fill-rule="evenodd" clip-rule="evenodd" d="M910.851 455.018C960.465 539.891 1076.12 616.652 1044.75 709.724C1014.32 799.999 872.937 773.457 788.745 817.241C710.515 857.924 658.976 949.065 571.103 956.04C477.283 963.488 381.943 920.984 314.414 854.896C248.205 790.099 214.708 696.47 211.132 603.748C207.9 519.951 259.714 449.29 295.859 373.806C330.651 301.149 343.514 202.648 417.786 172.18C492.194 141.656 569.864 204.302 646.148 230.111C703.602 249.549 761.3 264.714 807.621 304.071C855.176 344.476 879.309 401.058 910.851 455.018Z" stroke="url(#paint21_linear_2378_220)" stroke-opacity="0.3" stroke-width="3"/>
<path opacity="0.23" fill-rule="evenodd" clip-rule="evenodd" d="M913.116 451.253C964.021 534.945 1080.58 609.406 1050.94 702.675C1022.19 793.142 880.876 769.16 797.756 814.244C720.522 856.137 670.758 947.832 583.332 956.311C489.987 965.364 394.261 924.677 325.834 860.012C258.743 796.61 223.743 703.915 218.569 611.602C213.892 528.175 264.287 456.878 298.987 381.048C332.387 308.058 343.491 209.701 416.959 178.055C490.561 146.351 569.032 207.41 645.483 231.795C703.063 250.161 760.811 264.265 807.644 302.668C855.725 342.095 880.753 398.044 913.116 451.253Z" stroke="url(#paint22_linear_2378_220)" stroke-opacity="0.3" stroke-width="3"/>
<path opacity="0.24" fill-rule="evenodd" clip-rule="evenodd" d="M915.266 447.475C967.436 529.967 1084.86 602.119 1056.95 695.554C1029.88 786.18 888.67 764.748 806.642 811.11C730.422 854.188 682.436 946.405 595.481 956.374C502.641 967.017 406.563 928.149 337.266 864.918C269.322 802.921 232.841 711.184 226.082 619.308C219.973 536.276 268.942 464.37 302.195 388.221C334.203 314.924 343.556 216.744 416.202 183.939C488.98 151.073 568.221 210.537 644.812 233.499C702.497 250.794 760.276 263.841 807.603 301.285C856.191 339.726 882.097 395.03 915.266 447.475Z" stroke="url(#paint23_linear_2378_220)" stroke-opacity="0.3" stroke-width="3"/>
<path opacity="0.25" fill-rule="evenodd" clip-rule="evenodd" d="M917.3 443.687C970.709 524.959 1088.95 594.796 1062.77 688.364C1037.37 779.12 896.316 760.225 815.399 807.84C740.212 852.083 694.006 944.787 607.549 956.231C515.239 968.449 418.843 931.4 348.705 869.613C279.938 809.034 241.998 718.277 233.668 626.865C226.139 544.253 273.676 471.765 305.482 395.325C336.097 321.748 343.71 223.775 415.515 189.829C487.451 155.82 567.43 213.681 644.135 235.224C701.906 251.45 759.696 263.442 807.497 299.921C856.572 337.372 883.344 392.016 917.3 443.687Z" stroke="url(#paint24_linear_2378_220)" stroke-opacity="0.3" stroke-width="3"/>
<path opacity="0.26" fill-rule="evenodd" clip-rule="evenodd" d="M919.218 439.889C973.84 519.924 1092.85 587.439 1068.39 681.108C1044.67 771.963 903.813 755.595 824.026 804.438C749.888 849.822 705.466 942.979 619.531 955.884C527.778 969.663 431.099 934.432 360.15 874.1C290.587 814.946 251.212 725.193 241.324 634.272C232.388 552.103 278.488 479.063 308.847 402.358C338.069 328.527 343.951 230.792 414.898 195.725C485.975 160.593 566.66 216.843 643.453 236.97C701.289 252.128 759.072 263.069 807.328 298.578C856.871 335.034 884.492 389.005 919.218 439.889Z" stroke="url(#paint25_linear_2378_220)" stroke-opacity="0.3" stroke-width="3"/>
<path opacity="0.27" fill-rule="evenodd" clip-rule="evenodd" d="M921.02 436.085C976.828 514.866 1096.57 580.053 1073.83 673.792C1051.77 764.715 911.158 750.861 832.518 800.906C759.447 847.408 716.811 940.985 631.421 955.337C540.252 970.661 443.324 937.246 371.592 878.377C301.262 820.659 260.476 731.932 249.045 641.529C238.715 559.827 283.373 486.262 312.286 409.32C340.116 335.26 344.278 237.795 414.349 201.626C484.549 165.39 565.909 220.022 642.763 238.736C700.646 252.83 758.402 262.724 807.095 297.258C857.085 332.713 885.54 385.999 921.02 436.085Z" stroke="url(#paint26_linear_2378_220)" stroke-opacity="0.3" stroke-width="3"/>
<path opacity="0.28" fill-rule="evenodd" clip-rule="evenodd" d="M922.705 432.278C979.671 509.787 1100.09 572.642 1079.07 666.42C1058.67 757.38 918.348 746.026 840.874 797.249C768.886 844.846 728.036 938.809 643.217 954.592C552.658 971.444 455.513 939.843 383.029 882.448C311.961 826.173 269.787 738.494 256.829 648.634C245.118 567.424 288.33 493.361 315.797 416.21C342.235 341.947 344.689 244.781 413.868 207.53C483.174 170.211 565.177 223.218 642.067 240.523C699.977 253.557 757.688 262.407 806.797 295.963C857.215 330.412 886.488 383 922.705 432.278Z" stroke="url(#paint27_linear_2378_220)" stroke-opacity="0.3" stroke-width="3"/>
<path opacity="0.29" fill-rule="evenodd" clip-rule="evenodd" d="M924.274 428.469C982.371 504.691 1103.43 565.209 1084.11 658.995C1065.38 749.962 925.384 741.094 849.092 793.47C778.203 842.138 739.139 936.452 654.915 953.652C564.991 972.015 467.664 942.227 394.457 886.312C322.68 831.489 279.141 744.88 264.671 655.589C251.594 574.893 293.356 500.361 319.379 423.026C344.428 348.588 345.183 251.75 413.454 213.437C481.85 175.054 564.464 226.432 641.364 242.333C699.282 254.308 756.929 262.121 806.435 294.693C857.261 328.133 887.337 380.01 924.274 428.469Z" stroke="url(#paint28_linear_2378_220)" stroke-opacity="0.3" stroke-width="3"/>
<path opacity="0.3" fill-rule="evenodd" clip-rule="evenodd" d="M925.728 424.662C984.929 499.579 1106.58 557.758 1088.97 651.521C1071.88 742.465 932.264 736.068 857.172 789.571C787.397 839.286 750.12 933.919 666.514 952.518C577.249 972.377 479.774 944.396 405.873 889.97C333.416 836.607 288.538 751.088 272.572 662.391C258.143 582.232 298.452 507.259 323.033 429.768C346.693 355.179 345.764 258.7 413.11 219.346C480.58 179.92 563.773 229.662 640.658 244.163C698.564 255.085 756.128 261.864 806.013 293.449C857.227 325.877 888.09 377.031 925.728 424.662Z" stroke="url(#paint29_linear_2378_220)" stroke-opacity="0.3" stroke-width="3"/>
<path opacity="0.31" fill-rule="evenodd" clip-rule="evenodd" d="M927.065 420.858C987.342 494.457 1109.54 550.294 1093.62 644.002C1078.18 734.894 938.985 730.952 865.108 785.556C796.462 836.294 760.97 931.212 678.005 951.195C589.425 972.531 491.835 946.355 417.27 893.425C344.161 841.529 297.969 757.119 280.523 669.042C264.756 589.443 303.61 514.057 326.751 436.436C349.026 361.722 346.425 265.63 412.831 225.255C479.36 184.806 563.1 232.909 639.944 246.016C697.82 255.888 755.282 261.639 805.526 292.234C857.108 323.645 888.742 374.066 927.065 420.858Z" stroke="url(#paint30_linear_2378_220)" stroke-opacity="0.3" stroke-width="3"/>
<path opacity="0.32" fill-rule="evenodd" clip-rule="evenodd" d="M928.286 417.06C989.611 489.325 1112.31 542.82 1098.08 636.443C1084.28 727.253 945.546 725.749 872.9 781.429C805.397 833.166 771.689 928.334 689.389 949.685C601.518 972.48 503.846 948.104 428.646 896.676C354.915 846.253 307.433 762.974 288.524 675.54C271.435 596.523 308.831 520.752 330.536 443.028C351.428 368.215 347.167 272.539 412.619 231.164C478.191 189.713 562.447 236.173 639.225 247.891C697.051 256.717 754.394 261.446 804.977 291.049C856.908 321.44 889.297 371.115 928.286 417.06Z" stroke="url(#paint31_linear_2378_220)" stroke-opacity="0.3" stroke-width="3"/>
<path opacity="0.33" fill-rule="evenodd" clip-rule="evenodd" d="M929.392 413.27C991.737 484.188 1114.9 535.34 1102.35 628.848C1090.17 719.546 951.947 720.463 880.546 777.192C814.201 829.903 782.275 925.29 700.661 947.99C613.523 972.227 515.802 949.646 439.997 899.726C365.673 850.782 316.927 768.652 296.572 681.886C278.176 603.473 314.113 527.344 334.384 449.544C353.897 374.657 347.991 279.426 412.474 237.072C477.074 194.64 561.814 239.453 638.502 249.79C696.259 257.575 753.464 261.287 804.367 289.894C856.627 319.264 889.755 368.183 929.392 413.27Z" stroke="url(#paint32_linear_2378_220)" stroke-opacity="0.3" stroke-width="3"/>
<path opacity="0.34" fill-rule="evenodd" clip-rule="evenodd" d="M930.384 409.492C993.72 479.049 1117.3 527.857 1106.42 621.22C1095.87 711.778 958.187 715.097 888.046 772.849C822.871 826.511 792.725 922.082 711.819 946.115C625.437 971.775 527.7 950.982 451.32 902.577C376.432 855.117 326.447 774.154 304.664 688.08C284.977 610.292 319.453 533.834 338.296 455.983C356.433 381.047 348.896 286.289 412.395 242.977C476.009 199.586 561.202 242.75 637.774 251.711C695.444 258.46 752.493 261.162 803.697 288.772C856.266 317.118 890.116 365.27 930.384 409.492Z" stroke="url(#paint33_linear_2378_220)" stroke-opacity="0.3" stroke-width="3"/>
<path opacity="0.35" fill-rule="evenodd" clip-rule="evenodd" d="M931.259 405.727C995.559 473.91 1119.5 520.377 1110.29 613.565C1101.35 703.953 964.262 709.657 895.395 768.404C831.404 822.991 803.033 918.715 722.857 944.062C637.254 971.126 539.534 952.116 462.608 905.229C387.186 859.258 335.988 779.481 312.794 694.123C291.832 616.98 324.847 540.22 342.265 462.345C359.031 387.386 349.878 293.129 412.379 248.88C474.995 204.551 560.608 246.063 637.039 253.656C694.604 259.375 751.48 261.073 802.966 287.684C855.824 315.004 890.379 362.379 931.259 405.727Z" stroke="url(#paint34_linear_2378_220)" stroke-opacity="0.3" stroke-width="3"/>
<path opacity="0.36" fill-rule="evenodd" clip-rule="evenodd" d="M932.019 401.978C997.254 468.775 1121.53 512.902 1113.96 605.886C1106.63 696.076 970.171 704.143 902.591 763.859C839.796 819.347 813.198 915.19 733.773 941.834C648.971 970.282 551.3 953.048 473.858 907.684C397.93 863.206 345.545 784.633 320.959 700.012C298.739 623.537 330.293 546.502 346.292 468.628C361.691 393.671 350.937 299.942 412.427 254.779C474.03 209.533 560.032 249.392 636.299 255.624C693.74 260.319 750.425 261.02 802.173 286.63C855.301 312.923 890.545 359.511 932.019 401.978Z" stroke="url(#paint35_linear_2378_220)" stroke-opacity="0.3" stroke-width="3"/>
<path opacity="0.37" fill-rule="evenodd" clip-rule="evenodd" d="M932.666 398.247C998.806 463.646 1123.36 505.436 1117.44 598.186C1111.7 688.149 975.916 698.561 909.636 759.219C848.048 815.582 823.218 911.512 744.564 939.434C660.587 969.247 562.996 953.781 485.069 909.943C408.664 866.962 355.119 789.61 329.159 705.75C305.698 629.961 335.791 552.68 350.375 474.834C364.413 399.902 352.073 306.729 412.54 260.673C473.118 214.532 559.477 252.737 635.556 257.617C692.855 261.293 749.331 261.004 801.323 285.613C854.7 310.878 890.616 356.669 932.666 398.247Z" stroke="url(#paint36_linear_2378_220)" stroke-opacity="0.3" stroke-width="3"/>
<path opacity="0.38" fill-rule="evenodd" clip-rule="evenodd" d="M933.198 394.537C1000.22 458.526 1125.01 497.983 1120.72 590.471C1116.57 680.179 981.494 692.914 916.525 754.488C856.157 811.701 833.089 907.685 755.228 936.866C672.096 968.024 574.618 954.318 496.234 912.01C419.381 870.528 364.702 794.413 337.388 711.335C312.702 636.254 341.337 558.753 354.512 480.96C367.194 406.08 353.285 313.488 412.716 266.56C472.256 219.547 558.941 256.097 634.807 259.634C691.946 262.298 748.197 261.027 800.413 284.634C854.02 308.87 890.59 353.855 933.198 394.537Z" stroke="url(#paint37_linear_2378_220)" stroke-opacity="0.3" stroke-width="3"/>
<path opacity="0.39" fill-rule="evenodd" clip-rule="evenodd" d="M933.617 390.85C1001.48 453.419 1126.47 490.547 1123.81 582.743C1121.23 672.17 986.903 687.206 923.258 749.667C864.12 807.705 842.809 903.711 765.76 934.133C683.495 966.614 586.161 954.66 507.35 913.884C430.078 873.905 374.292 799.043 345.643 716.769C319.751 642.415 346.928 564.722 358.701 487.007C370.033 412.202 354.571 320.219 412.954 272.442C471.445 224.577 558.424 259.474 634.054 261.676C691.015 263.334 747.023 261.089 799.444 283.693C853.262 306.9 890.47 351.07 933.617 390.85Z" stroke="url(#paint38_linear_2378_220)" stroke-opacity="0.3" stroke-width="3"/>
<path opacity="0.4" fill-rule="evenodd" clip-rule="evenodd" d="M933.922 387.188C1002.61 448.327 1127.75 483.131 1126.7 575.008C1125.68 664.125 992.143 681.441 929.834 744.762C871.936 803.599 852.375 899.595 776.157 931.238C694.78 965.023 597.622 954.811 518.413 915.569C440.752 877.094 383.886 803.501 353.921 722.052C326.84 648.444 352.561 570.586 362.939 492.974C372.928 418.269 355.93 326.92 413.254 278.316C470.683 229.623 557.926 262.867 633.297 263.743C690.062 264.403 745.811 261.191 798.418 282.793C852.426 304.97 890.255 348.318 933.922 387.188Z" stroke="url(#paint39_linear_2378_220)" stroke-opacity="0.3" stroke-width="3"/>
<path opacity="0.41" fill-rule="evenodd" clip-rule="evenodd" d="M934.115 383.554C1003.59 443.254 1128.84 475.74 1129.39 567.27C1129.92 656.049 997.214 675.621 936.25 739.775C879.602 799.387 861.785 895.341 786.418 928.185C705.949 963.252 608.998 954.773 529.421 917.066C451.398 880.097 393.48 807.786 362.219 727.184C333.968 654.341 358.236 576.345 367.225 498.861C375.878 424.28 357.361 333.591 413.615 284.182C469.972 234.683 557.447 266.275 632.535 265.835C689.088 265.504 744.56 261.334 797.334 281.934C851.514 303.083 889.946 345.599 934.115 383.554Z" stroke="url(#paint40_linear_2378_220)" stroke-opacity="0.3" stroke-width="3"/>
<path opacity="0.42" fill-rule="evenodd" clip-rule="evenodd" d="M934.197 379.951C1004.43 438.202 1129.75 468.378 1131.88 559.532C1133.96 647.947 1002.12 669.752 942.506 734.711C887.118 795.071 871.037 890.952 796.539 924.977C716.998 961.306 620.284 954.549 540.369 918.378C462.014 882.915 403.07 811.902 370.534 732.166C341.131 660.106 363.948 581.999 371.557 504.669C378.881 430.234 358.863 340.23 414.037 290.039C469.311 239.756 556.987 269.699 631.77 267.954C688.092 266.639 743.272 261.52 796.194 281.119C850.527 301.239 889.543 342.916 934.197 379.951Z" stroke="url(#paint41_linear_2378_220)" stroke-opacity="0.3" stroke-width="3"/>
<path opacity="0.43" fill-rule="evenodd" clip-rule="evenodd" d="M934.165 376.38C1005.13 433.174 1130.47 461.047 1134.18 551.798C1137.78 639.823 1006.84 663.836 948.599 729.573C894.479 790.655 880.127 886.432 806.516 921.618C727.922 959.186 631.477 954.14 551.251 919.506C472.593 885.549 412.651 815.848 378.861 736.998C348.324 665.739 369.695 587.548 375.931 510.395C381.934 436.131 360.434 346.837 414.516 295.886C468.697 244.843 556.544 273.139 630.999 270.098C687.074 267.808 741.946 261.749 794.997 280.347C849.462 299.441 889.047 340.271 934.165 376.38Z" stroke="url(#paint42_linear_2378_220)" stroke-opacity="0.3" stroke-width="3"/>
<path opacity="0.44" fill-rule="evenodd" clip-rule="evenodd" d="M934.026 372.843C1005.69 428.174 1131.02 453.751 1136.29 544.073C1141.4 631.681 1011.4 657.878 954.532 724.364C901.689 786.143 889.056 881.784 816.35 918.111C738.723 956.896 642.575 953.55 562.07 920.453C483.137 888.002 422.225 819.625 387.202 741.681C355.549 671.24 375.478 592.992 380.35 516.041C385.04 441.971 362.076 353.41 415.058 301.723C468.136 249.941 556.123 276.594 630.227 272.269C686.038 269.011 740.585 262.021 793.747 279.621C848.326 297.689 888.461 337.666 934.026 372.843Z" stroke="url(#paint43_linear_2378_220)" stroke-opacity="0.3" stroke-width="3"/>
<path opacity="0.45" fill-rule="evenodd" clip-rule="evenodd" d="M933.777 369.345C1006.12 423.203 1131.38 446.495 1138.2 536.361C1144.81 623.526 1015.79 651.881 960.302 719.089C908.743 781.538 897.821 877.014 826.037 914.46C749.395 954.44 653.575 952.782 572.818 921.22C493.639 890.275 431.785 823.235 395.55 746.216C362.802 676.61 381.293 598.331 384.81 521.605C388.195 447.754 363.787 359.95 415.659 307.549C467.626 255.052 555.722 280.064 629.453 274.466C684.984 270.25 739.19 262.338 792.444 278.941C847.117 295.986 887.785 335.103 933.777 369.345Z" stroke="url(#paint44_linear_2378_220)" stroke-opacity="0.3" stroke-width="3"/>
<path opacity="0.46" fill-rule="evenodd" clip-rule="evenodd" d="M933.418 365.885C1006.4 418.266 1131.57 439.282 1139.91 528.665C1148.01 615.361 1020 645.848 965.906 713.751C915.638 776.845 906.417 872.123 835.573 910.668C759.933 951.821 664.471 951.838 583.492 921.811C504.095 892.37 441.327 826.678 403.901 750.602C370.077 681.849 387.135 603.565 389.306 527.089C391.396 453.478 365.562 366.455 416.316 313.363C467.162 260.173 555.337 283.55 628.674 276.691C683.908 271.525 737.759 262.701 791.086 278.309C845.835 294.333 887.017 332.583 933.418 365.885Z" stroke="url(#paint45_linear_2378_220)" stroke-opacity="0.3" stroke-width="3"/>
<path opacity="0.47" fill-rule="evenodd" clip-rule="evenodd" d="M932.952 362.468C1006.55 413.365 1131.57 432.115 1141.44 520.989C1151.01 607.193 1024.05 639.784 971.345 708.353C922.376 772.066 914.845 867.118 844.957 906.739C770.337 949.043 675.262 950.722 594.089 922.227C514.502 894.289 450.849 829.957 412.254 754.842C377.374 686.958 393.004 608.694 393.84 532.492C394.644 459.143 367.404 372.924 417.031 319.164C466.749 265.306 554.973 287.052 627.893 278.943C682.814 272.836 736.294 263.11 789.676 277.726C844.481 292.732 886.161 330.109 932.952 362.468Z" stroke="url(#paint46_linear_2378_220)" stroke-opacity="0.3" stroke-width="3"/>
<path opacity="0.48" fill-rule="evenodd" clip-rule="evenodd" d="M932.38 359.094C1006.56 408.502 1131.4 424.998 1142.77 513.338C1153.79 599.023 1027.92 633.693 976.618 702.9C928.954 767.206 923.104 862.001 854.186 902.677C780.604 946.108 685.944 949.436 604.607 922.471C524.859 896.033 460.348 833.072 420.606 758.936C384.69 691.936 398.899 613.72 398.408 537.814C397.937 464.75 369.312 379.357 417.804 324.952C466.385 270.448 554.628 290.569 627.111 281.223C681.703 274.185 734.797 263.567 788.216 277.194C843.058 291.184 885.218 327.682 932.38 359.094Z" stroke="url(#paint47_linear_2378_220)" stroke-opacity="0.3" stroke-width="3"/>
<path opacity="0.49" fill-rule="evenodd" clip-rule="evenodd" d="M931.7 355.767C1006.44 403.68 1131.05 417.935 1143.91 505.715C1156.37 590.857 1031.61 627.578 981.724 697.394C935.37 762.267 931.188 856.776 863.258 898.486C790.73 943.02 696.513 947.983 615.04 922.545C535.159 897.604 469.818 836.025 428.952 762.884C392.02 696.784 404.814 618.641 403.008 543.054C401.271 470.298 371.281 385.753 418.631 330.727C466.068 275.599 554.3 294.101 626.326 283.531C680.573 275.571 733.265 264.072 786.703 276.713C841.565 289.69 884.185 325.305 931.7 355.767Z" stroke="url(#paint48_linear_2378_220)" stroke-opacity="0.3" stroke-width="3"/>
<path opacity="0.5" fill-rule="evenodd" clip-rule="evenodd" d="M930.917 352.488C1006.18 398.903 1130.53 410.929 1144.86 498.124C1158.75 582.699 1035.13 621.442 986.663 691.84C941.624 757.254 939.1 851.447 872.171 894.169C800.713 939.783 706.969 946.367 625.388 922.452C545.401 899.005 479.259 838.817 437.292 766.688C399.364 701.503 410.749 623.458 407.64 548.213C404.647 475.786 373.313 392.112 419.515 336.486C465.801 280.759 553.992 297.648 625.54 285.868C679.426 276.995 731.704 264.626 785.142 276.284C840.004 288.252 883.068 322.979 930.917 352.488Z" stroke="url(#paint49_linear_2378_220)" stroke-opacity="0.3" stroke-width="3"/>
<path opacity="0.51" fill-rule="evenodd" clip-rule="evenodd" d="M930.028 349.26C1005.79 394.173 1129.84 403.984 1145.61 490.57C1160.92 574.554 1038.48 615.29 991.433 686.242C947.714 752.17 946.834 846.019 880.922 889.731C810.549 936.401 717.305 944.59 635.645 922.195C555.58 900.237 488.666 841.449 445.62 770.349C406.717 706.093 416.701 628.172 412.299 553.292C408.062 481.215 375.405 398.431 420.452 342.231C465.58 285.927 553.702 301.211 624.751 288.233C678.262 278.458 730.11 265.23 783.53 275.909C838.374 286.873 881.864 320.706 930.028 349.26Z" stroke="url(#paint50_linear_2378_220)" stroke-opacity="0.3" stroke-width="3"/>
<path opacity="0.52" fill-rule="evenodd" clip-rule="evenodd" d="M929.037 346.085C1005.26 389.492 1128.97 397.102 1146.18 483.055C1162.88 566.426 1041.66 609.125 996.035 680.603C953.641 747.02 954.393 840.496 889.512 885.174C820.239 932.877 727.522 942.657 645.81 921.776C565.695 901.304 498.038 843.925 453.936 773.868C414.079 710.555 422.67 632.783 416.987 558.289C411.517 486.585 377.558 404.712 421.444 347.96C465.409 291.103 553.432 304.789 623.962 290.627C677.083 279.961 728.487 265.884 781.872 275.589C836.68 285.552 880.576 318.488 929.037 346.085Z" stroke="url(#paint51_linear_2378_220)" stroke-opacity="0.3" stroke-width="3"/>
<path opacity="0.53" fill-rule="evenodd" clip-rule="evenodd" d="M927.944 342.965C1004.6 384.864 1127.93 390.288 1146.57 475.585C1164.64 558.318 1044.66 602.951 1000.47 674.927C959.401 741.806 961.771 834.881 897.935 880.504C829.777 929.215 737.614 940.568 655.879 921.198C575.741 902.206 507.369 846.243 462.234 777.246C421.444 714.89 428.65 637.291 421.698 563.206C415.007 491.895 379.769 410.953 422.488 353.672C465.285 296.286 553.18 308.382 623.172 293.051C675.887 281.504 726.834 266.59 780.166 275.325C834.919 284.292 879.205 316.326 927.944 342.965Z" stroke="url(#paint52_linear_2378_220)" stroke-opacity="0.3" stroke-width="3"/>
<path opacity="0.54" fill-rule="evenodd" clip-rule="evenodd" d="M926.751 339.902C1003.82 380.292 1126.73 383.545 1146.76 468.162C1166.2 550.235 1047.49 596.772 1004.73 669.218C964.997 736.533 968.972 829.179 906.192 875.723C839.163 925.419 747.581 938.33 665.851 920.464C585.717 902.946 516.658 848.408 470.515 780.484C428.813 719.099 434.643 641.698 426.435 568.042C418.534 497.145 382.039 417.155 423.586 359.368C465.209 301.476 552.948 311.991 622.383 295.504C674.677 283.087 725.153 267.349 778.415 275.118C833.096 283.094 877.753 314.224 926.751 339.902Z" stroke="url(#paint53_linear_2378_220)" stroke-opacity="0.3" stroke-width="3"/>
<path opacity="0.55" fill-rule="evenodd" clip-rule="evenodd" d="M925.46 336.899C1002.91 375.778 1125.36 376.877 1146.78 460.79C1167.56 542.182 1050.15 590.592 1008.83 663.479C970.426 731.205 975.992 823.394 914.283 870.837C848.396 921.492 757.421 935.944 675.722 919.576C595.62 903.528 525.904 850.42 478.775 783.584C436.183 723.182 440.645 646.003 431.194 572.799C422.096 502.336 384.366 423.316 424.737 365.047C465.181 306.672 552.736 315.615 621.594 297.988C673.455 284.712 723.447 268.16 776.621 274.969C831.211 281.96 876.222 312.181 925.46 336.899Z" stroke="url(#paint54_linear_2378_220)" stroke-opacity="0.3" stroke-width="3"/>
<path opacity="0.56" fill-rule="evenodd" clip-rule="evenodd" d="M924.07 333.957C1001.87 371.324 1123.82 370.286 1146.61 453.474C1168.71 534.162 1052.64 584.413 1012.75 657.714C975.688 725.825 982.83 817.529 922.202 865.848C857.471 917.438 767.128 933.414 685.489 918.538C605.444 903.952 535.1 852.281 487.01 786.547C443.548 727.14 446.654 650.207 435.972 577.475C425.69 507.466 386.747 429.435 425.938 370.708C465.2 311.873 552.542 319.254 620.806 300.502C672.218 286.378 721.713 269.025 774.782 274.88C829.264 280.89 874.61 310.201 924.07 333.957Z" stroke="url(#paint55_linear_2378_220)" stroke-opacity="0.3" stroke-width="3"/>
<path opacity="0.57" fill-rule="evenodd" clip-rule="evenodd" d="M922.583 331.079C1000.7 366.933 1122.12 363.775 1146.26 446.216C1169.66 526.179 1054.96 578.24 1016.51 651.927C980.781 720.396 989.483 811.59 929.949 860.761C866.386 913.261 776.701 930.743 695.148 917.351C615.188 904.221 544.244 853.993 495.217 789.373C450.908 730.974 452.666 654.311 440.767 582.071C429.314 512.536 389.182 435.512 427.189 376.35C465.265 317.08 552.367 322.908 620.017 303.046C670.968 288.087 719.953 269.945 772.899 274.85C827.256 279.886 872.919 308.284 922.583 331.079Z" stroke="url(#paint56_linear_2378_220)" stroke-opacity="0.3" stroke-width="3"/>
<path opacity="0.58" fill-rule="evenodd" clip-rule="evenodd" d="M921 328.266C999.407 362.608 1120.26 357.349 1145.72 439.021C1170.42 518.238 1057.1 572.077 1020.09 646.122C985.704 714.924 995.951 805.58 937.523 855.581C875.139 908.965 786.138 927.936 704.698 916.021C624.848 904.339 553.334 855.559 503.393 792.066C458.259 734.685 458.679 658.316 445.578 586.589C432.967 517.547 391.669 441.548 428.489 381.974C465.375 322.291 552.209 326.578 619.229 305.621C669.704 289.838 718.167 270.92 770.974 274.882C825.189 278.951 871.151 306.433 921 328.266Z" stroke="url(#paint57_linear_2378_220)" stroke-opacity="0.3" stroke-width="3"/>
<path opacity="0.59" fill-rule="evenodd" clip-rule="evenodd" d="M919.324 325.521C997.993 358.352 1118.24 351.01 1145.01 431.892C1170.98 510.343 1059.07 565.927 1023.51 640.302C990.46 709.411 1002.24 799.504 944.923 850.31C883.731 904.554 795.437 924.994 714.137 914.548C634.425 904.306 562.368 856.979 511.538 794.626C465.601 738.274 464.694 662.222 450.405 591.027C436.65 522.498 394.21 447.541 429.839 387.579C465.534 327.507 552.073 330.263 618.443 308.228C668.431 291.633 716.359 271.95 769.01 274.976C823.065 278.083 869.308 304.648 919.324 325.521Z" stroke="url(#paint58_linear_2378_220)" stroke-opacity="0.3" stroke-width="3"/>
<path opacity="0.6" fill-rule="evenodd" clip-rule="evenodd" d="M917.555 322.845C996.458 354.166 1116.07 344.762 1144.12 424.832C1171.34 502.497 1060.88 559.793 1026.75 634.471C995.046 703.861 1008.33 793.365 952.148 844.953C892.158 900.032 804.595 921.922 723.461 912.937C643.912 904.127 571.342 858.256 519.647 797.054C472.929 741.742 470.707 666.029 455.244 595.387C440.359 527.39 396.8 453.491 431.237 393.163C465.737 332.726 551.955 333.963 617.66 310.866C667.145 293.471 714.528 273.038 767.007 275.134C820.884 277.286 867.391 302.933 917.555 322.845Z" stroke="url(#paint59_linear_2378_220)" stroke-opacity="0.3" stroke-width="3"/>
<path opacity="0.61" fill-rule="evenodd" clip-rule="evenodd" d="M915.694 320.241C994.802 350.054 1113.73 338.606 1143.06 417.846C1171.51 494.705 1062.51 553.68 1029.83 628.633C999.462 698.278 1014.25 787.168 959.195 839.514C900.417 895.402 813.61 918.724 732.668 911.19C653.307 903.803 580.253 859.393 527.719 799.352C480.241 745.091 476.716 669.74 460.093 599.669C444.094 532.222 399.439 459.397 432.682 398.728C465.986 337.948 551.855 337.678 616.878 313.536C665.85 295.353 712.674 274.182 764.964 275.356C818.648 276.56 865.4 301.287 915.694 320.241Z" stroke="url(#paint60_linear_2378_220)" stroke-opacity="0.3" stroke-width="3"/>
<path opacity="0.62" fill-rule="evenodd" clip-rule="evenodd" d="M913.746 317.711C993.03 346.018 1111.25 332.548 1141.83 410.937C1171.48 486.971 1063.98 547.59 1032.74 622.791C1003.71 692.666 1019.97 780.918 966.065 833.997C908.511 890.67 822.482 915.403 741.758 909.311C662.611 903.338 589.101 860.39 535.751 801.522C487.537 748.32 482.72 673.355 464.954 603.874C447.853 536.995 402.128 465.26 434.176 404.273C466.282 343.173 551.776 341.409 616.1 316.238C664.546 297.281 710.802 275.385 762.887 275.643C816.36 275.907 863.34 299.714 913.746 317.711Z" stroke="url(#paint61_linear_2378_220)" stroke-opacity="0.3" stroke-width="3"/>
<path opacity="0.63" fill-rule="evenodd" clip-rule="evenodd" d="M911.71 315.255C991.142 342.06 1108.62 326.589 1140.42 404.108C1171.27 479.298 1065.28 541.528 1035.48 616.949C1007.79 687.029 1025.51 774.617 972.757 828.407C916.434 885.838 831.207 911.963 750.726 907.303C671.818 902.734 597.881 861.251 543.741 803.565C494.813 751.433 488.717 676.874 469.822 608.002C451.636 541.708 404.864 471.079 435.715 409.796C466.623 348.401 551.717 345.155 615.326 318.973C663.233 299.253 708.909 276.646 760.773 275.996C814.02 275.328 861.209 298.214 911.71 315.255Z" stroke="url(#paint62_linear_2378_220)" stroke-opacity="0.3" stroke-width="3"/>
<path opacity="0.64" fill-rule="evenodd" clip-rule="evenodd" d="M909.586 312.877C989.138 338.182 1105.84 320.733 1138.84 397.363C1170.86 471.69 1066.42 535.497 1038.05 611.111C1011.69 681.371 1030.86 768.271 979.269 822.747C924.187 880.91 839.783 908.407 759.571 905.168C680.926 901.993 606.591 861.978 551.686 805.484C502.066 754.429 494.703 680.299 474.697 612.053C455.439 546.363 407.645 476.854 437.3 415.299C467.008 353.63 551.676 348.917 614.555 321.74C661.912 301.271 706.997 277.967 758.625 276.416C811.628 274.823 859.01 296.789 909.586 312.877Z" stroke="url(#paint63_linear_2378_220)" stroke-opacity="0.3" stroke-width="3"/>
<path opacity="0.65" fill-rule="evenodd" clip-rule="evenodd" d="M907.378 310.577C987.021 334.388 1102.91 314.982 1137.1 390.704C1170.27 464.152 1067.38 529.501 1040.45 605.28C1015.43 675.694 1036.02 761.884 985.599 817.022C931.767 875.892 848.208 904.739 768.29 902.911C689.933 901.119 615.229 862.572 559.583 807.28C509.294 757.31 500.678 683.63 479.575 616.029C459.262 550.959 410.471 482.584 438.929 420.779C467.438 358.861 551.655 352.694 613.787 324.54C660.583 303.335 705.067 279.346 756.443 276.903C809.188 274.395 856.743 295.44 907.378 310.577Z" stroke="url(#paint64_linear_2378_220)" stroke-opacity="0.3" stroke-width="3"/>
<path opacity="0.66" fill-rule="evenodd" clip-rule="evenodd" d="M905.089 308.359C984.796 330.678 1099.84 309.339 1135.19 384.136C1169.49 456.686 1068.19 523.542 1042.69 599.46C1019 670.003 1040.99 755.459 991.751 811.235C939.175 870.786 856.483 900.962 776.883 900.534C698.839 900.115 623.793 863.036 567.433 808.954C516.498 760.078 506.641 686.868 484.458 619.929C463.106 555.497 413.343 488.269 440.604 426.238C467.914 364.093 551.655 356.486 613.027 327.373C659.25 305.446 703.123 280.787 754.231 277.46C806.701 274.044 854.413 294.169 905.089 308.359Z" stroke="url(#paint65_linear_2378_220)" stroke-opacity="0.3" stroke-width="3"/>
<path opacity="0.67" fill-rule="evenodd" clip-rule="evenodd" d="M902.716 306.223C982.459 327.057 1096.62 303.807 1133.12 377.662C1168.52 449.297 1068.83 517.625 1044.76 593.655C1022.4 664.302 1045.78 749.002 997.718 805.391C946.407 865.597 864.602 897.081 785.345 898.041C707.637 898.983 632.279 863.373 575.229 810.509C523.67 762.733 512.587 690.015 489.341 623.755C466.965 559.977 416.255 493.909 442.32 431.675C468.432 369.326 551.673 360.294 612.27 330.239C657.908 307.603 701.161 282.288 751.986 278.086C804.166 273.771 852.017 292.977 902.716 306.223Z" stroke="url(#paint66_linear_2378_220)" stroke-opacity="0.3" stroke-width="3"/>
<path opacity="0.68" fill-rule="evenodd" clip-rule="evenodd" d="M900.265 304.171C980.018 323.525 1093.27 298.389 1130.89 371.284C1167.38 441.989 1069.31 511.753 1046.67 587.869C1025.63 658.595 1050.37 742.515 1003.51 799.494C953.465 860.329 872.568 893.1 793.678 895.436C716.33 897.726 640.687 863.585 582.972 811.946C530.813 765.278 518.518 693.072 494.225 627.508C470.842 564.399 419.211 499.504 444.081 437.089C468.997 374.559 551.712 364.118 611.52 333.139C656.564 309.808 699.187 283.851 749.715 278.782C801.589 273.578 849.561 291.866 900.265 304.171Z" stroke="url(#paint67_linear_2378_220)" stroke-opacity="0.3" stroke-width="3"/>
<path opacity="0.69" fill-rule="evenodd" clip-rule="evenodd" d="M897.735 302.205C977.469 320.085 1089.79 293.088 1128.5 365.007C1166.05 434.765 1069.63 505.928 1048.41 582.103C1028.69 652.884 1054.78 736.004 1009.11 793.548C960.344 854.986 880.375 889.021 801.876 892.72C724.911 896.347 649.012 863.674 590.658 813.267C537.921 767.713 524.428 696.04 499.106 631.187C474.732 568.763 422.205 505.054 445.882 442.48C469.603 379.792 551.77 367.956 610.775 336.073C655.214 312.06 697.197 285.476 747.413 279.549C798.966 273.464 847.043 290.837 897.735 302.205Z" stroke="url(#paint68_linear_2378_220)" stroke-opacity="0.3" stroke-width="3"/>
<path opacity="0.7" fill-rule="evenodd" clip-rule="evenodd" d="M895.129 300.326C974.818 316.739 1086.17 287.906 1125.96 358.832C1164.55 427.628 1069.79 500.156 1049.99 576.363C1031.58 647.174 1059 729.472 1014.53 787.557C967.046 849.572 888.024 884.849 809.939 889.899C733.381 894.85 657.253 863.642 598.285 814.475C544.994 770.04 530.318 698.919 503.984 634.794C478.636 573.071 425.238 510.557 447.725 447.849C470.252 385.025 551.847 371.811 610.036 339.041C653.861 314.361 695.196 287.163 745.084 280.388C796.303 273.433 844.466 289.891 895.129 300.326Z" stroke="url(#paint69_linear_2378_220)" stroke-opacity="0.3" stroke-width="3"/>
<path opacity="0.71" fill-rule="evenodd" clip-rule="evenodd" d="M892.45 298.537C972.066 313.489 1082.42 282.846 1123.26 352.765C1162.87 420.582 1069.8 494.438 1051.4 570.652C1034.31 641.469 1063.03 722.925 1019.76 781.525C973.57 844.093 895.514 880.589 817.867 886.975C741.737 893.237 665.409 863.494 605.853 815.571C552.029 772.262 536.186 701.712 508.858 638.33C482.553 577.322 428.31 516.016 449.608 453.194C470.945 390.257 551.946 375.681 609.305 342.044C652.506 316.71 693.184 288.913 742.731 281.3C793.599 273.483 841.832 289.031 892.45 298.537Z" stroke="url(#paint70_linear_2378_220)" stroke-opacity="0.3" stroke-width="3"/>
<path opacity="0.72" fill-rule="evenodd" clip-rule="evenodd" d="M889.701 296.838C969.218 310.338 1078.54 277.909 1120.41 346.806C1161.02 413.632 1069.65 488.779 1052.66 564.973C1036.87 635.772 1066.87 716.364 1024.82 775.457C979.918 838.55 902.845 876.242 825.659 883.952C749.98 891.512 673.481 863.229 613.361 816.558C559.028 774.378 542.033 704.418 513.728 641.795C486.484 581.517 431.422 521.429 451.534 458.516C471.684 395.488 552.067 379.567 608.585 345.081C651.152 319.108 691.164 290.726 740.357 282.284C790.86 273.617 839.146 288.255 889.701 296.838Z" stroke="url(#paint71_linear_2378_220)" stroke-opacity="0.3" stroke-width="3"/>
<path opacity="0.73" fill-rule="evenodd" clip-rule="evenodd" d="M886.877 295.232C966.269 307.287 1074.53 273.1 1117.41 340.959C1159 406.779 1069.34 483.181 1053.75 559.33C1039.26 630.087 1070.52 709.797 1029.68 769.357C986.082 832.949 910.012 871.814 833.308 880.834C758.102 889.677 681.458 862.853 620.801 817.437C565.982 776.392 547.85 707.041 518.587 645.191C490.421 585.656 434.565 526.796 453.496 463.814C472.461 400.718 552.205 383.468 607.869 348.153C649.793 321.555 689.133 292.604 737.956 283.343C788.081 273.836 836.403 287.568 886.877 295.232Z" stroke="url(#paint72_linear_2378_220)" stroke-opacity="0.3" stroke-width="3"/>
<path opacity="0.74" fill-rule="evenodd" clip-rule="evenodd" d="M883.989 293.719C963.229 304.338 1070.41 268.42 1114.27 335.228C1156.81 400.028 1068.88 477.647 1054.68 553.726C1041.48 624.418 1073.99 703.225 1034.37 763.228C992.069 827.294 917.018 867.309 840.819 877.623C766.109 887.736 689.347 862.366 628.177 818.21C572.896 778.304 553.643 709.58 523.441 648.517C494.369 589.741 437.747 532.117 455.499 469.089C473.284 405.946 552.366 387.385 607.165 351.259C648.438 324.051 687.096 294.545 735.538 284.476C785.27 274.139 833.61 286.968 883.989 293.719Z" stroke="url(#paint73_linear_2378_220)" stroke-opacity="0.3" stroke-width="3"/>
<path opacity="0.75" fill-rule="evenodd" clip-rule="evenodd" d="M881.032 292.302C960.095 301.493 1066.16 263.872 1110.98 329.615C1154.45 393.382 1068.27 472.182 1055.45 548.165C1043.54 618.767 1077.27 696.653 1038.87 757.076C997.874 821.588 923.86 862.729 848.187 874.323C773.993 885.691 697.141 861.772 635.485 818.88C579.763 780.116 559.406 712.038 528.283 651.776C498.325 593.771 440.961 537.392 457.539 474.34C474.147 411.171 552.547 391.318 606.47 354.401C647.082 326.597 685.052 296.552 733.098 285.685C782.424 274.528 830.766 286.458 881.032 292.302Z" stroke="url(#paint74_linear_2378_220)" stroke-opacity="0.3" stroke-width="3"/>
<path opacity="0.76" fill-rule="evenodd" clip-rule="evenodd" d="M878.01 290.981C956.871 298.754 1061.8 259.457 1107.55 324.122C1151.93 386.844 1067.51 466.787 1056.07 542.649C1045.44 613.139 1080.36 690.085 1043.19 750.902C1003.5 815.837 930.536 858.08 855.411 870.938C781.754 883.546 704.839 861.073 642.721 819.448C586.583 781.83 565.139 714.414 533.112 654.967C502.285 597.746 444.206 542.621 459.615 479.566C475.052 416.394 552.748 395.266 605.783 357.578C645.727 329.193 683.002 298.623 730.639 286.969C779.546 275.004 827.874 286.039 878.01 290.981Z" stroke="url(#paint75_linear_2378_220)" stroke-opacity="0.3" stroke-width="3"/>
<path opacity="0.77" fill-rule="evenodd" clip-rule="evenodd" d="M874.928 289.758C953.56 296.123 1057.33 255.178 1103.99 318.753C1149.25 380.418 1066.61 461.466 1056.53 537.183C1047.17 607.537 1083.27 683.525 1047.32 744.714C1008.94 810.043 937.047 853.364 862.491 867.472C789.392 881.305 712.442 860.273 649.888 819.918C593.355 783.448 570.84 716.712 537.93 658.092C506.253 601.668 447.485 547.805 461.729 484.768C475.999 421.615 552.971 399.231 605.108 360.791C644.376 331.839 680.949 300.759 728.165 288.329C776.639 275.568 824.936 285.711 874.928 289.758Z" stroke="url(#paint76_linear_2378_220)" stroke-opacity="0.3" stroke-width="3"/>
<path opacity="0.78" fill-rule="evenodd" clip-rule="evenodd" d="M871.784 288.634C950.163 293.602 1052.74 251.038 1100.29 313.511C1146.41 374.106 1065.56 456.223 1056.84 531.769C1048.75 601.965 1085.99 676.978 1051.27 738.513C1014.2 804.212 943.392 848.587 869.426 863.928C796.904 878.969 719.945 859.373 656.98 820.291C600.077 784.971 576.508 718.932 542.733 661.153C510.224 605.537 450.793 552.943 463.878 489.945C476.987 426.832 553.214 403.211 604.444 364.039C643.028 334.536 678.893 302.961 725.675 289.766C773.704 276.219 821.953 285.476 871.784 288.634Z" stroke="url(#paint77_linear_2378_220)" stroke-opacity="0.3" stroke-width="3"/>
<path opacity="0.79" fill-rule="evenodd" clip-rule="evenodd" d="M868.584 287.611C946.685 291.192 1048.05 247.038 1096.46 308.397C1143.42 367.912 1064.36 451.059 1057 526.411C1050.16 596.426 1088.53 670.447 1055.04 732.304C1019.28 798.348 949.572 843.751 876.215 860.309C804.291 876.544 727.35 858.376 664 820.57C606.748 786.402 582.143 721.075 547.523 664.149C514.2 609.354 454.133 558.035 466.064 495.098C478.017 432.047 553.481 407.207 603.794 367.323C641.686 337.284 676.838 305.229 723.173 291.281C770.744 276.96 818.929 285.334 868.584 287.611Z" stroke="url(#paint78_linear_2378_220)" stroke-opacity="0.3" stroke-width="3"/>
<path opacity="0.8" fill-rule="evenodd" clip-rule="evenodd" d="M865.327 286.69C943.126 288.895 1043.25 243.181 1092.5 303.414C1140.27 361.838 1063.03 445.979 1057.01 521.111C1051.41 590.924 1090.89 663.937 1058.63 726.091C1024.18 792.453 955.585 838.861 882.857 856.619C811.551 874.031 734.653 857.286 670.943 820.756C613.365 787.742 587.742 723.144 552.296 667.082C518.178 613.119 457.501 563.081 468.285 500.227C479.088 437.257 553.77 411.218 603.155 370.642C640.35 340.082 674.781 307.564 720.659 292.873C767.759 277.79 815.865 285.287 865.327 286.69Z" stroke="url(#paint79_linear_2378_220)" stroke-opacity="0.3" stroke-width="3"/>
<path opacity="0.81" fill-rule="evenodd" clip-rule="evenodd" d="M862.014 285.871C939.486 286.713 1038.35 239.467 1088.41 298.566C1136.97 355.888 1061.55 440.984 1056.86 515.874C1052.5 585.462 1093.06 657.45 1062.03 719.879C1028.9 786.534 961.427 833.92 889.349 852.862C818.678 871.434 741.851 856.105 677.805 820.852C619.925 788.992 593.302 725.139 557.049 669.952C522.155 616.833 460.895 568.082 470.538 505.331C480.198 442.464 554.077 415.246 602.528 373.998C639.018 342.932 672.724 309.965 718.131 294.543C764.749 278.711 812.76 285.336 862.014 285.871Z" stroke="url(#paint80_linear_2378_220)" stroke-opacity="0.3" stroke-width="3"/>
<path opacity="0.82" fill-rule="evenodd" clip-rule="evenodd" d="M858.652 285.157C935.774 284.647 1033.35 235.9 1084.2 293.853C1133.53 350.065 1059.94 436.079 1056.57 510.703C1053.44 580.043 1095.06 650.992 1065.26 713.671C1033.44 780.593 967.104 828.933 895.694 849.042C825.678 868.757 748.947 854.836 684.591 820.861C626.431 790.156 598.825 727.062 561.786 672.762C526.134 620.496 464.317 573.038 472.826 510.41C481.35 447.667 554.41 419.289 601.916 377.39C637.696 345.833 670.671 312.432 715.597 296.292C761.721 279.722 809.62 285.482 858.652 285.157Z" stroke="url(#paint81_linear_2378_220)" stroke-opacity="0.3" stroke-width="3"/>
<path opacity="0.83" fill-rule="evenodd" clip-rule="evenodd" d="M855.241 284.548C931.989 282.699 1028.26 232.482 1079.88 289.28C1129.94 344.372 1058.19 431.265 1056.14 505.6C1054.23 574.671 1096.88 644.565 1068.3 707.471C1037.79 774.635 972.613 823.904 901.89 845.161C832.547 866.003 755.937 853.481 691.297 820.784C632.879 791.235 604.309 728.915 566.504 675.513C530.114 624.11 467.766 577.948 475.148 515.464C482.543 452.865 554.765 423.349 601.32 380.818C636.383 348.786 668.622 314.967 713.056 298.121C758.674 280.825 806.447 285.724 855.241 284.548Z" stroke="url(#paint82_linear_2378_220)" stroke-opacity="0.3" stroke-width="3"/>
<path opacity="0.84" fill-rule="evenodd" clip-rule="evenodd" d="M851.781 284.046C928.132 280.87 1023.07 229.213 1075.43 284.848C1126.22 338.81 1056.32 426.545 1055.56 500.568C1054.85 569.349 1098.51 638.175 1071.17 701.283C1041.97 768.663 977.953 818.836 907.934 841.224C839.283 863.174 762.82 852.044 697.919 820.625C639.266 792.23 609.751 730.698 571.199 678.204C534.09 627.675 471.238 582.814 477.501 520.493C483.775 458.059 555.141 427.424 600.737 384.283C635.077 351.79 666.577 317.569 710.507 300.028C755.608 282.02 803.239 286.065 851.781 284.046Z" stroke="url(#paint83_linear_2378_220)" stroke-opacity="0.3" stroke-width="3"/>
<path opacity="0.85" fill-rule="evenodd" clip-rule="evenodd" d="M848.275 283.651C924.206 279.161 1017.8 226.096 1070.87 280.558C1122.35 333.384 1054.3 421.922 1054.83 495.611C1055.33 564.081 1099.97 631.824 1073.85 695.111C1045.96 762.683 983.123 813.734 913.827 837.234C845.884 860.276 769.593 850.528 704.457 820.385C645.592 793.144 615.15 732.415 575.871 680.838C538.063 631.192 474.732 587.635 479.884 525.498C485.045 463.248 555.539 431.516 600.168 387.784C633.781 354.847 664.537 320.238 707.953 302.015C752.526 283.308 800 286.505 848.275 283.651Z" stroke="url(#paint84_linear_2378_220)" stroke-opacity="0.3" stroke-width="3"/>
<path opacity="0.86" fill-rule="evenodd" clip-rule="evenodd" d="M844.727 283.364C920.217 277.575 1012.44 223.132 1066.2 276.414C1118.35 328.095 1052.17 417.399 1053.97 490.731C1055.65 558.87 1101.26 625.516 1076.36 688.959C1049.78 756.697 988.125 808.6 919.569 833.195C852.353 857.309 776.258 848.934 710.912 820.067C651.856 793.978 620.507 734.065 580.521 683.414C542.033 634.66 478.251 592.41 482.3 530.477C486.356 468.431 555.961 435.623 599.618 391.321C632.498 357.954 662.505 322.974 705.397 304.083C749.432 284.688 796.733 287.044 844.727 283.364Z" stroke="url(#paint85_linear_2378_220)" stroke-opacity="0.3" stroke-width="3"/>
<path opacity="0.87" fill-rule="evenodd" clip-rule="evenodd" d="M841.139 283.186C916.164 276.112 1006.99 220.323 1061.42 272.418C1114.22 322.947 1049.91 412.979 1052.98 485.931C1055.83 553.718 1102.37 619.255 1078.69 682.831C1053.41 750.71 992.959 803.439 925.16 829.11C858.686 854.279 782.813 847.268 717.281 819.673C658.057 794.735 625.819 735.652 585.148 685.936C545.999 638.083 481.791 597.142 484.746 535.432C487.706 473.61 556.406 439.746 599.084 394.895C631.227 361.115 660.482 325.778 702.84 306.23C746.326 286.161 793.44 287.684 841.139 283.186Z" stroke="url(#paint86_linear_2378_220)" stroke-opacity="0.3" stroke-width="3"/>
<path opacity="0.88" fill-rule="evenodd" clip-rule="evenodd" d="M837.514 283.119C912.053 274.773 1001.48 217.671 1056.55 268.571C1109.96 317.941 1047.52 408.663 1051.84 481.215C1055.86 548.63 1103.31 613.045 1080.85 676.73C1056.87 744.726 997.627 798.256 930.602 824.983C864.886 851.189 789.259 845.53 723.565 819.206C664.195 795.417 631.088 737.175 589.751 688.404C549.962 641.459 485.354 601.83 487.224 540.362C489.097 478.782 556.877 443.885 598.57 398.505C629.971 364.327 658.472 328.65 700.285 308.458C743.212 287.729 790.124 288.425 837.514 283.119Z" stroke="url(#paint87_linear_2378_220)" stroke-opacity="0.3" stroke-width="3"/>
<path opacity="0.89" fill-rule="evenodd" clip-rule="evenodd" d="M833.852 283.162C907.883 273.56 995.88 215.176 1051.57 264.875C1105.58 313.08 1045.02 404.455 1050.58 476.585C1055.74 543.607 1104.08 606.89 1082.84 670.661C1060.15 738.748 1002.12 793.052 935.889 820.818C870.948 848.041 795.59 843.724 729.76 818.669C670.266 796.025 636.309 738.638 594.327 690.818C553.916 644.79 488.935 606.474 489.729 545.267C490.525 483.949 557.369 448.04 598.072 402.152C628.727 367.591 656.47 331.589 697.729 310.767C740.088 289.39 786.784 289.267 833.852 283.162Z" stroke="url(#paint88_linear_2378_220)" stroke-opacity="0.3" stroke-width="3"/>
<path opacity="0.9" fill-rule="evenodd" clip-rule="evenodd" d="M830.156 283.318C903.66 272.475 990.212 212.84 1046.49 261.333C1101.07 308.368 1042.39 400.356 1049.18 472.043C1055.48 538.654 1104.69 600.792 1084.65 664.627C1063.26 732.782 1006.46 787.834 941.025 816.618C876.874 844.839 801.81 841.854 735.866 818.063C676.27 796.563 641.484 740.041 598.876 693.181C557.865 648.076 492.536 611.074 492.264 550.148C491.992 489.11 557.887 452.211 597.594 405.836C627.499 370.908 654.482 334.596 695.178 313.157C736.959 291.146 783.425 290.211 830.156 283.318Z" stroke="url(#paint89_linear_2378_220)" stroke-opacity="0.3" stroke-width="3"/>
<path opacity="0.91" fill-rule="evenodd" clip-rule="evenodd" d="M826.428 283.585C899.383 271.517 984.476 210.665 1041.32 257.945C1096.45 303.805 1039.65 396.37 1047.65 467.593C1055.08 533.773 1105.12 594.756 1086.29 658.631C1066.19 726.83 1010.62 782.604 946.008 812.386C882.662 841.587 807.915 839.921 741.882 817.392C682.205 797.031 646.609 741.387 603.398 695.494C561.804 651.319 496.155 615.631 494.827 555.003C493.496 494.264 558.427 456.398 597.134 409.556C626.287 374.276 652.507 337.67 692.631 315.627C733.825 292.996 780.046 291.258 826.428 283.585Z" stroke="url(#paint90_linear_2378_220)" stroke-opacity="0.3" stroke-width="3"/>
<path opacity="0.92" fill-rule="evenodd" clip-rule="evenodd" d="M822.673 283.966C895.058 270.688 978.675 208.652 1036.06 254.715C1091.71 299.393 1036.81 392.498 1046 463.237C1054.54 528.968 1105.39 588.785 1087.76 652.678C1068.94 720.896 1014.61 777.366 950.841 808.127C888.314 838.288 813.907 837.929 747.809 816.657C688.073 797.432 651.687 742.676 607.892 697.756C565.738 654.519 499.792 620.145 497.419 559.834C495.04 499.412 558.994 460.601 596.697 413.312C625.094 377.697 650.549 340.813 690.093 318.178C730.69 294.941 776.653 292.408 822.673 283.966Z" stroke="url(#paint91_linear_2378_220)" stroke-opacity="0.3" stroke-width="3"/>
<path opacity="0.93" fill-rule="evenodd" clip-rule="evenodd" d="M818.889 284.461C890.685 269.989 972.811 206.801 1030.71 251.643C1086.86 295.137 1033.84 388.742 1044.22 458.978C1053.85 524.24 1105.49 582.883 1089.06 646.772C1071.52 714.984 1018.44 772.124 955.52 803.844C893.826 834.945 819.781 835.881 753.642 815.861C693.869 797.768 656.712 743.911 612.355 699.971C569.659 657.677 503.444 624.616 500.035 564.64C496.62 504.554 559.583 464.819 596.278 417.106C623.916 381.17 648.605 344.023 687.56 320.811C727.553 296.981 773.244 293.662 818.889 284.461Z" stroke="url(#paint92_linear_2378_220)" stroke-opacity="0.3" stroke-width="3"/>
<path opacity="0.94" fill-rule="evenodd" clip-rule="evenodd" d="M815.084 285.071C886.271 269.422 966.89 205.116 1025.28 248.732C1081.91 291.037 1030.78 385.107 1042.32 454.819C1053.04 519.595 1105.44 577.053 1090.2 640.915C1073.93 709.1 1022.11 766.882 960.049 799.541C899.203 831.562 825.543 833.781 759.385 815.008C699.596 798.043 661.69 745.094 616.791 702.14C573.573 660.794 507.114 629.046 502.681 569.422C498.24 509.689 560.2 469.054 595.884 420.936C622.76 384.696 646.682 347.301 685.04 323.526C724.42 299.117 769.826 295.02 815.084 285.071Z" stroke="url(#paint93_linear_2378_220)" stroke-opacity="0.3" stroke-width="3"/>
<path opacity="0.95" fill-rule="evenodd" clip-rule="evenodd" d="M811.255 285.795C881.814 268.986 960.914 203.594 1019.77 245.981C1076.85 287.095 1027.61 381.591 1040.3 450.761C1052.09 515.032 1105.23 571.298 1091.17 635.111C1076.16 703.244 1025.61 761.643 964.426 795.22C904.439 828.141 831.187 831.629 765.035 814.098C705.25 798.255 666.614 746.226 621.195 704.262C577.476 663.871 510.798 633.433 505.352 574.179C499.897 514.816 560.84 473.304 595.511 424.802C621.624 388.273 644.776 350.646 682.529 326.321C721.289 301.348 766.396 296.482 811.255 285.795Z" stroke="url(#paint94_linear_2378_220)" stroke-opacity="0.3" stroke-width="3"/>
<path opacity="0.96" fill-rule="evenodd" clip-rule="evenodd" d="M807.409 286.635C877.321 268.683 954.888 202.239 1014.18 243.395C1071.69 283.314 1024.33 378.2 1038.16 446.807C1051.01 510.557 1104.86 565.622 1091.98 629.365C1078.23 697.422 1028.94 756.412 968.653 790.887C909.54 824.688 836.716 829.431 770.592 813.136C710.833 798.41 671.489 747.308 625.569 706.341C581.368 666.909 514.498 637.78 508.051 578.912C501.592 519.937 561.509 477.571 595.163 428.706C620.51 391.903 642.893 354.059 680.034 329.198C718.165 303.674 762.961 298.049 807.409 286.635Z" stroke="url(#paint95_linear_2378_220)" stroke-opacity="0.3" stroke-width="3"/>
<path opacity="0.97" fill-rule="evenodd" clip-rule="evenodd" d="M803.545 287.59C872.792 268.512 948.813 201.05 1008.52 240.972C1066.43 279.694 1020.96 374.933 1035.92 442.96C1049.81 506.17 1104.34 560.027 1092.63 623.678C1080.13 691.637 1032.12 751.191 972.729 786.542C914.501 821.203 842.128 827.188 776.055 812.123C716.343 798.507 676.31 748.343 629.911 708.376C585.249 669.907 518.211 642.084 510.774 583.62C503.324 525.05 562.202 481.852 594.838 432.645C619.418 395.584 641.031 357.538 677.553 332.155C715.048 306.096 759.52 299.719 803.545 287.59Z" stroke="url(#paint96_linear_2378_220)" stroke-opacity="0.3" stroke-width="3"/>
<path opacity="0.98" fill-rule="evenodd" clip-rule="evenodd" d="M799.665 288.662C868.229 268.476 942.693 200.029 1002.79 238.715C1061.08 276.238 1017.5 371.793 1033.55 439.222C1048.47 501.876 1103.66 554.518 1093.12 618.055C1081.86 685.893 1035.13 745.985 976.653 782.191C919.323 817.691 847.421 824.903 781.423 811.061C721.777 798.551 681.076 749.331 634.218 710.37C589.116 672.868 521.935 646.348 513.521 588.305C505.092 530.155 562.921 486.15 594.537 436.62C618.348 399.316 639.191 361.085 675.086 335.194C711.938 308.613 756.074 301.496 799.665 288.662Z" stroke="url(#paint97_linear_2378_220)" stroke-opacity="0.3" stroke-width="3"/>
<path opacity="0.99" fill-rule="evenodd" clip-rule="evenodd" d="M795.774 289.851C863.638 268.575 936.533 199.177 996.995 236.625C1055.64 272.948 1013.94 368.782 1031.08 435.595C1047.01 497.677 1102.83 549.097 1093.45 612.499C1083.43 680.193 1037.97 740.797 980.429 777.838C924.008 814.156 852.598 822.581 786.696 809.954C727.137 798.543 685.789 750.276 638.494 712.324C592.97 675.792 525.671 650.572 516.293 592.965C506.897 535.253 563.667 490.463 594.261 440.632C617.304 403.101 637.376 364.699 672.639 338.314C708.841 311.225 752.628 303.377 795.774 289.851Z" stroke="url(#paint98_linear_2378_220)" stroke-opacity="0.3" stroke-width="3"/>
<path fill-rule="evenodd" clip-rule="evenodd" d="M791.875 291.156C859.021 268.809 930.338 198.493 991.14 234.704C1050.12 269.826 1010.29 365.902 1028.51 432.082C1045.44 493.575 1101.86 543.767 1093.63 607.014C1084.84 674.542 1040.66 735.63 984.057 773.485C928.556 810.6 857.659 820.223 791.875 808.804C732.423 798.485 690.449 751.179 642.738 714.238C596.813 678.681 529.421 654.757 519.09 597.602C508.74 540.342 564.441 494.792 594.014 444.68C616.286 406.937 635.589 368.38 670.212 341.515C705.759 313.933 749.185 305.364 791.875 291.156Z" stroke="url(#paint99_linear_2378_220)" stroke-opacity="0.3" stroke-width="3"/>
<defs>
<linearGradient id="paint0_linear_2378_220" x1="931.874" y1="563.225" x2="68.4049" y2="426.465" gradientUnits="userSpaceOnUse">
<stop stop-color="#B620E0"/>
<stop offset="1" stop-color="#0047FF"/>
</linearGradient>
<linearGradient id="paint1_linear_2378_220" x1="936.739" y1="558.526" x2="73.8695" y2="437.257" gradientUnits="userSpaceOnUse">
<stop stop-color="#B620E0"/>
<stop offset="1" stop-color="#0047FF"/>
</linearGradient>
<linearGradient id="paint2_linear_2378_220" x1="941.473" y1="553.764" x2="79.4804" y2="447.924" gradientUnits="userSpaceOnUse">
<stop stop-color="#B620E0"/>
<stop offset="1" stop-color="#0047FF"/>
</linearGradient>
<linearGradient id="paint3_linear_2378_220" x1="946.07" y1="548.943" x2="85.2283" y2="458.465" gradientUnits="userSpaceOnUse">
<stop stop-color="#B620E0"/>
<stop offset="1" stop-color="#0047FF"/>
</linearGradient>
<linearGradient id="paint4_linear_2378_220" x1="950.535" y1="544.065" x2="91.1181" y2="468.876" gradientUnits="userSpaceOnUse">
<stop stop-color="#B620E0"/>
<stop offset="1" stop-color="#0047FF"/>
</linearGradient>
<linearGradient id="paint5_linear_2378_220" x1="954.863" y1="539.134" x2="97.1405" y2="479.156" gradientUnits="userSpaceOnUse">
<stop stop-color="#B620E0"/>
<stop offset="1" stop-color="#0047FF"/>
</linearGradient>
<linearGradient id="paint6_linear_2378_220" x1="959.053" y1="534.152" x2="103.293" y2="489.303" gradientUnits="userSpaceOnUse">
<stop stop-color="#B620E0"/>
<stop offset="1" stop-color="#0047FF"/>
</linearGradient>
<linearGradient id="paint7_linear_2378_220" x1="963.107" y1="529.121" x2="109.576" y2="499.315" gradientUnits="userSpaceOnUse">
<stop stop-color="#B620E0"/>
<stop offset="1" stop-color="#0047FF"/>
</linearGradient>
<linearGradient id="paint8_linear_2378_220" x1="967.022" y1="524.045" x2="115.984" y2="509.19" gradientUnits="userSpaceOnUse">
<stop stop-color="#B620E0"/>
<stop offset="1" stop-color="#0047FF"/>
</linearGradient>
<linearGradient id="paint9_linear_2378_220" x1="970.798" y1="518.927" x2="122.513" y2="518.927" gradientUnits="userSpaceOnUse">
<stop stop-color="#B620E0"/>
<stop offset="1" stop-color="#0047FF"/>
</linearGradient>
<linearGradient id="paint10_linear_2378_220" x1="974.433" y1="513.77" x2="129.16" y2="528.524" gradientUnits="userSpaceOnUse">
<stop stop-color="#B620E0"/>
<stop offset="1" stop-color="#0047FF"/>
</linearGradient>
<linearGradient id="paint11_linear_2378_220" x1="977.93" y1="508.575" x2="135.925" y2="537.979" gradientUnits="userSpaceOnUse">
<stop stop-color="#B620E0"/>
<stop offset="1" stop-color="#0047FF"/>
</linearGradient>
<linearGradient id="paint12_linear_2378_220" x1="981.284" y1="503.348" x2="142.8" y2="547.291" gradientUnits="userSpaceOnUse">
<stop stop-color="#B620E0"/>
<stop offset="1" stop-color="#0047FF"/>
</linearGradient>
<linearGradient id="paint13_linear_2378_220" x1="984.496" y1="498.089" x2="149.782" y2="556.458" gradientUnits="userSpaceOnUse">
<stop stop-color="#B620E0"/>
<stop offset="1" stop-color="#0047FF"/>
</linearGradient>
<linearGradient id="paint14_linear_2378_220" x1="987.566" y1="492.802" x2="156.87" y2="565.479" gradientUnits="userSpaceOnUse">
<stop stop-color="#B620E0"/>
<stop offset="1" stop-color="#0047FF"/>
</linearGradient>
<linearGradient id="paint15_linear_2378_220" x1="990.492" y1="487.49" x2="164.058" y2="574.352" gradientUnits="userSpaceOnUse">
<stop stop-color="#B620E0"/>
<stop offset="1" stop-color="#0047FF"/>
</linearGradient>
<linearGradient id="paint16_linear_2378_220" x1="993.275" y1="482.157" x2="171.345" y2="583.077" gradientUnits="userSpaceOnUse">
<stop stop-color="#B620E0"/>
<stop offset="1" stop-color="#0047FF"/>
</linearGradient>
<linearGradient id="paint17_linear_2378_220" x1="995.917" y1="476.804" x2="178.728" y2="591.652" gradientUnits="userSpaceOnUse">
<stop stop-color="#B620E0"/>
<stop offset="1" stop-color="#0047FF"/>
</linearGradient>
<linearGradient id="paint18_linear_2378_220" x1="998.413" y1="471.435" x2="186.201" y2="600.077" gradientUnits="userSpaceOnUse">
<stop stop-color="#B620E0"/>
<stop offset="1" stop-color="#0047FF"/>
</linearGradient>
<linearGradient id="paint19_linear_2378_220" x1="1000.77" y1="466.053" x2="193.762" y2="608.349" gradientUnits="userSpaceOnUse">
<stop stop-color="#B620E0"/>
<stop offset="1" stop-color="#0047FF"/>
</linearGradient>
<linearGradient id="paint20_linear_2378_220" x1="1002.98" y1="460.66" x2="201.408" y2="616.469" gradientUnits="userSpaceOnUse">
<stop stop-color="#B620E0"/>
<stop offset="1" stop-color="#0047FF"/>
</linearGradient>
<linearGradient id="paint21_linear_2378_220" x1="1005.04" y1="455.26" x2="209.135" y2="624.436" gradientUnits="userSpaceOnUse">
<stop stop-color="#B620E0"/>
<stop offset="1" stop-color="#0047FF"/>
</linearGradient>
<linearGradient id="paint22_linear_2378_220" x1="1006.96" y1="449.856" x2="216.938" y2="632.247" gradientUnits="userSpaceOnUse">
<stop stop-color="#B620E0"/>
<stop offset="1" stop-color="#0047FF"/>
</linearGradient>
<linearGradient id="paint23_linear_2378_220" x1="1008.74" y1="444.45" x2="224.816" y2="639.904" gradientUnits="userSpaceOnUse">
<stop stop-color="#B620E0"/>
<stop offset="1" stop-color="#0047FF"/>
</linearGradient>
<linearGradient id="paint24_linear_2378_220" x1="1010.37" y1="439.046" x2="232.765" y2="647.406" gradientUnits="userSpaceOnUse">
<stop stop-color="#B620E0"/>
<stop offset="1" stop-color="#0047FF"/>
</linearGradient>
<linearGradient id="paint25_linear_2378_220" x1="1011.86" y1="433.647" x2="240.782" y2="654.75" gradientUnits="userSpaceOnUse">
<stop stop-color="#B620E0"/>
<stop offset="1" stop-color="#0047FF"/>
</linearGradient>
<linearGradient id="paint26_linear_2378_220" x1="1013.21" y1="428.254" x2="248.861" y2="661.939" gradientUnits="userSpaceOnUse">
<stop stop-color="#B620E0"/>
<stop offset="1" stop-color="#0047FF"/>
</linearGradient>
<linearGradient id="paint27_linear_2378_220" x1="1014.41" y1="422.872" x2="256.999" y2="668.97" gradientUnits="userSpaceOnUse">
<stop stop-color="#B620E0"/>
<stop offset="1" stop-color="#0047FF"/>
</linearGradient>
<linearGradient id="paint28_linear_2378_220" x1="1015.47" y1="417.503" x2="265.195" y2="675.843" gradientUnits="userSpaceOnUse">
<stop stop-color="#B620E0"/>
<stop offset="1" stop-color="#0047FF"/>
</linearGradient>
<linearGradient id="paint29_linear_2378_220" x1="1016.39" y1="412.15" x2="273.445" y2="682.559" gradientUnits="userSpaceOnUse">
<stop stop-color="#B620E0"/>
<stop offset="1" stop-color="#0047FF"/>
</linearGradient>
<linearGradient id="paint30_linear_2378_220" x1="1017.16" y1="406.816" x2="281.743" y2="689.117" gradientUnits="userSpaceOnUse">
<stop stop-color="#B620E0"/>
<stop offset="1" stop-color="#0047FF"/>
</linearGradient>
<linearGradient id="paint31_linear_2378_220" x1="1017.79" y1="401.504" x2="290.088" y2="695.517" gradientUnits="userSpaceOnUse">
<stop stop-color="#B620E0"/>
<stop offset="1" stop-color="#0047FF"/>
</linearGradient>
<linearGradient id="paint32_linear_2378_220" x1="1018.29" y1="396.217" x2="298.477" y2="701.758" gradientUnits="userSpaceOnUse">
<stop stop-color="#B620E0"/>
<stop offset="1" stop-color="#0047FF"/>
</linearGradient>
<linearGradient id="paint33_linear_2378_220" x1="1018.64" y1="390.957" x2="306.907" y2="707.842" gradientUnits="userSpaceOnUse">
<stop stop-color="#B620E0"/>
<stop offset="1" stop-color="#0047FF"/>
</linearGradient>
<linearGradient id="paint34_linear_2378_220" x1="1018.85" y1="385.728" x2="315.371" y2="713.768" gradientUnits="userSpaceOnUse">
<stop stop-color="#B620E0"/>
<stop offset="1" stop-color="#0047FF"/>
</linearGradient>
<linearGradient id="paint35_linear_2378_220" x1="1018.93" y1="380.533" x2="323.867" y2="719.536" gradientUnits="userSpaceOnUse">
<stop stop-color="#B620E0"/>
<stop offset="1" stop-color="#0047FF"/>
</linearGradient>
<linearGradient id="paint36_linear_2378_220" x1="1018.86" y1="375.373" x2="332.395" y2="725.146" gradientUnits="userSpaceOnUse">
<stop stop-color="#B620E0"/>
<stop offset="1" stop-color="#0047FF"/>
</linearGradient>
<linearGradient id="paint37_linear_2378_220" x1="1018.66" y1="370.252" x2="340.948" y2="730.599" gradientUnits="userSpaceOnUse">
<stop stop-color="#B620E0"/>
<stop offset="1" stop-color="#0047FF"/>
</linearGradient>
<linearGradient id="paint38_linear_2378_220" x1="1018.32" y1="365.173" x2="349.523" y2="735.894" gradientUnits="userSpaceOnUse">
<stop stop-color="#B620E0"/>
<stop offset="1" stop-color="#0047FF"/>
</linearGradient>
<linearGradient id="paint39_linear_2378_220" x1="1017.85" y1="360.138" x2="358.118" y2="741.034" gradientUnits="userSpaceOnUse">
<stop stop-color="#B620E0"/>
<stop offset="1" stop-color="#0047FF"/>
</linearGradient>
<linearGradient id="paint40_linear_2378_220" x1="1017.24" y1="355.15" x2="366.73" y2="746.017" gradientUnits="userSpaceOnUse">
<stop stop-color="#B620E0"/>
<stop offset="1" stop-color="#0047FF"/>
</linearGradient>
<linearGradient id="paint41_linear_2378_220" x1="1016.5" y1="350.213" x2="375.354" y2="750.845" gradientUnits="userSpaceOnUse">
<stop stop-color="#B620E0"/>
<stop offset="1" stop-color="#0047FF"/>
</linearGradient>
<linearGradient id="paint42_linear_2378_220" x1="1015.62" y1="345.328" x2="383.986" y2="755.519" gradientUnits="userSpaceOnUse">
<stop stop-color="#B620E0"/>
<stop offset="1" stop-color="#0047FF"/>
</linearGradient>
<linearGradient id="paint43_linear_2378_220" x1="1014.62" y1="340.498" x2="392.627" y2="760.038" gradientUnits="userSpaceOnUse">
<stop stop-color="#B620E0"/>
<stop offset="1" stop-color="#0047FF"/>
</linearGradient>
<linearGradient id="paint44_linear_2378_220" x1="1013.49" y1="335.726" x2="401.272" y2="764.404" gradientUnits="userSpaceOnUse">
<stop stop-color="#B620E0"/>
<stop offset="1" stop-color="#0047FF"/>
</linearGradient>
<linearGradient id="paint45_linear_2378_220" x1="1012.22" y1="331.015" x2="409.915" y2="768.617" gradientUnits="userSpaceOnUse">
<stop stop-color="#B620E0"/>
<stop offset="1" stop-color="#0047FF"/>
</linearGradient>
<linearGradient id="paint46_linear_2378_220" x1="1010.83" y1="326.367" x2="418.557" y2="772.679" gradientUnits="userSpaceOnUse">
<stop stop-color="#B620E0"/>
<stop offset="1" stop-color="#0047FF"/>
</linearGradient>
<linearGradient id="paint47_linear_2378_220" x1="1009.32" y1="321.784" x2="427.193" y2="776.59" gradientUnits="userSpaceOnUse">
<stop stop-color="#B620E0"/>
<stop offset="1" stop-color="#0047FF"/>
</linearGradient>
<linearGradient id="paint48_linear_2378_220" x1="1007.68" y1="317.27" x2="435.819" y2="780.351" gradientUnits="userSpaceOnUse">
<stop stop-color="#B620E0"/>
<stop offset="1" stop-color="#0047FF"/>
</linearGradient>
<linearGradient id="paint49_linear_2378_220" x1="1005.91" y1="312.826" x2="444.433" y2="783.964" gradientUnits="userSpaceOnUse">
<stop stop-color="#B620E0"/>
<stop offset="1" stop-color="#0047FF"/>
</linearGradient>
<linearGradient id="paint50_linear_2378_220" x1="1004.03" y1="308.455" x2="453.032" y2="787.429" gradientUnits="userSpaceOnUse">
<stop stop-color="#B620E0"/>
<stop offset="1" stop-color="#0047FF"/>
</linearGradient>
<linearGradient id="paint51_linear_2378_220" x1="1002.02" y1="304.16" x2="461.613" y2="790.749" gradientUnits="userSpaceOnUse">
<stop stop-color="#B620E0"/>
<stop offset="1" stop-color="#0047FF"/>
</linearGradient>
<linearGradient id="paint52_linear_2378_220" x1="999.901" y1="299.943" x2="470.173" y2="793.923" gradientUnits="userSpaceOnUse">
<stop stop-color="#B620E0"/>
<stop offset="1" stop-color="#0047FF"/>
</linearGradient>
<linearGradient id="paint53_linear_2378_220" x1="997.662" y1="295.807" x2="478.71" y2="796.953" gradientUnits="userSpaceOnUse">
<stop stop-color="#B620E0"/>
<stop offset="1" stop-color="#0047FF"/>
</linearGradient>
<linearGradient id="paint54_linear_2378_220" x1="995.31" y1="291.753" x2="487.221" y2="799.842" gradientUnits="userSpaceOnUse">
<stop stop-color="#B620E0"/>
<stop offset="1" stop-color="#0047FF"/>
</linearGradient>
<linearGradient id="paint55_linear_2378_220" x1="992.843" y1="287.784" x2="495.702" y2="802.589" gradientUnits="userSpaceOnUse">
<stop stop-color="#B620E0"/>
<stop offset="1" stop-color="#0047FF"/>
</linearGradient>
<linearGradient id="paint56_linear_2378_220" x1="990.265" y1="283.903" x2="504.151" y2="805.196" gradientUnits="userSpaceOnUse">
<stop stop-color="#B620E0"/>
<stop offset="1" stop-color="#0047FF"/>
</linearGradient>
<linearGradient id="paint57_linear_2378_220" x1="987.577" y1="280.111" x2="512.563" y2="807.666" gradientUnits="userSpaceOnUse">
<stop stop-color="#B620E0"/>
<stop offset="1" stop-color="#0047FF"/>
</linearGradient>
<linearGradient id="paint58_linear_2378_220" x1="984.783" y1="276.41" x2="520.94" y2="810" gradientUnits="userSpaceOnUse">
<stop stop-color="#B620E0"/>
<stop offset="1" stop-color="#0047FF"/>
</linearGradient>
<linearGradient id="paint59_linear_2378_220" x1="981.882" y1="272.804" x2="529.276" y2="812.199" gradientUnits="userSpaceOnUse">
<stop stop-color="#B620E0"/>
<stop offset="1" stop-color="#0047FF"/>
</linearGradient>
<linearGradient id="paint60_linear_2378_220" x1="978.878" y1="269.293" x2="537.569" y2="814.265" gradientUnits="userSpaceOnUse">
<stop stop-color="#B620E0"/>
<stop offset="1" stop-color="#0047FF"/>
</linearGradient>
<linearGradient id="paint61_linear_2378_220" x1="975.774" y1="265.881" x2="545.818" y2="816.199" gradientUnits="userSpaceOnUse">
<stop stop-color="#B620E0"/>
<stop offset="1" stop-color="#0047FF"/>
</linearGradient>
<linearGradient id="paint62_linear_2378_220" x1="972.57" y1="262.569" x2="554.019" y2="818.004" gradientUnits="userSpaceOnUse">
<stop stop-color="#B620E0"/>
<stop offset="1" stop-color="#0047FF"/>
</linearGradient>
<linearGradient id="paint63_linear_2378_220" x1="969.268" y1="259.358" x2="562.17" y2="819.682" gradientUnits="userSpaceOnUse">
<stop stop-color="#B620E0"/>
<stop offset="1" stop-color="#0047FF"/>
</linearGradient>
<linearGradient id="paint64_linear_2378_220" x1="965.871" y1="256.252" x2="570.267" y2="821.233" gradientUnits="userSpaceOnUse">
<stop stop-color="#B620E0"/>
<stop offset="1" stop-color="#0047FF"/>
</linearGradient>
<linearGradient id="paint65_linear_2378_220" x1="962.383" y1="253.251" x2="578.312" y2="822.66" gradientUnits="userSpaceOnUse">
<stop stop-color="#B620E0"/>
<stop offset="1" stop-color="#0047FF"/>
</linearGradient>
<linearGradient id="paint66_linear_2378_220" x1="958.803" y1="250.358" x2="586.298" y2="823.966" gradientUnits="userSpaceOnUse">
<stop stop-color="#B620E0"/>
<stop offset="1" stop-color="#0047FF"/>
</linearGradient>
<linearGradient id="paint67_linear_2378_220" x1="955.135" y1="247.575" x2="594.226" y2="825.151" gradientUnits="userSpaceOnUse">
<stop stop-color="#B620E0"/>
<stop offset="1" stop-color="#0047FF"/>
</linearGradient>
<linearGradient id="paint68_linear_2378_220" x1="951.38" y1="244.903" x2="602.09" y2="826.218" gradientUnits="userSpaceOnUse">
<stop stop-color="#B620E0"/>
<stop offset="1" stop-color="#0047FF"/>
</linearGradient>
<linearGradient id="paint69_linear_2378_220" x1="947.541" y1="242.343" x2="609.891" y2="827.17" gradientUnits="userSpaceOnUse">
<stop stop-color="#B620E0"/>
<stop offset="1" stop-color="#0047FF"/>
</linearGradient>
<linearGradient id="paint70_linear_2378_220" x1="943.621" y1="239.899" x2="617.627" y2="828.007" gradientUnits="userSpaceOnUse">
<stop stop-color="#B620E0"/>
<stop offset="1" stop-color="#0047FF"/>
</linearGradient>
<linearGradient id="paint71_linear_2378_220" x1="939.624" y1="237.571" x2="625.298" y2="828.733" gradientUnits="userSpaceOnUse">
<stop stop-color="#B620E0"/>
<stop offset="1" stop-color="#0047FF"/>
</linearGradient>
<linearGradient id="paint72_linear_2378_220" x1="935.548" y1="235.361" x2="632.895" y2="829.35" gradientUnits="userSpaceOnUse">
<stop stop-color="#B620E0"/>
<stop offset="1" stop-color="#0047FF"/>
</linearGradient>
<linearGradient id="paint73_linear_2378_220" x1="931.4" y1="233.27" x2="640.423" y2="829.859" gradientUnits="userSpaceOnUse">
<stop stop-color="#B620E0"/>
<stop offset="1" stop-color="#0047FF"/>
</linearGradient>
<linearGradient id="paint74_linear_2378_220" x1="927.178" y1="231.3" x2="647.877" y2="830.264" gradientUnits="userSpaceOnUse">
<stop stop-color="#B620E0"/>
<stop offset="1" stop-color="#0047FF"/>
</linearGradient>
<linearGradient id="paint75_linear_2378_220" x1="922.887" y1="229.451" x2="655.254" y2="830.565" gradientUnits="userSpaceOnUse">
<stop stop-color="#B620E0"/>
<stop offset="1" stop-color="#0047FF"/>
</linearGradient>
<linearGradient id="paint76_linear_2378_220" x1="918.53" y1="227.727" x2="662.556" y2="830.766" gradientUnits="userSpaceOnUse">
<stop stop-color="#B620E0"/>
<stop offset="1" stop-color="#0047FF"/>
</linearGradient>
<linearGradient id="paint77_linear_2378_220" x1="914.109" y1="226.128" x2="669.778" y2="830.869" gradientUnits="userSpaceOnUse">
<stop stop-color="#B620E0"/>
<stop offset="1" stop-color="#0047FF"/>
</linearGradient>
<linearGradient id="paint78_linear_2378_220" x1="909.628" y1="224.655" x2="676.921" y2="830.876" gradientUnits="userSpaceOnUse">
<stop stop-color="#B620E0"/>
<stop offset="1" stop-color="#0047FF"/>
</linearGradient>
<linearGradient id="paint79_linear_2378_220" x1="905.088" y1="223.309" x2="683.983" y2="830.79" gradientUnits="userSpaceOnUse">
<stop stop-color="#B620E0"/>
<stop offset="1" stop-color="#0047FF"/>
</linearGradient>
<linearGradient id="paint80_linear_2378_220" x1="900.489" y1="222.091" x2="690.958" y2="830.613" gradientUnits="userSpaceOnUse">
<stop stop-color="#B620E0"/>
<stop offset="1" stop-color="#0047FF"/>
</linearGradient>
<linearGradient id="paint81_linear_2378_220" x1="895.839" y1="221.004" x2="697.852" y2="830.348" gradientUnits="userSpaceOnUse">
<stop stop-color="#B620E0"/>
<stop offset="1" stop-color="#0047FF"/>
</linearGradient>
<linearGradient id="paint82_linear_2378_220" x1="891.139" y1="220.047" x2="704.659" y2="829.996" gradientUnits="userSpaceOnUse">
<stop stop-color="#B620E0"/>
<stop offset="1" stop-color="#0047FF"/>
</linearGradient>
<linearGradient id="paint83_linear_2378_220" x1="886.39" y1="219.222" x2="711.378" y2="829.561" gradientUnits="userSpaceOnUse">
<stop stop-color="#B620E0"/>
<stop offset="1" stop-color="#0047FF"/>
</linearGradient>
<linearGradient id="paint84_linear_2378_220" x1="881.594" y1="218.529" x2="718.006" y2="829.045" gradientUnits="userSpaceOnUse">
<stop stop-color="#B620E0"/>
<stop offset="1" stop-color="#0047FF"/>
</linearGradient>
<linearGradient id="paint85_linear_2378_220" x1="876.757" y1="217.97" x2="724.547" y2="828.45" gradientUnits="userSpaceOnUse">
<stop stop-color="#B620E0"/>
<stop offset="1" stop-color="#0047FF"/>
</linearGradient>
<linearGradient id="paint86_linear_2378_220" x1="871.879" y1="217.545" x2="730.995" y2="827.78" gradientUnits="userSpaceOnUse">
<stop stop-color="#B620E0"/>
<stop offset="1" stop-color="#0047FF"/>
</linearGradient>
<linearGradient id="paint87_linear_2378_220" x1="866.967" y1="217.256" x2="737.354" y2="827.036" gradientUnits="userSpaceOnUse">
<stop stop-color="#B620E0"/>
<stop offset="1" stop-color="#0047FF"/>
</linearGradient>
<linearGradient id="paint88_linear_2378_220" x1="862.018" y1="217.102" x2="743.617" y2="826.221" gradientUnits="userSpaceOnUse">
<stop stop-color="#B620E0"/>
<stop offset="1" stop-color="#0047FF"/>
</linearGradient>
<linearGradient id="paint89_linear_2378_220" x1="857.038" y1="217.085" x2="749.787" y2="825.339" gradientUnits="userSpaceOnUse">
<stop stop-color="#B620E0"/>
<stop offset="1" stop-color="#0047FF"/>
</linearGradient>
<linearGradient id="paint90_linear_2378_220" x1="852.029" y1="217.204" x2="755.86" y2="824.39" gradientUnits="userSpaceOnUse">
<stop stop-color="#B620E0"/>
<stop offset="1" stop-color="#0047FF"/>
</linearGradient>
<linearGradient id="paint91_linear_2378_220" x1="846.996" y1="217.462" x2="761.84" y2="823.378" gradientUnits="userSpaceOnUse">
<stop stop-color="#B620E0"/>
<stop offset="1" stop-color="#0047FF"/>
</linearGradient>
<linearGradient id="paint92_linear_2378_220" x1="841.937" y1="217.857" x2="767.72" y2="822.306" gradientUnits="userSpaceOnUse">
<stop stop-color="#B620E0"/>
<stop offset="1" stop-color="#0047FF"/>
</linearGradient>
<linearGradient id="paint93_linear_2378_220" x1="836.86" y1="218.392" x2="773.505" y2="821.177" gradientUnits="userSpaceOnUse">
<stop stop-color="#B620E0"/>
<stop offset="1" stop-color="#0047FF"/>
</linearGradient>
<linearGradient id="paint94_linear_2378_220" x1="831.765" y1="219.065" x2="779.191" y2="819.991" gradientUnits="userSpaceOnUse">
<stop stop-color="#B620E0"/>
<stop offset="1" stop-color="#0047FF"/>
</linearGradient>
<linearGradient id="paint95_linear_2378_220" x1="826.657" y1="219.878" x2="784.78" y2="818.754" gradientUnits="userSpaceOnUse">
<stop stop-color="#B620E0"/>
<stop offset="1" stop-color="#0047FF"/>
</linearGradient>
<linearGradient id="paint96_linear_2378_220" x1="821.537" y1="220.829" x2="790.269" y2="817.466" gradientUnits="userSpaceOnUse">
<stop stop-color="#B620E0"/>
<stop offset="1" stop-color="#0047FF"/>
</linearGradient>
<linearGradient id="paint97_linear_2378_220" x1="816.407" y1="221.921" x2="795.656" y2="816.131" gradientUnits="userSpaceOnUse">
<stop stop-color="#B620E0"/>
<stop offset="1" stop-color="#0047FF"/>
</linearGradient>
<linearGradient id="paint98_linear_2378_220" x1="811.271" y1="223.152" x2="800.945" y2="814.752" gradientUnits="userSpaceOnUse">
<stop stop-color="#B620E0"/>
<stop offset="1" stop-color="#0047FF"/>
</linearGradient>
<linearGradient id="paint99_linear_2378_220" x1="806.135" y1="224.524" x2="806.135" y2="813.33" gradientUnits="userSpaceOnUse">
<stop stop-color="#B620E0"/>
<stop offset="1" stop-color="#0047FF"/>
</linearGradient>
</defs>
</svg>
